<svg xmlns="http://www.w3.org/2000/svg" xmlns:xlink="http://www.w3.org/1999/xlink" width="700" height="700" viewBox="0 0 700 700">
  <defs>
    <clipPath id="3a119e66-ba17-4e98-b4c7-e070c72ce1e3">
      <circle cx="344.98" cy="347.42" r="279.44" fill="none"/>
    </clipPath>
    <linearGradient id="128874ed-119b-42d0-9541-11ce787a051a" x1="2.78" y1="564.42" x2="630.11" y2="564.42" gradientUnits="userSpaceOnUse">
      <stop offset="0" stop-color="#fff"/>
      <stop offset="1" stop-color="#fff" stop-opacity="0"/>
    </linearGradient>
    <symbol id="9085a178-0058-4273-abdd-2f6d63c57094" data-name="New Symbol 23" viewBox="0 0 3.26 4.72">
      <path d="M1.63,4.72h0A1.63,1.63,0,0,1,0,3.09V1.63A1.63,1.63,0,0,1,1.63,0h0A1.63,1.63,0,0,1,3.26,1.63V3.09A1.63,1.63,0,0,1,1.63,4.72Z" fill="#67413a"/>
    </symbol>
    <symbol id="e23cdca0-ead2-43bd-a2c3-22c9fb7414a1" data-name="New Symbol 30" viewBox="0 0 23.76 141.6">
      <path d="M2.25,4.76,0,8.08.26,32.74,1.43,141.6h13.3L22.07,32.74l1.14-17,.55-8.13C19.2-.65,7.52-3.06,2.25,4.76Z" fill="#fac1b1"/>
    </symbol>
    <symbol id="fe940997-cb0f-4519-a7c0-a4e960ca929b" data-name="New Symbol 162" viewBox="0 0 39.78 79.65">
      <g>
        <path d="M.21,74.12a4.22,4.22,0,0,0,2.66,5.31,4.12,4.12,0,0,0,1.33.22A4.21,4.21,0,0,0,8,77.25l9.16-19.18L7,53.78Z" fill="#fac1b1"/>
        <path d="M33.39.32A8.55,8.55,0,0,0,31.06,0a8.73,8.73,0,0,0-8.27,6L13.41,34.29l-2.36,7.13L7,53.78l10.21,4.29L23,45.77l3.43-7.19L38.92,12.47A8.71,8.71,0,0,0,33.39.32Z" fill="#78cdd0"/>
      </g>
    </symbol>
  </defs>
  <title>anna-2</title>
  <g style="isolation: isolate">
    <g id="17fe7c97-854f-4cac-bc05-7e4fcb220b45" data-name="back10">
      <rect y="-4.8" width="701.05" height="703.44" fill="#c7dce4"/>
      <g clip-path="url(#3a119e66-ba17-4e98-b4c7-e070c72ce1e3)">
        <g>
          <rect x="392.16" y="351.41" width="22.31" height="150.59" fill="#9facc1"/>
          <circle cx="345.48" cy="347.59" r="279.43" fill="#9facc1"/>
          <g opacity="0.43">
            <path d="M557.5,317a5.18,5.18,0,1,1-3.33,6.53A5.19,5.19,0,0,1,557.5,317Z" fill="#fff"/>
            <path d="M140.79,117.23a5.18,5.18,0,1,1-3.34,6.52A5.19,5.19,0,0,1,140.79,117.23Z" fill="#fff"/>
            <path d="M490.42,154.57a5.18,5.18,0,1,1-3.34,6.53A5.18,5.18,0,0,1,490.42,154.57Z" fill="#fff"/>
            <path d="M653.74,448.74a2.19,2.19,0,1,1-1.41,2.75A2.18,2.18,0,0,1,653.74,448.74Z" fill="#fff"/>
            <path d="M490,238.43a2.19,2.19,0,1,1-3,.92A2.18,2.18,0,0,1,490,238.43Z" fill="#fff"/>
            <path d="M72,149.82a2.18,2.18,0,1,1-1.4,2.75A2.18,2.18,0,0,1,72,149.82Z" fill="#fff"/>
            <path d="M487.05,85.25a2.18,2.18,0,1,1-2.94.92A2.18,2.18,0,0,1,487.05,85.25Z" fill="#fff"/>
            <path d="M613.71,167.69a2.18,2.18,0,1,1-3,.92A2.18,2.18,0,0,1,613.71,167.69Z" fill="#fff"/>
            <path d="M414,186.36a2.19,2.19,0,1,1-3,.92A2.18,2.18,0,0,1,414,186.36Z" fill="#fff"/>
            <path d="M592.82,91.55a2.19,2.19,0,1,1-3,.92A2.18,2.18,0,0,1,592.82,91.55Z" fill="#fff"/>
            <path d="M350.48,206.13a2.19,2.19,0,1,1,.92,3A2.18,2.18,0,0,1,350.48,206.13Z" fill="#fff"/>
            <path d="M385,158.32a2.18,2.18,0,1,1,.92,3A2.18,2.18,0,0,1,385,158.32Z" fill="#fff"/>
            <path d="M602.36,386.32a2.17,2.17,0,0,1,2.94-.92,2.18,2.18,0,1,1-2.94.92Z" fill="#fff"/>
            <path d="M535.91,355.07a2.19,2.19,0,1,1,.92,2.95A2.18,2.18,0,0,1,535.91,355.07Z" fill="#fff"/>
            <path d="M474.79,388.93a4.75,4.75,0,1,1-6-3.07A4.74,4.74,0,0,1,474.79,388.93Z" fill="#fff"/>
            <path d="M385.43,246.69a5.18,5.18,0,1,1-6.53-3.34A5.19,5.19,0,0,1,385.43,246.69Z" fill="#fff"/>
            <path d="M609.43,482a5.18,5.18,0,1,1-6.53-3.34A5.17,5.17,0,0,1,609.43,482Z" fill="#fff"/>
            <path d="M303.24,195.3a5.86,5.86,0,1,1-7.38-3.78A5.87,5.87,0,0,1,303.24,195.3Z" fill="#fff"/>
            <path d="M541.89,294.16a2.19,2.19,0,1,1-2.75-1.4A2.18,2.18,0,0,1,541.89,294.16Z" fill="#fff"/>
            <path d="M464.79,195.24a2.19,2.19,0,1,1-2.75-1.4A2.18,2.18,0,0,1,464.79,195.24Z" fill="#fff"/>
            <path d="M574.56,441.71a2.18,2.18,0,1,1-2.75-1.41A2.18,2.18,0,0,1,574.56,441.71Z" fill="#fff"/>
            <path d="M434.91,306.42a2.18,2.18,0,1,1-2.75-1.41A2.18,2.18,0,0,1,434.91,306.42Z" fill="#fff"/>
            <path d="M603.66,297.69a2.19,2.19,0,1,1-2.75-1.4A2.18,2.18,0,0,1,603.66,297.69Z" fill="#fff"/>
            <path d="M551.93,111.64a2.19,2.19,0,1,1-.92-3A2.18,2.18,0,0,1,551.93,111.64Z" fill="#fff"/>
            <path d="M438.44,139.59a2.19,2.19,0,1,1-.92-3A2.18,2.18,0,0,1,438.44,139.59Z" fill="#fff"/>
            <path d="M290,114a2.19,2.19,0,1,1-2.75-1.41A2.18,2.18,0,0,1,290,114Z" fill="#fff"/>
            <path d="M612.82,358.73a2.18,2.18,0,1,1-2.75-1.41A2.19,2.19,0,0,1,612.82,358.73Z" fill="#fff"/>
            <path d="M640.54,79.35a2.18,2.18,0,1,1-.92-2.95A2.17,2.17,0,0,1,640.54,79.35Z" fill="#fff"/>
            <path d="M632.36,183.17a2.19,2.19,0,1,1-.93-2.95A2.18,2.18,0,0,1,632.36,183.17Z" fill="#fff"/>
            <path d="M97.7,106.42a2.19,2.19,0,1,1-.93-3A2.18,2.18,0,0,1,97.7,106.42Z" fill="#fff"/>
            <path d="M307.08,175a2.19,2.19,0,1,1-1.41,2.75A2.18,2.18,0,0,1,307.08,175Z" fill="#fff"/>
            <path d="M437.06,378.52a2.18,2.18,0,1,1-2.94.92A2.19,2.19,0,0,1,437.06,378.52Z" fill="#fff"/>
            <path d="M483.63,337.78a2.19,2.19,0,1,1-2.95.92A2.18,2.18,0,0,1,483.63,337.78Z" fill="#fff"/>
            <path d="M407.56,285.71a2.18,2.18,0,1,1-2.95.92A2.18,2.18,0,0,1,407.56,285.71Z" fill="#fff"/>
            <path d="M558.46,77.41a2.18,2.18,0,1,1-3,.93A2.19,2.19,0,0,1,558.46,77.41Z" fill="#fff"/>
            <path d="M586.41,190.9a2.18,2.18,0,1,1-2.95.92A2.18,2.18,0,0,1,586.41,190.9Z" fill="#fff"/>
            <path d="M358.72,96.09a2.19,2.19,0,1,1-3,.92A2.18,2.18,0,0,1,358.72,96.09Z" fill="#fff"/>
            <path d="M474.79,388.93a4.75,4.75,0,1,1-6-3.07A4.74,4.74,0,0,1,474.79,388.93Z" fill="#fff"/>
            <path d="M369.88,287.52a5.18,5.18,0,1,1-6.53-3.34A5.18,5.18,0,0,1,369.88,287.52Z" fill="#fff"/>
            <path d="M239.1,112.84a5.86,5.86,0,1,1-7.38-3.77A5.85,5.85,0,0,1,239.1,112.84Z" fill="#fff"/>
            <path d="M541.89,294.16a2.19,2.19,0,1,1-2.75-1.4A2.18,2.18,0,0,1,541.89,294.16Z" fill="#fff"/>
            <path d="M464.79,195.24a2.19,2.19,0,1,1-2.75-1.41A2.18,2.18,0,0,1,464.79,195.24Z" fill="#fff"/>
            <path d="M574.56,441.71a2.18,2.18,0,1,1-2.75-1.41A2.18,2.18,0,0,1,574.56,441.71Z" fill="#fff"/>
            <path d="M434.91,306.42a2.18,2.18,0,1,1-2.75-1.41A2.18,2.18,0,0,1,434.91,306.42Z" fill="#fff"/>
            <path d="M551.93,111.64a2.19,2.19,0,1,1-.92-3A2.18,2.18,0,0,1,551.93,111.64Z" fill="#fff"/>
            <path d="M290,114a2.19,2.19,0,1,1-2.75-1.41A2.18,2.18,0,0,1,290,114Z" fill="#fff"/>
            <path d="M612.82,358.73a2.18,2.18,0,1,1-2.75-1.41A2.19,2.19,0,0,1,612.82,358.73Z" fill="#fff"/>
            <path d="M632.36,183.17a2.19,2.19,0,1,1-.93-2.95A2.18,2.18,0,0,1,632.36,183.17Z" fill="#fff"/>
            <path d="M97.7,106.42a2.19,2.19,0,1,1-.93-3A2.18,2.18,0,0,1,97.7,106.42Z" fill="#fff"/>
            <path d="M437.06,378.52a2.18,2.18,0,1,1-2.94.92A2.19,2.19,0,0,1,437.06,378.52Z" fill="#fff"/>
            <path d="M483.63,337.78a2.19,2.19,0,1,1-2.95.92A2.18,2.18,0,0,1,483.63,337.78Z" fill="#fff"/>
            <path d="M527.24,395.83a2.18,2.18,0,1,1-3,.92A2.17,2.17,0,0,1,527.24,395.83Z" fill="#fff"/>
            <path d="M407.56,285.71a2.18,2.18,0,1,1-2.95.92A2.18,2.18,0,0,1,407.56,285.71Z" fill="#fff"/>
            <path d="M510.6,213.59a2.19,2.19,0,1,1-3,.92A2.18,2.18,0,0,1,510.6,213.59Z" fill="#fff"/>
            <path d="M558.46,77.41a2.18,2.18,0,1,1-3,.93A2.19,2.19,0,0,1,558.46,77.41Z" fill="#fff"/>
            <path d="M586.41,190.9a2.18,2.18,0,1,1-2.95.92A2.18,2.18,0,0,1,586.41,190.9Z" fill="#fff"/>
            <path d="M358.72,96.09a2.19,2.19,0,1,1-3,.92A2.18,2.18,0,0,1,358.72,96.09Z" fill="#fff"/>
            <path d="M450.58,77.66a4.75,4.75,0,1,1,3.07-6A4.76,4.76,0,0,1,450.58,77.66Z" fill="#fff"/>
            <path d="M494.46,290.54a5.86,5.86,0,1,1,3.78-7.38A5.86,5.86,0,0,1,494.46,290.54Z" fill="#fff"/>
            <path d="M148.24,61.35a2.18,2.18,0,1,1,1.4-2.75A2.19,2.19,0,0,1,148.24,61.35Z" fill="#fff"/>
            <path d="M172.26,176.45a2.18,2.18,0,1,1,1.41-2.75A2.19,2.19,0,0,1,172.26,176.45Z" fill="#fff"/>
            <path d="M77.61,65.53a2.19,2.19,0,1,1,3-.93A2.18,2.18,0,0,1,77.61,65.53Z" fill="#fff"/>
            <path d="M554.8,154.33a2.19,2.19,0,1,1,1.41-2.75A2.18,2.18,0,0,1,554.8,154.33Z" fill="#fff"/>
            <path d="M109.9,154.14a2.18,2.18,0,1,1,2.94-.92A2.18,2.18,0,0,1,109.9,154.14Z" fill="#fff"/>
            <path d="M430.64,241.05a2.19,2.19,0,1,1-2.75-1.41A2.18,2.18,0,0,1,430.64,241.05Z" fill="#fff"/>
            <path d="M217.82,171.13a2.19,2.19,0,1,1-2.75-1.4A2.18,2.18,0,0,1,217.82,171.13Z" fill="#fff"/>
            <path d="M475.21,435.3a2.18,2.18,0,1,1-2.75-1.41A2.18,2.18,0,0,1,475.21,435.3Z" fill="#fff"/>
            <path d="M511.66,306.64a2.18,2.18,0,1,1-2.75-1.41A2.19,2.19,0,0,1,511.66,306.64Z" fill="#fff"/>
            <path d="M452.58,105.23a2.19,2.19,0,1,1-.92-3A2.18,2.18,0,0,1,452.58,105.23Z" fill="#fff"/>
            <path d="M339.09,133.18a2.19,2.19,0,1,1-.92-3A2.18,2.18,0,0,1,339.09,133.18Z" fill="#fff"/>
            <path d="M541.23,500.91a2.19,2.19,0,1,1-2.75-1.41A2.18,2.18,0,0,1,541.23,500.91Z" fill="#fff"/>
            <path d="M559.35,232.41a2.18,2.18,0,1,1-2.75-1.4A2.18,2.18,0,0,1,559.35,232.41Z" fill="#fff"/>
            <path d="M669.13,478.88a2.19,2.19,0,1,1-2.75-1.41A2.18,2.18,0,0,1,669.13,478.88Z" fill="#fff"/>
            <path d="M533,176.76a2.19,2.19,0,1,1-.93-2.95A2.18,2.18,0,0,1,533,176.76Z" fill="#fff"/>
            <path d="M285.05,228.3a2.18,2.18,0,1,1-2.74-1.41A2.19,2.19,0,0,1,285.05,228.3Z" fill="#fff"/>
            <path d="M189.74,368.08a5.18,5.18,0,1,1-2.25-7A5.17,5.17,0,0,1,189.74,368.08Z" fill="#fff"/>
            <path d="M352,435.5a5.19,5.19,0,1,1-2.26-7A5.2,5.2,0,0,1,352,435.5Z" fill="#fff"/>
            <path d="M28.53,343a2.18,2.18,0,1,1-.94-2.94A2.17,2.17,0,0,1,28.53,343Z" fill="#fff"/>
            <path d="M293,375.93a2.18,2.18,0,1,1,1.43-2.74A2.17,2.17,0,0,1,293,375.93Z" fill="#fff"/>
            <path d="M403.42,482.13a2.18,2.18,0,1,1,1.44-2.74A2.18,2.18,0,0,1,403.42,482.13Z" fill="#fff"/>
            <path d="M255.57,513.4a2.18,2.18,0,1,1,1.43-2.74A2.18,2.18,0,0,1,255.57,513.4Z" fill="#fff"/>
            <path d="M383.61,359a2.19,2.19,0,1,1,1.43-2.74A2.18,2.18,0,0,1,383.61,359Z" fill="#fff"/>
            <path d="M324.18,552.46a2.18,2.18,0,1,1,1.43-2.73A2.19,2.19,0,0,1,324.18,552.46Z" fill="#fff"/>
            <path d="M109,350.77a2.18,2.18,0,1,1-2.73-1.43A2.19,2.19,0,0,1,109,350.77Z" fill="#fff"/>
            <path d="M178.09,325.89a2.18,2.18,0,1,1-2.74-1.44A2.17,2.17,0,0,1,178.09,325.89Z" fill="#fff"/>
            <path d="M197.36,258.73a4.75,4.75,0,1,1,6.4-2.07A4.75,4.75,0,0,1,197.36,258.73Z" fill="#fff"/>
            <path d="M261.74,182.55a5.18,5.18,0,1,1,7-2.26A5.18,5.18,0,0,1,261.74,182.55Z" fill="#fff"/>
            <path d="M216.93,373.18a2.18,2.18,0,1,1,2.94-.95A2.18,2.18,0,0,1,216.93,373.18Z" fill="#fff"/>
            <path d="M341.39,388.61a2.18,2.18,0,1,1,2.94-.95A2.2,2.2,0,0,1,341.39,388.61Z" fill="#fff"/>
            <path d="M89.49,292a2.18,2.18,0,1,1,2.94-.95A2.19,2.19,0,0,1,89.49,292Z" fill="#fff"/>
            <path d="M283.9,288.87a2.18,2.18,0,1,1,2.94-.95A2.19,2.19,0,0,1,283.9,288.87Z" fill="#fff"/>
            <path d="M170.75,414.36a2.18,2.18,0,1,1,2.94-.95A2.18,2.18,0,0,1,170.75,414.36Z" fill="#fff"/>
            <path d="M338.89,509.34a2.18,2.18,0,1,1,2.74,1.44A2.17,2.17,0,0,1,338.89,509.34Z" fill="#fff"/>
            <path d="M399.38,409.33a2.18,2.18,0,1,1,2.73,1.44A2.18,2.18,0,0,1,399.38,409.33Z" fill="#fff"/>
            <path d="M121.11,377.68a2.18,2.18,0,1,1,2.94-.95A2.19,2.19,0,0,1,121.11,377.68Z" fill="#fff"/>
            <path d="M231.44,515.64a2.19,2.19,0,1,1,2.74,1.43A2.18,2.18,0,0,1,231.44,515.64Z" fill="#fff"/>
            <path d="M231.4,239.41a2.18,2.18,0,1,1,1.43-2.73A2.18,2.18,0,0,1,231.4,239.41Z" fill="#fff"/>
            <path d="M227.28,301.15a2.18,2.18,0,1,1,1.44-2.74A2.19,2.19,0,0,1,227.28,301.15Z" fill="#fff"/>
            <path d="M317.89,284.17a2.18,2.18,0,1,1,1.43-2.73A2.18,2.18,0,0,1,317.89,284.17Z" fill="#fff"/>
            <path d="M258.46,477.68a2.18,2.18,0,1,1,1.43-2.74A2.17,2.17,0,0,1,258.46,477.68Z" fill="#fff"/>
            <path d="M197.36,258.73a4.75,4.75,0,1,1,6.4-2.07A4.75,4.75,0,0,1,197.36,258.73Z" fill="#fff"/>
            <path d="M216.93,373.18a2.18,2.18,0,1,1,2.94-.95A2.18,2.18,0,0,1,216.93,373.18Z" fill="#fff"/>
            <path d="M341.39,388.61a2.18,2.18,0,1,1,2.94-.95A2.2,2.2,0,0,1,341.39,388.61Z" fill="#fff"/>
            <path d="M89.49,292a2.18,2.18,0,1,1,2.94-.94A2.19,2.19,0,0,1,89.49,292Z" fill="#fff"/>
            <path d="M283.9,288.87a2.18,2.18,0,1,1,2.94-.95A2.19,2.19,0,0,1,283.9,288.87Z" fill="#fff"/>
            <path d="M338.89,509.34a2.18,2.18,0,1,1,2.74,1.44A2.17,2.17,0,0,1,338.89,509.34Z" fill="#fff"/>
            <path d="M121.11,377.68a2.18,2.18,0,1,1,2.94-.95A2.19,2.19,0,0,1,121.11,377.68Z" fill="#fff"/>
            <path d="M231.44,515.64a2.19,2.19,0,1,1,2.74,1.43A2.18,2.18,0,0,1,231.44,515.64Z" fill="#fff"/>
            <path d="M231.4,239.41a2.18,2.18,0,1,1,1.43-2.73A2.18,2.18,0,0,1,231.4,239.41Z" fill="#fff"/>
            <path d="M227.28,301.15a2.18,2.18,0,1,1,1.44-2.74A2.19,2.19,0,0,1,227.28,301.15Z" fill="#fff"/>
            <path d="M155.4,290.94a2.18,2.18,0,1,1,1.43-2.74A2.19,2.19,0,0,1,155.4,290.94Z" fill="#fff"/>
            <path d="M317.89,284.18a2.19,2.19,0,1,1,1.43-2.74A2.2,2.2,0,0,1,317.89,284.18Z" fill="#fff"/>
            <path d="M296,408a2.19,2.19,0,1,1,1.43-2.74A2.18,2.18,0,0,1,296,408Z" fill="#fff"/>
            <path d="M258.46,477.68a2.18,2.18,0,1,1,1.43-2.74A2.17,2.17,0,0,1,258.46,477.68Z" fill="#fff"/>
            <path d="M253,342.21a5.85,5.85,0,1,1,2.54,7.88A5.85,5.85,0,0,1,253,342.21Z" fill="#fff"/>
            <path d="M306.67,481.19a2.18,2.18,0,1,1,.95,2.94A2.18,2.18,0,0,1,306.67,481.19Z" fill="#fff"/>
            <path d="M333.15,332.07a2.18,2.18,0,1,1,2.94-.95A2.19,2.19,0,0,1,333.15,332.07Z" fill="#fff"/>
            <path d="M164.28,226.23a2.18,2.18,0,1,1,2.93-.94A2.17,2.17,0,0,1,164.28,226.23Z" fill="#fff"/>
            <path d="M229.48,343a2.18,2.18,0,1,1,2.94-.95A2.19,2.19,0,0,1,229.48,343Z" fill="#fff"/>
            <path d="M413.67,443.63a2.19,2.19,0,1,1,2.74,1.43A2.19,2.19,0,0,1,413.67,443.63Z" fill="#fff"/>
            <path d="M248.24,429.19a2.18,2.18,0,1,1,2.94-.95A2.19,2.19,0,0,1,248.24,429.19Z" fill="#fff"/>
            <path d="M306.22,449.92a2.19,2.19,0,1,1,2.74,1.43A2.2,2.2,0,0,1,306.22,449.92Z" fill="#fff"/>
            <path d="M163.91,542.91a2.19,2.19,0,1,1-2.95.93A2.18,2.18,0,0,1,163.91,542.91Z" fill="#fff"/>
            <path d="M143,466.78a2.19,2.19,0,1,1-3,.92A2.19,2.19,0,0,1,143,466.78Z" fill="#fff"/>
            <path d="M102.12,486.87a2.18,2.18,0,1,1-.92-2.95A2.18,2.18,0,0,1,102.12,486.87Z" fill="#fff"/>
            <path d="M190.74,454.58a2.19,2.19,0,1,1-.92-2.95A2.18,2.18,0,0,1,190.74,454.58Z" fill="#fff"/>
            <path d="M182.55,558.4a2.19,2.19,0,1,1-.92-2.95A2.19,2.19,0,0,1,182.55,558.4Z" fill="#fff"/>
            <path d="M108.66,452.64a2.19,2.19,0,1,1-3,.92A2.18,2.18,0,0,1,108.66,452.64Z" fill="#fff"/>
            <path d="M136.61,566.13a2.19,2.19,0,1,1-3,.92A2.18,2.18,0,0,1,136.61,566.13Z" fill="#fff"/>
            <path d="M102.12,486.87a2.18,2.18,0,1,1-.92-2.95A2.19,2.19,0,0,1,102.12,486.87Z" fill="#fff"/>
            <path d="M182.55,558.4a2.19,2.19,0,1,1-.92-2.95A2.19,2.19,0,0,1,182.55,558.4Z" fill="#fff"/>
            <path d="M60.79,588.82a2.18,2.18,0,1,1-2.95.92A2.18,2.18,0,0,1,60.79,588.82Z" fill="#fff"/>
            <path d="M108.66,452.64a2.19,2.19,0,1,1-3,.92A2.18,2.18,0,0,1,108.66,452.64Z" fill="#fff"/>
            <path d="M136.61,566.13a2.19,2.19,0,1,1-3,.92A2.18,2.18,0,0,1,136.61,566.13Z" fill="#fff"/>
            <path d="M105,529.56a2.19,2.19,0,1,1,1.41-2.75A2.18,2.18,0,0,1,105,529.56Z" fill="#fff"/>
            <path d="M109.55,607.64a2.19,2.19,0,1,1-2.75-1.41A2.18,2.18,0,0,1,109.55,607.64Z" fill="#fff"/>
            <path d="M83.2,552a2.19,2.19,0,1,1-.92-3A2.18,2.18,0,0,1,83.2,552Z" fill="#fff"/>
            <path d="M475.67,593.11a2.19,2.19,0,1,1-2.95.93A2.18,2.18,0,0,1,475.67,593.11Z" fill="#fff"/>
            <path d="M454.78,517a2.19,2.19,0,1,1-2.95.92A2.19,2.19,0,0,1,454.78,517Z" fill="#fff"/>
            <path d="M413.88,537.06a2.18,2.18,0,1,1-.92-2.94A2.18,2.18,0,0,1,413.88,537.06Z" fill="#fff"/>
            <path d="M502.5,504.78a2.19,2.19,0,1,1-.92-2.95A2.19,2.19,0,0,1,502.5,504.78Z" fill="#fff"/>
            <path d="M494.31,608.6a2.19,2.19,0,1,1-.92-3A2.2,2.2,0,0,1,494.31,608.6Z" fill="#fff"/>
            <path d="M420.42,502.84a2.19,2.19,0,1,1-2.95.92A2.18,2.18,0,0,1,420.42,502.84Z" fill="#fff"/>
            <path d="M448.37,616.33a2.19,2.19,0,1,1-2.95.92A2.18,2.18,0,0,1,448.37,616.33Z" fill="#fff"/>
            <path d="M413.88,537.06a2.18,2.18,0,1,1-.92-2.94A2.19,2.19,0,0,1,413.88,537.06Z" fill="#fff"/>
            <path d="M494.31,608.59a2.18,2.18,0,1,1-.92-2.94A2.18,2.18,0,0,1,494.31,608.59Z" fill="#fff"/>
            <path d="M372.55,639a2.18,2.18,0,1,1-2.95.92A2.18,2.18,0,0,1,372.55,639Z" fill="#fff"/>
            <path d="M420.42,502.84a2.19,2.19,0,1,1-2.95.92A2.18,2.18,0,0,1,420.42,502.84Z" fill="#fff"/>
            <path d="M448.37,616.33a2.19,2.19,0,1,1-2.95.92A2.18,2.18,0,0,1,448.37,616.33Z" fill="#fff"/>
            <path d="M416.75,579.76a2.19,2.19,0,1,1,1.41-2.75A2.18,2.18,0,0,1,416.75,579.76Z" fill="#fff"/>
            <path d="M421.31,657.84a2.19,2.19,0,1,1-2.75-1.41A2.18,2.18,0,0,1,421.31,657.84Z" fill="#fff"/>
            <path d="M395,602.19a2.19,2.19,0,1,1-.92-3A2.19,2.19,0,0,1,395,602.19Z" fill="#fff"/>
          </g>
          <g opacity="0.18">
            <rect x="530.19" y="341.41" width="248.73" height="75.47" fill="#83b2bf"/>
            <g>
              <path d="M607.52,395.55H597a19.52,19.52,0,0,0,0,39h10.48Z"/>
              <path d="M627,415.07a19.52,19.52,0,1,0-19.52,19.52A19.52,19.52,0,0,0,627,415.07Z" fill="#253144"/>
              <path d="M617.25,415.07a9.74,9.74,0,1,0-9.73,9.73A9.74,9.74,0,0,0,617.25,415.07Z" fill="#e0e0e0"/>
            </g>
            <g>
              <path d="M699.61,395.55h-6.36a19.52,19.52,0,0,0,0,39h6.36Z"/>
              <path d="M718.11,415.07a19.53,19.53,0,1,0-19.52,19.52A19.52,19.52,0,0,0,718.11,415.07Z"/>
            </g>
            <g>
              <path d="M557,395.55H546.54a19.52,19.52,0,0,0,0,39H557Z"/>
              <path d="M576.54,415.07A19.52,19.52,0,1,0,557,434.59,19.52,19.52,0,0,0,576.54,415.07Z"/>
            </g>
            <path d="M755.4,394.86a23.72,23.72,0,0,1,23,18.05h13.45L778.06,293.7H565.6V412.91h20.07a23.71,23.71,0,0,1,46.05,0H732.38A23.71,23.71,0,0,1,755.4,394.86Z" fill="#505b72"/>
            <rect x="494.77" y="293.7" width="70.83" height="116.33" fill="#13193d"/>
            <rect x="503.37" y="309.86" width="53.65" height="42" fill="#9facc1"/>
            <g>
              <polygon points="569.81 396.66 491.21 396.66 494.82 420.85 573.42 420.85 569.81 396.66" fill="#13193d"/>
              <polygon points="585.67 396.66 569.81 396.66 573.42 420.85 585.67 420.85 585.67 396.66" fill="#13193d"/>
            </g>
            <rect x="631.72" y="403.89" width="100.66" height="12.99" fill="#13193d"/>
            <polygon points="536.04 408.52 514.06 408.52 514.07 414.17 536.05 414.17 536.04 408.52" fill="#f1f2f2"/>
            <g>
              <rect x="673.93" y="309.86" width="24.66" height="42" fill="#9facc1"/>
              <rect x="633.79" y="309.86" width="32.69" height="42" fill="#9facc1"/>
              <polygon points="629.65 309.87 585.67 309.87 592.62 351.87 629.65 351.87 629.65 309.87" fill="#9facc1"/>
            </g>
            <rect x="673.93" y="356.49" width="3.6" height="9.83" fill="#83b2bf"/>
            <rect x="494.77" y="359.61" width="4.87" height="26.2" fill="#f1f2f2" opacity="0.74"/>
            <rect x="558.68" y="359.61" width="6.92" height="26.2" fill="#f1f2f2" opacity="0.74"/>
            <rect x="565.6" y="359.61" width="3.46" height="26.2" fill="#f1f2f2" opacity="0.74"/>
          </g>
          <polygon points="484.85 399 523.05 399 582.36 399 604.93 425.18 614.09 426.08 604.93 459.25 530.66 445.24 504.21 437.57 484.85 399" fill="#9facc1"/>
          <rect x="2.78" y="493.39" width="627.33" height="142.06" opacity="0.2" fill="url(#128874ed-119b-42d0-9541-11ce787a051a)"/>
          <g opacity="0.22">
            <rect x="451.51" y="436.69" width="191.25" height="31.94" fill="#13193d"/>
            <g>
              <path d="M622.79,452.66h-9.64a18,18,0,0,0,0,35.91h9.64Z"/>
              <path d="M640.74,470.62a18,18,0,1,0-18,17.95A18,18,0,0,0,640.74,470.62Z" fill="#253144"/>
              <path d="M631.74,470.62a9,9,0,1,0-9,8.95A9,9,0,0,0,631.74,470.62Z" fill="#505b72"/>
            </g>
            <g>
              <path d="M503,452.66h-9.64a18,18,0,0,0,0,35.91H503Z"/>
              <path d="M520.9,470.62A18,18,0,1,0,503,488.57,18,18,0,0,0,520.9,470.62Z" fill="#253144"/>
              <path d="M511.9,470.62a9,9,0,1,0-8.95,8.95A9,9,0,0,0,511.9,470.62Z" fill="#505b72"/>
            </g>
            <g>
              <path d="M572.56,452.66H566.7a18,18,0,0,0,0,35.91h5.86Z"/>
              <path d="M589.57,470.62a18,18,0,1,0-18,17.95A18,18,0,0,0,589.57,470.62Z"/>
            </g>
            <g>
              <path d="M456.5,452.66h-9.64a18,18,0,0,0,0,35.91h9.64Z"/>
              <path d="M474.45,470.62a18,18,0,1,0-17.95,17.95A18,18,0,0,0,474.45,470.62Z"/>
            </g>
            <polygon points="470.11 431.33 405.22 431.33 396.72 465.98 462.21 465.98 470.11 431.33" fill="#13193d"/>
            <polygon points="611.23 431.33 494.05 431.33 511.69 399.2 582.25 399.2 611.23 431.33" fill="#505b72"/>
            <polygon points="446.8 399.2 429.16 431.33 494.05 431.33 511.69 399.2 446.8 399.2" fill="#13193d"/>
            <polygon points="437.15 426.61 449.6 403.93 503.71 403.93 491.25 426.61 437.15 426.61" fill="#9facc1"/>
            <polygon points="468.42 438.74 453.94 438.74 451.51 448.66 466.16 448.66 468.42 438.74" fill="#f7f7f8" opacity="0.61"/>
            <polygon points="471.04 438.74 468.42 438.74 466.16 448.66 471.04 448.66 471.04 438.74" fill="#ed7e69"/>
            <polygon points="403.41 438.74 400.97 448.66 412.91 448.66 415.35 438.74 403.41 438.74" fill="#f7f7f8" opacity="0.61"/>
            <polygon points="442.79 446.06 422.57 446.06 421.3 451.26 441.52 451.26 442.79 446.06" fill="#f1f2f2"/>
            <polygon points="551.32 426.61 600.6 426.61 580.15 403.93 551.32 403.93 551.32 426.61" fill="#9facc1"/>
            <polygon points="517.77 403.93 514.49 403.93 502.04 426.61 517.77 426.61 517.77 403.93" fill="#9facc1"/>
            <rect x="520.9" y="403.93" width="24.14" height="22.68" fill="#9facc1"/>
            <path d="M621.13,452a21.81,21.81,0,0,1,21.17,16.61h12.38l-6.91-37.3H470.11l-8.5,37.3h18.5a21.8,21.8,0,0,1,42.35,0H600A21.82,21.82,0,0,1,621.13,452Z" fill="#505b72"/>
            <g>
              <polygon points="464.94 461.32 393.9 461.32 390.31 475.94 461.35 475.94 464.94 461.32" fill="#13193d"/>
              <polygon points="480.11 461.32 464.93 461.32 461.35 475.94 480.11 475.94 480.11 461.32" fill="#13193d"/>
            </g>
            <polygon points="636.72 449.98 655.33 449.98 658.91 464.6 642.75 464.6 636.72 449.98" fill="#13193d"/>
            <rect x="555.73" y="429.68" width="9.04" height="3.31" fill="#13193d"/>
            <rect x="514.57" y="429.68" width="9.04" height="3.31" fill="#13193d"/>
            <polygon points="551.78 399.2 541.87 399.2 541.87 390.46 546.01 390.46 551.78 399.2" fill="#13193d"/>
            <rect x="522.67" y="390.46" width="19.19" height="8.75" fill="#505b72"/>
            <g>
              <rect x="472.16" y="437.47" width="4.58" height="4.58" fill="#f7f7f8"/>
              <rect x="476.74" y="437.47" width="4.58" height="4.58"/>
              <polygon points="467.67 442.05 472.16 442.05 472.16 437.47 468.71 437.47 467.67 442.05"/>
              <rect x="481.32" y="437.47" width="4.58" height="4.58" fill="#f7f7f8"/>
              <rect x="485.9" y="437.47" width="4.58" height="4.58"/>
              <rect x="490.47" y="437.47" width="4.58" height="4.58" fill="#f7f7f8"/>
              <rect x="495.05" y="437.47" width="4.58" height="4.58"/>
              <rect x="499.63" y="437.47" width="4.58" height="4.58" fill="#f7f7f8"/>
              <rect x="504.21" y="437.47" width="4.58" height="4.58"/>
              <rect x="508.79" y="437.47" width="4.58" height="4.58" fill="#f7f7f8"/>
              <rect x="513.37" y="437.47" width="4.58" height="4.58"/>
              <rect x="517.94" y="437.47" width="4.58" height="4.58" fill="#f7f7f8"/>
              <rect x="522.52" y="437.47" width="4.58" height="4.58"/>
              <rect x="527.1" y="437.47" width="4.58" height="4.58" fill="#f7f7f8"/>
              <rect x="531.68" y="437.47" width="4.58" height="4.58"/>
              <rect x="536.26" y="437.47" width="4.58" height="4.58" fill="#f7f7f8"/>
              <rect x="540.84" y="437.47" width="4.58" height="4.58"/>
              <rect x="545.41" y="437.47" width="4.58" height="4.58" fill="#f7f7f8"/>
              <rect x="549.99" y="437.47" width="4.58" height="4.58"/>
              <rect x="554.57" y="437.47" width="4.58" height="4.58" fill="#f7f7f8"/>
              <rect x="559.15" y="437.47" width="4.58" height="4.58"/>
              <rect x="563.73" y="437.47" width="4.58" height="4.58" fill="#f7f7f8"/>
              <rect x="568.3" y="437.47" width="4.58" height="4.58"/>
              <rect x="572.88" y="437.47" width="4.58" height="4.58" fill="#f7f7f8"/>
              <rect x="577.46" y="437.47" width="4.58" height="4.58"/>
              <rect x="582.04" y="437.47" width="4.58" height="4.58" fill="#f7f7f8"/>
              <rect x="586.62" y="437.47" width="4.58" height="4.58"/>
              <rect x="591.2" y="437.47" width="4.58" height="4.58" fill="#f7f7f8"/>
              <rect x="595.77" y="437.47" width="4.58" height="4.58"/>
              <rect x="600.35" y="437.47" width="4.58" height="4.58" fill="#f7f7f8"/>
              <rect x="604.93" y="437.47" width="4.58" height="4.58"/>
              <rect x="609.51" y="437.47" width="4.58" height="4.58" fill="#f7f7f8"/>
              <rect x="614.09" y="437.47" width="4.58" height="4.58"/>
              <rect x="618.67" y="437.47" width="4.58" height="4.58" fill="#f7f7f8"/>
              <rect x="623.24" y="437.47" width="4.58" height="4.58"/>
              <rect x="627.82" y="437.47" width="4.58" height="4.58" fill="#f7f7f8"/>
              <rect x="632.4" y="437.47" width="4.58" height="4.58"/>
              <rect x="636.98" y="437.47" width="4.58" height="4.58" fill="#f7f7f8"/>
              <polygon points="648.9 437.47 646.18 437.47 646.18 442.05 649.75 442.05 648.9 437.47" fill="#f7f7f8"/>
              <rect x="641.56" y="437.47" width="4.58" height="4.58"/>
            </g>
            <g>
              <rect x="641.56" y="442.05" width="4.58" height="4.58" fill="#f7f7f8"/>
              <rect x="636.98" y="442.05" width="4.58" height="4.58"/>
              <polygon points="649.75 442.05 646.18 442.05 646.18 446.63 650.6 446.63 649.75 442.05"/>
              <rect x="632.4" y="442.05" width="4.58" height="4.58" fill="#f7f7f8"/>
              <rect x="627.82" y="442.05" width="4.58" height="4.58"/>
              <rect x="623.24" y="442.05" width="4.58" height="4.58" fill="#f7f7f8"/>
              <rect x="618.67" y="442.05" width="4.58" height="4.58"/>
              <rect x="614.09" y="442.05" width="4.58" height="4.58" fill="#f7f7f8"/>
              <rect x="609.51" y="442.05" width="4.58" height="4.58"/>
              <rect x="604.93" y="442.05" width="4.58" height="4.58" fill="#f7f7f8"/>
              <rect x="600.35" y="442.05" width="4.58" height="4.58"/>
              <rect x="595.77" y="442.05" width="4.58" height="4.58" fill="#f7f7f8"/>
              <rect x="591.2" y="442.05" width="4.58" height="4.58"/>
              <rect x="586.62" y="442.05" width="4.58" height="4.58" fill="#f7f7f8"/>
              <rect x="582.04" y="442.05" width="4.58" height="4.58"/>
              <rect x="577.46" y="442.05" width="4.58" height="4.58" fill="#f7f7f8"/>
              <rect x="572.88" y="442.05" width="4.58" height="4.58"/>
              <rect x="568.3" y="442.05" width="4.58" height="4.58" fill="#f7f7f8"/>
              <rect x="563.73" y="442.05" width="4.58" height="4.58"/>
              <rect x="559.15" y="442.05" width="4.58" height="4.58" fill="#f7f7f8"/>
              <rect x="554.57" y="442.05" width="4.58" height="4.58"/>
              <rect x="549.99" y="442.05" width="4.58" height="4.58" fill="#f7f7f8"/>
              <rect x="545.41" y="442.05" width="4.58" height="4.58"/>
              <rect x="540.84" y="442.05" width="4.58" height="4.58" fill="#f7f7f8"/>
              <rect x="536.26" y="442.05" width="4.58" height="4.58"/>
              <rect x="531.68" y="442.05" width="4.58" height="4.58" fill="#f7f7f8"/>
              <rect x="527.1" y="442.05" width="4.58" height="4.58"/>
              <rect x="522.52" y="442.05" width="4.58" height="4.58" fill="#f7f7f8"/>
              <rect x="517.94" y="442.05" width="4.58" height="4.58"/>
              <rect x="513.37" y="442.05" width="4.58" height="4.58" fill="#f7f7f8"/>
              <rect x="508.79" y="442.05" width="4.58" height="4.58"/>
              <rect x="504.21" y="442.05" width="4.58" height="4.58" fill="#f7f7f8"/>
              <rect x="499.63" y="442.05" width="4.58" height="4.58"/>
              <rect x="495.05" y="442.05" width="4.58" height="4.58" fill="#f7f7f8"/>
              <rect x="490.47" y="442.05" width="4.58" height="4.58"/>
              <rect x="485.9" y="442.05" width="4.58" height="4.58" fill="#f7f7f8"/>
              <rect x="481.32" y="442.05" width="4.58" height="4.58"/>
              <rect x="476.74" y="442.05" width="4.58" height="4.58" fill="#f7f7f8"/>
              <rect x="467.58" y="442.05" width="4.58" height="4.58" fill="#f7f7f8"/>
              <rect x="472.16" y="442.05" width="4.58" height="4.58"/>
              <polygon points="467.58 446.63 467.58 442.42 466.62 446.63 467.58 446.63"/>
            </g>
          </g>
          <path d="M509.83,468.4c-30-10.2-67.17,20.87-74.36,24H547S523.94,477.42,509.83,468.4Z" fill="#c8d0dc"/>
          <g opacity="0.35">
            <rect x="456.03" y="130.39" width="21.92" height="490.08" fill="#141d3a"/>
            <g>
              <rect x="-233.13" y="151.74" width="638.62" height="406.95" fill="#dcf4f2" opacity="0.6" style="mix-blend-mode: screen"/>
              <polygon points="405.49 151.74 405.49 171.18 17.97 558.69 -23.26 558.69 383.69 151.74 405.49 151.74" fill="#c1f8f5" style="mix-blend-mode: soft-light"/>
              <polygon points="405.49 397.87 405.49 439.1 285.94 558.69 244.67 558.69 405.49 397.87" fill="#c1f8f5" opacity="0.7" style="mix-blend-mode: soft-light"/>
              <polygon points="405.49 189.47 405.49 210.08 56.88 558.69 36.26 558.69 405.49 189.47" fill="#c1f8f5" opacity="0.7" style="mix-blend-mode: soft-light"/>
              <polygon points="405.49 351.87 405.49 372.49 219.28 558.69 198.63 558.69 405.49 351.87" fill="#c1f8f5" opacity="0.7" style="mix-blend-mode: soft-light"/>
            </g>
            <rect x="392.16" y="150.09" width="22.31" height="407.16" fill="#141d3a"/>
            <rect x="-246.48" y="545.34" width="660.96" height="26.68" fill="#141d3a"/>
            <polygon points="414.47 187.36 392.16 157.69 392.16 131.39 414.47 131.39 414.47 187.36" fill="#e1dbdb" style="mix-blend-mode: multiply"/>
            <polygon points="477.14 184.19 456.5 156.73 456.5 132.4 477.14 132.4 477.14 184.19" fill="#e1dbdb" style="mix-blend-mode: multiply"/>
            <rect x="-334.73" y="130.39" width="840.6" height="29.55" fill="#1b2644"/>
            <rect x="-334.73" y="130.39" width="840.6" height="9.85" fill="#e1dbdb" style="mix-blend-mode: soft-light"/>
            <g>
              <rect x="266.64" y="522.95" width="29.55" height="70.42" fill="#1b2644"/>
              <polygon points="296.19 548.73 266.63 527.23 266.63 508.16 296.19 508.16 296.19 548.73" fill="#e1dbdb" style="mix-blend-mode: multiply"/>
              <rect x="-147.77" y="493.39" width="466.68" height="29.56" fill="#141d3a"/>
              <rect x="-147.77" y="493.39" width="466.68" height="9.42" fill="#e1dbdb" style="mix-blend-mode: multiply"/>
            </g>
          </g>
          <rect x="455.83" y="347.71" width="22.31" height="261.19" fill="#6e7a92"/>
          <rect x="392.16" y="347.71" width="22.31" height="224.21" fill="#6e7a92"/>
          <rect x="331.94" y="509.46" width="26.64" height="98.41" transform="translate(903.92 213.4) rotate(90)" fill="#6e7a92"/>
          <path d="M407.55,113.16c-13.75-4.1-35.92-14-50.18-6.8s-15.12,5.74-19.52,2.49S292,85,275.12,96.83,230.86,128,230.86,128H439.18S421.31,117.26,407.55,113.16Z" fill="#fff" opacity="0.53"/>
        </g>
      </g>
      <path d="M415,603c-29.85-10.15-66.82,20.75-74,23.87H451.94S429.06,612,415,603Z" fill="#fff"/>
      <g>
        <path d="M535,543.55c-27.95-9.5-62.57,19.43-69.26,22.36H569.55S548.13,552,535,543.55Z" fill="#fff"/>
        <path d="M573.92,556c-12.35-4.2-27.64,8.59-30.6,9.88h45.87S579.73,559.74,573.92,556Z" fill="#fff"/>
      </g>
    </g>
    <g id="6d97196c-7487-48f6-ab34-5626c654ef43" data-name="img10">
      <g>
        <g>
          <g>
            <path d="M249,517.59l.07-6.43-2-2.94c-4.67-6.93-15-4.79-19.05,2.52l.46,6.77A25.67,25.67,0,0,1,249,517.59Z" fill="#ddaa9e"/>
            <path d="M261.68,256.61h0a10.74,10.74,0,0,0-10.74-10.75h-2.3a12.87,12.87,0,0,0-12.87,12.87v58.1a4.68,4.68,0,0,1-4.68,4.68h0a3.9,3.9,0,0,1-3.9-3.9v-.78a3.91,3.91,0,0,0-3.9-3.9h0a3.91,3.91,0,0,0-3.9,3.9h0a18.72,18.72,0,0,0,18.72,18.72h0a21.06,21.06,0,0,0,21.06-21.06V266.14S260.9,255.83,261.68,256.61Z" fill="#543330"/>
            <g>
              <path d="M217.7,295.25h68a0,0,0,0,1,0,0v61a8.2,8.2,0,0,1-8.2,8.2H225.9a8.2,8.2,0,0,1-8.2-8.2v-61A0,0,0,0,1,217.7,295.25Z" fill="#4c2d28"/>
              <rect x="228.06" y="307.2" width="47.26" height="57.28" fill="#3a201d"/>
            </g>
            <path d="M217.44,476s63.61,0,65.92-1,5-104.43,5-104.43a8.7,8.7,0,0,0-3.7-8.43l-21.76-13.46a21,21,0,0,0-22.47,0L218.7,362.14a8.71,8.71,0,0,0-3.71,8.43Z" fill="#cec6ae"/>
            <path d="M283,469.61,251.6,470l-31.4-.41-3.29,3c-4.33,3.95-6.36,8.41-5.86,12.9l1,36,39.59,6.23,40.22-6.57.33-35.61c.51-4.49-1.52-8.95-5.85-12.9Z" fill="#c1b9a3"/>
            <path d="M233.41,368.76a9.37,9.37,0,0,1,4.49,7.93c0,2.78.16,5.55.35,8.32,3.8,15,6.09,30.45,8.59,45.9.42,2.63.89,5.25,1.37,7.87.58.85,1.16,1.68,1.72,2.49a135.23,135.23,0,0,0,8.54-14.2c1.09-2,2.29-4,3.52-6.08.09-.59.19-1.18.29-1.77,1.34-7.88,5.1-15.05,5.89-23.07s1.33-15.94,2.74-23.83c0-.2.09-.39.15-.59.29-5.47.83-12.28,3.21-17.48l-11.35-6a24,24,0,0,0-22.47,0l-12.64,6.72C229.93,359.49,231.78,364.1,233.41,368.76Z" fill="#fecb05"/>
            <rect x="217.17" y="251.7" width="69.03" height="79.65" rx="31.06" ry="31.06" fill="#4c2d28"/>
            <g id="cd8de423-a0f1-41a8-8b6a-41fe21974742" data-name="&lt;Group&gt;">
              <rect x="242.93" y="327.77" width="17.52" height="35.44" rx="6.97" ry="6.97" fill="#fac1b1"/>
              <path d="M260.45,335.54V351.9c-4.61-2.94-12.26-7.77-17.52-10.85v-5.51a7,7,0,0,1,7-7h3.58A7,7,0,0,1,260.45,335.54Z" fill="#ddaa9e"/>
            </g>
            <g>
              <rect x="271.4" y="302.32" width="8" height="15.15" rx="4" ry="4" fill="#ddaa9e"/>
              <rect x="223.8" y="302.32" width="8" height="15.15" rx="4" ry="4" fill="#ddaa9e"/>
              <path d="M228.39,293.92v22.52a20.59,20.59,0,0,0,6,14.58l10.69,10.69a10.13,10.13,0,0,0,14.33,0l9.5-9.49a20.68,20.68,0,0,0,6-14.59V297.1L237.79,278Z" fill="#fac1b1"/>
            </g>
            <path d="M246.76,329.86c-.29,0-.47.45-.33.82.95,2.49,2.95,4.21,5.26,4.21s4.3-1.72,5.26-4.21c.14-.37-.05-.82-.33-.82Z" fill="#fff"/>
            <use id="44546af0-c597-420c-97da-a235a34e576a" data-name="New Symbol 23" width="3.26" height="4.72" transform="translate(237.41 305.1) scale(1.76 1.16)" xlink:href="#9085a178-0058-4273-abdd-2f6d63c57094"/>
            <use id="21ee07c0-4062-4e83-b1f3-6c8938244a00" data-name="New Symbol 23" width="3.26" height="4.72" transform="matrix(-1.76, 0, 0, 1.16, 265.96, 305.1)" xlink:href="#9085a178-0058-4273-abdd-2f6d63c57094"/>
            <g>
              <circle cx="236.75" cy="318.08" r="3.19" fill="#fc8883" opacity="0.36"/>
              <g id="0d68ba5d-79ed-4c63-bec5-b646081c2856" data-name="&lt;Group&gt;">
                <circle cx="266.62" cy="318.08" r="3.19" fill="#fc8883" opacity="0.36"/>
              </g>
            </g>
            <g>
              <path d="M244.09,315.18h-10.2c-3.36,0-6.09-3.57-6.09-7.95v-4.4c0-4.39,2.73-7.95,6.09-7.95h10.2c3.36,0,6.09,3.56,6.09,7.95v4.4C250.18,311.61,247.45,315.18,244.09,315.18Zm-10.2-17.87c-2.33,0-4.22,2.48-4.22,5.52v4.4c0,3,1.89,5.51,4.22,5.51h10.2c2.33,0,4.22-2.47,4.22-5.51v-4.4c0-3-1.89-5.52-4.22-5.52Z" fill="#67008d"/>
              <rect x="248.81" y="299.49" width="5.45" height="4.78" fill="#67008d"/>
              <g>
                <rect x="273.88" y="297.5" width="5.69" height="4.78" fill="#67008d"/>
                <rect x="223.81" y="297.5" width="5.47" height="4.78" fill="#67008d"/>
              </g>
              <g id="47a63230-908a-459e-ab27-ab91444a1d26" data-name="&lt;Group&gt;">
                <path d="M269.31,315.18h-10.2c-3.35,0-6.08-3.57-6.08-7.95v-4.4c0-4.39,2.73-7.95,6.08-7.95h10.2c3.36,0,6.09,3.56,6.09,7.95v4.4C275.4,311.61,272.67,315.18,269.31,315.18Zm-10.2-17.87c-2.33,0-4.22,2.48-4.22,5.52v4.4c0,3,1.89,5.51,4.22,5.51h10.2c2.33,0,4.22-2.47,4.22-5.51v-4.4c0-3-1.89-5.52-4.22-5.52Z" fill="#67008d"/>
              </g>
            </g>
            <polygon points="251 293.95 247.07 294.05 230.08 264.85 246.22 265.27 251 293.95" fill="#4c2d28"/>
            <path d="M227.1,367.64l-8.81,24.84-17,40a6.81,6.81,0,0,1-12.68-4.92l14-42.46,7.27-22a10.22,10.22,0,0,1,9.92-6.94c.78,0,9.83-2.88,10.56-2.49.05,0,1.42,5.48,1.42,5.48C236.43,361.74,229.27,362.8,227.1,367.64Z" fill="#e8e1c8" stroke="#e8e1c8" stroke-miterlimit="10" stroke-width="5"/>
            <g>
              <path d="M276.21,369.3l14.84,14.43,26.4,21.9c1.76,1.41,4.45,1.34,6.75.1a8.65,8.65,0,0,0,2.67-2.25c1.93-2.46,2.06-5.47.32-7.26l-24.48-25.11-12.67-13c-2.57-2.58-7-2.66-10.71-.64-.68.37-9.46,2.33-10,2.95,0,.05.31,4.72.31,4.72C266.32,369.17,272.92,366.7,276.21,369.3Z" fill="#cec6ae"/>
              <path d="M320.64,409.17h0a7.51,7.51,0,0,1-4.75-1.58l-26.58-22.07L274.58,371.2a8.13,8.13,0,0,0-3.53-.86c-1.78-.19-3.79-.39-4.58-2.32a3.84,3.84,0,0,1,.62-3.63c-.36-4.76-.32-4.87.4-5.64s1.78-1.18,7.75-2.72c1.16-.3,2.6-.67,3-.81a13.85,13.85,0,0,1,6.41-1.66,9.93,9.93,0,0,1,7.13,2.8L329,394.47c2.62,2.7,2.55,7.13-.15,10.56a11.26,11.26,0,0,1-3.44,2.9A10.11,10.11,0,0,1,320.64,409.17Zm-27.92-27.31L319,403.71a2.63,2.63,0,0,0,1.6.46h0a5.25,5.25,0,0,0,2.38-.64,6.28,6.28,0,0,0,1.89-1.6c1.12-1.43,1.33-3.1.49-4l-37.15-38.09a5,5,0,0,0-3.57-1.31,8.9,8.9,0,0,0-4.16,1.12,22.14,22.14,0,0,1-4,1.19c-1.24.32-3.23.84-4.55,1.23.05.84.13,1.88.2,2.86l0,.47a10.63,10.63,0,0,1,5.58,1.91l.19.17Z" fill="#cec6ae"/>
            </g>
            <path d="M280.83,351.42c-.92-.71-5.26-2-6.65-2.18-2.94-.44-7-.59-8.55,0-.72.33-1.42,1.72-1.42,1.72-5.26,13.62-9,42.57-11.57,59.41-3.14-16.74-7.83-45.75-13.55-59.3,0,0-.75-1.37-1.48-1.67-1.61-.56-5.62-.31-8.55.2-1.38.25-5.68,1.62-6.57,2.35a2.09,2.09,0,0,0-.73,1.84,8.41,8.41,0,0,0,1,3.06,55.77,55.77,0,0,1,3.86,8.92c4.09,15.24,17,63.25,21.53,78.83.63.32,1.27.66,1,.56a10.77,10.77,0,0,0,8.15.1c-.31.11.32-.25.94-.58,4-15.69,15.34-64,18.94-79.35a55.24,55.24,0,0,1,3.56-9,8.36,8.36,0,0,0,.91-3.09A2.08,2.08,0,0,0,280.83,351.42Z" fill="#fff"/>
            <rect x="248.33" y="455.63" width="7.99" height="7.99" rx="4" ry="4" fill="#bab19b"/>
            <rect x="248.33" y="473.41" width="7.99" height="5.18" rx="2.59" ry="2.59" fill="#bab19b"/>
            <rect x="213.97" y="507.72" width="74.29" height="26.56" rx="9.72" ry="9.72" fill="#998f7a"/>
            <ellipse cx="251.69" cy="330.24" rx="5.31" ry="1.89" fill="#fff"/>
            <path d="M277.9,535.28h-52c-7.68,0-13.92-5.85-13.92-13V514c0-7.19,6.24-13,13.92-13h52c7.67,0,13.92,5.85,13.92,13v8.25C291.82,529.43,285.57,535.28,277.9,535.28Zm-52-26.83A5.74,5.74,0,0,0,220,514v8.25a5.75,5.75,0,0,0,5.92,5.55h52a5.75,5.75,0,0,0,5.92-5.55V514a5.75,5.75,0,0,0-5.92-5.54Z" fill="#998f7a"/>
            <g id="74e5bfb4-fea2-4bfd-a789-21fe45f85976" data-name="&lt;Group&gt;">
              <path d="M258.43,510.22l-2,2.94.23,21.83,1,96.39h11.78L276,535l1-15,.48-7.2C273.44,505.43,263.09,503.29,258.43,510.22Z" fill="#fac1b1"/>
            </g>
            <use width="23.76" height="141.6" transform="matrix(-0.89, 0, 0, 0.89, 249.1, 506)" xlink:href="#e23cdca0-ead2-43bd-a2c3-22c9fb7414a1"/>
            <g>
              <path d="M253.93,550h24.48l-6.56,88.91s-15.9,4.86-16,.25S253.93,550,253.93,550Z" fill="#181819"/>
              <path d="M283.47,635.45c-8.24-1.42-21-4.86-21-4.86L258,634h-.86L255,636.57V644h9v-.75l-.31-1.19A3.73,3.73,0,0,1,267,644h23S292.13,637.42,283.47,635.45Z" fill="#181819"/>
              <path d="M255,640v4h9v-.75l-.31-1.19A3.73,3.73,0,0,1,267,644h23a7.78,7.78,0,0,0-.1-4Z" fill="#543330"/>
            </g>
            <rect x="243.18" y="385.31" width="17.02" height="31.25" rx="2.59" ry="2.59" fill="#00b956"/>
            <g>
              <path d="M251.87,550H227.39l6.55,88.91s15.9,4.86,16,.25S251.87,550,251.87,550Z" fill="#181819"/>
              <path d="M222.33,635.45c8.24-1.42,21-4.86,21-4.86l4.49,3.41h.85l-.67,2.57V644h-8v-.75l1.21-1.19a2.8,2.8,0,0,0-2.44,1.94h-23S213.66,637.42,222.33,635.45Z" fill="#181819"/>
              <path d="M248,640v4h-8v-.75l1.21-1.19a2.8,2.8,0,0,0-2.44,1.94h-23a7.84,7.84,0,0,1,.09-4Z" fill="#543330"/>
            </g>
            <g>
              <use id="94576e17-7971-4806-8dea-303297353d5a" data-name="New Symbol 162" width="39.78" height="79.65" transform="matrix(0.26, -0.77, -0.77, -0.26, 321.95, 429.69)" xlink:href="#fe940997-cb0f-4519-a7c0-a4e960ca929b"/>
              <path d="M245.55,396.2h0l14.69,2.48,0,.21.85-.06,6.33,4.92-.31,4.18a1.81,1.81,0,0,1-1.62,1.66l-16.57,1.65s-5.69-.47-6-2.89a21.15,21.15,0,0,0-1.06-4.33c.93-1.24,1.15-.79,2.68-.57l9.82-2.2-7.73-2.3A1.89,1.89,0,0,1,245.55,396.2Z" fill="#fac1b1" stroke="#fac1b1" stroke-miterlimit="10" stroke-width="0.81"/>
              <path d="M330.56,403.65a6.54,6.54,0,0,1-.37,1.88,7.11,7.11,0,0,1-6.79,4.78l-24.27-.26L293,410l-10.59-.12-.61-9,11-1.27,6.45-.73,23.39-2.69A7.09,7.09,0,0,1,330.56,403.65Z" fill="#e8e1c8" stroke="#e8e1c8" stroke-miterlimit="10" stroke-width="5"/>
              <rect x="271.37" y="401.57" width="17.81" height="9.31" rx="4.66" ry="4.66" transform="translate(655.93 86.14) rotate(84.17)" fill="#f5f5f5"/>
            </g>
            <path d="M231.81,501s20.67-4.21,20.51-12.08,0,17.13,0,17.13Z" fill="#998f7a"/>
            <path d="M245.36,501l6.9-6.61a8.16,8.16,0,0,0,8.19,6.61c7.05,0-11.71,1.48-11.71,1.48Z" fill="#998f7a"/>
            <g id="a1d16482-3687-41c0-b143-25a5aac170c2" data-name="&lt;Group&gt;">
              <path d="M256.8,517.88c6.25-2.29,12.41-3,18.4-.54.61.13,1.21.27,1.8.45l.47-7c-4-7.31-14.38-9.45-19-2.52l-2,2.94.07,6.81Z" fill="#ddaa9e"/>
            </g>
            <path d="M189.44,426.31a9,9,0,0,0-.81,1.9c-.94,3.07-.16,6.25,2.08,7.79l17.45,12,4.4,3,7.62,5.25,5.61-7.9-7.13-6.73-4.16-3.93-15.13-14.27C196.54,420.8,191.79,422.16,189.44,426.31Z" fill="#e8e1c8" stroke="#e8e1c8" stroke-miterlimit="10" stroke-width="5"/>
            <rect x="211.02" y="445.82" width="17.81" height="9.31" rx="4.66" ry="4.66" transform="translate(-269.48 341.97) rotate(-51.48)" fill="#f5f5f5"/>
            <polygon points="231.33 441.85 217.1 459 217.29 469.61 217.7 470.75 236 449.45 231.33 441.85" fill="#bab19b"/>
          </g>
          <g id="0a7d9238-04f6-40a1-826a-3e3a904c222a" data-name="&lt;Group&gt;">
            <path d="M228.43,517.88c6.25-2.29,12.4-3,18.39-.54.61.13,1.21.27,1.8.45l.48-7c-4-7.31-14.38-9.45-19-2.52l-2,2.94.07,6.81Z" fill="#ddaa9e"/>
          </g>
        </g>
        <path d="M249.16,494s2.27-2.24,3.14.11,1.63-9.06,1.63-9.06H248.5l.6,8.12" fill="#c1b9a3"/>
      </g>
    </g>
  </g>
</svg>
