<svg xmlns="http://www.w3.org/2000/svg" xmlns:xlink="http://www.w3.org/1999/xlink" width="700" height="700" viewBox="0 0 700 700">
  <defs>
    <clipPath id="30da4f68-9aa7-4cfb-9807-0d25e299d9fd">
      <circle cx="344.98" cy="347.42" r="279.44" fill="none"/>
    </clipPath>
    <clipPath id="2b902a7c-28cf-477c-aa04-5ff592b6e250">
      <rect x="176.51" y="52.09" width="337.85" height="322.36" transform="translate(-1.14 1.86) rotate(-0.31)" fill="none"/>
    </clipPath>
    <linearGradient id="06d8e6e4-63b3-430d-ad48-8acb372391be" x1="346.52" y1="85.07" x2="346.52" y2="1041.92" gradientTransform="translate(-1.74 1.85) rotate(-0.31)" gradientUnits="userSpaceOnUse">
      <stop offset="0" stop-color="#fff"/>
      <stop offset="1" stop-color="#fff" stop-opacity="0"/>
    </linearGradient>
    <symbol id="09f177b2-405e-4bcb-9507-494adad0244b" data-name="New Symbol 204" viewBox="0 0 49.42 99.31">
      <path d="M24.85,8.79.37,88.48A8.36,8.36,0,0,0,4.22,98.2h0a8.36,8.36,0,0,0,11.85-4L48.43,17.48a12.58,12.58,0,0,0-5.68-16h0A12.58,12.58,0,0,0,24.85,8.79Z" fill="#78cdd0"/>
    </symbol>
    <symbol id="fc771f3e-c3cc-4c2e-81a7-2fc18d8dfdaa" data-name="New Symbol 207" viewBox="0 0 39.78 79.65">
      <g>
        <path d="M.21,74.12a4.22,4.22,0,0,0,2.66,5.31,4.12,4.12,0,0,0,1.33.22A4.21,4.21,0,0,0,8,77.25L23,45.77l-12-4.35Z" fill="#fac1b1"/>
        <path d="M33.39.32A8.55,8.55,0,0,0,31.06,0a8.73,8.73,0,0,0-8.27,6L11.05,41.42l12,4.35,15.89-33.3A8.71,8.71,0,0,0,33.39.32Z" fill="#78cdd0"/>
      </g>
    </symbol>
    <symbol id="4cbf2660-9122-4626-ab48-e1f9b230574c" data-name="New Symbol 23" viewBox="0 0 3.26 4.72">
      <path d="M1.63,4.72h0A1.63,1.63,0,0,1,0,3.09V1.63A1.63,1.63,0,0,1,1.63,0h0A1.63,1.63,0,0,1,3.26,1.63V3.09A1.63,1.63,0,0,1,1.63,4.72Z" fill="#67413a"/>
    </symbol>
    <symbol id="c504efda-7f98-41ec-bee6-be79963e4d5d" data-name="New Symbol 32" viewBox="0 0 3.79 1.46">
      <path d="M.25,1.2,0,.18A5.87,5.87,0,0,1,3.79.49l-.42,1A4.9,4.9,0,0,0,.25,1.2Z" fill="#b0593c"/>
    </symbol>
  </defs>
  <title>anna-1</title>
  <g style="isolation: isolate">
    <g id="a390a88e-9465-410e-9084-be9b450de35c" data-name="back6">
      <polyline points="333.08 471.53 311.45 479.2 330.14 483.02" fill="#272749"/>
    </g>
    <g id="0dd3e544-cdb2-40b7-a668-e2eec6ff8713" data-name="back9">
      <rect y="-4.8" width="701.05" height="703.44" fill="#c7dce4"/>
      <g clip-path="url(#30da4f68-9aa7-4cfb-9807-0d25e299d9fd)">
        <g>
          <rect id="ac0a5c12-4e2b-4b3a-a2b2-88e4d1c3b16e" data-name="&lt;Path&gt;" x="-19.7" y="60.08" width="733.09" height="575.77" transform="translate(-1.86 1.87) rotate(-0.31)" fill="#505b72"/>
          <rect id="6702c4b1-3395-43a7-a8c1-ae75ca9a6fb5" data-name="&lt;Path&gt;" x="177.91" y="60.08" width="336.47" height="314.36" transform="translate(-1.16 1.86) rotate(-0.31)" fill="#9facc1"/>
          <g opacity="0.43">
            <g clip-path="url(#2b902a7c-28cf-477c-aa04-5ff592b6e250)">
              <g>
                <path d="M551.68,264a5.16,5.16,0,1,1-3.29,6.51A5.16,5.16,0,0,1,551.68,264Z" fill="#fff"/>
                <path d="M136.11,67.51A5.15,5.15,0,1,1,132.82,74,5.15,5.15,0,0,1,136.11,67.51Z" fill="#fff"/>
                <path d="M484.08,102.79a5.15,5.15,0,1,1-3.28,6.51A5.16,5.16,0,0,1,484.08,102.79Z" fill="#fff"/>
                <path d="M648.1,394.52a2.17,2.17,0,1,1-1.39,2.74A2.17,2.17,0,0,1,648.1,394.52Z" fill="#fff"/>
                <path d="M484.15,186.2a2.17,2.17,0,1,1-2.93.93A2.18,2.18,0,0,1,484.15,186.2Z" fill="#fff"/>
                <path d="M67.81,100.3A2.17,2.17,0,1,1,66.43,103,2.16,2.16,0,0,1,67.81,100.3Z" fill="#fff"/>
                <path d="M480.36,33.85a2.17,2.17,0,1,1-2.93.94A2.17,2.17,0,0,1,480.36,33.85Z" fill="#fff"/>
                <path d="M606.79,115.17a2.17,2.17,0,1,1-2.93.94A2.18,2.18,0,0,1,606.79,115.17Z" fill="#fff"/>
                <path d="M408.21,134.82a2.17,2.17,0,1,1-2.93.93A2.17,2.17,0,0,1,408.21,134.82Z" fill="#fff"/>
                <path d="M585.6,39.56a2.17,2.17,0,1,1-2.93.93A2.16,2.16,0,0,1,585.6,39.56Z" fill="#fff"/>
                <path d="M345.16,154.82a2.17,2.17,0,0,1,3.86,2,2.18,2.18,0,0,1-2.93.93A2.16,2.16,0,0,1,345.16,154.82Z" fill="#fff"/>
                <path d="M379.28,107.08a2.17,2.17,0,1,1,.93,2.93A2.17,2.17,0,0,1,379.28,107.08Z" fill="#fff"/>
                <path d="M596.66,332.71a2.17,2.17,0,1,1,.93,2.92A2.16,2.16,0,0,1,596.66,332.71Z" fill="#fff"/>
                <path d="M530.4,302a2.17,2.17,0,1,1,.93,2.93A2.18,2.18,0,0,1,530.4,302Z" fill="#fff"/>
                <path d="M469.79,336a4.73,4.73,0,1,1-6-3A4.74,4.74,0,0,1,469.79,336Z" fill="#fff"/>
                <path d="M380.14,195a5.15,5.15,0,1,1-6.51-3.29A5.16,5.16,0,0,1,380.14,195Z" fill="#fff"/>
                <path d="M604.21,427.81a5.16,5.16,0,1,1-6.51-3.29A5.15,5.15,0,0,1,604.21,427.81Z" fill="#fff"/>
                <path d="M298.11,144.3a5.83,5.83,0,1,1-7.36-3.72A5.82,5.82,0,0,1,298.11,144.3Z" fill="#fff"/>
                <path d="M536,241.36a2.17,2.17,0,1,1-2.74-1.38A2.17,2.17,0,0,1,536,241.36Z" fill="#fff"/>
                <path d="M458.8,143.38a2.17,2.17,0,1,1-2.74-1.39A2.16,2.16,0,0,1,458.8,143.38Z" fill="#fff"/>
                <path d="M569.31,388a2.17,2.17,0,1,1-2.74-1.39A2.18,2.18,0,0,1,569.31,388Z" fill="#fff"/>
                <path d="M429.68,254.13a2.17,2.17,0,1,1-2.74-1.39A2.18,2.18,0,0,1,429.68,254.13Z" fill="#fff"/>
                <path d="M597.48,244.54a2.17,2.17,0,1,1-2.74-1.38A2.17,2.17,0,0,1,597.48,244.54Z" fill="#fff"/>
                <path d="M545,59.75a2.17,2.17,0,1,1-.93-2.93A2.17,2.17,0,0,1,545,59.75Z" fill="#fff"/>
                <path d="M432.3,88.16a2.17,2.17,0,1,1-.93-2.93A2.17,2.17,0,0,1,432.3,88.16Z" fill="#fff"/>
                <path d="M284.52,63.47a2.17,2.17,0,1,1-2.75-1.38A2.19,2.19,0,0,1,284.52,63.47Z" fill="#fff"/>
                <path d="M606.92,305.21a2.17,2.17,0,1,1-2.74-1.39A2.16,2.16,0,0,1,606.92,305.21Z" fill="#fff"/>
                <path d="M633,27.17a2.17,2.17,0,1,1-.93-2.93A2.17,2.17,0,0,1,633,27.17Z" fill="#fff"/>
                <path d="M625.41,130.47a2.17,2.17,0,1,1-.93-2.92A2.17,2.17,0,0,1,625.41,130.47Z" fill="#fff"/>
                <path d="M93.19,57a2.17,2.17,0,1,1-.93-2.93A2.17,2.17,0,0,1,93.19,57Z" fill="#fff"/>
                <path d="M301.82,124.11a2.17,2.17,0,1,1-1.39,2.74A2.17,2.17,0,0,1,301.82,124.11Z" fill="#fff"/>
                <path d="M432.21,325.83a2.17,2.17,0,1,1-2.93.93A2.17,2.17,0,0,1,432.21,325.83Z" fill="#fff"/>
                <path d="M478.3,285.06a2.17,2.17,0,1,1-2.92.93A2.17,2.17,0,0,1,478.3,285.06Z" fill="#fff"/>
                <path d="M402.36,233.67a2.17,2.17,0,1,1-2.92.93A2.17,2.17,0,0,1,402.36,233.67Z" fill="#fff"/>
                <path d="M551.35,25.68a2.17,2.17,0,1,1-2.93.93A2.17,2.17,0,0,1,551.35,25.68Z" fill="#fff"/>
                <path d="M579.76,138.41a2.17,2.17,0,1,1-2.93.93A2.18,2.18,0,0,1,579.76,138.41Z" fill="#fff"/>
                <path d="M352.77,45.32a2.17,2.17,0,1,1-2.93.93A2.18,2.18,0,0,1,352.77,45.32Z" fill="#fff"/>
                <path d="M469.79,336a4.73,4.73,0,1,1-6-3A4.74,4.74,0,0,1,469.79,336Z" fill="#fff"/>
                <path d="M364.89,235.67a5.15,5.15,0,1,1-6.51-3.29A5.15,5.15,0,0,1,364.89,235.67Z" fill="#fff"/>
                <path d="M233.88,62.62a5.83,5.83,0,1,1-7.37-3.71A5.84,5.84,0,0,1,233.88,62.62Z" fill="#fff"/>
                <path d="M536,241.36a2.17,2.17,0,1,1-2.74-1.38A2.17,2.17,0,0,1,536,241.36Z" fill="#fff"/>
                <path d="M458.8,143.38a2.17,2.17,0,1,1-2.74-1.39A2.16,2.16,0,0,1,458.8,143.38Z" fill="#fff"/>
                <path d="M569.31,388a2.17,2.17,0,1,1-2.74-1.39A2.18,2.18,0,0,1,569.31,388Z" fill="#fff"/>
                <path d="M429.68,254.13a2.17,2.17,0,1,1-2.74-1.39A2.18,2.18,0,0,1,429.68,254.13Z" fill="#fff"/>
                <path d="M545,59.75a2.17,2.17,0,1,1-.93-2.93A2.17,2.17,0,0,1,545,59.75Z" fill="#fff"/>
                <path d="M284.52,63.47a2.17,2.17,0,1,1-2.75-1.38A2.19,2.19,0,0,1,284.52,63.47Z" fill="#fff"/>
                <path d="M606.92,305.21a2.17,2.17,0,1,1-2.74-1.39A2.16,2.16,0,0,1,606.92,305.21Z" fill="#fff"/>
                <path d="M625.41,130.47a2.17,2.17,0,1,1-.93-2.92A2.15,2.15,0,0,1,625.41,130.47Z" fill="#fff"/>
                <path d="M93.19,57a2.17,2.17,0,1,1-.93-2.93A2.18,2.18,0,0,1,93.19,57Z" fill="#fff"/>
                <path d="M432.21,325.83a2.17,2.17,0,1,1-2.93.93A2.17,2.17,0,0,1,432.21,325.83Z" fill="#fff"/>
                <path d="M478.3,285.06a2.17,2.17,0,1,1-2.92.93A2.17,2.17,0,0,1,478.3,285.06Z" fill="#fff"/>
                <path d="M522,342.56a2.17,2.17,0,1,1-2.92.93A2.17,2.17,0,0,1,522,342.56Z" fill="#fff"/>
                <path d="M402.36,233.67a2.17,2.17,0,1,1-2.92.93A2.17,2.17,0,0,1,402.36,233.67Z" fill="#fff"/>
                <path d="M504.47,161.38a2.17,2.17,0,1,1-2,3.86,2.17,2.17,0,0,1,2-3.86Z" fill="#fff"/>
                <path d="M551.35,25.68a2.17,2.17,0,1,1-2.93.93A2.17,2.17,0,0,1,551.35,25.68Z" fill="#fff"/>
                <path d="M579.76,138.41a2.17,2.17,0,1,1-2.93.93A2.18,2.18,0,0,1,579.76,138.41Z" fill="#fff"/>
                <path d="M352.77,45.32a2.17,2.17,0,1,1-2.93.93A2.18,2.18,0,0,1,352.77,45.32Z" fill="#fff"/>
                <path d="M444,26.49a4.73,4.73,0,1,1,3-6A4.73,4.73,0,0,1,444,26.49Z" fill="#fff"/>
                <path d="M488.83,238a5.83,5.83,0,1,1,3.71-7.36A5.83,5.83,0,0,1,488.83,238Z" fill="#fff"/>
                <path d="M143.22,11.89a2.17,2.17,0,1,1,1.38-2.74A2.16,2.16,0,0,1,143.22,11.89Z" fill="#fff"/>
                <path d="M167.73,126.25a2.17,2.17,0,1,1,1.39-2.74A2.16,2.16,0,0,1,167.73,126.25Z" fill="#fff"/>
                <path d="M73,16.42a2.17,2.17,0,1,1,2.93-.93A2.17,2.17,0,0,1,73,16.42Z" fill="#fff"/>
                <path d="M548.12,102.2a2.17,2.17,0,1,1,1.38-2.74A2.16,2.16,0,0,1,548.12,102.2Z" fill="#fff"/>
                <path d="M105.58,104.39a2.17,2.17,0,1,1,2.93-.93A2.16,2.16,0,0,1,105.58,104.39Z" fill="#fff"/>
                <path d="M425.08,189.12a2.17,2.17,0,1,1-2.74-1.38A2.16,2.16,0,0,1,425.08,189.12Z" fill="#fff"/>
                <path d="M213,120.72a2.17,2.17,0,1,1-2.75-1.39A2.18,2.18,0,0,1,213,120.72Z" fill="#fff"/>
                <path d="M470.45,382.1a2.17,2.17,0,1,1-2.74-1.38A2.18,2.18,0,0,1,470.45,382.1Z" fill="#fff"/>
                <path d="M506,253.93a2.16,2.16,0,0,1-1.38,2.74,2.17,2.17,0,1,1,1.38-2.74Z" fill="#fff"/>
                <path d="M446.18,53.91a2.17,2.17,0,1,1-.94-2.93A2.17,2.17,0,0,1,446.18,53.91Z" fill="#fff"/>
                <path d="M333.44,82.32a2.17,2.17,0,1,1-.93-2.93A2.18,2.18,0,0,1,333.44,82.32Z" fill="#fff"/>
                <path d="M536.47,447a2.17,2.17,0,1,1-2.75-1.38A2.17,2.17,0,0,1,536.47,447Z" fill="#fff"/>
                <path d="M553.06,179.85a2.17,2.17,0,1,1-2.74-1.39A2.16,2.16,0,0,1,553.06,179.85Z" fill="#fff"/>
                <path d="M663.57,424.42a2.17,2.17,0,1,1-2.74-1.39A2.18,2.18,0,0,1,663.57,424.42Z" fill="#fff"/>
                <path d="M526.56,124.63a2.17,2.17,0,1,1-.94-2.93A2.17,2.17,0,0,1,526.56,124.63Z" fill="#fff"/>
                <path d="M280.2,177.22a2.17,2.17,0,1,1-2.74-1.39A2.17,2.17,0,0,1,280.2,177.22Z" fill="#fff"/>
                <path d="M186.14,316.77a5.15,5.15,0,1,1-2.28-6.93A5.14,5.14,0,0,1,186.14,316.77Z" fill="#fff"/>
                <path d="M347.92,383a5.15,5.15,0,1,1-2.28-6.93A5.14,5.14,0,0,1,347.92,383Z" fill="#fff"/>
                <path d="M25.66,292.65a2.17,2.17,0,1,1-1-2.92A2.16,2.16,0,0,1,25.66,292.65Z" fill="#fff"/>
                <path d="M288.89,324a2.17,2.17,0,0,1-1.31-4.14,2.17,2.17,0,1,1,1.31,4.14Z" fill="#fff"/>
                <path d="M399.3,429.07a2.17,2.17,0,1,1,1.41-2.73A2.17,2.17,0,0,1,399.3,429.07Z" fill="#fff"/>
                <path d="M252.4,461a2.17,2.17,0,1,1,1.41-2.73A2.16,2.16,0,0,1,252.4,461Z" fill="#fff"/>
                <path d="M378.93,306.66a2.17,2.17,0,1,1,1.41-2.73A2.17,2.17,0,0,1,378.93,306.66Z" fill="#fff"/>
                <path d="M320.85,499.45a2.17,2.17,0,1,1,1.41-2.73A2.17,2.17,0,0,1,320.85,499.45Z" fill="#fff"/>
                <path d="M105.74,300a2.17,2.17,0,1,1-2.73-1.41A2.17,2.17,0,0,1,105.74,300Z" fill="#fff"/>
                <path d="M174.33,274.86a2.17,2.17,0,0,1-4.14,1.32,2.17,2.17,0,0,1,4.14-1.32Z" fill="#fff"/>
                <path d="M193.14,208a4.73,4.73,0,1,1,6.35-2.09A4.73,4.73,0,0,1,193.14,208Z" fill="#fff"/>
                <path d="M256.76,131.83a5.15,5.15,0,1,1,6.93-2.27A5.15,5.15,0,0,1,256.76,131.83Z" fill="#fff"/>
                <path d="M213.21,321.7a2.17,2.17,0,1,1,2.92-1A2.18,2.18,0,0,1,213.21,321.7Z" fill="#fff"/>
                <path d="M337.1,336.38a2.17,2.17,0,1,1,2.91-1A2.17,2.17,0,0,1,337.1,336.38Z" fill="#fff"/>
                <path d="M86,241.58a2.17,2.17,0,1,1,2.92-1A2.17,2.17,0,0,1,86,241.58Z" fill="#fff"/>
                <path d="M279.38,237.47a2.17,2.17,0,1,1,2.92-1A2.16,2.16,0,0,1,279.38,237.47Z" fill="#fff"/>
                <path d="M167.5,362.9a2.17,2.17,0,1,1,2.92-1A2.17,2.17,0,0,1,167.5,362.9Z" fill="#fff"/>
                <path d="M335.25,456.48A2.17,2.17,0,1,1,338,457.9,2.17,2.17,0,0,1,335.25,456.48Z" fill="#fff"/>
                <path d="M394.88,356.68a2.17,2.17,0,1,1,2.73,1.41A2.16,2.16,0,0,1,394.88,356.68Z" fill="#fff"/>
                <path d="M117.93,326.69a2.17,2.17,0,1,1,2.92-1A2.18,2.18,0,0,1,117.93,326.69Z" fill="#fff"/>
                <path d="M228.41,463.31a2.17,2.17,0,1,1,2.73,1.41A2.16,2.16,0,0,1,228.41,463.31Z" fill="#fff"/>
                <path d="M226.89,188.56a2.17,2.17,0,1,1,1.41-2.73A2.16,2.16,0,0,1,226.89,188.56Z" fill="#fff"/>
                <path d="M223.13,250a2.17,2.17,0,1,1,1.41-2.73A2.17,2.17,0,0,1,223.13,250Z" fill="#fff"/>
                <path d="M313.16,232.62a2.16,2.16,0,0,1-2.73-1.41,2.17,2.17,0,1,1,2.73,1.41Z" fill="#fff"/>
                <path d="M255.08,425.42a2.17,2.17,0,1,1,1.41-2.73A2.18,2.18,0,0,1,255.08,425.42Z" fill="#fff"/>
                <path d="M193.14,208a4.73,4.73,0,1,1,6.35-2.09A4.73,4.73,0,0,1,193.14,208Z" fill="#fff"/>
                <path d="M213.21,321.7a2.17,2.17,0,1,1,2.92-1A2.18,2.18,0,0,1,213.21,321.7Z" fill="#fff"/>
                <path d="M337.1,336.38a2.17,2.17,0,1,1,2.92-1A2.18,2.18,0,0,1,337.1,336.38Z" fill="#fff"/>
                <path d="M86,241.58a2.17,2.17,0,1,1,2.92-1A2.17,2.17,0,0,1,86,241.58Z" fill="#fff"/>
                <path d="M279.38,237.47a2.17,2.17,0,1,1,2.92-1A2.16,2.16,0,0,1,279.38,237.47Z" fill="#fff"/>
                <path d="M335.25,456.48A2.17,2.17,0,1,1,338,457.9,2.17,2.17,0,0,1,335.25,456.48Z" fill="#fff"/>
                <path d="M117.93,326.69a2.17,2.17,0,1,1,2.92-1A2.18,2.18,0,0,1,117.93,326.69Z" fill="#fff"/>
                <path d="M228.41,463.32a2.17,2.17,0,1,1,2.73,1.41A2.17,2.17,0,0,1,228.41,463.32Z" fill="#fff"/>
                <path d="M226.89,188.56a2.17,2.17,0,1,1,1.41-2.73A2.16,2.16,0,0,1,226.89,188.56Z" fill="#fff"/>
                <path d="M223.13,250a2.17,2.17,0,1,1,1.41-2.73A2.17,2.17,0,0,1,223.13,250Z" fill="#fff"/>
                <path d="M151.57,240.22a2.17,2.17,0,1,1,1.41-2.73A2.18,2.18,0,0,1,151.57,240.22Z" fill="#fff"/>
                <path d="M313.16,232.62a2.16,2.16,0,0,1-2.73-1.41,2.17,2.17,0,1,1,2.73,1.41Z" fill="#fff"/>
                <path d="M292.07,355.93a2.17,2.17,0,1,1,1.42-2.73A2.15,2.15,0,0,1,292.07,355.93Z" fill="#fff"/>
                <path d="M255.08,425.42a2.17,2.17,0,1,1,1.41-2.73A2.18,2.18,0,0,1,255.08,425.42Z" fill="#fff"/>
                <path d="M249,290.69a5.83,5.83,0,1,1,2.58,7.83A5.83,5.83,0,0,1,249,290.69Z" fill="#fff"/>
                <path d="M303.06,428.65a2.17,2.17,0,1,1,1,2.92A2.16,2.16,0,0,1,303.06,428.65Z" fill="#fff"/>
                <path d="M328.59,280.18a2.17,2.17,0,1,1,2.92-1A2.16,2.16,0,0,1,328.59,280.18Z" fill="#fff"/>
                <path d="M160.05,175.81a2.17,2.17,0,1,1,2.92-1A2.17,2.17,0,0,1,160.05,175.81Z" fill="#fff"/>
                <path d="M225.53,291.59a2.17,2.17,0,0,1,2-3.87,2.17,2.17,0,1,1-2,3.87Z" fill="#fff"/>
                <path d="M409.29,390.71A2.15,2.15,0,0,1,410.7,388a2.17,2.17,0,1,1-1.41,2.72Z" fill="#fff"/>
                <path d="M244.66,377.24a2.17,2.17,0,1,1,2.92-1A2.18,2.18,0,0,1,244.66,377.24Z" fill="#fff"/>
                <path d="M302.44,397.55a2.17,2.17,0,1,1,2.73,1.41A2.17,2.17,0,0,1,302.44,397.55Z" fill="#fff"/>
                <path d="M161.38,490.81a2.17,2.17,0,1,1-2.93.93A2.18,2.18,0,0,1,161.38,490.81Z" fill="#fff"/>
                <path d="M140.19,415.19a2.17,2.17,0,1,1-2.93.93A2.17,2.17,0,0,1,140.19,415.19Z" fill="#fff"/>
                <path d="M99.62,435.39a2.17,2.17,0,1,1-.93-2.93A2.16,2.16,0,0,1,99.62,435.39Z" fill="#fff"/>
                <path d="M187.59,402.8a2.17,2.17,0,1,1-.93-2.93A2.16,2.16,0,0,1,187.59,402.8Z" fill="#fff"/>
                <path d="M180,506.11a2.17,2.17,0,1,1-.94-2.93A2.18,2.18,0,0,1,180,506.11Z" fill="#fff"/>
                <path d="M105.94,401.31a2.17,2.17,0,1,1-2.93.94A2.17,2.17,0,0,1,105.94,401.31Z" fill="#fff"/>
                <path d="M134.35,514.05a2.17,2.17,0,1,1-2.93.93A2.17,2.17,0,0,1,134.35,514.05Z" fill="#fff"/>
                <path d="M99.62,435.39a2.17,2.17,0,1,1-.93-2.93A2.17,2.17,0,0,1,99.62,435.39Z" fill="#fff"/>
                <path d="M180,506.11a2.17,2.17,0,1,1-.94-2.93A2.18,2.18,0,0,1,180,506.11Z" fill="#fff"/>
                <path d="M59.06,537a2.17,2.17,0,1,1-2.93.93A2.18,2.18,0,0,1,59.06,537Z" fill="#fff"/>
                <path d="M105.94,401.31a2.17,2.17,0,1,1-2.93.93A2.17,2.17,0,0,1,105.94,401.31Z" fill="#fff"/>
                <path d="M134.35,514.05a2.17,2.17,0,1,1-2.93.93A2.17,2.17,0,0,1,134.35,514.05Z" fill="#fff"/>
                <path d="M102.71,477.84a2.17,2.17,0,1,1,1.38-2.75A2.17,2.17,0,0,1,102.71,477.84Z" fill="#fff"/>
                <path d="M107.65,555.48a2.17,2.17,0,1,1-2.74-1.38A2.16,2.16,0,0,1,107.65,555.48Z" fill="#fff"/>
                <path d="M81.15,500.27a2.17,2.17,0,1,1-.93-2.93A2.18,2.18,0,0,1,81.15,500.27Z" fill="#fff"/>
                <path d="M471.75,539.08a2.17,2.17,0,1,1-2.93.93A2.17,2.17,0,0,1,471.75,539.08Z" fill="#fff"/>
                <path d="M450.56,463.46a2.17,2.17,0,1,1-2.93.93A2.16,2.16,0,0,1,450.56,463.46Z" fill="#fff"/>
                <path d="M410,483.66a2.17,2.17,0,1,1-.93-2.93A2.17,2.17,0,0,1,410,483.66Z" fill="#fff"/>
                <path d="M498,451.07a2.17,2.17,0,1,1-.93-2.93A2.16,2.16,0,0,1,498,451.07Z" fill="#fff"/>
                <path d="M490.38,554.38a2.17,2.17,0,1,1-3.86-2,2.17,2.17,0,0,1,3.86,2Z" fill="#fff"/>
                <path d="M416.31,449.58a2.17,2.17,0,1,1-2.93.93A2.17,2.17,0,0,1,416.31,449.58Z" fill="#fff"/>
                <path d="M444.72,562.31a2.17,2.17,0,1,1-2.93.93A2.18,2.18,0,0,1,444.72,562.31Z" fill="#fff"/>
                <path d="M410,483.66a2.17,2.17,0,1,1-.93-2.93A2.17,2.17,0,0,1,410,483.66Z" fill="#fff"/>
                <path d="M490.38,554.37a2.17,2.17,0,1,1-.94-2.92A2.18,2.18,0,0,1,490.38,554.37Z" fill="#fff"/>
                <path d="M369.43,585.29a2.17,2.17,0,1,1-2.93.93A2.17,2.17,0,0,1,369.43,585.29Z" fill="#fff"/>
                <path d="M416.31,449.58a2.17,2.17,0,1,1-2.93.93A2.17,2.17,0,0,1,416.31,449.58Z" fill="#fff"/>
                <path d="M444.72,562.31a2.17,2.17,0,1,1-2.93.93A2.18,2.18,0,0,1,444.72,562.31Z" fill="#fff"/>
                <path d="M413.08,526.1a2.17,2.17,0,1,1,1.38-2.74A2.16,2.16,0,0,1,413.08,526.1Z" fill="#fff"/>
                <path d="M418,603.75a2.17,2.17,0,1,1-2.74-1.39A2.16,2.16,0,0,1,418,603.75Z" fill="#fff"/>
                <path d="M391.52,548.53a2.17,2.17,0,1,1-.93-2.93A2.17,2.17,0,0,1,391.52,548.53Z" fill="#fff"/>
              </g>
            </g>
          </g>
          <rect id="7e116f06-c7e3-437c-9ce5-f0703de57b10" data-name="&lt;Path&gt;" x="189.76" y="56.63" width="311.09" height="9.93" rx="2.15" ry="2.15" transform="translate(-0.33 1.86) rotate(-0.31)" fill="#1b2644"/>
          <rect id="64168c75-3d40-4e11-ab2a-c1df99d3db84" data-name="&lt;Path&gt;" x="174.08" y="60.98" width="9.93" height="322.94" transform="translate(-1.19 0.97) rotate(-0.31)" fill="#1b2644"/>
          <rect id="e3e68528-febe-4dff-90e6-3bfab017a325" data-name="&lt;Path&gt;" x="509.46" y="59.18" width="9.93" height="322.94" transform="translate(-1.18 2.77) rotate(-0.31)" fill="#1b2644"/>
          <rect id="c332c0c0-eb24-470e-bb3a-a7e62bf8e5bb" data-name="&lt;Path&gt;" x="189.85" y="72.81" width="311.09" height="9.93" rx="2.15" ry="2.15" transform="translate(-0.41 1.86) rotate(-0.31)" fill="#1b2644"/>
          <rect id="1bc82ce8-0ac1-40b6-affe-457aefcd905a" data-name="&lt;Path&gt;" x="189.93" y="87.99" width="311.09" height="9.93" rx="2.15" ry="2.15" transform="translate(-0.49 1.86) rotate(-0.31)" fill="#1b2644"/>
          <rect id="2ed014d9-2689-4ef6-ab8c-cff1c619c6a2" data-name="&lt;Path&gt;" x="190.01" y="103.16" width="311.09" height="9.93" rx="2.15" ry="2.15" transform="translate(-0.58 1.86) rotate(-0.31)" fill="#1b2644"/>
          <rect id="c2d35c81-f852-4d4a-bcaa-0b6ac6bbe5d1" data-name="&lt;Path&gt;" x="190.09" y="118.34" width="311.09" height="9.93" rx="2.15" ry="2.15" transform="translate(-0.66 1.86) rotate(-0.31)" fill="#1b2644"/>
          <rect id="2128cf69-8348-4f4c-8b93-03730a842945" data-name="&lt;Path&gt;" x="190.17" y="133.52" width="311.09" height="9.93" rx="2.15" ry="2.15" transform="translate(-0.74 1.86) rotate(-0.31)" fill="#1b2644"/>
          <rect id="b4e3b2c8-3881-4e79-8c4e-4a9ae7fd77e2" data-name="&lt;Path&gt;" x="-19.14" y="383.48" width="733.09" height="137.32" transform="translate(-2.42 1.87) rotate(-0.31)" fill="#141d3a"/>
          <path id="ec201ac1-c634-4d04-ab0e-1b23ba30ca58" data-name="&lt;Path&gt;" d="M647.4,373.69,42.77,376.94a7.72,7.72,0,1,0,.08,15.43l604.63-3.25a7.72,7.72,0,0,0-.08-15.43Z" fill="#1b2644"/>
          <path id="b7527bc7-d0ab-4c49-a1a9-676c0f61978f" data-name="&lt;Path&gt;" d="M53.63,323C62.58,309.17,59.84,300,59.84,300c-5,4.18-12,18.25-12,18.25a47.18,47.18,0,0,0,4.29-24.22c-9.56,7.21-17.56,20.28-17.56,20.28,3.58-13.05,3.88-28.66,3.88-28.66-5.16,5-8.57,13.37-8.57,13.37,3-16.34,2-17.63,2-17.63-8.4,8.21-17.7,30-17.7,30,1.49-9.31-.15-28.63-.15-28.63C8,290.57,5.47,303.19,4.69,308.05c-.08.69-.17,1.36-.29,2,0,0,.09-.74.29-2,1.16-9.62-.42-22.34-.42-22.34-9.53,11.65-11.34,32.57-11.34,32.57.71-11.46-6.51-32.47-6.51-32.47-5.74,11.13-6,24.52-5.86,29.07,0,.55.07,1.09.07,1.6,0,0,0-.58-.07-1.6-.08-1.2-.24-2.48-.46-3.81l.16,29.63C1.2,338.81,46.77,333.53,53.63,323Z" fill="#1b2644"/>
          <path id="5c441078-2b0c-487e-90dc-c6efaa4361e3" data-name="&lt;Path&gt;" d="M4.65,300c-.2,1.26-.29,2-.29,2C4.47,301.39,4.57,300.72,4.65,300Z" fill="#93895d"/>
          <path id="e8405c52-1c28-454c-a8d2-8c9eaee9f456" data-name="&lt;Path&gt;" d="M49.49,338.88c11.23-18.1,10.41-27.26,10.41-27.26A43.58,43.58,0,0,0,55,316.07c1.37-6.36.22-10.3.22-10.3a68.24,68.24,0,0,0-11.77,10.77,54.7,54.7,0,0,0,.92-29.32,42.54,42.54,0,0,0-11.67,17.39,8.45,8.45,0,0,0-1.31-3.43C25,308.54,21.53,319.12,20,324.79a93,93,0,0,0-.19-38.16c-5.29,5.52-9.94,18.91-12.87,29a58,58,0,0,0-1-18.86,45.19,45.19,0,0,0-9.28,20.64,175.51,175.51,0,0,0-2-30.6C-9,293.56-11,305.16-12.15,315.33a164,164,0,0,0-1.56-17.21c-2.95,2.94-4.82,7.8-6,13-.05-1-.12-2-.19-3l.2,36.2C-.23,347.58,41,352.59,49.49,338.88Z" fill="#141d3a"/>
          <path id="7757d98b-4121-4c11-800f-693d74730875" data-name="&lt;Path&gt;" d="M60.24,357.41l-.13-24.15a2.46,2.46,0,0,0-2.47-2.44l-77.43.41.15,29.08,77.43-.42A2.47,2.47,0,0,0,60.24,357.41Z" fill="#1b2644"/>
          <rect id="eaa1f96a-8096-45a2-b770-04af69b3dd59" data-name="&lt;Path&gt;" x="-19.1" y="358.49" width="85.91" height="205.24" transform="translate(-2.48 0.13) rotate(-0.31)" fill="#1b2644"/>
          <polygon id="e4b06d8f-7bc0-46c9-b070-4ee8fe9416d2" data-name="&lt;Path&gt;" points="66.26 358.26 -19.65 358.72 -19.54 378.38 66.33 371.04 66.26 358.26" fill="#42210b" opacity="0.11"/>
          <path id="7e088872-c935-42e7-b478-1260e426e110" data-name="&lt;Path&gt;" d="M689.58,298.36s-.1-.75-.31-2C689.36,297,689.46,297.71,689.58,298.36Z" fill="#93895d"/>
          <path d="M206.79,375.74l179-1s-21.33-15.47-37.06-19.42-28.8-10.82-39.58-4.3-21.43,9.72-27.44,7.85-28.06-10.33-41.35-3-55.23,19.92-55.23,19.92Z" fill="#fff" opacity="0.4"/>
          <path id="cf875c10-0060-4674-85dc-1b079a63c438" data-name="&lt;Path&gt;" d="M679.85,310.15s0-1.28-.18-3.33A18,18,0,0,0,679.85,310.15Z" fill="#93895d"/>
          <path id="1b35307a-8b72-4661-a5e6-14daee5dc888" data-name="&lt;Path&gt;" d="M689.25,306c-.15-2.27.39-6.45.74-11.13A42.62,42.62,0,0,0,689.25,306Z" fill="#93895d"/>
          <path id="0b6202ec-d092-495a-b955-5132d1dc3c27" data-name="&lt;Path&gt;" d="M701.31,311.2c.05,3.37-.11,5.56-.11,5.56a35.19,35.19,0,0,1,.11-5.56c-.12-7.56-1.34-21.06-8-29A93.48,93.48,0,0,0,690,294.87c-.35,4.68-.89,8.86-.74,11.13,0,.22,0,.45.07.66.22,1.26.31,2,.31,2-.11-.64-.22-1.31-.31-2,0-.19-.05-.42-.07-.66a42.62,42.62,0,0,1,.74-11.13c.53-7.08.6-15.29-3-19.74,0,0-7.07,20.72-7.37,31.69.15,2.05.18,3.33.18,3.33a18,18,0,0,1-.18-3.33c-.49-6.85-2.31-22.42-8.84-28.66,0,0-2.57,8.18-2.58,22.16,0,0-7.71-10.69-12.92-15.67,0,0,.47,15.6,4.18,28.61,0,0-6.51-14.71-16.15-21.82,0,0-3.09,13.77,2.93,25.9,0,0-7.18-14-12.19-18.11,0,0-2.64,9.17,6.45,22.87,6.89,10.37,51.51,15.17,72.8,16.89l-.19-33.82c-.59-6-1.71-15.38-5.41-22.38C707.75,282.79,702.35,299.27,701.31,311.2Z" fill="#1b2644"/>
          <path id="76a7e152-1658-407a-908b-531a3830cb32" data-name="&lt;Path&gt;" d="M706.24,313.76c-1.23-10.16-3.39-21.73-7.13-28.49a175,175,0,0,0-1.64,30.63c-1-5.5-2-18.46-8.09-26,0,0-3.52,14.06-2.24,24.32-3-10-7.83-23.36-13.18-28.82a93.05,93.05,0,0,0,.21,38.15c-1.56-5.65-3.48-22.89-10-30.19,0,0-2.47,7.69-3,10.15-2.36-6.1-1.53-14.5-7.32-19.43,0,0-8.41,15.41-3.3,31.48-2.74-3.19-4.73-10.37-10.07-14.23,0,0-2.92,7.54-1.48,13.88-1.41-1.47-4.74-2.08-6.63-3.53,0,0,1,8.3,12.42,26.28,8.55,13.44,48.76,8.31,68.51,4.86l-.19-35.63c-1.25-4.3-2-11.34-4.52-13.82A145,145,0,0,0,706.24,313.76Z" fill="#141d3a"/>
          <path id="3c3a2c7b-6f31-4d53-9740-cb7e44c2b438" data-name="&lt;Path&gt;" d="M634.17,330.18l.13,24.15a2.46,2.46,0,0,0,2.47,2.45l76.67-.41-.16-29.08-76.67.42A2.46,2.46,0,0,0,634.17,330.18Z" fill="#1b2644"/>
          <rect id="c0790c5d-86b6-4588-a01e-421cb509be03" data-name="&lt;Path&gt;" x="628.84" y="355.01" width="85.14" height="205.24" transform="translate(-2.45 3.61) rotate(-0.31)" fill="#1b2644"/>
          <rect x="26.35" y="97.83" width="94.69" height="160" transform="translate(-0.95 0.4) rotate(-0.31)" fill="#141d3a"/>
          <path d="M125.49,261.56l-102.69.55-.9-168,102.69-.55Zm-94.73-7.49,86.69-.47-.82-152-86.69.46Z" fill="#1b2644"/>
          <polygon id="f7b643b8-6d2a-438d-9881-fb6b93b3d555" data-name="&lt;Path&gt;" points="628.29 355.24 628.36 368.02 713.54 374.38 713.43 354.78 628.29 355.24" fill="#42210b" opacity="0.11"/>
          <rect id="3cbec17e-07cc-4a65-bbea-55960c572d8a" data-name="&lt;Path&gt;" x="46.2" y="122.65" width="54.98" height="110.37" transform="translate(-0.95 0.4) rotate(-0.31)" fill="#1b2644"/>
          <path id="c46769ef-a01e-4be8-9a07-e6b2430046e6" data-name="&lt;Path&gt;" d="M69.56,358.24a7.17,7.17,0,0,0-7.21-7.08l-86,.47.07,14.23,86-.46A7.17,7.17,0,0,0,69.56,358.24Z" fill="#141d3a"/>
          <path id="56a7a898-4fea-4423-9786-9e9a7a2d9f8c" data-name="&lt;Path&gt;" d="M621,355.28a7.74,7.74,0,0,0,7.84,7.57l84.6-.46-.08-15.21-84.6.45A7.73,7.73,0,0,0,621,355.28Z" fill="#141d3a"/>
          <path id="252e4631-765d-4ffe-a161-fbb94efd0fc0" data-name="&lt;Path&gt;" d="M469.08,292.69a1.94,1.94,0,0,0-.18.82C469,293.23,469,293,469.08,292.69Z" fill="#3d2405" opacity="0.1"/>
          <path id="62ce4344-3630-44e7-93c2-d67c5245fc70" data-name="&lt;Path&gt;" d="M511.49,260.18c-.12.68.17-.67,0,0Z" fill="#c58375"/>
          <path id="b1e178cc-f42b-4947-a118-99808dfe0b48" data-name="&lt;Path&gt;" d="M216.24,352.09h0C216.14,352.2,216.05,352.32,216.24,352.09Z" fill="#555050"/>
          <path id="60a15d03-f485-4d9f-b52a-79aab992185f" data-name="&lt;Path&gt;" d="M216.24,352.09c.18-.23.09-.13,0,0Z" fill="#555050"/>
          <polygon id="4c8bd4e9-85bc-47f9-a13e-e16aa8198851" data-name="&lt;Path&gt;" points="216.24 352.09 216.24 352.08 216.24 352.08 216.24 352.09" fill="#555050"/>
          <polygon id="5a99b2ca-aa2d-47d0-9abe-b4d27f0fafa9" data-name="&lt;Path&gt;" points="469.83 431.45 469.84 431.46 469.84 431.45 469.82 431.45 469.83 431.45" fill="#9b8878"/>
          <rect x="567.57" y="94.92" width="94.69" height="160" transform="translate(-0.93 3.31) rotate(-0.31)" fill="#141d3a"/>
          <path d="M666.71,258.65,564,259.2l-.9-168,102.69-.55ZM572,251.16l86.69-.47-.82-152-86.68.47Z" fill="#1b2644"/>
          <rect id="a47a3d53-65c7-4aa0-bda8-809bd9ac058f" data-name="&lt;Path&gt;" x="587.43" y="119.74" width="54.98" height="110.37" transform="translate(-0.93 3.31) rotate(-0.31)" fill="#1b2644"/>
          <path d="M418,636.2c17.73-.33,35.47-.2,53.21,0L345.56,85.06,225.19,640.44C289.49,640.63,353.75,637.4,418,636.2Z" opacity="0.2" fill="url(#06d8e6e4-63b3-430d-ad48-8acb372391be)"/>
          <g id="9ac2d53d-a990-4211-8b80-e18b222061b0" data-name="&lt;Group&gt;">
            <path id="cd26bf27-d3c9-4053-89d2-1523979fa2a6" data-name="&lt;Path&gt;" d="M349.19,73.67l-7.64,0a13.78,13.78,0,0,0-13.67,13.81l.29,53.46,35.13-.19L363,87.35A13.79,13.79,0,0,0,349.19,73.67Z" fill="#0d132d"/>
            <rect id="d5a37718-ee86-474f-938d-9db9e555d343" data-name="&lt;Path&gt;" x="343.55" y="4.59" width="3.44" height="99.08" transform="translate(-0.29 1.86) rotate(-0.31)" fill="#0d132d"/>
            <path id="1dbdb6fb-a7a3-4fa9-95e8-032680b7e313" data-name="&lt;Path&gt;" d="M362.76,138.37l-34.08.18a2.44,2.44,0,1,0,0,4.87l34.07-.18a2.44,2.44,0,1,0,0-4.87Z" fill="#0d132d"/>
          </g>
          <path d="M510.23,363.9a19,19,0,0,0-6,2.06c-7-4.51-15.73-10-22.34-14.15-28-9.35-62.46,19.79-69.14,22.83l77.59-.42,19.89-.11Z" fill="#fff" opacity="0.4"/>
        </g>
        <g>
          <g>
            <g>
              <rect x="492.11" y="246.48" width="25.58" height="52.32" rx="10.66" ry="10.66" transform="translate(-24.1 50.35) rotate(-5.58)" fill="#222f4c"/>
              <path d="M490.67,258.46l2.16,22.13,24.84-8.83L516.12,256a10.65,10.65,0,0,0-11.64-9.57l-4.24.41A10.64,10.64,0,0,0,490.67,258.46Z" fill="#222f4c"/>
            </g>
            <g>
              <path d="M461.33,246.16l9.51,1.91-.17,1.79L469,267.5c2.1,11.38,17.46,18.88,29.39,4.56l14.1-17.1,4.26-5.16,10.29-26.45-1.43-15.09-3.11-14.81L498.19,182.5l-27.75,1.58,6.93,2.5-18,56.33A2.54,2.54,0,0,0,461.33,246.16Z" fill="#222f4c"/>
              <g id="12ed1ec5-2815-4ed8-8b95-f0a09feeb1e7" data-name="&lt;Group&gt;">
                <path d="M486.24,224.12l-1.12,3.08s-4.71-3.5-7.57-1.45l-.12-4.52S484.29,219.92,486.24,224.12Z" fill="#222f4c"/>
              </g>
              <path d="M485.79,241.36a4.11,4.11,0,0,0,4.1,4.09c2.42.18,4.5-1.37,4.65-3.46s-1.69-3.92-4.1-4.09S485.94,239.27,485.79,241.36Z" fill="#222f4c"/>
              <path d="M470.47,249c.64-.12,1.28-.25,1.91-.39,7.92-1.83,14.73,2.67,22.29,3.21,2.16.16,4.55,0,6.11-1.45a6.36,6.36,0,0,0,1.76-4.51c.16-3.83-1.48-7.58-1.45-11.42.06-7.29,5-10.87,11.1-14,4.68-2.42,4.94-1.63,3.35,3.1-2,6-4.78,11.44-4.47,17.95.39,8.13,3.4,16.34-2.81,23.24-6.8,7.54-14.63,18.12-26.57,16.26a21.39,21.39,0,0,1-8-3.4,10.46,10.46,0,0,1-4.62-9.42Z" fill="#222f4c"/>
              <path d="M462.57,177.67c.52-2,1.13-4,1.79-6L518.55,186c.79.25,1.55.56,2.3.88l.73.19a25.53,25.53,0,0,1,11.87,35.87l-10,17.78-2.62,3-16.58-8.57c-2.77-1.43-4.78-5.43-2.55-7.62C507,222.3,517.38,215.13,513,206a9.74,9.74,0,0,0-1.76-2.52c-.35.27-.61.46-.7.51C489.71,215.15,455.2,206,462.57,177.67Z" fill="#222f4c"/>
              <g id="232c265e-d42d-4e79-b3ed-ac7bb0b8a6f2" data-name="&lt;Group&gt;">
                <path d="M479.5,233.89h0c-1.45,0-2.64-.8-2.64-1.79v-1.59c0-1,1.19-1.79,2.64-1.79h0c1.45,0,2.64.8,2.64,1.79v1.59C482.14,233.09,481,233.89,479.5,233.89Z" fill="#222f4c"/>
              </g>
            </g>
            <path d="M463.65,225.1l-.25,3.46,1.67.12a7.37,7.37,0,0,0,1.15,0l-.41,5.74c-.32,4.4,2.31,8.21,5.87,8.47l8.42.61a5.48,5.48,0,0,0,2.06-.24,7.2,7.2,0,0,0,3.92-3,10.21,10.21,0,0,0,1.67-5l.44-6.13,8.51,1.57,1.17.22,9.49,1.76h.1l7.94,1.48-.86-4.17-2-.46-3.74-.86-7.2-1.67-.75-.17-12.7-2.93-7.54-.67-1.61-.14-5.58-.48L466.7,222v.14l-.4,0-.22,3.06a2.9,2.9,0,0,1-.75,0Zm5.66.48,16.17,1.4-.59,8.05c-.21,3-2.25,5.27-4.55,5.1l-8.42-.61c-2-.14-3.45-2.35-3.26-4.94Z" fill="#222f4c"/>
            <g id="421ba0b1-4aaf-4f4b-8b34-42d11bb8b928" data-name="&lt;Group&gt;">
              <path d="M511.73,235.11l.74-1.76c1-2.26,2.64-3.69,4.42-3.75l.91,0c1.71-.06,3.27,1.16,4.15,3.23h0a10,10,0,0,1,.63,5.05l-.55,4.43a10.2,10.2,0,0,1-.84,3l-.41.89c-1,2.27-2.84,3.59-4.66,3.46h-.23c-2.22-.17-4-2.46-4.43-5.63l-.44-3.52A10.5,10.5,0,0,1,511.73,235.11Z" fill="#222f4c"/>
            </g>
          </g>
          <g>
            <polygon points="534 633.72 534 648 514.93 648 514.57 633.27 534 633.72" fill="#222f4c"/>
            <g>
              <rect x="489.94" y="644.51" width="44.14" height="12.94" transform="translate(1031.99 1295.6) rotate(179.29)" fill="#222f4c"/>
              <rect x="488.94" y="654.89" width="45.3" height="2.89" transform="translate(1023.17 1312.66) rotate(-180)" fill="#222f4c"/>
              <polygon points="516.75 647.49 514.36 640.71 493.24 645.17 516.75 647.49" fill="#222f4c"/>
            </g>
            <g>
              <rect x="488.33" y="269.2" width="42.8" height="41.66" rx="16.13" ry="16.13" fill="#222f4c"/>
              <g>
                <path d="M493.06,550.47h0c-6.74,0-12.34-4.45-12.65-10.05L475.56,445c-.36-6.59,6.66-11.7,14.49-10.54l14.26,2.11c6.49,1,11,5.94,10.41,11.37l-9.41,93.31C504.69,546.5,499.42,550.47,493.06,550.47Z" fill="#222f4c"/>
                <path d="M505.78,543.14c0-5.64-5.37-10.34-12.15-10.66-7.72-.37-13.95,5-13.16,11.45l1.64,21.14-.3.28,3.2,66a2.23,2.23,0,0,0,2.26,1.91l17.22.82a2.16,2.16,0,0,0,2.46-2Z" fill="#222f4c"/>
              </g>
              <g>
                <path d="M522.38,547.74h0c-6.35,0-11.61-4.38-11.89-9.93l-4.38-94.47c-.33-6.52,6.29-11.59,13.66-10.46l13.42,2.06c6.11.94,10.38,5.86,9.78,11.24l-9.05,92.4C533.34,543.78,528.37,547.73,522.38,547.74Z" fill="#222f4c"/>
                <path d="M534.35,540.88c0-5.82-5-10.65-11.4-11-7.27-.35-13.15,5.26-12.43,11.86L512,563.6l-.29.29L514.48,632a2.15,2.15,0,0,0,2.12,2l16.21.78a2.13,2.13,0,0,0,2.33-2Z" fill="#222f4c"/>
              </g>
              <path d="M477.94,407.83v25.53a11.89,11.89,0,0,0,8.5,11.4l30.34,9,22.76-9.52,4.73-13.87,2.61-24.75Z" fill="#222f4c"/>
              <path d="M520.53,279.93h-13c-16.17,0-29.28,14.48-29.28,32.34v25.15l-2.36,57.14-6.13,44a2.87,2.87,0,0,0,2,3.25l23.18,5.32,46.78.59a3.7,3.7,0,0,0,3.58-3.45c5.16-44.05,19.13-97.7.33-139C539.24,291.24,530.36,279.93,520.53,279.93Z" fill="#222f4c"/>
              <g>
                <g>
                  <path d="M494.85,295.58c9,4.16,9.56,31.31,9.07,38.31l-.53,7.51-7.73,35.65a11.83,11.83,0,0,1-13.72,9.49,11.57,11.57,0,0,1-9.14-13.05l11.16-69c.55-3.69,5.53-10.63,10.18-9.18A6.15,6.15,0,0,1,494.85,295.58Z" fill="#222f4c"/>
                  <path d="M482.39,389.65c-.35,0-.7-.1-1-.17A14.57,14.57,0,0,1,469.83,373s11.08-68.52,11.16-69c.68-4.52,6.2-12.68,12.79-11.85a7.54,7.54,0,0,1,1.25.28,7.93,7.93,0,0,1,1.09.42c12.49,5.81,10.82,40.89,10.79,41.24l-.55,7.73S490,390.61,482.39,389.65ZM493,298.12c-2.24-.29-5.73,4.35-6.1,6.81l-11.16,69a8.57,8.57,0,0,0,6.78,9.63,8.77,8.77,0,0,0,10.17-7.13l7.7-35.49.52-7.31c.77-10.9-1.43-32.62-7.34-35.37l-.35-.14Z" fill="#222f4c"/>
                </g>
                <g id="a47aa381-49de-438a-8967-8a241e819919" data-name="&lt;Group&gt;">
                  <g>
                    <path d="M421.94,396.74a2.42,2.42,0,0,0,.2.59l-.52.07-.32-3.85Z" fill="#222f4c"/>
                    <path d="M427.07,378.56a3.19,3.19,0,0,0-.13-.44l53.82-12a11.38,11.38,0,1,1,3.82,22.42l-54.25,7.62a2.68,2.68,0,0,0,0-1.13Z" fill="#222f4c"/>
                    <path d="M420.43,376.51l3.74-.92a2.53,2.53,0,0,1,3.05,1.64,3.51,3.51,0,0,1,.13.49l2.84,18.43a3,3,0,0,1-.09,1.27,3.17,3.17,0,0,1-2.22,2.21l-3.74.92a2.53,2.53,0,0,1-3-1.47,2.68,2.68,0,0,1-.2-.66l-.55-3.56L418.12,380c0-.1,0-.2,0-.3A3.17,3.17,0,0,1,420.43,376.51Z" fill="#222f4c"/>
                    <path d="M421.3,393.55l.32,3.85-6.3.89a8.59,8.59,0,0,1-9.29-6,7.68,7.68,0,0,1-.29-1.26,8.58,8.58,0,0,1,6.69-9.65l6.19-1.39a1.23,1.23,0,0,0,0,.27Z" fill="#222f4c"/>
                  </g>
                </g>
              </g>
            </g>
            <polygon points="507 631.14 507 646 485.98 646 485.66 630.56 507 631.14" fill="#222f4c"/>
            <g>
              <rect x="460.96" y="643.86" width="46.28" height="13.57" rx="5.78" ry="5.78" transform="translate(976.17 1295.29) rotate(179.29)" fill="#222f4c"/>
              <rect x="460.96" y="654.75" width="47.49" height="3.03" transform="translate(969.41 1312.52) rotate(-180)" fill="#222f4c"/>
              <polygon points="489.06 647 486.56 639.89 464.42 644.56 489.06 647" fill="#222f4c"/>
              <polygon points="477.19 654.83 508.3 654.75 508.16 643.57 477.05 643.95 477.19 654.83" fill="#222f4c"/>
            </g>
            <g>
              <path d="M383.46,401.46h0l.23.1s0,.05,0,.07c.63.41,1.26.8,1.9,1.19l1.14.05,9.08,3.89,18.2-7.13.09-.34a4.76,4.76,0,0,0,1.76-2.28l1.93-5.31a4.8,4.8,0,0,0-1.5-5.38l-8.08-6.47a1.4,1.4,0,0,0-.86-.3h-7.7a1.4,1.4,0,0,1-.41-.06L395,378.15a1.39,1.39,0,0,0-1.41.36l-1.29,1.36a1.37,1.37,0,0,0,.07,2l3.36,3.08a1.35,1.35,0,0,0,.89.37l5.24.16a1.46,1.46,0,0,1,.51.12,1.37,1.37,0,0,1,.22,2.41l-1.7,1.15a1.35,1.35,0,0,1-.44.2l-13.54,3.33a1.14,1.14,0,0,0-.38.16L379.62,398A24.41,24.41,0,0,0,383.46,401.46Z" fill="#222f4c"/>
              <path d="M381.38,399.78c4.77-1.53,12.45-3.37,16.35-4.24l.25,1.11c-3.7.83-10.84,2.55-15.6,4Z" fill="#222f4c"/>
              <path d="M388,403.4c2-.45,3.75-.74,5.47-1s3.61-.6,5.73-1.07l-.26-1.12c-2.07.47-3.9.77-5.66,1.06-1.51.26-5.12,1-7.47,1.57Z" fill="#222f4c"/>
            </g>
          </g>
        </g>
      </g>
    </g>
    <g id="16cc7ca8-fae5-4535-8a74-d2da2dcd13af" data-name="img9">
      <g>
        <g id="67219d11-1d36-44b1-8b50-5f6727233cbf" data-name="ÕÓ‚˚È_ÒËÏ‚ÓÎ_3_1_">
          <g>
            <path d="M306.26,415.11l-14.71-.05a12,12,0,0,0-12.06,12l0,7.81a.61.61,0,0,0,.59.6h4.47a.59.59,0,0,0,.6-.59l0-7.82a6.37,6.37,0,0,1,6.39-6.34l14.71,0a6.37,6.37,0,0,1,6.35,6.38l0,7.82a.59.59,0,0,0,.6.59l4.46,0a.6.6,0,0,0,.6-.59l0-7.82A12,12,0,0,0,306.26,415.11Z" fill="#000429"/>
            <rect x="253.88" y="435.53" width="95.84" height="68.54" transform="translate(1.55 -0.99) rotate(0.19)" fill="#000429"/>
            <rect x="248.16" y="435.51" width="95.84" height="68.54" transform="translate(1.55 -0.97) rotate(0.19)" fill="#13193d"/>
          </g>
        </g>
        <g>
          <g>
            <path d="M307.4,416.36l-5.29,12a.87.87,0,0,1-1,.72l-1-.13-.44-.05-.77-.1,1.15,0h.46l-.48-.07-.29,0-3.22-.4,2.35.11L296.2,428l-3.3-8.61-1.28-1.83-.13-.19a9.22,9.22,0,0,1,2.29-12.83l3-2.07Z" fill="#fac1b1"/>
            <g opacity="0.51" style="mix-blend-mode: multiply">
              <polygon points="299.7 428.63 296.49 428.23 298.84 428.34 296.2 428.01 292.9 419.4 291.62 417.57 297.31 420.03 300 428.66 299.7 428.63" fill="#fbba9f"/>
            </g>
            <polygon points="300.08 428.91 299.64 428.86 298.87 428.76 300.02 428.74 300.08 428.91" fill="#fbba9f"/>
          </g>
          <path d="M299.3,414.91l0-.19L300.7,418v5.75l-2.27-.14.17-1.71a5.68,5.68,0,0,1-.44.56,8.31,8.31,0,0,1-.17,1.93l3.52.24,0-6.71-2.69-6.47-.21,2.1A6.33,6.33,0,0,1,299.3,414.91Z" fill="#ff9983"/>
        </g>
        <use width="49.42" height="99.31" transform="matrix(-0.85, -0.27, -0.23, 0.75, 290.35, 293.4)" xlink:href="#09f177b2-405e-4bcb-9507-494adad0244b"/>
        <use id="f1f0c879-0c14-4ab7-989b-01dd593d7af1" data-name="New Symbol 207" width="39.78" height="79.65" transform="matrix(-0.87, 0.19, 0.19, 0.87, 284.75, 341.09)" xlink:href="#fc771f3e-c3cc-4c2e-81a7-2fc18d8dfdaa"/>
        <g>
          <path d="M219.93,232v-27.8s2.43-14.43,3.52-13.34a15,15,0,0,0-15-15h-3.22a18,18,0,0,0-18,18V232C198.06,232.47,209.05,232.08,219.93,232Z" fill="#543330"/>
          <path d="M187.18,211.66v30.42a6.55,6.55,0,0,1-6.55,6.55,5.45,5.45,0,0,1-5.46-5.46v-1.09a5.46,5.46,0,1,0-10.92,0h0a26.2,26.2,0,0,0,26.2,26.2h0a29.47,29.47,0,0,0,29.48-29.47v-27C209,211.8,198.07,212.09,187.18,211.66Z" fill="#543330"/>
          <g>
            <path d="M193.55,216.33h65.9a0,0,0,0,1,0,0v62.19a4.94,4.94,0,0,1-4.94,4.94h-56a4.94,4.94,0,0,1-4.94-4.94V216.33A0,0,0,0,1,193.55,216.33Z" fill="#4c2d28"/>
            <rect x="207.45" y="238.99" width="45.82" height="44.48" fill="#3a201d"/>
          </g>
          <rect x="193.04" y="174.11" width="66.93" height="77.23" rx="30.12" ry="30.12" fill="#4c2d28"/>
          <rect x="203.43" y="219.16" width="7.72" height="14.61" rx="3.86" ry="3.86" fill="#ddaa9e"/>
          <g id="a897f896-2d98-471d-acee-c1db038625c5" data-name="&lt;Group&gt;">
            <rect x="217.23" y="247.87" width="16.99" height="34.37" rx="6.76" ry="6.76" fill="#fac1b1"/>
            <path d="M234.22,255.4v15.87c-4.47-2.86-11.88-7.54-17-10.53V255.4a6.78,6.78,0,0,1,6.76-6.76h3.48A6.78,6.78,0,0,1,234.22,255.4Z" fill="#ddaa9e"/>
          </g>
          <path d="M207.77,215.05v21.83A20,20,0,0,0,213.63,251L224,261.38a9.83,9.83,0,0,0,13.9,0l9.21-9.2A20,20,0,0,0,253,238v-19.9L216.88,199.6Z" fill="#fac1b1"/>
          <path d="M227.65,247.93c-.38,0-.63.61-.44,1.1,1.27,3.4,3.93,5.73,7,5.73s5.75-2.33,7-5.73c.19-.49-.06-1.1-.44-1.1Z" fill="#fff"/>
          <use id="185280f2-5187-4f65-a91c-a248cef03924" data-name="New Symbol 23" width="3.26" height="4.72" transform="translate(221.93 222.85) scale(1.7 1.08)" xlink:href="#4cbf2660-9122-4626-ab48-e1f9b230574c"/>
          <use id="46966f24-db1b-4b38-a27c-992cd17fb617" data-name="New Symbol 32" width="3.79" height="1.45" transform="translate(221.39 216.29) scale(1.7)" xlink:href="#c504efda-7f98-41ec-bee6-be79963e4d5d"/>
          <use id="c84e9530-2278-4385-95bf-353e01acb074" data-name="New Symbol 23" width="3.26" height="4.72" transform="matrix(-1.7, 0, 0, 1.08, 249.61, 222.85)" xlink:href="#4cbf2660-9122-4626-ab48-e1f9b230574c"/>
          <use id="3ae4ce9b-a788-4eba-93ac-b51c71a8fa26" data-name="New Symbol 32" width="3.79" height="1.45" transform="matrix(-1.7, 0, 0, 1.7, 250.15, 216.29)" xlink:href="#c504efda-7f98-41ec-bee6-be79963e4d5d"/>
          <g id="165f6a30-44b5-49d9-b5e5-0927515469ab" data-name="&lt;Group&gt;">
            <circle cx="221.65" cy="238.09" r="3.09" fill="#fc8883" opacity="0.36"/>
          </g>
          <circle cx="248.29" cy="238.09" r="3.09" fill="#fc8883" opacity="0.36"/>
          <g>
            <path d="M229.27,236.3H217.84c-3.26,0-5.9-3.46-5.9-7.71v-4.27c0-4.25,2.64-7.71,5.9-7.71h11.43c3.26,0,5.9,3.46,5.9,7.71v4.27C235.17,232.84,232.53,236.3,229.27,236.3ZM217.84,219c-2.26,0-4.1,2.4-4.1,5.35v4.27c0,2.95,1.84,5.35,4.1,5.35h11.43c2.26,0,4.1-2.4,4.1-5.35v-4.27c0-2.95-1.84-5.35-4.1-5.35Z" fill="#67008d"/>
            <rect x="233.5" y="221.09" width="6.23" height="4.63" fill="#67008d"/>
            <rect x="203.43" y="219.16" width="10.12" height="4.63" fill="#67008d"/>
            <g id="010847a8-b962-4e38-87c8-50a85247329f" data-name="&lt;Group&gt;">
              <path d="M252.32,236.3h-9c-3,0-5.37-3.46-5.37-7.71v-4.27c0-4.25,2.41-7.71,5.37-7.71h9c3,0,5.38,3.46,5.38,7.71v4.27C257.7,232.84,255.29,236.3,252.32,236.3Zm-9-17.33c-2.05,0-3.73,2.4-3.73,5.35v4.27c0,2.95,1.68,5.35,3.73,5.35h9c2.06,0,3.73-2.4,3.73-5.35v-4.27c0-2.95-1.67-5.35-3.73-5.35Z" fill="#67008d"/>
            </g>
          </g>
          <polygon points="228.15 220.48 224.34 220.58 207.86 192.26 223.51 192.68 228.15 220.48" fill="#4c2d28"/>
        </g>
        <path d="M278.84,398l-25.56-31.89-8.43-20.94,4.53-44.48,1-16.56-6.2-4.5s2.07-4.66,12.39-2.24c2.85,1.15,12.82,4,13.47,15.47.31,16.2.47,50.32.47,50.32s.51,9.29,4.38,15,18.32,32.58,18.32,32.58L277.5,398Z" fill="#e8e1c8"/>
        <g>
          <path d="M192.52,331.52a105.26,105.26,0,0,1-1.3,36.44L187,388l73.67-.11-4.31-20a105.26,105.26,0,0,1-1.42-36.44l5.66-41.56a7.15,7.15,0,0,0-3.74-7.28L234.92,271a24.05,24.05,0,0,0-22.6,0l-21.86,11.66a7.14,7.14,0,0,0-3.72,7.29Z" fill="#fecb05"/>
          <path d="M232.43,309.37c-11.65-11.65-22.61-20.92-25.18-28.31-.95-2.71.33-7.1,2.58-11.37l2.51-1.26a25.43,25.43,0,0,1,22.64,0l3.69,1.85c3.17,3.63,5.59,7.06,6,8.88C246,284.33,239.31,295.35,232.43,309.37Z" fill="#fecb05"/>
        </g>
        <g>
          <g>
            <g id="2cfccc79-affc-4d28-8ff0-45997bb0cec5" data-name="&lt;Group&gt;">
              <path d="M259.61,393.71a9.58,9.58,0,0,1-7.58-4c-10-1.77-20.09-2.62-30.17-3.85l3.26,126.88a10.85,10.85,0,0,0,21.64.76l13.29-119.8Z" fill="#fac1b1"/>
            </g>
            <g id="c5610e6d-9051-4774-bc15-053d8b97010b" data-name="&lt;Group&gt;">
              <path d="M227.5,507.39l-2.09,3.08.28,22.89,1.24,101h.5l11.84,0,6.66-101,1-15.77.5-7.55C243.22,502.34,232.38,500.12,227.5,507.39Z" fill="#fac1b1"/>
            </g>
          </g>
          <g>
            <g id="4c037188-80fd-4af9-8f4b-c68d465a8532" data-name="&lt;Group&gt;">
              <path d="M190.39,396.9l7.15,116.35a10.86,10.86,0,0,0,21.68,0l8.83-117.8C215.5,396.27,202.94,397,190.39,396.9Z" fill="#fac1b1"/>
            </g>
            <g id="92fb9c78-c11d-4a86-beb3-dd156ada32dd" data-name="&lt;Group&gt;">
              <path d="M199.72,507.81l-2,3.16,1.09,22.9,4.84,101.07h.5l11.85-.44,3.07-101.37.47-15.83.23-7.57C215.28,502.2,204.35,500.37,199.72,507.81Z" fill="#fac1b1"/>
            </g>
          </g>
        </g>
        <path d="M255.87,372.06l-32.43.89L191,372.16l-3.39,6.24a50.18,50.18,0,0,0-6,26.81l4.46,87.69,37.56-.06,37.57-.06,4.19-87.69a50.11,50.11,0,0,0-6.08-26.79Z" fill="#fecb05"/>
        <polygon points="194.84 273.9 209.78 269.63 215.29 282.21 234.21 359.85 236.22 493 183.32 493 177.99 406.99 186.68 302.25 194.84 273.9" fill="#cec6ae"/>
        <g>
          <path d="M181.47,290.86l-4.15,67.66a6.81,6.81,0,0,0,4.9,7h0a6.8,6.8,0,0,0,8.6-5.43l11-66.81a10.22,10.22,0,0,0-7.54-11.56h0A10.24,10.24,0,0,0,181.47,290.86Z" fill="#78cdd0"/>
          <g id="e05b679c-318a-44e0-ad4d-457e2b677aca" data-name="&lt;Group&gt;">
            <g>
              <path d="M171.68,417.11a3.44,3.44,0,0,0,3.11,3.69,3.55,3.55,0,0,0,1.09-.08,3.42,3.42,0,0,0,2.55-2.62l5.88-27.75L174,389.19Z" fill="#fac1b1"/>
              <path d="M183.83,352.45a6.64,6.64,0,0,0-1.9.19,7.1,7.1,0,0,0-5.4,6.3L174,389.19l10.3,1.16L190.52,361A7.09,7.09,0,0,0,183.83,352.45Z" fill="#78cdd0"/>
            </g>
          </g>
          <g id="44b3e5ff-d780-467a-b23d-0e9feaa003e6" data-name="&lt;Group&gt;">
            <path d="M174,435.56l3.33,6.27a3.85,3.85,0,0,1-.93,4.77h0l-5.3-10.44Z" fill="#fc8883"/>
            <path d="M183.5,437.68h0l-1.09-14.84-.2,0,.14-.84-4.3-6.75-4.19-.08a1.79,1.79,0,0,0-1.8,1.45l-3.2,16.32L173.28,449l.25-.15a4.21,4.21,0,0,0,2-3.82l-.36-7.07,4.13-9.48,1.56,7.9A1.88,1.88,0,0,0,183.5,437.68Z" fill="#fac1b1" stroke="#fac1b1" stroke-miterlimit="10" stroke-width="0.79"/>
          </g>
        </g>
        <g id="14266da5-a184-4b49-8936-f873d7967db5" data-name="&lt;Group&gt;">
          <path d="M223.07,260.75a37.8,37.8,0,0,1-5.84-3.48v18.21a6.79,6.79,0,0,0,6.76,6.76h3.48a6.78,6.78,0,0,0,6.75-6.76v-8.6A18.77,18.77,0,0,1,223.07,260.75Z" fill="#fac1b1"/>
          <path d="M223.07,260.75a37.8,37.8,0,0,1-5.84-3.48v3.47c5.11,3,12.52,7.67,17,10.53v-4.39A18.77,18.77,0,0,1,223.07,260.75Z" fill="#ddaa9e"/>
        </g>
        <path d="M306.26,415.11l-5.91,0a20,20,0,0,1,.69,5.66l5.2,0a6.37,6.37,0,0,1,6.35,6.38l0,7.82a.59.59,0,0,0,.6.59l4.46,0a.6.6,0,0,0,.6-.59l0-7.82A12,12,0,0,0,306.26,415.11Z" fill="#000429"/>
        <rect x="225.64" y="639.62" width="7.3" height="3.66" fill="#4c2d28"/>
        <g>
          <path d="M223.71,552h23.6L241,637.91s-15.33,4.59-15.45.14S223.71,552,223.71,552Z" fill="#181819"/>
          <path d="M252.19,634.76c-7.94-1.38-20.25-4.87-20.25-4.87L227.62,633h-.83l-.79,2.84V643h8v-.72l-.59-1.15a3.1,3.1,0,0,1,2.93,1.87H258.5S260.55,636.66,252.19,634.76Z" fill="#181819"/>
          <path d="M226,639v4h8v-.72l-.59-1.15a3.1,3.1,0,0,1,2.93,1.87H258.5a8,8,0,0,0-.08-4Z" fill="#543330"/>
        </g>
        <g>
          <path d="M198.94,552h23.6l-6.32,85.91s-15.33,4.59-15.45.14S198.94,552,198.94,552Z" fill="#171719"/>
          <path d="M227.42,634.76c-7.94-1.38-20.25-4.87-20.25-4.87L202.85,633H202l-2,2.84V643h10v-.72l-1-1.15a2.73,2.73,0,0,1,2.55,1.87h22.16S235.77,636.66,227.42,634.76Z" fill="#171719"/>
          <path d="M200,639v4h10v-.72l-1-1.15a2.73,2.73,0,0,1,2.55,1.87h22.16a8,8,0,0,0-.09-4Z" fill="#4c2d28"/>
        </g>
        <path d="M168.86,398.49l7.32-99.44s-.09-15.56,5.33-18.36S194.93,274,194.93,274s2.06-1.55,3.36,0a29.75,29.75,0,0,1,3.62,4.9c1.54,2.58,3.86,9.81,3.08,14.71s-4.12,40.77-4.12,40.77l-16.56,66.32Z" fill="#e8e1c8"/>
        <rect x="167.83" y="397.25" width="17.81" height="9.31" rx="4.66" ry="4.66" transform="translate(54.92 -19.9) rotate(7.63)" fill="#f5f5f5"/>
        <rect x="278.23" y="390.78" width="17.81" height="9.31" rx="4.66" ry="4.66" transform="translate(-161.04 200.61) rotate(-30.52)" fill="#f5f5f5"/>
        <path d="M230.36,356.08s15.87-14,8.28-85.83c12.68,5.32,17.89,7.13,17.89,7.13s5.76,2.57,4,11.09c-.7,6.88-3,68.13,4.8,112.25-.58,15.1-4.26,92.06-4.26,92.06l-34.16-.2Z" fill="#cec6ae"/>
        <path d="M228.64,370.09a15.7,15.7,0,0,0,5.26,1,9.22,9.22,0,0,0,7.39-3.29,19.07,19.07,0,0,0,2.05-4.85c.78-3.91,5.44-39.69,5.44-52.23s-.08-36.64-1.59-38.56c-1.05-3.12-7.19-5.25-9.28-5.8a5.23,5.23,0,0,0-3.83.57s5.66,84.12-.75,78c-3-6.78-11.27-57.1-19.77-76.6,0,0-.8-1.45-1.52-1.75-1.58-.52-5.43,0-8.22.66-1.31.34-5.37,2.05-6.19,2.89a2.41,2.41,0,0,0-.6,2,10.15,10.15,0,0,0,1.15,3.29,64.06,64.06,0,0,1,4.23,9.5c4.82,16.36,20,67.92,25.27,84.63C228.31,369.84,229,370.18,228.64,370.09Z" fill="#fff"/>
        <path d="M221.55,279.53l-3.52-.89L213.36,268l4.75-1.79S222.74,279.82,221.55,279.53Z" fill="#fac1b1"/>
        <rect x="183.5" y="488.46" width="78.26" height="8.52" rx="4.26" ry="4.26" fill="#fff"/>
        <rect x="230.36" y="381.52" width="7.99" height="7.99" rx="4" ry="4" fill="#bab19b"/>
        <rect x="230.36" y="399.04" width="7.99" height="7.99" rx="4" ry="4" fill="#bab19b"/>
        <rect x="230.36" y="416.56" width="7.99" height="7.99" rx="4" ry="4" fill="#bab19b"/>
      </g>
    </g>
  </g>
</svg>
