<svg xmlns="http://www.w3.org/2000/svg" xmlns:xlink="http://www.w3.org/1999/xlink" width="700" height="700" viewBox="0 0 700 700">
  <defs>
    <clipPath id="3b3e6c86-f1c5-469d-8671-52fcc1f01ba4">
      <circle cx="344.98" cy="347.42" r="279.44" fill="none"/>
    </clipPath>
    <clipPath id="a216503e-7b48-4fa8-8bc4-bef0de094138">
      <rect x="569.32" y="269.91" width="107.2" height="96.49" fill="none"/>
    </clipPath>
    <linearGradient id="4974aac2-c791-410f-a2f7-2da960af2db1" x1="345.11" y1="-177.63" x2="345.11" y2="623" gradientUnits="userSpaceOnUse">
      <stop offset="0" stop-color="#fff"/>
      <stop offset="1" stop-color="#fff" stop-opacity="0"/>
    </linearGradient>
    <symbol id="46fdf1f4-5b7d-4040-84ce-2d054cbf9299" data-name="New Symbol 8" viewBox="0 0 44.07 176.44">
      <path d="M3.76,10.51A18.79,18.79,0,0,0,.11,23.81L16,165.41a12.3,12.3,0,0,0,12.78,11h0a12.3,12.3,0,0,0,11.76-11.92L44.06,20.25a12.26,12.26,0,0,0-3.59-9.07L34.69,5.39a18.42,18.42,0,0,0-26.47.44L3.81,10.44Z" fill="#fac1b1"/>
    </symbol>
    <symbol id="71575b8b-fbed-46f6-b3d0-c1f4263381b2" data-name="New Symbol 30" viewBox="0 0 23.76 141.6">
      <path d="M2.25,4.76,0,8.08.26,32.74,1.43,141.6h13.3L22.07,32.74l1.14-17,.55-8.13C19.2-.65,7.52-3.06,2.25,4.76Z" fill="#fac1b1"/>
    </symbol>
    <symbol id="916bf9f2-1f94-4a67-a624-f39139c30e12" data-name="New Symbol 197" viewBox="0 0 49.42 99.31">
      <path d="M48.43,17.48,37.37,43.71,16.08,94.19A8.37,8.37,0,0,1,.37,88.48L16.5,36,24.85,8.79A12.58,12.58,0,0,1,39.75.34a13,13,0,0,1,2.78,1l.22.11A12.57,12.57,0,0,1,48.43,17.48Z" fill="#78cdd0"/>
    </symbol>
    <symbol id="e4ee9d06-93c9-4a4b-ab7c-c6b38504bf5d" data-name="New Symbol 162" viewBox="0 0 39.78 79.65">
      <g>
        <path d="M.21,74.12a4.22,4.22,0,0,0,2.66,5.31,4.12,4.12,0,0,0,1.33.22A4.21,4.21,0,0,0,8,77.25l9.16-19.18L7,53.78Z" fill="#fac1b1"/>
        <path d="M33.39.32A8.55,8.55,0,0,0,31.06,0a8.73,8.73,0,0,0-8.27,6L13.41,34.29l-2.36,7.13L7,53.78l10.21,4.29L23,45.77l3.43-7.19L38.92,12.47A8.71,8.71,0,0,0,33.39.32Z" fill="#78cdd0"/>
      </g>
    </symbol>
    <symbol id="f4391c83-e63c-44f6-bb2f-160cc3d6aa92" data-name="New Symbol 23" viewBox="0 0 3.26 4.72">
      <path d="M1.63,4.72h0A1.63,1.63,0,0,1,0,3.09V1.63A1.63,1.63,0,0,1,1.63,0h0A1.63,1.63,0,0,1,3.26,1.63V3.09A1.63,1.63,0,0,1,1.63,4.72Z" fill="#67413a"/>
    </symbol>
  </defs>
  <title>anna-4</title>
  <g style="isolation: isolate">
    <g id="de332f50-3631-4caa-988a-0b0bb30cec33" data-name="bck12">
      <rect y="-4.8" width="701.05" height="703.44" fill="#c7dce4"/>
      <g clip-path="url(#3b3e6c86-f1c5-469d-8671-52fcc1f01ba4)">
        <circle cx="344.88" cy="347.05" r="277.95" fill="#9facc1"/>
        <g opacity="0.43">
          <path d="M554.77,318.61a5.15,5.15,0,1,1-3.32,6.5A5.17,5.17,0,0,1,554.77,318.61Z" fill="#fff"/>
          <path d="M140.27,119.91A5.15,5.15,0,1,1,137,126.4,5.15,5.15,0,0,1,140.27,119.91Z" fill="#fff"/>
          <path d="M488.05,157.05a5.15,5.15,0,1,1-3.32,6.5A5.16,5.16,0,0,1,488.05,157.05Z" fill="#fff"/>
          <path d="M650.49,449.67a2.17,2.17,0,1,1-1.4,2.73A2.17,2.17,0,0,1,650.49,449.67Z" fill="#fff"/>
          <path d="M487.66,240.47a2.17,2.17,0,1,1-2.93.91A2.16,2.16,0,0,1,487.66,240.47Z" fill="#fff"/>
          <path d="M71.8,152.33a2.17,2.17,0,1,1-1.4,2.73A2.17,2.17,0,0,1,71.8,152.33Z" fill="#fff"/>
          <path d="M484.7,88.1a2.17,2.17,0,1,1-2.94.92A2.17,2.17,0,0,1,484.7,88.1Z" fill="#fff"/>
          <path d="M610.68,170.1a2.17,2.17,0,1,1-2.93.92A2.17,2.17,0,0,1,610.68,170.1Z" fill="#fff"/>
          <path d="M412,188.67a2.17,2.17,0,1,1-2,3.85,2.17,2.17,0,0,1,2-3.85Z" fill="#fff"/>
          <path d="M589.9,94.37a2.17,2.17,0,1,1-2.93.92A2.18,2.18,0,0,1,589.9,94.37Z" fill="#fff"/>
          <path d="M348.84,208.34a2.17,2.17,0,1,1,.92,2.93A2.19,2.19,0,0,1,348.84,208.34Z" fill="#fff"/>
          <path d="M383.22,160.79a2.17,2.17,0,1,1,.92,2.93A2.18,2.18,0,0,1,383.22,160.79Z" fill="#fff"/>
          <path d="M599.39,387.57a2.17,2.17,0,1,1,.91,2.94A2.16,2.16,0,0,1,599.39,387.57Z" fill="#fff"/>
          <path d="M533.29,356.49a2.17,2.17,0,1,1,.92,2.93A2.18,2.18,0,0,1,533.29,356.49Z" fill="#fff"/>
          <path d="M472.5,390.17a4.73,4.73,0,1,1-6-3.05A4.73,4.73,0,0,1,472.5,390.17Z" fill="#fff"/>
          <path d="M383.61,248.69a5.15,5.15,0,1,1-6.49-3.32A5.16,5.16,0,0,1,383.61,248.69Z" fill="#fff"/>
          <path d="M606.42,482.71a5.15,5.15,0,1,1-6.49-3.32A5.15,5.15,0,0,1,606.42,482.71Z" fill="#fff"/>
          <path d="M301.86,197.57a5.83,5.83,0,1,1-7.34-3.76A5.83,5.83,0,0,1,301.86,197.57Z" fill="#fff"/>
          <path d="M539.24,295.9a2.18,2.18,0,1,1-2.74-1.39A2.18,2.18,0,0,1,539.24,295.9Z" fill="#fff"/>
          <path d="M462.55,197.51a2.17,2.17,0,1,1-2.74-1.4A2.17,2.17,0,0,1,462.55,197.51Z" fill="#fff"/>
          <path d="M571.74,442.67a2.17,2.17,0,1,1-2.74-1.4A2.17,2.17,0,0,1,571.74,442.67Z" fill="#fff"/>
          <path d="M432.83,308.1a2.17,2.17,0,1,1-2.74-1.4A2.17,2.17,0,0,1,432.83,308.1Z" fill="#fff"/>
          <path d="M600.68,299.42a2.17,2.17,0,1,1-2.74-1.4A2.17,2.17,0,0,1,600.68,299.42Z" fill="#fff"/>
          <path d="M549.23,114.35a2.17,2.17,0,1,1-.92-2.93A2.18,2.18,0,0,1,549.23,114.35Z" fill="#fff"/>
          <path d="M436.34,142.15a2.17,2.17,0,1,1-.92-2.93A2.18,2.18,0,0,1,436.34,142.15Z" fill="#fff"/>
          <path d="M288.7,116.67a2.17,2.17,0,1,1-2.74-1.4A2.18,2.18,0,0,1,288.7,116.67Z" fill="#fff"/>
          <path d="M609.8,360.13a2.18,2.18,0,1,1-2.74-1.4A2.18,2.18,0,0,1,609.8,360.13Z" fill="#fff"/>
          <path d="M637.37,82.23a2.17,2.17,0,1,1-.91-2.93A2.16,2.16,0,0,1,637.37,82.23Z" fill="#fff"/>
          <path d="M629.23,185.5a2.17,2.17,0,1,1-.92-2.93A2.19,2.19,0,0,1,629.23,185.5Z" fill="#fff"/>
          <path d="M97.4,109.16a2.17,2.17,0,0,1-3.85-2,2.17,2.17,0,1,1,3.85,2Z" fill="#fff"/>
          <path d="M305.67,177.4a2.17,2.17,0,1,1-1.4,2.73A2.18,2.18,0,0,1,305.67,177.4Z" fill="#fff"/>
          <path d="M435,379.81a2.17,2.17,0,1,1-2.93.92A2.18,2.18,0,0,1,435,379.81Z" fill="#fff"/>
          <path d="M481.29,339.29a2.17,2.17,0,1,1-2.93.92A2.17,2.17,0,0,1,481.29,339.29Z" fill="#fff"/>
          <path d="M405.63,287.5a2.17,2.17,0,1,1-2.94.92A2.17,2.17,0,0,1,405.63,287.5Z" fill="#fff"/>
          <path d="M555.73,80.31a2.17,2.17,0,1,1-2.94.92A2.17,2.17,0,0,1,555.73,80.31Z" fill="#fff"/>
          <path d="M583.53,193.19a2.17,2.17,0,1,1-2.94.92A2.17,2.17,0,0,1,583.53,193.19Z" fill="#fff"/>
          <path d="M357,98.88a2.17,2.17,0,1,1-2.93.92A2.16,2.16,0,0,1,357,98.88Z" fill="#fff"/>
          <path d="M472.5,390.17a4.73,4.73,0,1,1-6-3.05A4.73,4.73,0,0,1,472.5,390.17Z" fill="#fff"/>
          <path d="M368.14,289.3a5.15,5.15,0,1,1-6.49-3.33A5.15,5.15,0,0,1,368.14,289.3Z" fill="#fff"/>
          <path d="M238.06,115.55a5.83,5.83,0,1,1-7.34-3.76A5.82,5.82,0,0,1,238.06,115.55Z" fill="#fff"/>
          <path d="M539.24,295.9a2.18,2.18,0,1,1-2.74-1.39A2.18,2.18,0,0,1,539.24,295.9Z" fill="#fff"/>
          <path d="M462.55,197.51a2.17,2.17,0,1,1-2.74-1.4A2.17,2.17,0,0,1,462.55,197.51Z" fill="#fff"/>
          <path d="M571.74,442.67a2.17,2.17,0,1,1-2.74-1.4A2.17,2.17,0,0,1,571.74,442.67Z" fill="#fff"/>
          <path d="M432.83,308.1a2.17,2.17,0,1,1-2.74-1.4A2.17,2.17,0,0,1,432.83,308.1Z" fill="#fff"/>
          <path d="M549.23,114.35a2.17,2.17,0,1,1-.92-2.93A2.18,2.18,0,0,1,549.23,114.35Z" fill="#fff"/>
          <path d="M288.7,116.67a2.17,2.17,0,1,1-2.74-1.4A2.18,2.18,0,0,1,288.7,116.67Z" fill="#fff"/>
          <path d="M609.8,360.13a2.18,2.18,0,1,1-2.74-1.4A2.18,2.18,0,0,1,609.8,360.13Z" fill="#fff"/>
          <path d="M629.23,185.5a2.17,2.17,0,1,1-.92-2.93A2.19,2.19,0,0,1,629.23,185.5Z" fill="#fff"/>
          <path d="M97.4,109.16a2.17,2.17,0,0,1-3.85-2,2.17,2.17,0,1,1,3.85,2Z" fill="#fff"/>
          <path d="M435,379.81a2.17,2.17,0,1,1-2.93.92A2.18,2.18,0,0,1,435,379.81Z" fill="#fff"/>
          <path d="M481.29,339.29a2.17,2.17,0,1,1-2.93.92A2.17,2.17,0,0,1,481.29,339.29Z" fill="#fff"/>
          <path d="M524.67,397a2.17,2.17,0,1,1-2.93.92A2.17,2.17,0,0,1,524.67,397Z" fill="#fff"/>
          <path d="M405.63,287.5a2.17,2.17,0,1,1-2.94.92A2.17,2.17,0,0,1,405.63,287.5Z" fill="#fff"/>
          <path d="M508.11,215.76a2.17,2.17,0,1,1-2.93.92A2.16,2.16,0,0,1,508.11,215.76Z" fill="#fff"/>
          <path d="M555.73,80.31a2.17,2.17,0,1,1-2.94.91A2.17,2.17,0,0,1,555.73,80.31Z" fill="#fff"/>
          <path d="M583.53,193.19a2.17,2.17,0,1,1-2.94.92A2.17,2.17,0,0,1,583.53,193.19Z" fill="#fff"/>
          <path d="M357,98.88a2.17,2.17,0,1,1-2.93.92A2.16,2.16,0,0,1,357,98.88Z" fill="#fff"/>
          <path d="M448.42,80.55a4.73,4.73,0,1,1,3-6A4.75,4.75,0,0,1,448.42,80.55Z" fill="#fff"/>
          <path d="M492.06,292.3a5.83,5.83,0,1,1,3.76-7.34A5.83,5.83,0,0,1,492.06,292.3Z" fill="#fff"/>
          <path d="M147.68,64.33a2.17,2.17,0,1,1,1.4-2.73A2.18,2.18,0,0,1,147.68,64.33Z" fill="#fff"/>
          <path d="M171.57,178.82a2.17,2.17,0,1,1,1.4-2.73A2.17,2.17,0,0,1,171.57,178.82Z" fill="#fff"/>
          <path d="M77.42,68.48a2.17,2.17,0,1,1,2.94-.92A2.17,2.17,0,0,1,77.42,68.48Z" fill="#fff"/>
          <path d="M552.08,156.82a2.17,2.17,0,1,1,1.4-2.74A2.17,2.17,0,0,1,552.08,156.82Z" fill="#fff"/>
          <path d="M109.54,156.63a2.17,2.17,0,1,1,2.93-.92A2.18,2.18,0,0,1,109.54,156.63Z" fill="#fff"/>
          <path d="M428.58,243.07a2.17,2.17,0,1,1-2.74-1.4A2.18,2.18,0,0,1,428.58,243.07Z" fill="#fff"/>
          <path d="M216.89,173.53a2.17,2.17,0,1,1-2.74-1.4A2.17,2.17,0,0,1,216.89,173.53Z" fill="#fff"/>
          <path d="M472.92,436.29a2.18,2.18,0,1,1-2.74-1.4A2.18,2.18,0,0,1,472.92,436.29Z" fill="#fff"/>
          <path d="M509.17,308.31a2.17,2.17,0,1,1-2.73-1.4A2.18,2.18,0,0,1,509.17,308.31Z" fill="#fff"/>
          <path d="M450.4,108a2.17,2.17,0,1,1-.91-2.93A2.16,2.16,0,0,1,450.4,108Z" fill="#fff"/>
          <path d="M337.52,135.78a2.17,2.17,0,1,1-.92-2.94A2.17,2.17,0,0,1,337.52,135.78Z" fill="#fff"/>
          <path d="M538.58,501.56a2.17,2.17,0,1,1-2.74-1.4A2.17,2.17,0,0,1,538.58,501.56Z" fill="#fff"/>
          <path d="M556.61,234.48a2.17,2.17,0,1,1-2.74-1.39A2.18,2.18,0,0,1,556.61,234.48Z" fill="#fff"/>
          <path d="M665.8,479.64a2.17,2.17,0,1,1-2.73-1.4A2.18,2.18,0,0,1,665.8,479.64Z" fill="#fff"/>
          <path d="M530.4,179.13a2.17,2.17,0,0,1-3.85-2,2.17,2.17,0,1,1,3.85,2Z" fill="#fff"/>
          <path d="M283.77,230.39A2.17,2.17,0,1,1,281,229,2.17,2.17,0,0,1,283.77,230.39Z" fill="#fff"/>
          <path d="M189,369.43a5.16,5.16,0,1,1-2.24-6.94A5.15,5.15,0,0,1,189,369.43Z" fill="#fff"/>
          <path d="M350.38,436.49a5.15,5.15,0,1,1-2.24-6.94A5.16,5.16,0,0,1,350.38,436.49Z" fill="#fff"/>
          <path d="M28.61,344.45a2.17,2.17,0,1,1-.95-2.93A2.17,2.17,0,0,1,28.61,344.45Z" fill="#fff"/>
          <path d="M291.67,377.24a2.17,2.17,0,1,1,1.43-2.73A2.18,2.18,0,0,1,291.67,377.24Z" fill="#fff"/>
          <path d="M401.51,482.88a2.17,2.17,0,1,1,1.42-2.73A2.17,2.17,0,0,1,401.51,482.88Z" fill="#fff"/>
          <path d="M254.44,514a2.17,2.17,0,1,1,1.43-2.72A2.17,2.17,0,0,1,254.44,514Z" fill="#fff"/>
          <path d="M381.8,360.36a2.17,2.17,0,1,1,1.42-2.72A2.19,2.19,0,0,1,381.8,360.36Z" fill="#fff"/>
          <path d="M322.68,552.84a2.17,2.17,0,1,1,1.43-2.73A2.18,2.18,0,0,1,322.68,552.84Z" fill="#fff"/>
          <path d="M108.65,352.22a2.17,2.17,0,1,1-2.72-1.43A2.17,2.17,0,0,1,108.65,352.22Z" fill="#fff"/>
          <path d="M177.37,327.46a2.17,2.17,0,1,1-2.72-1.43A2.17,2.17,0,0,1,177.37,327.46Z" fill="#fff"/>
          <path d="M196.54,260.66a4.73,4.73,0,1,1,6.37-2.06A4.73,4.73,0,0,1,196.54,260.66Z" fill="#fff"/>
          <path d="M260.58,184.88a5.15,5.15,0,1,1,6.93-2.24A5.15,5.15,0,0,1,260.58,184.88Z" fill="#fff"/>
          <path d="M216,374.5a2.17,2.17,0,1,1,2.93-.94A2.16,2.16,0,0,1,216,374.5Z" fill="#fff"/>
          <path d="M339.81,389.85a2.17,2.17,0,1,1,2.92-.94A2.17,2.17,0,0,1,339.81,389.85Z" fill="#fff"/>
          <path d="M89.24,293.71a2.17,2.17,0,1,1,2.93-.95A2.17,2.17,0,0,1,89.24,293.71Z" fill="#fff"/>
          <path d="M282.62,290.64a2.17,2.17,0,0,1,2-3.87,2.17,2.17,0,1,1-2,3.87Z" fill="#fff"/>
          <path d="M170.07,415.47a2.17,2.17,0,1,1,2.93-1A2.18,2.18,0,0,1,170.07,415.47Z" fill="#fff"/>
          <path d="M337.32,510a2.17,2.17,0,1,1,2.72,1.42A2.16,2.16,0,0,1,337.32,510Z" fill="#fff"/>
          <path d="M397.48,410.46a2.17,2.17,0,1,1,2.72,1.43A2.16,2.16,0,0,1,397.48,410.46Z" fill="#fff"/>
          <path d="M120.69,379a2.17,2.17,0,1,1,2.93-.94A2.17,2.17,0,0,1,120.69,379Z" fill="#fff"/>
          <path d="M230.44,516.2a2.17,2.17,0,1,1,2.72,1.43A2.17,2.17,0,0,1,230.44,516.2Z" fill="#fff"/>
          <path d="M230.4,241.44a2.17,2.17,0,1,1,1.42-2.72A2.16,2.16,0,0,1,230.4,241.44Z" fill="#fff"/>
          <path d="M226.3,302.85a2.17,2.17,0,1,1,1.43-2.72A2.17,2.17,0,0,1,226.3,302.85Z" fill="#fff"/>
          <path d="M316.42,286a2.17,2.17,0,1,1,1.43-2.72A2.17,2.17,0,0,1,316.42,286Z" fill="#fff"/>
          <path d="M257.31,478.45a2.17,2.17,0,1,1,1.43-2.72A2.17,2.17,0,0,1,257.31,478.45Z" fill="#fff"/>
          <path d="M196.54,260.66a4.73,4.73,0,1,1,6.37-2.06A4.73,4.73,0,0,1,196.54,260.66Z" fill="#fff"/>
          <path d="M216,374.5a2.17,2.17,0,1,1,2.93-.94A2.16,2.16,0,0,1,216,374.5Z" fill="#fff"/>
          <path d="M339.81,389.85a2.17,2.17,0,1,1,2.92-.94A2.17,2.17,0,0,1,339.81,389.85Z" fill="#fff"/>
          <path d="M89.24,293.71a2.17,2.17,0,1,1,2.93-.95A2.17,2.17,0,0,1,89.24,293.71Z" fill="#fff"/>
          <path d="M282.62,290.64a2.17,2.17,0,0,1,2-3.87,2.17,2.17,0,1,1-2,3.87Z" fill="#fff"/>
          <path d="M337.32,510a2.17,2.17,0,1,1,2.72,1.42A2.16,2.16,0,0,1,337.32,510Z" fill="#fff"/>
          <path d="M120.69,379a2.17,2.17,0,1,1,2.93-.94A2.17,2.17,0,0,1,120.69,379Z" fill="#fff"/>
          <path d="M230.44,516.2a2.17,2.17,0,1,1,2.72,1.43A2.17,2.17,0,0,1,230.44,516.2Z" fill="#fff"/>
          <path d="M230.4,241.44a2.17,2.17,0,1,1,1.42-2.72A2.16,2.16,0,0,1,230.4,241.44Z" fill="#fff"/>
          <path d="M226.3,302.85a2.17,2.17,0,1,1,1.43-2.72A2.17,2.17,0,0,1,226.3,302.85Z" fill="#fff"/>
          <path d="M154.8,292.7a2.17,2.17,0,1,1,1.42-2.72A2.17,2.17,0,0,1,154.8,292.7Z" fill="#fff"/>
          <path d="M316.42,286a2.17,2.17,0,1,1,1.43-2.72A2.17,2.17,0,0,1,316.42,286Z" fill="#fff"/>
          <path d="M294.68,409.17a2.17,2.17,0,1,1,1.43-2.73A2.17,2.17,0,0,1,294.68,409.17Z" fill="#fff"/>
          <path d="M257.31,478.45a2.17,2.17,0,1,1,1.43-2.72A2.17,2.17,0,0,1,257.31,478.45Z" fill="#fff"/>
          <path d="M251.91,343.69a5.83,5.83,0,1,1,2.53,7.85A5.83,5.83,0,0,1,251.91,343.69Z" fill="#fff"/>
          <path d="M305.27,481.94a2.17,2.17,0,1,1,1,2.92A2.17,2.17,0,0,1,305.27,481.94Z" fill="#fff"/>
          <path d="M331.61,333.61a2.17,2.17,0,1,1,2.92-.94A2.17,2.17,0,0,1,331.61,333.61Z" fill="#fff"/>
          <path d="M163.63,228.34a2.17,2.17,0,1,1,2.92-1A2.17,2.17,0,0,1,163.63,228.34Z" fill="#fff"/>
          <path d="M228.49,344.47a2.17,2.17,0,1,1,2.92-.94A2.17,2.17,0,0,1,228.49,344.47Z" fill="#fff"/>
          <path d="M411.71,444.58a2.17,2.17,0,1,1,2.72,1.42A2.17,2.17,0,0,1,411.71,444.58Z" fill="#fff"/>
          <path d="M247.15,430.22a2.17,2.17,0,1,1,2.92-1A2.17,2.17,0,0,1,247.15,430.22Z" fill="#fff"/>
          <path d="M304.82,450.83a2.17,2.17,0,1,1,2.73,1.43A2.19,2.19,0,0,1,304.82,450.83Z" fill="#fff"/>
          <path d="M163.26,543.34a2.17,2.17,0,1,1-2.93.91A2.17,2.17,0,0,1,163.26,543.34Z" fill="#fff"/>
          <path d="M142.48,467.61a2.17,2.17,0,1,1-2.93.91A2.18,2.18,0,0,1,142.48,467.61Z" fill="#fff"/>
          <path d="M101.81,487.59a2.17,2.17,0,1,1-.92-2.94A2.18,2.18,0,0,1,101.81,487.59Z" fill="#fff"/>
          <path d="M190,455.47a2.17,2.17,0,1,1-.91-2.93A2.17,2.17,0,0,1,190,455.47Z" fill="#fff"/>
          <path d="M181.81,558.74a2.17,2.17,0,1,1-.92-2.93A2.18,2.18,0,0,1,181.81,558.74Z" fill="#fff"/>
          <path d="M108.31,453.54a2.17,2.17,0,1,1-2.94.92A2.18,2.18,0,0,1,108.31,453.54Z" fill="#fff"/>
          <path d="M136.11,566.43a2.17,2.17,0,1,1-2.94.92A2.17,2.17,0,0,1,136.11,566.43Z" fill="#fff"/>
          <path d="M101.81,487.59a2.17,2.17,0,1,1-.92-2.94A2.18,2.18,0,0,1,101.81,487.59Z" fill="#fff"/>
          <path d="M181.81,558.74a2.17,2.17,0,1,1-.92-2.94A2.18,2.18,0,0,1,181.81,558.74Z" fill="#fff"/>
          <path d="M60.69,589a2.17,2.17,0,1,1-2.93.91A2.16,2.16,0,0,1,60.69,589Z" fill="#fff"/>
          <path d="M108.31,453.54a2.17,2.17,0,1,1-2.94.92A2.18,2.18,0,0,1,108.31,453.54Z" fill="#fff"/>
          <path d="M136.11,566.43a2.17,2.17,0,1,1-2.94.92A2.17,2.17,0,0,1,136.11,566.43Z" fill="#fff"/>
          <path d="M104.66,530.05a2.17,2.17,0,1,1,1.4-2.73A2.17,2.17,0,0,1,104.66,530.05Z" fill="#fff"/>
          <path d="M109.19,607.72a2.17,2.17,0,1,1-2.74-1.4A2.18,2.18,0,0,1,109.19,607.72Z" fill="#fff"/>
          <path d="M83,552.36a2.17,2.17,0,1,1-.91-2.93A2.17,2.17,0,0,1,83,552.36Z" fill="#fff"/>
          <path d="M473.37,593.27a2.17,2.17,0,1,1-2.94.92A2.17,2.17,0,0,1,473.37,593.27Z" fill="#fff"/>
          <path d="M452.59,517.54a2.17,2.17,0,1,1-2.94.92A2.17,2.17,0,0,1,452.59,517.54Z" fill="#fff"/>
          <path d="M411.91,537.52a2.17,2.17,0,1,1-.91-2.93A2.17,2.17,0,0,1,411.91,537.52Z" fill="#fff"/>
          <path d="M500.06,505.4a2.17,2.17,0,1,1-.92-2.93A2.17,2.17,0,0,1,500.06,505.4Z" fill="#fff"/>
          <path d="M491.91,608.67a2.17,2.17,0,1,1-.91-2.93A2.18,2.18,0,0,1,491.91,608.67Z" fill="#fff"/>
          <path d="M418.41,503.48a2.17,2.17,0,1,1-2.93.91A2.18,2.18,0,0,1,418.41,503.48Z" fill="#fff"/>
          <path d="M446.21,616.36a2.17,2.17,0,1,1-2.93.92A2.17,2.17,0,0,1,446.21,616.36Z" fill="#fff"/>
          <path d="M411.91,537.52a2.17,2.17,0,1,1-.91-2.93A2.17,2.17,0,0,1,411.91,537.52Z" fill="#fff"/>
          <path d="M491.91,608.67a2.17,2.17,0,1,1-.91-2.93A2.17,2.17,0,0,1,491.91,608.67Z" fill="#fff"/>
          <path d="M370.8,638.93a2.17,2.17,0,1,1-2.93.92A2.18,2.18,0,0,1,370.8,638.93Z" fill="#fff"/>
          <path d="M418.41,503.48a2.17,2.17,0,1,1-2.93.91A2.18,2.18,0,0,1,418.41,503.48Z" fill="#fff"/>
          <path d="M446.21,616.36a2.17,2.17,0,1,1-2.93.92A2.17,2.17,0,0,1,446.21,616.36Z" fill="#fff"/>
          <path d="M414.77,580a2.17,2.17,0,1,1,1.4-2.73A2.17,2.17,0,0,1,414.77,580Z" fill="#fff"/>
          <path d="M419.3,657.65a2.18,2.18,0,1,1-2.74-1.4A2.18,2.18,0,0,1,419.3,657.65Z" fill="#fff"/>
          <path d="M393.09,602.3a2.17,2.17,0,1,1-.92-2.94A2.17,2.17,0,0,1,393.09,602.3Z" fill="#fff"/>
        </g>
        <g opacity="0.48" style="mix-blend-mode: screen">
          <g>
            <rect x="262.08" y="227.69" width="226.22" height="18.66" transform="translate(750.38 474.03) rotate(180)" fill="#e3dee0"/>
            <path d="M249.59,469.79h239.6a0,0,0,0,1,0,0v16.62a12.83,12.83,0,0,1-12.83,12.83H249.59a0,0,0,0,1,0,0V469.79A0,0,0,0,1,249.59,469.79Z" transform="translate(738.78 969.03) rotate(180)" fill="#e3dee0"/>
            <rect x="262.08" y="269.99" width="227.11" height="199.89" transform="translate(751.27 739.87) rotate(180)" fill="#fff" opacity="0.53"/>
            <rect x="262.08" y="246.34" width="227.11" height="24.9" transform="translate(751.27 517.59) rotate(180)" fill="#fff" opacity="0.53"/>
            <rect x="349.75" y="271.25" width="50.29" height="198.64" transform="translate(749.8 741.13) rotate(180)" fill="#e6e6e6" style="mix-blend-mode: multiply"/>
            <g>
              <g>
                <rect x="356.14" y="380.08" width="37.52" height="83.44" transform="translate(749.8 843.61) rotate(180)" fill="#e3dee0"/>
                <path d="M393.66,378H356.14a2.38,2.38,0,0,0-2.14,2.09v83.43c0,1,1.15,1.48,2.14,1.48h37.52c1,0,1.34-.48,1.34-1.48V380.09C395,379.09,394.65,378,393.66,378ZM358,409h15v24H358Zm18,0h15v24H376Zm15-2H376V381h15Zm-18-26v26H358V381Zm-15,55h15v26H358Zm18,26V436h15v26Z" fill="#1b2644" opacity="0.2"/>
              </g>
              <g>
                <rect x="356.14" y="285.9" width="37.52" height="83.44" transform="translate(749.8 655.24) rotate(180)" fill="#e3dee0"/>
                <path d="M393.66,283H356.14c-1,0-2.14,1.9-2.14,2.9v83.44c0,1,1.15,1.66,2.14,1.66h37.52c1,0,1.34-.67,1.34-1.66V285.9C395,284.9,394.65,283,393.66,283ZM358,315h15v23H358Zm18,0h15v23H376Zm15-3H376V287h15Zm-18-25v25H358V287Zm-15,55h15v25H358Zm18,25V342h15v25Z" fill="#1b2644" opacity="0.2"/>
              </g>
            </g>
            <polygon points="262.08 271.25 483.17 271.25 489.19 271.25 489.19 278.5 489.19 469.88 483.17 469.88 483.17 278.5 262.08 278.5 262.08 271.25" fill="#f2f2f2" style="mix-blend-mode: multiply"/>
            <g>
              <g>
                <polygon points="311.95 472.71 349.75 472.71 349.75 371.98 349.75 271.25 311.95 271.25 311.95 472.71" fill="#e1dbdb" style="mix-blend-mode: multiply"/>
                <polygon points="333.67 271.25 349.75 271.25 349.75 371.98 349.75 472.71 333.67 472.71 333.67 271.25" fill="#f2f2f2" style="mix-blend-mode: multiply"/>
                <path d="M310.09,279.44h41.52a4.07,4.07,0,0,0,4.07-4.07h0a4.07,4.07,0,0,0-4.07-4.07H310.09a4.07,4.07,0,0,0-4.07,4.07h0A4.07,4.07,0,0,0,310.09,279.44Z" fill="#cfcacc"/>
              </g>
              <rect x="307.37" y="279.44" width="4.59" height="190.44" transform="translate(619.32 749.32) rotate(180)" fill="#f2f2f2" style="mix-blend-mode: multiply"/>
              <path d="M303.13,469.88h55.44a0,0,0,0,1,0,0v23.79a5.58,5.58,0,0,1-5.58,5.58H308.71a5.58,5.58,0,0,1-5.58-5.58V469.88A0,0,0,0,1,303.13,469.88Z" transform="translate(661.7 969.13) rotate(180)" fill="#cfcacc"/>
            </g>
            <g>
              <g>
                <polygon points="437.81 472.71 400.01 472.71 400.01 371.98 400.01 271.25 437.81 271.25 437.81 472.71" fill="#e1dbdb" style="mix-blend-mode: multiply"/>
                <polygon points="416.09 271.25 400.01 271.25 400.01 371.98 400.01 472.71 416.09 472.71 416.09 271.25" fill="#f2f2f2" style="mix-blend-mode: multiply"/>
                <path d="M439.67,279.44H398.15a4.07,4.07,0,0,1-4.07-4.07h0a4.07,4.07,0,0,1,4.07-4.07h41.52a4.07,4.07,0,0,1,4.07,4.07h0A4.07,4.07,0,0,1,439.67,279.44Z" fill="#cfcacc"/>
              </g>
              <rect x="437.81" y="279.44" width="4.59" height="190.44" fill="#f2f2f2" style="mix-blend-mode: multiply"/>
              <path d="M398,469.88h44.29a5.58,5.58,0,0,1,5.58,5.58v23.79a0,0,0,0,1,0,0H392.39a0,0,0,0,1,0,0V475.46A5.58,5.58,0,0,1,398,469.88Z" fill="#cfcacc"/>
            </g>
            <path d="M269.78,270H481.05a3.91,3.91,0,0,0,3.9-3.9h0a3.91,3.91,0,0,0-3.9-3.91H269.78a3.9,3.9,0,0,0-3.9,3.91h0A3.9,3.9,0,0,0,269.78,270Z" fill="#e8e8e8" style="mix-blend-mode: multiply"/>
            <path d="M262.08,230.36H488.3a2.68,2.68,0,1,0,0-5.35H262.08a2.68,2.68,0,0,0,0,5.35Z" fill="#cfcacc"/>
            <path d="M272.71,242.83h205a4.69,4.69,0,0,0,4.68-4.69h0a4.69,4.69,0,0,0-4.68-4.68h-205a4.69,4.69,0,0,0-4.68,4.68h0A4.69,4.69,0,0,0,272.71,242.83Z" fill="#cfcacc"/>
            <path d="M271.47,259.84H479.36a5.45,5.45,0,0,0,5.59-5.3h0a5.45,5.45,0,0,0-5.59-5.3H271.47a5.45,5.45,0,0,0-5.59,5.3h0A5.45,5.45,0,0,0,271.47,259.84Z" fill="#f2f2f2" style="mix-blend-mode: multiply"/>
          </g>
          <g>
            <g>
              <path d="M482,469.8h49.08a0,0,0,0,1,0,0v21.81a7.64,7.64,0,0,1-7.64,7.64H482a0,0,0,0,1,0,0V469.8A0,0,0,0,1,482,469.8Z" transform="translate(1013.05 969.05) rotate(180)" fill="#cfcacc"/>
              <g>
                <polygon points="489.12 469.8 531.06 469.8 531.06 355.69 531.06 241.57 489.12 241.57 489.12 469.8" fill="#fff" opacity="0.53"/>
                <polygon points="513.22 241.57 531.06 241.57 531.06 355.69 531.06 469.8 513.22 469.8 513.22 241.57" fill="#f2f2f2" style="mix-blend-mode: multiply"/>
              </g>
            </g>
            <rect x="531.18" y="265.22" width="3.78" height="198.55" fill="#f2f2f2" style="mix-blend-mode: multiply"/>
            <rect x="530.78" y="269.91" width="184.28" height="199.89" fill="#fff" opacity="0.53"/>
            <rect x="542.83" y="269.91" width="30.85" height="98.16" transform="translate(1116.51 637.98) rotate(180)" fill="#cfcacc"/>
            <rect x="670.86" y="269.91" width="32.15" height="98.16" transform="translate(1373.88 637.98) rotate(180)" fill="#e8ccad"/>
            <rect x="530.78" y="368.07" width="41.94" height="101.73" fill="#fff" opacity="0.53"/>
            <rect x="673.12" y="368.07" width="41.94" height="101.73" fill="#cfb599"/>
            <g>
              <polygon points="713.78 196.59 622.48 154.32 531.17 196.59 478.86 196.59 478.86 227.6 766.09 227.6 766.09 196.59 713.78 196.59" fill="#e3dee0"/>
              <polygon points="622.48 164.97 531.17 207.25 478.86 207.25 478.86 227.6 766.09 227.6 766.09 207.25 713.78 207.25 622.48 164.97" fill="#ededed" style="mix-blend-mode: multiply"/>
            </g>
            <rect x="594.59" y="408.34" width="56.67" height="60.12" fill="#fff"/>
            <rect x="586.22" y="398.69" width="73.4" height="9.65" fill="#cfcacc"/>
            <rect x="530.78" y="246.26" width="184.28" height="23.65" fill="#f2f2f2" style="mix-blend-mode: multiply"/>
            <g>
              <polygon points="621.64 168.62 487.95 223.95 757 223.95 621.64 168.62" fill="#cfcacc"/>
              <polygon points="538.04 214.8 621.03 180.67 711.04 214.8 538.04 214.8" fill="#cfcacc" style="mix-blend-mode: multiply"/>
            </g>
            <rect x="530.78" y="246.26" width="184.28" height="22.85" fill="#cfcacc"/>
            <g>
              <path d="M696.15,342.19h0a4.35,4.35,0,0,0,4.35-4.35V276.93a4.35,4.35,0,0,0-4.35-4.35h0a4.35,4.35,0,0,0-4.35,4.35v60.91A4.35,4.35,0,0,0,696.15,342.19Z" fill="#ebebeb" style="mix-blend-mode: multiply"/>
              <path d="M696.15,362.83h0a4.35,4.35,0,0,0,4.35-4.35v-9.29a4.35,4.35,0,0,0-4.35-4.35h0a4.35,4.35,0,0,0-4.35,4.35v9.29A4.35,4.35,0,0,0,696.15,362.83Z" fill="#ebebeb" style="mix-blend-mode: multiply"/>
            </g>
            <g>
              <rect x="530.78" y="469.8" width="184.28" height="9.82" fill="#e3dee0"/>
              <rect x="530.78" y="471.04" width="184.28" height="2.95" fill="#ebebeb" style="mix-blend-mode: multiply"/>
              <path d="M715.06,471.14H530.78a1.34,1.34,0,0,1,0-2.68H715.06a1.34,1.34,0,1,1,0,2.68Z" fill="#ebebeb"/>
            </g>
            <g>
              <rect x="519.41" y="479.61" width="207.03" height="9.82" fill="#e3dee0"/>
              <rect x="519.41" y="481.08" width="207.03" height="2.96" fill="#ebebeb" style="mix-blend-mode: multiply"/>
              <path d="M726.44,481h-207a1.34,1.34,0,1,1,0-2.67h207a1.34,1.34,0,1,1,0,2.67Z" fill="#ebebeb"/>
            </g>
            <g>
              <rect x="509.81" y="489.43" width="226.22" height="9.82" fill="#e3dee0"/>
              <rect x="509.81" y="490.72" width="226.22" height="3.09" fill="#ebebeb" style="mix-blend-mode: multiply"/>
              <path d="M736,490.77H509.81a1.34,1.34,0,0,1,0-2.68H736a1.34,1.34,0,1,1,0,2.68Z" fill="#ebebeb"/>
            </g>
            <rect x="673.12" y="366.39" width="41.94" height="4.8" fill="#ffe0be"/>
            <rect x="531.06" y="366.39" width="41.66" height="4.8" fill="#cfcacc"/>
            <rect x="531.06" y="267.79" width="183.94" height="4.8" fill="#cfcacc"/>
            <g>
              <rect x="679.56" y="444.17" width="29.06" height="18.85" rx="1.51" ry="1.51" fill="#ededed" style="mix-blend-mode: multiply"/>
              <rect x="687.34" y="441.74" width="13.5" height="23.7" rx="0.68" ry="0.68" transform="translate(1147.69 -240.49) rotate(90)" fill="#ededed" style="mix-blend-mode: multiply"/>
              <g>
                <rect x="680.15" y="376.18" width="27.89" height="62.02" fill="#98dddf"/>
                <path d="M708,439.54H680.15a1.34,1.34,0,0,1-1.34-1.34v-62a1.34,1.34,0,0,1,1.34-1.34H708a1.34,1.34,0,0,1,1.34,1.34v62A1.34,1.34,0,0,1,708,439.54Zm-26.55-2.68h25.21V377.52H681.48Z" fill="#f0e2d3"/>
                <path d="M694.09,439.54a1.34,1.34,0,0,1-1.34-1.34v-62a1.34,1.34,0,1,1,2.68,0v62A1.34,1.34,0,0,1,694.09,439.54Z" fill="#f0e2d3"/>
                <g>
                  <path d="M708,398.69H680.15a1.34,1.34,0,0,1,0-2.68H708a1.34,1.34,0,0,1,0,2.68Z" fill="#f0e2d3"/>
                  <path d="M708,418.37H680.15a1.34,1.34,0,1,1,0-2.67H708a1.34,1.34,0,1,1,0,2.67Z" fill="#f0e2d3"/>
                </g>
                <path d="M711.44,441.46h-34.7a1.34,1.34,0,0,1,0-2.67h34.7a1.34,1.34,0,0,1,0,2.67Z" fill="#ffe0be"/>
              </g>
            </g>
            <g>
              <rect x="537.23" y="444.17" width="29.06" height="18.85" rx="1.51" ry="1.51" fill="#ededed" style="mix-blend-mode: multiply"/>
              <rect x="545.01" y="441.74" width="13.5" height="23.7" rx="0.68" ry="0.68" transform="translate(1005.35 -98.16) rotate(90)" fill="#ededed" style="mix-blend-mode: multiply"/>
              <g>
                <rect x="537.81" y="376.18" width="27.89" height="62.02" fill="#fff"/>
                <path d="M565.7,374H537.81c-.74,0-1.81,1.44-1.81,2.18v62c0,.74,1.07-.2,1.81-.2H565.7c.74,0,1.3.94,1.3.2v-62C567,375.44,566.44,374,565.7,374ZM539,398h11v17H539Zm14,0h11v17H553Zm11-3H553V377h11Zm-14-18v18H539V377Zm-11,41h11v18H539Zm14,18V418h11v18Z" fill="#1b2644" opacity="0.2"/>
                <g style="mix-blend-mode: multiply">
                  <path d="M569.1,441.46H534.41a1.34,1.34,0,1,1,0-2.67H569.1a1.34,1.34,0,1,1,0,2.67Z" fill="#ededed"/>
                </g>
              </g>
            </g>
            <rect x="586.22" y="398.69" width="8.37" height="69.77" fill="#cfcacc"/>
            <rect x="651.25" y="398.69" width="8.37" height="69.77" fill="#b59e86"/>
            <rect x="578.53" y="384.8" width="7.7" height="83.66" fill="#ebebeb" style="mix-blend-mode: multiply"/>
            <rect x="659.62" y="384.8" width="7.7" height="83.66" fill="#ebebeb" style="mix-blend-mode: multiply"/>
            <polygon points="648.86 407 625.57 407 620.77 407 597.49 407 592 407 592 411.79 592 468 597 468 597 412 620 412 620 468 626 468 626 412 648 412 648 468 654 468 654 411.79 654 407 648.86 407" fill="#cfcacc"/>
            <rect x="620.02" y="313.3" width="5.8" height="100.39" transform="translate(259.43 986.42) rotate(-90)" fill="#f0e2d3"/>
            <g clip-path="url(#a216503e-7b48-4fa8-8bc4-bef0de094138)">
              <g>
                <g>
                  <rect x="572.43" y="271.1" width="24.79" height="55.14" fill="#fff"/>
                  <path d="M597.22,269H572.43c-.66,0-.43,1.44-.43,2.1v55.13c0,.66-.23-.23.43-.23h24.79c.66,0,1.78.89,1.78.23V271.1C599,270.44,597.88,269,597.22,269ZM574,291h10v15H574Zm12,0h10v15H586Zm10-3H586V272h10Zm-12-16v16H574V272Zm-10,35h10v17H574Zm12,17V307h10v17Z" fill="#1b2644" opacity="0.2"/>
                </g>
                <g>
                  <rect x="647.21" y="271.1" width="24.79" height="55.14" fill="#98dddf"/>
                  <path d="M672,327.42H647.21a1.19,1.19,0,0,1-1.19-1.19V271.1a1.19,1.19,0,0,1,1.19-1.19H672a1.19,1.19,0,0,1,1.19,1.19v55.13A1.19,1.19,0,0,1,672,327.42ZM648.4,325h22.41V272.29H648.4Z" fill="#f0e2d3"/>
                  <path d="M659.6,327.42a1.19,1.19,0,0,1-1.19-1.19V271.1a1.19,1.19,0,1,1,2.38,0v55.13A1.19,1.19,0,0,1,659.6,327.42Z" fill="#f0e2d3"/>
                  <g>
                    <path d="M672,291.1H647.21a1.19,1.19,0,0,1,0-2.38H672a1.19,1.19,0,1,1,0,2.38Z" fill="#f0e2d3"/>
                    <path d="M672,308.61H647.21a1.19,1.19,0,0,1,0-2.38H672a1.19,1.19,0,1,1,0,2.38Z" fill="#f0e2d3"/>
                  </g>
                  <g>
                    <rect x="650.2" y="274.12" width="6.82" height="12.79" rx="0.71" ry="0.71" fill="#3d3d3d" style="mix-blend-mode: screen"/>
                    <rect x="650.2" y="292.27" width="6.82" height="12.79" rx="0.71" ry="0.71" fill="#3d3d3d" style="mix-blend-mode: screen"/>
                    <rect x="650.2" y="310.27" width="6.82" height="12.79" rx="0.71" ry="0.71" fill="#3d3d3d" style="mix-blend-mode: screen"/>
                    <rect x="662.11" y="274.12" width="6.82" height="12.79" rx="0.71" ry="0.71" fill="#3d3d3d" style="mix-blend-mode: screen"/>
                    <rect x="662.11" y="292.27" width="6.82" height="12.79" rx="0.71" ry="0.71" fill="#3d3d3d" style="mix-blend-mode: screen"/>
                    <rect x="662.11" y="310.27" width="6.82" height="12.79" rx="0.71" ry="0.71" fill="#3d3d3d" style="mix-blend-mode: screen"/>
                  </g>
                </g>
                <g>
                  <rect x="572.43" y="326.27" width="24.79" height="55.14" fill="#fff"/>
                  <path d="M597.22,324H572.43c-.66,0-.43,1.61-.43,2.27v55.14c0,.65-.23.59.43.59h24.79c.66,0,1.78.06,1.78-.59V326.27C599,325.61,597.88,324,597.22,324ZM574,346h10v15H574Zm12,0h10v15H586Zm10-3H586V326h10Zm-12-17v17H574V326Zm-10,38h10v15H574Zm12,15V364h10v15Z" fill="#1b2644" opacity="0.2"/>
                </g>
                <g>
                  <rect x="647.21" y="326.27" width="24.79" height="55.14" fill="#98dddf"/>
                  <path d="M672,382.59H647.21a1.18,1.18,0,0,1-1.19-1.18V326.27a1.19,1.19,0,0,1,1.19-1.19H672a1.19,1.19,0,0,1,1.19,1.19v55.14A1.18,1.18,0,0,1,672,382.59Zm-23.6-2.38h22.41V327.46H648.4Z" fill="#f0e2d3"/>
                  <path d="M659.6,382.59a1.18,1.18,0,0,1-1.19-1.18V326.27a1.19,1.19,0,1,1,2.38,0v55.14A1.18,1.18,0,0,1,659.6,382.59Z" fill="#f0e2d3"/>
                  <g>
                    <path d="M672,346.28H647.21a1.2,1.2,0,0,1,0-2.39H672a1.2,1.2,0,0,1,0,2.39Z" fill="#f0e2d3"/>
                    <path d="M672,363.78H647.21a1.19,1.19,0,0,1,0-2.38H672a1.19,1.19,0,1,1,0,2.38Z" fill="#f0e2d3"/>
                  </g>
                  <g>
                    <rect x="650.2" y="329.29" width="6.82" height="12.79" rx="0.71" ry="0.71" fill="#3d3d3d" style="mix-blend-mode: screen"/>
                    <rect x="650.2" y="347.44" width="6.82" height="12.79" rx="0.71" ry="0.71" fill="#3d3d3d" style="mix-blend-mode: screen"/>
                    <rect x="650.2" y="365.44" width="6.82" height="12.79" rx="0.71" ry="0.71" fill="#3d3d3d" style="mix-blend-mode: screen"/>
                    <rect x="662.11" y="329.29" width="6.82" height="12.79" rx="0.71" ry="0.71" fill="#3d3d3d" style="mix-blend-mode: screen"/>
                    <rect x="662.11" y="347.44" width="6.82" height="12.79" rx="0.71" ry="0.71" fill="#3d3d3d" style="mix-blend-mode: screen"/>
                    <rect x="662.11" y="365.44" width="6.82" height="12.79" rx="0.71" ry="0.71" fill="#3d3d3d" style="mix-blend-mode: screen"/>
                  </g>
                </g>
                <g>
                  <rect x="599.73" y="270.72" width="24.79" height="55.14" fill="#fff"/>
                  <path d="M624.52,269H599.73c-.66,0-.73,1.06-.73,1.72v55.14c0,.65.07.14.73.14h24.79c.65,0,1.48.51,1.48-.14V270.72C626,270.06,625.17,269,624.52,269ZM601,291h10v15H601Zm12,0h10v15H613Zm10-3H613V272h10Zm-12-16v16H601V272Zm-10,35h10v17H601Zm12,17V307h10v17Z" fill="#1b2644" opacity="0.2"/>
                </g>
                <g>
                  <rect x="599.73" y="325.89" width="24.79" height="55.14" fill="#fff"/>
                  <path d="M624.52,324H599.73c-.66,0-.73,1.23-.73,1.89V381c0,.65.07,1,.73,1h24.79c.65,0,1.48-.32,1.48-1V325.89C626,325.23,625.17,324,624.52,324ZM601,346h10v15H601Zm12,0h10v15H613Zm10-3H613V326h10Zm-12-17v17H601V326Zm-10,38h10v15H601Zm12,15V364h10v15Z" fill="#1b2644" opacity="0.2"/>
                </g>
                <g>
                  <rect x="627.02" y="271.1" width="24.79" height="55.14" fill="#fff"/>
                  <path d="M651.81,269H627c-.66,0-1,1.44-1,2.1v55.13c0,.66.36-.23,1-.23h24.79c.66,0,1.19.89,1.19.23V271.1C653,270.44,652.47,269,651.81,269ZM628,291h10v15H628Zm12,0h10v15H640Zm10-3H640V272h10Zm-12-16v16H628V272Zm-10,35h10v17H628Zm12,17V307h10v17Z" fill="#1b2644" opacity="0.2"/>
                </g>
                <g>
                  <rect x="627.02" y="326.27" width="24.79" height="55.14" fill="#fff"/>
                  <path d="M651.81,324H627c-.66,0-1,1.61-1,2.27v55.14c0,.65.36.59,1,.59h24.79c.66,0,1.19.06,1.19-.59V326.27C653,325.61,652.47,324,651.81,324ZM628,346h10v15H628Zm12,0h10v15H640Zm10-3H640V326h10Zm-12-17v17H628V326Zm-10,38h10v15H628Zm12,15V364h10v15Z" fill="#1b2644" opacity="0.2"/>
                </g>
                <g>
                  <rect x="654.31" y="270.72" width="24.79" height="55.14" fill="#fff"/>
                  <path d="M679.1,269H654.31c-.66,0-1.31,1.06-1.31,1.72v55.14c0,.65.65.14,1.31.14H679.1c.66,0,.9.51.9-.14V270.72C680,270.06,679.76,269,679.1,269ZM655,291h10v15H655Zm12,0h10v15H667Zm10-3H667V272h10Zm-12-16v16H655V272Zm-10,35h10v17H655Zm12,17V307h10v17Z" fill="#1b2644" opacity="0.2"/>
                </g>
                <g>
                  <rect x="654.31" y="325.89" width="24.79" height="55.14" fill="#fff"/>
                  <path d="M679.1,324H654.31c-.66,0-1.31,1.23-1.31,1.89V381c0,.65.65,1,1.31,1H679.1c.66,0,.9-.32.9-1V325.89C680,325.23,679.76,324,679.1,324ZM655,346h10v15H655Zm12,0h10v15H667Zm10-3H667V326h10Zm-12-17v17H655V326Zm-10,38h10v15H655Zm12,15V364h10v15Z" fill="#1b2644" opacity="0.2"/>
                </g>
              </g>
            </g>
            <g style="mix-blend-mode: screen">
              <path d="M727.78,222.28H513.22a2.68,2.68,0,0,1-1-5.15L620,171.62a2.68,2.68,0,0,1,2.08,4.93l-95.63,40.37H727.78a2.68,2.68,0,0,1,0,5.36Z" fill="#2b2b2b"/>
            </g>
            <polygon points="657.39 355.35 622.25 334.92 587.12 355.35 566.7 355.35 566.7 368.07 679.48 368.07 679.48 355.35 657.39 355.35" fill="#cfcacc"/>
            <path d="M679.48,358H657.39a2.66,2.66,0,0,1-1.35-.37L622.25,338l-33.78,19.65a2.69,2.69,0,0,1-1.35.37H566.7a2.68,2.68,0,0,1,0-5.36h19.7l34.51-20.07a2.65,2.65,0,0,1,2.69,0l34.51,20.07h21.37a2.68,2.68,0,0,1,0,5.36Z" fill="#cfcacc"/>
            <rect x="566.7" y="364.5" width="112.86" height="3.57" fill="#cfcacc"/>
            <polygon points="589.24 360.2 621.92 341.8 652.65 360.2 677.86 360.2 677.86 362.82 569.38 362.82 569.38 360.2 589.24 360.2" fill="#303030" style="mix-blend-mode: screen"/>
            <rect x="487.95" y="223.95" width="269.94" height="22.31" fill="#fff" opacity="0.53"/>
            <rect x="487.95" y="226.68" width="269.94" height="6.69" fill="#dedede" style="mix-blend-mode: multiply"/>
            <path d="M760.39,226.63H485.45a2.68,2.68,0,0,1,0-5.36H760.39a2.68,2.68,0,1,1,0,5.36Z" fill="#cfcacc"/>
            <rect x="572.73" y="368.07" width="100.39" height="9.15" fill="#fff" opacity="0.53"/>
            <rect x="572.73" y="377.22" width="100.39" height="7.58" fill="#e8e8e8" style="mix-blend-mode: multiply"/>
            <rect x="572.73" y="366.39" width="100.39" height="4.8" fill="#e3e3e3" style="mix-blend-mode: multiply"/>
            <path d="M766.09,199.07h-52.9l-90.71-42-90.72,42h-52.9a2.68,2.68,0,0,1,0-5.36h51.73l91.89-42.54,91.89,42.54h51.72a2.68,2.68,0,0,1,0,5.36Z" fill="#cfcacc"/>
          </g>
        </g>
        <rect x="495.68" y="479.15" width="51.95" height="48.02" rx="13.32" ry="13.32" fill="#919daf"/>
        <rect x="546.41" y="479.17" width="62.47" height="49.04" rx="10.79" ry="10.79" transform="translate(1.88 -2.14) rotate(0.21)" fill="#919daf"/>
        <path d="M269.58,499,236,460H262.5a15.53,15.53,0,0,0,3.75-.9,5.39,5.39,0,0,0,1.16-.61,1.25,1.25,0,0,0,.33-.31.19.19,0,0,0,0-.12,5.27,5.27,0,0,0-.93-1.17,2.25,2.25,0,0,1-.46-.69L232.62,417h19.83a6.61,6.61,0,0,0,1.8-.73c1.38-.84,1.37-1.6.53-3L225.13,379h11.74a21.42,21.42,0,0,0,4.76-1.12c1.87-.68,3.16-1.23,1.82-2.83a2.27,2.27,0,0,1-.48-.92L207.5,333.05,169.8,376.7a2.45,2.45,0,0,0,0,1.29,1.84,1.84,0,0,1,.26.4c0,.1.1.19.15.29a2,2,0,0,0,.35.28l.25,0h.67l.52,0a1.88,1.88,0,0,1,.48,0h17.89l-29.45,34.06a1.57,1.57,0,0,1-.21.24l-1.13,1.3a2.61,2.61,0,0,0,.81,1.68,3.76,3.76,0,0,0,1.2.72h21l-33.52,39c-.38,1.62-.63,3,1.47,3.65a11.6,11.6,0,0,0,1.73.37h26.89l-33.54,39Z" fill="#919daf" fill-rule="evenodd"/>
        <g>
          <path d="M275.75,476.74c-27.95-9.5-62.56,19.44-69.26,22.36H310.31S288.89,485.14,275.75,476.74Z" fill="#d9dfe8"/>
          <path d="M314.68,489.22c-12.35-4.2-27.64,8.59-30.6,9.88H330S320.49,492.93,314.68,489.22Z" fill="#d9dfe8"/>
        </g>
        <polygon points="190.07 378.75 206.33 378 166.89 405.71 190.07 378.75" fill="#d9dfe8"/>
        <path d="M179.11,364.92S189,354,198.33,354.33A102.62,102.62,0,0,1,214,355.67a25,25,0,0,0,12.73-1.34L207.5,332.05Z" fill="#d9dfe8"/>
        <rect x="319.37" y="466" width="67.13" height="62.05" rx="15.21" ry="15.21" fill="#919daf"/>
        <rect x="383.36" y="479.15" width="51.95" height="48.02" rx="12.51" ry="12.51" fill="#919daf"/>
        <rect x="434.09" y="479.17" width="62.47" height="49.04" rx="10.31" ry="10.31" transform="translate(1.87 -1.73) rotate(0.21)" fill="#919daf"/>
        <rect x="343.88" y="504.01" width="77.79" height="24.29" fill="#919daf"/>
        <path d="M337.89,504.18c-29.85-10.15-66.81,20.75-74,23.87H374.81S351.93,513.14,337.89,504.18Z" fill="#d9dfe8"/>
        <g>
          <path d="M456.59,505.92c-27.95-9.5-62.56,19.43-69.26,22.35H491.16S469.73,514.31,456.59,505.92Z" fill="#d9dfe8"/>
          <path d="M495.52,518.4c-12.35-4.2-27.64,8.58-30.6,9.87h45.87S501.33,522.11,495.52,518.4Z" fill="#d9dfe8"/>
        </g>
        <path d="M585.53,504.18c-29.85-10.15-66.82,20.75-74,23.87H622.44S599.56,513.14,585.53,504.18Z" fill="#d9dfe8"/>
        <g>
          <path d="M521.53,400.39a6,6,0,1,1-6,6,6,6,0,0,1,6-6Z" fill="#6e7a92" fill-rule="evenodd"/>
          <rect x="518.22" y="412.3" width="6.61" height="144.92" fill="#6e7a92"/>
          <polygon points="511.73 415.96 469.95 415.96 462.72 423.19 462.72 423.19 469.95 430.43 511.73 430.43 511.73 415.96" fill="#919daf" fill-rule="evenodd"/>
          <rect x="512.07" y="421.5" width="6.16" height="3.39" fill="#6e7a92"/>
          <polygon points="511.73 444.71 469.95 444.71 462.72 451.89 462.72 451.89 469.95 459.12 511.73 459.12 511.73 444.71" fill="#919daf" fill-rule="evenodd"/>
          <rect x="512.07" y="450.24" width="6.16" height="3.35" fill="#6e7a92"/>
          <polygon points="531.28 428.73 573.06 428.73 580.29 435.96 580.29 435.96 573.06 443.19 531.28 443.19 531.28 428.73" fill="#919daf" fill-rule="evenodd"/>
          <rect x="524.79" y="434.26" width="6.16" height="3.39" fill="#6e7a92"/>
          <polygon points="531.28 457.47 573.06 457.47 580.29 464.7 580.29 464.7 573.06 471.93 531.28 471.93 531.28 457.47" fill="#919daf" fill-rule="evenodd"/>
          <rect x="524.79" y="463.01" width="6.16" height="3.35" fill="#6e7a92"/>
          <path d="M517,412.66h9a1.34,1.34,0,0,0,1.33-1.34h0a1.37,1.37,0,0,0-1.33-1.38h-9a1.35,1.35,0,0,0-1.34,1.38h0a1.32,1.32,0,0,0,1.34,1.34Z" fill="#6e7a92" fill-rule="evenodd"/>
        </g>
        <g>
          <path d="M175.62,414.74h23.86c-.95,5.18-1.75,9.57-2.43,13.38q-.87,5-1.59,8.89H179.64c-.48-2.59-1-5.55-1.64-8.89-.69-3.81-1.48-8.2-2.38-13.38Z" fill="#d9dfe8" fill-rule="evenodd"/>
          <path d="M184.08,404H191a11.2,11.2,0,0,1,11.17,11.16H172.92A11.2,11.2,0,0,1,184.08,404Z" fill="#6e7a92" fill-rule="evenodd"/>
          <path d="M179.43,438.6h16.19a2,2,0,0,1,2,2h0a2,2,0,0,1-2,2H179.43a2,2,0,0,1-2-2h0a2,2,0,0,1,2-2Z" fill="#6e7a92" fill-rule="evenodd"/>
          <path d="M183.08,404H192c-1.33-4.66-2-7.14-2.49-8.73-.32-1.06-.53-1.85-.69-2.44h-2.48c-.22.59-.43,1.38-.74,2.44-.43,1.59-1.17,4.07-2.49,8.73Z" fill="#6e7a92" fill-rule="evenodd"/>
          <rect x="184.72" y="442.62" width="5.61" height="133.71" fill="#6e7a92"/>
          <path d="M172.28,464.53h30.48a1.78,1.78,0,0,1,1.8,1.8h0a1.79,1.79,0,0,1-1.8,1.8H172.28a1.78,1.78,0,0,1-1.79-1.8h0a1.78,1.78,0,0,1,1.79-1.8Z" fill="#6e7a92" fill-rule="evenodd"/>
          <rect x="183.03" y="518.71" width="8.99" height="57.62" fill="#6e7a92"/>
          <rect x="177.68" y="567.87" width="19.68" height="8.47" fill="#6e7a92"/>
        </g>
        <path d="M542.64,553c-12.35-4.2-27.64,8.58-30.6,9.87h45.87S548.45,556.71,542.64,553Z" fill="#d9dfe8"/>
        <path d="M206.08,557c-29.85-10.15-66.82,20.75-74,23.87H243S220.11,565.91,206.08,557Z" fill="#d9dfe8"/>
        <path d="M520,548.25c-18.88-6.43-42.27,13.13-46.8,15.1h70.16S528.91,553.92,520,548.25Z" fill="#d9dfe8"/>
        <path d="M160.27,486.52c-15.11-5.13-33.82,10.51-37.45,12.09H179S167.37,491.06,160.27,486.52Z" fill="#d9dfe8" opacity="0.73"/>
      </g>
    </g>
    <g id="1c6da5a3-0f13-43e5-b7a3-4f89a5ebd55c" data-name="img12">
      <g>
        <polygon points="141.01 623 345.11 -177.63 549.22 623 141.01 623" opacity="0.2" fill="url(#4974aac2-c791-410f-a2f7-2da960af2db1)"/>
        <g>
          <g>
            <path d="M346.35,216c-2.51.84-4-1.23-3.86-3.28l-1.82.06a3,3,0,0,1-2.55,1.34l-2.91.07a19.36,19.36,0,0,0-3.72.59,3.51,3.51,0,0,1-.59.65c-1.3,1.06-2.66,2.16-4.13,2.38v56a4.68,4.68,0,0,1-4.68,4.68,3.9,3.9,0,0,1-3.9-3.9v-.78a3.9,3.9,0,1,0-7.8,0,18.72,18.72,0,0,0,18.72,18.72,21.06,21.06,0,0,0,21.06-21.06V223.14a74.08,74.08,0,0,1,2-8.94C350.22,214.77,348.27,215.33,346.35,216Z" fill="#543330"/>
            <g>
              <path d="M308.7,252.25h68a0,0,0,0,1,0,0v61a8.2,8.2,0,0,1-8.2,8.2H316.9a8.2,8.2,0,0,1-8.2-8.2v-61A0,0,0,0,1,308.7,252.25Z" fill="#4c2d28"/>
              <rect x="319.06" y="264.2" width="47.26" height="57.28" fill="#3a201d"/>
            </g>
            <g>
              <use id="c4ce218c-44b5-49e8-8a76-4e3c47bb181c" data-name="New Symbol 8" width="44.07" height="176.45" transform="matrix(-0.84, 0, 0, 0.84, 381.29, 413.08)" xlink:href="#46fdf1f4-5b7d-4040-84ce-2d054cbf9299"/>
              <use id="edc73a36-bcd7-4df9-ba7b-71d908a4a15d" data-name="New Symbol 30" width="23.76" height="141.6" transform="translate(347.44 542.17) scale(0.89)" xlink:href="#71575b8b-fbed-46f6-b3d0-c1f4263381b2"/>
            </g>
            <use id="984edf59-2da1-4206-a5d8-11864d7f0438" data-name="New Symbol 8" width="44.07" height="176.45" transform="translate(306.25 413.08) scale(0.84)" xlink:href="#46fdf1f4-5b7d-4040-84ce-2d054cbf9299"/>
            <use width="23.76" height="141.6" transform="matrix(-0.89, 0, 0, 0.89, 340.1, 542.17)" xlink:href="#71575b8b-fbed-46f6-b3d0-c1f4263381b2"/>
            <g>
              <path d="M286.88,452.63a3.44,3.44,0,0,0,3,3.78,3.36,3.36,0,0,0,1.1,0,3.44,3.44,0,0,0,2.62-2.55L297.69,437l-8.86-1.7Z" fill="#fac1b1"/>
              <g>
                <use id="0027671f-5e29-4fd8-abf7-e6d584253dae" data-name="New Symbol 197" width="49.42" height="99.31" transform="matrix(-0.8, -0.17, -0.17, 0.8, 406.29, 323.75)" xlink:href="#916bf9f2-1f94-4a67-a624-f39139c30e12"/>
                <use id="f09f5cf2-0cc5-49f6-bb7e-85d58beb77d8" data-name="New Symbol 162" width="39.78" height="79.65" transform="matrix(-0.8, -0.17, -0.17, 0.8, 411.11, 393.63)" xlink:href="#e4ee9d06-93c9-4a4b-ab7c-c6b38504bf5d"/>
              </g>
            </g>
            <rect x="304.63" y="415.14" width="76.11" height="29.3" rx="14.18" ry="14.18" fill="#c0eec2"/>
            <path d="M306.06,421.46h73.25l.07-97.43a7.11,7.11,0,0,0-3.7-7.25l-21.76-11.56a24,24,0,0,0-22.47,0L309.7,316.78A7.12,7.12,0,0,0,306,324Z" fill="#cec6ae"/>
            <path d="M374,392.13l-31.33.94-31.34-.94-3.29,7A63.33,63.33,0,0,0,302.22,429l4.18,98H379l4.18-98a63.21,63.21,0,0,0-5.84-29.94Z" fill="#cec6ae"/>
            <rect x="304.97" y="521.71" width="75.98" height="8.52" rx="4.2" ry="4.2" fill="#fff"/>
            <path d="M324.41,325.76a9.37,9.37,0,0,1,4.49,7.93c0,2.78.16,5.55.35,8.32,3.8,15,6.09,30.45,8.59,45.9.42,2.63.89,5.25,1.37,7.87.58.85,1.16,1.68,1.72,2.49a135.23,135.23,0,0,0,8.54-14.2c1.09-2,2.29-4,3.52-6.08.09-.59.19-1.18.29-1.77,1.34-7.88,5.1-15.05,5.89-23.07s1.33-15.94,2.74-23.83c0-.2.09-.39.15-.59.29-5.47.83-12.28,3.21-17.48l-11.35-6a24,24,0,0,0-22.47,0l-12.64,6.72C320.93,316.49,322.78,321.1,324.41,325.76Z" fill="#fecb05"/>
            <path d="M371.19,235c0-.09,0-.17,0-.26l-.18-.07c-2.4-1.12-3.66-3.93-5.77-5.57-2.7-2.09-4.55-4.6-6.66-7.24a28.59,28.59,0,0,0-8.62-7.77,48.42,48.42,0,0,1-4.19-2.52l-.43,3.25c-17.09,0-25.05,12.95-31.35,17.87s-5.81,24.62-5.81,24.62a31.15,31.15,0,0,0,31.07,31.06h6.9a31.15,31.15,0,0,0,31.06-31.06C375.35,249.49,374.53,239.2,371.19,235Z" fill="#4c2d28"/>
            <g id="35aeb01f-b96b-4e1d-bef2-2bd0fb6fc078" data-name="&lt;Group&gt;">
              <rect x="333.93" y="284.77" width="17.52" height="35.44" rx="6.97" ry="6.97" fill="#fac1b1"/>
              <path d="M351.45,292.54V308.9c-4.61-2.94-12.26-7.77-17.52-10.85v-5.51a7,7,0,0,1,7-7h3.58A7,7,0,0,1,351.45,292.54Z" fill="#ddaa9e"/>
            </g>
            <g>
              <rect x="362.4" y="259.32" width="8" height="15.15" rx="4" ry="4" fill="#ddaa9e"/>
              <rect x="314.8" y="259.32" width="8" height="15.15" rx="4" ry="4" fill="#ddaa9e"/>
              <path d="M319.39,250.92v22.52a20.59,20.59,0,0,0,6,14.58l10.69,10.69a10.13,10.13,0,0,0,14.33,0l9.5-9.49a20.68,20.68,0,0,0,6-14.59V254.1L328.79,235Z" fill="#fac1b1"/>
            </g>
            <path d="M333.89,283.25a.77.77,0,0,0-.59,1.14,10.4,10.4,0,0,0,18.78,0,.77.77,0,0,0-.59-1.14Z" fill="#fff"/>
            <use id="34b188a7-3c82-4908-8ea2-2820b5b6e1d1" data-name="New Symbol 23" width="3.26" height="4.72" transform="translate(328.41 258.1) scale(1.76 1.16)" xlink:href="#f4391c83-e63c-44f6-bb2f-160cc3d6aa92"/>
            <use id="96c9b053-0c80-4b30-85bd-8d980dda471e" data-name="New Symbol 23" width="3.26" height="4.72" transform="matrix(-1.76, 0, 0, 1.16, 356.96, 258.1)" xlink:href="#f4391c83-e63c-44f6-bb2f-160cc3d6aa92"/>
            <g>
              <circle cx="327.75" cy="275.08" r="3.19" fill="#fc8883" opacity="0.36"/>
              <g id="114c3abb-ec89-4b9d-a11c-6ec6092f3f7a" data-name="&lt;Group&gt;">
                <circle cx="357.62" cy="275.08" r="3.19" fill="#fc8883" opacity="0.36"/>
              </g>
            </g>
            <g>
              <path d="M335.09,272.18h-10.2c-3.36,0-6.09-3.57-6.09-7.95v-4.4c0-4.39,2.73-7.95,6.09-7.95h10.2c3.36,0,6.09,3.56,6.09,7.95v4.4C341.18,268.61,338.45,272.18,335.09,272.18Zm-10.2-17.87c-2.33,0-4.22,2.48-4.22,5.52v4.4c0,3,1.89,5.51,4.22,5.51h10.2c2.33,0,4.22-2.47,4.22-5.51v-4.4c0-3-1.89-5.52-4.22-5.52Z" fill="#67008d"/>
              <rect x="339.81" y="256.49" width="5.45" height="4.78" fill="#67008d"/>
              <g>
                <rect x="364.88" y="254.5" width="5.69" height="4.78" fill="#67008d"/>
                <rect x="314.81" y="254.5" width="5.47" height="4.78" fill="#67008d"/>
              </g>
              <g id="f7fc166d-658f-49f1-b608-7738a150e127" data-name="&lt;Group&gt;">
                <path d="M360.31,272.18h-10.2c-3.35,0-6.08-3.57-6.08-7.95v-4.4c0-4.39,2.73-7.95,6.08-7.95h10.2c3.36,0,6.09,3.56,6.09,7.95v4.4C366.4,268.61,363.67,272.18,360.31,272.18Zm-10.2-17.87c-2.33,0-4.22,2.48-4.22,5.52v4.4c0,3,1.89,5.51,4.22,5.51h10.2c2.33,0,4.22-2.47,4.22-5.51v-4.4c0-3-1.89-5.52-4.22-5.52Z" fill="#67008d"/>
              </g>
            </g>
            <polygon points="342 250.95 338.07 251.05 321.08 221.85 337.22 222.27 342 250.95" fill="#4c2d28"/>
            <g>
              <path d="M344.93,583h24.48l-6.56,88.91s-15.9,4.86-16,.25S344.93,583,344.93,583Z" fill="#181819"/>
              <path d="M374.47,668.45c-8.24-1.42-21-4.86-21-4.86L349,667h-.86L347,669.57V677h9v-.75l-.81-1.19A3.17,3.17,0,0,1,358,677h23S383.13,670.42,374.47,668.45Z" fill="#181819"/>
              <path d="M347,673v4h9v-.75l-.81-1.19A3.17,3.17,0,0,1,358,677h23a7.78,7.78,0,0,0-.1-4Z" fill="#543330"/>
            </g>
            <g>
              <path d="M342.87,583H318.39l6.55,88.91s15.9,4.86,16,.25S342.87,583,342.87,583Z" fill="#181819"/>
              <path d="M313.33,668.45c8.24-1.42,21-4.86,21-4.86l4.49,3.41h.85l.33,2.57V677h-8v-.75l.71-1.19a3.27,3.27,0,0,0-2.94,1.94h-23S304.66,670.42,313.33,668.45Z" fill="#181819"/>
              <path d="M340,673v4h-8v-.75l.71-1.19a3.27,3.27,0,0,0-2.94,1.94h-23a7.84,7.84,0,0,1,.09-4Z" fill="#543330"/>
            </g>
            <path d="M318.13,327.08l-2.93,26.2-7.5,42.79a6.81,6.81,0,0,1-5.29,5.38,6.91,6.91,0,0,1-3.48-.19,6.83,6.83,0,0,1-4.7-7.1l4-44.54,2.09-23a10.23,10.23,0,0,1,8.09-9c.76-.17,8.91-5,9.71-4.83.06,0,2.63,5,2.63,5C325.88,319.22,319.15,321.88,318.13,327.08Z" fill="#e8e1c8" stroke="#e8e1c8" stroke-miterlimit="10" stroke-width="5"/>
            <path d="M300.92,388.28a6.71,6.71,0,0,0-1.91.14,7.09,7.09,0,0,0-5.58,6.15l-2.72,24.12-.68,6.08-1.2,10.53,8.86,1.7,2.61-10.78,1.52-6.3L307.36,397A7.08,7.08,0,0,0,300.92,388.28Z" fill="#e8e1c8" stroke="#e8e1c8" stroke-miterlimit="10" stroke-width="5"/>
            <path d="M367,327.08l2.93,26.2,7.5,42.79a6.83,6.83,0,0,0,5.29,5.38,6.9,6.9,0,0,0,3.48-.19,6.82,6.82,0,0,0,4.7-7.1l-4-44.54-2.09-23a10.21,10.21,0,0,0-8.08-9c-.77-.17-8.91-5-9.71-4.83-.07,0-2.64,5-2.64,5C359.25,319.22,366,321.88,367,327.08Z" fill="#e8e1c8" stroke="#e8e1c8" stroke-miterlimit="10" stroke-width="5"/>
            <path d="M384.2,388.28a6.71,6.71,0,0,1,1.91.14,7.1,7.1,0,0,1,5.59,6.15l2.72,24.12.68,6.08,1.19,10.53-8.85,1.7-2.61-10.78-1.53-6.3L377.76,397A7.09,7.09,0,0,1,384.2,388.28Z" fill="#e8e1c8" stroke="#e8e1c8" stroke-miterlimit="10" stroke-width="5"/>
            <path d="M371.83,308.48c-.92-.72-5.26-2-6.65-2.23-2.94-.46-7-.6-8.55,0-.72.33-1.42,1.75-1.42,1.75-5.26,14-9,43.7-11.57,61-3.14-17.19-7.83-47-13.55-60.88,0,0-.75-1.4-1.48-1.72-1.61-.57-5.62-.32-8.55.21-1.38.25-5.68,1.66-6.57,2.41a2.17,2.17,0,0,0-.73,1.89,8.8,8.8,0,0,0,1,3.15,57.63,57.63,0,0,1,3.86,9.15c4.09,15.65,17,64.94,21.53,80.93.63.33,1.27.67,1,.57a10.49,10.49,0,0,0,8.15.1c-.31.11.32-.25.94-.59,4-16.11,15.34-65.72,18.94-81.46a57.66,57.66,0,0,1,3.56-9.26,8.77,8.77,0,0,0,.91-3.17A2.19,2.19,0,0,0,371.83,308.48Z" fill="#fff"/>
            <rect x="339.33" y="413.2" width="7.99" height="7.99" rx="4" ry="4" fill="#bab19b"/>
            <rect x="339.33" y="430.72" width="7.99" height="7.99" rx="4" ry="4" fill="#bab19b"/>
            <rect x="339.33" y="448.25" width="7.99" height="7.99" rx="4" ry="4" fill="#bab19b"/>
          </g>
          <g>
            <path d="M344.78,236.18c8.59,0,17.18-.13,25.77,0a16.86,16.86,0,0,0,1.06-5.87c0-12.21-29.74-24.09-29.74-24.09s-29.74,11.88-29.74,24.09a16.69,16.69,0,0,0,.57,4.3C323.41,234.87,334,236.15,344.78,236.18Z" fill="#e8b30c"/>
            <rect x="312.08" y="224.44" width="59.43" height="12.04" rx="1.77" ry="1.77" fill="#fecb05"/>
            <circle cx="342.14" cy="206.17" r="7.82" fill="#fecb05"/>
          </g>
          <g>
            <path d="M295.88,473.26c-.06-.07.14,0,.44.06a7.22,7.22,0,0,0,1,0,4.52,4.52,0,0,0,1.48-.35,1.16,1.16,0,0,0,.62-1s-1.62-12.51-1.82-15.23a2.27,2.27,0,0,0-2.7-2.29,12.63,12.63,0,0,0-3.23.58c-.52.38-1.55,2-.66,5.79s2.79,10.54,2.79,10.54A7.8,7.8,0,0,0,295.88,473.26Z" fill="#ddb022"/>
            <rect x="280.66" y="445.88" width="15.87" height="32.43" rx="5.16" ry="5.16" transform="translate(51.32 -28.33) rotate(6.17)" fill="#fecb05"/>
            <rect x="283.59" y="442.32" width="14.2" height="6.38" transform="matrix(0.99, 0.13, -0.13, 0.99, 60.77, -34.2)" fill="#ddb022"/>
          </g>
          <g>
            <path d="M388.39,472.26c.06-.07-.14,0-.45.06a7.22,7.22,0,0,1-1,0,4.52,4.52,0,0,1-1.48-.35,1.15,1.15,0,0,1-.61-1s1.62-12.51,1.82-15.23a2.27,2.27,0,0,1,2.7-2.29,12.49,12.49,0,0,1,3.22.58c.53.38,1.55,2,.67,5.79s-2.79,10.54-2.79,10.54A7.8,7.8,0,0,1,388.39,472.26Z" fill="#ddb022"/>
            <rect x="387.73" y="445.88" width="15.88" height="32.43" rx="5.16" ry="5.16" transform="translate(838.69 879) rotate(173.83)" fill="#fecb05"/>
            <rect x="386.48" y="442.32" width="14.2" height="6.38" transform="translate(842.05 835.7) rotate(172.48)" fill="#ddb022"/>
          </g>
          <rect x="384.04" y="434.21" width="17.81" height="9.31" rx="4.66" ry="4.66" transform="translate(-87.98 98.68) rotate(-12.89)" fill="#f5f5f5"/>
          <rect x="283.37" y="435.06" width="17.81" height="9.31" rx="4.66" ry="4.66" transform="translate(60.96 -34.91) rotate(7.63)" fill="#f5f5f5"/>
        </g>
      </g>
    </g>
  </g>
</svg>
