<svg xmlns="http://www.w3.org/2000/svg" xmlns:xlink="http://www.w3.org/1999/xlink" width="700" height="700" viewBox="0 0 700 700">
  <defs>
    <clipPath id="929c8a16-c2b0-40f1-8ca7-c39e6fd88fa7">
      <circle cx="344.98" cy="347.42" r="279.44" fill="none"/>
    </clipPath>
    <symbol id="bc87ed00-2d82-46d1-a71b-ecd86db55415" data-name="New Symbol 23" viewBox="0 0 3.26 4.72">
      <path d="M1.63,4.72h0A1.63,1.63,0,0,1,0,3.09V1.63A1.63,1.63,0,0,1,1.63,0h0A1.63,1.63,0,0,1,3.26,1.63V3.09A1.63,1.63,0,0,1,1.63,4.72Z" fill="#67413a"/>
    </symbol>
    <symbol id="7b3feb8e-5ada-4782-9a28-1eb61c9b3911" data-name="New Symbol 32" viewBox="0 0 3.79 1.46">
      <path d="M.25,1.2,0,.18A5.87,5.87,0,0,1,3.79.49l-.42,1A4.9,4.9,0,0,0,.25,1.2Z" fill="#b0593c"/>
    </symbol>
  </defs>
  <title>anna-3</title>
  <g style="isolation: isolate">
    <g id="d47211c2-2e4f-4fe5-bb1f-b8c21fd29d24" data-name="bck11">
      <rect y="-4.8" width="701.05" height="703.44" fill="#c7dce4"/>
      <g clip-path="url(#929c8a16-c2b0-40f1-8ca7-c39e6fd88fa7)">
        <g>
          <circle cx="344.99" cy="347.64" r="280.48" fill="#9facc1"/>
          <g>
            <g opacity="0.27">
              <g>
                <rect x="412.65" y="301.48" width="375.77" height="187.35" fill="#786552"/>
                <rect x="412.65" y="287.25" width="375.77" height="60.38" fill="#363636"/>
                <rect x="395.03" y="287.25" width="25.09" height="201.58" fill="#786552"/>
                <g>
                  <rect x="541.42" y="347.64" width="10.05" height="141.2" fill="#363636"/>
                  <rect x="649.59" y="347.64" width="10.05" height="141.2" fill="#363636"/>
                </g>
                <rect x="551.47" y="347.64" width="98.12" height="141.2" fill="#7ab1b3"/>
                <rect x="595.5" y="347.64" width="10.05" height="141.2" fill="#363636"/>
                <rect x="420.12" y="347.64" width="121.3" height="105.27" fill="#7ab1b3"/>
                <rect x="659.64" y="347.64" width="121.3" height="105.27" fill="#7ab1b3"/>
                <rect x="544.35" y="415.44" width="112.36" height="5.6" fill="#363636"/>
                <rect x="420.12" y="452.91" width="121.3" height="10.14" fill="#cfcfcf" style="mix-blend-mode: multiply"/>
                <rect x="659.64" y="452.91" width="121.3" height="10.14" fill="#cfcfcf" style="mix-blend-mode: multiply"/>
                <g>
                  <rect x="414.9" y="465.28" width="23.97" height="9.18" rx="1.18" ry="1.18" fill="#d9d9d9" style="mix-blend-mode: multiply"/>
                  <rect x="427.55" y="475.86" width="23.97" height="9.18" rx="1.18" ry="1.18" fill="#d9d9d9" style="mix-blend-mode: multiply"/>
                  <rect x="453" y="475.86" width="23.97" height="9.18" rx="1.18" ry="1.18" fill="#d9d9d9" style="mix-blend-mode: multiply"/>
                  <rect x="478.2" y="475.86" width="23.97" height="9.18" rx="1.18" ry="1.18" fill="#d9d9d9" style="mix-blend-mode: multiply"/>
                  <rect x="503.66" y="475.86" width="23.97" height="9.18" rx="1.18" ry="1.18" fill="#d9d9d9" style="mix-blend-mode: multiply"/>
                  <rect x="440.15" y="465.28" width="23.97" height="9.18" rx="1.18" ry="1.18" fill="#d9d9d9" style="mix-blend-mode: multiply"/>
                  <rect x="465.27" y="465.28" width="23.97" height="9.18" rx="1.18" ry="1.18" fill="#d9d9d9" style="mix-blend-mode: multiply"/>
                  <rect x="490.48" y="465.28" width="23.97" height="9.18" rx="1.18" ry="1.18" fill="#d9d9d9" style="mix-blend-mode: multiply"/>
                  <rect x="515.65" y="465.28" width="23.97" height="9.18" rx="1.18" ry="1.18" fill="#d9d9d9" style="mix-blend-mode: multiply"/>
                  <path d="M424.77,475.86H414.9V485h9.87a1.18,1.18,0,0,0,1.18-1.18V477A1.18,1.18,0,0,0,424.77,475.86Z" fill="#d9d9d9" style="mix-blend-mode: multiply"/>
                  <path d="M539.62,475.86H530a1.18,1.18,0,0,0-1.18,1.18v6.82A1.18,1.18,0,0,0,530,485h9.58Z" fill="#d9d9d9" style="mix-blend-mode: multiply"/>
                </g>
                <g>
                  <rect x="661.71" y="465.7" width="23.92" height="9.16" rx="1.18" ry="1.18" fill="#d9d9d9" style="mix-blend-mode: multiply"/>
                  <rect x="674.33" y="476.26" width="23.92" height="9.16" rx="1.18" ry="1.18" fill="#d9d9d9" style="mix-blend-mode: multiply"/>
                  <rect x="699.73" y="476.26" width="23.92" height="9.16" rx="1.18" ry="1.18" fill="#d9d9d9" style="mix-blend-mode: multiply"/>
                  <rect x="686.91" y="465.7" width="23.92" height="9.16" rx="1.18" ry="1.18" fill="#d9d9d9" style="mix-blend-mode: multiply"/>
                  <path d="M671.56,476.26h-9.85v9.16h9.85a1.17,1.17,0,0,0,1.18-1.17v-6.81A1.18,1.18,0,0,0,671.56,476.26Z" fill="#d9d9d9" style="mix-blend-mode: multiply"/>
                </g>
                <rect x="395.03" y="320.26" width="411" height="10.45" fill="#4d4d4d"/>
                <rect x="395.03" y="337.19" width="411" height="10.45" fill="#4d4d4d"/>
                <rect x="395.03" y="287.25" width="411" height="10.45" fill="#4d4d4d"/>
                <rect x="395.03" y="304.01" width="411" height="10.45" fill="#4d4d4d"/>
                <rect x="395.03" y="297.7" width="411" height="3.78" fill="#ccc" style="mix-blend-mode: multiply"/>
                <rect x="395.03" y="314.46" width="411" height="3.78" fill="#ccc" style="mix-blend-mode: multiply"/>
                <rect x="395.03" y="330.71" width="411" height="3.78" fill="#ccc" style="mix-blend-mode: multiply"/>
                <rect x="420.12" y="347.64" width="121.3" height="5.46" fill="#ccc" style="mix-blend-mode: multiply"/>
                <rect x="659.64" y="347.64" width="121.3" height="5.46" fill="#ccc" style="mix-blend-mode: multiply"/>
                <rect x="395.03" y="488.83" width="411" height="11.03" fill="#bfbfbf"/>
                <g>
                  <g>
                    <rect x="505.32" y="490.41" width="190.41" height="10.14" fill="#bfbfbf"/>
                    <rect x="505.32" y="491.69" width="190.41" height="3.05" fill="#bfbfbf" style="mix-blend-mode: multiply"/>
                    <path d="M695.74,491.79H505.32a1.38,1.38,0,1,1,0-2.76H695.74a1.38,1.38,0,0,1,0,2.76Z" fill="#bfbfbf"/>
                  </g>
                  <g>
                    <rect x="493.57" y="500.56" width="213.93" height="10.14" fill="#bfbfbf"/>
                    <rect x="493.57" y="502.07" width="213.93" height="3.05" fill="#bfbfbf" style="mix-blend-mode: multiply"/>
                    <path d="M707.49,501.94H493.57a1.39,1.39,0,1,1,0-2.77H707.49a1.39,1.39,0,0,1,0,2.77Z" fill="#bfbfbf"/>
                  </g>
                </g>
                <g>
                  <rect x="517.44" y="447.91" width="19.9" height="40.92" fill="#4d4d4d"/>
                  <rect x="517.44" y="448.98" width="19.9" height="2.4" fill="#ccc" style="mix-blend-mode: multiply"/>
                  <path d="M537.34,448.44h-19.9a1.6,1.6,0,0,1,0-3.2h19.9a1.6,1.6,0,1,1,0,3.2Z" fill="#4d4d4d"/>
                </g>
              </g>
              <rect x="395.03" y="261.77" width="411" height="25.48" fill="#786552"/>
              <rect x="395.03" y="269.8" width="411" height="11.88" fill="#ccc" style="mix-blend-mode: multiply"/>
              <rect x="414.9" y="347.64" width="5.21" height="115.41" fill="#cfcfcf" style="mix-blend-mode: multiply"/>
              <text transform="translate(541.42 335.43)" font-size="27.53" fill="#fff" font-family="GTWalsheimv2Manual-Black, GTWalsheimv2Manual Black">О<tspan x="18.97" y="0" letter-spacing="-0.03em">Г</tspan><tspan x="29.92" y="0">ОНЁК</tspan></text>
            </g>
            <path d="M394,260V499.93l98.06-.08s-.66,1.63,1.33,2.09c0,.13-.14,5.35-.14,8.76,46,.1,213.75,1,213.75.3V499.88l99,0V260Z" fill="#6e7a92" style="mix-blend-mode: overlay"/>
          </g>
          <g opacity="0.43">
            <path d="M560.16,287a5.2,5.2,0,1,1-3.36,6.56A5.19,5.19,0,0,1,560.16,287Z" fill="#fff"/>
            <path d="M139.54,119.45a5.2,5.2,0,1,1-3.35,6.55A5.21,5.21,0,0,1,139.54,119.45Z" fill="#fff"/>
            <path d="M490.47,156.93a5.2,5.2,0,1,1-3.35,6.56A5.2,5.2,0,0,1,490.47,156.93Z" fill="#fff"/>
            <path d="M654.39,452.2A2.19,2.19,0,1,1,653,455,2.19,2.19,0,0,1,654.39,452.2Z" fill="#fff"/>
            <path d="M490.09,241.1a2.2,2.2,0,1,1-3,.93A2.2,2.2,0,0,1,490.09,241.1Z" fill="#fff"/>
            <path d="M70.44,152.16A2.2,2.2,0,1,1,69,154.93,2.2,2.2,0,0,1,70.44,152.16Z" fill="#fff"/>
            <path d="M487.09,87.36a2.19,2.19,0,1,1-3,.92A2.19,2.19,0,0,1,487.09,87.36Z" fill="#fff"/>
            <path d="M614.22,170.1a2.19,2.19,0,1,1-3,.92A2.18,2.18,0,0,1,614.22,170.1Z" fill="#fff"/>
            <path d="M413.74,188.84a2.19,2.19,0,1,1-3,.93A2.2,2.2,0,0,1,413.74,188.84Z" fill="#fff"/>
            <path d="M593.25,93.68a2.19,2.19,0,1,1-3,.93A2.2,2.2,0,0,1,593.25,93.68Z" fill="#fff"/>
            <path d="M350,208.69a2.19,2.19,0,1,1,.92,3A2.19,2.19,0,0,1,350,208.69Z" fill="#fff"/>
            <path d="M384.69,160.7a2.2,2.2,0,1,1,.93,3A2.2,2.2,0,0,1,384.69,160.7Z" fill="#fff"/>
            <path d="M602.82,389.55a2.19,2.19,0,1,1,.93,3A2.19,2.19,0,0,1,602.82,389.55Z" fill="#fff"/>
            <path d="M536.13,358.18a2.19,2.19,0,1,1,.92,3A2.18,2.18,0,0,1,536.13,358.18Z" fill="#fff"/>
            <path d="M474.79,392.16a4.78,4.78,0,1,1-6-3.07A4.78,4.78,0,0,1,474.79,392.16Z" fill="#fff"/>
            <path d="M385.09,249.4a5.2,5.2,0,1,1-6.55-3.35A5.21,5.21,0,0,1,385.09,249.4Z" fill="#fff"/>
            <path d="M609.92,485.55a5.2,5.2,0,1,1-6.55-3.35A5.2,5.2,0,0,1,609.92,485.55Z" fill="#fff"/>
            <path d="M302.59,197.81a5.88,5.88,0,1,1-7.4-3.78A5.88,5.88,0,0,1,302.59,197.81Z" fill="#fff"/>
            <path d="M542.13,297.05a2.19,2.19,0,1,1-2.76-1.42A2.18,2.18,0,0,1,542.13,297.05Z" fill="#fff"/>
            <path d="M464.74,197.76a2.19,2.19,0,1,1-2.76-1.42A2.2,2.2,0,0,1,464.74,197.76Z" fill="#fff"/>
            <path d="M574.92,445.14a2.19,2.19,0,1,1-2.76-1.41A2.19,2.19,0,0,1,574.92,445.14Z" fill="#fff"/>
            <path d="M434.76,309.35a2.2,2.2,0,1,1-2.77-1.41A2.2,2.2,0,0,1,434.76,309.35Z" fill="#fff"/>
            <path d="M604.13,300.59a2.19,2.19,0,1,1-2.76-1.41A2.19,2.19,0,0,1,604.13,300.59Z" fill="#fff"/>
            <path d="M552.21,113.84a2.19,2.19,0,1,1-.93-3A2.19,2.19,0,0,1,552.21,113.84Z" fill="#fff"/>
            <path d="M438.3,141.9a2.19,2.19,0,1,1-.93-3A2.2,2.2,0,0,1,438.3,141.9Z" fill="#fff"/>
            <path d="M289.31,116.18a2.19,2.19,0,1,1-2.76-1.41A2.19,2.19,0,0,1,289.31,116.18Z" fill="#fff"/>
            <path d="M613.33,361.85a2.19,2.19,0,1,1-2.76-1.41A2.19,2.19,0,0,1,613.33,361.85Z" fill="#fff"/>
            <path d="M641.15,81.43a2.19,2.19,0,1,1-.92-3A2.18,2.18,0,0,1,641.15,81.43Z" fill="#fff"/>
            <path d="M632.93,185.64a2.19,2.19,0,1,1-.92-3A2.19,2.19,0,0,1,632.93,185.64Z" fill="#fff"/>
            <path d="M96.28,108.6a2.19,2.19,0,1,1-.92-3A2.19,2.19,0,0,1,96.28,108.6Z" fill="#fff"/>
            <path d="M306.44,177.46a2.19,2.19,0,1,1-1.41,2.76A2.19,2.19,0,0,1,306.44,177.46Z" fill="#fff"/>
            <path d="M436.92,381.71a2.2,2.2,0,1,1-3,.93A2.2,2.2,0,0,1,436.92,381.71Z" fill="#fff"/>
            <path d="M483.65,340.82a2.19,2.19,0,1,1-3,.93A2.19,2.19,0,0,1,483.65,340.82Z" fill="#fff"/>
            <path d="M407.3,288.56a2.19,2.19,0,1,1-3,.93A2.19,2.19,0,0,1,407.3,288.56Z" fill="#fff"/>
            <path d="M558.77,79.49a2.19,2.19,0,1,1-3,.93A2.2,2.2,0,0,1,558.77,79.49Z" fill="#fff"/>
            <path d="M586.82,193.4a2.19,2.19,0,1,1-3,.93A2.19,2.19,0,0,1,586.82,193.4Z" fill="#fff"/>
            <path d="M358.28,98.23a2.19,2.19,0,1,1-3,.93A2.19,2.19,0,0,1,358.28,98.23Z" fill="#fff"/>
            <path d="M474.79,392.16a4.78,4.78,0,1,1-6-3.07A4.78,4.78,0,0,1,474.79,392.16Z" fill="#fff"/>
            <path d="M369.48,290.38a5.2,5.2,0,1,1-6.55-3.36A5.2,5.2,0,0,1,369.48,290.38Z" fill="#fff"/>
            <path d="M238.22,115.05a5.88,5.88,0,1,1-7.41-3.79A5.88,5.88,0,0,1,238.22,115.05Z" fill="#fff"/>
            <path d="M542.13,297.05a2.19,2.19,0,1,1-2.76-1.42A2.18,2.18,0,0,1,542.13,297.05Z" fill="#fff"/>
            <path d="M464.74,197.76a2.19,2.19,0,1,1-2.76-1.42A2.2,2.2,0,0,1,464.74,197.76Z" fill="#fff"/>
            <path d="M574.93,445.14a2.2,2.2,0,1,1-2.76-1.41A2.2,2.2,0,0,1,574.93,445.14Z" fill="#fff"/>
            <path d="M434.76,309.35a2.2,2.2,0,1,1-2.77-1.41A2.2,2.2,0,0,1,434.76,309.35Z" fill="#fff"/>
            <path d="M552.21,113.84a2.19,2.19,0,1,1-3.88-2,2.19,2.19,0,1,1,3.88,2Z" fill="#fff"/>
            <path d="M289.31,116.18a2.19,2.19,0,1,1-2.76-1.41A2.19,2.19,0,0,1,289.31,116.18Z" fill="#fff"/>
            <path d="M613.33,361.85a2.19,2.19,0,1,1-2.76-1.41A2.19,2.19,0,0,1,613.33,361.85Z" fill="#fff"/>
            <path d="M632.93,185.64a2.19,2.19,0,1,1-.92-3A2.18,2.18,0,0,1,632.93,185.64Z" fill="#fff"/>
            <path d="M96.28,108.6a2.19,2.19,0,1,1-.92-3A2.2,2.2,0,0,1,96.28,108.6Z" fill="#fff"/>
            <path d="M436.92,381.71a2.2,2.2,0,1,1-3,.93A2.2,2.2,0,0,1,436.92,381.71Z" fill="#fff"/>
            <path d="M483.65,340.82a2.19,2.19,0,1,1-3,.93A2.19,2.19,0,0,1,483.65,340.82Z" fill="#fff"/>
            <path d="M527.43,399.09a2.19,2.19,0,1,1-3,.92A2.19,2.19,0,0,1,527.43,399.09Z" fill="#fff"/>
            <path d="M407.3,288.56a2.19,2.19,0,1,1-3,.93A2.19,2.19,0,0,1,407.3,288.56Z" fill="#fff"/>
            <path d="M510.72,216.17a2.19,2.19,0,1,1-3,.93A2.2,2.2,0,0,1,510.72,216.17Z" fill="#fff"/>
            <path d="M558.77,79.49a2.19,2.19,0,1,1-3,.93A2.2,2.2,0,0,1,558.77,79.49Z" fill="#fff"/>
            <path d="M586.82,193.4a2.19,2.19,0,1,1-3,.93A2.19,2.19,0,0,1,586.82,193.4Z" fill="#fff"/>
            <path d="M358.28,98.23a2.19,2.19,0,1,1-3,.93A2.19,2.19,0,0,1,358.28,98.23Z" fill="#fff"/>
            <path d="M450.48,79.73a4.77,4.77,0,1,1,3.08-6A4.76,4.76,0,0,1,450.48,79.73Z" fill="#fff"/>
            <path d="M494.52,293.41a5.88,5.88,0,1,1,3.79-7.41A5.88,5.88,0,0,1,494.52,293.41Z" fill="#fff"/>
            <path d="M147,63.37a2.19,2.19,0,1,1,1.42-2.76A2.2,2.2,0,0,1,147,63.37Z" fill="#fff"/>
            <path d="M171.13,178.9a2.19,2.19,0,1,1,1.41-2.76A2.19,2.19,0,0,1,171.13,178.9Z" fill="#fff"/>
            <path d="M76.12,67.56a2.2,2.2,0,1,1,3-.93A2.2,2.2,0,0,1,76.12,67.56Z" fill="#fff"/>
            <path d="M555.09,156.69a2.19,2.19,0,1,1,1.41-2.76A2.19,2.19,0,0,1,555.09,156.69Z" fill="#fff"/>
            <path d="M108.53,156.5a2.19,2.19,0,1,1,3-.92A2.18,2.18,0,0,1,108.53,156.5Z" fill="#fff"/>
            <path d="M430.47,243.73a2.2,2.2,0,1,1-2.76-1.41A2.19,2.19,0,0,1,430.47,243.73Z" fill="#fff"/>
            <path d="M216.85,173.56a2.19,2.19,0,1,1-2.76-1.41A2.2,2.2,0,0,1,216.85,173.56Z" fill="#fff"/>
            <path d="M475.2,438.71a2.19,2.19,0,1,1-2.76-1.41A2.19,2.19,0,0,1,475.2,438.71Z" fill="#fff"/>
            <path d="M511.79,309.57a2.19,2.19,0,1,1-2.76-1.42A2.2,2.2,0,0,1,511.79,309.57Z" fill="#fff"/>
            <path d="M452.49,107.41a2.19,2.19,0,1,1-.93-3A2.2,2.2,0,0,1,452.49,107.41Z" fill="#fff"/>
            <path d="M338.58,135.46a2.19,2.19,0,1,1-.93-3A2.2,2.2,0,0,1,338.58,135.46Z" fill="#fff"/>
            <path d="M559.66,235.07a2.19,2.19,0,1,1-4.17,1.34,2.19,2.19,0,0,1,4.17-1.34Z" fill="#fff"/>
            <path d="M669.84,482.45a2.19,2.19,0,1,1-2.76-1.41A2.19,2.19,0,0,1,669.84,482.45Z" fill="#fff"/>
            <path d="M533.21,179.21a2.19,2.19,0,1,1-.92-3A2.19,2.19,0,0,1,533.21,179.21Z" fill="#fff"/>
            <path d="M284.34,230.93a2.19,2.19,0,1,1-2.76-1.41A2.19,2.19,0,0,1,284.34,230.93Z" fill="#fff"/>
            <path d="M188.67,371.24a5.2,5.2,0,1,1-2.26-7A5.2,5.2,0,0,1,188.67,371.24Z" fill="#fff"/>
            <path d="M351.56,438.91a5.2,5.2,0,1,1-2.26-7A5.21,5.21,0,0,1,351.56,438.91Z" fill="#fff"/>
            <path d="M26.86,346a2.19,2.19,0,1,1-.95-2.95A2.19,2.19,0,0,1,26.86,346Z" fill="#fff"/>
            <path d="M292.32,379.12a2.2,2.2,0,0,1-1.31-4.19,2.2,2.2,0,0,1,1.31,4.19Z" fill="#fff"/>
            <path d="M403.15,485.71a2.19,2.19,0,1,1,1.44-2.74A2.2,2.2,0,0,1,403.15,485.71Z" fill="#fff"/>
            <path d="M254.75,517.1a2.19,2.19,0,1,1,1.44-2.75A2.19,2.19,0,0,1,254.75,517.1Z" fill="#fff"/>
            <path d="M383.26,362.08a2.19,2.19,0,1,1,1.44-2.74A2.19,2.19,0,0,1,383.26,362.08Z" fill="#fff"/>
            <path d="M323.61,556.31a2.19,2.19,0,1,1,1.44-2.75A2.2,2.2,0,0,1,323.61,556.31Z" fill="#fff"/>
            <path d="M107.63,353.87a2.19,2.19,0,1,1-2.74-1.44A2.19,2.19,0,0,1,107.63,353.87Z" fill="#fff"/>
            <path d="M177,328.89a2.19,2.19,0,1,1-2.75-1.44A2.19,2.19,0,0,1,177,328.89Z" fill="#fff"/>
            <path d="M196.32,261.48a4.77,4.77,0,1,1,6.42-2.07A4.76,4.76,0,0,1,196.32,261.48Z" fill="#fff"/>
            <path d="M260.94,185a5.2,5.2,0,1,1,7-2.26A5.2,5.2,0,0,1,260.94,185Z" fill="#fff"/>
            <path d="M216,376.36a2.19,2.19,0,1,1,2.95-.95A2.19,2.19,0,0,1,216,376.36Z" fill="#fff"/>
            <path d="M340.89,391.85a2.19,2.19,0,1,1,2.95-1A2.19,2.19,0,0,1,340.89,391.85Z" fill="#fff"/>
            <path d="M88.05,294.83a2.19,2.19,0,1,1,3-.95A2.19,2.19,0,0,1,88.05,294.83Z" fill="#fff"/>
            <path d="M283.18,291.73a2.19,2.19,0,1,1,2.95-1A2.2,2.2,0,0,1,283.18,291.73Z" fill="#fff"/>
            <path d="M169.61,417.69a2.19,2.19,0,1,1,2.95-.95A2.2,2.2,0,0,1,169.61,417.69Z" fill="#fff"/>
            <path d="M338.38,513a2.19,2.19,0,1,1,2.74,1.44A2.19,2.19,0,0,1,338.38,513Z" fill="#fff"/>
            <path d="M399.09,412.64a2.19,2.19,0,1,1,2.74,1.44A2.19,2.19,0,0,1,399.09,412.64Z" fill="#fff"/>
            <path d="M119.79,380.88a2.19,2.19,0,1,1,2.95-1A2.19,2.19,0,0,1,119.79,380.88Z" fill="#fff"/>
            <path d="M230.53,519.34a2.19,2.19,0,1,1,2.74,1.44A2.19,2.19,0,0,1,230.53,519.34Z" fill="#fff"/>
            <path d="M230.49,242.09a2.19,2.19,0,1,1,1.44-2.75A2.19,2.19,0,0,1,230.49,242.09Z" fill="#fff"/>
            <path d="M226.35,304.05a2.19,2.19,0,1,1,1.44-2.74A2.18,2.18,0,0,1,226.35,304.05Z" fill="#fff"/>
            <path d="M317.29,287a2.19,2.19,0,1,1,1.44-2.75A2.19,2.19,0,0,1,317.29,287Z" fill="#fff"/>
            <path d="M257.65,481.25a2.2,2.2,0,1,1,1.43-2.75A2.2,2.2,0,0,1,257.65,481.25Z" fill="#fff"/>
            <path d="M196.32,261.48a4.77,4.77,0,1,1,6.42-2.07A4.76,4.76,0,0,1,196.32,261.48Z" fill="#fff"/>
            <path d="M216,376.36a2.19,2.19,0,1,1,2.95-.95A2.19,2.19,0,0,1,216,376.36Z" fill="#fff"/>
            <path d="M340.89,391.85a2.2,2.2,0,1,1,2.95-1A2.19,2.19,0,0,1,340.89,391.85Z" fill="#fff"/>
            <path d="M88.05,294.83a2.19,2.19,0,1,1,3-.95A2.19,2.19,0,0,1,88.05,294.83Z" fill="#fff"/>
            <path d="M283.18,291.73a2.19,2.19,0,1,1,2.95-1A2.2,2.2,0,0,1,283.18,291.73Z" fill="#fff"/>
            <path d="M338.38,513a2.19,2.19,0,1,1,2.74,1.44A2.2,2.2,0,0,1,338.38,513Z" fill="#fff"/>
            <path d="M119.79,380.88a2.19,2.19,0,1,1,2.95-1A2.19,2.19,0,0,1,119.79,380.88Z" fill="#fff"/>
            <path d="M230.53,519.34a2.19,2.19,0,1,1,2.74,1.44A2.19,2.19,0,0,1,230.53,519.34Z" fill="#fff"/>
            <path d="M230.49,242.09a2.19,2.19,0,1,1,1.44-2.75A2.19,2.19,0,0,1,230.49,242.09Z" fill="#fff"/>
            <path d="M226.35,304.05a2.19,2.19,0,1,1,1.44-2.74A2.18,2.18,0,0,1,226.35,304.05Z" fill="#fff"/>
            <path d="M154.2,293.81a2.19,2.19,0,1,1,1.44-2.75A2.2,2.2,0,0,1,154.2,293.81Z" fill="#fff"/>
            <path d="M317.29,287a2.19,2.19,0,1,1,1.44-2.75A2.19,2.19,0,0,1,317.29,287Z" fill="#fff"/>
            <path d="M295.35,411.34a2.2,2.2,0,1,1,1.44-2.75A2.19,2.19,0,0,1,295.35,411.34Z" fill="#fff"/>
            <path d="M257.65,481.25a2.2,2.2,0,1,1,1.43-2.75A2.2,2.2,0,0,1,257.65,481.25Z" fill="#fff"/>
            <path d="M252.19,345.27a5.88,5.88,0,1,1,2.56,7.91A5.89,5.89,0,0,1,252.19,345.27Z" fill="#fff"/>
            <path d="M306,484.77a2.19,2.19,0,1,1,.95,3A2.18,2.18,0,0,1,306,484.77Z" fill="#fff"/>
            <path d="M332.61,335.1a2.19,2.19,0,1,1,2.95-1A2.2,2.2,0,0,1,332.61,335.1Z" fill="#fff"/>
            <path d="M163.11,228.86a2.19,2.19,0,1,1,2.95-1A2.19,2.19,0,0,1,163.11,228.86Z" fill="#fff"/>
            <path d="M228.56,346.05a2.19,2.19,0,1,1,2.95-.95A2.19,2.19,0,0,1,228.56,346.05Z" fill="#fff"/>
            <path d="M413.44,447.07a2.19,2.19,0,1,1,2.75,1.43A2.19,2.19,0,0,1,413.44,447.07Z" fill="#fff"/>
            <path d="M247.39,432.58a2.19,2.19,0,1,1,3-1A2.19,2.19,0,0,1,247.39,432.58Z" fill="#fff"/>
            <path d="M305.59,453.38a2.19,2.19,0,1,1,2.74,1.44A2.2,2.2,0,0,1,305.59,453.38Z" fill="#fff"/>
            <path d="M162.74,546.72a2.19,2.19,0,1,1-3,.93A2.19,2.19,0,0,1,162.74,546.72Z" fill="#fff"/>
            <path d="M141.77,470.3a2.19,2.19,0,1,1-3,.93A2.2,2.2,0,0,1,141.77,470.3Z" fill="#fff"/>
            <path d="M100.73,490.47a2.2,2.2,0,1,1-.93-3A2.2,2.2,0,0,1,100.73,490.47Z" fill="#fff"/>
            <path d="M189.67,458.06a2.19,2.19,0,1,1-.92-3A2.19,2.19,0,0,1,189.67,458.06Z" fill="#fff"/>
            <path d="M181.45,562.26a2.19,2.19,0,1,1-.92-3A2.19,2.19,0,0,1,181.45,562.26Z" fill="#fff"/>
            <path d="M107.29,456.11a2.2,2.2,0,1,1-3,.93A2.2,2.2,0,0,1,107.29,456.11Z" fill="#fff"/>
            <path d="M135.34,570a2.19,2.19,0,1,1-3,.92A2.18,2.18,0,0,1,135.34,570Z" fill="#fff"/>
            <path d="M100.73,490.47a2.2,2.2,0,1,1-.93-3A2.2,2.2,0,0,1,100.73,490.47Z" fill="#fff"/>
            <path d="M181.45,562.26a2.19,2.19,0,1,1-.92-3A2.19,2.19,0,0,1,181.45,562.26Z" fill="#fff"/>
            <path d="M59.24,592.8a2.19,2.19,0,1,1-3,.92A2.2,2.2,0,0,1,59.24,592.8Z" fill="#fff"/>
            <path d="M107.29,456.11a2.2,2.2,0,1,1-3,.93A2.2,2.2,0,0,1,107.29,456.11Z" fill="#fff"/>
            <path d="M135.34,570a2.19,2.19,0,1,1-3,.92A2.18,2.18,0,0,1,135.34,570Z" fill="#fff"/>
            <path d="M103.61,533.32a2.19,2.19,0,1,1,1.41-2.76A2.19,2.19,0,0,1,103.61,533.32Z" fill="#fff"/>
            <path d="M108.18,611.69a2.19,2.19,0,1,1-2.76-1.41A2.19,2.19,0,0,1,108.18,611.69Z" fill="#fff"/>
            <path d="M81.73,555.83a2.19,2.19,0,1,1-.92-3A2.18,2.18,0,0,1,81.73,555.83Z" fill="#fff"/>
            <path d="M475.66,597.11a2.19,2.19,0,1,1-3,.92A2.18,2.18,0,0,1,475.66,597.11Z" fill="#fff"/>
            <path d="M454.69,520.69a2.19,2.19,0,1,1-3,.93A2.2,2.2,0,0,1,454.69,520.69Z" fill="#fff"/>
            <path d="M413.65,540.85a2.19,2.19,0,1,1-.93-3A2.19,2.19,0,0,1,413.65,540.85Z" fill="#fff"/>
            <path d="M502.59,508.45a2.19,2.19,0,1,1-.92-3A2.19,2.19,0,0,1,502.59,508.45Z" fill="#fff"/>
            <path d="M494.37,612.65a2.19,2.19,0,1,1-.92-3A2.19,2.19,0,0,1,494.37,612.65Z" fill="#fff"/>
            <path d="M420.21,506.5a2.19,2.19,0,1,1-3,.93A2.2,2.2,0,0,1,420.21,506.5Z" fill="#fff"/>
            <path d="M448.26,620.41a2.19,2.19,0,1,1-3,.93A2.19,2.19,0,0,1,448.26,620.41Z" fill="#fff"/>
            <path d="M413.65,540.85a2.19,2.19,0,1,1-.93-3A2.19,2.19,0,0,1,413.65,540.85Z" fill="#fff"/>
            <path d="M494.37,612.65a2.19,2.19,0,1,1-.92-3A2.18,2.18,0,0,1,494.37,612.65Z" fill="#fff"/>
            <path d="M372.16,643.18a2.19,2.19,0,1,1-3,.93A2.2,2.2,0,0,1,372.16,643.18Z" fill="#fff"/>
            <path d="M420.21,506.5a2.19,2.19,0,1,1-3,.93A2.2,2.2,0,0,1,420.21,506.5Z" fill="#fff"/>
            <path d="M448.26,620.41a2.19,2.19,0,1,1-3,.93A2.19,2.19,0,0,1,448.26,620.41Z" fill="#fff"/>
            <path d="M416.53,583.7a2.19,2.19,0,1,1,1.41-2.76A2.19,2.19,0,0,1,416.53,583.7Z" fill="#fff"/>
            <path d="M421.1,662.08a2.19,2.19,0,1,1-4.17,1.34,2.19,2.19,0,0,1,4.17-1.34Z" fill="#fff"/>
            <path d="M394.65,606.22a2.19,2.19,0,1,1-.92-3A2.19,2.19,0,0,1,394.65,606.22Z" fill="#fff"/>
          </g>
          <g>
            <path d="M175.71,262.8h44.73c-1.78,9.72-3.27,17.95-4.56,25.09q-1.63,9.38-3,16.67H183.25c-.89-4.86-1.89-10.42-3.08-16.67-1.29-7.14-2.77-15.37-4.46-25.09Z" fill="#d9dfe8" fill-rule="evenodd"/>
            <path d="M191.58,242.65h12.89a21,21,0,0,1,20.93,20.92H170.65a21,21,0,0,1,20.93-20.92Z" fill="#6e7a92" fill-rule="evenodd"/>
            <path d="M182.85,307.53H213.2a3.75,3.75,0,0,1,3.67,3.77h0a3.74,3.74,0,0,1-3.67,3.77H182.85a3.77,3.77,0,0,1-3.77-3.77h0a3.77,3.77,0,0,1,3.77-3.77Z" fill="#6e7a92" fill-rule="evenodd"/>
            <path d="M189.7,242.74h16.66c-2.48-8.72-3.77-13.39-4.66-16.36-.6-2-1-3.47-1.29-4.56h-4.66c-.4,1.09-.8,2.57-1.39,4.56-.8,3-2.18,7.64-4.66,16.36Z" fill="#6e7a92" fill-rule="evenodd"/>
            <rect x="192.77" y="315.07" width="10.51" height="250.65" fill="#6e7a92"/>
            <path d="M169.46,356.13h57.13a3.35,3.35,0,0,1,3.38,3.38h0a3.35,3.35,0,0,1-3.38,3.37H169.46a3.35,3.35,0,0,1-3.37-3.37h0a3.35,3.35,0,0,1,3.37-3.38Z" fill="#6e7a92" fill-rule="evenodd"/>
            <rect x="189.6" y="457.7" width="16.86" height="108.01" fill="#6e7a92"/>
            <rect x="179.58" y="549.85" width="36.9" height="15.87" fill="#6e7a92"/>
          </g>
          <g>
            <rect x="46.31" y="494.23" width="497.26" height="83.04" fill="#ddb252"/>
            <g>
              <path d="M491.64,535.75H466.58a46.69,46.69,0,0,0,0,93.37h25.06Z"/>
              <path d="M538.33,582.44a46.69,46.69,0,1,0-46.69,46.68A46.69,46.69,0,0,0,538.33,582.44Z" fill="#222f4c"/>
              <path d="M514.93,582.44a23.29,23.29,0,1,0-23.29,23.28A23.29,23.29,0,0,0,514.93,582.44Z" fill="#9facc1"/>
            </g>
            <g>
              <path d="M361,535.75H345.81a46.69,46.69,0,0,0,0,93.37H361Z"/>
              <path d="M405.27,582.44a46.69,46.69,0,1,0-46.69,46.68A46.69,46.69,0,0,0,405.27,582.44Z"/>
            </g>
            <g>
              <path d="M59.28,535.75H34.22a46.69,46.69,0,0,0,0,93.37H59.28Z"/>
              <path d="M106,582.44a46.69,46.69,0,1,0-46.69,46.68A46.69,46.69,0,0,0,106,582.44Z"/>
            </g>
            <polygon points="94.68 480.3 -74.03 480.3 -96.15 570.39 74.14 570.39 94.68 480.3" fill="#fecb05"/>
            <path d="M461.59,480.3H156.92l45.86-83.53H353.19s31.52,5.62,33.05,9.34,21.92,14.26,21.92,14.26Z" fill="#efc354"/>
            <polygon points="34.07 396.77 -11.79 480.3 156.92 480.3 202.78 396.77 34.07 396.77" fill="#fecb05"/>
            <polygon points="8.97 468.02 41.34 409.05 182.03 409.05 149.65 468.02 8.97 468.02" fill="#a1d2e0"/>
            <polygon points="90.29 499.55 52.64 499.55 46.31 525.35 84.41 525.35 90.29 499.55" fill="#ed594d"/>
            <polygon points="97.09 499.55 90.29 499.55 84.4 525.35 97.09 525.35 97.09 499.55" fill="#ed7e69"/>
            <polygon points="23.65 518.59 -28.92 518.59 -32.23 532.1 20.33 532.1 23.65 518.59" fill="#f1f2f2"/>
            <polygon points="305.82 468.02 433.96 468.02 380.77 409.05 305.82 409.05 305.82 468.02" fill="#bde3e7"/>
            <polygon points="218.59 409.05 210.06 409.05 177.68 468.02 218.59 468.02 218.59 409.05" fill="#bde3e7"/>
            <rect x="226.74" y="409.05" width="62.78" height="58.97" fill="#bde3e7"/>
            <path d="M544.67,525.61c-1.23-1.24-2.36-2.48-3.41-3.74-4.68-.38-9.34-1-14.18-1.63-9.3-1.27-18.59-10.07-23.1-17.76a38.84,38.84,0,0,1-5.17-22.18H94.68l-22.11,97h48.1a56.7,56.7,0,0,1,110.13,0H432.26a56.7,56.7,0,0,1,110.13,0h32.16L567,536.44A38.46,38.46,0,0,1,544.67,525.61Z" fill="#efc354"/>
            <g>
              <polygon points="81.22 558.27 -103.48 558.27 -112.81 596.27 71.9 596.27 81.22 558.27" fill="#fecb05"/>
              <polygon points="120.67 558.27 81.22 558.27 71.89 596.27 120.67 596.27 120.67 558.27" fill="#fecb05"/>
            </g>
            <polygon points="527.86 528.79 576.24 528.79 585.57 566.78 543.56 566.78 527.86 528.79" fill="#ddb252"/>
            <rect x="317.3" y="476" width="23.5" height="8.6" fill="#ddb252"/>
            <rect x="210.27" y="476" width="23.5" height="8.6" fill="#ddb252"/>
            <polygon points="307.01 396.77 281.25 396.77 281.25 374.02 292.03 374.02 307.01 396.77" fill="#efc354"/>
            <rect x="231.34" y="374.02" width="49.91" height="22.75" fill="#fecb05"/>
            <g>
              <rect x="100.01" y="496.27" width="11.9" height="11.9" fill="#f7f7f8"/>
              <rect x="111.91" y="496.27" width="11.9" height="11.9"/>
              <polygon points="88.32 508.17 100.01 508.17 100.01 496.27 91.04 496.27 88.32 508.17"/>
              <rect x="123.82" y="496.27" width="11.9" height="11.9" fill="#f7f7f8"/>
              <rect x="135.72" y="496.27" width="11.9" height="11.9"/>
              <rect x="147.62" y="496.27" width="11.9" height="11.9" fill="#f7f7f8"/>
              <rect x="159.53" y="496.27" width="11.9" height="11.9"/>
              <rect x="171.43" y="496.27" width="11.9" height="11.9" fill="#f7f7f8"/>
              <rect x="183.33" y="496.27" width="11.9" height="11.9"/>
              <rect x="195.24" y="496.27" width="11.9" height="11.9" fill="#f7f7f8"/>
              <rect x="207.14" y="496.27" width="11.9" height="11.9"/>
              <rect x="219.05" y="496.27" width="11.9" height="11.9" fill="#f7f7f8"/>
              <rect x="230.95" y="496.27" width="11.9" height="11.9"/>
              <rect x="242.85" y="496.27" width="11.9" height="11.9" fill="#f7f7f8"/>
              <rect x="254.76" y="496.27" width="11.9" height="11.9"/>
              <rect x="266.66" y="496.27" width="11.9" height="11.9" fill="#f7f7f8"/>
              <rect x="278.56" y="496.27" width="11.9" height="11.9"/>
              <rect x="290.47" y="496.27" width="11.9" height="11.9" fill="#f7f7f8"/>
              <rect x="302.37" y="496.27" width="11.9" height="11.9"/>
              <rect x="314.28" y="496.27" width="11.9" height="11.9" fill="#f7f7f8"/>
              <rect x="326.18" y="496.27" width="11.9" height="11.9"/>
              <rect x="338.08" y="496.27" width="11.9" height="11.9" fill="#f7f7f8"/>
              <rect x="349.99" y="496.27" width="11.9" height="11.9"/>
              <rect x="361.89" y="496.27" width="11.9" height="11.9" fill="#f7f7f8"/>
              <rect x="373.79" y="496.27" width="11.9" height="11.9"/>
              <rect x="385.7" y="496.27" width="11.9" height="11.9" fill="#f7f7f8"/>
              <rect x="397.6" y="496.27" width="11.9" height="11.9"/>
              <rect x="409.5" y="496.27" width="11.9" height="11.9" fill="#f7f7f8"/>
              <rect x="421.41" y="496.27" width="11.9" height="11.9"/>
              <rect x="433.31" y="496.27" width="11.9" height="11.9" fill="#f7f7f8"/>
              <rect x="445.21" y="496.27" width="11.9" height="11.9"/>
              <rect x="457.12" y="496.27" width="11.9" height="11.9" fill="#f7f7f8"/>
              <rect x="469.02" y="496.27" width="11.9" height="11.9"/>
              <rect x="480.93" y="496.27" width="11.9" height="11.9" fill="#f7f7f8"/>
              <rect x="492.83" y="496.27" width="11.9" height="11.9"/>
              <rect x="504.73" y="496.27" width="11.9" height="11.9" fill="#f7f7f8"/>
              <rect x="516.64" y="496.27" width="11.9" height="11.9"/>
              <rect x="528.54" y="496.27" width="11.9" height="11.9" fill="#f7f7f8"/>
              <polygon points="559.55 496.27 552.46 496.27 552.46 508.17 561.75 508.17 559.55 496.27" fill="#f7f7f8"/>
              <rect x="540.44" y="496.27" width="11.9" height="11.9"/>
            </g>
            <g>
              <rect x="540.44" y="508.17" width="11.9" height="11.9" fill="#f7f7f8"/>
              <rect x="528.54" y="508.17" width="11.9" height="11.9"/>
              <polygon points="561.75 508.17 552.46 508.17 552.46 520.07 563.96 520.07 561.75 508.17"/>
              <rect x="516.64" y="508.17" width="11.9" height="11.9" fill="#f7f7f8"/>
              <rect x="504.73" y="508.17" width="11.9" height="11.9"/>
              <rect x="492.83" y="508.17" width="11.9" height="11.9" fill="#f7f7f8"/>
              <rect x="480.93" y="508.17" width="11.9" height="11.9"/>
              <rect x="469.02" y="508.17" width="11.9" height="11.9" fill="#f7f7f8"/>
              <rect x="457.12" y="508.17" width="11.9" height="11.9"/>
              <rect x="445.21" y="508.17" width="11.9" height="11.9" fill="#f7f7f8"/>
              <rect x="433.31" y="508.17" width="11.9" height="11.9"/>
              <rect x="421.41" y="508.17" width="11.9" height="11.9" fill="#f7f7f8"/>
              <rect x="409.5" y="508.17" width="11.9" height="11.9"/>
              <rect x="397.6" y="508.17" width="11.9" height="11.9" fill="#f7f7f8"/>
              <rect x="385.7" y="508.17" width="11.9" height="11.9"/>
              <rect x="373.79" y="508.17" width="11.9" height="11.9" fill="#f7f7f8"/>
              <rect x="361.89" y="508.17" width="11.9" height="11.9"/>
              <rect x="349.99" y="508.17" width="11.9" height="11.9" fill="#f7f7f8"/>
              <rect x="338.08" y="508.17" width="11.9" height="11.9"/>
              <rect x="326.18" y="508.17" width="11.9" height="11.9" fill="#f7f7f8"/>
              <rect x="314.28" y="508.17" width="11.9" height="11.9"/>
              <rect x="302.37" y="508.17" width="11.9" height="11.9" fill="#f7f7f8"/>
              <rect x="290.47" y="508.17" width="11.9" height="11.9"/>
              <rect x="278.56" y="508.17" width="11.9" height="11.9" fill="#f7f7f8"/>
              <rect x="266.66" y="508.17" width="11.9" height="11.9"/>
              <rect x="254.76" y="508.17" width="11.9" height="11.9" fill="#f7f7f8"/>
              <rect x="242.85" y="508.17" width="11.9" height="11.9"/>
              <rect x="230.95" y="508.17" width="11.9" height="11.9" fill="#f7f7f8"/>
              <rect x="219.05" y="508.17" width="11.9" height="11.9"/>
              <rect x="207.14" y="508.17" width="11.9" height="11.9" fill="#f7f7f8"/>
              <rect x="195.24" y="508.17" width="11.9" height="11.9"/>
              <rect x="183.33" y="508.17" width="11.9" height="11.9" fill="#f7f7f8"/>
              <rect x="171.43" y="508.17" width="11.9" height="11.9"/>
              <rect x="159.53" y="508.17" width="11.9" height="11.9" fill="#f7f7f8"/>
              <rect x="147.62" y="508.17" width="11.9" height="11.9"/>
              <rect x="135.72" y="508.17" width="11.9" height="11.9" fill="#f7f7f8"/>
              <rect x="123.82" y="508.17" width="11.9" height="11.9"/>
              <rect x="111.91" y="508.17" width="11.9" height="11.9" fill="#f7f7f8"/>
              <rect x="88.11" y="508.17" width="11.9" height="11.9" fill="#f7f7f8"/>
              <rect x="100.01" y="508.17" width="11.9" height="11.9"/>
              <polygon points="88.11 520.07 88.11 509.13 85.61 520.07 88.11 520.07"/>
            </g>
            <polygon points="303 484.47 303 528.86 84.75 525.35 93.05 489.71 303 484.47" fill="#efc354"/>
            <path d="M457.12,491.68c-.25,1.76,0,34.11,0,34.11l107.53-2L559,493.06Z" fill="#efc354"/>
            <rect x="299.61" y="508.17" width="14.67" height="15.36" fill="#efc354"/>
            <rect x="445.21" y="508.17" width="15.42" height="15.36" fill="#efc354"/>
            <g>
              <path d="M175.19,543.77H150.14a46.68,46.68,0,0,0,0,93.36h25.05Z"/>
              <path d="M221.88,590.45a46.69,46.69,0,1,0-46.69,46.69A46.68,46.68,0,0,0,221.88,590.45Z" fill="#222f4c"/>
              <path d="M198.48,590.45a23.29,23.29,0,1,0-23.29,23.29A23.28,23.28,0,0,0,198.48,590.45Z" fill="#9facc1"/>
            </g>
          </g>
          <g>
            <path d="M251.31,494.23c1,27.72,1.53,55.41.84,83H543.58v-83Z" fill="#ffb662"/>
            <g>
              <path d="M491.64,535.75H466.58a46.69,46.69,0,0,0,0,93.37h25.06Z"/>
              <path d="M538.33,582.44a46.69,46.69,0,1,0-46.69,46.68A46.69,46.69,0,0,0,538.33,582.44Z" fill="#222f4c"/>
              <path d="M514.93,582.44a23.29,23.29,0,1,0-23.29,23.28A23.29,23.29,0,0,0,514.93,582.44Z" fill="#9facc1"/>
            </g>
            <path d="M250.74,480.3H461.59l-52.93-58.68c-20.89-25.59-52.72-24.85-52.72-24.85H247.27C248.12,424.62,249.56,452.47,250.74,480.3Z" fill="#efc354"/>
            <path d="M305.82,468H434l-41.08-45.55c-12.1-13.42-31-13.42-31-13.42H305.82Z" fill="#222f4c"/>
            <path d="M242.85,409.05c.71,19.66-.19,39.32.69,59h46v-59Z" fill="#bde3e7"/>
            <path d="M541.89,480.3H244.71c.09,2.16,1.1,4.32,1.18,6.48,1.24,30.21-1.94,60.39-2.69,90.49H432.26a56.7,56.7,0,0,1,110.13,0h32.16s-12-65-15-81S541.89,480.3,541.89,480.3Z" fill="#efc354"/>
            <path d="M584.74,565.44a5.67,5.67,0,0,0-.13-2.56l-8.37-34.09H527.86l15.7,38h39C583.39,566.65,584.55,566.3,584.74,565.44Z" fill="#ddb252"/>
            <rect x="317.3" y="476" width="23.5" height="8.6" fill="#ddb252"/>
            <polygon points="307.01 396.77 281.25 396.77 281.25 374.02 292.03 374.02 307.01 396.77" fill="#efc354"/>
            <path d="M246.75,374q.18,11.37.52,22.75h34V374Z" fill="#fecb05"/>
            <g>
              <path d="M251.38,496.27q.23,6,.4,11.9h3v-11.9Z" fill="#f7f7f8"/>
              <rect x="254.76" y="496.27" width="11.9" height="11.9"/>
              <rect x="266.66" y="496.27" width="11.9" height="11.9" fill="#f7f7f8"/>
              <rect x="278.56" y="496.27" width="11.9" height="11.9"/>
              <rect x="290.47" y="496.27" width="11.9" height="11.9" fill="#f7f7f8"/>
              <rect x="302.37" y="496.27" width="11.9" height="11.9"/>
              <rect x="314.28" y="496.27" width="11.9" height="11.9" fill="#f7f7f8"/>
              <rect x="326.18" y="496.27" width="11.9" height="11.9"/>
              <rect x="338.08" y="496.27" width="11.9" height="11.9" fill="#f7f7f8"/>
              <rect x="349.99" y="496.27" width="11.9" height="11.9"/>
              <rect x="361.89" y="496.27" width="11.9" height="11.9" fill="#f7f7f8"/>
              <rect x="373.79" y="496.27" width="11.9" height="11.9"/>
              <rect x="385.7" y="496.27" width="11.9" height="11.9" fill="#f7f7f8"/>
              <rect x="397.6" y="496.27" width="11.9" height="11.9"/>
              <rect x="409.5" y="496.27" width="11.9" height="11.9" fill="#f7f7f8"/>
              <rect x="421.41" y="496.27" width="11.9" height="11.9"/>
              <rect x="433.31" y="496.27" width="11.9" height="11.9" fill="#f7f7f8"/>
              <rect x="445.21" y="496.27" width="11.9" height="11.9"/>
              <rect x="457.12" y="496.27" width="11.9" height="11.9" fill="#f7f7f8"/>
              <rect x="469.02" y="496.27" width="11.9" height="11.9"/>
              <rect x="480.93" y="496.27" width="11.9" height="11.9" fill="#f7f7f8"/>
              <rect x="492.83" y="496.27" width="11.9" height="11.9"/>
              <rect x="504.73" y="496.27" width="11.9" height="11.9" fill="#f7f7f8"/>
              <rect x="516.64" y="496.27" width="11.9" height="11.9"/>
              <rect x="528.54" y="496.27" width="11.9" height="11.9" fill="#f7f7f8"/>
              <polygon points="559.55 496.27 552.46 496.27 552.46 508.17 561.75 508.17 559.55 496.27" fill="#f7f7f8"/>
              <rect x="540.44" y="496.27" width="11.9" height="11.9"/>
            </g>
            <g>
              <rect x="540.44" y="508.17" width="11.9" height="11.9" fill="#f7f7f8"/>
              <rect x="528.54" y="508.17" width="11.9" height="11.9"/>
              <polygon points="561.75 508.17 552.46 508.17 552.46 520.07 563.96 520.07 561.75 508.17"/>
              <rect x="516.64" y="508.17" width="11.9" height="11.9" fill="#f7f7f8"/>
              <rect x="504.73" y="508.17" width="11.9" height="11.9"/>
              <rect x="492.83" y="508.17" width="11.9" height="11.9" fill="#f7f7f8"/>
              <rect x="480.93" y="508.17" width="11.9" height="11.9"/>
              <rect x="469.02" y="508.17" width="11.9" height="11.9" fill="#f7f7f8"/>
              <rect x="457.12" y="508.17" width="11.9" height="11.9"/>
              <rect x="445.21" y="508.17" width="11.9" height="11.9" fill="#f7f7f8"/>
              <rect x="433.31" y="508.17" width="11.9" height="11.9"/>
              <rect x="421.41" y="508.17" width="11.9" height="11.9" fill="#f7f7f8"/>
              <rect x="409.5" y="508.17" width="11.9" height="11.9"/>
              <rect x="397.6" y="508.17" width="11.9" height="11.9" fill="#f7f7f8"/>
              <rect x="385.7" y="508.17" width="11.9" height="11.9"/>
              <rect x="373.79" y="508.17" width="11.9" height="11.9" fill="#f7f7f8"/>
              <rect x="361.89" y="508.17" width="11.9" height="11.9"/>
              <rect x="349.99" y="508.17" width="11.9" height="11.9" fill="#f7f7f8"/>
              <rect x="338.08" y="508.17" width="11.9" height="11.9"/>
              <rect x="326.18" y="508.17" width="11.9" height="11.9" fill="#f7f7f8"/>
              <rect x="314.28" y="508.17" width="11.9" height="11.9"/>
              <rect x="302.37" y="508.17" width="11.9" height="11.9" fill="#f7f7f8"/>
              <rect x="290.47" y="508.17" width="11.9" height="11.9"/>
              <rect x="278.56" y="508.17" width="11.9" height="11.9" fill="#f7f7f8"/>
              <rect x="266.66" y="508.17" width="11.9" height="11.9"/>
              <rect x="254.76" y="508.17" width="11.9" height="11.9" fill="#f7f7f8"/>
              <path d="M251.78,508.17q.18,6,.32,11.9h2.66v-11.9Z"/>
            </g>
            <path d="M251,485.76c0,.34-5.1.68-5.09,1,.57,13.76-2.93,27.52-2.69,41.27l59.3.81V484.47Z" fill="#efc354"/>
            <path d="M457.12,491.68c-.25,1.76,0,34.11,0,34.11l107.53-2-6.44-30Z" fill="#efc354"/>
            <rect x="299.61" y="508.17" width="14.67" height="15.36" fill="#efc354"/>
            <rect x="445.21" y="508.17" width="15.42" height="15.36" fill="#efc354"/>
            <path d="M432.29,577c5.15-24,27.14-43.5,53.5-43.5S534.15,553,539.3,577h21c-7-34-37.3-60.2-73.7-60.2S419.81,543,412.85,577Z" fill="#ddb252"/>
            <path d="M421.73,469c-9.39-11-21.9-24.58-28.85-32.28-12.1-13.42-31-13.72-31-13.72H306v46Z" fill="#bde3e7"/>
          </g>
          <path d="M559.57,489h-7.35c-3.15,0-5.13,2.17-4.4,5.32l2.86,12.16a7.45,7.45,0,0,0,7,5.52H564Z" fill="#fff"/>
          <path d="M419.19,569.51s17.36,5.25-2.37,6.51-186,1.25-186,1.25L219.15,561l207.1-2.43Z" fill="#ddb252"/>
          <circle cx="492.24" cy="582.9" r="7.55" fill="#000429"/>
          <text transform="translate(241.85 393.1)" font-size="13.55" fill="#222f4c" font-family="Megafont, Megafont"><tspan letter-spacing="-0.06em">Т</tspan><tspan x="6.76" y="0">АХI</tspan></text>
        </g>
      </g>
      <g>
        <g>
          <path d="M251.22,494c1,27.63,1.52,55.23.84,82.77H542.54V494Z" fill="#ffb662"/>
          <g>
            <path d="M490.78,535.39h-25a46.53,46.53,0,0,0,0,93.06h25Z"/>
            <path d="M537.31,581.93a46.54,46.54,0,1,0-46.53,46.54A46.54,46.54,0,0,0,537.31,581.93Z" fill="#222f4c"/>
            <path d="M514,581.93a23.22,23.22,0,1,0-23.21,23.21A23.21,23.21,0,0,0,514,581.93Z" fill="#9facc1"/>
          </g>
          <path d="M250.66,480.13H460.82l-52.76-58.49c-20.82-25.51-52.55-24.78-52.55-24.78H247.2C248,424.63,249.48,452.39,250.66,480.13Z" fill="#efc354"/>
          <path d="M305.56,467.88H433.28l-40.94-45.39c-12.07-13.38-30.9-13.38-30.9-13.38H305.56Z" fill="#222f4c"/>
          <path d="M242.79,409.11c.71,19.59-.19,39.19.68,58.77h45.84V409.11Z" fill="#bde3e7"/>
          <path d="M540.86,480.13H244.64c.09,2.15,1.09,4.3,1.18,6.45,1.23,30.12-1.94,60.2-2.68,90.2H431.59a56.52,56.52,0,0,1,109.77,0h32.06s-12-64.81-14.95-80.73S540.86,480.13,540.86,480.13Z" fill="#efc354"/>
          <path d="M583.58,565a5.91,5.91,0,0,0-.13-2.55l-8.34-34H526.88l15.65,37.87H581.4C582.23,566.2,583.39,565.85,583.58,565Z" fill="#ddb252"/>
          <rect x="317" y="475.84" width="23.42" height="8.57" fill="#ddb252"/>
          <polygon points="306.75 396.86 281.06 396.86 281.06 374.18 291.81 374.18 306.75 396.86" fill="#efc354"/>
          <path d="M246.67,374.18q.18,11.34.53,22.68h33.86V374.18Z" fill="#fecb05"/>
          <g>
            <path d="M251.29,496q.22,5.94.4,11.86h3V496Z" fill="#f7f7f8"/>
            <rect x="254.66" y="496.04" width="11.87" height="11.86"/>
            <rect x="266.52" y="496.04" width="11.87" height="11.86" fill="#f7f7f8"/>
            <rect x="278.39" y="496.04" width="11.86" height="11.86"/>
            <rect x="290.25" y="496.04" width="11.87" height="11.86" fill="#f7f7f8"/>
            <rect x="302.12" y="496.04" width="11.87" height="11.86"/>
            <rect x="313.98" y="496.04" width="11.86" height="11.86" fill="#f7f7f8"/>
            <rect x="325.85" y="496.04" width="11.87" height="11.86"/>
            <rect x="337.71" y="496.04" width="11.87" height="11.86" fill="#f7f7f8"/>
            <rect x="349.58" y="496.04" width="11.86" height="11.86"/>
            <rect x="361.44" y="496.04" width="11.87" height="11.86" fill="#f7f7f8"/>
            <rect x="373.31" y="496.04" width="11.86" height="11.86"/>
            <rect x="385.17" y="496.04" width="11.86" height="11.86" fill="#f7f7f8"/>
            <rect x="397.04" y="496.04" width="11.87" height="11.86"/>
            <rect x="408.9" y="496.04" width="11.86" height="11.86" fill="#f7f7f8"/>
            <rect x="420.77" y="496.04" width="11.87" height="11.86"/>
            <rect x="432.63" y="496.04" width="11.87" height="11.86" fill="#f7f7f8"/>
            <rect x="444.5" y="496.04" width="11.87" height="11.86"/>
            <rect x="456.37" y="496.04" width="11.86" height="11.86" fill="#f7f7f8"/>
            <rect x="468.23" y="496.04" width="11.87" height="11.86"/>
            <rect x="480.1" y="496.04" width="11.86" height="11.86" fill="#f7f7f8"/>
            <rect x="491.96" y="496.04" width="11.86" height="11.86"/>
            <rect x="503.83" y="496.04" width="11.87" height="11.86" fill="#f7f7f8"/>
            <rect x="515.69" y="496.04" width="11.86" height="11.86"/>
            <rect x="527.56" y="496.04" width="11.87" height="11.86" fill="#f7f7f8"/>
            <polygon points="558.46 496.04 551.4 496.04 551.4 507.9 560.66 507.9 558.46 496.04" fill="#f7f7f8"/>
            <rect x="539.42" y="496.04" width="11.87" height="11.86"/>
          </g>
          <g>
            <rect x="539.42" y="507.9" width="11.87" height="11.87" fill="#f7f7f8"/>
            <rect x="527.56" y="507.9" width="11.87" height="11.87"/>
            <polygon points="560.66 507.9 551.4 507.9 551.4 519.77 562.86 519.77 560.66 507.9"/>
            <rect x="515.69" y="507.9" width="11.86" height="11.87" fill="#f7f7f8"/>
            <rect x="503.83" y="507.9" width="11.87" height="11.87"/>
            <rect x="491.96" y="507.9" width="11.86" height="11.87" fill="#f7f7f8"/>
            <rect x="480.1" y="507.9" width="11.86" height="11.87"/>
            <rect x="468.23" y="507.9" width="11.87" height="11.87" fill="#f7f7f8"/>
            <rect x="456.37" y="507.9" width="11.86" height="11.87"/>
            <rect x="444.5" y="507.9" width="11.87" height="11.87" fill="#f7f7f8"/>
            <rect x="432.63" y="507.9" width="11.87" height="11.87"/>
            <rect x="420.77" y="507.9" width="11.87" height="11.87" fill="#f7f7f8"/>
            <rect x="408.9" y="507.9" width="11.86" height="11.87"/>
            <rect x="397.04" y="507.9" width="11.87" height="11.87" fill="#f7f7f8"/>
            <rect x="385.17" y="507.9" width="11.86" height="11.87"/>
            <rect x="373.31" y="507.9" width="11.86" height="11.87" fill="#f7f7f8"/>
            <rect x="361.44" y="507.9" width="11.87" height="11.87"/>
            <rect x="349.58" y="507.9" width="11.86" height="11.87" fill="#f7f7f8"/>
            <rect x="337.71" y="507.9" width="11.87" height="11.87"/>
            <rect x="325.85" y="507.9" width="11.87" height="11.87" fill="#f7f7f8"/>
            <rect x="313.98" y="507.9" width="11.86" height="11.87"/>
            <rect x="302.12" y="507.9" width="11.87" height="11.87" fill="#f7f7f8"/>
            <rect x="290.25" y="507.9" width="11.87" height="11.87"/>
            <rect x="278.39" y="507.9" width="11.86" height="11.87" fill="#f7f7f8"/>
            <rect x="266.52" y="507.9" width="11.87" height="11.87"/>
            <rect x="254.66" y="507.9" width="11.87" height="11.87" fill="#f7f7f8"/>
            <path d="M251.69,507.9q.18,5.94.32,11.87h2.65V507.9Z"/>
          </g>
          <path d="M250.89,485.57c0,.33-5.08.67-5.07,1,.56,13.72-2.92,27.44-2.68,41.14l59.11.81V484.28Z" fill="#efc354"/>
          <path d="M456.37,491.47c-.25,1.75,0,34,0,34l107.18-2-6.42-30Z" fill="#efc354"/>
          <rect x="299.36" y="507.9" width="14.62" height="15.31" fill="#efc354"/>
          <rect x="444.5" y="507.9" width="15.37" height="15.31" fill="#efc354"/>
          <path d="M431.61,578c5.14-24,27.06-43.36,53.34-43.36S533.15,554,538.28,578h20.89c-6.93-36-37.19-60-73.47-60s-66.53,24-73.46,60Z" fill="#ddb252"/>
          <path d="M421.09,468c-9.36-11-21.83-24.07-28.75-31.75-12.07-13.38-30.9-13.25-30.9-13.25H305v45Z" fill="#bde3e7"/>
        </g>
        <path d="M558.48,488h-7.32a4.4,4.4,0,0,0-4.38,5.7l2.84,12a7.29,7.29,0,0,0,7,5.34h6.28Z" fill="#fff"/>
        <path d="M418.56,569.05s17.31,5.23-2.36,6.48-185.43,1.25-185.43,1.25l-11.6-16.2,206.43-2.42Z" fill="#ddb252"/>
        <circle cx="491.37" cy="582.4" r="7.52" fill="#000429"/>
        <text transform="translate(241.79 393.2)" font-size="13.51" fill="#222f4c" font-family="Megafont, Megafont"><tspan letter-spacing="-0.06em">Т</tspan><tspan x="6.74" y="0">АХI</tspan></text>
      </g>
    </g>
    <g id="04efa3ed-a66f-4a90-9811-59e9200806fa" data-name="img11">
      <g>
        <path d="M369.21,279.66H357.65c-3.29,0-6-3.49-6-7.79v-4.31c0-4.29,2.67-7.79,6-7.79h11.56c3.28,0,6,3.5,6,7.79v4.31C375.17,276.17,372.49,279.66,369.21,279.66Zm-11.56-17.5c-2.28,0-4.13,2.42-4.13,5.4v4.31c0,3,1.85,5.41,4.13,5.41h11.56c2.28,0,4.13-2.43,4.13-5.41v-4.31c0-3-1.85-5.4-4.13-5.4Z" fill="#67008d"/>
        <g id="57285908-a73b-49c7-a463-f02f7803504f" data-name="&lt;Group&gt;">
          <rect x="387.46" y="283.55" width="17.17" height="34.72" rx="6.83" ry="6.83" fill="#fac1b1"/>
          <path d="M387.46,291.16v16c4.52-2.89,12-7.62,17.17-10.64v-5.4a6.85,6.85,0,0,0-6.83-6.83h-3.51A6.86,6.86,0,0,0,387.46,291.16Z" fill="#fc8883"/>
        </g>
        <g>
          <g id="7be9304b-ee86-45cb-bf51-f0d07af60201" data-name="&lt;Group&gt;">
            <g id="a7f34963-edbf-4365-a8e4-f8810f6efd21" data-name="&lt;Group&gt;">
              <g>
                <use id="e3747806-c9ed-4df8-87b9-aa74aecba079" data-name="New Symbol 23" width="3.26" height="4.72" transform="matrix(-1.72, 0, 0, 1.72, 369.52, 254.69)" xlink:href="#bc87ed00-2d82-46d1-a71b-ecd86db55415"/>
                <use id="de39e5e9-add8-4077-b4ee-f19a6ef822c2" data-name="New Symbol 32" width="3.79" height="1.45" transform="matrix(-1.72, 0, 0, 1.72, 370.07, 248.91)" xlink:href="#7b3feb8e-5ada-4782-9a28-1eb61c9b3911"/>
              </g>
            </g>
          </g>
          <circle cx="368.93" cy="270.94" r="3.12" fill="#fc8883" opacity="0.36"/>
          <path d="M362.31,235.64l.85,50.56a12.6,12.6,0,0,0,17.42,11.42l16.84-7,1.17-51.5-18.73-16.38Z" fill="#fac1b1"/>
        </g>
        <g>
          <path d="M438.09,332.76l2.55,68.88a6.91,6.91,0,0,1-5.14,6.95h0a6.93,6.93,0,0,1-8.62-5.74l-9.48-68.18a10.38,10.38,0,0,1,8-11.57h0A10.4,10.4,0,0,1,438.09,332.76Z" fill="#e8e1c8"/>
          <g id="cf68aab9-b1e1-4a6d-90e1-efe5737e2b50" data-name="&lt;Group&gt;">
            <g>
              <path d="M445,461.34a3.5,3.5,0,0,1-3.26,3.68,3.68,3.68,0,0,1-1.11-.11,3.5,3.5,0,0,1-2.53-2.73l-5.29-28.35,10.5-.92Z" fill="#fac1b1"/>
              <path d="M434.18,395.31a6.86,6.86,0,0,1,1.93.24,7.21,7.21,0,0,1,5.33,6.54l1.82,30.82-10.5.92-5.59-30A7.19,7.19,0,0,1,434.18,395.31Z" fill="#e8e1c8"/>
            </g>
          </g>
          <g>
            <path d="M442.14,480l-3.54,6.3a3.91,3.91,0,0,0,.83,4.87h0l5.64-10.48Z" fill="#fc8883"/>
            <path d="M432.41,482h0l1.48-15.06.21,0L434,466l4.53-6.76,4.26,0a1.83,1.83,0,0,1,1.8,1.53l2.85,16.67-4.89,16.21-.24-.16a4.27,4.27,0,0,1-2-3.93l.54-7.18-4-9.75-1.78,8A1.93,1.93,0,0,1,432.41,482Z" fill="#fac1b1" stroke="#fac1b1" stroke-miterlimit="10" stroke-width="0.79"/>
          </g>
        </g>
        <path d="M360.9,438.63a14.51,14.51,0,0,0-3.34,11l13.63,114.6c.61,5.35,5.73,9.34,11.67,9.11h0c5.88-.23,10.57-4.53,10.74-9.86l4.1-116.79a9.66,9.66,0,0,0-3.28-7.5l-5.28-4.78a18.06,18.06,0,0,0-24.17.36l-4,3.81Z" fill="#fac1b1"/>
        <rect x="426" y="427.3" width="20.19" height="9.31" rx="4.66" ry="4.66" transform="translate(-40.74 45.44) rotate(-5.7)" fill="#f5f5f5"/>
        <path d="M370.46,561l8.67,116.58h12.79l1.37-116.17-2.16-2.9c-5.07-6.8-16.29-4.7-20.67,2.49Z" fill="#fac1b1"/>
        <path d="M429,437a15,15,0,0,1,3.17,11L419.22,562.57a10.51,10.51,0,0,1-11.07,9.12h0a10.42,10.42,0,0,1-10.2-9.86L394.06,445a9.9,9.9,0,0,1,3.11-7.51l5-4.78a16.52,16.52,0,0,1,22.95.36l3.82,3.81Z" fill="#fac1b1"/>
        <path d="M419.92,559.29l-8.24,116.59H399.54l-1.3-116.17,2.05-2.9c4.81-6.8,15.47-4.7,19.63,2.48Z" fill="#fac1b1"/>
        <g id="831fcb3b-c191-4c13-bc5e-c881b886ec9d" data-name="&lt;Group&gt;">
          <path d="M426.55,412.65l-31.67.86-31.67-.86L359.89,419a52.79,52.79,0,0,0-5.9,27.26l4.22,89.17h73.34l4.23-89.17a52.79,52.79,0,0,0-5.9-27.26Z" fill="#cec6ae"/>
        </g>
        <g>
          <path d="M360.77,440.72l1.65-61.3a18.26,18.26,0,0,1-2.61-9.4l-1.66-31.83c0-5.06,2.07-14.62,5.41-18,2.36-2.36,5.16-5.39,9.29-7.62a23,23,0,0,1,3.08-1.41l5-2.64a24.56,24.56,0,0,1,23.05,0c2.83,1.5,5.51,2.77,8,4.05,8.3,4.21,14.36,8.31,16.08,20.21,1.83,12.6,4.74,107.9,4.74,107.9Z" fill="#cec6ae"/>
          <path d="M411.93,312.61H372.85a23,23,0,0,1,3.08-1.41l5-2.64a24.56,24.56,0,0,1,23.05,0C406.77,310.06,409.45,311.33,411.93,312.61Z" fill="#cec6ae"/>
        </g>
        <g>
          <path d="M349.59,334.43,350,415c0,3.78,3,7,7.13,7.86h0c5.33,1,10.49-2.28,11-7.11l8.79-80c.69-6.27-4.11-12-11.07-13.13h0C357.41,321.13,349.63,326.83,349.59,334.43Z" fill="#e8e1c8"/>
          <g id="36dc2d8a-a9c0-43fe-a267-46e94c7073f0" data-name="&lt;Group&gt;">
            <g>
              <path d="M318.7,469.41a4.32,4.32,0,0,0,2.13,5.7,5,5,0,0,0,1.38.5,4.24,4.24,0,0,0,4.32-1.52l19.88-27.33L334.31,440Z" fill="#fac1b1" stroke="#fac1b1" stroke-miterlimit="10" stroke-width="0.79"/>
              <path d="M361.33,408.48a10.25,10.25,0,0,0-2.42-.8,8.63,8.63,0,0,0-9.5,4L332.5,443.58l12.11,6.75,21-28.9C368.72,417.18,366.66,411,361.33,408.48Z" fill="#e8e1c8"/>
            </g>
          </g>
          <g>
            <path d="M320,476.27l.62,7.2a3.92,3.92,0,0,1-2.77,4.09h0l-.8-11.88Z" fill="#fc8883"/>
            <path d="M328,482.05h0l4.89-14.32-.17-.12.46-.73-1.32-8L328,457.11a1.82,1.82,0,0,0-2.27.64l-9.49,14L314,488.53l.29,0a4.29,4.29,0,0,0,3.41-2.77l2.48-6.76,7.64-7.23-1.69,8A1.92,1.92,0,0,0,328,482.05Z" fill="#fac1b1" stroke="#fac1b1" stroke-miterlimit="10" stroke-width="0.79"/>
          </g>
        </g>
        <rect x="364.77" y="262.31" width="9.37" height="15.38" rx="4.68" ry="4.68" fill="#fac1b1"/>
        <path d="M374.13,268.41h0c0-1.11,0-2.23,0-3.34H352.8v3.26h21.33Z" fill="#67008d"/>
        <g>
          <path d="M357.55,217.61H417.6a14.6,14.6,0,0,1,14.6,14.6v.69a30,30,0,0,1-30,30H387.52a30,30,0,0,1-30-30V217.61A0,0,0,0,1,357.55,217.61Z" transform="translate(789.75 480.49) rotate(-180)" fill="#4c2d28"/>
          <path d="M367.64,259.1H432.2a0,0,0,0,1,0,0v62.14a4.91,4.91,0,0,1-4.91,4.91H372.55a4.91,4.91,0,0,1-4.91-4.91V259.1A0,0,0,0,1,367.64,259.1Z" fill="#4c2d28"/>
        </g>
        <path d="M412.74,237.76h0a11.1,11.1,0,0,1,11.1-11.09h2.38A13.29,13.29,0,0,1,439.5,240v60a4.84,4.84,0,0,0,4.84,4.83h0a4,4,0,0,0,4-4V300a4,4,0,0,1,4-4h0a4,4,0,0,1,4,4h0a19.34,19.34,0,0,1-19.33,19.33h0a21.75,21.75,0,0,1-21.75-21.75V247.61S413.55,237,412.74,237.76Z" fill="#4c2d28"/>
        <rect x="329.69" y="440.65" width="21.3" height="9.31" rx="4.53" ry="4.53" transform="translate(324.54 -114.94) rotate(35.77)" fill="#f5f5f5"/>
        <rect x="355.75" y="528.2" width="78.26" height="8.52" rx="4.26" ry="4.26" fill="#fff"/>
        <rect x="385.72" y="682.62" width="7.3" height="3.66" transform="translate(778.75 1368.9) rotate(-180)" fill="#4c2d28"/>
        <g>
          <path d="M371.86,595.26l23.59-.81-3.4,86.16s-15.16,5.07-15.43.63S371.86,595.26,371.86,595.26Z" fill="#181819"/>
          <path d="M365.47,677.76c7.94-1.38,20.25-4.87,20.25-4.87L390,676h.83l1.13,2.84V686h-8v-.72l.42-1.15a3.29,3.29,0,0,0-3.1,1.87H359.16S357.12,679.66,365.47,677.76Z" fill="#181819"/>
          <path d="M392,682v4h-8v-.72l.42-1.15a3.29,3.29,0,0,0-3.1,1.87H359.16a8.1,8.1,0,0,1,.09-4Z" fill="#543330"/>
        </g>
        <g>
          <path d="M397.12,595h23.6l-6.32,85.91s-15.33,4.59-15.45.14S397.12,595,397.12,595Z" fill="#171719"/>
          <path d="M387.24,677.76c7.95-1.38,20.25-4.87,20.25-4.87l4.33,3.11h.82l2.36,2.84V686H405v-.72l.81-1.15a2.89,2.89,0,0,0-2.72,1.87H380.93S378.89,679.66,387.24,677.76Z" fill="#171719"/>
          <path d="M415,682v4H405v-.72l.81-1.15a2.89,2.89,0,0,0-2.72,1.87H380.93a8.1,8.1,0,0,1,.09-4Z" fill="#4c2d28"/>
        </g>
      </g>
    </g>
  </g>
</svg>
