<svg xmlns="http://www.w3.org/2000/svg" width="79.53" height="97.02" viewBox="0 0 79.53 97.02">
  <title>Asset 2</title>
  <g id="793f75ad-49af-4b33-9dcb-193cf67daa6c" data-name="Layer 2">
    <g id="6fc8ddb1-2dcf-4956-9ac8-66af7509dcdf" data-name="Layer 1">
      <g id="d51de6d6-8c5b-4b0a-9aa1-2b158a1bbee6" data-name="Layer 15">
        <circle cx="39.77" cy="50.89" r="39.77" fill="#00b956"/>
        <g>
          <path d="M50.35,70.52V89.24L28.81,83.87V70.52a9,9,0,0,1,9-9h3.59A9,9,0,0,1,50.35,70.52Z" fill="#ef9f8a"/>
          <g>
            <path d="M52.73,71l-25.5.42c-6.24.1-12-4.44-12.69-10.4L10.91,31.76c-1-8.3,4.69-15.42,12.71-15.29l32.6.54c7.63.12,13,7.17,12,15.16L64.85,60.54C64.16,66.34,58.74,70.93,52.73,71Z" fill="#352525"/>
            <path d="M62.2,33.74v33.2c0,.52,0,1.53-.15,2.75-.25,3.14-.81,7.67-1.67,8.7L47.5,91.91A8.42,8.42,0,0,1,41,95H38.63A8.46,8.46,0,0,1,32.17,92L18.86,78.41c-1-1.22-1.67-7.27-1.85-10.25,0-.54,0-1,0-1.28V33.93a8.08,8.08,0,0,1,5.35-7.53l13.49-5a8.16,8.16,0,0,1,2.13-.5,8.49,8.49,0,0,1,3.5.37l15.05,4.85A8.09,8.09,0,0,1,62.2,33.74Z" fill="#ffb597"/>
            <path d="M69.5,4.87C69,3.26,68.48,1.63,67.9,0L24.77,13.08a20.08,20.08,0,0,0-5.51,3A7.58,7.58,0,0,0,17,24.87c3.4,1,6.89,0,10.33-.57l.13,0a33.06,33.06,0,0,0,4.18,3.34C48.66,36.18,76.13,27.83,69.5,4.87Z" fill="#352525"/>
            <g>
              <path d="M18.44,68.26H15.89c-3.07,0-5.55-3.45-5.55-7.69V58.2c0-3.59,2.1-6.5,4.69-6.5h3.41Z" fill="#ffb597"/>
              <path d="M60.38,68h2.48c3,0,5.37-3.34,5.37-7.45V58.26c0-3.48-2-6.3-4.54-6.3H60.38Z" fill="#ffb597"/>
            </g>
            <g>
              <path d="M62.71,49.64V69.42c0,.5,0,1.49-.15,2.67-.88,9.83-9.13,15.29-15.86,21.58a9.7,9.7,0,0,1-6.71,3s-.81,0-.81,0a9.6,9.6,0,0,1-6.71-2.94C25.28,87,17.52,82.32,16.61,72.09c0-.06,0-.12,0-.19-.1-1.1-.15-2-.15-2.48V49.64a.36.36,0,0,1,.72,0l2,15.05.6,4.54A1.08,1.08,0,0,0,21.3,70L26,67.6a9.35,9.35,0,0,1,7-.66l4,2.2a9.27,9.27,0,0,0,5.27,0l4-2.2a9.35,9.35,0,0,1,7,.66L57.87,70a1.08,1.08,0,0,0,1.57-.82L59.86,66,62,49.6A.35.35,0,0,1,62.71,49.64Z" fill="#634747"/>
              <path d="M39.92,97c-.34,0-.59,0-.76,0h0a10.07,10.07,0,0,1-7-3.07c-1.29-1.2-2.64-2.37-3.93-3.5-5.8-5-11.27-9.79-12-18.3,0,0,0-.06,0-.1v-.09c-.11-1.15-.15-2.08-.15-2.52V49.64a.75.75,0,0,1,1.5-.09l2.57,19.59a.64.64,0,0,0,.36.52.69.69,0,0,0,.64,0l4.66-2.41a9.74,9.74,0,0,1,7.26-.7l.07,0,4,2.18a8.94,8.94,0,0,0,5,0l4.06-2.22a9.74,9.74,0,0,1,7.26.7l4.66,2.41a.69.69,0,0,0,.64,0,.64.64,0,0,0,.36-.52l2.57-19.59a.75.75,0,0,1,1.49.09V69.42c0,.5,0,1.5-.16,2.71-.75,8.34-6.73,13.61-12.53,18.72-1.14,1-2.33,2.05-3.45,3.1A10.18,10.18,0,0,1,40,97Zm-.35-.78H40a9.37,9.37,0,0,0,6.43-2.84c1.15-1.07,2.33-2.12,3.49-3.13,5.67-5,11.54-10.18,12.26-18.21.11-1.18.15-2.16.15-2.64V50.19l-2.49,19a1.48,1.48,0,0,1-2.14,1.12L53,68a8.89,8.89,0,0,0-6.63-.65l-4.07,2.21a9.51,9.51,0,0,1-5.49,0l-.08,0-4-2.18a8.89,8.89,0,0,0-6.63.65l-4.66,2.41a1.48,1.48,0,0,1-2.14-1.12L16.78,49.65l.06,19.77c0,.43,0,1.32.14,2.45a.77.77,0,0,1,0,.1v.09c.73,8.2,5.84,12.64,11.76,17.79,1.3,1.13,2.65,2.3,4,3.54a9.36,9.36,0,0,0,6.46,2.83Z" fill="#634747"/>
            </g>
          </g>
          <g>
            <g id="408d244e-5281-4163-867f-e5d67a7532d5">
              <path d="M25.32,45.51l.78,2.75s4.31-2.75,6.67-.79l.39-3.92S27.28,42,25.32,45.51Z" fill="#352525"/>
            </g>
            <g id="044f88e5-5841-4015-b359-35faef5975f6">
              <path d="M53.84,45.51l-.78,2.75s-4.32-2.75-6.67-.79L46,43.55S51.88,42,53.84,45.51Z" fill="#352525"/>
            </g>
          </g>
          <g id="d63a005e-cb5f-4b0f-95c2-7bea075f2086">
            <path d="M32.83,77.36a.51.51,0,0,0-.45.75A8.22,8.22,0,0,0,39.58,82a8.23,8.23,0,0,0,7.21-3.87.51.51,0,0,0-.45-.75Z" fill="#fff"/>
          </g>
          <g id="1b01783b-c3c8-4739-928b-f20a7b68e72f">
            <path d="M49.88,55.73h0c1.45,0,2.63-.8,2.63-1.78V52.37c0-1-1.18-1.78-2.63-1.78h0c-1.44,0-2.63.8-2.63,1.78V54C47.25,54.93,48.44,55.73,49.88,55.73Z" fill="#67413a"/>
          </g>
          <g id="86536cf3-e2d8-4bca-9961-8c22f772be88">
            <path d="M29.3,55.69h0c1.43,0,2.6-.79,2.6-1.76V52.35c0-1-1.17-1.76-2.6-1.76h0c-1.44,0-2.61.79-2.61,1.76v1.58C26.69,54.9,27.86,55.69,29.3,55.69Z" fill="#67413a"/>
          </g>
          <g>
            <g>
              <path d="M30.1,65H22.89a8,8,0,0,1-8-8v-7.2s0-2,.13-2.58l2.79.52c0,.27-.08,1.58-.08,2.06V57a5.2,5.2,0,0,0,5.19,5.19H30.1A5.2,5.2,0,0,0,35.29,57v-7.2A5.39,5.39,0,0,0,35,48.14c-.05-.16-.13-.33-.2-.5l2.63-1.09c.09.23.19.46.27.7a8.09,8.09,0,0,1,.4,2.52V57A8,8,0,0,1,30.1,65Z" fill="#000429"/>
              <polygon points="11.85 54.69 9.72 52.82 15.63 46.07 37.59 45.63 38.12 50.67 35.3 50.96 35.04 48.53 16.94 48.88 11.85 54.69" fill="#000429"/>
            </g>
            <g id="fc7e52f8-0c89-4f18-a025-35c782b7688d">
              <path d="M56.28,65H49.07a8,8,0,0,1-8-8v-7.2a7.94,7.94,0,0,1,.4-2.51c.08-.25.18-.48.27-.71l2.62,1.08c-.06.17-.14.35-.2.53a5.11,5.11,0,0,0-.25,1.61V57a5.19,5.19,0,0,0,5.19,5.19h7.21A5.2,5.2,0,0,0,61.47,57v-7.2c0-.48,0-1.78-.08-2.06l2.79-.52c.11.6.13,2.56.13,2.58V57A8,8,0,0,1,56.28,65Z" fill="#000429"/>
              <polygon points="67.32 54.69 62.23 48.88 44.13 48.53 43.87 50.96 41.05 50.66 41.58 45.63 63.54 46.06 69.45 52.82 67.32 54.69" fill="#000429"/>
            </g>
          </g>
          <rect x="37.06" y="45.64" width="5.01" height="3" fill="#000429"/>
        </g>
      </g>
    </g>
  </g>
</svg>
