<svg xmlns="http://www.w3.org/2000/svg" xmlns:xlink="http://www.w3.org/1999/xlink" width="78.78" height="88.27" viewBox="0 0 78.78 88.27">
  <defs>
    <symbol id="083d7591-3910-4db8-9f1e-edd7524e1d8f" data-name="New Symbol 3" viewBox="0 0 21.01 10.68">
      <path d="M.75,0C.18,0-.18,1,.09,1.72c1.89,5.31,5.84,9,10.42,9S19,7,20.92,1.72C21.19,1,20.83,0,20.26,0Z" fill="#fff"/>
    </symbol>
    <symbol id="bdc13e9e-6ea4-4956-a7ee-81b41650c75d" data-name="New Symbol 2" viewBox="0 0 3.26 4.72">
      <path d="M1.63,4.72h0A1.63,1.63,0,0,1,0,3.09V1.63A1.63,1.63,0,0,1,1.63,0h0A1.63,1.63,0,0,1,3.26,1.63V3.09A1.63,1.63,0,0,1,1.63,4.72Z" fill="#67413a"/>
    </symbol>
    <symbol id="811c492d-ec52-470b-83dd-b50352e00ef8" data-name="New Symbol 66" viewBox="0 0 14.06 6.75">
      <path d="M13.15,1.58A19.05,19.05,0,0,0,1,.56L0,.8,1.24,5.85l1-.23a13.73,13.73,0,0,1,8.86.73l.91.4L14.06,2Z" fill="#96686c"/>
    </symbol>
  </defs>
  <title>Asset 1</title>
  <g id="8d8f3151-d944-4439-bfc8-f508e0fec42f" data-name="Layer 2">
    <g id="92576052-f02e-454d-b8a9-2109b2ffa8d8" data-name="Layer 12">
      <circle cx="39.39" cy="48.88" r="39.39" fill="#67008d"/>
      <g>
        <g>
          <path d="M63.66,13.74C62,10.52,58.33,9.51,53.57,7.09L51,5.74l-.81-.4h-.1A24.7,24.7,0,0,0,30.28,5s0,0,0,0c-.57.23-1.12.49-1.67.76C22.27,8.94,14.14,11.11,15.1,20l2,18.9L18.23,49a11.83,11.83,0,0,0,2.08,5.55c.16.23.32.44.49.66a10.62,10.62,0,0,0,8.34,4.08l21.93-.42A10.4,10.4,0,0,0,58.72,55c.17-.21.33-.42.49-.64a12,12,0,0,0,2.28-5.89l1-9.55,1.94-18.51C64.74,17.39,64.44,15.31,63.66,13.74Z" fill="#000429"/>
          <path d="M59.3,56.29V27a7.15,7.15,0,0,0-4.95-6.76L41.4,16a7.11,7.11,0,0,0-4.86.12L24.42,20.52c-2.77,1.06-5.12,3.7-5.12,6.65V56.23c0,.26.53.79.55,1.27a30.71,30.71,0,0,0,3.94,10.72h0l1,1.14c1.55,1.56,4.6,4.5,7.08,5.64.28.12.58.26.88.37h0a2.18,2.18,0,0,1,.36.15,20.76,20.76,0,0,0,12.22.74,22.93,22.93,0,0,0,8.39-5.47l2.6-2.58H56.3v-.37l1.36-1.46c.73-.91,1.26-4.91,1.47-7.67C59.22,57.64,59.3,56.74,59.3,56.29Z" fill="#fbba9f"/>
          <use width="21.01" height="10.67" transform="translate(32.12 61.19) scale(0.74 0.52)" xlink:href="#083d7591-3910-4db8-9f1e-edd7524e1d8f"/>
          <path d="M27.39.34A21.08,21.08,0,0,0,15.14,9.82l5.28-.88A78.18,78.18,0,0,0,6.13,28.38C12,29.79,17.84,31.2,23.77,31a24.38,24.38,0,0,0,16.71-6.78l-3.37,6.25c1-1.81,8.21-3.45,10.09-4.52a47.47,47.47,0,0,0,8.17-5.86c3.92-3.58,7-8.07,5.07-12.38A16.59,16.59,0,0,0,52.63,0Z" fill="#000429"/>
          <use id="cd8cc26a-430c-414f-917a-7fa33b0b4cdb" data-name="New Symbol 2" width="3.26" height="4.72" transform="matrix(-1.86, 0, 0, 1.12, 51.64, 42.35)" xlink:href="#bdc13e9e-6ea4-4956-a7ee-81b41650c75d"/>
          <use id="bf5bfa04-fa70-47fe-a502-8a9166242190" data-name="New Symbol 66" width="14.06" height="6.75" transform="translate(45.26 35.51) scale(0.61)" xlink:href="#811c492d-ec52-470b-83dd-b50352e00ef8"/>
          <g id="89c5af80-d9e2-4053-93b4-ac09e941c431" data-name="&lt;Group&gt;">
            <use id="ab447749-48a9-4f80-afc4-e93c7ec339b5" data-name="New Symbol 66" width="14.06" height="6.75" transform="matrix(-0.61, 0, 0, 0.61, 34.31, 35.51)" xlink:href="#811c492d-ec52-470b-83dd-b50352e00ef8"/>
          </g>
          <use id="18fc8d09-8c1a-4f57-827b-4558d5aa86a0" data-name="New Symbol 2" width="3.26" height="4.72" transform="matrix(-1.86, 0, 0, 1.12, 33.98, 42.4)" xlink:href="#bdc13e9e-6ea4-4956-a7ee-81b41650c75d"/>
        </g>
        <path d="M20.3,34.17a5.27,5.27,0,0,0-.36-1H18.45c-3.88,0-7.15,4.11-7.15,8v8.42c0,3.88,3.27,7.59,7.15,7.59h1.49c.07,0,.36-.55.36-.55Z" fill="#c4e3f7"/>
        <rect x="15.67" y="30.94" width="4.47" height="7.34" fill="#c4e3f7"/>
        <path d="M59.3,33.35s.05-.13.12-.13h1.52a7.46,7.46,0,0,1,7.36,7.29v8.54c0,3.94-3.42,8.17-7.36,8.17H59.42a5,5,0,0,1-.12-1Z" fill="#c4e3f7"/>
        <path d="M60.26,11.4a27.08,27.08,0,0,1-3.63,6.31,13.23,13.23,0,0,1,1.76,4,17.91,17.91,0,0,1,.6,4.22,11.18,11.18,0,0,1-.09,1.29,58.11,58.11,0,0,1,.31,6.4c0,15.61,4.47,0,4.47,0l.07-.19S65.11,16.93,60.26,11.4Z" fill="#c4e3f7"/>
        <polygon points="15.83 32.2 15.29 31.37 15.29 30.35 20.02 30.92 18.86 31.88 15.83 32.2" fill="#c4e3f7"/>
        <path d="M47.16,62.45s13.68,2,13.47-6.15" fill="none" stroke="#a3becc" stroke-miterlimit="10" stroke-width="5"/>
        <path d="M50.29,59.22H45.86a2.5,2.5,0,0,0,0,5H52.3v-5Z" fill="#c4e3f7"/>
      </g>
    </g>
  </g>
</svg>
