<svg xmlns="http://www.w3.org/2000/svg" width="79.53" height="101.49" viewBox="0 0 79.53 101.49">
  <g style="isolation: isolate">
    <g id="5152e57a-d8ae-4568-8aaf-01a5830bddd5" data-name="Layer 2">
      <g id="f025685c-3163-4031-914e-d61580d7e740" data-name="Layer 1">
        <g id="b345f9e4-c582-44d6-a405-5c26f57d709f" data-name="Layer 14">
          <circle cx="39.77" cy="61.72" r="39.77" fill="#fecb05"/>
          <g>
            <g id="c49e44b7-d084-4e44-91fe-cc3433568024">
              <circle cx="40.59" cy="16.83" r="16.83" transform="translate(14.88 52.46) rotate(-76.72)" fill="#ba8f56"/>
              <g opacity="0.28" style="mix-blend-mode: multiply">
                <path d="M24.31,22.87a16.84,16.84,0,0,1,32.55,0Z" fill="#2d2a5f"/>
              </g>
            </g>
            <rect x="11.84" y="18.43" width="57.49" height="66.34" rx="25.87" ry="25.87" fill="#ba8f56"/>
            <g>
              <ellipse cx="21.18" cy="64.89" rx="4.2" ry="6.03" fill="#e2aea1"/>
              <ellipse cx="59.49" cy="64.89" rx="4.38" ry="6.03" fill="#e2aea1"/>
            </g>
            <path d="M21.18,54.23V71a14.65,14.65,0,0,0,5,10.89l8.9,8a9.14,9.14,0,0,0,11.94,0L55,82.82a14.64,14.64,0,0,0,5-10.89V56.61L29,42.34Z" fill="#fac1b1"/>
            <path d="M33.26,75.8c-.43,0-.7.72-.5,1.3,1.42,4,4.39,6.72,7.83,6.72s6.4-2.74,7.82-6.72c.2-.58-.07-1.3-.5-1.3Z" fill="#fff"/>
            <g id="db88c5d8-b781-446f-ab18-bdcf0cb60de7">
              <g id="d6b79096-b88d-49d1-b500-f268ad3779b2">
                <g>
                  <g id="442ace0a-f8af-4ef5-a4bf-e09c0d123212">
                    <path d="M31.08,64.24h0c-1.31,0-2.38-.73-2.38-1.61V61.18c0-.89,1.07-1.62,2.38-1.62h0c1.32,0,2.39.73,2.39,1.62v1.45C33.47,63.51,32.4,64.24,31.08,64.24Z" fill="#67413a"/>
                  </g>
                  <g id="d7aff318-924c-4026-a182-b6668be9b67f">
                    <path d="M28.59,56.4l-.36-1.49a8.63,8.63,0,0,1,5.54.46l-.61,1.41A7.16,7.16,0,0,0,28.59,56.4Z" fill="#b0593c"/>
                  </g>
                </g>
              </g>
              <g id="92d2047f-93d8-4fcf-ba7d-d447909f11e5">
                <g>
                  <g id="10199999-8f00-48c3-bfe3-f84b17176462">
                    <path d="M50.09,64.24h0c1.31,0,2.38-.73,2.38-1.61V61.18c0-.89-1.07-1.62-2.38-1.62h0c-1.32,0-2.39.73-2.39,1.62v1.45C47.7,63.51,48.77,64.24,50.09,64.24Z" fill="#67413a"/>
                  </g>
                  <g id="0a4657bb-d2a3-43b9-a88b-0e662299a0b8">
                    <path d="M52.58,56.4l.36-1.49a8.63,8.63,0,0,0-5.54.46L48,56.78A7.12,7.12,0,0,1,52.58,56.4Z" fill="#b0593c"/>
                  </g>
                </g>
              </g>
            </g>
          </g>
        </g>
      </g>
    </g>
  </g>
</svg>
