<svg xmlns="http://www.w3.org/2000/svg" width="85.56" height="57.62" viewBox="0 0 85.56 57.62">
  <title>Asset 2</title>
  <g id="6ed8c7c8-2b5d-49de-bc8a-1a3fbff4104f" data-name="Layer 2">
    <g id="855e2506-49c1-45f7-924e-890448bd0c7a" data-name="Layer 11">
      <g>
        <path d="M78.93,27.87c-8.94-.14-18.68.42-28-.51-16.81.44-33.63.79-50.41.11V40c0,4.28,2.7,8.22,7,8.22h25c5.36,0,9.67,4.3,10.7,9.45,1-5.19,5.45-9.45,10.87-9.45H77.76c4.27,0,7.8-3.94,7.8-8.22V28Z" fill="#fff"/>
        <rect width="85.56" height="48.33" rx="5" ry="5" fill="#fff"/>
      </g>
      <g>
        <g>
          <path d="M11.31,20.51l2.27,2.27a20.39,20.39,0,0,1,14.21-6A19.63,19.63,0,0,1,42,22.54l2.23-2.27a22.69,22.69,0,0,0-16.48-6.63A23.5,23.5,0,0,0,11.31,20.51Z" fill="#000429"/>
          <path d="M16.78,25.69,19,28a12.68,12.68,0,0,1,8.78-3.75,11.92,11.92,0,0,1,8.78,3.51l2.24-2.28A15.11,15.11,0,0,0,27.75,21,15.87,15.87,0,0,0,16.78,25.69Z" fill="#000429"/>
          <path d="M22,31l2.28,2.28a5,5,0,0,1,7-.24l2.28-2.28A8.17,8.17,0,0,0,22,31Z" fill="#000429"/>
        </g>
        <rect x="52.07" y="22.22" width="23.03" height="4.54" transform="translate(35.94 -37.79) rotate(45)" fill="#e05443"/>
        <rect x="52.07" y="22.22" width="23.03" height="4.54" transform="translate(125.86 -3.15) rotate(135)" fill="#e05443"/>
      </g>
    </g>
  </g>
</svg>
