<svg xmlns="http://www.w3.org/2000/svg" xmlns:xlink="http://www.w3.org/1999/xlink" width="79.53" height="94.1" viewBox="0 0 79.53 94.1">
  <defs>
    <clipPath id="4270339a-a5a5-4517-b48c-8d90ee5ee830">
      <circle cx="39.77" cy="49.06" r="39.77" fill="none"/>
    </clipPath>
    <symbol id="89b87a5b-2873-4f3b-bf03-1d64a4d8f734" data-name="New Symbol 23" viewBox="0 0 3.26 4.72">
      <path d="M1.63,4.72h0A1.63,1.63,0,0,1,0,3.09V1.63A1.63,1.63,0,0,1,1.63,0h0A1.63,1.63,0,0,1,3.26,1.63V3.09A1.63,1.63,0,0,1,1.63,4.72Z" fill="#67413a"/>
    </symbol>
  </defs>
  <title>Asset 1</title>
  <g id="7a54de03-c6a0-45d5-bd3d-06f3dc238303" data-name="Layer 2">
    <g id="e7aee0ae-2727-4cae-b25f-3a509f36f30d" data-name="Layer 11">
      <g clip-path="url(#4270339a-a5a5-4517-b48c-8d90ee5ee830)">
        <circle cx="39.77" cy="49.06" r="39.77" fill="#000429"/>
        <g>
          <path d="M48.76,8.52h0A8.53,8.53,0,0,0,40.23,0H38.41A10.21,10.21,0,0,0,28.2,10.21V56.3A3.71,3.71,0,0,1,24.49,60h0a3.09,3.09,0,0,1-3.1-3.09V56.3a3.09,3.09,0,0,0-3.09-3.09h0a3.09,3.09,0,0,0-3.09,3.09h0A14.84,14.84,0,0,0,30.05,71.15h0a16.71,16.71,0,0,0,16.71-16.7V16.09S48.14,7.91,48.76,8.52Z" fill="#543330"/>
          <g>
            <path d="M13.87,39.18H67.79a0,0,0,0,1,0,0V87.6a6.5,6.5,0,0,1-6.5,6.5H20.37a6.5,6.5,0,0,1-6.5-6.5V39.18A0,0,0,0,1,13.87,39.18Z" fill="#4c2d28"/>
            <rect x="22.08" y="48.66" width="37.49" height="45.44" fill="#3a201d"/>
          </g>
          <rect x="13.45" y="4.63" width="54.76" height="63.19" rx="24.64" ry="24.64" fill="#4c2d28"/>
          <g id="bc7440af-7a11-4c5d-bd06-72c6e002f5ef" data-name="&lt;Group&gt;">
            <rect x="33.88" y="64.98" width="13.9" height="28.12" rx="5.53" ry="5.53" fill="#fac1b1"/>
            <path d="M47.78,71.14v13c-3.66-2.34-9.73-6.17-13.9-8.62V71.14a5.55,5.55,0,0,1,5.53-5.53h2.84A5.55,5.55,0,0,1,47.78,71.14Z" fill="#ddaa9e"/>
          </g>
          <g>
            <rect x="56.46" y="44.79" width="6.35" height="12.02" rx="3.17" ry="3.17" fill="#ddaa9e"/>
            <rect x="18.71" y="44.79" width="6.35" height="12.02" rx="3.17" ry="3.17" fill="#ddaa9e"/>
            <path d="M22.34,38.12V56a16.37,16.37,0,0,0,4.8,11.57L35.61,76A8.05,8.05,0,0,0,47,76l7.53-7.53a16.36,16.36,0,0,0,4.79-11.57V40.65L29.8,25.49Z" fill="#fac1b1"/>
          </g>
          <path d="M33.85,63.77a.62.62,0,0,0-.47.91,8.25,8.25,0,0,0,14.9,0,.63.63,0,0,0-.47-.91Z" fill="#fff"/>
          <use id="aefcb309-a8b1-4b69-a4e1-1a9cd455d0dd" data-name="New Symbol 23" width="3.26" height="4.72" transform="translate(29.5 43.82) scale(1.39 0.92)" xlink:href="#89b87a5b-2873-4f3b-bf03-1d64a4d8f734"/>
          <use id="92744d9e-f42b-40cb-831c-cc392399f308" data-name="New Symbol 23" width="3.26" height="4.72" transform="matrix(-1.39, 0, 0, 0.92, 52.15, 43.82)" xlink:href="#89b87a5b-2873-4f3b-bf03-1d64a4d8f734"/>
          <g>
            <circle cx="28.98" cy="57.29" r="2.53" fill="#fc8883" opacity="0.36"/>
            <g id="7407f1ee-9612-48f8-9a18-d74301ff57c2" data-name="&lt;Group&gt;">
              <circle cx="52.68" cy="57.29" r="2.53" fill="#fc8883" opacity="0.36"/>
            </g>
          </g>
          <g>
            <path d="M34.8,55H26.71c-2.66,0-4.83-2.83-4.83-6.31V45.19c0-3.48,2.17-6.31,4.83-6.31H34.8c2.66,0,4.83,2.83,4.83,6.31v3.49C39.63,52.16,37.46,55,34.8,55ZM26.71,40.82c-1.85,0-3.35,2-3.35,4.37v3.49c0,2.42,1.5,4.38,3.35,4.38H34.8c1.85,0,3.35-2,3.35-4.38V45.19c0-2.41-1.5-4.37-3.35-4.37Z" fill="#67008d"/>
            <rect x="38.54" y="42.55" width="4.32" height="3.79" fill="#67008d"/>
            <g>
              <rect x="58.43" y="40.97" width="4.51" height="3.79" fill="#67008d"/>
              <rect x="18.71" y="40.97" width="4.34" height="3.79" fill="#67008d"/>
            </g>
            <g id="96c1e9ef-4189-4b34-8c3f-41764397ebeb" data-name="&lt;Group&gt;">
              <path d="M54.81,55H46.72c-2.66,0-4.83-2.83-4.83-6.31V45.19c0-3.48,2.17-6.31,4.83-6.31h8.09c2.66,0,4.83,2.83,4.83,6.31v3.49C59.64,52.16,57.47,55,54.81,55ZM46.72,40.82c-1.85,0-3.35,2-3.35,4.37v3.49c0,2.42,1.5,4.38,3.35,4.38h8.09c1.85,0,3.35-2,3.35-4.38V45.19c0-2.41-1.5-4.37-3.35-4.37Z" fill="#67008d"/>
            </g>
          </g>
          <polygon points="40.28 38.15 37.16 38.23 23.68 15.06 36.49 15.4 40.28 38.15" fill="#4c2d28"/>
        </g>
      </g>
      <g>
        <path d="M48.76,8.52h0A8.53,8.53,0,0,0,40.23,0H38.41A10.21,10.21,0,0,0,28.2,10.21V56.3A3.71,3.71,0,0,1,24.49,60h0a3.09,3.09,0,0,1-3.1-3.09V56.3a3.09,3.09,0,0,0-3.09-3.09h0a3.09,3.09,0,0,0-3.09,3.09h0A14.84,14.84,0,0,0,30.05,71.15h0a16.71,16.71,0,0,0,16.71-16.7V16.09S48.14,7.91,48.76,8.52Z" fill="#543330"/>
        <g>
          <path d="M16.41,79.84a9.73,9.73,0,0,0,.65,1.29c0-.11.11,0,.44.35a16.44,16.44,0,0,1,1.84,1,44.24,44.24,0,0,0,5.38,1.28,90.57,90.57,0,0,0,12.41.53c5.88,0,13.76,1.2,19-2.19a84.14,84.14,0,0,0,11.67-9.29V39.18H13.87V76.86A7.53,7.53,0,0,1,16.41,79.84Z" fill="#4c2d28"/>
          <path d="M24.72,83.73a90.57,90.57,0,0,0,12.41.53c5.88,0,13.76,1.2,19-2.19,1.13-.74,2.29-1.55,3.45-2.4v-31H22.08V83.19C23,83.42,24,83.63,24.72,83.73Z" fill="#3a201d"/>
        </g>
        <rect x="13.45" y="4.63" width="54.76" height="63.19" rx="24.64" ry="24.64" fill="#4c2d28"/>
        <g id="06afd8d1-39a6-4564-b9fc-4db873b61493" data-name="&lt;Group&gt;">
          <path d="M37.13,86.22c3.2,0,7-.54,10.65-.77V70.51A5.55,5.55,0,0,0,42.25,65H39.41a5.55,5.55,0,0,0-5.53,5.53V86.22C35,86.23,36.08,86.22,37.13,86.22Z" fill="#fac1b1"/>
          <path d="M47.78,71.14v13c-3.66-2.34-9.73-6.17-13.9-8.62V71.14a5.55,5.55,0,0,1,5.53-5.53h2.84A5.55,5.55,0,0,1,47.78,71.14Z" fill="#ddaa9e"/>
        </g>
        <g>
          <rect x="56.46" y="44.79" width="6.35" height="12.02" rx="3.17" ry="3.17" fill="#ddaa9e"/>
          <rect x="18.71" y="44.79" width="6.35" height="12.02" rx="3.17" ry="3.17" fill="#ddaa9e"/>
          <path d="M22.34,38.12V56a16.37,16.37,0,0,0,4.8,11.57L35.61,76A8.05,8.05,0,0,0,47,76l7.53-7.53a16.36,16.36,0,0,0,4.79-11.57V40.65L29.8,25.49Z" fill="#fac1b1"/>
        </g>
        <path d="M33.85,63.77a.62.62,0,0,0-.47.91,8.25,8.25,0,0,0,14.9,0,.63.63,0,0,0-.47-.91Z" fill="#fff"/>
        <use id="7b836f05-1b44-49af-b15e-d326935dedf3" data-name="New Symbol 23" width="3.26" height="4.72" transform="translate(29.5 43.82) scale(1.39 0.92)" xlink:href="#89b87a5b-2873-4f3b-bf03-1d64a4d8f734"/>
        <use id="8e37393d-bb90-471a-915a-82923dd3c628" data-name="New Symbol 23" width="3.26" height="4.72" transform="matrix(-1.39, 0, 0, 0.92, 52.15, 43.82)" xlink:href="#89b87a5b-2873-4f3b-bf03-1d64a4d8f734"/>
        <g>
          <circle cx="28.98" cy="57.29" r="2.53" fill="#fc8883" opacity="0.36"/>
          <g id="7e2317f6-1c49-4fa8-ac84-fd986840b0a2" data-name="&lt;Group&gt;">
            <circle cx="52.68" cy="57.29" r="2.53" fill="#fc8883" opacity="0.36"/>
          </g>
        </g>
        <g>
          <path d="M34.8,55H26.71c-2.66,0-4.83-2.83-4.83-6.31V45.19c0-3.48,2.17-6.31,4.83-6.31H34.8c2.66,0,4.83,2.83,4.83,6.31v3.49C39.63,52.16,37.46,55,34.8,55ZM26.71,40.82c-1.85,0-3.35,2-3.35,4.37v3.49c0,2.42,1.5,4.38,3.35,4.38H34.8c1.85,0,3.35-2,3.35-4.38V45.19c0-2.41-1.5-4.37-3.35-4.37Z" fill="#67008d"/>
          <rect x="38.54" y="42.55" width="4.32" height="3.79" fill="#67008d"/>
          <g>
            <rect x="58.43" y="40.97" width="4.51" height="3.79" fill="#67008d"/>
            <rect x="18.71" y="40.97" width="4.34" height="3.79" fill="#67008d"/>
          </g>
          <g id="496f3e1b-f165-435a-8a78-0a270bf951b2" data-name="&lt;Group&gt;">
            <path d="M54.81,55H46.72c-2.66,0-4.83-2.83-4.83-6.31V45.19c0-3.48,2.17-6.31,4.83-6.31h8.09c2.66,0,4.83,2.83,4.83,6.31v3.49C59.64,52.16,57.47,55,54.81,55ZM46.72,40.82c-1.85,0-3.35,2-3.35,4.37v3.49c0,2.42,1.5,4.38,3.35,4.38h8.09c1.85,0,3.35-2,3.35-4.38V45.19c0-2.41-1.5-4.37-3.35-4.37Z" fill="#67008d"/>
          </g>
        </g>
        <polygon points="40.28 38.15 37.16 38.23 23.68 15.06 36.49 15.4 40.28 38.15" fill="#4c2d28"/>
      </g>
    </g>
  </g>
</svg>
