<svg id="a29d4ba2-30ff-4a71-99fd-8632b2ed3b82" data-name="Layer 1" xmlns="http://www.w3.org/2000/svg" width="174.44" height="172.75" viewBox="0 0 174.44 172.75">
  <title>cta-target</title>
  <rect x="-555.58" y="-1087.85" width="1280.5" height="1450.07" fill="#c7dce4"/>
  <rect x="-98.1" y="-204.74" width="372.51" height="427.33" fill="#fff"/>
  <text transform="translate(-57.44 -127.99)" font-size="36" font-family="Megafont, Megafont"><tspan fill="#67008d">МегаФон<tspan x="145.27" y="0" letter-spacing="-0.1em">.</tspan><tspan x="149.8" y="0" letter-spacing="-0.06em">Т</tspan><tspan x="167.77" y="0">аргет </tspan></tspan><tspan font-size="21.36" font-family="GTWalsheimv2Manual-Regular, GTWalsheimv2Manual Regular"><tspan x="0" y="19"></tspan></tspan><tspan font-size="18" font-family="GTWalsheimv2Manual-Regular, GTWalsheimv2Manual Regular"><tspan x="0" y="38" letter-spacing="-0.02em">С</tspan><tspan x="10.15" y="38">ервис SM</tspan><tspan x="83.61" y="38" letter-spacing="0em">S</tspan><tspan x="92.57" y="38">-ре</tspan><tspan x="117.36" y="38" letter-spacing="0.03em">к</tspan><tspan x="126.47" y="38">ламы </tspan><tspan x="0" y="64">с возм</tspan><tspan x="50.02" y="64" letter-spacing="-0.01em">о</tspan><tspan x="59.76" y="64">жно</tspan><tspan x="91.48" y="64" letter-spacing="0.02em">с</tspan><tspan x="99.83" y="64" letter-spacing="-0.01em">т</tspan><tspan x="107.12" y="64">ями </tspan><tspan x="141.33" y="64" letter-spacing="-0.02em">т</tspan><tspan x="148.37" y="64" letter-spacing="-0.01em">о</tspan><tspan x="158.07" y="64">чно</tspan><tspan x="187.05" y="64" letter-spacing="-0.02em">г</tspan><tspan x="193.62" y="64">о </tspan><tspan x="207.32" y="64" letter-spacing="-0.01em">о</tspan><tspan x="217.06" y="64" letter-spacing="0em">т</tspan><tspan x="224.53" y="64">бора </tspan><tspan x="0" y="90" letter-spacing="0em">ц</tspan><tspan x="9.83" y="90" letter-spacing="0em">е</tspan><tspan x="18.94" y="90" letter-spacing="0em">левой </tspan><tspan x="69.75" y="90" letter-spacing="-0.01em">а</tspan><tspan x="78.23" y="90" letter-spacing="-0.02em">у</tspan><tspan x="86.34" y="90">д</tspan><tspan x="95.88" y="90" letter-spacing="0em">и</tspan><tspan x="105.8" y="90" letter-spacing="-0.02em">т</tspan><tspan x="112.84" y="90">ории.</tspan></tspan></text>
  <circle cx="87.95" cy="86.5" r="85.91" fill="#00b956"/>
  <g>
    <path d="M88,132a29.53,29.53,0,1,1,20.9-8.65A29.35,29.35,0,0,1,88,132Zm0-52.1a22.55,22.55,0,1,0,15.94,6.61A22.38,22.38,0,0,0,88,79.91Z" fill="#fff" stroke="#00b956" stroke-width="3"/>
    <path d="M88,122.4a19.94,19.94,0,1,1,19.94-19.94A20,20,0,0,1,88,122.4Zm0-32.87a12.93,12.93,0,1,0,12.93,12.93A12.94,12.94,0,0,0,88,89.53Z" fill="#fff" stroke="#00b956" stroke-width="3"/>
    <path d="M88,112.69a10.24,10.24,0,1,1,10.23-10.23A10.24,10.24,0,0,1,88,112.69Zm0-13.46a3.23,3.23,0,1,0,3.22,3.23A3.23,3.23,0,0,0,88,99.23Z" fill="#fff" stroke="#00b956" stroke-width="3"/>
  </g>
  <path d="M123.31,43.48H52.74a6.91,6.91,0,0,0-7.05,7.28V85.61c0,4.17,2.88,7.87,7.05,7.87H78.07c5,0,9,4,10,8.8,1-4.75,4.89-8.8,9.8-8.8h25.48c4.18,0,6.38-3.7,6.38-7.87V50.76C129.69,46.59,127.49,43.48,123.31,43.48Z" fill="#fff" stroke="#00b956" stroke-width="5"/>
  <circle cx="87.85" cy="69.13" r="5.26" fill="#00b956"/>
  <circle cx="104.47" cy="69.13" r="5.26" fill="#00b956"/>
  <circle cx="71.22" cy="69.13" r="5.26" fill="#00b956"/>
</svg>
