<svg id="f58da04d-f3dd-44d7-b66c-fc1b70bd0436" data-name="Layer 1" xmlns="http://www.w3.org/2000/svg" width="171.81" height="171.81" viewBox="0 0 171.81 171.81">
  <title>cta-ats</title>
  <rect x="-949.69" y="-1088.44" width="1280.5" height="1450.07" fill="#c7dce4"/>
  <rect x="-100.14" y="-204.59" width="372.51" height="427.33" fill="#fff"/>
  <circle cx="85.91" cy="85.91" r="85.91" fill="#00b956"/>
  <g>
    <path d="M118.29,67.64l.16.34a1.58,1.58,0,0,0,1.81.86,1.66,1.66,0,0,0,.29-.1,1.58,1.58,0,0,0,.76-2.1l-.18-.37a1.58,1.58,0,0,0-2.84,1.37Z" fill="#fff"/>
    <path d="M67.3,120.4l-.33-.15a1.58,1.58,0,1,0-1.31,2.87l.38.17a1.58,1.58,0,0,0,2.07-.81A1.58,1.58,0,0,0,67.3,120.4Z" fill="#fff"/>
    <path d="M60.12,116.28a1.58,1.58,0,0,0-1.85,2.55l.34.24a1.54,1.54,0,0,0,1.29.24,1.52,1.52,0,0,0,.9-.62,1.56,1.56,0,0,0-.37-2.19Z" fill="#fff"/>
    <path d="M43,92l.15,0a1.56,1.56,0,0,0,1.18-1.75l0-.38a1.57,1.57,0,1,0-3.12.43l.05.4A1.59,1.59,0,0,0,43,92Z" fill="#fff"/>
    <path d="M54.22,111a1.58,1.58,0,1,0-2.33,2.13l.28.3a1.59,1.59,0,0,0,1.53.45,1.56,1.56,0,0,0,.7-.38,1.58,1.58,0,0,0,.07-2.23Z" fill="#fff"/>
    <path d="M45.33,99.89a1.58,1.58,0,0,0,1-2l-.13-.36a1.57,1.57,0,1,0-3,1l.13.38a1.59,1.59,0,0,0,1.86,1Z" fill="#fff"/>
    <path d="M114.39,61.2a1.56,1.56,0,0,0,1.64.59,1.53,1.53,0,0,0,.56-.27,1.58,1.58,0,0,0,.32-2.21l-.24-.32a1.58,1.58,0,0,0-2.51,1.91Z" fill="#fff"/>
    <path d="M49.69,105l-.2-.32a1.57,1.57,0,0,0-2.7,1.62l.21.35a1.58,1.58,0,0,0,1.72.71,1.54,1.54,0,0,0,.44-.19A1.58,1.58,0,0,0,49.69,105Z" fill="#fff"/>
    <path d="M103.84,47.83a1.58,1.58,0,1,0-1.54,2.75l.32.18a1.6,1.6,0,0,0,1.17.17,1.58,1.58,0,0,0,.41-2.9Z" fill="#fff"/>
    <path d="M110.82,52.76a1.58,1.58,0,1,0-2.07,2.38l.28.25a1.57,1.57,0,0,0,2.23-.14,1.57,1.57,0,0,0-.13-2.22Z" fill="#fff"/>
    <path d="M122.23,73.14a1.57,1.57,0,0,0-1.15,1.91l0,.16.08.55a1.7,1.7,0,0,0,1.89,1.35h0A1.76,1.76,0,0,0,124.26,75l-.09-.59,0-.14A1.57,1.57,0,0,0,122.23,73.14Z" fill="#fff"/>
    <path d="M96.4,44.52,96,44.4a1.57,1.57,0,1,0-1,3l.36.11a1.52,1.52,0,0,0,.87,0,1.58,1.58,0,0,0,.12-3Z" fill="#fff"/>
    <path d="M88.07,42.66l-.41,0a1.57,1.57,0,1,0-.35,3.13l.38,0a1.54,1.54,0,0,0,.57,0,1.57,1.57,0,0,0-.19-3.09Z" fill="#fff"/>
  </g>
  <path d="M56.39,55.87s-11,.6-18.56,6.1a11.75,11.75,0,0,0-5.17,10.38s-.65,3.74,3.85,4.32l9.78.06s2.55.21,3.32-2.89L49.74,68s12.3-3.73,22.75.47L72.42,73a4,4,0,0,0,4.14,4.36l9.78.06a4,4,0,0,0,3.25-3.74A14.1,14.1,0,0,0,83.1,61.12S76.78,54.86,56.39,55.87Z" fill="#fff"/>
  <path d="M106.83,110s11-.6,18.55-6.1a11.73,11.73,0,0,0,5.18-10.38s.65-3.73-3.85-4.31l-9.78-.07s-2.55-.2-3.32,2.89l-.13,5.82s-12.31,3.73-22.75-.47l.07-4.51a4,4,0,0,0-4.15-4.35l-9.78-.07a4,4,0,0,0-3.25,3.74,14.1,14.1,0,0,0,6.49,12.56S86.44,111,106.83,110Z" fill="#fff"/>
  <circle cx="85.33" cy="43.24" r="6.15" fill="#fff"/>
  <circle cx="78.81" cy="125.19" r="6.15" fill="#fff"/>
</svg>
