<svg id="d1e73c40-f5dd-4f12-aa9b-f2809eb8bf0e" data-name="Layer 1" xmlns="http://www.w3.org/2000/svg" width="174.29" height="171.69" viewBox="0 0 174.29 171.69">
  <title>cta-800</title>
  <rect x="-155.66" y="-1088.48" width="1280.5" height="1450.07" fill="#c7dce4"/>
  <rect x="-93.05" y="-206.2" width="372.51" height="427.33" fill="#fff"/>
  <circle cx="87.41" cy="85.87" r="85.91" fill="#00b956"/>
  <g>
    <path d="M44.44,103.12a9.15,9.15,0,0,1,3.9-4.24A9.31,9.31,0,0,1,45,94.56a14,14,0,0,1-.77-4.35,11,11,0,0,1,2.89-7.68q2.88-3.18,8.14-3.18c3.5,0,6.22,1.06,8.14,3.18a11,11,0,0,1,2.88,7.68,14,14,0,0,1-.76,4.35,7.9,7.9,0,0,1-3.3,4,10.73,10.73,0,0,1,3.91,4.53,14.9,14.9,0,0,1,1.31,6.31,12.85,12.85,0,0,1-3.28,8.88Q60.92,122,55,122t-8.9-3.66a13.51,13.51,0,0,1-3-8.88A14.62,14.62,0,0,1,44.44,103.12Zm7.16,10.5a4.94,4.94,0,0,0,7.42,0,9.1,9.1,0,0,0,0-9.54,5,5,0,0,0-7.38,0,7.33,7.33,0,0,0-1.36,4.8A7.45,7.45,0,0,0,51.6,113.62ZM52,94.8a4.43,4.43,0,0,0,6.52,0,5.64,5.64,0,0,0,1.15-3.68,5.8,5.8,0,0,0-1.15-3.83,4.54,4.54,0,0,0-6.52,0,5.7,5.7,0,0,0-1.18,3.83A5.55,5.55,0,0,0,52,94.8Z" fill="#fff"/>
    <path d="M84.63,110.53a5.35,5.35,0,0,1,2.28-2.48A5.52,5.52,0,0,1,85,105.53a8.33,8.33,0,0,1-.44-2.54,6.44,6.44,0,0,1,1.68-4.48,7,7,0,0,1,9.5,0A6.44,6.44,0,0,1,97.39,103a8.33,8.33,0,0,1-.44,2.54A4.61,4.61,0,0,1,95,107.88a6.3,6.3,0,0,1,2.28,2.65,8.58,8.58,0,0,1,.77,3.67,7.47,7.47,0,0,1-1.92,5.18,6.77,6.77,0,0,1-5.34,2.14,6.31,6.31,0,0,1-5.19-2.14,7.84,7.84,0,0,1-1.77-5.18A8.44,8.44,0,0,1,84.63,110.53Zm4.18,6.12a2.88,2.88,0,0,0,4.33,0,5.3,5.3,0,0,0,0-5.57,2.91,2.91,0,0,0-4.3,0,5.33,5.33,0,0,0,0,5.57Zm.25-11a2.35,2.35,0,0,0,1.91.83,2.32,2.32,0,0,0,1.9-.83,3.29,3.29,0,0,0,.67-2.15,3.37,3.37,0,0,0-.67-2.23,2.33,2.33,0,0,0-1.9-.81,2.37,2.37,0,0,0-1.91.81,3.38,3.38,0,0,0-.68,2.23A3.3,3.3,0,0,0,89.06,105.67Z" fill="#fff"/>
    <path d="M112.59,99.85c1,2.16,1.57,5.23,1.57,9.21s-.53,7-1.57,9.2a6.27,6.27,0,0,1-11,0q-1.57-3.23-1.57-9.2t1.57-9.21a6.25,6.25,0,0,1,11,0Zm-7.85,15.57c.38,1.47,1.17,2.21,2.37,2.21s2-.74,2.34-2.21a27.08,27.08,0,0,0,.56-6.36,26.8,26.8,0,0,0-.56-6.45q-.56-2.1-2.34-2.1t-2.37,2.1a26.08,26.08,0,0,0-.58,6.45A26.36,26.36,0,0,0,104.74,115.42Z" fill="#fff"/>
    <path d="M128.65,99.85q1.57,3.24,1.57,9.21t-1.57,9.2a6.27,6.27,0,0,1-11,0q-1.57-3.23-1.57-9.2t1.57-9.21a6.25,6.25,0,0,1,11,0Zm-7.85,15.57c.39,1.47,1.18,2.21,2.37,2.21s2-.74,2.35-2.21a27.73,27.73,0,0,0,.55-6.36,27.45,27.45,0,0,0-.55-6.45c-.37-1.4-1.16-2.1-2.35-2.1s-2,.7-2.37,2.1a26.58,26.58,0,0,0-.58,6.45A26.88,26.88,0,0,0,120.8,115.42Z" fill="#fff"/>
  </g>
  <path d="M91.71,40.29s-16.32-4.33-30,.12c0,0-9.92,2.41-12.47,12.71,0,0-2.72,5.14,3.57,8.12L67.09,66s3.63,1.51,6.21-2.64l3-8.44s19.73.38,33,11.45L107,72.88s-2.48,6.05,4,8.33l14.25,4.72A6.16,6.16,0,0,0,131.75,82a21.65,21.65,0,0,0-3.52-21.41S122,48.46,91.71,40.29Z" fill="#fff"/>
</svg>
