<svg xmlns="http://www.w3.org/2000/svg" xmlns:xlink="http://www.w3.org/1999/xlink" width="700" height="700" viewBox="0 0 700 700">
    <defs>
        <clipPath id="36e29352-7790-429f-9f9f-125bba002f06">
            <circle cx="344.98" cy="347.42" r="279.44" fill="none" />
        </clipPath>
        <linearGradient id="b3048dd9-62b0-4aea-9c2e-3e9603302029" x1="428.94" y1="107.39" x2="428.94" y2="947.79" gradientUnits="userSpaceOnUse">
            <stop offset="0" stop-color="#fff" />
            <stop offset="1" stop-color="#fff" stop-opacity="0" />
        </linearGradient>
        <symbol id="097638a1-414f-40a6-aa66-2bf0fb0bb5ca" data-name="New Symbol 2" viewBox="0 0 21.01 10.68">
            <path d="M.75,0C.18,0-.18,1,.09,1.72c1.89,5.31,5.84,9,10.42,9S19,7,20.92,1.72C21.19,1,20.83,0,20.26,0Z" fill="#fff" />
        </symbol>
        <symbol id="7f6dd231-7b2d-4b73-8680-7e38b77e617f" data-name="New Symbol 66" viewBox="0 0 14.06 6.75">
            <path d="M13.15,1.58A19.05,19.05,0,0,0,1,.56L0,.8,1.24,5.85l1-.23a13.73,13.73,0,0,1,8.86.73l.91.4L14.06,2Z" fill="#96686c" />
        </symbol>
        <symbol id="2d40c4c0-0885-4131-8467-ec241ef0bba2" data-name="New Symbol 4" viewBox="0 0 3.26 4.72">
            <path d="M1.63,4.72h0A1.63,1.63,0,0,1,0,3.09V1.63A1.63,1.63,0,0,1,1.63,0h0A1.63,1.63,0,0,1,3.26,1.63V3.09A1.63,1.63,0,0,1,1.63,4.72Z" fill="#67413a" />
        </symbol>
        <symbol id="3fd904df-5bb2-4bb4-9935-3eb2c83a1dbb" data-name="New Symbol 25" viewBox="0 0 29.11 108.65">
            <path d="M11.39.19l-.28,0C3.86,1.53-1,10,.18,19.22l8.08,73.9.86,7.29c.59,5,4.41,8.63,8.64,8.21,3.84-.39,6.83-4,7.09-8.56l.43-7.54L29.1,20.38C29.42,8.3,20.84-1.49,11.39.19Z" fill="#ffb597" />
        </symbol>
        <symbol id="8ce09f48-b773-4fca-b7a1-bbfcf02ff709" data-name="ÕÓ‚˚È ÒËÏ‚ÓÎ 16" viewBox="0 0 23.42 26.78">
            <path d="M23.1,10.93l-5.8-8.7A4.73,4.73,0,0,0,13.65.13L8.75,0h0A2,2,0,0,0,6.62,1.16L0,15.78l4.5,10,10.75,1,2.25-2,.5-7,4.81-4.41A1.89,1.89,0,0,0,23.1,10.93Z" fill="#ffb597" />
            <line x1="11.86" y1="17.96" x2="15.25" y2="26.53" fill="none" stroke="#ff8072" stroke-miterlimit="10" />
            <line x1="7.81" y1="18.56" x2="11.19" y2="26.39" fill="none" stroke="#ff8072" stroke-miterlimit="10" />
            <line x1="3.87" y1="18.2" x2="7.25" y2="26.03" fill="none" stroke="#ff8072" stroke-miterlimit="10" />
            <line x1="17" y1="9.78" x2="17.75" y2="17.53" fill="none" stroke="#ff8072" stroke-miterlimit="10" />
        </symbol>
    </defs>
    <title>denis-5</title>
    <g style="isolation: isolate">
        <g id="042f2283-dd74-4525-8dac-a3eb44f4e0a7" data-name="bck17">
            <rect y="-4.8" width="701.05" height="703.44" fill="#e4b7f4" />
            <g clip-path="url(#36e29352-7790-429f-9f9f-125bba002f06)">
                <circle cx="323.88" cy="374.05" r="277.95" fill="#59097a" />
                <g>
                    <rect id="b8038c34-0c11-4100-8fa1-f6cf21db9412" data-name="&lt;Path&gt;" x="62.73" y="26.91" width="733.09" height="573.65" fill="#59097a" />
                    <rect id="d9d1d432-deda-4fd3-b5f1-d7a8202358de" data-name="&lt;Path&gt;" x="261.04" y="26.91" width="336.47" height="314.36" fill="#561391" />
                    <rect id="ff44d023-4d2d-4349-8cf6-4caaa238a75f" data-name="&lt;Path&gt;" x="273.73" y="36.46" width="311.09" height="9.93" rx="2.15" ry="2.15" fill="#46086f" />
                    <rect id="feaed454-9f56-46cc-a3c5-e82a7d8102f9" data-name="&lt;Path&gt;" x="257.18" y="26.91" width="9.93" height="322.94" fill="#4f0a72" />
                    <rect id="8b78c116-3a83-4f25-ad57-3c31f0d9bb36" data-name="&lt;Path&gt;" x="592.57" y="26.91" width="9.93" height="322.94" fill="#4f0a72" />
                    <rect id="89ead49c-d012-4b87-bf96-cc8fc5cc7519" data-name="&lt;Path&gt;" x="273.73" y="51.64" width="311.09" height="9.93" rx="2.15" ry="2.15" fill="#46086f" />
                    <rect id="82da4968-49f9-44fb-a2cd-291036535b28" data-name="&lt;Path&gt;" x="273.73" y="66.81" width="311.09" height="9.93" rx="2.15" ry="2.15" fill="#46086f" />
                    <rect id="e472a097-15c6-45f8-b5fb-72f02a40b463" data-name="&lt;Path&gt;" x="273.73" y="81.99" width="311.09" height="9.93" rx="2.15" ry="2.15" fill="#46086f" />
                    <rect id="555c6e16-43b1-4587-b05a-7056d3fa9515" data-name="&lt;Path&gt;" x="273.73" y="97.17" width="311.09" height="9.93" rx="2.15" ry="2.15" fill="#46086f" />
                    <rect id="340bcfc5-7c27-487e-af72-c6fd22b36c8c" data-name="&lt;Path&gt;" x="273.73" y="112.34" width="311.09" height="9.93" rx="2.15" ry="2.15" fill="#46086f" />
                    <rect id="17dc8b51-133d-41fc-b1d7-321e072892ab" data-name="&lt;Path&gt;" x="273.73" y="127.52" width="311.09" height="9.93" rx="2.15" ry="2.15" fill="#46086f" />
                    <rect id="cdd99f8b-281c-42e8-be79-76b55222fd29" data-name="&lt;Path&gt;" x="273.73" y="142.7" width="311.09" height="9.93" rx="2.15" ry="2.15" fill="#46086f" />
                    <rect id="bf4cbb7d-9219-404f-9805-c40466b7975c" data-name="&lt;Path&gt;" x="273.73" y="157.88" width="311.09" height="9.93" rx="2.15" ry="2.15" fill="#46086f" />
                    <rect id="e4739dbe-5d8c-4d4f-9661-1c43a9009b54" data-name="&lt;Path&gt;" x="273.73" y="173.05" width="311.09" height="9.93" rx="2.15" ry="2.15" fill="#46086f" />
                    <rect id="662b44a9-f412-4b34-867b-af4c9d2132cd" data-name="&lt;Path&gt;" x="273.73" y="188.23" width="311.09" height="9.93" rx="2.15" ry="2.15" fill="#46086f" />
                    <rect id="9c84dd25-e075-4717-b0ca-d47f3f7f7ada" data-name="&lt;Path&gt;" x="273.73" y="203.41" width="311.09" height="9.93" rx="2.15" ry="2.15" fill="#46086f" />
                    <rect id="3ba64c71-1f8e-46d8-aa79-7024fae9e87f" data-name="&lt;Path&gt;" x="273.73" y="218.58" width="311.09" height="9.93" rx="2.15" ry="2.15" fill="#46086f" />
                    <rect id="9a1e8c16-f407-4bfe-947a-22baac2cbcae" data-name="&lt;Path&gt;" x="273.73" y="233.76" width="311.09" height="9.93" rx="2.15" ry="2.15" fill="#46086f" />
                    <rect id="21aeacb0-0afd-4d34-b7ff-e037eaf4ee88" data-name="&lt;Path&gt;" x="273.73" y="248.94" width="311.09" height="9.93" rx="2.15" ry="2.15" fill="#46086f" />
                    <rect id="d6117644-d96e-447f-bd81-18a8c2e5e183" data-name="&lt;Path&gt;" x="273.73" y="264.12" width="311.09" height="9.93" rx="2.15" ry="2.15" fill="#46086f" />
                    <rect id="b2684e6a-3cc2-40e9-83c9-c9e608133c07" data-name="&lt;Path&gt;" x="273.73" y="279.29" width="311.09" height="9.93" rx="2.15" ry="2.15" fill="#46086f" />
                    <rect id="8a8dc2fe-ca4a-44d2-8c29-7625c9a3a3a4" data-name="&lt;Path&gt;" x="273.73" y="294.47" width="311.09" height="9.93" rx="2.15" ry="2.15" fill="#46086f" />
                    <rect id="1c135c00-4a1f-4217-8a64-cb69062683a6" data-name="&lt;Path&gt;" x="273.73" y="309.65" width="311.09" height="9.93" rx="2.15" ry="2.15" fill="#46086f" />
                    <rect id="54ffe6f6-839e-4d72-8d9a-61906e44f0d2" data-name="&lt;Path&gt;" x="62.73" y="350.31" width="733.09" height="137.32" fill="#4f0a72" />
                    <path id="cf8656ca-e9f5-4a99-acdf-37267bd461d9" data-name="&lt;Path&gt;" d="M729.68,342.13H125.05a7.72,7.72,0,0,0,0,15.44H729.68a7.72,7.72,0,1,0,0-15.44Z" fill="#46086f" />
                    <path id="0173ab2e-31c3-44de-92d8-7484b3f0c15b" data-name="&lt;Path&gt;" d="M63.24,273.33c0-.51,0-1.05-.06-1.61C63.2,272.75,63.24,273.33,63.24,273.33Z" fill="#93895d" />
                    <path id="f6012380-beb0-474b-b7d4-685b5962d374" data-name="&lt;Path&gt;" d="M136.2,288.22c9-13.75,6.33-22.91,6.33-22.91-5,4.15-12.09,18.18-12.09,18.18a47.16,47.16,0,0,0,4.41-24.19c-9.6,7.15-17.66,20.18-17.66,20.18,3.65-13,4-28.63,4-28.63-5.18,5-8.64,13.31-8.64,13.31,3.07-16.32,2.11-17.61,2.11-17.61-8.45,8.16-17.85,29.93-17.85,29.93,1.53-9.31,0-28.64,0-28.64-6.11,7.74-8.69,20.35-9.5,25.2q-.12,1-.3,2s.09-.75.3-2c1.21-9.61-.3-22.34-.3-22.34-9.6,11.6-11.52,32.51-11.52,32.51.77-11.46-6.33-32.51-6.33-32.51-5.8,11.11-6.1,24.5-6,29,0,.55.06,1.09.06,1.61,0,0,0-.58-.06-1.61-.08-1.2-.23-2.48-.45-3.81v29.63C83.69,303.78,129.28,298.75,136.2,288.22Z" fill="#7a319c" opacity="0.63" />
                    <path id="aeca40b6-2154-4fc1-8e9f-fdfd45fc3dd7" data-name="&lt;Path&gt;" d="M87.34,265c-.21,1.25-.3,2-.3,2C87.16,266.38,87.26,265.71,87.34,265Z" fill="#93895d" />
                    <path id="d48d3ce0-5431-48ba-970c-3ab2fd415550" data-name="&lt;Path&gt;" d="M132,304.11c11.33-18,10.56-27.2,10.56-27.2a43.89,43.89,0,0,0-4.89,4.42c1.41-6.35.28-10.29.28-10.29a67.67,67.67,0,0,0-11.82,10.7,54.75,54.75,0,0,0,1.07-29.32,42.54,42.54,0,0,0-11.76,17.33,8.4,8.4,0,0,0-1.29-3.44c-6.47,7.33-10,17.89-11.54,23.55a93,93,0,0,0,0-38.15c-5.33,5.49-10,18.85-13,28.89a57.82,57.82,0,0,0-.93-18.87,45.09,45.09,0,0,0-9.39,20.59,175.42,175.42,0,0,0-1.81-30.61c-3.71,6.77-5.8,18.36-7,28.52A165.13,165.13,0,0,0,69,263c-3,2.91-4.87,7.76-6.1,13,0-1-.1-2-.17-3v36.2C82.2,312.55,123.39,317.78,132,304.11Z" fill="#7a319c" />
                    <path id="431b930e-f377-4256-a4d7-5505bab1337a" data-name="&lt;Path&gt;" d="M142.63,322.71V298.56a2.47,2.47,0,0,0-2.46-2.47H62.73v29.08h77.44A2.47,2.47,0,0,0,142.63,322.71Z" fill="#46086f" />
                    <rect id="25238ec5-f3ec-46f5-be10-2e3285972c3d" data-name="&lt;Path&gt;" x="62.73" y="323.58" width="85.91" height="205.24" fill="#46086f" />
                    <polygon id="c9f4ae27-dbcc-482d-be15-9cd494c17a36" data-name="&lt;Path&gt;" points="148.64 323.58 62.73 323.58 62.73 343.24 148.64 336.37 148.64 323.58" fill="#42210b" opacity="0.11" />
                    <rect x="109.7" y="63.2" width="94.69" height="160" fill="#7a319c" />
                    <path d="M208.39,227.2H105.7V59.2H208.39Zm-94.69-8h86.69V67.2H113.7Z" fill="#46086f" />
                    <rect id="fdc65c2d-3a19-43b1-b780-194404eaf603" data-name="&lt;Path&gt;" x="129.55" y="88.02" width="54.98" height="110.37" fill="#4f0a72" />
                    <path id="46e1b1d4-f1d7-455c-a311-4c18b3b97924" data-name="&lt;Path&gt;" d="M155.94,323.58a7.17,7.17,0,0,0-7.18-7.11h-86V330.7h86A7.17,7.17,0,0,0,155.94,323.58Z" fill="#4f0a72" />
                    <path id="9298bf49-3616-476e-9062-829c40654f4b" data-name="&lt;Path&gt;" d="M551.81,260.18a1.77,1.77,0,0,0-.19.82C551.7,260.72,551.75,260.45,551.81,260.18Z" fill="#3d2405" opacity="0.1" />
                    <path id="36f1481b-9475-467d-8739-bd6e79fbf8d0" data-name="&lt;Path&gt;" d="M594.39,227.9c-.13.67.17-.67,0,0Z" fill="#c58375" />
                    <path id="6837ea46-e9f9-401f-b5e9-45399ce5df8e" data-name="&lt;Path&gt;" d="M298.65,318.22h0C298.55,318.33,298.46,318.45,298.65,318.22Z" fill="#555050" />
                    <path id="886ebf16-0e2b-4764-ba6d-45e5060fa6c7" data-name="&lt;Path&gt;" d="M298.65,318.22c.18-.23.09-.13,0,0Z" fill="#555050" />
                    <polygon id="1b36cb24-0fdb-46d6-8b15-4221930c4c41" data-name="&lt;Path&gt;" points="298.65 318.22 298.65 318.21 298.65 318.21 298.65 318.22" fill="#555050" />
                    <polygon id="c63684de-10a0-4a89-aa58-6d718ee67219" data-name="&lt;Path&gt;" points="551.81 398.94 551.82 398.95 551.82 398.94 551.8 398.94 551.81 398.94" fill="#9b8878" />
                    <rect x="650.93" y="63.2" width="94.69" height="160" fill="#7a319c" />
                    <path d="M749.62,227.2H646.93V59.2H749.62Zm-94.69-8h86.69V67.2H654.93Z" fill="#46086f" />
                    <rect id="53f4b88c-088d-4695-bf1f-56a8ed956ff6" data-name="&lt;Path&gt;" x="670.78" y="88.02" width="54.98" height="110.37" fill="#4f0a72" />
                    <path d="M499.24,591.79c17.86-.21,35.72,0,53.58.28L429.26,107.39,305.05,594.6C369.79,595.08,434.52,592.53,499.24,591.79Z" opacity="0.2" fill="url(#b3048dd9-62b0-4aea-9c2e-3e9603302029)" />
                    <g id="03b084ab-4f1e-46f4-8a06-64a835f8bb26" data-name="&lt;Group&gt;">
                        <path id="53f94c12-7c19-4fbe-bcdd-96193dc12835" data-name="&lt;Path&gt;" d="M433.09,96h-7.63a13.79,13.79,0,0,0-13.75,13.75v53.45h35.13V109.77A13.79,13.79,0,0,0,433.09,96Z" fill="#4f0a72" />
                        <rect id="2ca26faf-168f-4106-99af-e165f88aee2c" data-name="&lt;Path&gt;" x="427.56" y="26.91" width="3.44" height="99.08" fill="#4f0a72" />
                        <path id="0ee797a7-656a-4fb4-b406-ad0804f9af27" data-name="&lt;Path&gt;" d="M446.31,160.79H412.24a2.44,2.44,0,1,0,0,4.87h34.07a2.44,2.44,0,1,0,0-4.87Z" fill="#4f0a72" />
                    </g>
                </g>
                <circle cx="221.28" cy="216.53" r="9.36" fill="#59097a" />
            </g>
        </g>
        <g id="5eace6d6-65c7-4338-888d-95f96227bc35" data-name="img17">
            <g>
                <polygon points="400.9 430.44 78 430.44 73.45 414.2 400.9 414.2 400.9 430.44" fill="#fecb05" />
                <path id="a1998af6-b597-4fc6-9ed0-ad722585790d" data-name="&lt;Path&gt;" d="M227.9,603.72c0,2.79,3.27,5.08,7.27,5.08s7.26-2.29,7.26-5.08V430.44H227.9Z" fill="#360a59" />
                <g>
                    <path id="30d63b9a-c71f-4b7c-ac84-29bae7abe933" data-name="&lt;Path&gt;" d="M465,487.13a2.66,2.66,0,0,0-3.14-2.07l-1.2.25a2.65,2.65,0,0,0-2.07,3.14L480,609.4a2.67,2.67,0,0,0,3.15,2.07l1.2-.25a2.66,2.66,0,0,0,2.07-3.14Z" fill="#360a59" />
                    <path id="1584f50e-388d-4e03-8f2d-a4b035447cce" data-name="&lt;Path&gt;" d="M397.57,485.31l-1.21-.25a2.66,2.66,0,0,0-3.14,2.07l-21.42,121a2.65,2.65,0,0,0,2.07,3.14l1.2.25a2.66,2.66,0,0,0,3.14-2.07l21.43-120.95A2.66,2.66,0,0,0,397.57,485.31Z" fill="#360a59" />
                    <rect id="dabb3630-a1b7-4c1b-8e96-6126da4da0a6" data-name="&lt;Path&gt;" x="380.54" y="475.54" width="92.17" height="15.65" rx="6.52" ry="6.52" fill="#360a59" />
                    <g id="70289a87-c703-46d6-8110-4542d07afd12" data-name="&lt;Group&gt;">
                        <path id="d03aca3e-9f97-4da9-9185-815c59981bbc" data-name="&lt;Path&gt;" d="M504,339h0a8.49,8.49,0,0,0-9.73,7l-16,99a24.08,24.08,0,0,1-23.53,19.2h-81.8a8.48,8.48,0,1,0,0,16.95h94.84c19.49,0,59.78-8.48,63.58-27.6l6.08-15.4L547,338.92S508.64,339.77,504,339Z" fill="#360a59" />
                    </g>
                    <path id="420b6e54-978c-4e4e-84e3-734cbd45938c" data-name="&lt;Path&gt;" d="M509.63,487.13a2.66,2.66,0,0,0-3.14-2.07l-1.2.25a2.65,2.65,0,0,0-2.07,3.14l21.42,121a2.66,2.66,0,0,0,3.14,2.07l1.21-.25a2.65,2.65,0,0,0,2.06-3.14Z" fill="#4f0a72" />
                    <path id="92349a03-1f70-4979-829f-542e2832912e" data-name="&lt;Path&gt;" d="M442.2,485.31l-1.21-.25a2.66,2.66,0,0,0-3.14,2.07l-21.42,121a2.65,2.65,0,0,0,2.06,3.14l1.21.25a2.66,2.66,0,0,0,3.14-2.07l21.42-120.95A2.65,2.65,0,0,0,442.2,485.31Z" fill="#4f0a72" />
                    <rect id="b01319e2-26e4-4239-bd53-795bf5bc4aa9" data-name="&lt;Path&gt;" x="425.17" y="475.54" width="92.17" height="15.65" rx="6.52" ry="6.52" fill="#3e0968" />
                    <g id="f299b630-5592-4fd4-a503-186d936e3464" data-name="&lt;Group&gt;">
                        <path id="b3a92389-70c5-423f-8be4-45bcbbd8823c" data-name="&lt;Path&gt;" d="M548.64,339h0a8.49,8.49,0,0,0-9.72,7l-16,99a24.06,24.06,0,0,1-23.52,19.2h-81.8a8.48,8.48,0,1,0,0,16.95h81.8a41.05,41.05,0,0,0,40.18-33l.06-.29,16.06-99.16A8.48,8.48,0,0,0,548.64,339Z" fill="#46086f" />
                    </g>
                </g>
                <path id="19cf5577-b494-4501-ae67-4a5b1c45a5d9" data-name="&lt;Path&gt;" d="M235.17,594.72c-42.31,0-84.61,7.41-84.61,9.4a7.29,7.29,0,0,0,7.26,7.27H312.51a7.29,7.29,0,0,0,7.27-7.27C319.78,602.13,277.47,594.72,235.17,594.72Z" fill="#360a59" />
                <g>
                    <path d="M291.27,366.74s-22.6,6-13.43,20.48C294.81,389.85,291.27,366.74,291.27,366.74Z" fill="#00b956" />
                    <path d="M253.6,370.62s-7.68,22.08,9.48,22.59C274.74,380.61,253.6,370.62,253.6,370.62Z" fill="#00b956" />
                    <path d="M310,376.44s-20.33-.79-16.39,13.63C307,396.57,310,376.44,310,376.44Z" fill="#00b956" />
                    <path d="M274.11,387.92a9.57,9.57,0,1,1-9.57-9.57A9.57,9.57,0,0,1,274.11,387.92Z" fill="#ee330b" />
                    <path d="M303.19,386.86a11.62,11.62,0,1,1-11.61-11.62A11.61,11.61,0,0,1,303.19,386.86Z" fill="#ee330b" />
                    <path d="M247.41,384.4v12.47a17.11,17.11,0,0,0,16.86,17.34h33.12a17.11,17.11,0,0,0,16.86-17.34V384.4c0-.16,0-.32,0-.47H247.42C247.42,384.08,247.41,384.24,247.41,384.4Z" fill="#7a319c" />
                    <rect x="247.41" y="391.36" width="66.84" height="5.11" fill="#f3f2ef" />
                </g>
                <polygon points="232.4 414.21 207.84 414.21 203.16 368.78 237.08 368.78 232.4 414.21" fill="#7a319c" />
                <polygon points="237.67 365.9 220.85 365.9 219.39 365.9 202.57 365.9 202.26 368.8 201.25 370.14 201.4 372.34 203.16 373.51 219.39 373.51 220.85 373.51 237.08 373.51 238.84 372.34 238.98 370.14 237.96 368.71 237.67 365.9" fill="#f3f2ef" />
                <g>
                    <rect x="315.55" y="575.06" width="19.5" height="20.34" fill="#f9dbcd" />
                    <g id="7586e20e-7d8a-47ce-9bda-db8ad3d10302" data-name="&lt;Group&gt;">
                        <path d="M335.15,592.49V609.2H287v-2.42a5.47,5.47,0,0,1,0-.7,3.26,3.26,0,0,1,.05-.33,6.12,6.12,0,0,1,.3-1.21,6.79,6.79,0,0,1,6.41-4.55h3.82l1,0a12.1,12.1,0,0,0,11.35-12.13v-.29a5.46,5.46,0,0,1,6.17-5.4,5.59,5.59,0,0,1,4.72,5.61v4.74Z" fill="#383772" />
                        <path d="M314.39,596.7a56.75,56.75,0,0,1-9.95,1.31,12.19,12.19,0,0,0,5.48-10.18v-.29a5.46,5.46,0,0,1,6.17-5.4,5.59,5.59,0,0,1,4.72,5.61v4.74h.25C319.77,595,317.93,595.87,314.39,596.7Z" fill="#5a749d" />
                        <path d="M335.15,604.59v4.61H287v-2.4a5.39,5.39,0,0,1,0-.69c0-.11,0-.21.05-.32a6.2,6.2,0,0,1,.3-1.2Z" fill="#fff" />
                    </g>
                    <g>
                        <g>
                            <path d="M333.55,399.62l-8,9.8a.86.86,0,0,0-.2,1.17l.57.84.24.35.43.63-.49-1-.19-.4.26.39.16.24,1.75,2.59-1.12-2,1.44,2.13,8.87-.93,2.13.3.22,0a8.91,8.91,0,0,0,10.05-7.59l.48-3.46Z" fill="#f6b297" />
                            <g opacity="0.51" style="mix-blend-mode: multiply">
                                <polygon points="326.35 411.63 328.1 414.22 326.98 412.24 328.42 414.37 337.29 413.44 339.42 413.74 334.81 409.92 326.19 411.39 326.35 411.63" fill="#fbba9f" />
                            </g>
                            <polygon points="325.94 411.43 326.18 411.78 326.61 412.41 326.12 411.4 325.94 411.43" fill="#fbba9f" />
                        </g>
                        <path d="M338.35,406l.15-.1-3.44.25-4.95,2.54,1.12,1.89,1.39-.9c-.11.2-.19.42-.28.62a8.18,8.18,0,0,0-1.59,1L329,408.33l5.77-3,6.76-.52L339.81,406A5.94,5.94,0,0,0,338.35,406Z" fill="#fc8883" />
                    </g>
                    <g>
                        <g>
                            <path d="M409.24,411.07l23.49-44.33-23.36-9.06L391,403a9.62,9.62,0,0,0,2.3,10.6,9.45,9.45,0,0,0,1.59,1.24,10.39,10.39,0,0,0,2.88,1.23A10,10,0,0,0,409.24,411.07Z" fill="#272749" />
                            <path d="M445.23,343.13a13.38,13.38,0,0,0-2.67-15.93,13.92,13.92,0,0,0-2.57-1.95,14.26,14.26,0,0,0-2.94-1.29,2.22,2.22,0,0,0-.32-.1,13.94,13.94,0,0,0-16.94,8.08l-10.42,25.74,23.36,9.06Z" fill="#272749" />
                        </g>
                        <polygon points="398.65 393.32 394.88 392.39 343.82 403.12 347.65 414.28 398.65 416.17 405 410.86 398.65 393.32" fill="#272749" />
                    </g>
                    <g>
                        <g id="b82bfbc6-996e-4568-b1fa-fafc84ab7d1d" data-name="&lt;Group&gt;">
                            <g id="81c6925a-0af4-4f99-b044-41ca01283d80" data-name="&lt;Group&gt;">
                                <path d="M441.93,440.1a20.67,20.67,0,0,0-12.07-3.78l-104.37,8.13A15,15,0,0,0,311.06,460l.43,11.48,4.05,107.75,19.43.89,2.86-103.64a4.29,4.29,0,0,1,4.4-4.16l89-2.53c8.94.2,16.28-10.4,16.24-19.34A12.77,12.77,0,0,0,441.93,440.1Z" fill="#222247" />
                            </g>
                        </g>
                        <g>
                            <path d="M487.5,340.79V449.85a14.32,14.32,0,0,1-14.31,14.32H440.46a21.92,21.92,0,0,1-21.92-21.92v-93a29.22,29.22,0,0,1,15.5-25.8,28.87,28.87,0,0,1,5.45-2.23,28,28,0,0,1,3.78-.85,28.94,28.94,0,0,1,4.49-.35h19a20.75,20.75,0,0,1,5.32.7,20.18,20.18,0,0,1,4.07,1.55A20.74,20.74,0,0,1,487.5,340.79Z" fill="#16162b" />
                            <path d="M487.5,436.32v13.53a14.32,14.32,0,0,1-14.31,14.32H440.46a21.92,21.92,0,0,1-21.92-21.92v-5.93Z" fill="#16162b" />
                            <path d="M428.25,436.27V347.65a29.24,29.24,0,0,1,15.49-25.8,28.34,28.34,0,0,1,4.14-1.81h-.12a28.94,28.94,0,0,0-4.49.35,28,28,0,0,0-3.78.85,28.87,28.87,0,0,0-5.45,2.23,29.22,29.22,0,0,0-15.5,25.8v87Z" fill="#16162b" opacity="0.46" style="mix-blend-mode: soft-light" />
                        </g>
                        <g id="6f548f8a-53f8-487b-97a1-bc30c469f98e" data-name="&lt;Group&gt;">
                            <g id="6890f17f-28ea-4147-86c8-408fa8ce111a" data-name="&lt;Group&gt;">
                                <rect x="355.39" y="575.06" width="19.5" height="20.34" fill="#f9dbcd" />
                                <path d="M487.34,452.07c0,8.94-7.3,19.54-16.24,19.34l-89,2.52a4.3,4.3,0,0,0-4.4,4.17L375,575.72l-.13,4.81,0,1.2-14.58-.66-4.85-.22,0-1.1-.15-4L351.38,473.1,351,461.62a15,15,0,0,1,14.44-15.55l104.36-8.14a22.75,22.75,0,0,1,3.2.24,20,20,0,0,1,8.87,3.55c.24.18.49.38.73.58l.24.2c.16.14.32.28.47.43h0l.18.16h0A12.45,12.45,0,0,1,487.34,452.07Z" fill="#222247" />
                                <path d="M468.14,438.06a21.83,21.83,0,0,1,4.78.11h0l-102.6,11.22a15,15,0,0,0-14.43,15.54l.43,11.48,3.71,98.65,0,.66.19,5.35-4.85-.22,0-1.1-.15-4L351.38,473.1,351,461.62a15,15,0,0,1,14.44-15.55Z" fill="#222247" opacity="0.42" style="mix-blend-mode: screen" />
                                <path d="M483.44,443.1c-.1,0-.17-.1-.18-.16Z" fill="#222247" opacity="0.42" style="mix-blend-mode: screen" />
                                <rect x="353.21" y="575.73" width="22.5" height="6.01" fill="#222247" />
                            </g>
                            <g id="cba3e3ff-0cab-45a0-a21f-b65ebc21da3c" data-name="&lt;Group&gt;">
                                <path d="M375,592.49V609.2H326.8v-2.42a5.47,5.47,0,0,1,0-.7,3.26,3.26,0,0,1,.05-.33,6.12,6.12,0,0,1,.3-1.21,6.79,6.79,0,0,1,6.41-4.55h3.82l1,0a12.1,12.1,0,0,0,11.35-12.13v-.29a5.46,5.46,0,0,1,6.17-5.4,5.59,5.59,0,0,1,4.72,5.61v4.74Z" fill="#383772" />
                                <path d="M354.23,596.7a56.75,56.75,0,0,1-10,1.31,12.19,12.19,0,0,0,5.48-10.18v-.29a5.46,5.46,0,0,1,6.17-5.4,5.59,5.59,0,0,1,4.72,5.61v4.74h.25C359.61,595,357.77,595.87,354.23,596.7Z" fill="#5a749d" />
                                <path d="M375,604.59v4.61H326.8v-2.4a5.39,5.39,0,0,1,0-.69c0-.11,0-.21.05-.32a6.2,6.2,0,0,1,.3-1.2Z" fill="#fff" />
                            </g>
                        </g>
                    </g>
                    <g>
                        <path d="M436.69,295.18v26.27c0,4.68,5.64,8.52,12.53,8.52h6.44c6.89,0,12.53-3.84,12.53-8.52V295.18c0-4.68-5.64-8.52-12.53-8.52h-6.44C442.33,286.66,436.69,290.5,436.69,295.18Z" fill="#ffb597" />
                        <path d="M436.69,289v32.65c8.29-5.88,22-8.54,31.5-14.69V289c0-7.64-5.64-13.9-12.53-13.9h-6.44C442.33,275.12,436.69,281.38,436.69,289Z" fill="#ff9983" />
                    </g>
                    <path d="M420.87,250.21c0,1.71,4,23.39,4,23.39l4.57-24.53Z" fill="#000429" />
                    <path d="M423.3,249.28c1.08,6.47,2.79,21.65,2.79,21.65L436.24,246Z" fill="#312b6b" />
                    <path d="M424.58,253.49c.26-3.25,1.95-6,4-6.91l.24-1.83-5.06-1.35,23.92-4.57,18,7.75a7.16,7.16,0,0,1,6.81,7.92l-1.62,13.44L468,278.26c-1.47,5.29-3.56,15.84-6.37,20.78-3.51,6.2-22.49,16.63-26.67,14.39s-8.43-5.6-9.73-12c-1.05-5.13-1.24-18.69-1.37-24l-.26-10.45Z" fill="#fbba9f" />
                    <path d="M459.42,239.25a8.22,8.22,0,0,1,2.32.1l1.45.38c11.42,2,18.54,13.08,15.34,23.8l-4.34,14.55-1.43,2.61-2.57-.61-2.42-.57c-4.7-1.12-6.81-4.7-8.1-9.36-2.08-7.47-.13-17.82-.25-17.8Z" fill="#000429" />
                    <path d="M466,243.53c-1.51,10.93-12.23,18.09-22.88,17.77s-20.8-6.67-28.72-14.69c7.45-6.07,15.17-12.27,24.48-14.66s20.73,0,26.85,8.39Z" fill="#000429" />
                    <path d="M461.54,275.77l.65-1.54a5.46,5.46,0,0,1,4.43-3.46l1-.08a5.11,5.11,0,0,1,4.69,2.5h0a7.11,7.11,0,0,1,1.06,4.26l-.25,3.81a7,7,0,0,1-.66,2.57l-.37.78a5.32,5.32,0,0,1-4.71,3.24h-.25a5.58,5.58,0,0,1-5.16-4.52l-.74-3A7.22,7.22,0,0,1,461.54,275.77Z" fill="#ffb597" />
                    <use width="21.01" height="10.67" transform="matrix(-0.76, 0, 0, 0.76, 445.18, 293.92)" xlink:href="#097638a1-414f-40a6-aa66-2bf0fb0bb5ca" />
                    <path d="M441.3,225.16l-2.74,2.48c5.15-.94,10.37-1.79,15.63-1.13a22.63,22.63,0,0,1,14.58,7.61H463a80.84,80.84,0,0,1,18.35,17.41c-6,2.41-12,4.84-18.38,5.64s-13.1-.14-18.88-4.1l4.6,5.8c-1.33-1.68-9.3-2.14-11.48-2.91-2.5-.89-12.13.27-15.51-1.86-4.75-3-8-6.56-6.68-11.27,1.13-3.92,9.2-10.31,12.23-12.41a29.92,29.92,0,0,1,14.05-5.25Z" fill="#000429" />
                    <g>
                        <g id="badd8576-9762-49dc-97b6-19b895ee9c21" data-name="&lt;Group&gt;">
                            <use id="d4d94070-81eb-4278-8759-9a357984e084" data-name="New Symbol 66" width="14.06" height="6.75" transform="matrix(-0.66, 0, 0, 0.66, 431.87, 266.78)" xlink:href="#7f6dd231-7b2d-4b73-8680-7e38b77e617f" />
                        </g>
                        <g id="7feb6513-c103-441e-846a-e476f0cf49de" data-name="&lt;Group&gt;">
                            <use id="0893313b-0547-4a55-8c77-ce315ed17454" data-name="New Symbol 66" width="14.06" height="6.75" transform="translate(442.44 266.78) scale(0.66)" xlink:href="#7f6dd231-7b2d-4b73-8680-7e38b77e617f" />
                        </g>
                    </g>
                    <use id="0434535d-c037-491b-be31-e1be7ef5eaa4" data-name="New Symbol 4" width="3.26" height="4.72" transform="translate(424.45 273.99) scale(2.09 1.26)" xlink:href="#2d40c4c0-0885-4131-8467-ec241ef0bba2" />
                    <use id="6e5e594a-091b-4dc9-8922-a3cbe99f1ed8" data-name="New Symbol 4" width="3.26" height="4.72" transform="translate(443.04 274.04) scale(2.09 1.26)" xlink:href="#2d40c4c0-0885-4131-8467-ec241ef0bba2" />
                    <path d="M418.92,390.87c-.58-5.6-3.89-9.86-7.39-9.49s-5.87,5.19-5.29,10.8c.45,4.35,2.55,7.87,5.1,9.07l2.85,27.62a2.26,2.26,0,0,0,4.45-.46l-2.85-27.62C418,399.1,419.37,395.22,418.92,390.87Z" fill="#f3f2ef" />
                    <use id="7218ce16-abe9-4e8a-995c-fcf69b950865" data-name="New Symbol 25" width="29.11" height="108.65" transform="translate(491.92 397.95) rotate(83.83) scale(0.66)" xlink:href="#3fd904df-5bb2-4bb4-9935-3eb2c83a1dbb" />
                    <use width="23.42" height="26.78" transform="matrix(-0.19, -0.93, -0.93, 0.19, 435.28, 421.03)" xlink:href="#8ce09f48-b773-4fca-b7a1-bbfcf02ff709" />
                    <path d="M483,337l11.59-.13,3,64.93s3.78,15.44-10,16.48-43.68,2.84-43.68,2.84l-4.46-13.65,26.92-5.93,9.51-3.09-5.23-44.26Z" fill="#272749" />
                </g>
                <g>
                    <path d="M362.47,408.35h-7.69a6.11,6.11,0,0,1-6.1-6.1V394a6.11,6.11,0,0,1,6.1-6.1h7.69a6.1,6.1,0,0,1,6.09,6.1v8.24A6.1,6.1,0,0,1,362.47,408.35Zm-7.69-16.85a2.51,2.51,0,0,0-2.51,2.51v8.24a2.51,2.51,0,0,0,2.51,2.51h7.69a2.51,2.51,0,0,0,2.51-2.51V394a2.51,2.51,0,0,0-2.51-2.51Z" fill="#7a319c" />
                    <path d="M360.52,399.14a15.2,15.2,0,0,1-15.17,15.13H317.13a15.14,15.14,0,1,1,0-30.27h28.22A15.2,15.2,0,0,1,360.52,399.14Z" fill="#6a2d8e" />
                    <rect x="301.96" y="382.4" width="58.55" height="14.43" fill="#561391" />
                </g>
                <polygon points="468.19 321 469.22 330.95 459.42 326.74 468.19 321" fill="#e5e2dc" />
                <path d="M446.93,392.8c2.33.53,4.68,1.05,7,1.53L468.19,341l-39.88,34.4-.06,13C434.48,389.83,440.69,391.39,446.93,392.8Z" fill="#16162b" opacity="0.46" style="mix-blend-mode: soft-light" />
                <path d="M425.26,380.89c.83.43,18.25,4.78,22.59,5.5l1.06.14L469,338l.22-7-9.91-5.28-15.12,3.25-7.92-8.43,0,1.28,0-.1,0,.27c-.95,2.65-8.42,23.74-9.24,30.05C426.47,356.52,425.7,371.5,425.26,380.89Z" fill="#f3f2ef" />
            </g>
            <g>
                <rect x="373.28" y="280.15" width="13.78" height="9.97" rx="4.8" ry="4.8" fill="#fff" />
                <rect x="347.88" y="261.91" width="22.99" height="17.68" rx="8.84" ry="8.84" fill="#fff" />
                <rect x="287.94" y="198.27" width="88.66" height="58.27" rx="28.41" ry="28.41" fill="#fff" />
                <rect x="315.36" y="205.96" width="30.71" height="41.13" fill="#00b956" />
                <rect x="315.36" y="205.96" width="4.93" height="41.08" fill="#0f9147" />
                <ellipse cx="333.16" cy="217.41" rx="6.76" ry="4.65" fill="#0f9147" />
                <polygon points="322 247 322 251 325.06 250.16 328 251 328 247 322 247" fill="#46086f" />
            </g>
        </g>
    </g>
</svg>