<svg xmlns="http://www.w3.org/2000/svg" xmlns:xlink="http://www.w3.org/1999/xlink" width="700" height="700" viewBox="0 0 700 700">
  <defs>
      <clipPath id="8acad8a5-4f65-4e17-a835-b29622c4a948">
          <circle cx="345.79" cy="346.96" r="278.87" fill="none" />
      </clipPath>
      <linearGradient id="15bd145b-8723-48ab-bea4-1d7532dd6fbf" x1="404.72" y1="180.48" x2="404.72" y2="620.93" gradientUnits="userSpaceOnUse">
          <stop offset="0" stop-color="#fff" />
          <stop offset="1" stop-color="#fff" stop-opacity="0" />
      </linearGradient>
      <symbol id="fcbbca72-6e40-43ee-bf52-87c4d8cf99f9" data-name="New Symbol 25" viewBox="0 0 29.11 108.65">
          <path d="M11.39.19l-.28,0C3.86,1.53-1,10,.18,19.22l8.08,73.9.86,7.29c.59,5,4.41,8.63,8.64,8.21,3.84-.39,6.83-4,7.09-8.56l.43-7.54L29.1,20.38C29.42,8.3,20.84-1.49,11.39.19Z" fill="#ffb597" />
      </symbol>
      <symbol id="3e9ab191-b566-4681-bdea-6eafd047ce4a" data-name="ÕÓ‚˚È ÒËÏ‚ÓÎ 16" viewBox="0 0 23.42 26.78">
          <path d="M23.1,10.93l-5.8-8.7A4.73,4.73,0,0,0,13.65.13L8.75,0h0A2,2,0,0,0,6.62,1.16L0,15.78l4.5,10,10.75,1,2.25-2,.5-7,4.81-4.41A1.89,1.89,0,0,0,23.1,10.93Z" fill="#ffb597" />
          <line x1="11.86" y1="17.96" x2="15.25" y2="26.53" fill="none" stroke="#ff8072" stroke-miterlimit="10" />
          <line x1="7.81" y1="18.56" x2="11.19" y2="26.39" fill="none" stroke="#ff8072" stroke-miterlimit="10" />
          <line x1="3.87" y1="18.2" x2="7.25" y2="26.03" fill="none" stroke="#ff8072" stroke-miterlimit="10" />
          <line x1="17" y1="9.78" x2="17.75" y2="17.53" fill="none" stroke="#ff8072" stroke-miterlimit="10" />
      </symbol>
      <symbol id="e4140a1e-6cf9-4be1-8263-eec3cf9c67f0" data-name="New Symbol 2" viewBox="0 0 21.01 10.68">
          <path d="M.75,0C.18,0-.18,1,.09,1.72c1.89,5.31,5.84,9,10.42,9S19,7,20.92,1.72C21.19,1,20.83,0,20.26,0Z" fill="#fff" />
      </symbol>
      <symbol id="3e440a9d-9399-4033-b35c-247df2193805" data-name="New Symbol 4" viewBox="0 0 3.26 4.72">
          <path d="M1.63,4.72h0A1.63,1.63,0,0,1,0,3.09V1.63A1.63,1.63,0,0,1,1.63,0h0A1.63,1.63,0,0,1,3.26,1.63V3.09A1.63,1.63,0,0,1,1.63,4.72Z" fill="#67413a" />
      </symbol>
      <symbol id="49a1e408-11de-4538-b380-1d3c492cf865" data-name="New Symbol 66" viewBox="0 0 14.06 6.75">
          <path d="M13.15,1.58A19.05,19.05,0,0,0,1,.56L0,.8,1.24,5.85l1-.23a13.73,13.73,0,0,1,8.86.73l.91.4L14.06,2Z" fill="#96686c" />
      </symbol>
  </defs>
  <g style="isolation: isolate">
      <g id="43a4e15f-fa2f-4c9b-8ac3-1e50ee60ed63" data-name="back6">
          <rect y="-4.8" width="701.05" height="703.44" fill="#e4b7f4" />
          <circle cx="344.98" cy="347.42" r="279.44" fill="#59097a" />
      </g>
      <g id="433cd33c-3e15-452b-86ef-6e19a7f97b5f" data-name="bck15">
          <g clip-path="url(#8acad8a5-4f65-4e17-a835-b29622c4a948)">
              <g>
                  <polyline points="288.81 385.57 267.11 393.27 285.86 397.1" fill="#272749" />
                  <g>
                      <circle cx="345.79" cy="346.96" r="278.87" fill="#59097a" />
                      <g>
                          <rect x="395.6" y="170.34" width="240.31" height="201.15" fill="#43066b" opacity="0.62" />
                          <g opacity="0.41">
                              <rect x="405.11" y="181.2" width="222.28" height="179.43" fill="#59097a" />
                              <path d="M559.57,271.83a4.69,4.69,0,1,1,3-5.91A4.7,4.7,0,0,1,559.57,271.83Z" fill="#fff" />
                              <path d="M559.92,195.83a2,2,0,1,1,2.67-.83A2,2,0,0,1,559.92,195.83Z" fill="#fff" />
                              <path d="M562.62,334.66a2,2,0,1,1,2.67-.83A2,2,0,0,1,562.62,334.66Z" fill="#fff" />
                              <path d="M582.8,235a2,2,0,1,1,2.49,1.28A2,2,0,0,1,582.8,235Z" fill="#fff" />
                              <path d="M503.82,310.74a2,2,0,1,1,.84,2.68A2,2,0,0,1,503.82,310.74Z" fill="#fff" />
                              <path d="M606.68,285.41a2,2,0,1,1,.84,2.68A2,2,0,0,1,606.68,285.41Z" fill="#fff" />
                              <path d="M582.8,235a2,2,0,1,1,2.49,1.28A2,2,0,0,1,582.8,235Z" fill="#fff" />
                              <path d="M529.32,305.35a2,2,0,1,1,.84,2.67A2,2,0,0,1,529.32,305.35Z" fill="#fff" />
                              <path d="M541.28,218.34a2,2,0,1,1,2.67-.83A2,2,0,0,1,541.28,218.34Z" fill="#fff" />
                              <path d="M473.67,305.53A2,2,0,1,1,475.5,302a2,2,0,0,1-1.83,3.51Z" fill="#fff" />
                              <path d="M595.68,341.54A4.31,4.31,0,1,1,592.9,347,4.31,4.31,0,0,1,595.68,341.54Z" fill="#fff" />
                              <path d="M501.22,272.05a2,2,0,1,1-1.28,2.49A2,2,0,0,1,501.22,272.05Z" fill="#fff" />
                              <path d="M613.75,193.46a2,2,0,1,1,2.49,1.27A2,2,0,0,1,613.75,193.46Z" fill="#fff" />
                              <path d="M593.87,316.55a2,2,0,1,1,.83,2.68A2,2,0,0,1,593.87,316.55Z" fill="#fff" />
                              <path d="M497.09,201.28a2,2,0,1,1,2.5,1.28A2,2,0,0,1,497.09,201.28Z" fill="#fff" />
                              <path d="M521,251.72a2,2,0,1,1,.84,2.67A2,2,0,0,1,521,251.72Z" fill="#fff" />
                              <path d="M505.25,231.7a4.7,4.7,0,1,1,3-5.92A4.7,4.7,0,0,1,505.25,231.7Z" fill="#fff" />
                          </g>
                      </g>
                      <path d="M542.07,360H405.44s16.22-11.92,28.21-15,21.94-8.39,30.2-3.45,16.4,7.32,21,5.87,21.37-8,31.55-2.42,42.23,15,42.23,15Z" fill="#9957bc" opacity="0.51" />
                      <circle cx="135.11" cy="188.92" r="9.39" fill="#59097a" />
                      <rect x="105.95" y="204.7" width="29.16" height="3.15" fill="#59097a" />
                      <rect x="105.95" y="215.43" width="18.87" height="3.15" fill="#59097a" />
                      <g opacity="0.5">
                          <path d="M457.37,266.46a4.12,4.12,0,1,1,2.66-5.19A4.12,4.12,0,0,1,457.37,266.46Z" fill="#fff" />
                          <path d="M421.7,211.32A1.74,1.74,0,1,1,421,209,1.74,1.74,0,0,1,421.7,211.32Z" fill="#fff" />
                          <path d="M420.66,281.81a1.74,1.74,0,1,1,2.19,1.12A1.75,1.75,0,0,1,420.66,281.81Z" fill="#fff" />
                          <path d="M413.37,233.26a1.74,1.74,0,1,1,2.19,1.12A1.74,1.74,0,0,1,413.37,233.26Z" fill="#fff" />
                          <path d="M481.44,203.76a1.74,1.74,0,1,1,2.35-.73A1.74,1.74,0,0,1,481.44,203.76Z" fill="#fff" />
                          <path d="M455.9,333.73a1.74,1.74,0,1,1,2.19,1.12A1.75,1.75,0,0,1,455.9,333.73Z" fill="#fff" />
                      </g>
                      <path d="M459.74,327.75h1a19.93,19.93,0,0,0,19.48-24.28l-.38-1.67-1.71-.18a18.83,18.83,0,0,0-2.12-.12,19.88,19.88,0,0,0-20,19.81,18.57,18.57,0,0,0,.24,3.17l-.25.28-.25-.28a19.88,19.88,0,0,0-16.54-22.73,20.24,20.24,0,0,0-3.21-.25,19,19,0,0,0-2.12.12l-1.7.18-.39,1.67a19.93,19.93,0,0,0,15,23.82,20.16,20.16,0,0,0,4.45.49h1l1.35,1.48v3h-15l4.94,28.07h25l4.93-28.07h-15v-3Z" fill="#43066b" />
                      <rect x="411.13" y="185.91" width="216.26" height="7.14" fill="#43066b" />
                      <rect x="411.13" y="195.95" width="216.26" height="7.14" fill="#43066b" />
                      <rect x="411.13" y="205.98" width="216.26" height="7.14" fill="#43066b" />
                      <rect x="411.13" y="216.01" width="216.26" height="7.14" fill="#43066b" />
                      <rect x="411.13" y="226.04" width="216.26" height="7.14" fill="#43066b" />
                      <rect x="411.13" y="236.08" width="216.26" height="7.14" fill="#43066b" />
                      <rect x="411.13" y="246.11" width="216.26" height="7.14" fill="#43066b" />
                      <rect x="411.13" y="256.14" width="216.26" height="7.14" fill="#43066b" />
                      <rect x="-42.48" y="182.35" width="282.28" height="187.12" fill="#43066b" opacity="0.33" />
                      <path d="M200.76,352.56l-42.45-.77q-.59-24.71-1.16-49.4c-2-16.57,10.58-29.11,22-28.56,8.75.43,17.48,8.59,19.68,20.07Q199.79,323.24,200.76,352.56Z" fill="#43066b" />
                      <rect x="-47.93" y="406.52" width="339.23" height="107.89" transform="translate(243.37 920.93) rotate(180)" fill="#43066b" opacity="0.62" />
                      <rect x="-48.49" y="399.29" width="355.99" height="9.3" rx="3.65" ry="3.65" transform="translate(259.02 807.87) rotate(180)" fill="#43066b" />
                      <path d="M195.44,399.11H163.29c.59-8.31-.65-13.92-2-17.6a34.46,34.46,0,0,1-2.17-8.25,32.31,32.31,0,0,1,0-8.11c.47-4.18.51-11.25-1.41-23.92H201c-2.84,11-2.83,18.11-2.23,22.62a36.86,36.86,0,0,1,.29,9,44.77,44.77,0,0,1-2.17,9.56A46.24,46.24,0,0,0,195.44,399.11Z" fill="#43066b" />
                      <path d="M212.77,398.8h0a4.23,4.23,0,0,1-5.09-3.14l-11.74-49.45a4.22,4.22,0,0,1,3.13-5.09h0a4.22,4.22,0,0,1,5.09,3.13l11.75,49.46A4.23,4.23,0,0,1,212.77,398.8Z" fill="#43066b" />
                      <path d="M148,396.64h0c2.32.73,4.56-.83,5-3.49l7.72-45.8a5.54,5.54,0,0,0-3.39-6.15h0c-2.32-.73-4.56.83-5,3.49L144.6,390.5A5.51,5.51,0,0,0,148,396.64Z" fill="#43066b" />
                      <path d="M142.3,394.36h0a4.23,4.23,0,0,0,4,4.42l40.2,1.84a4.22,4.22,0,0,0,4.41-4h0a4.21,4.21,0,0,0-4-4.41l-40.19-1.85A4.23,4.23,0,0,0,142.3,394.36Z" fill="#43066b" />
                      <path d="M179,344.75h0a3.28,3.28,0,0,1-3.28-3.28v-15a3.28,3.28,0,0,1,3.28-3.28h0a3.28,3.28,0,0,1,3.29,3.28v15A3.28,3.28,0,0,1,179,344.75Z" fill="#460d72" />
                      <path d="M179.24,334c-6,.27-14.22-12.43-16.64-31.35,9.15,2.76,13.94,1.39,16.64-.49,1.63-1.13,3.18-2.92,6.08-3.47a11.59,11.59,0,0,1,7.53,1.44C192.56,320,185.33,333.76,179.24,334Z" fill="#460d72" />
                      <path d="M218.51,399.26H203.08a8,8,0,0,1,6.56-7.33C213.72,391.34,218,394.53,218.51,399.26Z" fill="#43066b" />
                      <path d="M189.31,354.72l-8.94,1.44q1-8.31,2.06-16.64l6,.39Q188.85,347.32,189.31,354.72Z" fill="#43066b" />
                      <path d="M168.45,354.58l8.92,1.6q-.9-8.34-1.78-16.67l-6,.29Z" fill="#43066b" />
                      <path d="M290.39,376.3H226.13a4.93,4.93,0,0,1-4.92-4.92l8.69-44.25a4.92,4.92,0,0,1,4.92-4.92h64.26a4.93,4.93,0,0,1,4.92,4.92l-8.69,44.25A4.92,4.92,0,0,1,290.39,376.3Z" fill="#43066b" />
                      <polygon points="261.74 395.48 249.58 395.48 255.95 370.17 268.11 370.17 261.74 395.48" fill="#43066b" />
                      <rect x="232.79" y="395.48" width="44.59" height="3.81" fill="#43066b" />
                      <path d="M214.27,399.29H201a7.43,7.43,0,0,1,13.26,0Z" fill="#460d72" />
                      <path d="M196.51,400.23a27.1,27.1,0,0,1-6.17,1.35,27.69,27.69,0,0,1-11-1.16,4.69,4.69,0,0,1-1-3.28,5.32,5.32,0,0,1,4.82-4.25,9.83,9.83,0,0,1,9.84,1.16A9.71,9.71,0,0,1,196.51,400.23Z" fill="#43066b" />
                      <path d="M281.61,364.33H244.18q3-14.08,6-28.17h38.78Q285.28,350.25,281.61,364.33Z" fill="#460d72" />
                      <rect x="-48.49" y="175.3" width="294.29" height="8.47" fill="#43066b" opacity="0.62" />
                      <path d="M681.21,445.23q-.18-11.58-.37-23.17-1.22-55.67-2.29-111.34-1.12-45.72-2.63-91.43c-.1-1.28-.22-2.55-.32-3.82a248.21,248.21,0,0,0-49.38-35H406L126,620.93h557.4Q682.47,533.08,681.21,445.23Z" opacity="0.2" fill="url(#15bd145b-8723-48ab-bea4-1d7532dd6fbf)" />
                  </g>
                  <g class="chpt3-dude" id="c48d1018-f230-4d8a-98d0-5fe4c99a5114">
                      <g>
                          <g>
                              <path d="M529.65,520.4l13.8,16.94a1.49,1.49,0,0,1,.34,2l-1,1.45-.41.61-.73,1.09.83-1.74.34-.7-.46.67-.27.41-3,4.49,1.93-3.41-2.49,3.67-15.33-1.6-3.68.51-.38,0a15.4,15.4,0,0,1-17.38-13.13l-.85-6Z" fill="#f6b297" />
                              <g opacity="0.51" style="mix-blend-mode: multiply">
                                  <polygon points="542.1 541.16 539.07 545.65 541 542.24 538.51 545.91 523.18 544.31 519.5 544.82 527.48 538.21 542.37 540.75 542.1 541.16" fill="#fbba9f" />
                              </g>
                              <polygon points="542.8 540.82 542.39 541.43 541.66 542.52 542.49 540.78 542.8 540.82" fill="#fbba9f" />
                          </g>
                          <path d="M521.35,531.36l-.27-.17,5.95.43,8.56,4.4-1.94,3.26-2.4-1.55a10.5,10.5,0,0,1,.49,1.08,13.85,13.85,0,0,1,2.76,1.72l3-5.07-10-5.11-11.68-.91,3,1.92A11.18,11.18,0,0,1,521.35,531.36Z" fill="#fc8883" />
                      </g>
                      <g>
                          <g>
                              <path d="M398.73,540.2l-40.62-76.67,40.4-15.66,31.7,78.31a16.66,16.66,0,0,1-4,18.34,17.27,17.27,0,0,1-7.72,4.26A17.36,17.36,0,0,1,398.73,540.2Z" fill="#272749" />
                              <path d="M336.49,422.7a23.16,23.16,0,0,1,4.61-27.56,23.9,23.9,0,0,1,4.45-3.37,25,25,0,0,1,5.08-2.23c.21-.07.42-.15.55-.18a24.15,24.15,0,0,1,29.3,14l18,44.54-40.4,15.66Z" fill="#272749" />
                          </g>
                          <polygon points="417.05 509.5 423.57 507.9 511.89 526.45 505.25 545.76 417.05 549.02 406.06 539.83 417.05 509.5" fill="#272749" />
                      </g>
                      <g>
                          <polygon points="410.43 689.84 457.85 882.24 463.35 882.24 427.69 687.27 410.43 689.84" fill="#360a59" />
                          <polygon points="221.1 882.24 226.6 882.24 274.03 689.84 256.76 687.27 221.1 882.24" fill="#360a59" />
                          <polygon points="338.96 692.4 342.83 882.24 349.09 882.24 356.83 694.97 338.96 692.4" fill="#360a59" />
                          <path d="M192,515.13l15.9,114.18a87.4,87.4,0,0,0,47.37,66.09,85.77,85.77,0,0,0,15.87,6.14,87.11,87.11,0,0,0,25,3.18L339.2,704l17.27-.29,57.13-1,11.93-.21a27.59,27.59,0,0,0,4.85-.5,28.53,28.53,0,0,0,19.48-42.16,27,27,0,0,0-4-5.46,28.83,28.83,0,0,0-6.77-5.28A28.4,28.4,0,0,0,429,645.64l-18.66-2.57A28.57,28.57,0,0,1,387,623.48L349,504a64,64,0,0,0-59.25-44.57L243,458.16A49.52,49.52,0,0,0,222.2,462c-.77.33-1.54.68-2.29,1.05A50,50,0,0,0,192,515.13Z" fill="#7f38a0" />
                          <path d="M219.91,463.08l19.87,138a56.05,56.05,0,0,0,55.48,48.05H439.09A28.4,28.4,0,0,0,429,645.64l-18.66-2.57A28.57,28.57,0,0,1,387,623.48L349,504a64,64,0,0,0-59.25-44.57L243,458.16A49.52,49.52,0,0,0,222.2,462C221.43,462.36,220.66,462.71,219.91,463.08Z" fill="#5d2b77" />
                      </g>
                      <g>
                          <g id="474fa68f-c560-440c-8a65-f36f2fb959ab">
                              <g id="2c86e3c8-1a38-4143-9ec7-9a73686d5383">
                                  <path d="M342.19,590.42a35.62,35.62,0,0,1,20.87-6.55l180.52,14.07a26,26,0,0,1,25,26.89l-.74,19.86-7,186.37-33.6,1.53-5-179.25a7.4,7.4,0,0,0-7.61-7.2l-153.9-4.38c-15.46.35-28.15-18-28.09-33.44C332.67,600.76,336.49,594.64,342.19,590.42Z" fill="#222247" />
                              </g>
                          </g>
                          <g>
                              <path d="M263.37,418.66V607.28A24.77,24.77,0,0,0,288.13,632h56.61a37.86,37.86,0,0,0,37.9-37.9V433.31a50.54,50.54,0,0,0-26.8-44.62,49.65,49.65,0,0,0-9.43-3.86,49,49,0,0,0-6.53-1.47,51.13,51.13,0,0,0-7.77-.59H299.25A36.33,36.33,0,0,0,290,384c-1.08.29-2.15.63-3.2,1a36.55,36.55,0,0,0-3.84,1.68A35.88,35.88,0,0,0,263.37,418.66Z" fill="#16162b" />
                              <path d="M263.37,583.88v23.4A24.77,24.77,0,0,0,288.13,632h56.61a37.86,37.86,0,0,0,37.9-37.9V583.88Z" fill="#16162b" />
                              <path d="M365.85,583.79V430.51a50.56,50.56,0,0,0-26.8-44.62,49.93,49.93,0,0,0-7.14-3.12h.2a51.13,51.13,0,0,1,7.77.59,49,49,0,0,1,6.53,1.47,49.65,49.65,0,0,1,9.43,3.86,50.54,50.54,0,0,1,26.8,44.62V583.79Z" fill="#16162b" opacity="0.46" style="mix-blend-mode: soft-light" />
                          </g>
                          <g id="463a3162-b0fd-42db-b03f-84007331779e">
                              <g id="560cdac4-2be4-4e97-b12f-df0d34c34bde">
                                  <path d="M263.65,611.12c-.06,15.45,12.63,33.79,28.09,33.44l153.9,4.37a7.41,7.41,0,0,1,7.6,7.2L457.91,825l.23,8.32.06,2.07,25.21-1.14,8.39-.39.07-1.9.26-7,6.67-177.51.75-19.85a25.93,25.93,0,0,0-25-26.88L294.07,586.67a37.91,37.91,0,0,0-5.53.41,34.65,34.65,0,0,0-15.34,6.13c-.43.32-.85.66-1.26,1l-.41.34c-.29.24-.56.49-.82.75h0l-.31.29h0A21.47,21.47,0,0,0,263.65,611.12Z" fill="#222247" />
                                  <path d="M296.85,586.89a36.13,36.13,0,0,0-8.25.19h-.06L466,606.48a25.93,25.93,0,0,1,25,26.88l-.74,19.85-6.42,170.63,0,1.15-.34,9.25,8.39-.39.07-1.9.26-7,6.67-177.51.75-19.85a25.93,25.93,0,0,0-25-26.88Z" fill="#222247" opacity="0.42" style="mix-blend-mode: screen" />
                                  <path d="M270.4,595.61a.5.5,0,0,0,.31-.29Z" fill="#222247" opacity="0.42" style="mix-blend-mode: screen" />
                              </g>
                          </g>
                          <g>
                              <rect x="463.64" y="543.5" width="103.16" height="11.91" rx="2.32" ry="2.32" transform="translate(1030.43 1098.91) rotate(-180)" fill="#c4e3f7" />
                              <rect x="397.58" y="543.5" width="103.16" height="11.91" rx="2.32" ry="2.32" transform="translate(898.31 1098.91) rotate(-180)" fill="#8fcaea" />
                          </g>
                      </g>
                      <g>
                          <polygon points="157.71 875.7 134.05 589.46 57.45 588.07 29.83 875.7 19.59 875.7 40.11 565.14 148.69 565.14 169.2 875.7 157.71 875.7" fill="#360a59" />
                          <g>
                              <rect x="454.22" y="330.14" width="257.02" height="198.42" rx="21.12" ry="21.12" fill="#8fcaea" />
                              <path d="M542.66,550.67a22.3,22.3,0,0,0,22.13-22.23v-4.23h55.86v4.23a22.25,22.25,0,0,0,22.23,22.23l0,2.9-100.23,0-1.46,0v-2.89Z" fill="#8fcaea" />
                              <path d="M463.55,351.25V507.44a21.14,21.14,0,0,0,21.11,21.12H699.45a21.15,21.15,0,0,0,21.12-21.12V351.25a21.14,21.14,0,0,0-21.12-21.11H484.66A21.13,21.13,0,0,0,463.55,351.25Z" fill="#c4e3f7" />
                              <path d="M556.53,428.48a12,12,0,1,0,12-12A12,12,0,0,0,556.53,428.48Z" fill="#fff" />
                              <path d="M587,428.48a12,12,0,1,0,12-12A12,12,0,0,0,587,428.48Z" fill="#fff" />
                              <path d="M616,428.48a12,12,0,1,0,12-12A12,12,0,0,0,616,428.48Z" fill="#fff" opacity="0.51" />
                          </g>
                          <polygon points="764.53 882.02 740.87 595.77 664.27 594.39 636.65 882.02 626.41 882.02 646.93 571.45 755.51 571.45 776.02 882.02 764.53 882.02" fill="#360a59" />
                          <polygon points="787.51 572.79 631.82 572.79 149.19 572.79 39.61 572.79 21.93 572.79 21.93 553.13 507.63 553.13 609.32 553.13 631.82 553.13 787.51 553.13 787.51 572.79" fill="#fecb05" />
                          <rect x="631.82" y="553.13" width="155.69" height="19.66" transform="translate(1419.33 1125.92) rotate(-180)" fill="#ca7c00" />
                      </g>
                      <polygon points="267.54 390.04 282.31 392.29 287.55 387.68 287.36 384.97 267.54 390.04" fill="#16162b" />
                      <use id="1a09b7f7-2739-4050-a3fb-01fd9f79506f" data-name="New Symbol 25" width="29.11" height="108.65" transform="matrix(-0.12, 1.14, 1.14, 0.12, 255.73, 517.51)" xlink:href="#fcbbca72-6e40-43ee-bf52-87c4d8cf99f9" />
                      <use width="23.42" height="26.78" transform="translate(353.7 557.43) rotate(-78.59) scale(1.65)" xlink:href="#3e9ab191-b566-4681-bdea-6eafd047ce4a" />
                      <g>
                          <path d="M246,534.7l3.51-81.29,41.31,5.65-11.74,78.57a16.2,16.2,0,0,1-12.25,13.19,18,18,0,0,1-3.34.49,17.44,17.44,0,0,1-5.18-.54A16,16,0,0,1,246,534.7Z" fill="#272749" />
                          <path d="M251.35,410.11a22.43,22.43,0,0,1,17.28-20.44A24.18,24.18,0,0,1,274,389a24.47,24.47,0,0,1,5.32.5,3.89,3.89,0,0,1,.54.11c11.78,2.65,19.35,13.33,17.62,24.82l-6.68,44.68-41.31-5.65Z" fill="#272749" />
                      </g>
                      <path d="M271.17,412l-20.05-.23L246,524.1s-6.54,26.7,17.31,28.5,75.54,4.92,75.54,4.92l7.72-23.62L300,523.65l-16.45-5.35,9-76.54Z" fill="#272749" />
                      <path d="M166.2,652c.7-8,1.32-16,2.1-23.93,1.71-17.53,3.85-35.16,8.67-52.14a24.88,24.88,0,0,1,2.49-5.84,279.63,279.63,0,0,1-103.29-156H9.81V656L166,654.53Z" fill="#e4b7f4" />
                      <g>
                          <g>
                              <path d="M342.78,347.64v35.77c0,6.37-9,11.6-20,11.6h-10.3c-11,0-20-5.23-20-11.6V347.64a7.89,7.89,0,0,1,2.16-5.22c2.18-2.48,5.85-4.46,10.33-5.51a32.43,32.43,0,0,1,7.55-.87h10.3C333.77,336,342.78,341.26,342.78,347.64Z" fill="#ffb597" />
                              <path d="M342.78,338.17v11.3c-16.48,8.33-34,17.51-50.36,25.45V338.17a10.52,10.52,0,0,1,2.16-6.26l.37-.24,10-6.38a27.77,27.77,0,0,1,7.55-1h10.3C333.77,324.25,342.78,330.51,342.78,338.17Z" fill="#ff9983" />
                          </g>
                          <path d="M359.72,257c-2.86-5.69-9.42-7.48-17.85-11.77l-4.56-2.38c-.46-.25-.94-.48-1.42-.71h-.17a43.68,43.68,0,0,0-35.07-.67l0,0c-1,.41-2,.87-2.95,1.35-11.2,5.66-25.58,9.5-23.87,25.26l3.6,33.45,1.92,17.83a21,21,0,0,0,3.7,9.83c.27.4.56.78.87,1.16a18.71,18.71,0,0,0,14.75,7.23l38.81-.73A18.43,18.43,0,0,0,351,330c.3-.36.6-.74.87-1.12a21.31,21.31,0,0,0,4-10.43l1.76-16.91,3.43-32.75C361.64,263.45,361.12,259.75,359.72,257Z" fill="#000429" />
                          <path d="M352,332.29V280.44a12.64,12.64,0,0,0-8.75-12l-22.92-7.57a12.8,12.8,0,0,0-5.34-.58,13.14,13.14,0,0,0-3.26.78L290.67,269c-4.9,1.87-8.67,6.55-8.67,11.76v51.45c0,.45.54,1.18.59,2A56.33,56.33,0,0,0,289.17,353h0l1.78,2.21c2.73,2.77,8.13,8.07,12.52,10.1.49.2,1,.5,1.56.7v.05a4.36,4.36,0,0,1,.65.26c5.45,1.94,13.33,3.55,21.63,1.32,5.55-1.72,11.1-6.36,14.83-10l4.6-4.89h.06l2.34-2.58c1.3-1.6,2.19-8.68,2.57-13.58C351.91,334.68,352,333.09,352,332.29Z" fill="#fbba9f" />
                          <use width="21.01" height="10.67" transform="translate(303.9 340.96) scale(1.31 0.92)" xlink:href="#e4140a1e-6cf9-4be1-8263-eec3cf9c67f0" />
                          <path d="M295.54,233.26a37.25,37.25,0,0,0-21.69,16.79l9.35-1.56a137.69,137.69,0,0,0-25.3,34.41c10.33,2.48,20.74,5,31.24,4.64s21.21-3.74,29.57-12l-6,11.06c1.73-3.21,14.53-6.12,17.87-8a82.56,82.56,0,0,0,14.46-10.36c6.94-6.34,12.36-14.29,9-21.91-2.83-6.34-8.35-10.92-13.81-13.67Z" fill="#000429" />
                          <use id="7e824c42-b8c0-4cae-9103-16d53ff210bb" data-name="New Symbol 4" width="3.26" height="4.72" transform="matrix(-3.29, 0, 0, 1.99, 338.46, 307.62)" xlink:href="#3e440a9d-9399-4033-b35c-247df2193805" />
                          <use id="c97ea880-5240-4c3f-8b85-91f3f7e99032" data-name="New Symbol 66" width="14.06" height="6.75" transform="translate(327.17 295.52) scale(1.09)" xlink:href="#49a1e408-11de-4538-b380-1d3c492cf865" />
                          <g id="a85d8969-006c-44a3-8924-1c714bc94011">
                              <use id="e1f9e53a-9f97-4b2e-8e50-9b8799e6a0b9" data-name="New Symbol 66" width="14.06" height="6.75" transform="matrix(-1.09, 0, 0, 1.09, 307.78, 295.52)" xlink:href="#49a1e408-11de-4538-b380-1d3c492cf865" />
                          </g>
                          <use id="cf264839-12de-4945-bd56-5224366ea1c8" data-name="New Symbol 4" width="3.26" height="4.72" transform="matrix(-3.29, 0, 0, 1.99, 307.2, 307.7)" xlink:href="#3e440a9d-9399-4033-b35c-247df2193805" />
                      </g>
                      <path d="M283,293.13a6.12,6.12,0,0,0-.65-.13h-2.64A12.81,12.81,0,0,0,267,305.6v14.9c0,6.86,5.84,13.5,12.71,13.5h2.64c.12,0,.65-1,.65-1Z" fill="#c4e3f7" />
                      <rect x="274.8" y="287.42" width="7.91" height="12.99" fill="#c4e3f7" />
                      <path d="M352,291.69s.1-.69.22-.69h2.69c7,0,13.09,6.38,13.09,13.35v15.13c0,7-6.12,13.52-13.09,13.52h-2.69c-.12,0-.22-.85-.22-.86Z" fill="#c4e3f7" />
                      <rect x="351.93" y="285.96" width="8.16" height="13.88" transform="translate(712.03 585.8) rotate(-180)" fill="#c4e3f7" />
                      <path d="M353.71,252.83A48,48,0,0,1,347.28,264a23,23,0,0,1,3.12,7,31.61,31.61,0,0,1,1.06,7.47,19.09,19.09,0,0,1-.15,2.27,106.54,106.54,0,0,1,.55,11.33c0,27.64,7.9,0,7.9,0l.13-.33S362.29,262.62,353.71,252.83Z" fill="#c4e3f7" />
                      <polygon points="275.51 289.65 275 288.18 275 286.37 282.93 287.38 280.87 289.08 275.51 289.65" fill="#c4e3f7" />
                      <path d="M330.53,343.19s24.21,3.55,23.83-10.88" fill="none" stroke="#a3becc" stroke-miterlimit="10" stroke-width="5" />
                      <path d="M336.07,338h-7.84c-2.38,0-4.32,1.93-4.32,5s1.94,5,4.32,5H340V338Z" fill="#c4e3f7" />
                  </g>


              </g>
          </g>
      </g>
  </g>
</svg>