<svg xmlns="http://www.w3.org/2000/svg" xmlns:xlink="http://www.w3.org/1999/xlink" width="700" height="700" viewBox="0 0 700 700">
                        <defs>
                            <clipPath id="e35da01d-747a-4c79-91eb-984df13a3671">
                                <circle cx="344.98" cy="347.42" r="279.44" fill="none" />
                            </clipPath>
                            <linearGradient id="1120976a-7485-471e-8722-5aa9e32a495e" x1="339.11" y1="-157.63" x2="339.11" y2="643" gradientUnits="userSpaceOnUse">
                                <stop offset="0" stop-color="#fff" />
                                <stop offset="1" stop-color="#fff" stop-opacity="0" />
                            </linearGradient>
                            <symbol id="32a1b121-7fae-4304-be31-debdd30352cf" data-name="New Symbol 25" viewBox="0 0 29.11 108.65">
                                <path d="M11.39.19l-.28,0C3.86,1.53-1,10,.18,19.22l8.08,73.9.86,7.29c.59,5,4.41,8.63,8.64,8.21,3.84-.39,6.83-4,7.09-8.56l.43-7.54L29.1,20.38C29.42,8.3,20.84-1.49,11.39.19Z" fill="#ffb597" />
                            </symbol>
                            <symbol id="e69ad275-d912-497a-b919-51305da5a608" data-name="New Symbol 2" viewBox="0 0 21.01 10.68">
                                <path d="M.75,0C.18,0-.18,1,.09,1.72c1.89,5.31,5.84,9,10.42,9S19,7,20.92,1.72C21.19,1,20.83,0,20.26,0Z" fill="#fff" />
                            </symbol>
                            <symbol id="c7792ae9-bf6d-499c-8523-de5c25ea7001" data-name="ÕÓ‚˚È ÒËÏ‚ÓÎ 10" viewBox="0 0 7 6.67">
                                <ellipse cx="3.5" cy="3.33" rx="3.5" ry="3.33" fill="#ff9983" />
                            </symbol>
                            <symbol id="e7cebd8a-66bf-4857-8d5c-8f44d1d9ac22" data-name="New Symbol 4" viewBox="0 0 3.26 4.72">
                                <path d="M1.63,4.72h0A1.63,1.63,0,0,1,0,3.09V1.63A1.63,1.63,0,0,1,1.63,0h0A1.63,1.63,0,0,1,3.26,1.63V3.09A1.63,1.63,0,0,1,1.63,4.72Z" fill="#67413a" />
                            </symbol>
                            <symbol id="cd44aeee-7979-49bb-bd20-863b0c302b8d" data-name="New Symbol 66" viewBox="0 0 14.06 6.75">
                                <path d="M13.15,1.58A19.05,19.05,0,0,0,1,.56L0,.8,1.24,5.85l1-.23a13.73,13.73,0,0,1,8.86.73l.91.4L14.06,2Z" fill="#96686c" />
                            </symbol>
                            <symbol id="88faa52a-3649-4d3b-b53a-75e3ac031842" data-name="ÕÓ‚˚È ÒËÏ‚ÓÎ 5" viewBox="0 0 66.79 65.65">
                                <g>
                                    <path d="M36.52,1H28.27a6.74,6.74,0,0,0-6.74,6.74v4.38a.33.33,0,0,0,.33.33h2.51a.33.33,0,0,0,.33-.33V7.74a3.57,3.57,0,0,1,3.57-3.57h8.25a3.57,3.57,0,0,1,3.57,3.57v4.38a.33.33,0,0,0,.33.33h2.5a.34.34,0,0,0,.34-.33V7.74A6.75,6.75,0,0,0,36.52,1Z" fill="#171719" />
                                    <path d="M42.92,13.45h-2.5a1.33,1.33,0,0,1-1.33-1.33V7.74a2.58,2.58,0,0,0-2.57-2.57H28.27A2.57,2.57,0,0,0,25.7,7.74v4.38a1.33,1.33,0,0,1-1.33,1.33H21.86a1.33,1.33,0,0,1-1.33-1.33V7.74A7.75,7.75,0,0,1,28.27,0h8.25a7.75,7.75,0,0,1,7.74,7.74v4.38A1.33,1.33,0,0,1,42.92,13.45Zm-1.83-2h1.17V7.74A5.75,5.75,0,0,0,36.52,2H28.27a5.75,5.75,0,0,0-5.74,5.74v3.71H23.7V7.74a4.58,4.58,0,0,1,4.57-4.57h8.25a4.58,4.58,0,0,1,4.57,4.57Z" fill="#171719" />
                                </g>
                                <path d="M10.73,13.3h47.1a8.27,8.27,0,0,1,8.27,8.27V61a4.66,4.66,0,0,1-4.66,4.66H5.84a3.38,3.38,0,0,1-3.38-3.38V21.57a8.27,8.27,0,0,1,8.27-8.27Z" fill="#171719" />
                                <path d="M63.53,65.31h0a3.28,3.28,0,0,1-3.27-3.26V16.13a3.28,3.28,0,0,1,3.27-3.27h0a3.28,3.28,0,0,1,3.26,3.27V62.05A3.27,3.27,0,0,1,63.53,65.31Z" fill="#a56052" />
                                <rect x="2.91" y="40.93" width="62.2" height="6.71" fill="#75372e" opacity="0.61" />
                                <path d="M66.43,14.32a3.05,3.05,0,0,0-3.13-3H6.75A6.58,6.58,0,0,0,0,17.75V38.28a6.11,6.11,0,0,0,6.27,5.93H55a6.11,6.11,0,0,0,6.27-5.93V21.17c0-3.3-2.08-6.07,1.15-6.85Z" fill="#171719" />
                                <path d="M63.53,65.31h0a3.28,3.28,0,0,1-3.27-3.26V16.13a3.28,3.28,0,0,1,3.27-3.27h0a3.28,3.28,0,0,1,3.26,3.27V62.05A3.27,3.27,0,0,1,63.53,65.31Z" fill="#75372e" />
                                <g>
                                    <rect x="21.83" y="43.75" width="14.03" height="8.21" rx="2.91" ry="2.91" fill="#fecb05" />
                                    <rect x="21.83" y="40.33" width="14.03" height="9.92" rx="3.2" ry="3.2" fill="#fecb05" />
                                </g>
                            </symbol>
                            <symbol id="bd4725ad-4ee5-47a0-be34-62dc4d98de00" data-name="ÕÓ‚˚È ÒËÏ‚ÓÎ 16" viewBox="0 0 23.42 26.78">
                                <path d="M23.1,10.93l-5.8-8.7A4.73,4.73,0,0,0,13.65.13L8.75,0h0A2,2,0,0,0,6.62,1.16L0,15.78l4.5,10,10.75,1,2.25-2,.5-7,4.81-4.41A1.89,1.89,0,0,0,23.1,10.93Z" fill="#ffb597" />
                                <line x1="11.86" y1="17.96" x2="15.25" y2="26.53" fill="none" stroke="#ff8072" stroke-miterlimit="10" />
                                <line x1="7.81" y1="18.56" x2="11.19" y2="26.39" fill="none" stroke="#ff8072" stroke-miterlimit="10" />
                                <line x1="3.87" y1="18.2" x2="7.25" y2="26.03" fill="none" stroke="#ff8072" stroke-miterlimit="10" />
                                <line x1="17" y1="9.78" x2="17.75" y2="17.53" fill="none" stroke="#ff8072" stroke-miterlimit="10" />
                            </symbol>
                        </defs>
                        <title>denis-4</title>
                        <g style="isolation: isolate">
                            <g id="8a75201c-dc8b-45e7-a0d9-c86aaa4a7587" data-name="bck16">
                                <rect y="-4.8" width="701.05" height="703.44" fill="#e4b7f4" />
                                <g clip-path="url(#e35da01d-747a-4c79-91eb-984df13a3671)">
                                    <g>
                                        <circle cx="345.88" cy="347.05" r="277.95" fill="#59097a" />
                                        <g>
                                            <g opacity="0.27">
                                                <g>
                                                    <rect x="299.92" y="344.3" width="372.39" height="185.66" fill="#786552" />
                                                    <rect x="299.92" y="330.2" width="372.39" height="59.84" fill="#363636" />
                                                    <rect x="282.46" y="330.2" width="24.86" height="199.77" fill="#786552" />
                                                    <rect x="664.9" y="330.2" width="24.86" height="199.77" fill="#786552" />
                                                    <g>
                                                        <rect x="427.53" y="390.04" width="9.96" height="139.93" fill="#363636" />
                                                        <rect x="534.73" y="390.04" width="9.96" height="139.93" fill="#363636" />
                                                    </g>
                                                    <rect x="437.49" y="390.04" width="97.24" height="139.93" fill="#7ab1b3" />
                                                    <rect x="481.13" y="390.04" width="9.96" height="139.93" fill="#363636" />
                                                    <rect x="307.32" y="390.04" width="120.21" height="104.33" fill="#7ab1b3" />
                                                    <rect x="544.69" y="390.04" width="120.21" height="104.33" fill="#7ab1b3" />
                                                    <rect x="430.44" y="457.23" width="111.35" height="5.55" fill="#363636" />
                                                    <rect x="307.32" y="494.37" width="120.21" height="10.05" fill="#cfcfcf" style="mix-blend-mode: multiply" />
                                                    <rect x="544.69" y="494.37" width="120.21" height="10.05" fill="#cfcfcf" style="mix-blend-mode: multiply" />
                                                    <g>
                                                        <rect x="302.16" y="506.62" width="23.76" height="9.1" rx="1.17" ry="1.17" fill="#d9d9d9" style="mix-blend-mode: multiply" />
                                                        <rect x="314.69" y="517.11" width="23.76" height="9.1" rx="1.17" ry="1.17" fill="#d9d9d9" style="mix-blend-mode: multiply" />
                                                        <rect x="339.91" y="517.11" width="23.76" height="9.1" rx="1.17" ry="1.17" fill="#d9d9d9" style="mix-blend-mode: multiply" />
                                                        <rect x="364.89" y="517.11" width="23.76" height="9.1" rx="1.17" ry="1.17" fill="#d9d9d9" style="mix-blend-mode: multiply" />
                                                        <rect x="390.11" y="517.11" width="23.76" height="9.1" rx="1.17" ry="1.17" fill="#d9d9d9" style="mix-blend-mode: multiply" />
                                                        <rect x="327.18" y="506.62" width="23.76" height="9.1" rx="1.17" ry="1.17" fill="#d9d9d9" style="mix-blend-mode: multiply" />
                                                        <rect x="352.07" y="506.62" width="23.76" height="9.1" rx="1.17" ry="1.17" fill="#d9d9d9" style="mix-blend-mode: multiply" />
                                                        <rect x="377.05" y="506.62" width="23.76" height="9.1" rx="1.17" ry="1.17" fill="#d9d9d9" style="mix-blend-mode: multiply" />
                                                        <rect x="401.99" y="506.62" width="23.76" height="9.1" rx="1.17" ry="1.17" fill="#d9d9d9" style="mix-blend-mode: multiply" />
                                                        <path d="M311.94,517.11h-9.78v9.1h9.78A1.17,1.17,0,0,0,313.1,525v-6.76A1.16,1.16,0,0,0,311.94,517.11Z" fill="#d9d9d9" style="mix-blend-mode: multiply" />
                                                        <path d="M425.75,517.11h-9.49a1.17,1.17,0,0,0-1.17,1.17V525a1.18,1.18,0,0,0,1.17,1.17h9.49Z" fill="#d9d9d9" style="mix-blend-mode: multiply" />
                                                    </g>
                                                    <g>
                                                        <rect x="546.75" y="507.05" width="23.71" height="9.08" rx="1.17" ry="1.17" fill="#d9d9d9" style="mix-blend-mode: multiply" />
                                                        <rect x="559.25" y="517.51" width="23.7" height="9.08" rx="1.17" ry="1.17" fill="#d9d9d9" style="mix-blend-mode: multiply" />
                                                        <rect x="584.42" y="517.51" width="23.7" height="9.08" rx="1.17" ry="1.17" fill="#d9d9d9" style="mix-blend-mode: multiply" />
                                                        <rect x="609.34" y="517.51" width="23.7" height="9.08" rx="1.17" ry="1.17" fill="#d9d9d9" style="mix-blend-mode: multiply" />
                                                        <rect x="634.51" y="517.51" width="23.7" height="9.08" rx="1.17" ry="1.17" fill="#d9d9d9" style="mix-blend-mode: multiply" />
                                                        <rect x="571.71" y="507.05" width="23.71" height="9.08" rx="1.17" ry="1.17" fill="#d9d9d9" style="mix-blend-mode: multiply" />
                                                        <rect x="596.55" y="507.05" width="23.7" height="9.08" rx="1.17" ry="1.17" fill="#d9d9d9" style="mix-blend-mode: multiply" />
                                                        <rect x="621.48" y="507.05" width="23.71" height="9.08" rx="1.17" ry="1.17" fill="#d9d9d9" style="mix-blend-mode: multiply" />
                                                        <rect x="646.36" y="507.05" width="23.7" height="9.08" rx="1.17" ry="1.17" fill="#d9d9d9" style="mix-blend-mode: multiply" />
                                                        <path d="M556.5,517.51h-9.75v9.08h9.75a1.17,1.17,0,0,0,1.17-1.17v-6.74A1.17,1.17,0,0,0,556.5,517.51Z" fill="#d9d9d9" style="mix-blend-mode: multiply" />
                                                        <path d="M670.07,517.51H660.6a1.17,1.17,0,0,0-1.17,1.17v6.74a1.17,1.17,0,0,0,1.17,1.17h9.47Z" fill="#d9d9d9" style="mix-blend-mode: multiply" />
                                                    </g>
                                                    <rect x="282.46" y="362.91" width="407.3" height="10.36" fill="#4d4d4d" />
                                                    <rect x="282.46" y="379.69" width="407.3" height="10.36" fill="#4d4d4d" />
                                                    <rect x="282.46" y="330.2" width="407.3" height="10.36" fill="#4d4d4d" />
                                                    <rect x="282.46" y="346.81" width="407.3" height="10.36" fill="#4d4d4d" />
                                                    <rect x="282.46" y="340.56" width="407.3" height="3.75" fill="#ccc" style="mix-blend-mode: multiply" />
                                                    <rect x="282.46" y="357.16" width="407.3" height="3.75" fill="#ccc" style="mix-blend-mode: multiply" />
                                                    <rect x="282.46" y="373.26" width="407.3" height="3.75" fill="#ccc" style="mix-blend-mode: multiply" />
                                                    <rect x="307.32" y="390.04" width="120.21" height="5.41" fill="#ccc" style="mix-blend-mode: multiply" />
                                                    <rect x="544.69" y="390.04" width="120.21" height="5.41" fill="#ccc" style="mix-blend-mode: multiply" />
                                                    <rect x="282.46" y="529.97" width="407.3" height="10.93" fill="#bfbfbf" />
                                                    <g>
                                                        <g>
                                                            <rect x="391.76" y="531.53" width="188.7" height="10.05" fill="#bfbfbf" />
                                                            <rect x="391.76" y="532.8" width="188.7" height="3.03" fill="#bfbfbf" style="mix-blend-mode: multiply" />
                                                            <path d="M580.46,532.9H391.76a1.37,1.37,0,0,1,0-2.74h188.7a1.37,1.37,0,0,1,0,2.74Z" fill="#bfbfbf" />
                                                        </g>
                                                        <g>
                                                            <rect x="380.11" y="541.58" width="212" height="10.05" fill="#bfbfbf" />
                                                            <rect x="380.11" y="543.08" width="212" height="3.03" fill="#bfbfbf" style="mix-blend-mode: multiply" />
                                                            <path d="M592.11,543h-212a1.37,1.37,0,0,1,0-2.74h212a1.37,1.37,0,0,1,0,2.74Z" fill="#bfbfbf" />
                                                        </g>
                                                    </g>
                                                    <g>
                                                        <rect x="403.77" y="489.41" width="19.72" height="40.55" fill="#4d4d4d" />
                                                        <rect x="403.77" y="490.47" width="19.72" height="2.38" fill="#ccc" style="mix-blend-mode: multiply" />
                                                        <path d="M423.49,489.94H403.77a1.59,1.59,0,1,1,0-3.17h19.72a1.59,1.59,0,1,1,0,3.17Z" fill="#4d4d4d" />
                                                    </g>
                                                </g>
                                                <rect x="282.46" y="304.95" width="407.3" height="25.25" fill="#786552" />
                                                <rect x="282.46" y="312.9" width="407.3" height="11.78" fill="#ccc" style="mix-blend-mode: multiply" />
                                                <rect x="302.16" y="390.04" width="5.17" height="114.37" fill="#cfcfcf" style="mix-blend-mode: multiply" />
                                                <rect x="664.9" y="390.04" width="5.17" height="114.37" fill="#cfcfcf" style="mix-blend-mode: multiply" />
                                                <text transform="translate(427.53 377.95)" font-size="27.28" fill="#fff" font-family="GTWalsheimv2Manual-Black, GTWalsheimv2Manual Black">О
                                                    <tspan x="18.8" y="0" letter-spacing="-0.03em">Г</tspan>
                                                    <tspan x="29.65" y="0">ОНЁК</tspan>
                                                </text>
                                            </g>
                                            <path d="M282,304V541l96.89-.09a1.42,1.42,0,0,0,1.18,2.08c0,.12,0,5.29,0,8.68,45.61.1,211.94,1,211.94.3v-11l98,0V304Z" fill="#67008d" opacity="0.64" style="mix-blend-mode: overlay" />
                                        </g>
                                        <path d="M347,304H526s-21.25-15.58-37-19.62-28.74-11-39.56-4.51-21.48,9.6-27.48,7.7-28-10.49-41.33-3.19S325.33,304,325.33,304Z" fill="#9957bc" opacity="0.51" />
                                        <path d="M201.19,546.66c-8.11-2.78-18.15,5.68-20.09,6.54h30.12S205,549.11,201.19,546.66Z" fill="#9957bc" />
                                        <g opacity="0.51" class="chpt4-showflakes">
                                            <path d="M446.24,247.38a5.15,5.15,0,1,1,3.32-6.5A5.17,5.17,0,0,1,446.24,247.38Z" fill="#fff" />
                                            <path d="M140.3,418.32a5.15,5.15,0,1,1,3.33-6.49A5.15,5.15,0,0,1,140.3,418.32Z" fill="#fff" />
                                            <path d="M513,408.94a5.15,5.15,0,1,1,3.32-6.5A5.16,5.16,0,0,1,513,408.94Z" fill="#fff" />
                                            <path d="M350.52,116.32a2.17,2.17,0,1,1,1.4-2.73A2.16,2.16,0,0,1,350.52,116.32Z" fill="#fff" />
                                            <path d="M513.35,325.52a2.17,2.17,0,1,1,2.93-.91A2.16,2.16,0,0,1,513.35,325.52Z" fill="#fff" />
                                            <path d="M208.78,385.9a2.17,2.17,0,1,1,1.4-2.74A2.18,2.18,0,0,1,208.78,385.9Z" fill="#fff" />
                                            <path d="M516.32,477.89a2.17,2.17,0,1,1,2.93-.92A2.18,2.18,0,0,1,516.32,477.89Z" fill="#fff" />
                                            <path d="M390.33,395.89a2.17,2.17,0,1,1,2.94-.92A2.17,2.17,0,0,1,390.33,395.89Z" fill="#fff" />
                                            <path d="M589,377.31a2.17,2.17,0,1,1,2.94-.91A2.16,2.16,0,0,1,589,377.31Z" fill="#fff" />
                                            <path d="M512.55,511.92a2.17,2.17,0,1,1,2-3.85,2.17,2.17,0,0,1-2,3.85Z" fill="#fff" />
                                            <path d="M411.11,471.62a2.17,2.17,0,1,1,2.93-.92A2.17,2.17,0,0,1,411.11,471.62Z" fill="#fff" />
                                            <path d="M208.74,135.07a2.17,2.17,0,1,1-.91-2.94A2.17,2.17,0,0,1,208.74,135.07Z" fill="#fff" />
                                            <path d="M174.37,182.62a2.17,2.17,0,1,1-.92-2.94A2.18,2.18,0,0,1,174.37,182.62Z" fill="#fff" />
                                            <path d="M401.63,178.41a2.17,2.17,0,1,1-.92-2.93A2.16,2.16,0,0,1,401.63,178.41Z" fill="#fff" />
                                            <path d="M363,559.73a2.17,2.17,0,1,1-2.73-1.4A2.17,2.17,0,0,1,363,559.73Z" fill="#fff" />
                                            <path d="M490.24,537.82a2.17,2.17,0,1,1-2.74-1.4A2.18,2.18,0,0,1,490.24,537.82Z" fill="#fff" />
                                            <path d="M467.72,209.5a2.17,2.17,0,1,1-.91-2.93A2.18,2.18,0,0,1,467.72,209.5Z" fill="#fff" />
                                            <path d="M528.51,175.82a4.73,4.73,0,1,1,6,3.05A4.73,4.73,0,0,1,528.51,175.82Z" fill="#fff" />
                                            <path d="M617.4,317.3a5.15,5.15,0,1,1,6.5,3.32A5.17,5.17,0,0,1,617.4,317.3Z" fill="#fff" />
                                            <path d="M394.59,83.28a5.15,5.15,0,1,1,6.49,3.32A5.16,5.16,0,0,1,394.59,83.28Z" fill="#fff" />
                                            <path d="M255.73,145.84a5.83,5.83,0,1,1,7.34,3.75A5.83,5.83,0,0,1,255.73,145.84Z" fill="#fff" />
                                            <path d="M461.78,270.08a2.17,2.17,0,1,1,2.73,1.4A2.16,2.16,0,0,1,461.78,270.08Z" fill="#fff" />
                                            <path d="M538.47,368.48a2.17,2.17,0,1,1,2.73,1.4A2.16,2.16,0,0,1,538.47,368.48Z" fill="#fff" />
                                            <path d="M429.27,123.32a2.17,2.17,0,1,1,2.74,1.4A2.18,2.18,0,0,1,429.27,123.32Z" fill="#fff" />
                                            <path d="M568.18,257.89a2.17,2.17,0,1,1,2.74,1.4A2.18,2.18,0,0,1,568.18,257.89Z" fill="#fff" />
                                            <path d="M400.34,266.57a2.17,2.17,0,1,1,2.73,1.4A2.16,2.16,0,0,1,400.34,266.57Z" fill="#fff" />
                                            <path d="M369.79,577.63a2.17,2.17,0,1,1,.92,2.93A2.16,2.16,0,0,1,369.79,577.63Z" fill="#fff" />
                                            <path d="M451.79,451.64a2.17,2.17,0,1,1,.91,2.93A2.18,2.18,0,0,1,451.79,451.64Z" fill="#fff" />
                                            <path d="M564.67,423.84a2.17,2.17,0,1,1,3.85,2,2.17,2.17,0,0,1-3.85-2Z" fill="#fff" />
                                            <path d="M268.89,226.74a2.17,2.17,0,1,1,2.74,1.4A2.18,2.18,0,0,1,268.89,226.74Z" fill="#fff" />
                                            <path d="M391.22,205.86a2.17,2.17,0,1,1,2.73,1.4A2.17,2.17,0,0,1,391.22,205.86Z" fill="#fff" />
                                            <path d="M363.64,483.76a2.17,2.17,0,1,1,.92,2.93A2.16,2.16,0,0,1,363.64,483.76Z" fill="#fff" />
                                            <path d="M371.79,380.49a2.17,2.17,0,1,1,.91,2.93A2.18,2.18,0,0,1,371.79,380.49Z" fill="#fff" />
                                            <path d="M183.17,429.07a2.17,2.17,0,1,1,.92,2.93A2.17,2.17,0,0,1,183.17,429.07Z" fill="#fff" />
                                            <path d="M251.91,166a2.17,2.17,0,1,1,1.4-2.74A2.17,2.17,0,0,1,251.91,166Z" fill="#fff" />
                                            <path d="M566,186.18a2.17,2.17,0,1,1,2.94-.92A2.17,2.17,0,0,1,566,186.18Z" fill="#fff" />
                                            <path d="M519.73,226.7a2.17,2.17,0,1,1,2.93-.92A2.16,2.16,0,0,1,519.73,226.7Z" fill="#fff" />
                                            <path d="M595.39,278.49a2.17,2.17,0,1,1,2.93-.92A2.17,2.17,0,0,1,595.39,278.49Z" fill="#fff" />
                                            <path d="M445.29,485.68a2.17,2.17,0,1,1,2.93-.92A2.18,2.18,0,0,1,445.29,485.68Z" fill="#fff" />
                                            <path d="M417.49,372.8a2.17,2.17,0,1,1,2.93-.92A2.17,2.17,0,0,1,417.49,372.8Z" fill="#fff" />
                                            <path d="M644,467.11a2.17,2.17,0,1,1,2.93-.92A2.17,2.17,0,0,1,644,467.11Z" fill="#fff" />
                                            <path d="M528.51,175.82a4.73,4.73,0,1,1,6,3.05A4.73,4.73,0,0,1,528.51,175.82Z" fill="#fff" />
                                            <path d="M617.4,317.3a5.15,5.15,0,1,1,6.5,3.32A5.17,5.17,0,0,1,617.4,317.3Z" fill="#fff" />
                                            <path d="M255.73,145.84a5.83,5.83,0,1,1,7.34,3.75A5.83,5.83,0,0,1,255.73,145.84Z" fill="#fff" />
                                            <path d="M461.78,270.08a2.17,2.17,0,1,1,2.73,1.4A2.16,2.16,0,0,1,461.78,270.08Z" fill="#fff" />
                                            <path d="M538.47,368.48a2.17,2.17,0,1,1,2.73,1.4A2.16,2.16,0,0,1,538.47,368.48Z" fill="#fff" />
                                            <path d="M429.27,123.32a2.17,2.17,0,1,1,2.74,1.4A2.18,2.18,0,0,1,429.27,123.32Z" fill="#fff" />
                                            <path d="M568.18,257.89a2.17,2.17,0,1,1,2.74,1.4A2.18,2.18,0,0,1,568.18,257.89Z" fill="#fff" />
                                            <path d="M451.79,451.64a2.17,2.17,0,1,1,.91,2.93A2.18,2.18,0,0,1,451.79,451.64Z" fill="#fff" />
                                            <path d="M268.89,226.74a2.17,2.17,0,1,1,2.74,1.4A2.18,2.18,0,0,1,268.89,226.74Z" fill="#fff" />
                                            <path d="M391.22,205.86a2.17,2.17,0,1,1,2.73,1.4A2.17,2.17,0,0,1,391.22,205.86Z" fill="#fff" />
                                            <path d="M371.79,380.49a2.17,2.17,0,1,1,.91,2.93A2.18,2.18,0,0,1,371.79,380.49Z" fill="#fff" />
                                            <path d="M183.17,429.07a2.17,2.17,0,1,1,.92,2.93A2.17,2.17,0,0,1,183.17,429.07Z" fill="#fff" />
                                            <path d="M566,186.18a2.17,2.17,0,1,1,2.94-.92A2.17,2.17,0,0,1,566,186.18Z" fill="#fff" />
                                            <path d="M519.73,226.7a2.17,2.17,0,1,1,2.93-.92A2.16,2.16,0,0,1,519.73,226.7Z" fill="#fff" />
                                            <path d="M476.34,169a2.17,2.17,0,1,1,2.94-.92A2.17,2.17,0,0,1,476.34,169Z" fill="#fff" />
                                            <path d="M595.39,278.49a2.17,2.17,0,1,1,2.93-.92A2.17,2.17,0,0,1,595.39,278.49Z" fill="#fff" />
                                            <path d="M492.9,350.23a2.17,2.17,0,1,1,2.93-.92A2.18,2.18,0,0,1,492.9,350.23Z" fill="#fff" />
                                            <path d="M445.29,485.68a2.17,2.17,0,1,1,2.93-.91A2.18,2.18,0,0,1,445.29,485.68Z" fill="#fff" />
                                            <path d="M417.49,372.8a2.17,2.17,0,1,1,2.93-.92A2.16,2.16,0,0,1,417.49,372.8Z" fill="#fff" />
                                            <path d="M644,467.11a2.17,2.17,0,1,1,2.93-.92A2.17,2.17,0,0,1,644,467.11Z" fill="#fff" />
                                            <path d="M552.6,485.44a4.73,4.73,0,1,1-3.05,6A4.73,4.73,0,0,1,552.6,485.44Z" fill="#fff" />
                                            <path d="M509,273.69A5.83,5.83,0,1,1,505.2,281,5.83,5.83,0,0,1,509,273.69Z" fill="#fff" />
                                            <path d="M132.9,473.9a2.17,2.17,0,1,1-1.4,2.73A2.16,2.16,0,0,1,132.9,473.9Z" fill="#fff" />
                                            <path d="M109,359.41a2.17,2.17,0,1,1-1.4,2.73A2.16,2.16,0,0,1,109,359.41Z" fill="#fff" />
                                            <path d="M203.15,469.75a2.17,2.17,0,1,1-2.93.91A2.18,2.18,0,0,1,203.15,469.75Z" fill="#fff" />
                                            <path d="M448.93,409.17a2.18,2.18,0,1,1-1.4,2.74A2.19,2.19,0,0,1,448.93,409.17Z" fill="#fff" />
                                            <path d="M171,381.6a2.17,2.17,0,1,1-2.93.92A2.16,2.16,0,0,1,171,381.6Z" fill="#fff" />
                                            <path d="M572.43,322.92a2.18,2.18,0,1,1,2.74,1.4A2.18,2.18,0,0,1,572.43,322.92Z" fill="#fff" />
                                            <path d="M637.29,374.86a2.17,2.17,0,1,1,2.74,1.39A2.18,2.18,0,0,1,637.29,374.86Z" fill="#fff" />
                                            <path d="M528.1,129.69a2.17,2.17,0,1,1,2.73,1.4A2.17,2.17,0,0,1,528.1,129.69Z" fill="#fff" />
                                            <path d="M491.84,257.68a2.18,2.18,0,1,1,2.74,1.4A2.18,2.18,0,0,1,491.84,257.68Z" fill="#fff" />
                                            <path d="M550.61,458a2.17,2.17,0,1,1,.92,2.93A2.16,2.16,0,0,1,550.61,458Z" fill="#fff" />
                                            <path d="M663.5,430.21a2.17,2.17,0,1,1,.91,2.94A2.17,2.17,0,0,1,663.5,430.21Z" fill="#fff" />
                                            <path d="M428.09,537.68a2.17,2.17,0,1,1,.92,2.94A2.17,2.17,0,0,1,428.09,537.68Z" fill="#fff" />
                                            <path d="M462.43,64.43a2.17,2.17,0,1,1,2.74,1.4A2.17,2.17,0,0,1,462.43,64.43Z" fill="#fff" />
                                            <path d="M444.4,331.5a2.17,2.17,0,1,1,2.74,1.4A2.18,2.18,0,0,1,444.4,331.5Z" fill="#fff" />
                                            <path d="M335.21,86.35a2.18,2.18,0,1,1,2.74,1.4A2.18,2.18,0,0,1,335.21,86.35Z" fill="#fff" />
                                            <path d="M256.06,528.71a2.17,2.17,0,1,1,3,.41A2.16,2.16,0,0,1,256.06,528.71Z" fill="#fff" />
                                            <path d="M470.61,386.86a2.17,2.17,0,1,1,.92,2.94A2.17,2.17,0,0,1,470.61,386.86Z" fill="#fff" />
                                            <path d="M273.82,113a2.17,2.17,0,1,1,2.73,1.4A2.18,2.18,0,0,1,273.82,113Z" fill="#fff" />
                                        </g>
                                        <g>
                                            <path d="M285.11,523.73v27.82a3.4,3.4,0,0,1-3.53,3.17h0a3.36,3.36,0,0,1-3.5-3.17V523.73Zm-113.41,0v27.82a3.4,3.4,0,0,1-3.53,3.17h0a3.35,3.35,0,0,1-3.49-3.17V523.73Zm101.05,0V548a2.7,2.7,0,0,1-2.81,2.53h0a2.68,2.68,0,0,1-2.77-2.53V523.73Zm-90.13,0V548a2.72,2.72,0,0,1-2.81,2.53h0A2.68,2.68,0,0,1,177,548V523.73Z" fill="#4a0968" fill-rule="evenodd" />
                                            <rect x="164.55" y="504.08" width="120.68" height="7.91" fill="#4a0968" />
                                            <rect x="164.55" y="494.68" width="120.68" height="7.91" fill="#4a0968" />
                                            <rect x="164.55" y="485.25" width="120.68" height="7.91" fill="#4a0968" />
                                            <path d="M170.7,475.13H279.09a6.17,6.17,0,0,1,6.14,6.15v2.49H164.55v-2.49a6.17,6.17,0,0,1,6.15-6.15Z" fill="#4a0968" fill-rule="evenodd" />
                                            <path d="M158.09,524.11h133.6a2.87,2.87,0,0,0,2.89-2.89V516.4a2.88,2.88,0,0,0-2.89-2.89H158.09a2.92,2.92,0,0,0-2.93,2.89v4.82a2.91,2.91,0,0,0,2.93,2.89Z" fill="#4a0968" fill-rule="evenodd" />
                                            <rect x="267.17" y="545.17" width="5.61" height="7.16" fill="#4a0968" />
                                            <rect x="278.08" y="546.08" width="7.03" height="9.83" fill="#4a0968" />
                                        </g>
                                        <g>
                                            <path d="M232.42,490.91c-27.95-9.5-62.56,19.43-69.26,22.35H267S245.57,499.3,232.42,490.91Z" fill="#9957bc" />
                                            <path d="M271.35,503.39c-12.35-4.2-27.64,8.58-30.6,9.87h45.87S277.16,507.1,271.35,503.39Z" fill="#9957bc" />
                                        </g>
                                    </g>
                                </g>
                            </g>
                            <g id="be75e552-20c8-4bf4-a535-51ad0ecfbdcb" data-name="img16">
                                <g class="chpt4-dude">
                                    <path d="M379.19,507.23,374.72,643.1l-23.69.07L348.87,507.8l2.86-3.38c6.71-7.95,21.62-5.54,27.46,2.81Z" fill="#222247" />
                                    <path d="M376.51,369.62a14.33,14.33,0,0,1,5.89,11.55l-3.26,131.06c-.08,6-6.28,11.2-14.14,11.9h0c-7.78.69-14.54-3.29-15.5-9.12L329.1,384.38a10,10,0,0,1,3.3-8.77l6.31-6.11c8-7.77,22.49-9.34,31.9-3.48l5.83,3.54Z" fill="#222247" />
                                    <path d="M305.07,507.17,309.38,642l23,.06,2.12-134.37-2.77-3.36c-6.51-7.88-21-5.49-26.64,2.8Z" fill="#222247" />
                                    <path d="M308.42,368.54a14.5,14.5,0,0,0-5.72,11.56l3.16,131.06c.08,6,6.09,11.2,13.72,11.89h0c7.55.69,14.11-3.28,15-9.11l19.79-130.63a10.14,10.14,0,0,0-3.2-8.78l-6.13-6.1c-7.79-7.77-21.81-9.35-30.95-3.48l-5.65,3.54Z" fill="#222247" />
                                    <circle cx="295.15" cy="309.32" r="19.31" fill="#1e1515" />
                                    <circle cx="386.68" cy="307.73" r="19.31" fill="#1e1515" />
                                    <path d="M319.64,291.88a7.74,7.74,0,0,1-1.25-3.85,8,8,0,0,1,2.47-6.48h0v-2.15l-31.36,11.48L294,307.73l26.9-4.94v-9.54A8.24,8.24,0,0,1,319.64,291.88Z" fill="#281d1d" />
                                    <polyline points="363.07 279.87 390.32 288.76 389.39 302.58 362.33 281.72" fill="#281d1d" />
                                    <path d="M316.76,315.12l8.26-15.8s12.51,23.2,33.36,0S350,320.43,350,320.43s-9.39,3.58-10.45,3.45S316.76,315.12,316.76,315.12Z" fill="#1e1515" />
                                    <use id="fb58c014-46a3-4a02-87c6-bffce09bb752" data-name="New Symbol 25" width="29.11" height="108.65" transform="matrix(-0.73, 0, 0, 0.73, 296.42, 371.7)" xlink:href="#32a1b121-7fae-4304-be31-debdd30352cf" />
                                    <polygon points="275.5 437 294.61 437 300.71 389.79 308 351.93 314.24 312.37 276.03 307.64 271.58 375.06 270.99 381.65 275.5 437" fill="#1e1515" />
                                    <g>
                                        <rect x="304.72" y="412.92" width="73.74" height="28.39" rx="13.73" ry="13.73" fill="#e15544" />
                                        <path d="M311.74,350.86c1.61,11.69,1.17,37.39-1.3,48.92L306.31,419h71l-4.12-19.26c-2.48-11.53-2.92-37.23-1.31-48.92l5.5-40a6.88,6.88,0,0,0-3.59-7l-21.07-11.2a23.18,23.18,0,0,0-21.77,0l-21.08,11.2a6.9,6.9,0,0,0-3.59,7Z" fill="#312b6b" />
                                    </g>
                                    <path d="M389.6,297.38,380.83,424H302.35l-8.77-126.64a5,5,0,0,1,3.23-5.23c11.73-4.25,23.19-12.66,34.13-18.65l.18-.1a24.56,24.56,0,0,1,10.08-2.84v0H342v0a24.54,24.54,0,0,1,10.26,2.94c11,6,22.38,14.39,34.12,18.65A5,5,0,0,1,389.6,297.38Z" fill="#281d1d" />
                                    <path d="M357,270.48c-1-1.05-3.42-2.12-5.25-3.2a19.55,19.55,0,0,0-9.75-3.16v0l-.26,0s0,0,0,0H342v0a22.27,22.27,0,0,0-10.39,3.06l-.36.1L329,268.54l.17.06c-1.16.68-3.19,1.34-3.19,2V277c3,4.43,8.1,9.72,11.71,15,2.54,3.7,7,3.57,9.42-.24L357,277.44Zm-15.34-6.37h-.05S341.69,264.1,341.66,264.11Z" fill="#ffb597" />
                                    <g>
                                        <path d="M357.48,252.11v22.74c0,4-5.73,7.37-12.73,7.37h-6.54c-7,0-12.74-3.32-12.74-7.37V252.11a5,5,0,0,1,1.37-3.32,12.56,12.56,0,0,1,6.56-3.5,21.08,21.08,0,0,1,4.81-.55h6.54C351.75,244.74,357.48,248.05,357.48,252.11Z" fill="#ffb597" />
                                        <path d="M357.48,253.59v7.18c-10.48,5.29-21.62,11.13-32,16.18V253.59a6.66,6.66,0,0,1,1.37-4l.24-.16,6.32-4a17.36,17.36,0,0,1,4.81-.66h6.54C351.75,244.74,357.48,248.72,357.48,253.59Z" fill="#ff9983" />
                                    </g>
                                    <path d="M368.25,202c-1.82-3.62-6-4.76-11.35-7.49L354,193c-.29-.16-.6-.31-.9-.45H353a27.76,27.76,0,0,0-22.29-.43l0,0c-.64.26-1.26.55-1.87.86-7.12,3.59-16.26,6-15.18,16.05l2.29,21.27,1.23,11.33a13.3,13.3,0,0,0,2.35,6.25c.17.25.35.5.55.74a11.9,11.9,0,0,0,9.38,4.59l24.67-.47a11.66,11.66,0,0,0,8.6-4.34c.19-.23.38-.47.55-.71a13.46,13.46,0,0,0,2.57-6.63l1.12-10.75,2.17-20.81C369.46,206.09,369.13,203.74,368.25,202Z" fill="#000429" />
                                    <path d="M363,249.85v-33a7.88,7.88,0,0,0-5.39-7.6l-14.49-4.81a7.8,7.8,0,0,0-3.35-.38,8.53,8.53,0,0,0-2,.5l-13.3,5a8.26,8.26,0,0,0-5.42,7.48v32.7c0,.29.27.73.3,1.28.17,2.95.91,8.72,1.91,9.93l2.19,2h0l1.13,1.41c1.74,1.76,5.17,5.13,8,6.42.31.13.65.32,1,.45v0a2.84,2.84,0,0,1,.41.17,23.39,23.39,0,0,0,13.75.84c3.53-1.1,7.06-4,9.43-6.37l2.89-3.11h0l1.52-1.64c.83-1,1.24-5.52,1.48-8.64A24.39,24.39,0,0,0,363,249.85Z" fill="#fbba9f" />
                                    <g>
                                        <path d="M319.28,247.59h-1.84c-2.19,0-4-2.24-4-5v-1.53c0-2.33,1.5-4.22,3.36-4.22h2.45Z" fill="#ff9983" />
                                        <path d="M363.07,247.55h1.83c2.18,0,4-2.22,4-5v-1.53c0-2.31-1.5-4.19-3.34-4.19h-2.44Z" fill="#ff9983" />
                                    </g>
                                    <use width="21.01" height="10.67" transform="translate(332.77 254.08) scale(0.82)" xlink:href="#e69ad275-d912-497a-b919-51305da5a608" />
                                    <g>
                                        <use width="7" height="6.67" transform="translate(322.9 242.92) scale(1.01)" xlink:href="#c7792ae9-bf6d-499c-8523-de5c25ea7001" />
                                        <use id="5f9130eb-97de-4552-8f65-013a20b7b7b7" data-name="ÕÓ‚˚È ÒËÏ‚ÓÎ 10" width="7" height="6.67" transform="translate(352.82 242.92) scale(1.01)" xlink:href="#c7792ae9-bf6d-499c-8523-de5c25ea7001" />
                                    </g>
                                    <path d="M327.45,186.9a23.71,23.71,0,0,0-13.79,10.67l5.95-1a87.38,87.38,0,0,0-16.08,21.87c6.56,1.58,13.18,3.17,19.85,3a27.43,27.43,0,0,0,18.8-7.62l-3.8,7c1.1-2,9.23-3.89,11.36-5.09a53.14,53.14,0,0,0,9.19-6.59c4.41-4,7.86-9.08,5.69-13.92a18.65,18.65,0,0,0-8.77-8.69Z" fill="#000429" />
                                    <use id="18d8ff2d-9820-4085-9027-b4473cea0174" data-name="New Symbol 4" width="3.26" height="4.72" transform="matrix(-2.09, 0, 0, 1.26, 354.09, 234.17)" xlink:href="#e7cebd8a-66bf-4857-8d5c-8f44d1d9ac22" />
                                    <use id="201b9174-51c8-4d51-ad75-8289cd6ac6cd" data-name="New Symbol 66" width="14.06" height="6.75" transform="translate(346.92 226.47) scale(0.69)" xlink:href="#cd44aeee-7979-49bb-bd20-863b0c302b8d" />
                                    <g id="a6cb1d18-61e8-43d0-a72e-e9498966856a" data-name="&lt;Group&gt;">
                                        <use id="4a8052e7-b195-402c-bac4-0dd5dedfbfad" data-name="New Symbol 66" width="14.06" height="6.75" transform="matrix(-0.69, 0, 0, 0.69, 335.87, 226.47)" xlink:href="#cd44aeee-7979-49bb-bd20-863b0c302b8d" />
                                    </g>
                                    <use id="58fa34c6-596d-4896-a0cb-9ae56867145a" data-name="New Symbol 4" width="3.26" height="4.72" transform="matrix(-2.09, 0, 0, 1.26, 335.5, 234.22)" xlink:href="#e7cebd8a-66bf-4857-8d5c-8f44d1d9ac22" />
                                    <g>
                                        <polygon points="289.9 462.34 296.79 451.94 290.22 450.86 289.52 455.59 289.9 462.34" fill="#f29583" />
                                        <use id="f4b72e76-cfac-47ea-b281-1dc9b78a4c7e" data-name="ÕÓ‚˚È ÒËÏ‚ÓÎ 5" width="66.79" height="65.65" transform="translate(239.13 451.19) scale(1.36)" xlink:href="#88faa52a-3649-4d3b-b53a-75e3ac031842" />
                                        <path d="M290.28,459l-.38-8,6.05.53a2,2,0,0,0,.32-2.61l-6.19-9.29a5.1,5.1,0,0,0-3.91-2.26l-5.24-.1a1.87,1.87,0,0,0-.34,0,2.14,2.14,0,0,0-1.93,1.24l-7.08,15.61,4.81,8.32,2.37.23,1.21.11,3,.27,1.4.14h0l3.5.32,2.4-2.13.35-2.44Z" fill="#ffb597" />
                                        <polygon points="287.41 463.44 283.8 456.65 284.73 456.28 288.35 463.07 287.41 463.44" fill="#ff8072" />
                                        <polygon points="284.37 463.2 282.97 463.06 279.47 457.31 280.39 456.9 284.37 463.2" fill="#ff8d7b" />
                                        <polygon points="279.97 462.79 278.76 462.68 275.26 456.91 276.19 456.52 279.97 462.79" fill="#ff8072" />
                                    </g>
                                    <path d="M271.71,425.56l.77,8.11s-.66,3.33,4.71,3.33h16.62a2.31,2.31,0,0,0,2.8-2c.28-2.49,1.35-7.72,1.35-7.72s1.28-3.11-1.73-3.16-21.75,0-21.75,0S271.53,423.74,271.71,425.56Z" fill="#3a211d" />
                                    <polygon points="354.3 372 298.58 372 300.97 441 382 441 382 377.6 354.3 372" fill="#281d1d" />
                                    <rect x="317.83" y="270.95" width="7.15" height="21.5" rx="3.13" ry="3.13" fill="#3a211d" />
                                    <rect x="357.48" y="270.82" width="7.67" height="21.5" rx="3.25" ry="3.25" fill="#3a211d" />
                                    <path d="M322.86,270.82s15,17.65,36.83,0c1.63,10.58,1.63,12.73,1.63,12.73s-8.85,14.07-9.54,14.46-8.3,2.66-10,2.26S330,292.6,330,292.6l-6.44-10.38-2.12-2.35Z" fill="#3a211d" />
                                    <path d="M338.32,420.84s11.73,2.54,11.73-6.55-1.86-101.42-1.86-101.42" fill="none" stroke="#1e1515" stroke-linecap="round" stroke-linejoin="round" />
                                    <polygon points="320.04 271.23 326 268.3 326 278.04 320.04 271.23" fill="#3a211d" />
                                    <polygon points="361.9 270.65 357.48 267.63 357.61 276.65 361.9 270.65" fill="#3a211d" />
                                    <rect x="337.09" y="288.36" width="26.38" height="62.03" rx="4.51" ry="4.51" transform="translate(-57 76.85) rotate(-11.58)" fill="#331d1b" />
                                    <path d="M320.87,285.57l-2.38,5.65s19.31,27.24,46.66,0c-7.67-6.14-22-7.93-22-7.93l-16.72-1.07Z" fill="#3a211d" />
                                    <rect x="321.45" y="289.56" width="26.38" height="62.03" rx="4.51" ry="4.51" transform="translate(64.09 -55.66) rotate(10.51)" fill="#3a211d" />
                                    <rect x="300.68" y="437.29" width="81.47" height="7.43" rx="3.72" ry="3.72" fill="#1e1515" />
                                    <circle cx="340.05" cy="400.32" r="2.51" fill="#1e1515" />
                                    <circle cx="339.49" cy="383.36" r="2.51" fill="#1e1515" />
                                    <circle cx="339.49" cy="365.38" r="2.51" fill="#1e1515" />
                                    <rect x="350.93" y="628.6" width="12.32" height="14.44" rx="5.82" ry="5.82" fill="#222247" />
                                    <circle cx="368.47" cy="641.5" r="1.54" fill="#67008d" />
                                    <rect x="352.57" y="633.54" width="21.35" height="15.9" rx="7.95" ry="7.95" fill="#5a749d" />
                                    <rect x="350.65" y="639.71" width="25.15" height="10.4" rx="5.2" ry="5.2" fill="#383772" />
                                    <rect x="350.71" y="643.99" width="25.13" height="6.16" fill="#383772" />
                                    <rect x="350.66" y="646.75" width="25.13" height="3.4" fill="#fff" />
                                    <rect x="334.67" y="382.51" width="4.91" height="1.46" fill="#3a211d" />
                                    <rect x="334.29" y="364.65" width="4.91" height="1.46" fill="#3a211d" />
                                    <rect x="334.67" y="399.59" width="4.91" height="1.46" fill="#3a211d" />
                                    <rect x="336.99" y="362.87" width="6.43" height="5.01" rx="2.51" ry="2.51" fill="#1e1515" />
                                    <rect x="336.83" y="380.86" width="6.43" height="5.01" rx="2.51" ry="2.51" fill="#1e1515" />
                                    <rect x="337.15" y="397.81" width="6.43" height="5.01" rx="2.51" ry="2.51" fill="#1e1515" />
                                    <path d="M390.32,288.77S380.27,314,382.4,326.56s12-21.81,12-24S390.32,288.77,390.32,288.77Z" fill="#1e1515" />
                                    <circle cx="324.7" cy="641.5" r="1.54" fill="#67008d" />
                                    <rect x="308.79" y="633.54" width="21.35" height="15.9" rx="7.95" ry="7.95" fill="#5a749d" />
                                    <rect x="306.87" y="639.71" width="25.15" height="10.4" rx="5.2" ry="5.2" fill="#383772" />
                                    <rect x="306.94" y="643.99" width="25.13" height="6.16" fill="#383772" />
                                    <rect x="306.89" y="646.75" width="25.13" height="3.4" fill="#fff" />
                                    <line x1="248.97" y1="499.55" x2="267.05" y2="499.56" fill="#000429" stroke="#1e1515" stroke-miterlimit="10" />
                                    <g>
                                        <rect x="316.98" y="329.41" width="33.44" height="17.45" rx="2.63" ry="2.63" transform="translate(-4.43 671.83) rotate(-90)" fill="#158243" />
                                        <use id="ca2325a8-4fee-4bfd-bc9f-54ce3550d84c" data-name="New Symbol 25" width="29.11" height="108.65" transform="translate(409.81 376.17) rotate(119.65) scale(0.69)" xlink:href="#32a1b121-7fae-4304-be31-debdd30352cf" />
                                        <use width="23.42" height="26.78" transform="matrix(0.41, -0.9, -0.9, -0.41, 344.63, 365.76)" xlink:href="#bd4725ad-4ee5-47a0-be34-62dc4d98de00" />
                                        <path d="M414,382.51c-.26-4.11-4.77-77.87-4.77-77.87s-2-13.28-17.1-14.19l-6.07,11.24c-.49,4.07-2,16.51-3.47,28.69,1,12.54.69,29.52.87,29.61-1.72-1.72-20.59-10.14-21.79-11.41l-12,20.53,29.33,22s16.37,10.63,23.84,3.73S414.26,386.62,414,382.51Z" fill="#1e1515" />
                                        <path d="M366.08,350,359,346.43s-2.26-2.2-5.12,2.34L345,362.83s-1.93,1.76,0,3.33,5.71,5.19,5.71,5.19,1.89,2.7,3.54.18,11.6-18.4,11.6-18.4S367.71,350.79,366.08,350Z" fill="#3a211d" />
                                        <path d="M336.08,342.28S342,345.5,342,345.7V325.64c0-1.45-.76-2.64-2.21-2.64H327.61a2.9,2.9,0,0,0-2.76,2.8l0,12.68Z" fill="#00b956" />
                                        <polygon points="326.74 335.04 325 337.18 325 346.56 326.74 341.19 330.16 339.56 326.74 335.04" fill="#00b956" />
                                    </g>
                                </g>
                                <polygon points="135.01 643 339.11 -157.63 543.22 643 135.01 643" opacity="0.2" fill="url(#1120976a-7485-471e-8722-5aa9e32a495e)" />
                                <path d="M205.79,543.21c-29.85-10.15-66.81,20.75-74,23.87H242.71S219.83,552.17,205.79,543.21Z" fill="#fff" />
                                <path d="M583.12,537.05c-13.69-4.08-35.74-14-49.92-6.86s-15,5.66-19.41,2.44-45.67-23.54-62.41-11.8-44,31.17-44,31.17H614.58S596.8,541.13,583.12,537.05Z" fill="#fff" />
                            </g>
                        </g>
                    </svg>