<svg xmlns="http://www.w3.org/2000/svg" xmlns:xlink="http://www.w3.org/1999/xlink" width="700" height="700" viewBox="0 0 700 700">
  <defs>
    <clipPath id="04b907d8-548e-4680-9e8c-1b8ea6ce4def">
      <circle cx="344.98" cy="347.42" r="279.44" fill="none"/>
    </clipPath>
    <clipPath id="c4028fd6-4e2b-47dd-afc4-ace1e8b5b844">
      <path d="M624.46,347.42c0-153.68-124.55-278.26-278.23-278.26S68,193.74,68,347.42V626H357v-.56C506,619.68,624.46,497.42,624.46,347.42Z" fill="none"/>
    </clipPath>
    <clipPath id="3c63bd1a-63a6-411a-941c-809f459718d4">
      <path d="M388.12,565.2c-3.67-1.75-7.23-5-7.16-9v-.12c0-35.13,23.51-56.45,56-64.06l8.68-2a229.34,229.34,0,0,1,55.27-6l246.67,7.66-45.66,9.64c-24,5.06-41.23,23.93-42.19,46.09l-.46,10.72c-.17,3.87-3.72,6.93-8.8,8.63Z" fill="#4b0a75"/>
    </clipPath>
    <linearGradient id="25332f13-6d2d-4a9d-b265-dfb2ce425094" x1="519.79" y1="180" x2="519.79" y2="798" gradientUnits="userSpaceOnUse">
      <stop offset="0" stop-color="#fff"/>
      <stop offset="1" stop-color="#fff" stop-opacity="0"/>
    </linearGradient>
    <symbol id="c7782a66-e866-40f5-b033-2b33206a7cad" data-name="New Symbol 25" viewBox="0 0 29.11 108.65">
      <path d="M11.39.19l-.28,0C3.86,1.53-1,10,.18,19.22l8.08,73.9.86,7.29c.59,5,4.41,8.63,8.64,8.21,3.84-.39,6.83-4,7.09-8.56l.43-7.54L29.1,20.38C29.42,8.3,20.84-1.49,11.39.19Z" fill="#ffb597"/>
    </symbol>
    <symbol id="2e4349cb-b538-45ed-b88c-aabf9b2ca9f7" data-name="ÕÓ‚˚È ÒËÏ‚ÓÎ 16" viewBox="0 0 23.42 26.78">
      <path d="M23.1,10.93l-5.8-8.7A4.73,4.73,0,0,0,13.65.13L8.75,0h0A2,2,0,0,0,6.62,1.16L0,15.78l4.5,10,10.75,1,2.25-2,.5-7,4.81-4.41A1.89,1.89,0,0,0,23.1,10.93Z" fill="#ffb597"/>
      <line x1="11.86" y1="17.96" x2="15.25" y2="26.53" fill="none" stroke="#ff8072" stroke-miterlimit="10"/>
      <line x1="7.81" y1="18.56" x2="11.19" y2="26.39" fill="none" stroke="#ff8072" stroke-miterlimit="10"/>
      <line x1="3.87" y1="18.2" x2="7.25" y2="26.03" fill="none" stroke="#ff8072" stroke-miterlimit="10"/>
      <line x1="17" y1="9.78" x2="17.75" y2="17.53" fill="none" stroke="#ff8072" stroke-miterlimit="10"/>
    </symbol>
    <symbol id="e96ac29c-7fb1-4e0a-bb2e-2929b022de71" data-name="New Symbol 29" viewBox="0 0 48.55 140.84">
      <g>
        <path d="M48.49,125.68,42.1,55.09,7.85,61.7,21,129.58a13.86,13.86,0,0,0,13.6,11.26,14.05,14.05,0,0,0,4.3-.68A13.82,13.82,0,0,0,48.49,125.68Z" fill="#ffb597"/>
        <path d="M38.69,17.5A19.39,19.39,0,0,0,18.89,0a20.08,20.08,0,0,0-4.42.65A4,4,0,0,0,14,.78,19.25,19.25,0,0,0,.37,23.1L7.85,61.7,42.1,55.09Z" fill="#3a387a"/>
      </g>
    </symbol>
    <symbol id="be16f2d5-c952-464e-b1e7-2ef1dc15b78d" data-name="New Symbol 3" viewBox="0 0 56.04 237.27">
      <use id="85445b4e-4384-4313-b59a-6d2d6e4f477b" data-name="New Symbol 25" width="29.11" height="108.65" transform="translate(20.23 107.1)" xlink:href="#c7782a66-e866-40f5-b033-2b33206a7cad"/>
      <use width="23.42" height="26.78" transform="matrix(-1.43, 0.13, 0.13, 1.43, 53.97, 196.99)" xlink:href="#2e4349cb-b538-45ed-b88c-aabf9b2ca9f7"/>
      <use id="62e4fa8c-8a89-41a2-b0b0-03a297c89e93" data-name="New Symbol 29" width="48.55" height="140.84" xlink:href="#e96ac29c-7fb1-4e0a-bb2e-2929b022de71"/>
    </symbol>
    <symbol id="f48025f8-fa2d-49e0-ad30-7050a4278795" data-name="New Symbol 66" viewBox="0 0 14.06 6.75">
      <path d="M13.15,1.58A19.05,19.05,0,0,0,1,.56L0,.8,1.24,5.85l1-.23a13.73,13.73,0,0,1,8.86.73l.91.4L14.06,2Z" fill="#96686c"/>
    </symbol>
    <symbol id="991b47f9-6d7b-45bb-b161-bf0a3e413465" data-name="New Symbol 2" viewBox="0 0 21.01 10.68">
      <path d="M.75,0C.18,0-.18,1,.09,1.72c1.89,5.31,5.84,9,10.42,9S19,7,20.92,1.72C21.19,1,20.83,0,20.26,0Z" fill="#fff"/>
    </symbol>
  </defs>
  <g id="ab40d01d-7006-4ce9-bb8b-7572272aff68" data-name="bck13">
    <rect x="-1.34" width="701.05" height="703.44" fill="#e4b7f4"/>
    <circle cx="344.98" cy="347.42" r="279.44" fill="#59097a"/>
    <g clip-path="url(#04b907d8-548e-4680-9e8c-1b8ea6ce4def)">
      <g>
        <g class="chpt1-window">
          <rect x="433.67" y="168" width="170.37" height="200.49" fill="#43066b" opacity="0.62"/>
          <rect x="444.56" y="178.83" width="150.99" height="178.84" fill="#59097a"/>
          <g opacity="0.41" class="chpt1-showflakes">
            <path d="M528,269.17a4.68,4.68,0,1,1,3-5.9A4.68,4.68,0,0,1,528,269.17Z" fill="#fff"/>
            <path d="M528.3,193.41a2,2,0,1,1,2.66-.83A2,2,0,0,1,528.3,193.41Z" fill="#fff"/>
            <path d="M531,331.79a2,2,0,1,1,2.66-.84A2,2,0,0,1,531,331.79Z" fill="#fff"/>
            <path d="M551.11,232.43a2,2,0,1,1,2.48,1.27A2,2,0,0,1,551.11,232.43Z" fill="#fff"/>
            <path d="M472.39,308a2,2,0,1,1,.83,2.66A2,2,0,0,1,472.39,308Z" fill="#fff"/>
            <path d="M574.91,282.7a2,2,0,1,1,.83,2.66A2,2,0,0,1,574.91,282.7Z" fill="#fff"/>
            <path d="M466.49,338.87a2,2,0,1,1,2.66-.84A2,2,0,0,1,466.49,338.87Z" fill="#fff"/>
            <path d="M551.11,232.43a2,2,0,1,1,2.48,1.27A2,2,0,0,1,551.11,232.43Z" fill="#fff"/>
            <path d="M497.81,302.57a2,2,0,1,1,.83,2.67A2,2,0,0,1,497.81,302.57Z" fill="#fff"/>
            <path d="M509.73,215.85a2,2,0,1,1,2.66-.83A2,2,0,0,1,509.73,215.85Z" fill="#fff"/>
            <path d="M466.49,338.87a2,2,0,1,1,2.66-.84A2,2,0,0,1,466.49,338.87Z" fill="#fff"/>
            <path d="M563.94,338.65a4.29,4.29,0,1,1-2.76,5.41A4.3,4.3,0,0,1,563.94,338.65Z" fill="#fff"/>
            <path d="M469.8,269.38a2,2,0,1,1-1.28,2.49A2,2,0,0,1,469.8,269.38Z" fill="#fff"/>
            <path d="M582,191a2,2,0,1,1,2.48,1.28A2,2,0,0,1,582,191Z" fill="#fff"/>
            <path d="M562.14,313.74a2,2,0,1,1,.83,2.66A2,2,0,0,1,562.14,313.74Z" fill="#fff"/>
            <path d="M465.68,198.84a2,2,0,1,1,2.49,1.28A2,2,0,0,1,465.68,198.84Z" fill="#fff"/>
            <path d="M489.48,249.12a2,2,0,1,1,.84,2.66A2,2,0,0,1,489.48,249.12Z" fill="#fff"/>
            <path d="M473.81,229.16a4.68,4.68,0,1,1,3-5.9A4.68,4.68,0,0,1,473.81,229.16Z" fill="#fff"/>
          </g>
          <rect x="444.56" y="230.15" width="150.99" height="9.3" fill="#43066b"/>
          <path d="M458.82,360H595s-16.16-11.85-28.12-14.93-21.86-8.35-30.09-3.43-16.35,7.31-20.91,5.86-21.31-8-31.45-2.43S442.33,360,442.33,360Z" fill="#9957bc" opacity="0.51"/>
        </g>
        <g class="chpt1-calendar">
            <rect x="178.1" y="168" width="80.08" height="102" fill="#43066b" opacity="0.62"/>
            <circle cx="197.49" cy="186.53" r="9.36" fill="#59097a"/>
            <circle cx="240.28" cy="186.53" r="9.36" fill="#59097a"/>
            <circle cx="218.89" cy="186.53" r="9.36" fill="#59097a"/>
            <rect x="189.82" y="202.25" width="29.07" height="3.14" fill="#59097a"/>
            <rect x="189.82" y="207.76" width="18.81" height="3.14" fill="#59097a"/>
            <rect x="189.82" y="212.95" width="18.81" height="3.14" fill="#59097a"/>
            <path d="M210,165h5.9a3.17,3.17,0,0,1,5.12,0h7" fill="none" stroke="#43066b" stroke-miterlimit="10" stroke-width="2" opacity="0.62"/>
        </g>
        <g class="chpt1-table">
            <path d="M122.56,463.88l-1.17-1.7c1-.68,2.07-1.35,3.1-2.07-2.92-7-14.22.54-8.84,5.92l3.1-2.06,1.07,1.57a14.77,14.77,0,0,0,2.69,25c-.31.67-.67,1.57.32,2l.85.36c1,.5,1.44-.58,1.75-1.3a15.46,15.46,0,0,0,6.77,0c.32.72.68,1.8,1.75,1.3l.85-.36c.95-.4.63-1.3.32-2a14.77,14.77,0,0,0,2.69-25l1.08-1.57,3.05,2.06c5.38-5.38-5.88-13-8.8-5.92l3.05,2.07-1.12,1.7A14.87,14.87,0,0,0,122.56,463.88Z" fill="#4a0968" opacity="0.71"/>
            <path d="M97,475.15V451.29c11,.06,19.4.36,19.4.36L106.1,407H75.73s-.48,2.14-1.22,5.47C78.34,428.15,85.66,453.55,97,475.15Z" fill="#4a0968" opacity="0.71"/>
            <rect x="88.12" y="493.36" width="70.12" height="13.12" fill="#4a0968"/>
            <rect x="108.92" y="536.34" width="75.86" height="7.47" transform="translate(656.86 309.54) rotate(80.89)" fill="#4a0968" opacity="0.3"/>
        </g>
      </g>
    </g>
  </g>
  <g id="9c69b987-e0f7-47a3-85fe-1d0b8dea5974" data-name="img13">
    <g>
      <g class="chpt1-bed" clip-path="url(#c4028fd6-4e2b-47dd-afc4-ace1e8b5b844)">
        <g>
          <path d="M190.9,548.51V524.72H305.08v23.79Z" fill="#2e3345" opacity="0.58"/>
          <g>
            <rect x="315.59" y="376.93" width="19.03" height="246.26" fill="#490a72"/>
            <rect x="195.46" y="413.8" width="135.59" height="107.05" fill="#591695"/>
            <polygon points="218.32 444.47 196.11 499.35 196.11 516.92 242.1 520.02 252.18 498.83 227.37 454.13 218.32 444.47" fill="#4a0968"/>
            <path d="M325.11,623.14h0a9.51,9.51,0,0,0,9.51-9.52V386.44a9.51,9.51,0,0,0-9.51-9.51h0a9.51,9.51,0,0,0-9.52,9.51V613.62A9.52,9.52,0,0,0,325.11,623.14Z" fill="#490a72"/>
            <polygon points="239.25 413.72 217.81 466.28 217.81 483.85 263.8 486.95 273.88 465.76 298.17 413.72 239.25 413.72" fill="#4a0968"/>
            <rect x="182.38" y="544.64" width="435.33" height="23.79" transform="translate(800.09 1113.06) rotate(180)" fill="#4a0968"/>
            <rect x="182.38" y="376.93" width="19.03" height="246.21" rx="9.52" ry="9.52" transform="translate(383.79 1000.07) rotate(180)" fill="#44293b"/>
            <rect x="565.6" y="544.64" width="225.16" height="23.79" transform="translate(1356.36 1113.06) rotate(180)" fill="#4a0968"/>
            <rect x="198.73" y="506.28" width="580.03" height="44.01" rx="13.28" ry="13.28" transform="translate(977.49 1056.56) rotate(180)" fill="#fffded"/>
            <path d="M750.15,516.35H201.05a20.38,20.38,0,0,0-2.23.14,7.72,7.72,0,0,0-.09,1.18v21.22c0,6.27,7,11.4,15.47,11.4H763.3a20.38,20.38,0,0,0,2.23-.14,9.23,9.23,0,0,0,.08-1.18V527.75C765.61,521.48,758.65,516.35,750.15,516.35Z" fill="#5d5d5d" opacity="0.28"/>
            <path d="M371.89,510.29h-133l-20.56-65.82S236,438,277.11,436.59c18.28-.61,74.21,7.88,74.21,7.88Z" fill="#7f38a0"/>
            <rect x="182.38" y="376.93" width="19.03" height="246.26" fill="#490a72"/>
          </g>
          <g>
            <path d="M388.12,565.2c-3.67-1.75-7.23-5-7.16-9v-.12c0-35.13,23.51-56.45,56-64.06l8.68-2a229.34,229.34,0,0,1,55.27-6l246.67,7.66-45.66,9.64c-24,5.06-41.23,23.93-42.19,46.09l-.46,10.72c-.17,3.87-3.72,6.93-8.8,8.63Z" fill="#4b0a75"/>
            <g clip-path="url(#3c63bd1a-63a6-411a-941c-809f459718d4)">
              <g>
                <path d="M382.93,536A65.36,65.36,0,0,0,381,549.58c.32,3.83,3.72,8.13,7.9,8.16l262.38,1.59c4.3,0,7.85-3,8-6.87l.46-11c.08-1.78.27-3.45.55-5.45Z" fill="#4b0a75"/>
                <path d="M381,550.46l0-.56c0-.24,0-.48,0-.71Z" fill="#4b0a75"/>
              </g>
            </g>
          </g>
          <path d="M218.32,444.47c-.09.26,14.57,10.28,20.48,30.08,5.19,17.39,0,35.48,0,35.48s-13.11-2.31-21.6-23.91C209,465.14,218.32,444.47,218.32,444.47Z" fill="#4b0a75"/>
          <path d="M697.48,548c27.52,0,55.07,1.61,82.57.13a20.17,20.17,0,0,0,.71-5.29V500.16C780.76,491.22,775,484,768,484H509.81c-7.08,0-12.81,7.24-12.81,16.18V542.8c0,8.94,5.73,16.18,12.81,16.18H692.05C690.57,554.4,692.37,548,697.48,548Z" fill="#4b0a75"/>
          <g>
            <rect x="658.63" y="483.98" width="128.46" height="67.8" fill="#9b5550"/>
            <path d="M655.06,623.14h0a9.52,9.52,0,0,0,9.52-9.52V457.81a9.52,9.52,0,0,0-9.52-9.52h0a9.51,9.51,0,0,0-9.51,9.52V613.62A9.51,9.51,0,0,0,655.06,623.14Z" fill="#44293b"/>
            <rect x="645.55" y="447.98" width="19.03" height="175.47" fill="#44293b"/>
          </g>
        </g>
      </g>
      <g class="chpt1-dude">
        <path d="M399.5,613l-1.39,7.27s-5,13.36,6.14,14a146.37,146.37,0,0,0,18.13,0l-3.88-12.11-4.32-3.06Z" fill="#f4b89c"/>
        <path d="M438.5,613l-1.39,7.27s-5,13.36,6.14,14a146.37,146.37,0,0,0,18.13,0l-3.88-12.11-4.32-3.06Z" fill="#f4b89c"/>
        <use id="b4599649-90d4-4e7f-816b-f91c247a3b67" data-name="New Symbol 3" width="56.04" height="237.27" transform="matrix(0.63, -0.33, 0.33, 0.63, 343.93, 361.37)" xlink:href="#be16f2d5-c952-464e-b1e7-2ef1dc15b78d"/>
        <g>
          <rect x="290.28" y="469.13" width="70.87" height="44.62" rx="16.88" ry="16.88" fill="#fecb05" stroke="#fecb05" stroke-miterlimit="10" stroke-width="6"/>
          <path d="M300.08,409.07c1.55,11.46,1.12,36.68-1.26,48l-4,18.9h68.42l-4-18.9c-2.38-11.31-2.81-36.53-1.26-48l5.31-39.28a6.78,6.78,0,0,0-3.47-6.88l-20.32-11a22,22,0,0,0-21,0l-20.32,11a6.79,6.79,0,0,0-3.46,6.88Z" fill="#312b6b"/>
        </g>
        <path d="M372.64,359.59,364,483.84H287l-8.61-124.25a4.93,4.93,0,0,1,3.17-5.12c8.21-3,16.27-8,24.11-12.8,3.17-1.93,6.29-3.82,9.38-5.51l.17-.09a24,24,0,0,1,9.89-2.78v0h.77v0A24.06,24.06,0,0,1,336,336.16c1.94,1.06,3.89,2.19,5.86,3.36,8.94,5.34,18.18,11.52,27.62,15A4.93,4.93,0,0,1,372.64,359.59Z" fill="#e6e6e6"/>
        <path d="M343.9,340.93l-5.21,17.52c-.65,3.48-5.67,3.59-9.84.23-7.66-6.2-17.34-12.47-23.14-17,3.17-1.93,6.29-3.82,9.38-5.51l.17-.09a24,24,0,0,1,9.89-2.78v0h.77v0A24.06,24.06,0,0,1,336,336.16c1.94,1.06,3.89,2.19,5.86,3.36A6.89,6.89,0,0,0,343.9,340.93Z" fill="#ffb597"/>
        <g>
          <path d="M341.35,313.08v26.38c0,4.69-5.67,8.54-12.58,8.54H322.3c-6.92,0-12.58-3.85-12.58-8.54V313.08c0-4.7,5.66-8.55,12.58-8.55h6.47C335.68,304.53,341.35,308.38,341.35,313.08Z" fill="#ffb597"/>
          <path d="M341.35,306.9v32.77c-8.33-5.9-22.13-8.57-31.63-14.75v-18c0-7.68,5.66-14,12.58-14h6.47C335.68,292.94,341.35,299.22,341.35,306.9Z" fill="#e5a088"/>
        </g>
        <polygon points="332.92 417.75 319.09 422.96 305.09 417.75 305.09 389.92 332.92 389.92 332.92 417.75" fill="#3f3d85"/>
        <path d="M357.23,267.94c0,1.72-4,23.48-4,23.48l-4.59-24.63Z" fill="#000429"/>
        <path d="M354.78,267c-1.08,6.49-2.79,21.74-2.79,21.74l-10.19-25Z" fill="#312b6b"/>
        <path d="M353.5,271.1c-.25-3.23-1.95-6-4-6.88l-.24-1.82,5.08-1.34-24-4.54-18,7.7a7.13,7.13,0,0,0-6.84,7.87l1.63,13.37L310,295.73c1.48,5.26,3.58,15.75,6.4,20.67,3.53,6.16,22.58,16.54,26.78,14.31s8.46-5.57,9.77-12c1-5.1,1.23-18.59,1.36-23.91l.26-10.39Z" fill="#fbba9f"/>
        <path d="M318.52,256.93c-2.39-.07.08,0-2.32.11l-1.45.37c-11.48,2-18.62,13.14-15.41,23.9l4.36,14.6,1.44,2.63,2.57-.62,2.43-.57c4.72-1.12,6.84-4.72,8.14-9.39,2.09-7.51.13-17.89.24-17.88Z" fill="#000429"/>
        <path d="M311.9,261.23c1.52,11,12.28,18.16,23,17.84s20.88-6.7,28.84-14.75c-7.49-6.09-15.24-12.32-24.59-14.71s-20.81,0-26.95,8.42Z" fill="#000429"/>
        <path d="M316.4,293.6l-.6-1.55a5.09,5.09,0,0,0-4.07-3.47l-.89-.08a4.61,4.61,0,0,0-4.31,2.51h0a7.64,7.64,0,0,0-1,4.27l.23,3.83a7.44,7.44,0,0,0,.61,2.58l.34.79a4.92,4.92,0,0,0,4.32,3.25h.23c2.2,0,4.13-1.85,4.75-4.54l.69-3A8,8,0,0,0,316.4,293.6Z" fill="#fbba9f"/>
        <path d="M332,253.26l2.86,1.51c-4.84-.09-9.74-.12-14.46,1s-9.31,3.44-12.24,7.3l5.28-.68a63.92,63.92,0,0,0-14.28,14.94c5.83,1.08,11.7,2.17,17.63,2s12-1.62,16.68-5.21c-1.12,1.6-2.25,3.2-3.37,4.81,1-1.4,8.2-2.66,10.08-3.48,2.16-.94,11.14-1.21,13.93-3.17,3.91-2.75,6.39-5.76,4.47-9.07-1.59-2.76-9.9-6.52-13-7.72A33.66,33.66,0,0,0,332,253.26Z" fill="#000429"/>
        <g>
          <g id="1afdf5ae-4f58-44d3-9d91-09c6fd85273c" data-name="&lt;Group&gt;">
            <use id="0fd487b3-521b-43d7-97ba-5014133097dd" data-name="New Symbol 66" width="14.06" height="6.75" transform="translate(345.18 284.57) scale(0.66)" xlink:href="#f48025f8-fa2d-49e0-ad30-7050a4278795"/>
          </g>
          <g id="fd547252-b1b2-4f9d-a99d-7e0a4c6f8fa9" data-name="&lt;Group&gt;">
            <use id="b57940ba-e1fc-4576-a94f-7414b1023344" data-name="New Symbol 66" width="14.06" height="6.75" transform="matrix(-0.66, 0, 0, 0.66, 335.57, 284.57)" xlink:href="#f48025f8-fa2d-49e0-ad30-7050a4278795"/>
          </g>
        </g>
        <g>
          <path d="M455.65,510.77A11.17,11.17,0,0,0,444,521.88c-.12,4.29-.22,8.44-.35,11l-4.11,85.45,0,.46,14.65.92.06-.45,10.33-85,.75-6.12.55-4.45a11.34,11.34,0,0,0-10.22-12.91Z" fill="#f2ba08" stroke="#f2ba08" stroke-miterlimit="10" stroke-width="6"/>
          <g id="854b8461-5779-4457-8bb9-2cd4f0586760" data-name="&lt;Group&gt;">
            <path d="M457.39,507.89,449.66,506a4.32,4.32,0,0,0-.45.19l-80.46-18.61-19.4-5.62-.29-.06a8.81,8.81,0,0,1-5.92,7.9c1.75-.67,0,.16-.38.43l-1.09.85a12.41,12.41,0,0,1-2.4,1.48,45.32,45.32,0,0,1-7.46,2.64,8,8,0,0,1-2.26.27,14.72,14.72,0,0,0,2.3,10.46l3.46,5.12a8.86,8.86,0,0,0,6.1,3.88L363,518l85,12.12a8.48,8.48,0,0,0,2,0h0l2.4.39.67.11a10,10,0,0,0,11.32-8.52l.39-2.46A10.36,10.36,0,0,0,457.39,507.89Z" fill="#f2ba08" stroke="#f2ba08" stroke-miterlimit="10" stroke-width="6"/>
          </g>
        </g>
        <g>
          <path d="M417.08,514.75a11,11,0,0,0-11.64,10.63c-.12,4.11-.21,8.07-.34,10.57L401,617.73l0,.44,14.65.89.06-.44L426,537.21l.75-5.85.55-4.25a11,11,0,0,0-10.22-12.36Z" fill="#fecb05" stroke="#fecb05" stroke-miterlimit="10" stroke-width="6"/>
          <g id="83d5f048-c95a-41ab-8d93-30180a22dc76" data-name="&lt;Group&gt;">
            <path d="M409.47,533.26a9.14,9.14,0,0,0,2,0h0l2.4.37.67.11a9.91,9.91,0,0,0,11.31-8.15l.4-2.35A9.92,9.92,0,0,0,418.81,512h0l-7.73-1.83a4,4,0,0,0-.45.19l-80.46-17.82-19.4-5.37a13.61,13.61,0,0,0-10,1l-.06,0-3.85,2.65a13.67,13.67,0,0,0-3.56,19.2l3.46,4.91a9,9,0,0,0,6.11,3.71l21.61,2.95Z" fill="#fecb05" stroke="#fecb05" stroke-miterlimit="10" stroke-width="6"/>
          </g>
        </g>
        <g>
          <use id="010b3a4b-b221-4882-ab33-42a3b4f1b84b" data-name="New Symbol 25" width="29.11" height="108.65" transform="matrix(-0.46, 0.58, 0.58, 0.46, 290.82, 430.73)" xlink:href="#c7782a66-e866-40f5-b033-2b33206a7cad"/>
          <use width="23.42" height="26.78" transform="translate(327.86 491.34) rotate(-46.76) scale(1.06)" xlink:href="#2e4349cb-b538-45ed-b88c-aabf9b2ca9f7"/>
          <use id="24b755f3-4099-4aa9-941a-21420cf894ef" data-name="New Symbol 152" width="48.55" height="140.84" transform="matrix(-0.72, 0.19, 0.19, 0.72, 295.35, 350.05)" xlink:href="#e96ac29c-7fb1-4e0a-bb2e-2929b022de71"/>
        </g>
        <path d="M335.64,293.24a6.28,6.28,0,0,1-3.3,1.46,6.86,6.86,0,0,1-4.36-.61c-.53,0-1,0-1,.46h0l.16,1c.22,1.35,2.68,2.1,5.17,1.71s4.36-1.71,4.38-3A1.15,1.15,0,0,0,335.64,293.24Z" fill="#67413a"/>
        <path d="M352.57,293.61a4.78,4.78,0,0,1-3.16,1,5.58,5.58,0,0,1-3.17-.9l-.19-.05a2,2,0,0,0-.84-.06l-.07,0v.24h0a0,0,0,0,0,0,0v.8c0,1.31,1.88,2.38,4.05,2.38s4-1.07,4-2.38v-1A1,1,0,0,0,352.57,293.61Z" fill="#67413a"/>
        <use width="21.01" height="10.67" transform="matrix(0.78, -0.08, 0.05, 0.5, 333.07, 315.76)" xlink:href="#991b47f9-6d7b-45bb-b161-bf0a3e413465"/>

        <use id="88542f52-50e5-4c33-96f9-799bb373ba3e" data-name="New Symbol 25" width="29.11" height="108.65" transform="matrix(0.63, -0.33, 0.33, 0.63, 392.29, 422.3)" xlink:href="#c7782a66-e866-40f5-b033-2b33206a7cad"/>
        <path d="M398.28,396.78c-1.44.79-2.92,1.54-4.46,2.25l3.63-1.54c-6.83,3.07-12.6,7.71-18.58,12.08l21.38,26.67a9.9,9.9,0,0,0,10.46,3.35,10.43,10.43,0,0,0,1.87-.75,10,10,0,0,0,3.74-14.19Z" fill="#ffb597"/>
        <g>
            <path d="M417.37,635.35,417.9,619s24.78-5.27,26.89,17.39Z" fill="#3f3d85"/>
            <path d="M443.47,638h-48a1.84,1.84,0,0,1-1.85-1.84h0a1.85,1.85,0,0,1,1.85-1.85h48a1.84,1.84,0,0,1,1.84,1.85h0A1.84,1.84,0,0,1,443.47,638Z" fill="#4a0968"/>
        </g>
        <g>
            <path d="M455.09,635.35l.52-16.34s24.78-5.27,26.89,17.39Z" fill="#3f3d85"/>
            <path d="M481.18,638h-48a1.84,1.84,0,0,1-1.84-1.84h0a1.84,1.84,0,0,1,1.84-1.85h48a1.85,1.85,0,0,1,1.85,1.85h0A1.84,1.84,0,0,1,481.18,638Z" fill="#4a0968"/>
        </g>
        <use width="23.42" height="26.78" transform="matrix(-0.86, 0.56, 0.56, 0.86, 443.47, 467.88)" xlink:href="#2e4349cb-b538-45ed-b88c-aabf9b2ca9f7"/>
      </g>


      <path d="M529,558.64,551.06,536a347.91,347.91,0,0,0,36.22-51.17l-96.35-3a229.34,229.34,0,0,0-55.27,6l-8.68,2c-32.51,7.61-56,28.93-56,64V554c-.07,4,3.49,7.28,7.16,9l144.73.84Q526,561.32,529,558.64Zm-157-8.18v-1.27c0,.23,0,.47,0,.71Z" fill="#4b0a75"/>

    </g>
    <path class="chpt1-light" d="M613.43,265.64h0c-15.75-50-35.82-78.23-41.56-85.64H448L290.48,798H749.11Z" opacity="0.2" fill="url(#25332f13-6d2d-4a9d-b265-dfb2ce425094)"/>
  </g>
</svg>