<svg xmlns="http://www.w3.org/2000/svg" xmlns:xlink="http://www.w3.org/1999/xlink" width="700" height="700" viewBox="0 0 700 700">
  <defs>
    <clipPath id="8992d48c-4fab-46eb-8ac6-640752de3b3d">
      <circle cx="344.98" cy="347.42" r="279.44" fill="none"/>
    </clipPath>
    <linearGradient id="f7be4e59-cdf4-4bd4-866d-56575c39b701" x1="411.52" y1="172.7" x2="411.52" y2="614.46" gradientUnits="userSpaceOnUse">
      <stop offset="0" stop-color="#fff"/>
      <stop offset="1" stop-color="#fff" stop-opacity="0"/>
    </linearGradient>
    <symbol id="a71cc9ba-57c5-46ec-9226-36b92832d8b0" data-name="New Symbol 2" viewBox="0 0 21.01 10.68">
      <path d="M.75,0C.18,0-.18,1,.09,1.72c1.89,5.31,5.84,9,10.42,9S19,7,20.92,1.72C21.19,1,20.83,0,20.26,0Z" fill="#fff"/>
    </symbol>
    <symbol id="7a906988-db79-49bd-bde2-bbfa7538f079" data-name="New Symbol 66" viewBox="0 0 14.06 6.75">
      <path d="M13.15,1.58A19.05,19.05,0,0,0,1,.56L0,.8,1.24,5.85l1-.23a13.73,13.73,0,0,1,8.86.73l.91.4L14.06,2Z" fill="#96686c"/>
    </symbol>
    <symbol id="db3cad22-8756-45ae-8d5b-7a1d6c621d87" data-name="New Symbol 4" viewBox="0 0 3.26 4.72">
      <path d="M1.63,4.72h0A1.63,1.63,0,0,1,0,3.09V1.63A1.63,1.63,0,0,1,1.63,0h0A1.63,1.63,0,0,1,3.26,1.63V3.09A1.63,1.63,0,0,1,1.63,4.72Z" fill="#67413a"/>
    </symbol>
    <symbol id="385ff100-7e6c-4bf2-ae10-7452301687ea" data-name="New Symbol 25" viewBox="0 0 29.11 108.65">
      <path d="M11.39.19l-.28,0C3.86,1.53-1,10,.18,19.22l8.08,73.9.86,7.29c.59,5,4.41,8.63,8.64,8.21,3.84-.39,6.83-4,7.09-8.56l.43-7.54L29.1,20.38C29.42,8.3,20.84-1.49,11.39.19Z" fill="#ffb597"/>
    </symbol>
    <symbol id="59b5f21a-515a-47d5-b8e9-4dd13871b7cc" data-name="ÕÓ‚˚È ÒËÏ‚ÓÎ 16" viewBox="0 0 23.42 26.78">
      <path d="M23.1,10.93l-5.8-8.7A4.73,4.73,0,0,0,13.65.13L8.75,0h0A2,2,0,0,0,6.62,1.16L0,15.78l4.5,10,10.75,1,2.25-2,.5-7,4.81-4.41A1.89,1.89,0,0,0,23.1,10.93Z" fill="#ffb597"/>
      <line x1="11.86" y1="17.96" x2="15.25" y2="26.53" fill="none" stroke="#ff8072" stroke-miterlimit="10"/>
      <line x1="7.81" y1="18.56" x2="11.19" y2="26.39" fill="none" stroke="#ff8072" stroke-miterlimit="10"/>
      <line x1="3.87" y1="18.2" x2="7.25" y2="26.03" fill="none" stroke="#ff8072" stroke-miterlimit="10"/>
      <line x1="17" y1="9.78" x2="17.75" y2="17.53" fill="none" stroke="#ff8072" stroke-miterlimit="10"/>
    </symbol>
  </defs>
  <title>denis-2</title>
  <g style="isolation: isolate">
    <g id="01d2b38e-5445-4153-9626-521f0d0b5bc1" data-name="bck14">
      <rect y="-4.8" width="701.05" height="703.44" fill="#e4b7f4"/>
      <circle cx="344.98" cy="347.42" r="279.44" fill="#59097a"/>
      <g clip-path="url(#8992d48c-4fab-46eb-8ac6-640752de3b3d)">
        <g>
          <g class="chpt2-bg-objects">
            <g>
              <rect x="397.69" y="163.64" width="241.03" height="201.75" fill="#43066b" opacity="0.62"/>
              <g opacity="0.41">
                <rect x="407.23" y="174.54" width="222.94" height="179.96" fill="#59097a"/>
                <path d="M562.15,265.44a4.71,4.71,0,1,1,3-5.93A4.7,4.7,0,0,1,562.15,265.44Z" fill="#fff"/>
                <path d="M562.5,189.21a2,2,0,1,1,2.68-.83A2,2,0,0,1,562.5,189.21Z" fill="#fff"/>
                <path d="M565.21,328.46a2,2,0,1,1,2.68-.84A2,2,0,0,1,565.21,328.46Z" fill="#fff"/>
                <path d="M585.45,228.47a2,2,0,1,1,2.5,1.28A2,2,0,0,1,585.45,228.47Z" fill="#fff"/>
                <path d="M506.24,304.47a2,2,0,1,1,.83,2.68A2,2,0,0,1,506.24,304.47Z" fill="#fff"/>
                <path d="M609.4,279.06a2,2,0,1,1,.84,2.68A2,2,0,0,1,609.4,279.06Z" fill="#fff"/>
                <path d="M585.45,228.47a2,2,0,1,1,2.5,1.28A2,2,0,0,1,585.45,228.47Z" fill="#fff"/>
                <path d="M531.81,299.06a2,2,0,1,1,.84,2.68A2,2,0,0,1,531.81,299.06Z" fill="#fff"/>
                <path d="M543.81,211.79a2,2,0,1,1,2.68-.84A2,2,0,0,1,543.81,211.79Z" fill="#fff"/>
                <path d="M476,299.24a2,2,0,1,1,2.68-.84A2,2,0,0,1,476,299.24Z" fill="#fff"/>
                <path d="M598.36,335.36a4.32,4.32,0,1,1-2.78,5.44A4.33,4.33,0,0,1,598.36,335.36Z" fill="#fff"/>
                <path d="M503.62,265.66a2,2,0,1,1-1.27,2.5A2,2,0,0,1,503.62,265.66Z" fill="#fff"/>
                <path d="M616.49,186.83a2,2,0,1,1,2.5,1.28A2,2,0,0,1,616.49,186.83Z" fill="#fff"/>
                <path d="M596.55,310.3a2,2,0,1,1,.84,2.68A2,2,0,0,1,596.55,310.3Z" fill="#fff"/>
                <path d="M499.49,194.68A2,2,0,1,1,502,196,2,2,0,0,1,499.49,194.68Z" fill="#fff"/>
                <path d="M523.44,245.27a2,2,0,1,1,.84,2.68A2,2,0,0,1,523.44,245.27Z" fill="#fff"/>
                <path d="M507.67,225.18a4.71,4.71,0,1,1,3-5.93A4.7,4.7,0,0,1,507.67,225.18Z" fill="#fff"/>
              </g>
            </g>
            <path d="M544.6,354h-137s16.27-12,28.29-15.11,22-8.44,30.29-3.49,16.45,7.33,21,5.87,21.44-7.95,31.65-2.37S561.19,354,561.19,354Z" fill="#9957bc" opacity="0.51"/>
            <circle cx="83.09" cy="182.28" r="9.42" fill="#59097a"/>
            <rect x="53.84" y="198.11" width="29.25" height="3.16" fill="#59097a"/>
            <rect x="53.84" y="208.87" width="18.92" height="3.16" fill="#59097a"/>
            <g opacity="0.5">
              <path d="M459.65,260.05a4.13,4.13,0,1,1,2.66-5.2A4.13,4.13,0,0,1,459.65,260.05Z" fill="#fff"/>
              <path d="M423.86,204.75a1.74,1.74,0,0,1-3.08-1.62,1.74,1.74,0,1,1,3.08,1.62Z" fill="#fff"/>
              <path d="M422.83,275.45a1.74,1.74,0,1,1,2.19,1.12A1.73,1.73,0,0,1,422.83,275.45Z" fill="#fff"/>
              <path d="M415.51,226.76a1.74,1.74,0,1,1,2.2,1.12A1.75,1.75,0,0,1,415.51,226.76Z" fill="#fff"/>
              <path d="M483.79,197.17a1.76,1.76,0,0,1-.74-2.36,1.74,1.74,0,1,1,.74,2.36Z" fill="#fff"/>
              <path d="M458.17,327.52a1.74,1.74,0,1,1,2.2,1.13A1.75,1.75,0,0,1,458.17,327.52Z" fill="#fff"/>
            </g>
            <path d="M462,321.53h1a20,20,0,0,0,19.53-24.36l-.38-1.68-1.72-.18c-.7-.07-1.41-.11-2.12-.11a19.94,19.94,0,0,0-20,19.87,18.76,18.76,0,0,0,.24,3.18l-.25.28-.25-.28a20,20,0,0,0-16.59-22.81,20.35,20.35,0,0,0-3.22-.24c-.71,0-1.42,0-2.12.11l-1.71.18-.39,1.68a20,20,0,0,0,15.08,23.89,19.59,19.59,0,0,0,4.45.5h1l1.35,1.48v3H440.79l4.95,28.16H470.8l5-28.16H460.67v-3Z" fill="#43066b"/>
            <rect x="413.26" y="179.26" width="216.91" height="7.16" fill="#43066b"/>
            <rect x="413.26" y="189.33" width="216.91" height="7.16" fill="#43066b"/>
            <rect x="413.26" y="199.39" width="216.91" height="7.16" fill="#43066b"/>
            <rect x="413.26" y="209.45" width="216.91" height="7.16" fill="#43066b"/>
            <rect x="413.26" y="219.52" width="216.91" height="7.16" fill="#43066b"/>
            <rect x="413.26" y="229.58" width="216.91" height="7.16" fill="#43066b"/>
            <rect x="413.26" y="239.64" width="216.91" height="7.16" fill="#43066b"/>
            <rect x="413.26" y="249.7" width="216.91" height="7.16" fill="#43066b"/>
            <rect x="-95.04" y="175.7" width="283.12" height="187.68" fill="#43066b" opacity="0.33"/>
            <path d="M148.93,346.41l-42.58-.77q-.57-24.78-1.16-49.55c-2-16.61,10.62-29.2,22.07-28.64,8.78.43,17.53,8.61,19.74,20.13Q148,317,148.93,346.41Z" fill="#43066b"/>
            <rect x="-100.5" y="400.53" width="340.24" height="108.21" transform="translate(139.24 909.27) rotate(180)" fill="#43066b" opacity="0.62"/>
            <rect x="-101.06" y="393.28" width="357.06" height="9.33" rx="3.67" ry="3.67" transform="translate(154.94 795.88) rotate(180)" fill="#43066b"/>
            <path d="M143.6,393.1H111.35c.6-8.33-.65-14-2-17.66a35.05,35.05,0,0,1-2.17-8.27,32.47,32.47,0,0,1,0-8.13c.47-4.19.51-11.28-1.41-24h43.41c-2.84,11.06-2.83,18.17-2.23,22.7a37,37,0,0,1,.29,9,44.45,44.45,0,0,1-2.18,9.58A46.51,46.51,0,0,0,143.6,393.1Z" fill="#43066b"/>
            <path d="M161,392.79h0a4.24,4.24,0,0,1-5.1-3.15L144.1,340a4.24,4.24,0,0,1,3.14-5.11h0a4.25,4.25,0,0,1,5.11,3.15l11.78,49.6A4.25,4.25,0,0,1,161,392.79Z" fill="#43066b"/>
            <path d="M96,390.62h0c2.32.74,4.57-.83,5-3.49l7.74-45.95a5.53,5.53,0,0,0-3.4-6.16h0c-2.32-.73-4.57.83-5,3.5L92.6,384.46A5.53,5.53,0,0,0,96,390.62Z" fill="#43066b"/>
            <path d="M90.3,388.34h0a4.24,4.24,0,0,0,4,4.43l40.32,1.85a4.25,4.25,0,0,0,4.43-4.05h0a4.24,4.24,0,0,0-4-4.43L94.73,384.3A4.24,4.24,0,0,0,90.3,388.34Z" fill="#43066b"/>
            <path d="M127.06,338.58h0a3.3,3.3,0,0,1-3.29-3.29v-15a3.29,3.29,0,0,1,3.29-3.29h0a3.29,3.29,0,0,1,3.29,3.29v15A3.29,3.29,0,0,1,127.06,338.58Z" fill="#460d72"/>
            <path d="M127.35,327.83c-6,.28-14.27-12.46-16.69-31.44,9.18,2.76,14,1.39,16.69-.49,1.64-1.14,3.19-2.93,6.1-3.48a11.57,11.57,0,0,1,7.55,1.45C140.71,313.79,133.45,327.56,127.35,327.83Z" fill="#460d72"/>
            <path d="M166.74,393.25H151.26a8,8,0,0,1,6.58-7.35C161.93,385.31,166.19,388.51,166.74,393.25Z" fill="#43066b"/>
            <path d="M137.45,348.58l-9,1.45,2.07-16.7,6,.4Q137,341.16,137.45,348.58Z" fill="#43066b"/>
            <path d="M116.53,348.44l8.94,1.6q-.89-8.35-1.78-16.72l-6,.29Z" fill="#43066b"/>
            <path d="M238.83,370.22H174.38a4.94,4.94,0,0,1-4.93-4.94l8.71-44.37a4.94,4.94,0,0,1,4.93-4.94h64.45a4.94,4.94,0,0,1,4.94,4.94l-8.71,44.37A4.94,4.94,0,0,1,238.83,370.22Z" fill="#43066b"/>
            <polygon points="210.09 389.46 197.9 389.46 204.29 364.07 216.48 364.07 210.09 389.46" fill="#43066b"/>
            <rect x="181.06" y="389.46" width="44.73" height="3.82" fill="#43066b"/>
            <path d="M162.48,393.28h-13.3a7.45,7.45,0,0,1,13.3,0Z" fill="#460d72"/>
            <path d="M144.68,394.22a27.46,27.46,0,0,1-17.23.19,4.69,4.69,0,0,1-1-3.29,5.35,5.35,0,0,1,4.84-4.26,9.45,9.45,0,0,1,13.36,7.36Z" fill="#43066b"/>
            <path d="M230,358.22H192.48l6-28.26h38.9Z" fill="#460d72"/>
            <rect x="-101.06" y="168.62" width="295.17" height="8.49" fill="#43066b" opacity="0.62"/>
            <path d="M688.83,438.24q-.18-11.62-.37-23.25-1.23-55.83-2.3-111.67-1.12-45.85-2.63-91.7c-.1-1.28-.22-2.55-.33-3.83a248.36,248.36,0,0,0-49.53-35.09H412.81L132,614.46H691.05Q690.11,526.35,688.83,438.24Z" opacity="0.2" fill="url(#f7be4e59-cdf4-4bd4-866d-56575c39b701)"/>
          </g>
          <g class="chpt2-bag">
            <g>
              <path d="M489.38,523.37H478.09a9.24,9.24,0,0,0-9.22,9.22v6a.45.45,0,0,0,.46.45h3.42a.46.46,0,0,0,.46-.45v-6a4.89,4.89,0,0,1,4.88-4.88h11.29a4.89,4.89,0,0,1,4.89,4.88v6a.45.45,0,0,0,.45.45h3.43a.46.46,0,0,0,.46-.45v-6A9.24,9.24,0,0,0,489.38,523.37Z" fill="#43066b"/>
              <path d="M498.15,540.41h-3.43a1.83,1.83,0,0,1-1.82-1.82v-6a3.52,3.52,0,0,0-3.52-3.51H478.09a3.51,3.51,0,0,0-3.51,3.51v6a1.83,1.83,0,0,1-1.83,1.82h-3.42a1.83,1.83,0,0,1-1.83-1.82v-6A10.6,10.6,0,0,1,478.09,522h11.29A10.61,10.61,0,0,1,500,532.59v6A1.83,1.83,0,0,1,498.15,540.41Zm-2.51-2.73h1.6v-5.09a7.87,7.87,0,0,0-7.86-7.85H478.09a7.86,7.86,0,0,0-7.85,7.85v5.09h1.6v-5.09a6.26,6.26,0,0,1,6.25-6.25h11.29a6.26,6.26,0,0,1,6.26,6.25Z" fill="#43066b"/>
            </g>
            <path d="M454.09,540.2h64.46a11.32,11.32,0,0,1,11.32,11.32v54a6.38,6.38,0,0,1-6.38,6.38H447.4a4.63,4.63,0,0,1-4.63-4.63v-55.7A11.32,11.32,0,0,1,454.09,540.2Z" fill="#43066b"/>
            <path d="M530.32,541.6a4.18,4.18,0,0,0-4.29-4.06H448.65a9,9,0,0,0-9.25,8.75v28.1A8.36,8.36,0,0,0,448,582.5h66.67a8.35,8.35,0,0,0,8.58-8.11V551c0-4.52-2.85-8.3,1.57-9.37Z" fill="#43066b"/>
            <path d="M526.35,611.38h0a4.47,4.47,0,0,1-4.47-4.46V544.07a4.47,4.47,0,0,1,4.47-4.46h0a4.47,4.47,0,0,1,4.46,4.46v62.85A4.47,4.47,0,0,1,526.35,611.38Z" fill="#43066b"/>
            <rect x="439.4" y="565.03" width="27.63" height="46.82" fill="#43066b"/>
          </g>
          <polygon points="140.95 639.66 127.19 473.12 82.63 472.32 66.56 639.66 60.6 639.66 72.53 458.97 135.71 458.97 147.64 639.66 140.95 639.66" fill="#360a59"/>
        </g>
      </g>
    </g>
    <g id="c46876c1-e65a-477c-b12f-249e919daee3" data-name="img14">
      <g>
        <g>
          <path d="M213.42,435.89l2-47,23.88,3.27-6.78,45.42a9.38,9.38,0,0,1-7.09,7.63,10.45,10.45,0,0,1-1.93.28,10.08,10.08,0,0,1-3-.31A9.23,9.23,0,0,1,213.42,435.89Z" fill="#272749"/>
          <path d="M216.53,363.86a13,13,0,0,1,10-11.82,13.45,13.45,0,0,1,3.09-.42,13.92,13.92,0,0,1,3.08.29l.31.06a12.82,12.82,0,0,1,10.19,14.35l-3.87,25.84-23.88-3.27Z" fill="#272749"/>
        </g>
        <g>
          <g>
            <path d="M377.44,427.62l8,9.8a.85.85,0,0,1,.19,1.17l-.57.84-.23.35-.43.63.48-1,.2-.4-.27.39-.16.24-1.75,2.59,1.12-2-1.44,2.13-8.86-.93-2.13.3-.22,0a8.9,8.9,0,0,1-10.05-7.59l-.49-3.46Z" fill="#f6b297"/>
            <g opacity="0.51" style="mix-blend-mode: multiply">
              <polygon points="384.63 439.63 382.88 442.22 384 440.24 382.56 442.37 373.7 441.44 371.57 441.74 376.18 437.92 384.79 439.39 384.63 439.63" fill="#fbba9f"/>
            </g>
            <polygon points="385.04 439.43 384.81 439.78 384.38 440.41 384.86 439.4 385.04 439.43" fill="#fbba9f"/>
          </g>
          <path d="M372.64,434l-.16-.1,3.44.25,4.95,2.54-1.12,1.89-1.39-.9c.12.2.19.42.29.62a8.5,8.5,0,0,1,1.59,1l1.74-2.93-5.77-3-6.75-.52,1.72,1.11A5.94,5.94,0,0,1,372.64,434Z" fill="#fc8883"/>
        </g>
        <rect x="272.15" y="288.31" width="15.76" height="22.75" rx="7.13" ry="7.13" fill="#a3becc"/>
        <g>
          <rect x="372.49" y="605.73" width="18.84" height="20.34" transform="translate(763.82 1231.8) rotate(-180)" fill="#f9dbcd"/>
          <g id="7eb5b054-2584-4785-8c5b-5904aa499233" data-name="&lt;Group&gt;">
            <path d="M371.83,620.84v16.71H420v-2.42a5.48,5.48,0,0,0,0-.7,3.06,3.06,0,0,0-.05-.32,6.2,6.2,0,0,0-.29-1.22,6.79,6.79,0,0,0-6.42-4.55h-3.82l-1,0a12.09,12.09,0,0,1-11.34-12.12v-.29a5.46,5.46,0,0,0-6.18-5.4,5.58,5.58,0,0,0-4.71,5.6v4.74Z" fill="#383772"/>
            <path d="M392.6,625.06a58.57,58.57,0,0,0,9.95,1.31,12.2,12.2,0,0,1-5.48-10.18v-.29a5.46,5.46,0,0,0-6.18-5.4,5.58,5.58,0,0,0-4.71,5.6v4.74h-.25C387.21,623.3,389.05,624.22,392.6,625.06Z" fill="#5a749d"/>
            <path d="M371.83,632.94v4.61H420v-2.39a5.22,5.22,0,0,0,0-.69,2.69,2.69,0,0,0-.05-.32,6.1,6.1,0,0,0-.29-1.21Z" fill="#fff"/>
          </g>
          <g id="65c7cbbf-ad6b-4722-a996-c88b48fffb4b" data-name="&lt;Group&gt;">
            <g>
              <g>
                <path d="M297.74,439.07l-23.48-44.33,23.36-9.06L315.94,431a9.62,9.62,0,0,1-2.29,10.6,9.52,9.52,0,0,1-1.6,1.24,10.46,10.46,0,0,1-2.87,1.23A10,10,0,0,1,297.74,439.07Z" fill="#272749"/>
                <path d="M261.76,371.13a13.37,13.37,0,0,1,2.67-15.93,13.6,13.6,0,0,1,2.57-1.95,14.18,14.18,0,0,1,2.93-1.29,2.69,2.69,0,0,1,.32-.1,13.94,13.94,0,0,1,16.94,8.08l10.43,25.74-23.36,9.06Z" fill="#272749"/>
              </g>
              <polygon points="308.33 421.32 312.11 420.39 363.17 431.12 359.33 442.28 308.33 444.17 301.98 438.86 308.33 421.32" fill="#272749"/>
            </g>
            <g>
              <polygon points="304.51 525.58 331.92 636.83 335.11 636.83 314.49 524.1 304.51 525.58" fill="#360a59"/>
              <polygon points="195.04 636.83 198.23 636.83 225.65 525.58 215.66 524.1 195.04 636.83" fill="#360a59"/>
              <polygon points="263.19 527.07 265.43 636.83 269.04 636.83 273.52 528.55 263.19 527.07" fill="#360a59"/>
              <path d="M178.23,424.57l9.18,66a50.61,50.61,0,0,0,51,43.6l24.9-.43,10-.18,33-.57,6.9-.12a15.1,15.1,0,0,0,2.8-.29,16.48,16.48,0,0,0,11.26-24.37,15,15,0,0,0-2.31-3.16,16.71,16.71,0,0,0-9.77-5l-10.79-1.49A16.51,16.51,0,0,1,291,487.22l-22-69.08a37,37,0,0,0-34.25-25.77l-27.05-.73a28.54,28.54,0,0,0-12,2.23c-.45.19-.89.39-1.33.61A28.92,28.92,0,0,0,178.23,424.57Z" fill="#7f38a0"/>
              <path d="M194.35,394.48l11.5,79.76A32.4,32.4,0,0,0,237.92,502h83.16a16.28,16.28,0,0,0-5.86-2l-10.79-1.49A16.51,16.51,0,0,1,291,487.22l-22-69.08a37,37,0,0,0-34.25-25.77l-27.05-.73a28.54,28.54,0,0,0-12,2.23C195.23,394.06,194.79,394.26,194.35,394.48Z" fill="#5d2b77"/>
            </g>
            <g>
              <g id="43c24b55-3f96-43c7-8f42-04c33da312d1" data-name="&lt;Group&gt;">
                <g id="2c36ff04-693c-4727-9227-cf29fc6ca85d" data-name="&lt;Group&gt;">
                  <path d="M265.06,468.1a20.62,20.62,0,0,1,12.06-3.78l104.37,8.13A15,15,0,0,1,395.92,488l-.43,11.48-4.05,107.75-19.42.89-2.87-103.64a4.27,4.27,0,0,0-4.4-4.16l-89-2.53c-8.93.2-16.27-10.4-16.24-19.34A12.78,12.78,0,0,1,265.06,468.1Z" fill="#222247"/>
                </g>
              </g>
              <g>
                <path d="M219.48,368.79V477.85a14.32,14.32,0,0,0,14.32,14.32h32.73a21.89,21.89,0,0,0,21.91-21.92v-93A29.23,29.23,0,0,0,273,351.47a28.7,28.7,0,0,0-5.46-2.23,27.84,27.84,0,0,0-3.77-.85,29.07,29.07,0,0,0-4.5-.35h-19a20.69,20.69,0,0,0-5.32.7c-.63.16-1.25.36-1.86.58a19.88,19.88,0,0,0-2.22,1A20.74,20.74,0,0,0,219.48,368.79Z" fill="#16162b"/>
                <path d="M219.48,464.32v13.53a14.32,14.32,0,0,0,14.32,14.32h32.73a21.89,21.89,0,0,0,21.91-21.92v-5.93Z" fill="#16162b"/>
                <path d="M278.73,464.27V375.65a29.22,29.22,0,0,0-15.49-25.8,28.7,28.7,0,0,0-4.13-1.81h.11a29.07,29.07,0,0,1,4.5.35,27.84,27.84,0,0,1,3.77.85,28.7,28.7,0,0,1,5.46,2.23,29.23,29.23,0,0,1,15.49,25.8v87Z" fill="#16162b" opacity="0.46" style="mix-blend-mode: soft-light"/>
              </g>
              <g id="78114ec5-f39c-44a1-8107-70e47e7ce951" data-name="&lt;Group&gt;">
                <g id="523a267a-0ca6-4fd6-a2a4-c621608da452" data-name="&lt;Group&gt;">
                  <rect x="332.1" y="603.06" width="19.5" height="20.34" transform="translate(683.69 1226.46) rotate(-180)" fill="#f9dbcd"/>
                  <path d="M219.65,480.07c0,8.94,7.3,19.54,16.23,19.34l89,2.52a4.3,4.3,0,0,1,4.4,4.17l2.7,97.62.13,4.81,0,1.2,14.57-.66,4.85-.22,0-1.1.15-4L355.6,501.1l.43-11.48a15,15,0,0,0-14.43-15.55l-104.37-8.14a22.72,22.72,0,0,0-3.19.24,19.88,19.88,0,0,0-8.87,3.55c-.25.18-.5.38-.73.58a2.31,2.31,0,0,0-.24.2c-.17.14-.32.28-.47.43h0a1.37,1.37,0,0,0-.18.16h0A12.37,12.37,0,0,0,219.65,480.07Z" fill="#222247"/>
                  <path d="M238.84,466.06a21.74,21.74,0,0,0-4.77.11h0l102.59,11.22a15,15,0,0,1,14.43,15.54l-.43,11.48-3.71,98.65,0,.66-.2,5.35,4.85-.22,0-1.1.15-4L355.6,501.1l.43-11.48a15,15,0,0,0-14.43-15.55Z" fill="#222247" opacity="0.42" style="mix-blend-mode: screen"/>
                  <path d="M223.55,471.1a.32.32,0,0,0,.18-.16A1.37,1.37,0,0,0,223.55,471.1Z" fill="#222247" opacity="0.42" style="mix-blend-mode: screen"/>
                  <rect x="331.28" y="603.73" width="22.5" height="6.01" transform="translate(685.06 1213.46) rotate(-180)" fill="#222247"/>
                </g>
                <g id="a02246eb-81a9-46d6-9b39-5ec4d3b3f5e4" data-name="&lt;Group&gt;">
                  <path d="M332,620.49V637.2h48.2v-2.42a5.48,5.48,0,0,0,0-.7,3.26,3.26,0,0,0,0-.33,6.1,6.1,0,0,0-.29-1.21,6.79,6.79,0,0,0-6.42-4.55h-3.82l-1,0a12.09,12.09,0,0,1-11.34-12.13v-.29a5.46,5.46,0,0,0-6.18-5.4,5.59,5.59,0,0,0-4.71,5.61v4.74Z" fill="#383772"/>
                  <path d="M352.76,624.7a56.62,56.62,0,0,0,9.95,1.31,12.19,12.19,0,0,1-5.48-10.18v-.29a5.46,5.46,0,0,0-6.18-5.4,5.59,5.59,0,0,0-4.71,5.61v4.74h-.25C347.37,623,349.21,623.87,352.76,624.7Z" fill="#5a749d"/>
                  <path d="M332,632.59v4.61h48.2v-2.4a5.43,5.43,0,0,0,0-.69c0-.11,0-.21,0-.32a6.18,6.18,0,0,0-.29-1.2Z" fill="#fff"/>
                </g>
              </g>
              <g>
                <rect x="335.27" y="440.98" width="59.64" height="6.88" rx="1.34" ry="1.34" transform="translate(730.18 888.84) rotate(-180)" fill="#c4e3f7"/>
                <rect x="297.08" y="440.98" width="59.64" height="6.88" rx="1.34" ry="1.34" transform="translate(653.8 888.84) rotate(-180)" fill="#8fcaea"/>
              </g>
            </g>
            <g>
              <g class="chpt2-comp">
                <rect x="329.83" y="317.62" width="148.6" height="114.72" rx="12.21" ry="12.21" fill="#8fcaea"/>
                <path d="M381,445.12a12.89,12.89,0,0,0,12.79-12.85v-2.45h32.3v2.45a12.87,12.87,0,0,0,12.85,12.85l0,1.68-58,0-.84,0v-1.67Z" fill="#8fcaea"/>
                <path d="M335.22,329.82v90.3a12.23,12.23,0,0,0,12.21,12.22H471.61a12.23,12.23,0,0,0,12.21-12.22v-90.3a12.22,12.22,0,0,0-12.21-12.2H347.43A12.22,12.22,0,0,0,335.22,329.82Z" fill="#c4e3f7"/>
                <path d="M389,374.47a7,7,0,1,0,6.95-7A7,7,0,0,0,389,374.47Z" fill="#fff"/>
                <path d="M406.57,374.47a7,7,0,1,0,6.95-7A7,7,0,0,0,406.57,374.47Z" fill="#fff"/>
                <path d="M423.33,374.47a7,7,0,1,0,7-7A7,7,0,0,0,423.33,374.47Z" fill="#fff" opacity="0.51"/>
              </g>
              <polygon points="509.24 636.7 495.56 471.2 451.27 470.4 435.3 636.7 429.38 636.7 441.25 457.14 504.02 457.14 515.88 636.7 509.24 636.7" fill="#360a59"/>
              <polygon points="522.53 457.91 434.18 457.91 160.33 457.91 98.15 457.91 88.13 457.91 83.71 446.54 363.72 446.54 421.42 446.54 434.18 446.54 522.53 446.54 522.53 457.91" fill="#fecb05"/>
              <rect x="432.51" y="446.54" width="90.02" height="11.37" transform="translate(955.03 904.45) rotate(-180)" fill="#ca7c00"/>
            </g>
            <g>
              <path d="M266.3,323.18v26.27c0,4.68-5.65,8.52-12.53,8.52h-6.45c-6.88,0-12.53-3.84-12.53-8.52V323.18c0-4.68,5.65-8.52,12.53-8.52h6.45C260.65,314.66,266.3,318.5,266.3,323.18Z" fill="#ffb597"/>
              <path d="M266.3,317v32.65c-8.29-5.88-22-8.54-31.51-14.69V317c0-7.64,5.65-13.9,12.53-13.9h6.45C260.65,303.12,266.3,309.38,266.3,317Z" fill="#ff9983"/>
            </g>
            <path d="M282.12,278.21c0,1.71-4,23.39-4,23.39l-4.56-24.53Z" fill="#000429"/>
            <path d="M279.68,277.28c-1.08,6.47-2.78,21.65-2.78,21.65L266.74,274Z" fill="#312b6b"/>
            <path d="M278.4,281.49c-.25-3.25-1.94-6-4-6.91l-.23-1.83,5.06-1.35-23.93-4.57-18,7.75a7.15,7.15,0,0,0-6.81,7.92l1.62,13.44L235,306.26c1.47,5.29,3.55,15.84,6.37,20.78,3.51,6.2,22.49,16.63,26.67,14.39s8.43-5.6,9.73-12c1.05-5.13,1.23-18.69,1.37-24l.25-10.45Z" fill="#fbba9f"/>
            <path d="M243.56,267.25a8.15,8.15,0,0,0-2.31.1l-1.45.38c-11.43,2-18.55,13.08-15.34,23.8l4.33,14.55,1.44,2.61,2.56-.61,2.42-.57c4.71-1.12,6.81-4.7,8.11-9.36,2.08-7.47.13-17.82.24-17.8Z" fill="#000429"/>
            <path d="M237,271.53c1.52,10.93,12.24,18.09,22.88,17.77s20.81-6.67,28.73-14.69c-7.45-6.07-15.17-12.27-24.49-14.66s-20.73,0-26.85,8.39Z" fill="#000429"/>
            <path d="M241.45,303.77l-.66-1.54a5.45,5.45,0,0,0-4.43-3.46l-1-.08a5.12,5.12,0,0,0-4.69,2.5h0a7.11,7.11,0,0,0-1.06,4.26l.25,3.81a7,7,0,0,0,.67,2.57l.37.78a5.31,5.31,0,0,0,4.7,3.24h.25a5.56,5.56,0,0,0,5.16-4.52l.75-3A7.29,7.29,0,0,0,241.45,303.77Z" fill="#ffb597"/>
            <use width="21.01" height="10.67" transform="translate(257.8 321.92) scale(0.76)" xlink:href="#a71cc9ba-57c5-46ec-9226-36b92832d8b0"/>
            <path d="M261.69,253.16l2.73,2.48c-5.14-.94-10.36-1.79-15.63-1.13a22.59,22.59,0,0,0-14.57,7.61H240a80.63,80.63,0,0,0-18.35,17.41c6,2.41,12,4.84,18.37,5.64s13.11-.14,18.89-4.1l-4.61,5.8c1.34-1.68,9.3-2.14,11.48-2.91,2.5-.89,12.14.27,15.52-1.86,4.75-3,8-6.56,6.67-11.27-1.13-3.92-9.19-10.31-12.23-12.41a29.88,29.88,0,0,0-14-5.25Z" fill="#000429"/>
            <g>
              <g id="95a70765-9fe2-48a1-b390-af3d00c83edf" data-name="&lt;Group&gt;">
                <use id="08474dd3-32d3-4818-92ec-1dcc7133ee5c" data-name="New Symbol 66" width="14.06" height="6.75" transform="translate(271.11 294.78) scale(0.66)" xlink:href="#7a906988-db79-49bd-bde2-bbfa7538f079"/>
              </g>
              <g id="7594ed8b-f807-4de8-a971-54c85025be18" data-name="&lt;Group&gt;">
                <use id="457444d4-774a-44b9-b5f1-80f43b0ea86c" data-name="New Symbol 66" width="14.06" height="6.75" transform="matrix(-0.66, 0, 0, 0.66, 260.55, 294.78)" xlink:href="#7a906988-db79-49bd-bde2-bbfa7538f079"/>
              </g>
            </g>
            <use id="83382009-feef-4025-b2cc-43b577c8356e" data-name="New Symbol 4" width="3.26" height="4.72" transform="matrix(-2.09, 0, 0, 1.26, 278.54, 301.99)" xlink:href="#db3cad22-8756-45ae-8d5b-7a1d6c621d87"/>
            <use id="283ebbfa-256f-437e-bf15-94a975625043" data-name="New Symbol 4" width="3.26" height="4.72" transform="matrix(-2.09, 0, 0, 1.26, 259.95, 302.04)" xlink:href="#db3cad22-8756-45ae-8d5b-7a1d6c621d87"/>
          </g>
        </g>
        <polygon points="225.9 352.25 234.44 353.55 237.46 350.88 237.35 349.32 225.9 352.25" fill="#16162b"/>
        <use id="d580b29e-8c74-4f1b-8f6d-d2d316fc8236" data-name="New Symbol 25" width="29.11" height="108.65" transform="matrix(-0.07, 0.66, 0.66, 0.07, 219.06, 425.95)" xlink:href="#385ff100-7e6c-4bf2-ae10-7452301687ea"/>
        <use width="23.42" height="26.78" transform="matrix(0.19, -0.93, 0.93, 0.19, 275.71, 449.03)" xlink:href="#59b5f21a-515a-47d5-b8e9-4dd13871b7cc"/>
        <rect x="231.95" y="293.32" width="15.76" height="22.75" rx="7.13" ry="7.13" fill="#a3becc"/>
        <path d="M235.37,300.6s-3.26-31.86,5.71-39.1c5.93,0,6.84.62,6.84.62a70.13,70.13,0,0,0-5.87,37.38A8,8,0,0,1,235.37,300.6Z" fill="#c4e3f7"/>
        <rect x="229.3" y="292.66" width="15.76" height="22.75" rx="7.13" ry="7.13" fill="#c4e3f7"/>
        <path d="M241.08,261.5s7.27-8.72,27.34-6.86c5.58,3-15.32,1.11-20.5,7.48S241.08,261.5,241.08,261.5Z" fill="#c4e3f7"/>
        <path d="M241.88,267.31l3.3,1.7s2.13-8.55,10.76-10.94-7.66,0-7.66,0L243.69,263Z" fill="#c4e3f7"/>
        <path d="M282.88,325H277a3,3,0,1,0,0,6h5.9a2.84,2.84,0,0,0,3.12-2.85V325Z" fill="#a3becc"/>
        <path d="M228,365l-11.59-.13-3,64.93s-3.78,15.44,10,16.48,43.67,2.84,43.67,2.84l4.47-13.65-26.93-5.93-9.5-3.09,5.22-44.26Z" fill="#272749"/>
      </g>
    </g>
  </g>
</svg>