<svg xmlns="http://www.w3.org/2000/svg" xmlns:xlink="http://www.w3.org/1999/xlink" width="700" height="700" viewBox="0 0 700 700">
  <defs>
    <clipPath id="1a02dd79-ad86-4e0c-a781-724b8f8a9cd9">
      <circle cx="344.98" cy="347.42" r="279.44" fill="none"/>
    </clipPath>
    <linearGradient id="04b17813-7f06-4058-a86d-02bc081b6c49" x1="338.11" y1="-143.63" x2="338.11" y2="657" gradientUnits="userSpaceOnUse">
      <stop offset="0" stop-color="#fff"/>
      <stop offset="1" stop-color="#fff" stop-opacity="0"/>
    </linearGradient>
  </defs>
  <title>elena-3</title>
  <g style="isolation: isolate">
    <g id="de19b3ba-f467-429a-8942-f4e3c645d300" data-name="back7">
      <rect y="-4.8" width="701.05" height="703.44" fill="#f4e6bb"/>
      <g clip-path="url(#1a02dd79-ad86-4e0c-a781-724b8f8a9cd9)">
        <g>
          <rect x="-291.13" y="70.9" width="1123.71" height="749.14" fill="#ffdc6c"/>
          <rect x="-291.13" y="532.88" width="1123.71" height="93.64" fill="#f2cd64"/>
          <g>
            <rect x="111.59" y="249.2" width="464.71" height="178.33" fill="#f7e2a6"/>
            <rect x="102.31" y="427.52" width="483.27" height="8.97" fill="#efcc6a"/>
          </g>
          <g opacity="0.29">
            <path d="M406.32,591.85c0,.8-1,1.44-2.31,1.44h-.81c-1.27,0-2.31-.64-2.31-1.44v-22c0-.8,1-1.45,2.31-1.45H404c1.28,0,2.31.65,2.31,1.45Z" fill="#3b2b26"/>
            <path d="M443.51,569.74a2.32,2.32,0,0,1-2.31,2.34H366a2.32,2.32,0,0,1-2.31-2.34v-3a2.32,2.32,0,0,1,2.31-2.34H441.2a2.32,2.32,0,0,1,2.31,2.34Z" fill="#3b2b26"/>
            <path d="M409,610.94a1.72,1.72,0,0,1-1.78,1.66H400a1.71,1.71,0,0,1-1.77-1.66V586.11a1.72,1.72,0,0,1,1.77-1.67h7.31a1.73,1.73,0,0,1,1.78,1.67Z" fill="#3b2b26"/>
            <path d="M410,562.7a2.45,2.45,0,0,1-2.1,2.69h-8.63a2.45,2.45,0,0,1-2.1-2.69V522.53a2.45,2.45,0,0,1,2.1-2.69h8.63a2.45,2.45,0,0,1,2.1,2.69Z" fill="#3b2b26"/>
            <path d="M448.39,566.47a2.09,2.09,0,0,1-2.3,1.79h-85a2.1,2.1,0,0,1-2.31-1.79v-8.19a2.1,2.1,0,0,1,2.31-1.78h85a2.09,2.09,0,0,1,2.3,1.78Z" fill="#353535"/>
            <path d="M438.45,506c0-17.27-14.92-45.09-34.74-45.3v0h-.21v0c-19.42.48-34.73,28-34.73,45.3,0,17.63-.3,30.77,34.73,32.41h.21C438.74,536.73,438.45,523.59,438.45,506Z" fill="#3b2b26"/>
            <rect x="366.88" y="460.64" width="71.7" height="77.74" rx="17.39" ry="17.39" fill="#3b2b26"/>
            <path d="M358,624v-8.14c0-1.14,1.17-2.86,2.31-2.86h84.77c1.14,0,1.92,1.72,1.92,2.86V624h6v-8.14c0-4.91-3-8.86-7.92-8.86H360.31c-4.9,0-9.31,4-9.31,8.86V624Z" fill="#3b2b26"/>
          </g>
          <g>
            <rect x="225.02" y="158.63" width="58.14" height="58.14" fill="#efcc6a"/>
            <rect x="229.73" y="163.35" width="48.71" height="48.71" fill="#fff"/>
            <path d="M255.25,169.54a1.09,1.09,0,1,1-1.08-1.08A1.09,1.09,0,0,1,255.25,169.54Z" fill="#3b2b26" opacity="0.16"/>
            <path d="M237.16,187.57a1.08,1.08,0,1,1-1.08-1.08A1.08,1.08,0,0,1,237.16,187.57Z" fill="#3b2b26" opacity="0.16"/>
            <circle cx="272.1" cy="187.57" r="1.08" fill="#3b2b26" opacity="0.16"/>
            <path d="M255.25,205.86a1.09,1.09,0,1,1-1.08-1.08A1.08,1.08,0,0,1,255.25,205.86Z" fill="#3b2b26" opacity="0.16"/>
            <path d="M255.78,186.94l3-10-2.11-.64-3.13,9.64a2,2,0,0,0-1.41,1.63c0,.74.84,1.36.84,1.62V202h2V188.69c0-.3.66-.69.66-1.12C255.66,187.34,255.86,187.13,255.78,186.94Z" fill="#3b2b26" opacity="0.16"/>
          </g>
          <g>
            <rect x="263.84" y="546.85" width="10.57" height="78.62" fill="#e5bf61"/>
            <rect x="537.37" y="546.85" width="10.57" height="78.62" fill="#f2cd64"/>
            <rect x="256.57" y="546.85" width="10.57" height="78.62" fill="#f2cd64"/>
            <rect x="545.29" y="546.85" width="10.57" height="78.62" fill="#e5bf61"/>
            <rect x="250.84" y="508.75" width="309.65" height="9.69" fill="#f2cd64"/>
            <rect x="256.61" y="518.16" width="299.28" height="69.37" fill="#e5bf61"/>
          </g>
          <g>
            <rect x="129.32" y="481.18" width="97.35" height="146.25" transform="translate(356 1108.62) rotate(180)" fill="#e5bf61"/>
            <rect x="129.93" y="481.43" width="96.13" height="5.08" transform="translate(356 967.94) rotate(180)" fill="#4b2d14" opacity="0.13"/>
            <rect x="125.52" y="469.5" width="104.95" height="11.94" transform="translate(356 950.93) rotate(180)" fill="#f2cd64"/>
          </g>
          <g>
            <g>
              <rect x="-109.87" y="515.44" width="162.37" height="110.92" fill="#f2cd64"/>
              <rect x="-105.67" y="519.9" width="153.98" height="102" fill="#e5bf61"/>
              <rect x="-109.87" y="552.97" width="159.65" height="3.44" fill="#f2cd64"/>
              <rect x="-109.87" y="586.43" width="159.65" height="3.44" fill="#f2cd64"/>
            </g>
            <g>
              <rect x="6.98" y="559.66" width="6.5" height="26.75" fill="#ffdc6c"/>
              <g>
                <rect x="-10.46" y="572.06" width="23.57" height="4.56" transform="translate(-548.76 409.17) rotate(-73.15)" fill="#ffdc6c"/>
                <rect x="-15.19" y="571.96" width="23.57" height="4.56" transform="translate(-552.01 404.57) rotate(-73.15)" fill="#ffdc6c"/>
              </g>
            </g>
          </g>
          <g>
            <path d="M459.76,496.05a5.26,5.26,0,0,0,5.36,5.15h66.45a5.26,5.26,0,0,0,5.36-5.15V454a5.26,5.26,0,0,0-5.36-5.16H465.12a5.26,5.26,0,0,0-5.36,5.16Z" fill="#f7e6ba"/>
            <g>
              <rect x="490.84" y="502.56" width="15.02" height="5.57" fill="#f7e6ba"/>
              <rect x="489.09" y="507.82" width="18.52" height="0.93" fill="#f7e6ba"/>
            </g>
          </g>
          <circle cx="483.08" cy="475.46" r="5.97" fill="#fff"/>
          <circle cx="498.61" cy="475.46" r="5.97" fill="#fff"/>
          <circle cx="514.14" cy="475.46" r="5.97" fill="#fff"/>
        </g>
        <polygon points="134.01 657 338.11 -143.63 542.22 657 134.01 657" opacity="0.4" fill="url(#04b17813-7f06-4058-a86d-02bc081b6c49)"/>
      </g>
    </g>
    <g id="7d33c4b7-ed2a-4cfd-8246-77b21c5e6f70" data-name="img7">
      <g>
        <rect x="323.43" y="636.57" width="11.08" height="5.18" fill="#fac1b1"/>
        <g>
          <g id="b48d8d5a-ec03-4690-9790-cbce8b4b07c6" data-name="&lt;Group&gt;">
            <circle cx="341.19" cy="189.37" r="20.09" transform="translate(78.49 477.92) rotate(-76.72)" fill="#ba8f56"/>
            <g opacity="0.28" style="mix-blend-mode: multiply">
              <path d="M321.76,196.59a20.09,20.09,0,0,1,38.85,0Z" fill="#2d2a5f"/>
            </g>
          </g>
          <g>
            <path d="M307.8,409.91a14.91,14.91,0,0,0-2.9,10.54l11.82,109.77A9.75,9.75,0,0,0,326.84,539h0a9.75,9.75,0,0,0,9.32-9.45l3.55-111.87a9.71,9.71,0,0,0-2.84-7.19l-4.58-4.58a14.58,14.58,0,0,0-21,.35l-3.49,3.65Z" fill="#fac1b1"/>
            <path d="M316.09,527.07l7.52,111.66H334.7l1.19-111.26L334,524.69c-4.4-6.52-14.13-4.5-17.93,2.38Z" fill="#fac1b1"/>
            <g id="e4f62e26-5451-406e-819b-9de12fcab77b" data-name="&lt;Group&gt;">
              <path d="M373.34,409.91a14.9,14.9,0,0,1,2.89,10.54L364.41,530.22A9.74,9.74,0,0,1,354.3,539h0A9.74,9.74,0,0,1,345,529.5l-3.56-111.87a9.75,9.75,0,0,1,2.85-7.19l4.58-4.58a14.58,14.58,0,0,1,21,.35l3.49,3.65Z" fill="#fac1b1"/>
            </g>
            <path d="M365.05,527.07l-7.52,111.66H346.44l-1.19-111.26,1.87-2.78c4.4-6.52,14.13-4.5,17.93,2.38Z" fill="#fac1b1"/>
          </g>
          <g id="c7e61230-2051-4a00-a153-6e704bc19496" data-name="&lt;Group&gt;">
            <path d="M371.28,398.3l-30.09.78-30.1-.78-3.16,5.79A46.49,46.49,0,0,0,302.32,429l4,72.3H376l4-72.3a46.49,46.49,0,0,0-5.61-24.86Z" fill="#000429"/>
          </g>
          <g>
            <path d="M300,306.67l-6,65.75a6.63,6.63,0,0,0,4.57,6.91h0a6.63,6.63,0,0,0,8.53-5.05l12.55-64.73a10,10,0,0,0-7-11.47h0A10,10,0,0,0,300,306.67Z" fill="#0b9b48"/>
            <g id="2301309d-75a9-4e57-ab18-68270c2a73db" data-name="&lt;Group&gt;">
              <g>
                <path d="M286.89,429.3a3.33,3.33,0,0,0,2.93,3.68,3.2,3.2,0,0,0,1.07,0,3.33,3.33,0,0,0,2.55-2.48L300,403.61l-10-1.42Z" fill="#fac1b1"/>
                <path d="M300.55,366.69a6.65,6.65,0,0,0-1.85.14,6.92,6.92,0,0,0-5.44,6L290,402.19l10,1.42,6.87-28.4A6.9,6.9,0,0,0,300.55,366.69Z" fill="#0b9b48"/>
              </g>
            </g>
            <g>
              <path d="M288.62,447.33l3.07,6.2a3.76,3.76,0,0,1-1,4.62h0l-4.87-10.31Z" fill="#fc8883"/>
              <path d="M297.83,449.67h0l-.65-14.48-.2-.05.17-.81-4-6.7-4.07-.2a1.77,1.77,0,0,0-1.8,1.37l-3.57,15.8,3.84,15.76.25-.14a4.12,4.12,0,0,0,2.06-3.67l-.15-6.89,4.29-9.12,1.3,7.74A1.84,1.84,0,0,0,297.83,449.67Z" fill="#fac1b1" stroke="#fac1b1" stroke-miterlimit="10" stroke-width="1.07"/>
            </g>
          </g>
          <g id="bef5be7c-5a7a-4916-ac6e-70949d74832e" data-name="&lt;Group&gt;">
            <path d="M382.48,306l10.45,65.19a6.63,6.63,0,0,1-4.08,7.2h0a6.63,6.63,0,0,1-8.86-4.45l-17-63.72a10,10,0,0,1,6.22-11.92h0A10,10,0,0,1,382.48,306Z" fill="#0b9b48"/>
          </g>
          <g id="35a20341-84ee-46db-816c-91333c1d3429" data-name="&lt;Group&gt;">
            <g>
              <path d="M413.53,320.91a3.34,3.34,0,0,1,4.63-.83,2.86,2.86,0,0,1,.77.74,3.31,3.31,0,0,1,.28,3.54l-12.83,24.47-8.44-5.53Z" fill="#fac1b1"/>
              <path d="M382.48,377a6.82,6.82,0,0,1-1.31-1.32,6.92,6.92,0,0,1-.13-8.08l16.9-24.26,8.44,5.53-13.57,25.88A6.89,6.89,0,0,1,382.48,377Z" fill="#0b9b48"/>
            </g>
          </g>
          <g>
            <rect x="304.16" y="392.83" width="74.05" height="28.51" rx="13.79" ry="13.79" fill="#000429"/>
            <path d="M311.21,344.39a101.86,101.86,0,0,1-1.31,35.25L305.76,399H377l-4.14-19.34a101.86,101.86,0,0,1-1.32-35.25l5.53-40.2a6.91,6.91,0,0,0-3.6-7.05l-21.17-11.25a23.3,23.3,0,0,0-21.86,0l-21.17,11.25a6.91,6.91,0,0,0-3.6,7.05Z" fill="#fefbfe"/>
          </g>
          <g>
            <path d="M302.48,412.24h23.58V347.39a17.49,17.49,0,0,1-2.5-9V307.9a17.68,17.68,0,0,1,17.63-17.63h0a17.68,17.68,0,0,1,17.62,17.63v30.49a17.49,17.49,0,0,1-2.5,9v64.85h23.58L373,380a102.94,102.94,0,0,1-1.33-35.61l5.59-40.6a7,7,0,0,0-3.64-7.12l-21.38-11.36a23.54,23.54,0,0,0-22.09,0L308.76,296.7a7,7,0,0,0-3.64,7.12l5.59,40.6A102.94,102.94,0,0,1,309.38,380Z" fill="#00b956"/>
            <path d="M380.58,412.79H355.76V347.23l.08-.13a17,17,0,0,0,2.41-8.71V307.9a17.07,17.07,0,1,0-34.13,0v30.49a17,17,0,0,0,2.41,8.71l.08.13v65.56H301.79l7-32.88a102.28,102.28,0,0,0,1.32-35.41l-5.59-40.61a7.55,7.55,0,0,1,3.93-7.68l21.38-11.36a24.07,24.07,0,0,1,22.61,0l21.38,11.36a7.55,7.55,0,0,1,3.93,7.68l-5.59,40.61a102.29,102.29,0,0,0,1.32,35.41Zm-23.71-1.11h22.34l-6.76-31.54a103.24,103.24,0,0,1-1.34-35.79l5.59-40.61a6.46,6.46,0,0,0-3.35-6.55L352,285.83a23,23,0,0,0-21.57,0L309,297.19a6.46,6.46,0,0,0-3.35,6.55l5.59,40.61a103.24,103.24,0,0,1-1.34,35.79l-6.75,31.54H325.5V347.54a18.1,18.1,0,0,1-2.49-9.15V307.9a18.18,18.18,0,1,1,36.35,0v30.49a18.1,18.1,0,0,1-2.49,9.15Z" fill="#00b956"/>
          </g>
          <rect x="306.87" y="191.28" width="68.64" height="79.2" rx="30.89" ry="30.89" fill="#ba8f56"/>
          <g>
            <ellipse cx="318.02" cy="246.74" rx="5.01" ry="7.19" fill="#e2aea1"/>
            <ellipse cx="363.75" cy="246.74" rx="5.22" ry="7.19" fill="#e2aea1"/>
          </g>
          <g id="7a6a2236-4476-4c79-9fcf-092e9d531637" data-name="&lt;Group&gt;">
            <rect x="332.47" y="266.91" width="17.42" height="35.24" rx="6.93" ry="6.93" fill="#fac1b1"/>
            <path d="M349.9,273.84v16.28c-4.59-2.93-12.19-7.73-17.43-10.8v-5.48a7,7,0,0,1,6.93-6.93H343A7,7,0,0,1,349.9,273.84Z" fill="#e2aea1"/>
          </g>
          <path d="M318,234v20.07a17.44,17.44,0,0,0,6,13l10.62,9.53a10.92,10.92,0,0,0,14.26,0l9.43-8.46a17.46,17.46,0,0,0,6-13V236.86l-37-17Z" fill="#fac1b1"/>
          <path d="M332.44,259.77c-.51,0-.84.86-.59,1.55,1.69,4.75,5.24,8,9.34,8s7.64-3.27,9.33-8c.25-.69-.08-1.55-.59-1.55Z" fill="#fff"/>
          <g id="0310b62a-479e-4ed4-8dc8-7e8a628d206a" data-name="&lt;Group&gt;">
            <g id="ccea9242-5471-44d9-bfb7-fc56f937e5c5" data-name="&lt;Group&gt;">
              <g>
                <g id="47ee7afd-0c9e-43dd-9a45-d459266c70de" data-name="&lt;Group&gt;">
                  <path d="M329.84,246h0c-1.56,0-2.85-.86-2.85-1.93v-1.72c0-1.06,1.29-1.93,2.85-1.93h0c1.57,0,2.85.87,2.85,1.93V244C332.69,245.11,331.41,246,329.84,246Z" fill="#67413a"/>
                </g>
                <g id="ce034ea5-11fc-4323-b6ad-64363c868fcf" data-name="&lt;Group&gt;">
                  <path d="M326.87,236.62l-.44-1.79a10.29,10.29,0,0,1,6.62.55l-.73,1.69A8.42,8.42,0,0,0,326.87,236.62Z" fill="#b0593c"/>
                </g>
              </g>
            </g>
            <g id="c78de202-feae-40c2-9d89-b2c194336e99" data-name="&lt;Group&gt;">
              <g>
                <g id="457d3d40-eea7-470a-baa4-3aaba9c86be0" data-name="&lt;Group&gt;">
                  <path d="M352.53,246h0c1.56,0,2.85-.86,2.85-1.93v-1.72c0-1.06-1.29-1.93-2.85-1.93h0c-1.57,0-2.85.87-2.85,1.93V244C349.68,245.11,351,246,352.53,246Z" fill="#67413a"/>
                </g>
                <g id="98057093-ec1f-453e-9f71-5797bc126c47" data-name="&lt;Group&gt;">
                  <path d="M355.5,236.62l.44-1.79a10.29,10.29,0,0,0-6.62.55l.73,1.69A8.42,8.42,0,0,1,355.5,236.62Z" fill="#b0593c"/>
                </g>
              </g>
            </g>
          </g>
          <g>
            <polygon points="415.5 300.41 413.3 300.77 412.94 309.03 415.32 309.03 415.5 300.41" fill="#fac1b1"/>
            <path d="M408.65,322.74l.74-8.9,4.9-8.58a.27.27,0,0,1,.5.13v6.83l11.08-2.71h7.39a1,1,0,0,1,1,1v1.39a1,1,0,0,1-.54.88h0a1,1,0,0,0-.54.87v2.42a1,1,0,0,1-.39.78l-.34.25a1,1,0,0,0-.39.71l-.19,2.46a1,1,0,0,1-.61.83l-.17.07a1,1,0,0,0-.61.91v1.14a1,1,0,0,1-.54.88l-9.47,5.83a5.7,5.7,0,0,1-4.89.11L412,328.45A5.74,5.74,0,0,1,408.65,322.74Z" fill="#fac1b1"/>
            <rect x="412.55" y="294.88" width="16.31" height="30.39" rx="1.76" ry="1.76" transform="translate(841.4 620.15) rotate(180)" fill="#67008d"/>
            <g>
              <path d="M425.05,315.17l7.21-1.23a1.17,1.17,0,0,0,.85-1.22v-2.29c0-.76-.56-1.34-1.16-1.2L424.39,311a1.24,1.24,0,0,0-.77,1.5l.35,1.74A1,1,0,0,0,425.05,315.17Z" fill="#fac1b1"/>
              <path d="M424.83,320.48l6-.71c.4,0,.74-.64.81-1.39l.23-2.8c.08-.94-.31-1.71-.81-1.6l-6.3,1.33c-.46.1-.82.9-.78,1.75l.11,2.18C424.08,320,424.42,320.52,424.83,320.48Z" fill="#fac1b1"/>
              <path d="M425.89,323.82l4.17.67c.32,0,.65-.48.77-1.14l.45-2.46c.15-.82-.09-1.55-.49-1.51l-5.08.5c-.37,0-.72.7-.77,1.46l-.14,1.27A1.32,1.32,0,0,0,425.89,323.82Z" fill="#fac1b1"/>
            </g>
          </g>
        </g>
        <ellipse cx="328.92" cy="637.34" rx="5.58" ry="3.79" fill="#fac1b1"/>
        <polygon points="335.98 651.98 334.39 638 323.18 638 321.85 651.85 335.98 651.98" fill="#19223f"/>
        <polygon points="323.09 641 312.95 647.22 324.65 651.98 333.38 652.16 323.44 641 323.09 641" fill="#19223f"/>
        <path d="M307.69,652.36a3.42,3.42,0,0,1,0-.45c0-3.18,4.55-5.76,10.16-5.76S328,648.73,328,651.91a3.59,3.59,0,0,1-.07.65C321.16,652.5,314.42,652.41,307.69,652.36Z" fill="#000828"/>
        <rect x="307.56" y="651.79" width="23.79" height="2.45" transform="translate(638.91 1306.04) rotate(-180)" fill="#ba8f56"/>
        <rect x="329.46" y="651.77" width="6.52" height="2.47" transform="translate(665.44 1306.02) rotate(-180)" fill="#ba8f56"/>
        <polygon points="344.58 651.98 346.17 638 357.38 638 358.72 651.85 344.58 651.98" fill="#19223f"/>
        <polygon points="357.48 641 367.61 647.22 355.91 651.98 347.19 652.16 357.12 641 357.48 641" fill="#19223f"/>
        <path d="M372.88,652.36a3.42,3.42,0,0,0,0-.45c0-3.18-4.55-5.76-10.16-5.76s-10.16,2.58-10.16,5.76a2.88,2.88,0,0,0,.07.65C359.4,652.5,366.14,652.41,372.88,652.36Z" fill="#000828"/>
        <rect x="349.21" y="651.79" width="23.79" height="2.45" fill="#ba8f56"/>
        <rect x="344.58" y="651.77" width="6.52" height="2.47" fill="#ba8f56"/>
      </g>
    </g>
  </g>
</svg>
