<svg xmlns="http://www.w3.org/2000/svg" xmlns:xlink="http://www.w3.org/1999/xlink" width="700" height="700" viewBox="0 0 700 700">
  <defs>
    <clipPath id="1b40abc4-d97b-4f2c-a24b-37328e211158">
      <circle cx="345.07" cy="347.63" r="279.53" fill="none"/>
    </clipPath>
    <linearGradient id="19e6ac4a-13db-4a37-83af-a8fd719d84a4" x1="380.21" y1="160.82" x2="380.21" y2="736" gradientUnits="userSpaceOnUse">
      <stop offset="0" stop-color="#fff"/>
      <stop offset="1" stop-color="#fff" stop-opacity="0"/>
    </linearGradient>
    <linearGradient id="eaf59f54-8c33-47d6-ad72-9c46a8e1f7e6" x1="296.74" y1="122.82" x2="296.74" y2="698" xlink:href="#19e6ac4a-13db-4a37-83af-a8fd719d84a4"/>
    <symbol id="2c243954-b0aa-4e63-af76-1ec6bde4c963" data-name="New Symbol 106" viewBox="0 0 22 44.5">
      <rect width="22" height="44.5" rx="8.75" ry="8.75" fill="#fac1b1"/>
      <path d="M22,8.75V29.3C16.21,25.6,6.61,19.54,0,15.67V8.75A8.78,8.78,0,0,1,8.75,0h4.5A8.78,8.78,0,0,1,22,8.75Z" fill="#e2aea1"/>
    </symbol>
    <symbol id="99e7e58c-501c-4804-b01d-95ac779c5069" data-name="New Symbol 100" viewBox="0 0 21.01 10.68">
      <path d="M.75,0C.18,0-.18,1,.09,1.72c1.89,5.31,5.84,9,10.42,9S19,7,20.92,1.72C21.19,1,20.83,0,20.26,0Z" fill="#fff"/>
    </symbol>
  </defs>
  <title>elena-1</title>
  <g style="isolation: isolate">
    <g id="c63bf209-a82c-40e2-bb4e-2446a87efe25" data-name="bck5">
      <rect x="-2.8" y="-1.85" width="701.54" height="702.89" fill="#f4e6bb"/>
      <g clip-path="url(#1b40abc4-d97b-4f2c-a24b-37328e211158)">
        <g>
          <polyline points="287.95 386.33 266.2 394.04 285 397.88" fill="#272749"/>
          <circle cx="345.07" cy="347.63" r="279.53" fill="#ffdc6c"/>
          <polygon points="233.57 736 380.21 160.82 526.84 736 233.57 736" opacity="0.4" fill="url(#19e6ac4a-13db-4a37-83af-a8fd719d84a4)"/>
          <polygon points="150.1 698 296.74 122.82 443.37 698 150.1 698" opacity="0.4" fill="url(#eaf59f54-8c33-47d6-ad72-9c46a8e1f7e6)"/>
          <g>
            <rect x="295.95" y="67.1" width="2.35" height="54.78" fill="#e5bf61"/>
            <path d="M297.12,116.41h0a12.3,12.3,0,0,1,12.3,12.3v23.58a0,0,0,0,1,0,0h-24.6a0,0,0,0,1,0,0V128.71A12.3,12.3,0,0,1,297.12,116.41Z" fill="#e5bf61"/>
          </g>
          <g>
            <rect x="378.05" y="67.1" width="2.54" height="98.2" fill="#e5bf61"/>
            <path d="M392.65,198.25H366V172.7a13.33,13.33,0,0,1,13.33-13.33h0a13.33,13.33,0,0,1,13.33,13.33Z" fill="#e5bf61"/>
          </g>
          <g opacity="0.27">
            <rect x="439.5" y="190.5" width="226.71" height="138.27" fill="#e5bf61"/>
            <rect x="448.89" y="200.72" width="208.13" height="118.52" fill="#f9f8ef"/>
            <g>
              <path d="M571.27,221.93h0Z" fill="#f2cd64"/>
              <path d="M632,229.61a.68.68,0,0,1-.42-.09c-.13-.06-.25-.14-.37-.21a10,10,0,0,0-1.61-.73l-1.13-.28c-.28-.07-.56-.14-.84-.24-.61-.22-1.23-.48-1.84-.69a24,24,0,0,0-2.8-.77,4.73,4.73,0,0,1-.59-.16,2.25,2.25,0,0,0-.83-.15c0,.15.17.21.27.29.26.23.26.26,0,.4a4.78,4.78,0,0,0-1.84-.67l-.52-.11a3.05,3.05,0,0,0-1.13-.12,3.1,3.1,0,0,1-1.21-.14,7.59,7.59,0,0,1-1.72-.7,1.32,1.32,0,0,0-.78-.21,5.29,5.29,0,0,1-1-.05c-.92-.16-1.85-.35-2.78-.54a3.8,3.8,0,0,1-.73-.31c-.32-.15-.63-.32-.94-.47a.62.62,0,0,0-.48-.08.73.73,0,0,1-.56-.09,9.34,9.34,0,0,0-1.77-.57.85.85,0,0,0-1,.11c.27.48.25.57-.12.68a1.38,1.38,0,0,1-.81,0c-.2-.05-.39-.08-.59-.14a1.08,1.08,0,0,0-1,0,1,1,0,0,1-1,0c-.17-.09-.35-.15-.51-.24-.48-.28-.95-.58-1.44-.85a5.82,5.82,0,0,0-.85-.38,3.35,3.35,0,0,0-1.89-.21,3.11,3.11,0,0,1-.33,0,2.48,2.48,0,0,1-1.41-.23,3.41,3.41,0,0,0-1.91-.31,1.64,1.64,0,0,1-.91-.13,3.1,3.1,0,0,0-1.41-.19c-.27,0-.54,0-.82,0A2.4,2.4,0,0,1,590,221c-.22-.06-.38-.32-.29-.46a.42.42,0,0,1,.21-.18c.24-.11.49-.19.73-.3s.2-.34-.11-.52a2.83,2.83,0,0,0-1.06-.38,8.8,8.8,0,0,0-1.33-.13,2.37,2.37,0,0,1-1.38-.43l-.33-.2a.91.91,0,0,0-1.08,0,2,2,0,0,0-.43.38.85.85,0,0,1-.93.24,3.13,3.13,0,0,0-.84-.11,11.48,11.48,0,0,0-2.44.24.42.42,0,0,0,0,.13c0,.06.11.11.15.17a.49.49,0,0,1,.11.23c0,.32-.37.5-.73.32a.77.77,0,0,0-.67-.07,1.64,1.64,0,0,0-.67.41,3.18,3.18,0,0,1-1.12.84.58.58,0,0,1-.54,0,.75.75,0,0,0-.2-.1c-.15,0-.29,0-.31.13a2.3,2.3,0,0,0,1.09,1.2c.75.61,1,1.71-.06,2.08-.3.11-.42.07-.72-.28l.5-.86-1.26-1.62a7.71,7.71,0,0,0-.67-.84c-.7-.72-.86-.75-1.67-.28a.26.26,0,0,0-.09.09.38.38,0,0,0-.06.51c.12.2.23.4.36.63l.45.21c.16.07.32.13.48.21.46.24.53.41.27.76a.78.78,0,0,1-.25.18,4.86,4.86,0,0,0-.91-.46c-.81-.2-1.61-.46-2.41-.72a1.12,1.12,0,0,0-.54-.07,1.9,1.9,0,0,1,.18.42c0,.22-.12.33-.38.27a1.6,1.6,0,0,0-.42-.07c-.46.06-.91.16-1.37.22a.92.92,0,0,1-.75-.18.61.61,0,0,0-.72-.1,10.13,10.13,0,0,0-1.33.63,4.26,4.26,0,0,1-.7.28.76.76,0,0,1-.56-.11.4.4,0,0,1-.27-.36,1.71,1.71,0,0,0-.11-.27l-.54,0c-.09.26.11.45.18.65a.34.34,0,0,1-.23.46c-.11,0-.23,0-.35.07a2.64,2.64,0,0,0-1,.32c.11.69-.14.74-.83.78,0,.12,0,.27-.07.35a.91.91,0,0,1-1,.15,2.72,2.72,0,0,1-1.27-1.09,1.34,1.34,0,0,0-.75-.69.32.32,0,0,1-.13-.07.49.49,0,0,1-.08-.24.27.27,0,0,1,.15-.18.68.68,0,0,1,.29,0,3.74,3.74,0,0,1,1.61.35,1.38,1.38,0,0,0,1.82-.38,2.18,2.18,0,0,0-.93-.51c-.58-.24-1.17-.45-1.76-.68a.63.63,0,0,0-.55,0,.65.65,0,0,1-.83-.14,4.37,4.37,0,0,0-.88-.59,9.59,9.59,0,0,0-1.21-.42,1.27,1.27,0,0,0-.28,0h-1.07a3.47,3.47,0,0,0-1.8.32,4.26,4.26,0,0,1-1.36.54,2.66,2.66,0,0,0-.53.21.94.94,0,0,0-.55.48,1.06,1.06,0,0,1-.63.61.39.39,0,0,0-.19.19c-.18.28-.34.58-.51.86s-.24.32-.36.48c-.29.37-.78.53-1.12.85a2.46,2.46,0,0,1-1.41.67,1.13,1.13,0,0,0-1,1.38,1,1,0,0,1,.06.38,1.12,1.12,0,0,0,.61,1.16.86.86,0,0,0,1.08.05c.27-.15.52-.32.79-.48a1.73,1.73,0,0,1,.74.9c.11.33.22.66.34,1a.86.86,0,0,0,.65.62c.77-.32,1.33-.75,1.38-1.51,0,0,0-.08.05-.13a.85.85,0,0,1,.42-.57c.29-.19.61-.38.7-.73-.22-.17-.43-.31-.62-.48a1.14,1.14,0,0,1,.43-2,2.57,2.57,0,0,0,1.28-1c.13-.18.25-.36.4-.53a.64.64,0,0,1,.78-.16.5.5,0,0,1,.31.6,1.76,1.76,0,0,1-.49,1,4.19,4.19,0,0,0-.59.81c-.31.62-.12,1,.57,1.32a1.89,1.89,0,0,0,1.62.14,2.57,2.57,0,0,1,1.73.14.19.19,0,0,1,.08.33,5.15,5.15,0,0,1-.45.32,1,1,0,0,1-1,.06,1.47,1.47,0,0,0-1-.07c-.15,0-.26.17-.43.28l.48.63c.2.27.2.39-.05.63a1.28,1.28,0,0,1-.28.15c-.36-.1-.57-.46-1-.28a.84.84,0,0,0-.11,1,.46.46,0,0,1-.16.64c-.36.26-.73.5-1.12.77a1.21,1.21,0,0,0-1.46-.15c-.32.13-.65.23-1,.35a1.63,1.63,0,0,0-1.58-.21.36.36,0,0,1-.15,0,.49.49,0,0,1-.51-.2,2.08,2.08,0,0,1-.14-.32.64.64,0,0,1,.67-.29.48.48,0,0,0,.47-.55.31.31,0,0,0-.34-.19,1.62,1.62,0,0,0-.28.11,2.09,2.09,0,0,1-.75.21c-.16-.19-.08-.35,0-.49a.55.55,0,0,0,.08-.66c-.62.09-.71.55-1,.84,0,.24.19.41.17.64a1.65,1.65,0,0,0,.22.59c-.05.1-.1.2-.16.3a.76.76,0,0,1-.75.36h-.08a1.62,1.62,0,0,0-1.15.53,10.32,10.32,0,0,1-1.36,1.17.54.54,0,0,1-.28.11.63.63,0,0,0-.52.35,3.4,3.4,0,0,1-.92.89.69.69,0,0,1-.7.17.53.53,0,0,0-.44.09c-.14.1-.28.2-.43.29a.67.67,0,0,1-.72.08l-.14-.05a.39.39,0,0,0-.46.15.21.21,0,0,0,.11.33,4,4,0,0,0,.59.29c.42.15.72.37.75.8,0,.12.12.23.14.36a1,1,0,0,1,0,.45c-.12.44-.28.88-.42,1.32a.49.49,0,0,1-.45.33,1.61,1.61,0,0,1-.31,0,14.34,14.34,0,0,1-2.18-.14,4,4,0,0,0-.78-.06c-.63,0-1,.32-.94.82a3.26,3.26,0,0,1-.26,1.71,2.8,2.8,0,0,0-.23,1.41,1.43,1.43,0,0,1,0,.84,1.44,1.44,0,0,0,.44.15,1.7,1.7,0,0,1,1.56.7s.12.06.21.11c.13-.18.26-.34.37-.48l.11,0c.32,0,.63,0,1,0a1.33,1.33,0,0,0,.88-.26,2.51,2.51,0,0,0,1.13-1.53,2,2,0,0,1,1-1.45,2.71,2.71,0,0,0,.79-.5c.12-.16.43-.22.63-.31,0-.09,0-.13,0-.17a.51.51,0,0,1,.12-.61,1.1,1.1,0,0,1,.86-.25,1.64,1.64,0,0,1,.45.1.69.69,0,0,0,.72-.11.92.92,0,0,1,.54-.23.81.81,0,0,0,.31-.18c.14-.1.26-.23.4-.32a.57.57,0,0,1,.7,0,.84.84,0,0,1,.41.54,1.94,1.94,0,0,0,.76,1c.31.25.57.55.89.86a5.71,5.71,0,0,1,.6.19,2.8,2.8,0,0,1,.6.3c.54.39,1,.82.67,1.46,0,.08,0,.19,0,.28h.13a.34.34,0,0,0,.12-.09.9.9,0,0,0,.18-1c-.08-.24.1-.38.39-.36s.34.12.57,0a1,1,0,0,0-.22-.23c-.26-.14-.54-.27-.81-.4a4.7,4.7,0,0,1-1.78-1.43,2.3,2.3,0,0,0-.53-.55,1.58,1.58,0,0,1-.46-.58.58.58,0,0,1,.24-.91l.45,0a2.41,2.41,0,0,0,.25.35,1.19,1.19,0,0,0,.43.35,1.89,1.89,0,0,1,1.26,1l1.51.54c.17.28.32.51.44.74s.18.31.13.43c-.12.31,0,.59.07.89a.79.79,0,0,0,.51.62,1.92,1.92,0,0,0,1,.28.27.27,0,0,1,.31.16c0,.16-.09.24-.23.29s-.29.08-.46.13a1.44,1.44,0,0,0,.68,1.06c.07,0,.24,0,.37,0a2,2,0,0,1,.12-.59,1,1,0,0,0-.13-1.12c-.09-.13-.19-.26-.28-.4-.25-.42,0-.76.54-.83a2.8,2.8,0,0,1,.29,0c.05-.05.1-.07.12-.11a.63.63,0,0,1,.86-.2,3.13,3.13,0,0,0,1.52,0c.1,0,.19-.12.31-.21l-.41-.43a.61.61,0,0,1-.17-.55,8.79,8.79,0,0,1,.48-1.42,8.65,8.65,0,0,1,1.53-1.81c.19-.2.65-.16.72.07s.44.42.62.67l-.16.22-.13.28.93.35c.21-.2.6-.2.77-.47-.26-.23-.66-.33-.73-.66.05,0,.08-.09.12-.09a2.85,2.85,0,0,0,1.19-.52,2.14,2.14,0,0,1,.7-.24.34.34,0,0,1,.42.29.87.87,0,0,1-.07.31,5.91,5.91,0,0,0-.31,1.22,3.7,3.7,0,0,0,1.19.81,4.52,4.52,0,0,1,1.5,1.18.51.51,0,0,1,.1.66l-.43.66c-.23,0-.44,0-.65.06a3,3,0,0,1-1.67-.3,7.93,7.93,0,0,0-.83-.4,2.76,2.76,0,0,0-2.59.15l-.25.15-1.17,0c-.06.44-.48.63-.87.87a1.1,1.1,0,0,0-1-.05c0,.26,0,.27.13.33.5.2.71.51.57.95a.34.34,0,0,0,0,.2,1.13,1.13,0,0,0,.66.83,3.15,3.15,0,0,0,.56.24,2.53,2.53,0,0,1,.55.27c.29-.23.54-.55,1.08-.39a5.58,5.58,0,0,1,.56.32.93.93,0,0,0,1.08,0,5.59,5.59,0,0,1,.6-.3.78.78,0,0,1,.8.14c.24.19.29.3.1.57a1.05,1.05,0,0,0-.16.8c.05.26.12.51-.13.73-.06,0-.06.16,0,.24s.1.28,0,.42a.39.39,0,0,0-.09.24c0,.33-.06.67-.09,1a1.32,1.32,0,0,1-1.16.36,2.41,2.41,0,0,1-.72-.08,1.91,1.91,0,0,0-1.23,0l-.55.18a1.67,1.67,0,0,0-.9-.13.38.38,0,0,1-.29-.07,1.48,1.48,0,0,0-.65-.22c-.36-.1-.71-.2-1-.33-.7-.27-1.39-.56-2.09-.84s-1-.07-1.23.44a.55.55,0,0,0,0,.31,3.07,3.07,0,0,0,.17.42c-.34.29-.45.67-.86.9-.21-.11-.41-.21-.61-.33a2,2,0,0,0-1-.3.53.53,0,0,1-.62-.39,1.31,1.31,0,0,0-1-.86c-.49-.14-1-.29-1.49-.41a.74.74,0,0,1-.45-.22,2.2,2.2,0,0,0-.3-.31.76.76,0,0,1-.24-1,.62.62,0,0,0,.06-.5,3.47,3.47,0,0,1-.11-.63.63.63,0,0,0-.53-.59,12.5,12.5,0,0,1-1.34.37,7.81,7.81,0,0,1-2.46,0,1.2,1.2,0,0,0-.46,0,7.66,7.66,0,0,0-2.26.83,2.88,2.88,0,0,1-2.48.37c-.22-.07-.41-.19-.62-.27s-.29-.05-.43-.08a1.79,1.79,0,0,0-.16.19,3.91,3.91,0,0,1-1.64,1.52,1.92,1.92,0,0,0-.38.25,1.6,1.6,0,0,0-.4.48,6.62,6.62,0,0,0-.45,1.39,1.37,1.37,0,0,1-.48.89,5,5,0,0,1-1.29,1,8.11,8.11,0,0,0-2.27,2.79,3,3,0,0,1-.63.91,1.81,1.81,0,0,0-.39.57c-.15.35-.24.71-.4,1.06a.58.58,0,0,0,0,.62,2.82,2.82,0,0,1,.35,1.12,5.66,5.66,0,0,1-.09,1.42,2,2,0,0,1-.68,1.43.33.33,0,0,0-.07.47l.46.86c-.15.25-.27.47-.38.66l.4.66c0,.05.08.13.14.14.49.1.63.44.87.72a6.9,6.9,0,0,0,.6.61,1.77,1.77,0,0,1,.58.77c0,.17.09.34.13.51a2.25,2.25,0,0,0,.79,1.27c.5.42,1,.85,1.54,1.26a2.34,2.34,0,0,0,.47.25,2.94,2.94,0,0,0,1.83.08l1.09-.25a2.32,2.32,0,0,1,1.28,0,2.16,2.16,0,0,0,1.56-.14c.59-.26,1.2-.49,1.8-.74a2.44,2.44,0,0,1,2.67.33.45.45,0,0,0,.07.07c.11.31.06.67.37,1,.24,0,.47-.08.71-.1,1.19-.08,2,.47,2.06,1.42a2.32,2.32,0,0,1-.19,1.34c-.14.28-.21.58-.32.86a1.56,1.56,0,0,0,.56,1.86,7.34,7.34,0,0,1,1.25,1.44,2.15,2.15,0,0,1,.4,1,2.7,2.7,0,0,0,.53,1.35,1.19,1.19,0,0,1,.24,1.06,1.68,1.68,0,0,0,.11,1.08c.08.21.16.41.22.62a1.27,1.27,0,0,1-.16,1.13c-.18.27-.31.55-.46.83a9.41,9.41,0,0,0-.52,1.55,2.54,2.54,0,0,0-.14,1.15,3.07,3.07,0,0,0,.73,2,2.73,2.73,0,0,1,.58,1.12c.17.55.39,1.08.58,1.62.09.25.15.5.23.75a6.88,6.88,0,0,1,.19,1.74,2.92,2.92,0,0,0,.64,2,4.05,4.05,0,0,1,.67,1.08,3.41,3.41,0,0,0,.52.93,1.16,1.16,0,0,1,.28,1.21,1.16,1.16,0,0,0,0,.64,1,1,0,0,0,.9.76,1.26,1.26,0,0,0,.86-.16,3,3,0,0,1,1.83-.24,1.35,1.35,0,0,0,1-.19c.55-.35,1.11-.69,1.65-1.07a3.69,3.69,0,0,0,.94-.95c.23-.34.5-.66.76-1a4.5,4.5,0,0,0,.39-.5,2.93,2.93,0,0,1,1.08-1.2c-.06-.31-.11-.6-.17-.89a1.21,1.21,0,0,1,.23-.94,1.69,1.69,0,0,1,.64-.57c.25-.13.5-.24.74-.38a1.06,1.06,0,0,0,.55-1.57c-.12-.2-.25-.41-.39-.61a.84.84,0,0,1,.16-1.19l.72-.71a1.89,1.89,0,0,0,.75-1.28l.68-.24a4,4,0,0,0,1.54-.93,1.85,1.85,0,0,0,.6-1.81,6.22,6.22,0,0,1-.15-.75,1.11,1.11,0,0,1,.13-.88c.28-.35.18-.64-.14-.92a1.38,1.38,0,0,1-.47-.85c-.07-.4-.15-.8-.2-1.2a4.76,4.76,0,0,1,1.19-3.86c.69-.81,1.29-1.65,1.94-2.48a5,5,0,0,1,1.92-1.55,1.92,1.92,0,0,0,1.1-1.06,5,5,0,0,1,.46-1,14.51,14.51,0,0,0,1.22-2.16,4.34,4.34,0,0,1,.28-.46,6.49,6.49,0,0,0,.44-.76,1.11,1.11,0,0,0,.13-.61,8.14,8.14,0,0,0-.3-1c-.18.09-.32.14-.44.21a2,2,0,0,1-.8.3c-.87.16-1.74.33-2.61.48s-1.32-.11-1.37-.71a2.41,2.41,0,0,0-1.08-1.6c-.25-.2-.47-.41-.69-.62s-.54-.54-.85-.79a1.1,1.1,0,0,1-.47-.65,4.11,4.11,0,0,0-1.11-2,2,2,0,0,1-.56-1.32,1.89,1.89,0,0,0-.27-.94l-1.19-2a16.13,16.13,0,0,0-1.36-2.28.76.76,0,0,1-.09-.18,2,2,0,0,0-.78-1.25.31.31,0,0,1,.06-.47.45.45,0,0,1,.47.19c.2.22.39.47.6.69a1.08,1.08,0,0,0,.28.16c.17-.15.06-.28.06-.4a.19.19,0,0,1,.18-.24.29.29,0,0,1,.32.16,2.42,2.42,0,0,1,.24.61,3.2,3.2,0,0,0,.59,1.27,11.71,11.71,0,0,0,.82,1,7.42,7.42,0,0,1,1.63,2.66,5,5,0,0,0,.62,1.18c.33.49.73,1,1.09,1.44a9.14,9.14,0,0,0,.6.83,1.35,1.35,0,0,1,.4,1,3.88,3.88,0,0,0,.72,2.21.68.68,0,0,0,.94.23c.54-.24,1.11-.44,1.65-.68s.77-.39,1.16-.58a9.17,9.17,0,0,1,.9-.41c.19-.08.4-.12.6-.2s.56-.28.6-.56.38-.54.8-.6a2.8,2.8,0,0,0,2.2-1.6c.2-.38.42-.76.63-1.15a2.41,2.41,0,0,1,.77-.86,4.88,4.88,0,0,0,.43-.38,1.85,1.85,0,0,0-.24-.34A8.45,8.45,0,0,0,581,256a9.67,9.67,0,0,1-1.39-.88c0-.29-.05-.57-.11-.84s-.16-.31-.45-.36a2.15,2.15,0,0,1-.21.4,4.83,4.83,0,0,1-.4.38,1,1,0,0,0-.13.16,1.45,1.45,0,0,1-.95.63l-1.19-.6c0-.09.06-.17.08-.24s.06-.18,0-.25a.45.45,0,0,0-.24-.23s-.19,0-.26.08-.11.15-.17.21a.38.38,0,0,1-.63,0,1.12,1.12,0,0,1-.16-.43,2.82,2.82,0,0,0-.77-1.61c-.14-.15-.25-.33-.38-.5a.91.91,0,0,1-.11-.92.69.69,0,0,1,1-.3,1.17,1.17,0,0,1,.55.47l.35.72a1.58,1.58,0,0,0,1,.88,4.63,4.63,0,0,1,1,.46,1.13,1.13,0,0,0,.91.15l.54-.11c.5-.13.5-.13.87.2a1.53,1.53,0,0,1,.37.34,1.57,1.57,0,0,0,1.39.67c1,.07,2.05.12,3.07.18a1.47,1.47,0,0,0,.69-.1,1.55,1.55,0,0,1,1.88.55,1.46,1.46,0,0,0,.51.57,2.46,2.46,0,0,1,.48.43.83.83,0,0,0,.67.3,1,1,0,0,1,.27.07c.14.34-.37.39-.4.67.16.42.66.58,1.12.74a.49.49,0,0,0,.68-.35c0-.13,0-.26,0-.37a.3.3,0,0,1,.22-.15.37.37,0,0,1,.28.07.69.69,0,0,1,.21.34c0,.31,0,.62,0,.93a3.89,3.89,0,0,0,0,.68,5.61,5.61,0,0,0,.59,1.63c.41.75.77,1.52,1.14,2.28a1.33,1.33,0,0,1,.11.3,5.5,5.5,0,0,0,.58,1.29,8.6,8.6,0,0,1,.54,1.1,4.88,4.88,0,0,1,.31,1,.91.91,0,0,0,.69.63.53.53,0,0,0,.52-.07,1.88,1.88,0,0,0,.24-.25,4.42,4.42,0,0,0,.81-1.75c.09-.42.13-.85.22-1.28a1.45,1.45,0,0,0-.15-1.09c-.19-.3-.08-.56.19-.79s.62-.57,1-.82a1.38,1.38,0,0,0,.51-.6,1,1,0,0,1,.61-.62,1,1,0,0,0,.6-.53.84.84,0,0,1,.51-.52A1.07,1.07,0,0,0,601,258c.07-.37.36-.58.84-.61a3.54,3.54,0,0,0,1.19-.31,2,2,0,0,1,.43-.14.79.79,0,0,1,.78.25,2,2,0,0,1,.24.39,2.13,2.13,0,0,0,1.22,1.19,1,1,0,0,1,.54.52c.19.39.42.76.64,1.13a.83.83,0,0,1,0,.94c-.14.21-.06.35.16.47a.64.64,0,0,0,.6,0,1.91,1.91,0,0,0,.62-.53.41.41,0,0,1,.65,0,1.93,1.93,0,0,1,.19.34c.1.27.19.55.3.82a9.51,9.51,0,0,0,.62,1.43,1.24,1.24,0,0,1,.23.87,2.58,2.58,0,0,1-.22.7c-.07.17-.18.34-.07.52a.74.74,0,0,1,0,.76.4.4,0,0,0,.18.55c.07.05.14.12.22.17a3.52,3.52,0,0,1,1.09,1.3,6.35,6.35,0,0,1,.62,1.84,2,2,0,0,0,1.38,1.48,1.94,1.94,0,0,0,.43.06c0-.06.09-.1.09-.13a1,1,0,0,0,0-.24,5.25,5.25,0,0,0-1.57-3,5.48,5.48,0,0,1-1.47-1.88,1.86,1.86,0,0,1-.23-1c0-.28.1-.56.16-.84a1.27,1.27,0,0,0,0-.77.75.75,0,0,1,0-.47.39.39,0,0,1,.61-.17,5.76,5.76,0,0,1,.72.56c.18.16.29.36.5.47a3.12,3.12,0,0,1,1.11,1,.52.52,0,0,0,.13.06h.74c0,.31,0,.58,0,.85a.35.35,0,0,0,.33.36c.19,0,.25-.13.32-.24a2.41,2.41,0,0,1,.29-.36,2.68,2.68,0,0,1,.62-.54,1.74,1.74,0,0,0,.86-1,3.35,3.35,0,0,0,.13-1.47,2.4,2.4,0,0,0-.75-1.49,16.49,16.49,0,0,0-1.5-1.37c-1.1-.91-.71-2.34.78-2.74a1.12,1.12,0,0,1,1.12.31c.09.1.14.22.25.37.13-.12.25-.19.3-.29a1.17,1.17,0,0,1,1-.53,7.39,7.39,0,0,0,2.82-.92A1.86,1.86,0,0,0,622,256a4.79,4.79,0,0,0,.62-1.21c.2-.64.41-1.28.61-1.91.14-.42,0-.58-.57-.79-.17-.06-.4-.06-.43-.26a.87.87,0,0,1,.14-.12c.39-.26.39-.37,0-.63a1.08,1.08,0,0,0-.28-.15,1.87,1.87,0,0,1-1.22-1l-.16-.28a1.52,1.52,0,0,0-.82-.77c-.15-.06-.34-.23-.35-.33,0-.45-.06-.91.54-1.13a1.59,1.59,0,0,0,.29-.15c.12-.07.19-.16,0-.33a3.56,3.56,0,0,1-.58-.19.82.82,0,0,0-.91.07s-.09,0-.16,0-.32-.17-.5-.23a4.5,4.5,0,0,1-1.32-.81c-.22-.17-.22-.33,0-.46a.48.48,0,0,1,.17-.1,1,1,0,0,0,.72-.61,1.38,1.38,0,0,1,.32-.41.44.44,0,0,1,.55,0,1.57,1.57,0,0,1,.25.27c.1.17.18.34.26.51s.14.4.46.5.34-.24.51-.35a.59.59,0,0,1,.37-.13,1.26,1.26,0,0,1,1.24.94c0,.36.08.43.54.51a1.83,1.83,0,0,1,.78.37,2.17,2.17,0,0,1,.61.68c.19.32.39.63.59.95a.78.78,0,0,0,.22.26.72.72,0,0,0,.43.15,3,3,0,0,0,1.11-.37.35.35,0,0,0,.14-.41,2.11,2.11,0,0,0-.91-1,7.92,7.92,0,0,0-.9-.5,8,8,0,0,1-1.29-.86c-.37-.28-.35-.49,0-.67a1,1,0,0,0,.18-.07c.29-.17.31-.35,0-.65-.09-.1-.2-.19-.31-.3.35-.31.32-.76.62-1.07l.32.12c.53.26.71.27,1,0a1.52,1.52,0,0,0,.3-.46c.06-.13.06-.28.12-.41a2.37,2.37,0,0,0-.17-2c-.14-.38-.33-.77-.49-1.15a1.85,1.85,0,0,0-.6-.77,2.66,2.66,0,0,1-.53-.53,8.1,8.1,0,0,0-2.93-2.28.79.79,0,0,0-.22,0,1,1,0,0,1-1.16.08c-.48-.2-.95-.42-1.41-.65a.37.37,0,0,1-.15-.26.32.32,0,0,1,.14-.22.52.52,0,0,0,.13-.5c0-.15-.07-.31-.1-.46a1.18,1.18,0,0,1,.27-1.09,1.42,1.42,0,0,1,1.36-.26,4.65,4.65,0,0,0,1.94.1,1.32,1.32,0,0,1,1,.23,1.44,1.44,0,0,0,.82.24c.28,0,.41-.15.34-.37s-.18-.46-.23-.69c-.11-.45.13-.6.75-.44a4.38,4.38,0,0,1,1.44.54c.28.19.5.12.43-.11s-.1-.23-.14-.34,0-.23.08-.27a.69.69,0,0,1,.5.1,1.28,1.28,0,0,1,.62.62,3.68,3.68,0,0,1,.17.77,5.75,5.75,0,0,1,0,.83,1.74,1.74,0,0,0,.38,1,5.77,5.77,0,0,0,.51.62c.35.35.77.69,1.07,1.06a2.59,2.59,0,0,0,.87.64,7.19,7.19,0,0,1,1.83,1.18,2.63,2.63,0,0,0,.37.29.65.65,0,0,0,.45.13c.17,0,.28-.09.27-.22a.63.63,0,0,0-.1-.28,7.4,7.4,0,0,0-.42-.61c-.2-.26-.31-.49-.22-.7a.68.68,0,0,0-.18-.64l-.46-.62a2.26,2.26,0,0,0-1-.73,6.65,6.65,0,0,1-1.41-.84c-.44-.33-.62-.59-.39-.85l.1-.08a1.83,1.83,0,0,0,1-.19c.46-.16.45-.33,1.41.24l.12,0a.46.46,0,0,0,.31-.42c0-.48.41-.62,1.08-.56l.45.08a.8.8,0,0,0,.21,0,2,2,0,0,0-.88-.51c-.76-.25-1.48-.65-2.23-.95l-.15-.08c-.14-.08-.2-.22-.14-.3s.18-.09.33-.06.42.2.57.12l-.4-.47a1.17,1.17,0,0,1,.73.07,5.63,5.63,0,0,0,.93.31,5.34,5.34,0,0,1,1.06.37c.39.16.78.3,1.16.42.22.06.39.05.4-.1a8.33,8.33,0,0,0-2-1.23Q632.39,229.54,632,229.61Zm-56.49,16.32-.42.18a6.64,6.64,0,0,1-2-1c-.39-.29-.67-.64-.45-1.09a.94.94,0,0,0,.07-.37,2.33,2.33,0,0,0-.92-2.07c-.08-.08-.19-.16-.28-.24a.84.84,0,0,1-.22-.19,4.9,4.9,0,0,0-.32-.65c-.16-.19-.45-.32-.61-.52a.45.45,0,0,1,0-.65c.52-.47,1-.93,1.58-1.38a1.14,1.14,0,0,1,.23-.15,1.05,1.05,0,0,1,1.15.1,3.48,3.48,0,0,1,1.09,1.28c-.2.24-.41.16-.61.14-.44,0-.57,0-.61.37s0,.59,0,.88l1.44,1,.37-.11a1.43,1.43,0,0,1,.79,1c0,.32,0,.38-.47.41l-.24,0c0,.24.17.41.34.56a1.28,1.28,0,0,1,.48,1.07,1.91,1.91,0,0,0,0,.63A.59.59,0,0,1,575.55,245.93Z" fill="#f2cd64"/>
              <path d="M514.59,278l-.39-.1a1.94,1.94,0,0,1-1.39-.86,1.89,1.89,0,0,0-1.69-.89,7.22,7.22,0,0,1-1.12-.17,1.23,1.23,0,0,0-1.05.16,2,2,0,0,1-.39.17.47.47,0,0,1-.23-.56c.09-.27-.07-.45-.33-.61l-.47-.27a1,1,0,0,0-1.29,0c-.2.14-.39.29-.6.41a1,1,0,0,1-.7.06,1.43,1.43,0,0,1-.27-.16L505,275a1.41,1.41,0,0,0,.59-.65c.14-.27-.11-.52-.5-.51a1.13,1.13,0,0,0-.85.4,2.63,2.63,0,0,0-.3.44,1,1,0,0,1-.65.42.37.37,0,0,1-.31-.65l.32-.27a3.08,3.08,0,0,0,1.06-1.34,3,3,0,0,1-.31-.48,7.73,7.73,0,0,1-.37-1.12,1,1,0,0,0-.44-.6,4.38,4.38,0,0,1-.9-.75,1,1,0,0,0-.77-.33c-.33,0-.65,0-1,0a2.42,2.42,0,0,1-.72-.07,3.05,3.05,0,0,1-1.89-1.35,3.3,3.3,0,0,0-1.47-1.25,15.06,15.06,0,0,0-1.74-.71,1.35,1.35,0,0,0-.63-.06,1.93,1.93,0,0,1-.64,0,10,10,0,0,0-1.64-.39c-.22,0-.42-.13-.47-.32s-.37-.34-.62-.46a.45.45,0,0,0-.45.06,2.08,2.08,0,0,1-.51.39c-.49.2-.48.29-.12.67,0,0,0,.08.07.12s-.1.19-.16.28-.13.46-.49.41-.28-.32-.38-.51a.23.23,0,0,1,0-.18c.15-.48,0-1,.5-1.43a.17.17,0,0,0-.05-.21.42.42,0,0,0-.29,0,2.8,2.8,0,0,0-.49.41.92.92,0,0,1-.56.34,1.64,1.64,0,0,0-1.44,1,2.16,2.16,0,0,1-1.23,1.11c-.16-.12-.32-.26-.51-.38a1.77,1.77,0,0,0-2.06-.11l-.4.2c-.19-.09-.37-.15-.52-.23-.74-.45-1.29-1-1.21-1.74.06-.55.16-1.1.25-1.65a3,3,0,0,0,.08-1.22.55.55,0,0,0-.48-.45,1.51,1.51,0,0,0-.56,0,7.42,7.42,0,0,1-1.63,0c-.36,0-.48-.13-.44-.4a5.19,5.19,0,0,1,1.12-2.58,5.06,5.06,0,0,0,.47-.67,1.32,1.32,0,0,0,.15-.42.21.21,0,0,0-.21-.22,4.33,4.33,0,0,0-1.19,0,1.38,1.38,0,0,0-1.17.9c0,.1-.1.2-.14.3a1.84,1.84,0,0,1-1.22,1,11.91,11.91,0,0,1-1.34.33,1,1,0,0,1-.55,0,3.23,3.23,0,0,1-.76-.41,1.89,1.89,0,0,1-.69-1.19,5.2,5.2,0,0,1,.47-3.19,8.35,8.35,0,0,0,.74-1.72,1.65,1.65,0,0,1,1.11-1.09,13.38,13.38,0,0,0,2.06-1.07,1.37,1.37,0,0,1,.77-.21,1.91,1.91,0,0,1,1,.21,1.53,1.53,0,0,0,.39.17c.71.25.71.25,1.23-.32l.09-.11a1.31,1.31,0,0,1,1.69-.27,2.12,2.12,0,0,0,1.37.29.76.76,0,0,1,.9.57,2.39,2.39,0,0,1-.05.92,2.25,2.25,0,0,0,.44,1.75c.06.09.22.14.33.21a1,1,0,0,0,.56-.81,5.29,5.29,0,0,0,0-1.05,10.08,10.08,0,0,1-.08-1.65,1.77,1.77,0,0,1,.75-1.33c.34-.27.67-.55,1-.82a2.56,2.56,0,0,1,.51-.35c.65-.3,1.19-.7,1.8-1a4.68,4.68,0,0,0,1.66-1.52,1.13,1.13,0,0,1,.39-1.4l.45.11a.86.86,0,0,0,.11-.21,1.28,1.28,0,0,1,1-.92,1.84,1.84,0,0,0,1-.63,1.85,1.85,0,0,1,1.14-.66c.4-.08.79-.23,1.18-.33.6-.16,1-.46,1.05-.95,0-.33.26-.5.63-.65l3.47-1.39a1.4,1.4,0,0,1,.77-.1.16.16,0,0,1,.13.12.19.19,0,0,1-.1.16,4.67,4.67,0,0,1-.51.23,2.17,2.17,0,0,0-.81.5c-.11.11-.22.24-.09.34a.58.58,0,0,0,.35,0,3.15,3.15,0,0,0,.59-.27,5.6,5.6,0,0,1,1.26-.53,11.08,11.08,0,0,0,1.32-.59c.1,0,.16-.16.24-.25a.86.86,0,0,0-.72.06,1,1,0,0,1-.81,0,3,3,0,0,0-.31-.15.51.51,0,0,1-.3-.73,1.35,1.35,0,0,1,.43-.64c.14-.12.29-.22.47-.36a1.3,1.3,0,0,0-.25-.35.53.53,0,0,0-.34-.05A4,4,0,0,0,501,237a4.23,4.23,0,0,1-.62.37.31.31,0,0,1-.44-.08c-.12-.19-.06-.41.19-.57a2.58,2.58,0,0,1,.59-.26,6,6,0,0,0,1.63-.7,2.3,2.3,0,0,1,1.21-.35l1.69,0a6.09,6.09,0,0,0,2.39-.55c.59-.25,1.15-.56,1.73-.85a2.27,2.27,0,0,0,.77-.63.38.38,0,0,0,.07-.48.89.89,0,0,0-1.1-.21l-.58.27c-.14.06-.27.06-.32,0a.24.24,0,0,1,0-.23c.2-.22.41-.43.63-.66-.08-.21-.16-.41-.22-.62a.93.93,0,0,1,.16-1,.43.43,0,0,0,.08-.37,1.62,1.62,0,0,1,0-1,.89.89,0,0,0,0-.43c0-.12-.2-.16-.35-.11a1.92,1.92,0,0,0-.35.18c-.25.19-.49.39-.73.6a2.48,2.48,0,0,1-.8.51.47.47,0,0,1-.57-.11.64.64,0,0,1,0-.87.75.75,0,0,0-.08-1.07,2.51,2.51,0,0,0-1.85-.68.94.94,0,0,0-.77.3,11.91,11.91,0,0,0-.84.91,4.42,4.42,0,0,1-1.13,1.06c-.42.27-.64.6-.47,1s0,.57-.33.82a6.47,6.47,0,0,1-1.46,1,9.78,9.78,0,0,0-1.15.62,1.35,1.35,0,0,0-.68.7,4.23,4.23,0,0,1-1.15,1.52c-.36.38-.85.32-.93,0a1.32,1.32,0,0,1,.3-1.27,3.14,3.14,0,0,0,.42-.73c.08-.16,0-.28-.16-.34a.77.77,0,0,0-.26-.07,2.31,2.31,0,0,1-1.51-.66,1.22,1.22,0,0,0-1.06-.38c-.33,0-.46-.14-.47-.37a1.18,1.18,0,0,1,0-.37.37.37,0,0,0-.19-.43c-.23-.16-.21-.27,0-.52s.42-.41.59-.63a2.93,2.93,0,0,1,1.25-.86,8,8,0,0,0,.9-.41,8.27,8.27,0,0,1,1.41-.67c.36-.12.6-.29.65-.64a.37.37,0,0,1,.54-.3,1.17,1.17,0,0,0,1-.05c.3-.11.61-.19.91-.3.14-.05.28-.13.47-.22,0-.15-.1-.26-.14-.38a.36.36,0,0,1,.14-.46.38.38,0,0,1,.46,0c.24.19.54.12.87-.1a2.64,2.64,0,0,1,1-.36,6.16,6.16,0,0,1,1-.07,1.72,1.72,0,0,0,1.08-.4l1.17-1c.21-.18.19-.45,0-.51a1.67,1.67,0,0,0-1.54.29,3.73,3.73,0,0,0-.47.41,5.15,5.15,0,0,1-1.28.84c-.15.08-.3,0-.26-.14a4.4,4.4,0,0,1,.21-.5c.05-.11.14-.21.19-.32s0-.24-.17-.24l-.21,0c-.28.05-.36-.07-.31-.3a1.35,1.35,0,0,1,.37-.68c.14-.15.12-.29,0-.38a.37.37,0,0,0-.45,0l-1.09.55a3.93,3.93,0,0,0-.4.28,1.16,1.16,0,0,1,.29.22c.15.26,0,.55-.42.74a2.49,2.49,0,0,1-.6.2,1.92,1.92,0,0,0-.8.33l-.86.52h-.12a.18.18,0,0,1-.09-.06c-.24-.31-.63-.34-1.16-.19a1.93,1.93,0,0,1-1.17,0,5.54,5.54,0,0,0-.57-.21,1.07,1.07,0,0,0-.59,0,3.25,3.25,0,0,0-1.93,1.1,1.22,1.22,0,0,1-.17.09c-.3-.15-.09-.67-.59-.69-1,.36-1.53.38-1.86.09l.31-.39-1.83-.34a2.47,2.47,0,0,0-1.33.08.66.66,0,0,1-.63,0l-.41-.3-.83.36c-.16-.28-.51-.2-.93,0l-.62.26a10.09,10.09,0,0,1-2.07.58,5.09,5.09,0,0,1-1.25-.08,6.72,6.72,0,0,1-1.32-.24,3.93,3.93,0,0,0-.94-.1c-.71,0-1.5.07-2.15,0a10.35,10.35,0,0,0-3.55.38,14.3,14.3,0,0,0-2.74.89,4.92,4.92,0,0,1-1.19.43c-.61.1-1.25.4-1.83.55-.48.46.09.42.08.67l-.51.34a1.82,1.82,0,0,1-1.52.39,1.55,1.55,0,0,0-.94.15,6.5,6.5,0,0,1-1.2.4.64.64,0,0,0-.16.06c-.13.06-.26.23-.18.25a1.93,1.93,0,0,0,1.58,0,.89.89,0,0,1,.24-.09,1.09,1.09,0,0,1,.32,0c.05,0,0,.11.07.19-.36.21-.68.42-1,.6a1.9,1.9,0,0,1-.47.2,13.56,13.56,0,0,1-1.51.4,7,7,0,0,0-2.18.93,2.41,2.41,0,0,1-.7,1,4,4,0,0,1-1.23.72c0,.07,0,.12,0,.13a1.17,1.17,0,0,0,1.18,0,.58.58,0,0,1,.16,0c.09,0,.21,0,.25,0s0,.17-.14.26a3.69,3.69,0,0,1-1,.53L454,234.64a3.79,3.79,0,0,0-.33.21,2,2,0,0,0,.45,0,3.21,3.21,0,0,0,.57-.15,23,23,0,0,0,2.27-.92A11.61,11.61,0,0,1,459,233a9.48,9.48,0,0,0,1.53-.59l1.84-.85a1.36,1.36,0,0,1,1-.17,1.43,1.43,0,0,0,1-.14c.24-.09.48-.2.72-.31a2.94,2.94,0,0,1,1.79-.3c.47.09,1,.15,1.45.24a1.27,1.27,0,0,1,.46.19,3.45,3.45,0,0,0,1.28.66c.31.06.37.25.25.54a2,2,0,0,1-.16.47,1.17,1.17,0,0,0-.23,1,.36.36,0,0,1-.2.39c-.52.3-.67.71-1,1l.15.5-.64.54a.71.71,0,0,0,.39.72.57.57,0,0,1,.34.52,5.4,5.4,0,0,0,.15.72c-.22.26-.43.53-.67.79a3.89,3.89,0,0,1-.47.42.34.34,0,0,1-.46,0c-.09-.09-.05-.2,0-.32s0-.06,0-.11L467,239c-.12.15-.22.26-.3.38a7.76,7.76,0,0,1-1.26,1.47c-.49.43-1,.86-1.51,1.28a2.22,2.22,0,0,0-.76.88,1.73,1.73,0,0,1-.65.77c-.28.21-.54.43-.87.69.2.22,0,.48-.25.74a.47.47,0,0,0-.15.56c.07.26.31.52-.07.86,0,.06,0,.16,0,.23,0,.35,0,.69-.05,1-.08.87,0,.79.73,1.19a.51.51,0,0,1,.32.46,4.61,4.61,0,0,1-.07,1.17,2.06,2.06,0,0,0,.18,1.58.64.64,0,0,1,0,.84.45.45,0,0,0,.09.7l.19.17a.83.83,0,0,1,.27,1.08.35.35,0,0,0,.18.52.76.76,0,0,1,.32.37.5.5,0,0,0,.44.35c.16-.1.11-.19.05-.27a1.8,1.8,0,0,1-.29-.95,7.08,7.08,0,0,0-.26-1.72c-.1-.29-.24-.57-.37-.86a1.73,1.73,0,0,1,0-1.61.79.79,0,0,1,.64-.37c.29,0,.54.07.58.27a2.22,2.22,0,0,1,0,.52,2.82,2.82,0,0,0,.6,2.14.78.78,0,0,1,.13.91.52.52,0,0,0,.17.65c.13.11.3.2.43.31a2.21,2.21,0,0,1,.4.41c.23.36.44.74.65,1.11a.8.8,0,0,1,.12.69c-.11.33-.24.67-.37,1a.29.29,0,0,0,.09.38,6.36,6.36,0,0,0,1.66,1.15,21.68,21.68,0,0,1,2,1c.38.22.8.39,1.21.58a1.22,1.22,0,0,0,1.2,0,1.89,1.89,0,0,1,1.18-.19.85.85,0,0,1,.4.16,4,4,0,0,1,.62.7,1.48,1.48,0,0,0,.68.57,4.44,4.44,0,0,1,.53.28,2.26,2.26,0,0,0,2,.36,2.74,2.74,0,0,1,.23.36,2.35,2.35,0,0,0,.57.95.66.66,0,0,1,.2.52.67.67,0,0,0,.42.64,2.81,2.81,0,0,1,.76.63,1.62,1.62,0,0,0,.87.56,1.52,1.52,0,0,1,.87.42,1.16,1.16,0,0,0,1,.24,1.93,1.93,0,0,1,0-.42.4.4,0,0,1,.18-.26,1.83,1.83,0,0,1,.94-.15.83.83,0,0,1,.65.33,1.25,1.25,0,0,0,.18,1.13,2.89,2.89,0,0,1-.09,2.78c-.36.65-.84,1.26-1.24,1.89-.28.45-.53.91-.78,1.37a.4.4,0,0,0,0,.48.65.65,0,0,0,.47.33,1.42,1.42,0,0,1,.36.21l-.81,1.38a8.38,8.38,0,0,1,.36.76,1.37,1.37,0,0,0,.63.75,1.67,1.67,0,0,1,.68.66c.11.18.26.34.37.52a10.61,10.61,0,0,1,1.17,1.95,2.78,2.78,0,0,0,.94,1.1,2.78,2.78,0,0,1,.87,1.12,3.09,3.09,0,0,0,1.56,1.55,14.69,14.69,0,0,1,2.47,1.51,5.1,5.1,0,0,1,1.41,1.45,9.9,9.9,0,0,1,.86,2.3,1.58,1.58,0,0,1,0,.37c0,.27,0,.54,0,.8a1,1,0,0,0,.28.74,1.6,1.6,0,0,1,.43,1,11.41,11.41,0,0,0,1.37,4.26,13.9,13.9,0,0,1,1.16,3.57,2.33,2.33,0,0,0,.79,1.58.47.47,0,0,1,.2.48c-.13.44.26.87.61,1.26a10.17,10.17,0,0,0,1.1.93c.18.14.34.28.32.46a1.24,1.24,0,0,0,.58,1.07.91.91,0,0,1,.43.83,1.08,1.08,0,0,0,.09.46,2.43,2.43,0,0,0-.37.21c-.09.08,0,.26.14.33a2.53,2.53,0,0,0,.29.14,1.06,1.06,0,0,1,.64.44c.31.41.64.81.91,1.22a10.45,10.45,0,0,0,.9,1.14,4.43,4.43,0,0,0,1.17,1.06c.12.06.22.22.34.33l.32.3a2.56,2.56,0,0,1,.48,0,2.64,2.64,0,0,1,.49.22,1.32,1.32,0,0,0,.49-.62l-.7-1c.05-.53.12-1.08.19-1.65a1.8,1.8,0,0,1-.19-.2,1.77,1.77,0,0,0-.9-.82,1,1,0,0,1-.36-.29c-.27-.46-.59-.93-.29-1.31,0-.06,0-.15.07-.21a.54.54,0,0,0-.05-.69.43.43,0,0,1,0-.35,1.16,1.16,0,0,1,.18-.27l-.06-.07c-.73-.22-1-.76-1.27-1.25a.27.27,0,0,1,0-.31.4.4,0,0,1,.34,0c.19.08.37.2.57.29a1.5,1.5,0,0,0,.34.11,1,1,0,0,0-.07-1,1.88,1.88,0,0,1-.12-.18c-.14-.28,0-.44.25-.49h.22a2.23,2.23,0,0,0,1.44-.41c.33-.2.38-.48.19-.86a3.81,3.81,0,0,0-.62-1,2.75,2.75,0,0,0-.73-.66.45.45,0,0,1-.3-.5.7.7,0,0,1,.57,0c.38.11.76.22,1.14.35a.73.73,0,0,0,.68,0,1.06,1.06,0,0,0,.6-.92,2.25,2.25,0,0,1,.34-1.08c.17-.3.31-.61.45-.92a.56.56,0,0,0,0-.42,1.06,1.06,0,0,1,.15-1.23,1,1,0,0,0,.21-.81,4.16,4.16,0,0,0-.27-1,.65.65,0,0,1,.2-.9l1.11-.82a3.68,3.68,0,0,0,.58-.44.66.66,0,0,1,.81-.13,1.62,1.62,0,0,0,.27.08c.55-.31.67-.43.83-.83.07-.17.14-.35.2-.53a4.71,4.71,0,0,0,.39-2.33,2.2,2.2,0,0,1,0-.44,4,4,0,0,0,.06-.5,7.53,7.53,0,0,0-.21-2,1.32,1.32,0,0,1-.05-.44,1.31,1.31,0,0,1,.45-1.16,1.87,1.87,0,0,0,.47-.77,5.6,5.6,0,0,1,.79-1.41,2.43,2.43,0,0,0,.52-1.16,3.4,3.4,0,0,1,.15-.63.82.82,0,0,0-.17-.8A1.76,1.76,0,0,0,514.59,278ZM489,242.58c-.11-.54-.06-.6.51-.9a4.88,4.88,0,0,1,1.27-.36l.27.34A2.67,2.67,0,0,1,489,242.58Zm3.27-2c.07-.09.18-.17.26-.26.36-.38,1-.51,1.25-.14a3.13,3.13,0,0,0,.26.21c-.35.26-.64.48-.95.67a.82.82,0,0,1-.68.08A.32.32,0,0,1,492.24,240.63ZM485.83,242a2.49,2.49,0,0,1,.19-.3c.33-.44.66-.89,1-1.33a3.56,3.56,0,0,1,2-1.16,5.12,5.12,0,0,0,.56-.15.22.22,0,0,0,.14-.14.15.15,0,0,0-.12-.12,1.22,1.22,0,0,0-.38,0,1,1,0,0,1-.85-.08,1.79,1.79,0,0,0-.24-.12.69.69,0,0,0-.66.06,3.08,3.08,0,0,1-.52.24,1.07,1.07,0,0,1-.39.07c-.38,0-.51-.3-.25-.56a1.28,1.28,0,0,1,.32-.24,11.77,11.77,0,0,1,2.62-1,1,1,0,0,1,.76.1,2.82,2.82,0,0,1,.36.33.57.57,0,0,1,.08.62c-.14.44-.11.5.27.82l.64-.23a.56.56,0,0,1,.5,0,.79.79,0,0,1,.1,1.07,3.61,3.61,0,0,1-.34.33l-.45-.14c-.07,0-.13.06-.15.09a1.11,1.11,0,0,1-.83.71c-.5.11-.82-.13-.62-.52.12-.22.32-.43.45-.65a.29.29,0,0,0,0-.27c0-.05-.19-.05-.28,0a4.22,4.22,0,0,0-1,.41,3.78,3.78,0,0,0-1.46,1.58,1.83,1.83,0,0,1-.51.76.77.77,0,0,1-.66.2C485.86,242.41,485.74,242.22,485.83,242Z" fill="#f2cd64"/>
              <path d="M641.43,288.59a1.65,1.65,0,0,1-.47-1.11,10.76,10.76,0,0,0-.24-1.38,1.35,1.35,0,0,0-.89-1,3.25,3.25,0,0,1,.51-1.35,1.3,1.3,0,0,0-.12-1.62,1.8,1.8,0,0,1-.51-1.34,1.47,1.47,0,0,0-.05-.34,1.12,1.12,0,0,0-.31.08,1.27,1.27,0,0,0-.31.36,12.16,12.16,0,0,0-.64,1.38,2.9,2.9,0,0,1-.79,1.23c-.2.19-.35.39-.54.57s-.41.36-.63.53-.51.2-.67,0a6.26,6.26,0,0,0-1.19-.92,1.34,1.34,0,0,1-.31-.26c-.43-.45-.38-.87.17-1.44.18-.19.4-.36.43-.6-.25-.25-.75-.27-1.14-.39a1.44,1.44,0,0,0-1.13.14,6.59,6.59,0,0,1-.81.35A3,3,0,0,0,630,283l-.06.12a.41.41,0,0,1-.56.17c-.23-.14-.44-.3-.65-.45s-.35-.18-.76,0a4,4,0,0,0-1.44.9,3.27,3.27,0,0,1-1.18.84,1.47,1.47,0,0,1,0,.41c0,.06-.11.14-.19.19a.35.35,0,0,1-.2,0s-.07-.05-.11-.06a.38.38,0,0,0-.56.14c-.26.33-.52.65-.76,1a2.77,2.77,0,0,1-1.94,1,4.44,4.44,0,0,0-1.08.3l-2.39,1.05a2.67,2.67,0,0,0-1.12.71,2.62,2.62,0,0,0-.65,1.33,2.19,2.19,0,0,1-.35,1.27,1.69,1.69,0,0,0-.12.36,7.3,7.3,0,0,1-.23.71,4,4,0,0,0-.4,1.86,2.61,2.61,0,0,1,0,.28,2.12,2.12,0,0,1-.64,1.33l-.71.69c-.28.27-.28.51,0,.63a1.71,1.71,0,0,0,1,0,4.46,4.46,0,0,0,1.2-.49,2.71,2.71,0,0,1,1.14-.36,10,10,0,0,0,3.5-1.07,7.55,7.55,0,0,1,1.53-.54l1.71-.39a3.4,3.4,0,0,1,.53-.08c.87-.06,1.44.26,1.5.86,0,.22,0,.46,0,.68s0,.22.12.21l1.63-1.1a.72.72,0,0,1,.22-.1c.11,0,.26,0,.3,0s0,.15,0,.24-.12.1-.18.15l-.69.55s0,.07-.07.12l.27.13a1.47,1.47,0,0,0,0,.54.9.9,0,0,1-.33.91c-.21.22-.18.36-.06.49a1.59,1.59,0,0,0,1.27.38l.74-.38.62.36,1.29-.66a4.15,4.15,0,0,1,1.32-.32.85.85,0,0,0,.17-.12,19.36,19.36,0,0,1,1.52-1.28,1.31,1.31,0,0,1,.28-.17,4.29,4.29,0,0,0,1.45-1.11,2.05,2.05,0,0,1,.83-.59,2.6,2.6,0,0,0,1.19-.79,2.83,2.83,0,0,1,.48-.4c.16-.14.34-.26.49-.4a8.93,8.93,0,0,0,2.38-3,1.17,1.17,0,0,1,.21-.32c.38-.42.37-.75.08-1A.52.52,0,0,1,641.43,288.59Z" fill="#f2cd64"/>
              <path d="M539,214.13a2.91,2.91,0,0,1-1.71-.19,5,5,0,0,0-1.92-.57.5.5,0,0,1-.13,0,2,2,0,0,0-1.41.06,5.15,5.15,0,0,1-1.92.31,12.77,12.77,0,0,0-1.93.2c-.72.12-1.45.27-2.16.34a10.4,10.4,0,0,1-3,0,3.68,3.68,0,0,0-2.19.24c-1,.42-2,.89-3,1.33-.2.09-.42.16-.63.24a6.36,6.36,0,0,1-1.34.19,6.39,6.39,0,0,0-.85.17.37.37,0,0,0-.28.43.58.58,0,0,0,.49.45,4.16,4.16,0,0,0,1.23.05,3.78,3.78,0,0,1,1.35.07.74.74,0,0,1,.55.42c.12.28.23.58.34.87a.69.69,0,0,1,0,.56c-.07.15-.13.3-.19.46a.94.94,0,0,1,0,.1c.16.15.38.27.46.46s0,.45,0,.66a.7.7,0,0,1-.16.5,3.73,3.73,0,0,1-1.45,1.3,2.11,2.11,0,0,0-.82.77,1.48,1.48,0,0,0-.17.76,1.61,1.61,0,0,1-.09.69,2.2,2.2,0,0,0-.17,1.27.66.66,0,0,0,.31.57c.36.22.75.42,1.11.66.54.34.7.11,1.12-.16a1.72,1.72,0,0,0,.42-.43,7.57,7.57,0,0,0,.44-.66,6.5,6.5,0,0,1,1.23-1.46,4.12,4.12,0,0,1,1.44-.86,4.38,4.38,0,0,1,1.32-.24,2.34,2.34,0,0,0,1.27-.41c.42-.28.83-.58,1.23-.88a1.83,1.83,0,0,1,1.64-.45,1.41,1.41,0,0,0,.84,0l.79-.2a8,8,0,0,1,1.72-.43s.06-.06.12-.12-.21-.28-.46-.24a5.9,5.9,0,0,1-.72.09c-.27,0-.34-.28-.14-.48a2.64,2.64,0,0,1,.35-.23c0-.17,0-.31,0-.45.38-.1.39-.11.55,0s.49.34.75.5a.61.61,0,0,0,.75-.05c0-.07,0-.17,0-.22a2.71,2.71,0,0,0-.47-.42c-.24-.17-.52-.3-.77-.46a.18.18,0,0,1-.06-.28c.06-.08.19-.11.3-.16a.33.33,0,0,1,.14,0,1.15,1.15,0,0,0,1-.19c.38-.23.75-.47,1.14-.68a.7.7,0,0,0,.4-.46,1.17,1.17,0,0,1,.58-.68c.11-.06.2-.13.31-.2a1.18,1.18,0,0,1-.1-.25c0-.16,0-.38,0-.49a2.38,2.38,0,0,1,1.24-1c.27-.07.55-.11.82-.16a2.72,2.72,0,0,0,1.18-.4c-.14-.08-.22-.16-.31-.17A1.48,1.48,0,0,0,539,214.13Z" fill="#f2cd64"/>
              <path d="M644,278a.49.49,0,0,0-.15-.17.44.44,0,0,1,0-.7.46.46,0,0,0,0-.61,2.47,2.47,0,0,0-.84-.61c-.24-.14-.52-.25-.74-.4a6.14,6.14,0,0,0-2.36-1,3.3,3.3,0,0,1-.67-.23,3.2,3.2,0,0,0-1.31-.33,5.45,5.45,0,0,1-.8.41,2.49,2.49,0,0,0-1.11.67c-.39-.09-.44-.1-.48-.18a3.62,3.62,0,0,1-.28-.6c-.08-.23-.08-.48-.14-.71s-.27-.34-.59-.36a1.21,1.21,0,0,0-.92.32.21.21,0,0,0,.07.35,1.62,1.62,0,0,0,.33.13c.14,0,.3.06.43.11s.31.33.08.51c0,0-.09,0-.12.08-.36.29-.32.5.11.6.24.06.5.1.72.18.63.21,1.23.46,1.87.66a1.69,1.69,0,0,1,1.19,1.25l-.35.2a1.31,1.31,0,0,0-.24.17c-.14.12-.11.27.07.31a.93.93,0,0,0,.29.05.81.81,0,0,1,.73.29,1.17,1.17,0,0,0,.94.32,3.8,3.8,0,0,1,.5.06,1,1,0,0,0,.46-.36,3.24,3.24,0,0,1,.49-.49,1.17,1.17,0,0,1,1.28-.19,1.55,1.55,0,0,1,1,.95.55.55,0,0,0,.45.41,9.78,9.78,0,0,1,1.39.41.4.4,0,0,0,.44-.08.79.79,0,0,0-.17-.14A3.16,3.16,0,0,1,644,278Z" fill="#f2cd64"/>
              <path d="M624.27,270.05l.37-.48c-.26-.3-.48-.56-.71-.81a.61.61,0,0,0-.87,0,2.56,2.56,0,0,0-.33.48.89.89,0,0,1-.7.46,1.21,1.21,0,0,0-1,.76,1,1,0,0,1-.61.55l-.28.13a1.76,1.76,0,0,0-1,.88c0,.08-.16.14-.25.23l-.3-.13c-.35-.12-.57-.06-.68.21a1.24,1.24,0,0,0-.11.59,4.57,4.57,0,0,0,.49,2,.61.61,0,0,0,.6.36,4.44,4.44,0,0,1,1.26.2l.57-.24c.22.11.42.22.64.31a.8.8,0,0,0,.87-.13,1.1,1.1,0,0,0,.34-.34c.22-.39.4-.79.58-1.19a2.65,2.65,0,0,1,.92-1.25c.37-.27.39-.56.15-.85a.81.81,0,0,0-.12-.14.89.89,0,0,1-.22-.77A1.88,1.88,0,0,1,624.27,270.05Z" fill="#f2cd64"/>
              <path d="M512.65,223.18a1.65,1.65,0,0,1-.57-.79l.42-.76c-.06-.07-.08-.16-.15-.18a2.11,2.11,0,0,0-.45-.1c-.55,0-1-.22-1-.76a1,1,0,0,0-.17-.35l-.33.09a.79.79,0,0,1-.93-.1c-.16-.16-.41-.24-.56-.41s-.62-.24-1.07-.1a1.7,1.7,0,0,0-.79.49,4.14,4.14,0,0,1-.68.54.29.29,0,0,1-.24,0,.2.2,0,0,1,0-.22c.16-.16.36-.31.53-.48a4.46,4.46,0,0,0,.34-.4,4.72,4.72,0,0,0-2.26,1,1.79,1.79,0,0,0-.42.45c-.25.37-.12.61.32.61.16,0,.33,0,.5,0a6.72,6.72,0,0,1,1.68,0,1.7,1.7,0,0,0,1.08-.18.67.67,0,0,1,.83.06,1.31,1.31,0,0,1,.34.44,3.06,3.06,0,0,0,1,1.54c.19.15,0,.45-.3.57a1.19,1.19,0,0,1-1,0,.44.44,0,0,0-.59.08c-.2.16-.38.35-.57.53a.67.67,0,0,1-.56.22c-.4-.11-.89.12-1.31.06a1.7,1.7,0,0,0-.57.23.22.22,0,0,0-.1.17.21.21,0,0,0,.15.14,1,1,0,0,0,.66-.17,1.57,1.57,0,0,1,1.09-.23,2.15,2.15,0,0,0,.15.38.84.84,0,0,0,.25.31.89.89,0,0,1,.36.51c.13.48.65.66,1.26.53.2,0,.33-.23.22-.34s-.31-.31-.46-.46,0-.29.19-.3a2.05,2.05,0,0,1,.5,0c.17,0,.32.12.49.17a.51.51,0,0,0,.6-.32,1.53,1.53,0,0,0,.09-.81,1.18,1.18,0,0,1,0-.42.6.6,0,0,1,.4-.42.34.34,0,0,1,.42.1,3.39,3.39,0,0,0,.51.41c.25.14.51.07.82-.17s.42-.48.3-.7A1.59,1.59,0,0,0,512.65,223.18Z" fill="#f2cd64"/>
              <path d="M574.26,284.33c-.25.29-.49.58-.76.85s-.63.55-.93.83a1.06,1.06,0,0,1-.6.29,1.16,1.16,0,0,0-1.09.91,1.83,1.83,0,0,0,.08,1,3.68,3.68,0,0,1,.16.54.65.65,0,0,1-.22.66,3.83,3.83,0,0,0-.76,1.15,2.16,2.16,0,0,0,.06,2.16A1.14,1.14,0,0,0,572,293a1.64,1.64,0,0,0,.63-.76A9,9,0,0,0,573,291a8.24,8.24,0,0,1,.47-1.51c.06-.18.12-.37.2-.56.29-.65.56-1.31.89-1.95a4.62,4.62,0,0,0,.6-1.93,2.1,2.1,0,0,0-.37-1.37C574.55,284,574.41,284.16,574.26,284.33Z" fill="#f2cd64"/>
              <path d="M497.91,220.47a.61.61,0,0,0-.49.15,2.52,2.52,0,0,0-.25.21c-.18.16-.36.33-.55.48a1.34,1.34,0,0,1-.33.14c0-.22.06-.39.08-.57s-.11-.19-.27-.11-.49.24-.7.34h-.1a2.69,2.69,0,0,0-1.67-.14c-.06,0-.12-.05-.18-.09.28-.3.56-.18.84-.36,0-.07,0-.09,0-.1-.36-.23-.93-.16-1.35-.3a.41.41,0,0,0-.21,0,9.66,9.66,0,0,0-2.85,1.22c-.23.15-.45.33-.67.5a.33.33,0,0,0-.13.35c0,.1.16.14.32.08s.56-.22.84-.36a7.86,7.86,0,0,1,1.37-.52,1,1,0,0,0,.17.3c.09.09.39,0,.41.18a.73.73,0,0,1-.39.22l-.51.06a.23.23,0,0,0-.21.21,4.46,4.46,0,0,0,1,0c.14,0,.29,0,.44-.07s.33.07.25.15a.93.93,0,0,1-.31.22c-.3.08-.6.13-.9.18l-.51.07c-.15,0-.29.23-.22.31s0,.06.07.07c.4.14.65.47,1.25.38a.39.39,0,0,1,.24.05,1,1,0,0,0,.78-.13c.27-.15.55-.27.81-.43a1.19,1.19,0,0,1,1.05-.22,1.34,1.34,0,0,0,.37.09,1.69,1.69,0,0,0,.55,0,4.28,4.28,0,0,0,1.34-.52c.15-.08.24-.24.17-.33a2.41,2.41,0,0,0-.21-.24c-.13-.17-.12-.36.14-.61a4.57,4.57,0,0,0,.42-.47C498,220.65,498,220.5,497.91,220.47Z" fill="#f2cd64"/>
              <path d="M614.29,274.91a2,2,0,0,1-.66-1.15,4.15,4.15,0,0,0-.22-.68,1.07,1.07,0,0,0-.6-.58,4.25,4.25,0,0,1-1.67-1.27,2.45,2.45,0,0,0-.31-.34l-1.43-1.25a1.27,1.27,0,0,0-1.06-.21c-.12.21,0,.34.14.47a20.25,20.25,0,0,1,2.18,3,3.17,3.17,0,0,0,.37.58,4.79,4.79,0,0,1,1,1.73,1.76,1.76,0,0,0,.6.79,4.67,4.67,0,0,1,.62.64,5,5,0,0,0,.37.43.87.87,0,0,0,1.12,0,.5.5,0,0,0,.26-.37,1.88,1.88,0,0,0,0-.63A2.76,2.76,0,0,0,614.29,274.91Z" fill="#f2cd64"/>
              <path d="M520.29,213.79a10,10,0,0,0-1.44.09c-.76.11-1.52.17-2.3.34-1,.22-2,.37-3,.54a1.67,1.67,0,0,0-.31.12c.12.07.17.13.25.13a5,5,0,0,0,1.73,0,.34.34,0,0,1,.2,0c.06,0,.14.09.13.15a.3.3,0,0,1-.16.22,2.43,2.43,0,0,1-.63.2,4.24,4.24,0,0,1-1.67,0,1,1,0,0,0-.67,0c-.2.08-.32.23-.25.36s.12.14.16.22a.74.74,0,0,1,.05.24c-.37.27-.61,0-.93.18l-.07.43a3.49,3.49,0,0,0-.57.1,1.44,1.44,0,0,1-1.13,0c-.08,0-.25,0-.38,0,0,.22.06.29.22.31a2.49,2.49,0,0,0,.61,0,3,3,0,0,1,1.44.11,1.19,1.19,0,0,0,1-.14c.69-.39,1.38-.76,2.06-1.15a5.22,5.22,0,0,1,1.76-.68c.35-.06.71-.17,1.06-.22a14.35,14.35,0,0,0,3.57-1.31,2.16,2.16,0,0,0,.45-.29,1.65,1.65,0,0,0,.18-.25h-.31A5.82,5.82,0,0,1,520.29,213.79Z" fill="#f2cd64"/>
              <path d="M632.6,247.75a1.53,1.53,0,0,1-.33-.84,2.43,2.43,0,0,0-1.11-1.54,1.63,1.63,0,0,0-1-.35.66.66,0,0,0,.07.3,6.13,6.13,0,0,0,.57.69,1,1,0,0,1,.27,1.44,2.63,2.63,0,0,1-1.64,1.15h-.17l-.55-.19c-.32.06-.3.28-.45.41a3.49,3.49,0,0,1-.58.36,2.06,2.06,0,0,0,.48.15c.37,0,.72-.06,1.07-.09a1.73,1.73,0,0,1,1.35.31,1.14,1.14,0,0,0,.23.05l.16-.45a12.47,12.47,0,0,0,1.26-.17c.6-.14.76-.53.49-1C632.71,247.9,632.65,247.82,632.6,247.75Z" fill="#f2cd64"/>
              <path d="M542.21,233.05c0-.06-.1-.13-.14-.2-.2-.43-.39-.87-.58-1.3a1.09,1.09,0,0,0-.7-.69.4.4,0,0,1-.18-.1.22.22,0,0,1-.07-.34c.12-.16.26-.32.39-.48-.46-.2-.46-.2-.57-.6l-.35,0c-.14.25-.27.49-.38.74,0,.09-.07.23,0,.3a.85.85,0,0,1,.09.74c.19.44.56.06.85.28,0,.34.21.71,0,1.1l-.83.39c0,.23.1.42-.16.56-.06,0-.08.13-.14.23a5,5,0,0,1,.7.15.37.37,0,0,1,.21.23s-.1.16-.18.19c-.31.12-.63.22-.94.33-.09,0-.18.09-.09.23.5-.1,1-.23,1.53-.32s1.11-.09,1.65-.21c-.11-.53-.1-.53.36-.85a1.57,1.57,0,0,0,.23-.2C542.77,232.93,542.45,233.13,542.21,233.05Z" fill="#f2cd64"/>
              <path d="M628.65,272.13a2.48,2.48,0,0,1-1.32.16l-.47-.07a1.23,1.23,0,0,0-1.23.43,1.8,1.8,0,0,0-.5,1,2.33,2.33,0,0,1-.56,1.23.72.72,0,0,0-.13.89,1.26,1.26,0,0,1,.17.65c0,.15.07.3.33.33a.53.53,0,0,0,.4-.42c0-.19,0-.39.08-.58s0-.36.3-.45.3,0,.43.31a.52.52,0,0,0,.06.16.55.55,0,0,0,.16.18.39.39,0,0,0,.41.08.53.53,0,0,0,.24-.23.52.52,0,0,0,0-.55,3.12,3.12,0,0,1-.2-.35c-.12-.27-.06-.52.3-.73a3.18,3.18,0,0,0,.35-.26.16.16,0,0,0,0-.16.27.27,0,0,0-.2-.06c-.23,0-.47.11-.7.16a1.18,1.18,0,0,1-.77-.07.33.33,0,0,1-.19-.15c-.14-.41.26-.93.92-.92a2.07,2.07,0,0,1,.75.11,1.33,1.33,0,0,0,1.55-.28,4.5,4.5,0,0,0,.3-.38C629,272,628.79,272.06,628.65,272.13Z" fill="#f2cd64"/>
              <path d="M643,298.67a19.45,19.45,0,0,1-2.73,1.49l-1.17.49-1.8.77a2.78,2.78,0,0,0-.94.68c-.34.36-.25.55.21.49a2.82,2.82,0,0,0,.91-.29,12.81,12.81,0,0,0,2.1-1.2,3.84,3.84,0,0,1,1.2-.63,3.12,3.12,0,0,0,.9-.48,4.19,4.19,0,0,1,1.12-.62,4.55,4.55,0,0,0,.68-.37c.33-.19.52-.4.47-.59a1.42,1.42,0,0,0-.05-.16A2.68,2.68,0,0,0,643,298.67Z" fill="#f2cd64"/>
              <path d="M649.2,295.8c-.36.11-.46.09-.49-.08l-.06-.33c-.06-.23,0-.49.37-.81.23-.19.21-.3.05-.37a.69.69,0,0,0-.5.34c-.17.29-.32.58-.49.88a2,2,0,0,1-1,.87l-.46.23a1.45,1.45,0,0,0-.8.79c0,.15-.08.29-.12.4-.3.24-.7.36-.84.64a.83.83,0,0,0,.31,0,4.1,4.1,0,0,0,1.29-.64,10.25,10.25,0,0,1,1.89-1.15c.29-.14.56-.31.83-.47s.31-.21.46-.32c0,0,0,0-.06,0Z" fill="#f2cd64"/>
              <path d="M487.22,257.69a5.86,5.86,0,0,1-1.41-.65,4.56,4.56,0,0,0-3.32-.73,1.67,1.67,0,0,0-1.28.77,1.6,1.6,0,0,0,.3,0c.36-.11.71-.25,1.08-.35a1.33,1.33,0,0,1,.55-.07,3.7,3.7,0,0,1,1.64.67,1.58,1.58,0,0,1,.7,1c.38.05.73.07,1.07.13a1.8,1.8,0,0,0,1.1,0,5.11,5.11,0,0,1,.6-.15,2.07,2.07,0,0,0-.32-.28Z" fill="#f2cd64"/>
              <path d="M620.65,278.69a7.68,7.68,0,0,1-.92-.25,5.53,5.53,0,0,1-.81-.52c-.38.11-.7.19-1,.3a.81.81,0,0,1-.67,0,1.71,1.71,0,0,1-.23-.13,2.36,2.36,0,0,0-1.62-.24c-.29,0-.56.18-.58.31s.13.29.3.36a3,3,0,0,0,1.41.24,3.1,3.1,0,0,1,1.5.17,1.63,1.63,0,0,0,.74.11,4.87,4.87,0,0,1,1.16.1c.25,0,.5.07.76.08a.36.36,0,0,0,.26-.12.2.2,0,0,0,0-.21A.64.64,0,0,0,620.65,278.69Z" fill="#f2cd64"/>
              <path d="M535,223.65a3.65,3.65,0,0,0-.41.18l-.21.08-.54-.14a2.55,2.55,0,0,1-1.12.36c-.41,0-.5.17-.47.59,0,0,.06.05.11.1l.57-.13c.1.17.18.31.28.45s.3.25.61.13a4,4,0,0,1,.84-.29,3.12,3.12,0,0,0,1.72-1C535.88,223.45,535.73,223.41,535,223.65Z" fill="#f2cd64"/>
              <path d="M627.67,263.36a1.64,1.64,0,0,0-.32-.05,1.47,1.47,0,0,1-1.06-.47.66.66,0,0,1-.06-.93.7.7,0,0,0,.12-.55,4.51,4.51,0,0,0-.47-.93.56.56,0,0,0-.33-.13,2.49,2.49,0,0,0-.45.07,4.79,4.79,0,0,1,0,.56,1.84,1.84,0,0,1-.09.57c-.2.45,0,.83.39,1.19s.68.6,1,.89a.74.74,0,0,0,.39.18,4.36,4.36,0,0,1,1.09.18c.06,0,.14,0,.25,0C628.15,263.64,628,263.45,627.67,263.36Z" fill="#f2cd64"/>
              <path d="M509.37,236.2A1.08,1.08,0,0,1,509,236c-.33-.19-.35-.39-.08-.75.09-.11.22-.21.1-.35a.71.71,0,0,0-.2,0,3.35,3.35,0,0,0-1,.78,10.6,10.6,0,0,1-1.64,1.5,3.82,3.82,0,0,1,1.54.08,1,1,0,0,0,.3,0,7.28,7.28,0,0,0,1.72-.29c.17,0,.28-.2.2-.31S509.74,236.25,509.37,236.2Z" fill="#f2cd64"/>
              <path d="M538.72,231.35a1.41,1.41,0,0,0-.94.21,1.91,1.91,0,0,1-.75.3c-.24,0-.37.19-.3.39a1.17,1.17,0,0,1-.19,1.06c-.16.25-.07.45.19.67l.33-.24a1.55,1.55,0,0,1,.91-.32c.4,0,.47-.09.48-.45a1.34,1.34,0,0,1,.4-1,1,1,0,0,0,.13-.16C539.12,231.61,539,231.4,538.72,231.35Z" fill="#f2cd64"/>
              <path d="M627.66,240.67a6.2,6.2,0,0,1-1.07-1c0-.05,0-.11-.07-.17l.41-.15a1.74,1.74,0,0,0-.8-.71,6.66,6.66,0,0,1-1.43-1.09c-.34-.32-.68-.63-1-.93a.86.86,0,0,0-.7-.26,2.87,2.87,0,0,0,1.17,1.23,4.84,4.84,0,0,1,1.13,1c.29.38.57.75.89,1.11s.81.85,1.23,1.27a1.31,1.31,0,0,0,.69.38.44.44,0,0,0,.26,0s0-.12,0-.15A5.76,5.76,0,0,0,627.66,240.67Z" fill="#f2cd64"/>
              <path d="M510.89,218.25a3.7,3.7,0,0,0-1.78,0,1.67,1.67,0,0,1-1.5-.18l-.2-.11a1,1,0,0,0-.83.21c-.26.17-.47.37-.42.64l.4,0a3.78,3.78,0,0,1,.89,0,7.07,7.07,0,0,0,1.8.1,5.2,5.2,0,0,0,1.52-.37l.07,0c.05-.06.12-.12.13-.17S510.94,218.26,510.89,218.25Z" fill="#f2cd64"/>
              <path d="M630.44,243a1.35,1.35,0,0,1-1-.36,1.77,1.77,0,0,0-.73-.43c-.15.23-.15.23-.05.35s.45.35.48.58l-.36.38a1.87,1.87,0,0,0,.93.83s0,0,0,0a.16.16,0,0,0,0-.1c-.07-.42,0-.45.57-.25a2.67,2.67,0,0,0,.53.16c.27,0,.22-.17.31-.27a1.74,1.74,0,0,1,.42-.3A1.33,1.33,0,0,0,630.44,243Z" fill="#f2cd64"/>
              <path d="M629.7,266.63c0-.05-.09-.1-.14-.15l-.11,0a1.41,1.41,0,0,1-1.58.85.42.42,0,0,0-.4.17.21.21,0,0,0,0,.2s.12.08.19.08l.62-.06a1.7,1.7,0,0,1,.31.55c.08.19.19.39.29.58,0,0,.07.05.15.1l.71-.06c-.12-.18-.21-.31-.29-.45s0-.3.26-.35.31,0,.5-.06a.75.75,0,0,0-.18-.77A1,1,0,0,1,629.7,266.63Z" fill="#f2cd64"/>
              <path d="M508.58,314.42a6.16,6.16,0,0,0-.55-.33c-.29-.17-.49-.12-.47.13s.06.36.1.56a2.08,2.08,0,0,0,.92.55c.31.05.62.45.9.36a3.51,3.51,0,0,1,.8-.11,1.28,1.28,0,0,0,.26-.07,1.52,1.52,0,0,0-.29-.21A8.36,8.36,0,0,1,508.58,314.42Z" fill="#f2cd64"/>
              <path d="M491,258.83a.6.6,0,0,0-.22-.06,13.68,13.68,0,0,0-1.9.1c0,.28,0,.54,0,.8a1.7,1.7,0,0,0,1.52.1,4.13,4.13,0,0,1,.63-.12,1,1,0,0,0,.64-.25A2.14,2.14,0,0,0,491,258.83Z" fill="#f2cd64"/>
              <path d="M628,300.69a6.54,6.54,0,0,1-.7-.08c-.19.28-.43.5-.22.68s0,.39-.27.62l-.34.27c.13.16.36.07.55,0a5.91,5.91,0,0,0,1.62-1.12c.18-.16.27-.33.13-.46A6.76,6.76,0,0,1,628,300.69Z" fill="#f2cd64"/>
              <path d="M500.56,220.45a1.16,1.16,0,0,1-.24.18c-.26,0-.37-.38-.79,0,0,0,0,0,0,.06.22.17.55.26.69.51,0,0,.16.06.25,0a3.11,3.11,0,0,0,1.11-.61,1.43,1.43,0,0,0,.19-.24l.46-.71-.94.33A1.43,1.43,0,0,0,500.56,220.45Z" fill="#f2cd64"/>
              <path d="M502.16,225.2a.72.72,0,0,0-.64.09,9.53,9.53,0,0,0-1.14.72c.1.29.16.33.41.25l.44-.17a1,1,0,0,1,.84,0,3.45,3.45,0,0,0,.4.11c.24-.13.34-.27.32-.42a.39.39,0,0,0-.14-.29A2.51,2.51,0,0,0,502.16,225.2Z" fill="#f2cd64"/>
              <path d="M510.08,215.3c-.47.18-.94.42-1.41.65-.17.08-.22.34-.07.36a1.93,1.93,0,0,0,.83.07,3.18,3.18,0,0,0,1.52-.84A.67.67,0,0,0,510.08,215.3Z" fill="#f2cd64"/>
              <path d="M624.1,255.75a.87.87,0,0,0-.39.53c-.15.44,0,.69.53,1,.11.06.31,0,.32-.06.06-.32.11-.64.16-1-.05-.11-.09-.24-.16-.37A.34.34,0,0,0,624.1,255.75Z" fill="#f2cd64"/>
              <path d="M626.86,279.82a.12.12,0,0,0,0,.15.26.26,0,0,0,.21,0,3.44,3.44,0,0,0,.6-.33,1.86,1.86,0,0,1,.83-.41,7,7,0,0,0,.77-.24,1.41,1.41,0,0,0-.4-.21A2.29,2.29,0,0,0,626.86,279.82Z" fill="#f2cd64"/>
              <path d="M467.56,237.21a2.33,2.33,0,0,0-.64.08,2.35,2.35,0,0,0,.21.74c.13.17.46.21.6.39s.15,0,.22,0,.15-.11.15-.15a2.25,2.25,0,0,0-.08-.74A.75.75,0,0,0,467.56,237.21Z" fill="#f2cd64"/>
              <path d="M504.35,219.5a4.66,4.66,0,0,0-1.66.69.22.22,0,0,0-.11.29c.06.15.27.19.45,0a1.87,1.87,0,0,1,1.05-.44,1.11,1.11,0,0,0,.76-.37,1.16,1.16,0,0,0-.22-.18A.6.6,0,0,0,504.35,219.5Z" fill="#f2cd64"/>
              <path d="M511,312.91a.43.43,0,0,0,.16.46l.93.25.2-.26.18-.26C511.69,312.82,511.15,312.75,511,312.91Z" fill="#f2cd64"/>
              <path d="M623.6,267a1.27,1.27,0,0,0,.31,0,1,1,0,0,0,.62-.36,11.15,11.15,0,0,0,.65-.93s0-.1-.07-.19A2.56,2.56,0,0,0,623.6,267Z" fill="#f2cd64"/>
              <path d="M617.58,259.1c-.47-.06-.93.19-1,.51a.52.52,0,0,0,.47.5.57.57,0,0,0,.15,0,1.74,1.74,0,0,0,.54-.82S617.65,259.11,617.58,259.1Z" fill="#f2cd64"/>
              <path d="M628,250a.51.51,0,0,0-.58,0c0,.25.31.4.52.59s.39.39.65.66c.08-.1.17-.15.17-.21A1.42,1.42,0,0,0,628,250Z" fill="#f2cd64"/>
              <path d="M547.29,242.28a.35.35,0,0,0-.5-.16c-.16.09-.28.21-.25.37a8.12,8.12,0,0,0,.22.81.26.26,0,0,0,.21.14.3.3,0,0,0,.22-.15c.07-.21.1-.42.12-.49,0-.23,0-.31,0-.4Z" fill="#f2cd64"/>
              <path d="M631.68,271.36c-.53,0-.84.2-.75.45a1.16,1.16,0,0,1-.09.89.12.12,0,0,0,0,.1c0,.05.08.12.13.12a.43.43,0,0,0,.27-.08.56.56,0,0,0,.08-.76.3.3,0,0,1,.07-.42Z" fill="#f2cd64"/>
              <path d="M549.4,244.54a3.51,3.51,0,0,0,1.37.58c.07-.24.23-.42,0-.65A2.1,2.1,0,0,0,549.4,244.54Z" fill="#f2cd64"/>
              <path d="M498.16,223c.12.36.27.39.63.16.21-.14.41-.27.6-.41a2.27,2.27,0,0,0,.22-.22A1.54,1.54,0,0,0,498.16,223Z" fill="#f2cd64"/>
              <path d="M625.68,278.83a1.73,1.73,0,0,0-.51,0,.41.41,0,0,0-.34.31c0,.11.19.22.38.2a2,2,0,0,0,.83-.19C626.08,278.91,625.87,278.87,625.68,278.83Z" fill="#f2cd64"/>
              <path d="M629.24,264.79a.62.62,0,0,0-.65-.1.91.91,0,0,0,.37.69.41.41,0,0,0,.43.06c.14-.08.2-.19.13-.3A1.79,1.79,0,0,0,629.24,264.79Z" fill="#f2cd64"/>
              <path d="M622.17,279.22l.5.3a2.76,2.76,0,0,0,.86-.38.69.69,0,0,0-.26-.17A1.66,1.66,0,0,0,622.17,279.22Z" fill="#f2cd64"/>
              <path d="M485.17,259.61a.42.42,0,0,0-.24.15.23.23,0,0,0,.09.21.91.91,0,0,0,.38.19.75.75,0,0,0,.65-.25A.74.74,0,0,0,485.17,259.61Z" fill="#f2cd64"/>
              <path d="M469.14,233.31a.51.51,0,0,0-.29.1c-.26.16-.43.49-.31.64a.38.38,0,0,0,.28.06c.06,0,.17-.12.22-.19a1,1,0,0,0,.11-.23h0a.84.84,0,0,0,.09-.23A.14.14,0,0,0,469.14,233.31Z" fill="#f2cd64"/>
              <path d="M626.6,265.36c-.08.09,0,.2.08.25a.56.56,0,0,0,.36,0,.93.93,0,0,0,.48-.55c-.09,0-.18-.11-.24-.1A1.15,1.15,0,0,0,626.6,265.36Z" fill="#f2cd64"/>
              <path d="M571.15,221.71a2.6,2.6,0,0,0-.55-.21c-.26-.07-.44,0-.48.11s.18.33.46.33.46,0,.68,0C571.23,221.84,571.21,221.74,571.15,221.71Z" fill="#f2cd64"/>
              <path d="M571.27,221.93l0,0h0Z" fill="#f2cd64"/>
              <path d="M556.77,246.53c.74.35.87.36,1.32.14A1.41,1.41,0,0,0,556.77,246.53Z" fill="#f2cd64"/>
              <path d="M496.34,265.62c-.41-.1-.29.32-.5.45,0,0,0,.08,0,.17l.71.05C496.28,266,496.66,265.71,496.34,265.62Z" fill="#f2cd64"/>
              <path d="M487.65,259.56a.19.19,0,0,0-.11.08s0,.1,0,.11a2.36,2.36,0,0,0,.57.18.55.55,0,0,0,.54-.25A3,3,0,0,0,487.65,259.56Z" fill="#f2cd64"/>
              <path d="M492.66,259.79a.19.19,0,0,0,.07.17c.25.22.6.1.79-.3h-.71C492.76,259.67,492.68,259.75,492.66,259.79Z" fill="#f2cd64"/>
              <path d="M627.57,266l-.42.42.38.26C627.73,266.46,628,266.27,627.57,266Z" fill="#f2cd64"/>
              <path d="M629.65,249.84a.41.41,0,0,0-.27,0,.24.24,0,0,0-.07.45.24.24,0,0,0,.32,0,1.84,1.84,0,0,0,.17-.25C629.74,249.93,629.7,249.85,629.65,249.84Z" fill="#f2cd64"/>
              <path d="M546.86,241c-.06.18,0,.26.29.41a.58.58,0,0,0,.07-.56C547,240.87,546.88,240.91,546.86,241Z" fill="#f2cd64"/>
              <path d="M543.14,242.92a.22.22,0,0,0-.28.16c0,.06,0,.15,0,.22l.11,0a.7.7,0,0,0,.22-.2A.19.19,0,0,0,543.14,242.92Z" fill="#f2cd64"/>
              <path d="M562.4,246.83c0,.06.14.18.19.17a1.72,1.72,0,0,0,.48-.19,3.51,3.51,0,0,0-.37-.12C562.56,246.67,562.41,246.71,562.4,246.83Z" fill="#f2cd64"/>
              <path d="M490.22,264.09s.08.08.15.14.13-.12.11-.15-.1-.07-.15-.11S490.22,264.05,490.22,264.09Z" fill="#f2cd64"/>
              <path d="M491.21,264.17s.05.06.08.1l.09-.1-.09-.09S491.21,264.14,491.21,264.17Z" fill="#f2cd64"/>
            </g>
          </g>
          <g>
            <g>
              <circle cx="198.53" cy="287.66" r="28.55" transform="translate(-43.16 35.17) rotate(-9.14)" fill="#f9f8ef"/>
              <path d="M178,263.7l.6-.11,4.39,3.79-1,.83a25.51,25.51,0,1,0,34.45,37.59l.91-.9,4.09,4.46-.85.84A31.56,31.56,0,1,1,178,263.7Z" fill="#e5bf61"/>
            </g>
            <g>
              <polygon points="197.45 275.48 199.03 275.48 199.03 275.48 199.03 289.38 197.45 289.38 197.45 275.48" fill="#e5bf61"/>
              <rect x="196.5" y="274.29" width="3.47" height="16.28" fill="#e5bf61"/>
            </g>
            <path d="M178,263.7a31.56,31.56,0,0,1,42.62,46.5l-.91.89-4.08-4.45.84-.84a25.3,25.3,0,0,0,7.59-18.14,25.51,25.51,0,0,0-42-19.45l-.91.77L177,264.53Z" fill="#e5bf61"/>
            <g>
              <rect x="193.37" y="271.09" width="1.28" height="19.76" transform="translate(-103.64 113.67) rotate(-26.04)" fill="#e5bf61"/>
              <rect x="192.36" y="270.09" width="3.3" height="21.77" transform="translate(-103.64 113.67) rotate(-26.04)" fill="#e5bf61"/>
            </g>
            <circle cx="197.95" cy="287.85" r="3.98" fill="#e5bf61"/>
          </g>
          <rect x="163.24" y="495.22" width="15.24" height="157.95" fill="#e8a658"/>
          <rect x="57.78" y="483.16" width="394.63" height="12.06" fill="#fbca92"/>
          <rect x="67.09" y="495.22" width="370.12" height="105.68" fill="#fbbc71"/>
          <rect x="67.09" y="495.22" width="15.24" height="157.95" fill="#fbbc71"/>
          <rect x="67.09" y="495.22" width="444.05" height="6.04" fill="#231f20" opacity="0.22"/>
          <rect x="452.42" y="483.16" width="66.06" height="12.06" fill="#e5bf61"/>
          <rect x="138.05" y="495.22" width="299.17" height="105.68" fill="#e5bf61"/>
          <rect x="57.78" y="483.16" width="394.63" height="12.06" fill="#f2cd64"/>
          <rect x="67.09" y="495.22" width="370.12" height="105.68" fill="#f2cd64"/>
          <rect x="67.09" y="495.22" width="444.05" height="6.04" fill="#231f20" opacity="0.22"/>
        </g>
      </g>
    </g>
    <g id="9b0d2e12-424b-4c25-bf8f-590504b6505c" data-name="img5">
      <rect x="496.86" y="494.81" width="15.15" height="157.06" fill="#e5bf61"/>
      <g>
        <g>
          <rect x="286.62" y="567.71" width="5.64" height="84.17" fill="#bd9e52"/>
          <rect x="379.4" y="567.71" width="5.64" height="84.17" fill="#bd9e52"/>
          <path d="M378.87,445.65c-.79-23.1-9.32-30.19-19.08-30.19H312.34c-9.76,0-18.29,7.09-19.08,30.19l-11.08,108.9s4.62,22.21,21.64,22.21h64.49c19,0,21.63-22.21,21.63-22.21Z" fill="#bd9e52"/>
        </g>
        <rect x="292.26" y="546.64" width="87.14" height="28.06" rx="9.6" ry="9.6" fill="#bd9e52"/>
      </g>
      <rect x="426.31" y="494.81" width="15.15" height="157.06" fill="#e5bf61"/>
      <rect x="184.88" y="475.64" width="37.89" height="7.17" fill="#5d342b"/>
      <rect x="182.22" y="467.58" width="37.89" height="8.06" fill="#c76e34"/>
      <rect x="186.57" y="460" width="37.89" height="7.58" fill="#f3ecf1"/>
      <rect x="172.35" y="438.19" width="9.87" height="44.62" fill="#6f605b"/>
      <rect x="142.52" y="457.32" width="39.93" height="9.87" transform="matrix(0.26, -0.97, 0.97, 0.26, -325.93, 501.44)" fill="#9d5a3c"/>
      <g>
        <path d="M483.2,446.05s-4.46,5-4.22,10.85,5.11,10.47,5.11,10.47,4.46-5,4.22-10.85S483.2,446.05,483.2,446.05Z" fill="#00b956"/>
        <path d="M473.13,457.12s.26,4.54,3.23,7.25,7.51,2.54,7.51,2.54-.26-4.54-3.23-7.24S473.13,457.12,473.13,457.12Z" fill="#0b9b48"/>
        <path d="M487.62,459.67c-3,2.7-3.23,7.24-3.23,7.24s4.54.16,7.51-2.54,3.23-7.25,3.23-7.25S490.58,457,487.62,459.67Z" fill="#0b9b48"/>
        <polygon points="478.17 482.81 490.61 482.81 494.24 466.91 474.53 466.91 478.17 482.81" fill="#d17d47"/>
      </g>
      <rect x="453.62" y="482.81" width="65.69" height="12" fill="#e5bf61"/>
      <g>
        <g>
          <path d="M331.6,409.28l-21.21,62.19a6.59,6.59,0,0,1-6.94,4.42h0a6.6,6.6,0,0,1-5.72-8l14.8-63.92a9.92,9.92,0,0,1,11-7.59h0A9.91,9.91,0,0,1,331.6,409.28Z" fill="#0b9b48"/>
          <polygon points="398.14 478.76 410.44 488.45 411.56 481.75 398.14 478.76" fill="#fac1b1"/>
          <g id="089c031a-792b-4acb-8f33-d8f889e160d6" data-name="&lt;Group&gt;">
            <rect x="316.32" y="505.62" width="72.03" height="30.38" rx="15.19" ry="15.19" fill="#010416"/>
          </g>
          <g id="26e03356-dc94-4bd9-8d43-c74de07e2af2" data-name="&lt;Group&gt;">
            <path d="M393.48,405l10.45,65.19a6.63,6.63,0,0,1-4.08,7.2h0a6.63,6.63,0,0,1-8.86-4.45l-17-63.72a10,10,0,0,1,6.22-11.92h0A10,10,0,0,1,393.48,405Z" fill="#0b9b48"/>
          </g>
          <g>
            <rect x="315.16" y="491.83" width="74.05" height="28.51" rx="13.79" ry="13.79" fill="#000429"/>
            <path d="M322.21,443.39a101.86,101.86,0,0,1-1.31,35.25L316.76,498H388l-4.14-19.34a101.86,101.86,0,0,1-1.32-35.25l5.53-40.2a6.91,6.91,0,0,0-3.6-7.05l-21.17-11.25a23.3,23.3,0,0,0-21.86,0l-21.17,11.25a6.91,6.91,0,0,0-3.6,7.05Z" fill="#fefbfe"/>
          </g>
          <g>
            <path d="M313.48,511.24h23.58V446.39a17.49,17.49,0,0,1-2.5-9V406.9a17.68,17.68,0,0,1,17.63-17.63h0a17.68,17.68,0,0,1,17.62,17.63v30.49a17.49,17.49,0,0,1-2.5,9v64.85h23.58L384,479a102.94,102.94,0,0,1-1.33-35.61l5.59-40.6a7,7,0,0,0-3.64-7.12l-21.38-11.36a23.54,23.54,0,0,0-22.09,0L319.76,395.7a7,7,0,0,0-3.64,7.12l5.59,40.6A102.94,102.94,0,0,1,320.38,479Z" fill="#00b956"/>
            <path d="M391.58,511.79H366.76V446.23l.08-.13a17,17,0,0,0,2.41-8.71V406.9a17.07,17.07,0,1,0-34.13,0v30.49a17,17,0,0,0,2.41,8.71l.08.13v65.56H312.79l7-32.88a102.28,102.28,0,0,0,1.32-35.41l-5.59-40.61a7.55,7.55,0,0,1,3.93-7.68l21.38-11.36a24.07,24.07,0,0,1,22.61,0l21.38,11.36a7.55,7.55,0,0,1,3.93,7.68l-5.59,40.61a102.29,102.29,0,0,0,1.32,35.41Zm-23.71-1.11h22.34l-6.76-31.54a103.24,103.24,0,0,1-1.34-35.79l5.59-40.61a6.46,6.46,0,0,0-3.35-6.55L363,384.83a23,23,0,0,0-21.57,0L320,396.19a6.46,6.46,0,0,0-3.35,6.55l5.59,40.61a103.24,103.24,0,0,1-1.34,35.79l-6.75,31.54H336.5V446.54a18.1,18.1,0,0,1-2.49-9.15V406.9a18.18,18.18,0,1,1,36.35,0v30.49a18.1,18.1,0,0,1-2.49,9.15Z" fill="#00b956"/>
          </g>
          <g>
            <path d="M458.27,445.45l-3-2.47-.19.09a1.56,1.56,0,0,0-.44-.07H401.73a1.64,1.64,0,0,0-1.58,1.22l-8.41,32.1a1.64,1.64,0,0,1-1.58,1.22H362.64a1.64,1.64,0,0,0-1.64,1.64V480a1.65,1.65,0,0,0,1.64,1.64h81.27a1.63,1.63,0,0,0,1.57-1.17l10.39-34.25Z" fill="#8fcaea"/>
            <g>
              <path d="M361,481v.77a1.64,1.64,0,0,0,1.64,1.63h83.64a1.63,1.63,0,0,0,1.57-1.16l10.71-35.31a1.64,1.64,0,0,0-1.57-2.11H404.1a1.64,1.64,0,0,0-1.58,1.22l-8.41,32.09a1.63,1.63,0,0,1-1.58,1.23H362.64A1.64,1.64,0,0,0,361,481Z" fill="#c4e3f7"/>
              <path d="M421.71,464.2a3.68,3.68,0,1,1-3.67-3.67A3.67,3.67,0,0,1,421.71,464.2Z" fill="#fff"/>
              <path d="M430.94,464.07a3.68,3.68,0,1,1-3.68-3.67A3.68,3.68,0,0,1,430.94,464.07Z" fill="#fff"/>
              <g opacity="0.7">
                <path d="M440.05,464.07a3.68,3.68,0,1,1-3.67-3.67A3.67,3.67,0,0,1,440.05,464.07Z" fill="#fff"/>
              </g>
            </g>
          </g>
          <rect x="335.43" y="634.57" width="11.08" height="5.18" fill="#fac1b1"/>
          <g>
            <path d="M328.09,525.07l7.52,111.66H346.7l1.19-111.26L346,522.69c-4.4-6.52-14.13-4.5-17.93,2.38Z" fill="#fac1b1"/>
            <path d="M377.05,525.07l-7.52,111.66H358.44l-1.19-111.26,1.87-2.78c4.4-6.52,14.13-4.5,17.93,2.38Z" fill="#fac1b1"/>
          </g>
          <ellipse cx="340.92" cy="635.34" rx="5.58" ry="3.79" fill="#fac1b1"/>
          <polygon points="347.98 649.98 346.39 636 335.18 636 333.85 649.85 347.98 649.98" fill="#19223f"/>
          <polygon points="335.09 639 324.95 645.22 336.65 649.98 345.38 650.16 335.44 639 335.09 639" fill="#19223f"/>
          <path d="M319.69,650.36a3.42,3.42,0,0,1,0-.45c0-3.18,4.55-5.76,10.16-5.76S340,646.73,340,649.91a3.59,3.59,0,0,1-.07.65C333.16,650.5,326.42,650.41,319.69,650.36Z" fill="#000828"/>
          <rect x="319.56" y="649.79" width="23.79" height="2.45" transform="translate(662.91 1302.04) rotate(-180)" fill="#ba8f56"/>
          <rect x="341.46" y="649.77" width="6.52" height="2.47" transform="translate(689.44 1302.02) rotate(-180)" fill="#ba8f56"/>
          <polygon points="356.58 649.98 358.17 636 369.38 636 370.72 649.85 356.58 649.98" fill="#19223f"/>
          <polygon points="369.48 639 379.61 645.22 367.91 649.98 359.19 650.16 369.12 639 369.48 639" fill="#19223f"/>
          <path d="M384.88,650.36a3.42,3.42,0,0,0,0-.45c0-3.18-4.55-5.76-10.16-5.76s-10.16,2.58-10.16,5.76a2.88,2.88,0,0,0,.07.65C371.4,650.5,378.14,650.41,384.88,650.36Z" fill="#000828"/>
          <rect x="361.21" y="649.79" width="23.79" height="2.45" fill="#ba8f56"/>
          <rect x="356.58" y="649.77" width="6.52" height="2.47" fill="#ba8f56"/>
          <g id="87254dcc-5967-4aa4-a5af-a2a86c831ce6" data-name="&lt;Group&gt;">
            <circle cx="331.37" cy="298.94" r="22.69" transform="translate(-66.21 96.2) rotate(-15.04)" fill="#ba8f56"/>
            <path d="M315.92,315.61c-2.35-9.77,2.05-19.36,11.31-24.35a22.68,22.68,0,0,1,27.31,4.45s-15.92,28.64-23.17,27.8S315.92,315.61,315.92,315.61Z" fill="#2d2a5f" opacity="0.28" style="mix-blend-mode: multiply"/>
          </g>
          <rect x="319.64" y="294.47" width="67.22" height="77.56" rx="30.25" ry="30.25" fill="#ba8f56"/>
          <path d="M340.58,348.78c0,3.89-2.29,7.05-5.12,7.05s-5.13-3.16-5.13-7.05,2.3-7,5.13-7S340.58,344.89,340.58,348.78Z" fill="#e2aea1"/>
          <use id="81814170-3ed1-43ec-beef-88e4dde03ef4" data-name="New Symbol 106" width="22" height="44.5" transform="translate(343.94 366.53) scale(0.78)" xlink:href="#2c243954-b0aa-4e63-af76-1ec6bde4c963"/>
          <path d="M334.44,334.66v20.65a18.36,18.36,0,0,0,5.88,13.37l10.4,9.8a10.31,10.31,0,0,0,14,0l9.25-8.71a18.36,18.36,0,0,0,5.88-13.36V337.58l-36.22-17.52Z" fill="#fac1b1"/>
          <use width="21.01" height="10.67" transform="translate(353.77 366.19) scale(0.69 0.44)" xlink:href="#99e7e58c-501c-4804-b01d-95ac779c5069"/>
          <g id="bd2d9747-f615-4351-a1e6-03ac986f7d5c" data-name="&lt;Group&gt;">
            <g id="85a49be2-1bfc-405a-8e69-fbca6972265e" data-name="&lt;Group&gt;">
              <g>
                <g id="47185ef4-fd20-4334-89f5-00ad39a0be49" data-name="&lt;Group&gt;">
                  <path d="M351,348.77h0c-1.56,0-2.85-.87-2.85-1.93v-1.72c0-1.06,1.29-1.93,2.85-1.93h0c1.57,0,2.85.87,2.85,1.93v1.72C353.88,347.9,352.6,348.77,351,348.77Z" fill="#67413a"/>
                </g>
                <g id="e777ce1e-cbf5-4d99-9b84-f31692c6b5f0" data-name="&lt;Group&gt;">
                  <path d="M348.06,339.42l-.44-1.79a10.29,10.29,0,0,1,6.62.55l-.73,1.69A8.42,8.42,0,0,0,348.06,339.42Z" fill="#b0593c"/>
                </g>
              </g>
            </g>
            <g id="78741c11-d968-4cb5-9eb8-f5dbc2fbb7f7" data-name="&lt;Group&gt;">
              <g>
                <g id="52a2aa94-8d84-4bca-ab11-853650ddc475" data-name="&lt;Group&gt;">
                  <path d="M373.72,348.77h0c1.56,0,2.85-.87,2.85-1.93v-1.72c0-1.06-1.29-1.93-2.85-1.93h0c-1.57,0-2.85.87-2.85,1.93v1.72C370.87,347.9,372.15,348.77,373.72,348.77Z" fill="#67413a"/>
                </g>
                <g id="488f37bd-cf77-4fb9-a5b1-9d7e857d7949" data-name="&lt;Group&gt;">
                  <path d="M376.69,339.42l.44-1.79a10.29,10.29,0,0,0-6.62.55l.73,1.69A8.42,8.42,0,0,1,376.69,339.42Z" fill="#b0593c"/>
                </g>
              </g>
            </g>
          </g>
        </g>
        <g>
          <path d="M361.28,468.35a3.32,3.32,0,0,1,2.94,3.65,3.15,3.15,0,0,1-.28,1,3.3,3.3,0,0,1-3,1.94l-27.49.48.8-10Z" fill="#fac1b1" stroke="#fac1b1" stroke-miterlimit="10" stroke-width="0.79"/>
          <path d="M297.51,468a7.05,7.05,0,0,1,.53-1.78,6.9,6.9,0,0,1,7-4l29.25,3.18-.8,10-29.08.49A6.86,6.86,0,0,1,297.51,468Z" fill="#0b9b48"/>
        </g>
        <g>
          <g>
            <path d="M370.31,462.81l9.75,8.91a.9.9,0,0,1,.38,1.18l-.46,1-.19.4-.35.71.35-1.11.14-.45-.22.44-.13.27-1.41,2.95.86-2.21-1.17,2.42-9.3.39-2.16.64-.22.06a9.32,9.32,0,0,1-11.56-6.32l-1-3.5Z" fill="#fac1b1"/>
            <g opacity="0.51" style="mix-blend-mode: multiply">
              <polygon points="379.58 474.12 378.17 477.07 379.02 474.86 377.86 477.28 368.56 477.67 366.4 478.31 370.58 473.65 379.71 473.85 379.58 474.12" fill="#fbba9f"/>
            </g>
            <polygon points="379.98 473.86 379.79 474.26 379.44 474.97 379.79 473.86 379.98 473.86" fill="#fbba9f"/>
          </g>
          <path d="M366.32,470.09l-.18-.07,3.6-.27,5.5,1.87-.87,2.12-1.58-.71a6.25,6.25,0,0,1,.4.6,8.37,8.37,0,0,1,1.79.78l1.36-3.29-6.42-2.18-7.06.49,1.95.89A6.42,6.42,0,0,1,366.32,470.09Z" fill="#ff9983"/>
        </g>
      </g>
      <rect x="423.59" y="494.81" width="85.47" height="105.09" fill="#e5bf61"/>
      <rect x="121.24" y="482.81" width="332.38" height="12" fill="#f2cd64"/>
      <path d="M248.47,460.42v2.22h-2.21a5.2,5.2,0,0,0,0,10.39h2.41a8.14,8.14,0,0,0,7.93,6.41H262a8.14,8.14,0,0,0,8.13-8.13V460.47a1.23,1.23,0,0,0-1.23-1.24H249.71A1.2,1.2,0,0,0,248.47,460.42Zm0,10.15h-2.21a2.71,2.71,0,0,1,0-5.42h2.21Z" fill="#fefbfe"/>
      <rect x="244" y="479.23" width="28.17" height="3.59" fill="#fefbfe"/>
      <path d="M248.48,462l0,10.62a8,8,0,0,0,8.08,6.83l5.52-.07c4.57,0,8.18-3.16,8.18-7.73L270,462Z" fill="#67008d"/>
    </g>
  </g>
</svg>
