<svg xmlns="http://www.w3.org/2000/svg" xmlns:xlink="http://www.w3.org/1999/xlink" width="700" height="700" viewBox="0 0 700 700">
  <defs>
    <clipPath id="d081ed35-2962-4cc4-a889-216e66751edd">
      <circle cx="344.98" cy="347.42" r="279.44" fill="none"/>
    </clipPath>
    <symbol id="3eaa5777-339e-4942-9fe6-dc043412acf1" data-name="ÕÓ‚˚È ÒËÏ‚ÓÎ 10" viewBox="0 0 7 6.67">
      <ellipse cx="3.5" cy="3.33" rx="3.5" ry="3.33" fill="#ff9983"/>
    </symbol>
  </defs>
  <title>elena-4</title>
  <g style="isolation: isolate">
    <g id="22f3d768-ab2a-4a88-af2f-1acec15829b9" data-name="back8">
      <rect y="-4.8" width="701.05" height="703.44" fill="#f4e6bb"/>
      <g clip-path="url(#d081ed35-2962-4cc4-a889-216e66751edd)">
        <g>
          <circle cx="344.98" cy="347.42" r="279.44" fill="#ffdc6c"/>
          <path d="M-6,329H173s-21.25-15.58-37-19.62-28.74-11-39.56-4.51S75,314.47,69,312.57s-28-10.49-41.33-3.19S-27.67,329-27.67,329Z" fill="#fff" opacity="0.4"/>
          <g opacity="0.43">
            <path d="M522.23,326a5.15,5.15,0,1,1-3.32,6.49A5.15,5.15,0,0,1,522.23,326Z" fill="#fff"/>
            <path d="M107.73,127.31a5.15,5.15,0,1,1-3.32,6.49A5.16,5.16,0,0,1,107.73,127.31Z" fill="#fff"/>
            <path d="M455.51,164.46a5.15,5.15,0,1,1-3.32,6.49A5.15,5.15,0,0,1,455.51,164.46Z" fill="#fff"/>
            <path d="M618,457.07a2.17,2.17,0,1,1-1.4,2.73A2.18,2.18,0,0,1,618,457.07Z" fill="#fff"/>
            <path d="M455.12,247.87a2.17,2.17,0,1,1-2.93.92A2.16,2.16,0,0,1,455.12,247.87Z" fill="#fff"/>
            <path d="M39.26,159.73a2.17,2.17,0,1,1-1.4,2.74A2.17,2.17,0,0,1,39.26,159.73Z" fill="#fff"/>
            <path d="M452.16,95.51a2.17,2.17,0,1,1-2.94.91A2.16,2.16,0,0,1,452.16,95.51Z" fill="#fff"/>
            <path d="M578.14,177.5a2.17,2.17,0,1,1-2.93.92A2.17,2.17,0,0,1,578.14,177.5Z" fill="#fff"/>
            <path d="M379.46,196.08a2.17,2.17,0,1,1-2.93.91A2.18,2.18,0,0,1,379.46,196.08Z" fill="#fff"/>
            <path d="M557.36,101.77a2.17,2.17,0,1,1-2.93.92A2.16,2.16,0,0,1,557.36,101.77Z" fill="#fff"/>
            <path d="M316.3,215.74a2.17,2.17,0,1,1,.92,2.94A2.18,2.18,0,0,1,316.3,215.74Z" fill="#fff"/>
            <path d="M350.68,168.19a2.17,2.17,0,1,1,.92,2.93A2.17,2.17,0,0,1,350.68,168.19Z" fill="#fff"/>
            <path d="M566.85,395a2.17,2.17,0,1,1,.91,2.93A2.17,2.17,0,0,1,566.85,395Z" fill="#fff"/>
            <path d="M500.75,363.89a2.17,2.17,0,1,1,.92,2.93A2.17,2.17,0,0,1,500.75,363.89Z" fill="#fff"/>
            <path d="M440,397.57a4.73,4.73,0,1,1-5.95-3.05A4.72,4.72,0,0,1,440,397.57Z" fill="#fff"/>
            <path d="M351.07,256.09a5.15,5.15,0,1,1-6.49-3.32A5.15,5.15,0,0,1,351.07,256.09Z" fill="#fff"/>
            <path d="M573.88,490.12a5.15,5.15,0,1,1-6.49-3.33A5.15,5.15,0,0,1,573.88,490.12Z" fill="#fff"/>
            <path d="M269.32,205a5.83,5.83,0,1,1-7.34-3.76A5.83,5.83,0,0,1,269.32,205Z" fill="#fff"/>
            <path d="M506.7,303.31a2.17,2.17,0,1,1-2.74-1.4A2.17,2.17,0,0,1,506.7,303.31Z" fill="#fff"/>
            <path d="M430,204.91a2.17,2.17,0,1,1-2.74-1.4A2.18,2.18,0,0,1,430,204.91Z" fill="#fff"/>
            <path d="M539.2,450.07a2.17,2.17,0,1,1-2.73-1.4A2.18,2.18,0,0,1,539.2,450.07Z" fill="#fff"/>
            <path d="M400.29,315.5a2.17,2.17,0,1,1-2.73-1.4A2.18,2.18,0,0,1,400.29,315.5Z" fill="#fff"/>
            <path d="M568.14,306.82a2.17,2.17,0,1,1-2.74-1.4A2.17,2.17,0,0,1,568.14,306.82Z" fill="#fff"/>
            <path d="M516.69,121.75a2.17,2.17,0,1,1-.92-2.93A2.16,2.16,0,0,1,516.69,121.75Z" fill="#fff"/>
            <path d="M403.8,149.55a2.17,2.17,0,1,1-.91-2.93A2.16,2.16,0,0,1,403.8,149.55Z" fill="#fff"/>
            <path d="M256.16,124.07a2.18,2.18,0,1,1-2.74-1.4A2.19,2.19,0,0,1,256.16,124.07Z" fill="#fff"/>
            <path d="M577.26,367.53a2.17,2.17,0,1,1-2.74-1.4A2.18,2.18,0,0,1,577.26,367.53Z" fill="#fff"/>
            <path d="M604.83,89.64a2.17,2.17,0,0,1-3.85-2,2.17,2.17,0,1,1,3.85,2Z" fill="#fff"/>
            <path d="M596.69,192.9a2.17,2.17,0,1,1-.92-2.93A2.17,2.17,0,0,1,596.69,192.9Z" fill="#fff"/>
            <path d="M64.86,116.56a2.17,2.17,0,1,1-.91-2.93A2.17,2.17,0,0,1,64.86,116.56Z" fill="#fff"/>
            <path d="M273.13,184.8a2.17,2.17,0,1,1-1.4,2.74A2.18,2.18,0,0,1,273.13,184.8Z" fill="#fff"/>
            <path d="M402.43,387.22a2.17,2.17,0,1,1-2.93.91A2.16,2.16,0,0,1,402.43,387.22Z" fill="#fff"/>
            <path d="M448.75,346.69a2.17,2.17,0,1,1-2.93.92A2.18,2.18,0,0,1,448.75,346.69Z" fill="#fff"/>
            <path d="M373.09,294.9a2.17,2.17,0,1,1-2.94.92A2.17,2.17,0,0,1,373.09,294.9Z" fill="#fff"/>
            <path d="M523.19,87.71a2.17,2.17,0,1,1-2.94.92A2.17,2.17,0,0,1,523.19,87.71Z" fill="#fff"/>
            <path d="M551,200.6a2.17,2.17,0,1,1-2.93.91A2.16,2.16,0,0,1,551,200.6Z" fill="#fff"/>
            <path d="M324.5,106.28a2.17,2.17,0,1,1-2.93.92A2.17,2.17,0,0,1,324.5,106.28Z" fill="#fff"/>
            <path d="M440,397.57a4.73,4.73,0,1,1-5.95-3.05A4.72,4.72,0,0,1,440,397.57Z" fill="#fff"/>
            <path d="M335.6,296.7a5.15,5.15,0,1,1-6.49-3.32A5.15,5.15,0,0,1,335.6,296.7Z" fill="#fff"/>
            <path d="M205.52,123a5.83,5.83,0,1,1-7.34-3.76A5.83,5.83,0,0,1,205.52,123Z" fill="#fff"/>
            <path d="M506.7,303.31a2.17,2.17,0,1,1-2.74-1.4A2.17,2.17,0,0,1,506.7,303.31Z" fill="#fff"/>
            <path d="M430,204.91a2.17,2.17,0,1,1-2.74-1.4A2.18,2.18,0,0,1,430,204.91Z" fill="#fff"/>
            <path d="M539.2,450.07a2.17,2.17,0,1,1-2.73-1.4A2.18,2.18,0,0,1,539.2,450.07Z" fill="#fff"/>
            <path d="M400.29,315.5a2.17,2.17,0,1,1-2.73-1.4A2.18,2.18,0,0,1,400.29,315.5Z" fill="#fff"/>
            <path d="M516.69,121.75a2.17,2.17,0,1,1-.92-2.93A2.17,2.17,0,0,1,516.69,121.75Z" fill="#fff"/>
            <path d="M256.16,124.07a2.18,2.18,0,1,1-2.74-1.4A2.19,2.19,0,0,1,256.16,124.07Z" fill="#fff"/>
            <path d="M577.26,367.53a2.17,2.17,0,1,1-2.74-1.4A2.18,2.18,0,0,1,577.26,367.53Z" fill="#fff"/>
            <path d="M596.69,192.9a2.17,2.17,0,1,1-.92-2.93A2.17,2.17,0,0,1,596.69,192.9Z" fill="#fff"/>
            <path d="M64.86,116.56a2.17,2.17,0,1,1-.91-2.93A2.17,2.17,0,0,1,64.86,116.56Z" fill="#fff"/>
            <path d="M402.43,387.22a2.17,2.17,0,1,1-2.93.91A2.16,2.16,0,0,1,402.43,387.22Z" fill="#fff"/>
            <path d="M448.75,346.69a2.17,2.17,0,1,1-2.93.92A2.18,2.18,0,0,1,448.75,346.69Z" fill="#fff"/>
            <path d="M492.13,404.43a2.17,2.17,0,1,1-2.93.92A2.18,2.18,0,0,1,492.13,404.43Z" fill="#fff"/>
            <path d="M373.09,294.9a2.17,2.17,0,1,1-2.94.92A2.17,2.17,0,0,1,373.09,294.9Z" fill="#fff"/>
            <path d="M475.58,223.16a2.17,2.17,0,1,1-2.94.92A2.18,2.18,0,0,1,475.58,223.16Z" fill="#fff"/>
            <path d="M523.19,87.71a2.17,2.17,0,1,1-2.94.92A2.17,2.17,0,0,1,523.19,87.71Z" fill="#fff"/>
            <path d="M551,200.6a2.17,2.17,0,1,1-2.93.91A2.16,2.16,0,0,1,551,200.6Z" fill="#fff"/>
            <path d="M324.5,106.28a2.17,2.17,0,1,1-2.93.92A2.17,2.17,0,0,1,324.5,106.28Z" fill="#fff"/>
            <path d="M415.88,88a4.73,4.73,0,1,1,3.05-6A4.72,4.72,0,0,1,415.88,88Z" fill="#fff"/>
            <path d="M459.52,299.71a5.83,5.83,0,1,1,3.76-7.34A5.83,5.83,0,0,1,459.52,299.71Z" fill="#fff"/>
            <path d="M115.14,71.73a2.17,2.17,0,1,1,1.4-2.73A2.17,2.17,0,0,1,115.14,71.73Z" fill="#fff"/>
            <path d="M139,186.22a2.17,2.17,0,1,1,1.4-2.73A2.16,2.16,0,0,1,139,186.22Z" fill="#fff"/>
            <path d="M44.88,75.88A2.17,2.17,0,1,1,47.82,75,2.17,2.17,0,0,1,44.88,75.88Z" fill="#fff"/>
            <path d="M519.54,164.22a2.17,2.17,0,1,1,1.4-2.74A2.17,2.17,0,0,1,519.54,164.22Z" fill="#fff"/>
            <path d="M77,164a2.17,2.17,0,1,1,2.93-.92A2.18,2.18,0,0,1,77,164Z" fill="#fff"/>
            <path d="M396,250.48a2.17,2.17,0,1,1-2.73-1.4A2.17,2.17,0,0,1,396,250.48Z" fill="#fff"/>
            <path d="M184.35,180.93a2.18,2.18,0,1,1-2.74-1.4A2.18,2.18,0,0,1,184.35,180.93Z" fill="#fff"/>
            <path d="M440.38,443.7a2.17,2.17,0,1,1-2.74-1.4A2.17,2.17,0,0,1,440.38,443.7Z" fill="#fff"/>
            <path d="M476.63,315.72a2.17,2.17,0,1,1-2.73-1.4A2.16,2.16,0,0,1,476.63,315.72Z" fill="#fff"/>
            <path d="M417.86,115.38a2.17,2.17,0,1,1-.91-2.94A2.16,2.16,0,0,1,417.86,115.38Z" fill="#fff"/>
            <path d="M305,143.18a2.17,2.17,0,1,1-.92-2.93A2.17,2.17,0,0,1,305,143.18Z" fill="#fff"/>
            <path d="M506,509a2.17,2.17,0,1,1-2.73-1.4A2.17,2.17,0,0,1,506,509Z" fill="#fff"/>
            <path d="M524.07,241.89a2.17,2.17,0,1,1-2.73-1.4A2.17,2.17,0,0,1,524.07,241.89Z" fill="#fff"/>
            <path d="M633.26,487.05a2.17,2.17,0,1,1-2.73-1.4A2.16,2.16,0,0,1,633.26,487.05Z" fill="#fff"/>
            <path d="M497.86,186.53a2.17,2.17,0,1,1-.91-2.93A2.16,2.16,0,0,1,497.86,186.53Z" fill="#fff"/>
            <path d="M251.23,237.79a2.18,2.18,0,1,1-2.74-1.4A2.18,2.18,0,0,1,251.23,237.79Z" fill="#fff"/>
            <path d="M156.42,376.83a5.15,5.15,0,1,1-2.24-6.93A5.15,5.15,0,0,1,156.42,376.83Z" fill="#fff"/>
            <path d="M317.84,443.89A5.15,5.15,0,1,1,315.6,437,5.14,5.14,0,0,1,317.84,443.89Z" fill="#fff"/>
            <path d="M259.13,384.64a2.17,2.17,0,1,1,1.43-2.72A2.17,2.17,0,0,1,259.13,384.64Z" fill="#fff"/>
            <path d="M369,490.28a2.17,2.17,0,1,1,1.43-2.72A2.17,2.17,0,0,1,369,490.28Z" fill="#fff"/>
            <path d="M221.9,521.38a2.17,2.17,0,1,1,1.43-2.72A2.17,2.17,0,0,1,221.9,521.38Z" fill="#fff"/>
            <path d="M349.26,367.76a2.17,2.17,0,1,1,1.42-2.72A2.16,2.16,0,0,1,349.26,367.76Z" fill="#fff"/>
            <path d="M290.15,560.24a2.17,2.17,0,1,1,1.42-2.72A2.16,2.16,0,0,1,290.15,560.24Z" fill="#fff"/>
            <path d="M76.11,359.62a2.17,2.17,0,1,1-2.72-1.43A2.17,2.17,0,0,1,76.11,359.62Z" fill="#fff"/>
            <path d="M144.83,334.86a2.17,2.17,0,1,1-2.72-1.42A2.17,2.17,0,0,1,144.83,334.86Z" fill="#fff"/>
            <path d="M164,268.06a4.73,4.73,0,1,1,6.37-2.05A4.73,4.73,0,0,1,164,268.06Z" fill="#fff"/>
            <path d="M228,192.28A5.15,5.15,0,1,1,235,190,5.15,5.15,0,0,1,228,192.28Z" fill="#fff"/>
            <path d="M183.46,381.91a2.17,2.17,0,1,1,2.93-1A2.18,2.18,0,0,1,183.46,381.91Z" fill="#fff"/>
            <path d="M307.27,397.26a2.17,2.17,0,1,1,2.92-.95A2.17,2.17,0,0,1,307.27,397.26Z" fill="#fff"/>
            <path d="M56.7,301.11a2.17,2.17,0,1,1,2.93-.94A2.17,2.17,0,0,1,56.7,301.11Z" fill="#fff"/>
            <path d="M250.08,298a2.17,2.17,0,1,1,2.93-.94A2.16,2.16,0,0,1,250.08,298Z" fill="#fff"/>
            <path d="M137.54,422.87a2.17,2.17,0,1,1,2.92-.95A2.17,2.17,0,0,1,137.54,422.87Z" fill="#fff"/>
            <path d="M304.78,517.35a2.17,2.17,0,1,1,2.72,1.43A2.17,2.17,0,0,1,304.78,517.35Z" fill="#fff"/>
            <path d="M364.94,417.87a2.17,2.17,0,1,1,2.73,1.42A2.17,2.17,0,0,1,364.94,417.87Z" fill="#fff"/>
            <path d="M88.16,386.39a2.17,2.17,0,1,1,2.92-.95A2.19,2.19,0,0,1,88.16,386.39Z" fill="#fff"/>
            <path d="M197.9,523.61a2.17,2.17,0,1,1,2.72,1.42A2.16,2.16,0,0,1,197.9,523.61Z" fill="#fff"/>
            <path d="M197.86,248.85a2.17,2.17,0,1,1,1.43-2.72A2.17,2.17,0,0,1,197.86,248.85Z" fill="#fff"/>
            <path d="M193.76,310.25a2.17,2.17,0,1,1,1.43-2.72A2.17,2.17,0,0,1,193.76,310.25Z" fill="#fff"/>
            <path d="M283.89,293.37a2.17,2.17,0,1,1,1.42-2.72A2.18,2.18,0,0,1,283.89,293.37Z" fill="#fff"/>
            <path d="M224.78,485.85a2.17,2.17,0,1,1,1.42-2.72A2.16,2.16,0,0,1,224.78,485.85Z" fill="#fff"/>
            <path d="M164,268.06a4.73,4.73,0,1,1,6.37-2.05A4.73,4.73,0,0,1,164,268.06Z" fill="#fff"/>
            <path d="M183.46,381.91a2.17,2.17,0,1,1,2.93-1A2.18,2.18,0,0,1,183.46,381.91Z" fill="#fff"/>
            <path d="M307.27,397.26a2.17,2.17,0,1,1,2-3.87,2.17,2.17,0,0,1-2,3.87Z" fill="#fff"/>
            <path d="M56.7,301.11a2.17,2.17,0,1,1,2.93-.94A2.17,2.17,0,0,1,56.7,301.11Z" fill="#fff"/>
            <path d="M250.08,298a2.17,2.17,0,1,1,2.93-.94A2.16,2.16,0,0,1,250.08,298Z" fill="#fff"/>
            <path d="M304.78,517.35a2.17,2.17,0,1,1,2.72,1.43A2.17,2.17,0,0,1,304.78,517.35Z" fill="#fff"/>
            <path d="M88.16,386.39a2.17,2.17,0,1,1,2.92-.95A2.19,2.19,0,0,1,88.16,386.39Z" fill="#fff"/>
            <path d="M197.9,523.61a2.17,2.17,0,1,1,2.72,1.42A2.16,2.16,0,0,1,197.9,523.61Z" fill="#fff"/>
            <path d="M197.86,248.85a2.17,2.17,0,1,1,1.43-2.72A2.17,2.17,0,0,1,197.86,248.85Z" fill="#fff"/>
            <path d="M193.76,310.25a2.17,2.17,0,1,1,1.43-2.72A2.17,2.17,0,0,1,193.76,310.25Z" fill="#fff"/>
            <path d="M122.26,300.1a2.17,2.17,0,1,1,1.43-2.72A2.17,2.17,0,0,1,122.26,300.1Z" fill="#fff"/>
            <path d="M283.89,293.37a2.17,2.17,0,1,1,1.42-2.72A2.18,2.18,0,0,1,283.89,293.37Z" fill="#fff"/>
            <path d="M262.14,416.57a2.17,2.17,0,1,1,1.43-2.72A2.17,2.17,0,0,1,262.14,416.57Z" fill="#fff"/>
            <path d="M224.78,485.85a2.17,2.17,0,1,1,1.42-2.72A2.16,2.16,0,0,1,224.78,485.85Z" fill="#fff"/>
            <path d="M219.37,351.1a5.83,5.83,0,1,1,2.53,7.84A5.84,5.84,0,0,1,219.37,351.1Z" fill="#fff"/>
            <path d="M272.73,489.34a2.17,2.17,0,1,1,.95,2.93A2.17,2.17,0,0,1,272.73,489.34Z" fill="#fff"/>
            <path d="M299.07,341a2.17,2.17,0,1,1,2.92-.95A2.17,2.17,0,0,1,299.07,341Z" fill="#fff"/>
            <path d="M131.09,235.74a2.17,2.17,0,1,1,2.92-.94A2.16,2.16,0,0,1,131.09,235.74Z" fill="#fff"/>
            <path d="M196,351.87a2.17,2.17,0,1,1,2.92-.94A2.16,2.16,0,0,1,196,351.87Z" fill="#fff"/>
            <path d="M379.17,452a2.17,2.17,0,1,1,2.72,1.42A2.17,2.17,0,0,1,379.17,452Z" fill="#fff"/>
            <path d="M214.61,437.62a2.17,2.17,0,1,1,2.92-.94A2.16,2.16,0,0,1,214.61,437.62Z" fill="#fff"/>
            <path d="M272.29,458.24a2.17,2.17,0,1,1,2.72,1.42A2.18,2.18,0,0,1,272.29,458.24Z" fill="#fff"/>
            <path d="M130.72,550.74a2.17,2.17,0,1,1-2.93.92A2.16,2.16,0,0,1,130.72,550.74Z" fill="#fff"/>
            <path d="M109.94,475a2.17,2.17,0,1,1-2.93.92A2.16,2.16,0,0,1,109.94,475Z" fill="#fff"/>
            <path d="M69.27,495a2.17,2.17,0,1,1-.92-2.94A2.17,2.17,0,0,1,69.27,495Z" fill="#fff"/>
            <path d="M157.41,462.87a2.17,2.17,0,1,1-.91-2.93A2.17,2.17,0,0,1,157.41,462.87Z" fill="#fff"/>
            <path d="M149.27,566.14a2.17,2.17,0,1,1-.92-2.93A2.18,2.18,0,0,1,149.27,566.14Z" fill="#fff"/>
            <path d="M75.77,461a2.17,2.17,0,1,1-2.94.91A2.17,2.17,0,0,1,75.77,461Z" fill="#fff"/>
            <path d="M103.57,573.83a2.17,2.17,0,1,1-2.93.92A2.17,2.17,0,0,1,103.57,573.83Z" fill="#fff"/>
            <path d="M69.27,495a2.17,2.17,0,1,1-.92-2.94A2.17,2.17,0,0,1,69.27,495Z" fill="#fff"/>
            <path d="M149.27,566.14a2.17,2.17,0,1,1-.92-2.93A2.17,2.17,0,0,1,149.27,566.14Z" fill="#fff"/>
            <path d="M28.16,596.4a2.17,2.17,0,1,1-2.94.92A2.17,2.17,0,0,1,28.16,596.4Z" fill="#fff"/>
            <path d="M75.77,461a2.17,2.17,0,1,1-2.94.91A2.17,2.17,0,0,1,75.77,461Z" fill="#fff"/>
            <path d="M103.57,573.83a2.17,2.17,0,1,1-2.93.92A2.17,2.17,0,0,1,103.57,573.83Z" fill="#fff"/>
            <path d="M72.12,537.45a2.17,2.17,0,1,1,1.4-2.73A2.16,2.16,0,0,1,72.12,537.45Z" fill="#fff"/>
            <path d="M76.65,615.12a2.17,2.17,0,1,1-2.73-1.4A2.18,2.18,0,0,1,76.65,615.12Z" fill="#fff"/>
            <path d="M50.45,559.76a2.17,2.17,0,1,1-.92-2.93A2.17,2.17,0,0,1,50.45,559.76Z" fill="#fff"/>
            <path d="M440.83,600.67a2.17,2.17,0,1,1-2.93.92A2.18,2.18,0,0,1,440.83,600.67Z" fill="#fff"/>
            <path d="M420.05,524.94a2.17,2.17,0,1,1-2.93.92A2.17,2.17,0,0,1,420.05,524.94Z" fill="#fff"/>
            <path d="M379.37,544.92a2.17,2.17,0,1,1-.91-2.93A2.17,2.17,0,0,1,379.37,544.92Z" fill="#fff"/>
            <path d="M467.52,512.81a2.17,2.17,0,1,1-.92-2.94A2.17,2.17,0,0,1,467.52,512.81Z" fill="#fff"/>
            <path d="M459.37,616.07a2.17,2.17,0,1,1-.91-2.93A2.17,2.17,0,0,1,459.37,616.07Z" fill="#fff"/>
            <path d="M385.87,510.88a2.17,2.17,0,1,1-2.93.92A2.17,2.17,0,0,1,385.87,510.88Z" fill="#fff"/>
            <path d="M413.67,623.77a2.17,2.17,0,1,1-2.93.91A2.16,2.16,0,0,1,413.67,623.77Z" fill="#fff"/>
            <path d="M379.37,544.92a2.17,2.17,0,1,1-.91-2.93A2.18,2.18,0,0,1,379.37,544.92Z" fill="#fff"/>
            <path d="M459.37,616.07a2.17,2.17,0,1,1-.91-2.93A2.17,2.17,0,0,1,459.37,616.07Z" fill="#fff"/>
            <path d="M338.26,646.33a2.17,2.17,0,1,1-2,3.85,2.17,2.17,0,1,1,2-3.85Z" fill="#fff"/>
            <path d="M385.87,510.88a2.17,2.17,0,1,1-2.93.92A2.17,2.17,0,0,1,385.87,510.88Z" fill="#fff"/>
            <path d="M413.67,623.77a2.17,2.17,0,1,1-2.93.91A2.16,2.16,0,0,1,413.67,623.77Z" fill="#fff"/>
            <path d="M382.23,587.39a2.17,2.17,0,1,1,1.4-2.74A2.17,2.17,0,0,1,382.23,587.39Z" fill="#fff"/>
            <path d="M386.76,665.06a2.17,2.17,0,1,1-2.74-1.4A2.17,2.17,0,0,1,386.76,665.06Z" fill="#fff"/>
            <path d="M360.55,609.7a2.17,2.17,0,1,1-.92-2.93A2.17,2.17,0,0,1,360.55,609.7Z" fill="#fff"/>
          </g>
          <g opacity="0.4">
            <path d="M534.34,158.8c-28-9.5-62.56,19.43-69.26,22.36H568.91S547.49,167.2,534.34,158.8Z" fill="#fff"/>
            <path d="M573.27,171.28c-12.35-4.2-27.64,8.59-30.6,9.88h45.88S579.08,175,573.27,171.28Z" fill="#fff"/>
          </g>
          <g opacity="0.4">
            <path d="M163,219c-28-9.51-62.56,19.43-69.26,22.35H197.59S176.16,227.43,163,219Z" fill="#fff"/>
            <path d="M202,231.51c-12.35-4.19-27.64,8.59-30.6,9.88h45.87S207.76,235.22,202,231.51Z" fill="#fff"/>
          </g>
          <g opacity="0.38">
            <rect x="-107.15" y="234.88" width="450.31" height="287.08" fill="#f7e2a6"/>
            <rect x="343.16" y="181.41" width="281.44" height="340.55" fill="#f7e2a6"/>
            <g>
              <rect x="362.86" y="260.21" width="233.6" height="222.34" fill="#fff" opacity="0.7"/>
              <rect x="362.86" y="260.21" width="233.6" height="11.26" fill="#bd9e52"/>
              <rect x="362.86" y="313.69" width="233.6" height="8.44" fill="#bd9e52"/>
              <rect x="585.2" y="260.21" width="11.26" height="222.34" fill="#bd9e52"/>
              <rect x="362.86" y="260.21" width="11.26" height="222.34" fill="#bd9e52"/>
              <rect x="362.86" y="471.29" width="233.6" height="11.26" fill="#bd9e52"/>
              <rect x="500.77" y="260.21" width="8.44" height="222.34" fill="#bd9e52"/>
            </g>
            <rect x="509.21" y="181.41" width="115.39" height="340.55" fill="#e6e6e6" style="mix-blend-mode: multiply"/>
            <rect x="343.16" y="181.41" width="281.44" height="16.89" fill="#e5bf61"/>
            <rect x="343.16" y="499.44" width="281.44" height="22.52" fill="#e5bf61"/>
            <rect x="-107.15" y="499.44" width="123.84" height="22.52" fill="#bd9e52"/>
            <rect x="216.51" y="499.44" width="126.65" height="22.52" fill="#bd9e52"/>
            <rect x="16.68" y="260.21" width="202.64" height="261.74" fill="#e5bf61"/>
            <rect x="-107.15" y="271.47" width="123.84" height="59.1" fill="#e5bf61"/>
            <rect x="219.32" y="271.47" width="123.84" height="59.1" fill="#e5bf61"/>
            <rect x="-0.21" y="271.47" width="16.89" height="59.1" fill="#f2f2f2" style="mix-blend-mode: multiply"/>
            <rect x="219.32" y="271.47" width="16.89" height="59.1" fill="#f2f2f2" style="mix-blend-mode: multiply"/>
            <rect x="47.64" y="361.53" width="137.91" height="160.42" fill="#fff" opacity="0.7"/>
            <rect x="-98.71" y="341.83" width="104.13" height="140.72" fill="#fff" opacity="0.7"/>
            <rect x="-98.71" y="471.29" width="104.13" height="11.26" fill="#bd9e52"/>
            <g>
              <rect x="-98.71" y="341.83" width="104.13" height="8.44" fill="#bd9e52"/>
              <rect x="-3.02" y="341.83" width="8.44" height="140.72" fill="#bd9e52"/>
              <rect x="-98.71" y="381.23" width="104.13" height="8.44" fill="#bd9e52"/>
            </g>
            <g>
              <rect x="230.58" y="341.83" width="104.13" height="140.72" fill="#fff" opacity="0.7"/>
              <rect x="230.58" y="471.29" width="104.13" height="11.26" fill="#bd9e52"/>
              <g>
                <rect x="230.58" y="341.83" width="104.13" height="8.44" fill="#bd9e52"/>
                <rect x="230.58" y="341.83" width="8.44" height="140.72" fill="#bd9e52"/>
                <rect x="323.46" y="341.83" width="11.26" height="140.72" fill="#bd9e52"/>
                <rect x="230.58" y="381.23" width="104.13" height="8.44" fill="#bd9e52"/>
              </g>
            </g>
            <rect x="6.55" y="241.75" width="220.43" height="19.81" rx="9.81" ry="9.81" fill="#bd9e52"/>
            <rect x="16.68" y="260.21" width="202.64" height="11.26" fill="#e0e0e0" style="mix-blend-mode: multiply"/>
            <rect x="47.64" y="476.92" width="137.91" height="45.03" fill="#e5bf61"/>
            <rect x="47.64" y="361.53" width="11.26" height="160.42" fill="#8b715d"/>
            <rect x="47.64" y="361.53" width="11.26" height="160.42" fill="#bd9e52"/>
            <rect x="112.37" y="361.53" width="11.26" height="160.42" fill="#bd9e52"/>
            <rect x="47.64" y="361.53" width="137.91" height="8.44" fill="#bd9e52"/>
            <rect x="174.29" y="361.53" width="11.26" height="160.42" fill="#bd9e52"/>
            <rect x="47.64" y="386.86" width="137.91" height="11.26" fill="#bd9e52"/>
            <rect x="16.68" y="330.57" width="22.51" height="191.38" fill="#bd9e52"/>
            <rect x="196.81" y="330.57" width="22.51" height="191.38" fill="#bd9e52"/>
            <rect x="8.24" y="499.44" width="8.44" height="22.52" fill="#e6e6e6" style="mix-blend-mode: multiply"/>
            <rect x="219.32" y="499.44" width="8.44" height="22.52" fill="#e6e6e6" style="mix-blend-mode: multiply"/>
            <rect x="16.68" y="330.57" width="202.64" height="19.7" fill="#bd9e52"/>
            <g>
              <rect x="99.06" y="422.73" width="7.74" height="36.78" rx="3.83" ry="3.83" fill="#ffd878"/>
              <rect x="100.27" y="426.6" width="3.87" height="29.04" rx="1.92" ry="1.92" fill="#262626" style="mix-blend-mode: screen"/>
            </g>
            <g>
              <rect x="128.45" y="422.73" width="7.74" height="36.78" rx="3.83" ry="3.83" fill="#ffd878"/>
              <rect x="129.66" y="426.6" width="3.87" height="29.04" rx="1.92" ry="1.92" fill="#262626" style="mix-blend-mode: screen"/>
            </g>
            <path d="M109.23,517.08H62.38a3.72,3.72,0,0,1-3.82-3.61V485.6A3.72,3.72,0,0,1,62.38,482h46.85a3.72,3.72,0,0,1,3.82,3.61v27.87A3.72,3.72,0,0,1,109.23,517.08Z" fill="#bd9e52"/>
            <path d="M172.49,517.08H125.64a3.72,3.72,0,0,1-3.82-3.61V485.6a3.72,3.72,0,0,1,3.82-3.61h46.85a3.72,3.72,0,0,1,3.82,3.61v27.87A3.72,3.72,0,0,1,172.49,517.08Z" fill="#bd9e52"/>
          </g>
        </g>
      </g>
    </g>
    <g id="9cc6d825-6d49-4415-b62b-07ef36f5d584" data-name="img8">
      <g>
        <rect x="328.43" y="635.57" width="11.08" height="5.18" fill="#fac1b1"/>
        <g id="67a0e515-0b4b-4fb5-ba57-6079cfaf18e8" data-name="&lt;Group&gt;">
          <circle cx="346.19" cy="188.37" r="20.09" transform="translate(83.31 482.02) rotate(-76.72)" fill="#ba8f56"/>
          <g opacity="0.28" style="mix-blend-mode: multiply">
            <path d="M326.76,195.59a20.09,20.09,0,0,1,38.85,0Z" fill="#2d2a5f"/>
          </g>
        </g>
        <g>
          <path d="M312.8,408.91a14.91,14.91,0,0,0-2.9,10.54l11.82,109.77A9.75,9.75,0,0,0,331.84,538h0a9.75,9.75,0,0,0,9.32-9.45l3.55-111.87a9.71,9.71,0,0,0-2.84-7.19l-4.58-4.58a14.58,14.58,0,0,0-21,.35l-3.49,3.65Z" fill="#fac1b1"/>
          <path d="M321.09,526.07l7.52,111.66H339.7l1.19-111.26L339,523.69c-4.4-6.52-14.13-4.5-17.93,2.38Z" fill="#fac1b1"/>
          <g id="85b5702c-a70a-4902-a466-e57ac98fcec0" data-name="&lt;Group&gt;">
            <path d="M378.34,408.91a14.9,14.9,0,0,1,2.89,10.54L369.41,529.22A9.74,9.74,0,0,1,359.3,538h0A9.74,9.74,0,0,1,350,528.5l-3.56-111.87a9.75,9.75,0,0,1,2.85-7.19l4.58-4.58a14.58,14.58,0,0,1,21,.35l3.49,3.65Z" fill="#fac1b1"/>
          </g>
          <path d="M370.05,526.07l-7.52,111.66H351.44l-1.19-111.26,1.87-2.78c4.4-6.52,14.13-4.5,17.93,2.38Z" fill="#fac1b1"/>
        </g>
        <g id="cd6136fe-a0ce-4571-9121-4f4003932e40" data-name="&lt;Group&gt;">
          <path d="M376.28,397.3l-30.09.78-30.1-.78-3.16,5.79A46.49,46.49,0,0,0,307.32,428l4,72.3H381l4-72.3a46.49,46.49,0,0,0-5.61-24.86Z" fill="#000429"/>
        </g>
        <g>
          <path d="M302.46,307.43,295.33,386a7.92,7.92,0,0,0,5.46,8.25h0a7.93,7.93,0,0,0,10.21-6l15-77.39a11.9,11.9,0,0,0-8.39-13.71h0A11.9,11.9,0,0,0,302.46,307.43Z" fill="#281d1d"/>
          <path d="M291.89,428.3a3.33,3.33,0,0,0,2.93,3.68,3.2,3.2,0,0,0,1.07,0,3.33,3.33,0,0,0,2.55-2.48L305,402.61l-10-1.42Z" fill="#fac1b1"/>
          <path d="M303.12,379.19a8.24,8.24,0,0,0-8.72,7.31l-4,35.13,11.95,1.69,8.22-33.95A8.25,8.25,0,0,0,303.12,379.19Z" fill="#281d1d"/>
          <g>
            <path d="M293.62,446.33l3.07,6.2a3.76,3.76,0,0,1-1,4.62h0l-4.87-10.31Z" fill="#fc8883"/>
            <path d="M302.83,448.67h0l-.65-14.48-.2-.05.17-.81-4-6.7-4.07-.2a1.77,1.77,0,0,0-1.8,1.37l-3.57,15.8,3.84,15.76.25-.14a4.12,4.12,0,0,0,2.06-3.67l-.15-6.89,4.29-9.12,1.3,7.74A1.84,1.84,0,0,0,302.83,448.67Z" fill="#fac1b1" stroke="#fac1b1" stroke-miterlimit="10" stroke-width="1.07"/>
          </g>
        </g>
        <path d="M373.08,291.81l48-5.21c2.25-.24,4.1,2,4.46,5.33h0c.46,4.3-1.68,8.77-4.57,9.53l-48,12.69c-3.75,1-7-2.56-7.48-8.2h0C364.92,299.15,368.56,292.36,373.08,291.81Z" fill="#281d1d"/>
        <g>
          <path d="M383.41,263.05a3.88,3.88,0,0,1,0-4.64,3.17,3.17,0,0,1,.69-.68,2.25,2.25,0,0,1,2.84.12L404.4,273.2l-5.53,7.68Z" fill="#fac1b1"/>
          <path d="M423,298.88a8.4,8.4,0,0,1-1.65,1.53,6.23,6.23,0,0,1-8.58-1l-25.26-28.72,9-8.71,26,22.95C426.16,288.09,426.38,294.78,423,298.88Z" fill="#281d1d"/>
        </g>
        <g>
          <rect x="309.16" y="391.83" width="74.05" height="28.51" rx="13.79" ry="13.79" fill="#000429"/>
          <path d="M316.21,343.39a101.86,101.86,0,0,1-1.31,35.25L310.76,398H382l-4.14-19.34a101.86,101.86,0,0,1-1.32-35.25l5.53-40.2a6.91,6.91,0,0,0-3.6-7.05l-21.17-11.25a23.3,23.3,0,0,0-21.86,0l-21.17,11.25a6.91,6.91,0,0,0-3.6,7.05Z" fill="#222247"/>
        </g>
        <path d="M346.43,412h41.64l-2.94-109.08a7.5,7.5,0,0,0-4.15-7.7l-22.6-11.37a26.73,26.73,0,0,0-23.9,0l-22.59,11.36a7.46,7.46,0,0,0-4.16,7.68L304.79,412h41.64s.25-71.55.25-74.61L328.27,306.9c0-9.41,8-17.07,18-17.07s18,7.66,18,17.07l-17.52,30.49C346.68,340.45,346.43,412,346.43,412Z" fill="#1e1515"/>
        <rect x="311.87" y="190.28" width="68.64" height="79.2" rx="30.89" ry="30.89" fill="#ba8f56"/>
        <path d="M346.65,381.25,379,302.92a7.9,7.9,0,0,0-3.48-7.7l-18.91-11.37a19.14,19.14,0,0,0-20,0l-18.91,11.36a7.87,7.87,0,0,0-3.48,7.68l32.39,78.36s.21-40.8.21-43.86L331.45,306.9c0-9.41,6.71-17.07,15-17.07s15,7.66,15,17.07l-14.66,30.49C346.86,340.45,346.65,381.25,346.65,381.25Z" fill="#281d1d"/>
        <g>
          <ellipse cx="323.02" cy="245.74" rx="5.01" ry="7.19" fill="#e2aea1"/>
          <ellipse cx="368.75" cy="245.74" rx="5.22" ry="7.19" fill="#e2aea1"/>
        </g>
        <g id="8046970c-3a1f-48b6-9976-841bcdee5846" data-name="&lt;Group&gt;">
          <rect x="337.47" y="265.91" width="17.42" height="35.24" rx="6.93" ry="6.93" fill="#fac1b1"/>
          <path d="M354.9,272.84v16.28c-4.59-2.93-12.19-7.73-17.43-10.8v-5.48a7,7,0,0,1,6.93-6.93H348A7,7,0,0,1,354.9,272.84Z" fill="#e2aea1"/>
        </g>
        <path d="M323,233v20.07a17.44,17.44,0,0,0,6,13l10.62,9.53a10.92,10.92,0,0,0,14.26,0l9.43-8.46a17.46,17.46,0,0,0,6-13V235.86l-37-17Z" fill="#fac1b1"/>
        <g id="2ae03166-35c7-48d2-abca-7b62ae87396a" data-name="&lt;Group&gt;">
          <g id="cf98432f-9bda-4b03-a55b-70790e09d759" data-name="&lt;Group&gt;">
            <g>
              <g id="8b3df439-7547-4b10-a622-ce2de12aa548" data-name="&lt;Group&gt;">
                <path d="M334.84,245h0c-1.56,0-2.85-.86-2.85-1.93v-1.72c0-1.06,1.29-1.93,2.85-1.93h0c1.57,0,2.85.87,2.85,1.93V243C337.69,244.11,336.41,245,334.84,245Z" fill="#67413a"/>
              </g>
              <g id="4d750e9d-2a94-45a7-b031-60e4baf0c045" data-name="&lt;Group&gt;">
                <path d="M331.87,235.62l-.44-1.79a10.29,10.29,0,0,1,6.62.55l-.73,1.69A8.42,8.42,0,0,0,331.87,235.62Z" fill="#b0593c"/>
              </g>
            </g>
          </g>
          <g id="c728ef39-e985-4abb-86e2-74c43c4fe8fc" data-name="&lt;Group&gt;">
            <g>
              <g id="e23acf2c-611d-468c-97b9-d7835e2209b6" data-name="&lt;Group&gt;">
                <path d="M357.53,245h0c1.56,0,2.85-.86,2.85-1.93v-1.72c0-1.06-1.29-1.93-2.85-1.93h0c-1.57,0-2.85.87-2.85,1.93V243C354.68,244.11,356,245,357.53,245Z" fill="#67413a"/>
              </g>
              <g id="ae190d19-c9a0-4d0d-b76e-a7275480f185" data-name="&lt;Group&gt;">
                <path d="M360.5,235.62l.44-1.79a10.29,10.29,0,0,0-6.62.55l.73,1.69A8.42,8.42,0,0,1,360.5,235.62Z" fill="#b0593c"/>
              </g>
            </g>
          </g>
        </g>
        <ellipse cx="333.92" cy="636.34" rx="5.58" ry="3.79" fill="#fac1b1"/>
        <polygon points="340.98 650.98 339.39 637 328.18 637 326.85 650.85 340.98 650.98" fill="#1e1515"/>
        <polygon points="328.09 640 317.95 646.22 329.65 650.98 338.38 651.16 328.44 640 328.09 640" fill="#1e1515"/>
        <path d="M312.69,651.36a3.42,3.42,0,0,1,0-.45c0-3.18,4.55-5.76,10.16-5.76S333,647.73,333,650.91a3.59,3.59,0,0,1-.07.65C326.16,651.5,319.42,651.41,312.69,651.36Z" fill="#1e1515"/>
        <rect x="312.56" y="650.79" width="23.79" height="2.45" transform="translate(648.91 1304.04) rotate(-180)" fill="#ba8f56"/>
        <rect x="334.46" y="650.77" width="6.52" height="2.47" transform="translate(675.44 1304.02) rotate(-180)" fill="#ba8f56"/>
        <rect x="304.92" y="407.25" width="83.15" height="51" fill="#1e1515"/>
        <g>
          <path d="M385,249.4l-4-8.64c-.64-.32-1.91-2.25-2.28-2.52l-1.19.19-.88.14-2.2.36-.86,1.64.23,1.13,1.91,6.36.35,4.22-1.69-3.44a22.18,22.18,0,0,0-2.17-2.37c-.49-.46-1.05-.51-1.17-.15l-.45,1.33c-.06.15,1.45,2.52,1.61,2.86a18.62,18.62,0,0,1,1.14,3.19,12.5,12.5,0,0,0,1.1,3.36,36.76,36.76,0,0,0,4,4.2,3.17,3.17,0,0,0,2.74.78l3.24-.77a.78.78,0,0,0,.21,0c.5-.12.61-.48.7-1Z" fill="#fac1b1"/>
          <polygon points="375.04 238.84 379.96 249.64 379.45 250.02 374.52 239.22 375.04 238.84" fill="#ff9983"/>
          <polygon points="376.65 238.57 377.54 238.43 382.23 248.61 381.72 249.01 376.65 238.57" fill="#ff9983"/>
        </g>
        <rect x="371.18" y="232.82" width="4.94" height="30.39" rx="0.98" ry="0.98" transform="translate(723.69 528.36) rotate(-174.88)" fill="#67008d"/>
        <path d="M384,258.18c-3.65-.75-6.18-3.2-7.92-6.22l0,.32-1.69-3.44a22.18,22.18,0,0,0-2.17-2.37c-.49-.46-1.05-.51-1.17-.15l-.45,1.33c-.06.15,1.45,2.52,1.61,2.86a18.62,18.62,0,0,1,1.14,3.19,12.5,12.5,0,0,0,1.1,3.36,36.76,36.76,0,0,0,4,4.2,3.17,3.17,0,0,0,2.74.78l3.24-.77a.78.78,0,0,0,.21,0c.5-.12.61-.48.7-1l.34-1.87A9.8,9.8,0,0,1,384,258.18Z" fill="#fac1b1"/>
        <polygon points="324 613 342 613 340.98 650.77 324.45 642.45 326.17 640.12 324 613" fill="#281d1d"/>
        <polygon points="349.57 650.98 351.16 637 362.37 637 363.71 650.85 349.57 650.98" fill="#1e1515"/>
        <polygon points="362.47 640 372.6 646.22 360.91 650.98 352.18 651.16 362.11 640 362.47 640" fill="#1e1515"/>
        <path d="M377.87,651.36a3.42,3.42,0,0,0,0-.45c0-3.18-4.55-5.76-10.16-5.76s-10.16,2.58-10.16,5.76a3.59,3.59,0,0,0,.07.65C364.4,651.5,371.13,651.41,377.87,651.36Z" fill="#1e1515"/>
        <rect x="354.21" y="650.79" width="23.79" height="2.45" fill="#ba8f56"/>
        <rect x="349.57" y="650.77" width="6.52" height="2.47" fill="#ba8f56"/>
        <polygon points="366.56 613 348.56 613 349.57 650.77 366.1 642.45 364.39 640.12 366.56 613" fill="#281d1d"/>
        <rect x="342.67" y="365.61" width="8.67" height="91.55" fill="#281d1d"/>
        <rect x="335.46" y="284.89" width="22.17" height="18.11" rx="2.85" ry="2.85" fill="#222247"/>
        <g>
          <use width="7" height="6.67" transform="translate(327.7 248.01) scale(1.01)" xlink:href="#3eaa5777-339e-4942-9fe6-dc043412acf1"/>
          <use id="8308fff6-c208-416c-a001-568e9eb6bdda" data-name="ÕÓ‚˚È ÒËÏ‚ÓÎ 10" width="7" height="6.67" transform="translate(357.61 248.01) scale(1.01)" xlink:href="#3eaa5777-339e-4942-9fe6-dc043412acf1"/>
        </g>
        <path d="M350.12,261h-7.5c-4.12,0-3.39,3.15-3.39,3.15a8.8,8.8,0,0,0,15,0C354.48,261.68,350.12,261,350.12,261Z" fill="#fff"/>
      </g>
      <path d="M537.44,565c-29.85-10.15-66.81,20.75-74,23.87H574.36S551.48,574,537.44,565Z" fill="#fff"/>
      <path d="M141.82,520.05c13.68-4.08,35.74-14,49.92-6.86s15,5.66,19.41,2.44,45.66-23.54,62.4-11.8,44,31.17,44,31.17H110.36S128.14,524.13,141.82,520.05Z" fill="#fff"/>
    </g>
  </g>
</svg>
