<svg xmlns="http://www.w3.org/2000/svg" xmlns:xlink="http://www.w3.org/1999/xlink" width="700" height="700" viewBox="0 0 700 700">
  <defs>
    <clipPath id="8f4ed174-de66-41e2-a29d-ad17b59a8975">
      <circle cx="344.98" cy="347.42" r="279.44" fill="none"/>
    </clipPath>
    <linearGradient id="fef0fa1d-cdfc-4468-a9c0-cd7efc524d21" x1="443.33" y1="70" x2="443.33" y2="764" gradientUnits="userSpaceOnUse">
      <stop offset="0" stop-color="#fff"/>
      <stop offset="1" stop-color="#fff" stop-opacity="0"/>
    </linearGradient>
    <linearGradient id="7d2178c8-78c0-4ab9-8fce-7f21daf698d8" x1="-192.99" y1="1315.15" x2="-192.99" y2="1402.15" gradientTransform="translate(1486.19 538.81) rotate(90)" xlink:href="#fef0fa1d-cdfc-4468-a9c0-cd7efc524d21"/>
    <linearGradient id="dd3c7ace-46b1-43f5-87eb-dca0455c5676" x1="-135.59" y1="1179.69" x2="-135.59" y2="1296.69" gradientTransform="translate(1486.19 538.81) rotate(90)" xlink:href="#fef0fa1d-cdfc-4468-a9c0-cd7efc524d21"/>
    <linearGradient id="deadccd8-0f7d-4d27-8def-e1dcb60fcff3" x1="-163.68" y1="1128.25" x2="-163.68" y2="1215.25" gradientTransform="translate(1486.19 538.81) rotate(90)" xlink:href="#fef0fa1d-cdfc-4468-a9c0-cd7efc524d21"/>
    <symbol id="f7f407b3-ac70-4624-a613-6cbdbacd2504" data-name="New Symbol 23" viewBox="0 0 3.26 4.72">
      <path d="M1.63,4.72h0A1.63,1.63,0,0,1,0,3.09V1.63A1.63,1.63,0,0,1,1.63,0h0A1.63,1.63,0,0,1,3.26,1.63V3.09A1.63,1.63,0,0,1,1.63,4.72Z" fill="#67413a"/>
    </symbol>
    <symbol id="2dcb944b-faa2-4dbf-be41-458ec737ce48" data-name="New Symbol 32" viewBox="0 0 3.79 1.46">
      <path d="M.25,1.2,0,.18A5.87,5.87,0,0,1,3.79.49l-.42,1A4.9,4.9,0,0,0,.25,1.2Z" fill="#b0593c"/>
    </symbol>
  </defs>
  <title>elena-2</title>
  <g style="isolation: isolate">
    <g id="49d0f1d0-0b60-4411-8b40-7d8d5b592c47" data-name="back6">
      <rect y="-4.8" width="701.05" height="703.44" fill="#f4e6bb"/>
      <circle cx="344.98" cy="347.42" r="279.44" fill="#ffdc6c"/>
      <g clip-path="url(#8f4ed174-de66-41e2-a29d-ad17b59a8975)">
        <g>
          <polyline points="288.58 386.53 266.95 394.2 285.64 398.02" fill="#272749"/>
          <circle cx="345.38" cy="348.05" r="277.95" fill="#ffdc6c"/>
          <polygon points="551.76 70 334.91 70 158.01 764 728.66 764 551.76 70" opacity="0.4" fill="url(#fef0fa1d-cdfc-4468-a9c0-cd7efc524d21)"/>
          <g>
            <g>
              <rect x="334.22" y="54.75" width="292.88" height="200.49" fill="#e5bf61"/>
              <g opacity="0.41">
                <rect x="345.11" y="65.58" width="270.52" height="178.84" fill="#fff"/>
              </g>
              <rect x="345.11" y="116.91" width="275.86" height="9.3" fill="#e5bf61"/>
            </g>
            <path d="M418.53,154.11a4.68,4.68,0,1,1,3-5.9A4.69,4.69,0,0,1,418.53,154.11Z" fill="#fff"/>
            <path d="M418.87,78.36a2,2,0,1,1,2.67-.84A2,2,0,0,1,418.87,78.36Z" fill="#fff"/>
            <path d="M421.57,216.73a2,2,0,1,1,2.66-.83A2,2,0,0,1,421.57,216.73Z" fill="#fff"/>
            <path d="M446.2,107.93a2,2,0,1,1,2.48,1.28A2,2,0,0,1,446.2,107.93Z" fill="#fff"/>
            <path d="M363,192.89a2,2,0,1,1,.84,2.67A2,2,0,0,1,363,192.89Z" fill="#fff"/>
            <path d="M465.48,167.64a2,2,0,1,1,.84,2.67A2,2,0,0,1,465.48,167.64Z" fill="#fff"/>
            <path d="M357.06,223.81a2,2,0,1,1,2.67-.84A2,2,0,0,1,357.06,223.81Z" fill="#fff"/>
            <path d="M443.66,149.35a2,2,0,1,1,2.48,1.27A2,2,0,0,1,443.66,149.35Z" fill="#fff"/>
            <path d="M388.38,187.51a2,2,0,1,1,.83,2.67A2,2,0,0,1,388.38,187.51Z" fill="#fff"/>
            <path d="M400.3,100.79A2,2,0,1,1,403,100,2,2,0,0,1,400.3,100.79Z" fill="#fff"/>
            <path d="M357.06,223.81a2,2,0,1,1,2.67-.83A2,2,0,0,1,357.06,223.81Z" fill="#fff"/>
            <path d="M454.52,223.59a4.29,4.29,0,1,1-2.77,5.41A4.29,4.29,0,0,1,454.52,223.59Z" fill="#fff"/>
            <path d="M360.37,154.33a2,2,0,1,1-1.27,2.48A2,2,0,0,1,360.37,154.33Z" fill="#fff"/>
            <path d="M472.53,76A2,2,0,1,1,475,77.26,2,2,0,0,1,472.53,76Z" fill="#fff"/>
            <path d="M452.71,198.68a2,2,0,1,1,.84,2.67A2,2,0,0,1,452.71,198.68Z" fill="#fff"/>
            <path d="M356.26,83.79a2,2,0,1,1,2.48,1.27A2,2,0,0,1,356.26,83.79Z" fill="#fff"/>
            <path d="M380.06,134.06a2,2,0,1,1,.83,2.67A2,2,0,0,1,380.06,134.06Z" fill="#fff"/>
            <path d="M364.39,107.1a4.68,4.68,0,1,1,3-5.9A4.69,4.69,0,0,1,364.39,107.1Z" fill="#fff"/>
            <path d="M538.65,152.81a4.68,4.68,0,1,1-3,5.9A4.68,4.68,0,0,1,538.65,152.81Z" fill="#fff"/>
            <path d="M538.3,228.56a2,2,0,1,1-2.66.84A2,2,0,0,1,538.3,228.56Z" fill="#fff"/>
            <path d="M535.61,90.19a2,2,0,1,1-2.67.83A2,2,0,0,1,535.61,90.19Z" fill="#fff"/>
            <path d="M515.49,189.55a2,2,0,1,1-2.48-1.27A2,2,0,0,1,515.49,189.55Z" fill="#fff"/>
            <path d="M594.21,114a2,2,0,1,1-.83-2.67A2,2,0,0,1,594.21,114Z" fill="#fff"/>
            <path d="M491.69,139.28a2,2,0,1,1-.83-2.67A2,2,0,0,1,491.69,139.28Z" fill="#fff"/>
            <path d="M600.12,83.11a2,2,0,1,1-2.67.83A2,2,0,0,1,600.12,83.11Z" fill="#fff"/>
            <path d="M515.49,189.55a2,2,0,1,1-2.48-1.27A2,2,0,0,1,515.49,189.55Z" fill="#fff"/>
            <path d="M566.82,84.45a2,2,0,1,1-.83-2.66A2,2,0,0,1,566.82,84.45Z" fill="#fff"/>
            <path d="M556.88,206.13a2,2,0,1,1-2.67.83A2,2,0,0,1,556.88,206.13Z" fill="#fff"/>
            <path d="M600.12,83.11a2,2,0,1,1-2.67.83A2,2,0,0,1,600.12,83.11Z" fill="#fff"/>
            <path d="M502.66,83.33a4.29,4.29,0,1,1,2.77-5.41A4.3,4.3,0,0,1,502.66,83.33Z" fill="#fff"/>
            <path d="M596.81,152.59a2,2,0,1,1,1.27-2.48A2,2,0,0,1,596.81,152.59Z" fill="#fff"/>
            <path d="M484.64,230.93a2,2,0,1,1-2.48-1.27A2,2,0,0,1,484.64,230.93Z" fill="#fff"/>
            <path d="M493.83,100A2,2,0,1,1,493,97.3,2,2,0,0,1,493.83,100Z" fill="#fff"/>
            <path d="M600.92,223.13a2,2,0,1,1-2.49-1.27A2,2,0,0,1,600.92,223.13Z" fill="#fff"/>
            <path d="M577.12,172.86a2,2,0,1,1-.83-2.67A2,2,0,0,1,577.12,172.86Z" fill="#fff"/>
            <path d="M592.79,192.82a4.68,4.68,0,1,1-3,5.9A4.67,4.67,0,0,1,592.79,192.82Z" fill="#fff"/>
          </g>
          <g opacity="0.55">
            <rect x="521.63" y="375.13" width="111.42" height="183.66" transform="translate(1154.69 933.92) rotate(-180)" fill="#e5bf61"/>
            <g opacity="0.12">
              <rect x="521.63" y="375.13" width="64.63" height="45.91" transform="translate(1107.9 796.18) rotate(-180)" fill="#4b2d14"/>
              <rect x="521.63" y="421.05" width="64.63" height="45.91" transform="translate(1107.9 888.01) rotate(-180)" fill="#4b2d14"/>
              <rect x="521.63" y="466.96" width="64.63" height="45.91" transform="translate(1107.9 979.84) rotate(-180)" fill="#4b2d14"/>
              <rect x="521.63" y="512.88" width="64.63" height="45.91" transform="translate(1107.9 1071.67) rotate(-180)" fill="#4b2d14"/>
            </g>
            <rect x="542.61" y="396.05" width="22.33" height="4.03" transform="translate(1107.55 796.13) rotate(-180)" fill="#ffdc6c"/>
            <rect x="542.79" y="438.67" width="22.33" height="4.03" transform="translate(1107.9 881.36) rotate(-180)" fill="#ffdc6c"/>
            <rect x="542.79" y="486.44" width="22.33" height="4.03" transform="translate(1107.9 976.9) rotate(-180)" fill="#ffdc6c"/>
            <rect x="542.79" y="533.82" width="22.33" height="4.03" rx="0.05" ry="0.05" transform="translate(1107.9 1071.67) rotate(-180)" fill="#ffdc6c"/>
          </g>
          <g>
            <g>
              <g>
                <g>
                  <path d="M55.93,428.54c0,5.15,3.41,9.33,7.62,9.33h58.27c4.21,0,7.62-4.18,7.62-9.33V350.23c0-5.15-3.41-9.33-7.62-9.33H63.55c-4.21,0-7.62,4.18-7.62,9.33Z" fill="#bd9e52"/>
                  <path d="M120.75,495V437.68h8.77V495a4.39,4.39,0,1,1-8.77,0Z" fill="#bd9e52"/>
                  <path d="M87.17,495V437.68h8.77V495a4.39,4.39,0,1,1-8.77,0Z" fill="#bd9e52"/>
                  <path d="M93.94,495V437.68h8.78V495a4.4,4.4,0,1,1-8.78,0Z" fill="#bd9e52"/>
                  <path d="M60.36,495V437.68h8.78V495a4.4,4.4,0,1,1-8.78,0Z" fill="#bd9e52"/>
                  <path d="M64.51,430.18H108.7V440H64.51a5,5,0,0,1,0-9.86Z" fill="#bd9e52"/>
                  <path d="M78.14,435.11c0,2.72.72,4.93,1.61,4.93h59.36c.89,0,1.61-2.21,1.61-4.93h0c0-2.72-.72-4.93-1.61-4.93H79.75c-.89,0-1.61,2.21-1.61,4.93Z" fill="#bd9e52"/>
                  <rect x="60.36" y="486.2" width="8.77" height="13.55" fill="#bd9e52"/>
                  <rect x="87.17" y="486.44" width="6.77" height="13.25" fill="#bd9e52"/>
                  <rect x="93.94" y="484.9" width="8.77" height="14.73" fill="#bd9e52"/>
                  <rect x="120.75" y="487.38" width="8.77" height="12.12" fill="#bd9e52"/>
                </g>
                <g>
                  <path d="M99,273.57c0,7.47,0,50.88-29,50.88,9.15-3.78-2.66-36.55-3.48-44-1.55-14.13,8.67-26.76,22-20.41C95.94,263.58,99,266.1,99,273.57Z" fill="#e5bf61"/>
                  <path d="M199.4,493.74h-8s-14.31-1.74-16.73-2.27c-4.69-1-2.56-4.92-2.56-7.29V481l7.33,1.67s16,6.5,19.16,7.88S199.4,493.74,199.4,493.74Z" fill="#e5bf61"/>
                  <path d="M103.85,427.58l5-.29c3.21-.17,7.81-.38,13.3-.52s11.91-.23,18.5,0c1.64.08,3.28.17,4.86.32a41,41,0,0,1,4.2.57l.59.13c.09,0,.15,0-.21-.18-1.33-.87-1.86-2.12-1.39-1.37a38.45,38.45,0,0,1,2.09,4.11c1.44,3.18,2.82,6.58,4.14,9.95s2.59,6.73,3.79,10c2.42,6.53,4.6,12.69,6.45,18s3.34,9.71,4.41,12.8l1.64,4.85L181.77,483,180.62,478c-.76-3.21-1.84-7.78-3.13-13.28s-2.88-11.9-4.66-18.76c-.89-3.44-1.83-7-2.84-10.61s-2.09-7.3-3.36-11.11a55.31,55.31,0,0,0-2.41-6.15,13.07,13.07,0,0,0-4.86-5.64,17.61,17.61,0,0,0-2.71-1.37c-.75-.3-1.43-.53-2.05-.72a52.73,52.73,0,0,0-6.54-1.51c-2-.36-3.91-.62-5.77-.86-7.4-.91-14.08-1.33-19.83-1.66s-10.49-.47-13.84-.57l-5.3-.13Z" fill="#e5bf61"/>
                  <path d="M146.38,399c-28-10.51-40.76-23.55-37.08-69.19l8.62.7c-3.42,42.51,7.5,51.4,31.5,60.4Z" fill="#e5bf61"/>
                  <path d="M111.87,302.75l12.78-3.11s4.6-21.58,3.28-26c-4.62-15.57-18.5-15.57-18.5-15.57Z" fill="#e5bf61"/>
                  <path d="M74.82,413.17c.06,2.58,2.9,17.34,14.26,17.34,22.32,0,30.75-4.38,31.67-12.33C122,407.69,118,402.66,118,402.66l-42.24.16S74.6,403.79,74.82,413.17Z" fill="#e5bf61"/>
                  <path d="M180.46,499.1h-8s-14.32-1.73-16.74-2.26c-4.69-1-2.56-4.93-2.56-7.29V486.4l7.33,1.67s16,6.5,19.16,7.88S180.46,499.1,180.46,499.1Z" fill="#e5bf61"/>
                  <path d="M87.74,430l4.86,0c3.12,0,7.59.12,12.92.32s11.56.52,17.84,1.24c1.56.19,3.11.4,4.55.66.71.13,1.4.27,2,.41s1.09.3,1.18.31,0,0-.57-.47c-.11-.11-.34-.31-.48-.48L130,432l-.3-.34.06.06.11.13c.1.16-.45-.64-.28-.42a7.22,7.22,0,0,1,.82,1.33c.69,1.3,1.4,2.85,2.09,4.42,1.39,3.16,2.71,6.48,4,9.76s2.5,6.57,3.68,9.74c2.34,6.37,4.46,12.35,6.26,17.49s3.25,9.45,4.28,12.45l1.6,4.73,10.55-2.94s-.41-1.79-1.12-4.92-1.78-7.57-3-12.92-2.8-11.57-4.52-18.25c-.86-3.34-1.77-6.8-2.74-10.32s-2-7.09-3.18-10.75c-.6-1.84-1.21-3.68-2-5.69a27.9,27.9,0,0,0-1.66-3.49c-.07-.17-.88-1.33-1.05-1.54l-.1-.13-.05-.07-.35-.4-.12-.13c-.31-.32-.7-.69-1-.94a15.91,15.91,0,0,0-2.85-1.89,28.18,28.18,0,0,0-3.82-1.6c-1.11-.38-2.13-.68-3.13-.95-2-.55-3.85-1-5.66-1.34-7.2-1.46-13.66-2.32-19.24-3S97,408.85,93.78,408.53l-5.15-.47Z" fill="#e5bf61"/>
                  <path d="M80.67,330.69c3.51-4.14,10-6.86,15.27-8.09a27.11,27.11,0,0,1,7.11-.72c2.41,0,4.75-.8,8.57,1.11,2.39,1.19,5.47,3.07,6.11,6.59.52,2.83,1.31,6.85,2.12,11.08.78,4.07,3.54,6.49,3.1,11.61-.68,7.94-4.57,7.89-5,10.59A129.56,129.56,0,0,0,119.21,404s-6.38,2.13-20.88,2.5a79.81,79.81,0,0,1-24.69-3S77.88,334,80.67,330.69Z" fill="#e5bf61"/>
                  <path d="M109.43,334.51c-7.92,0-13.49-11.91-13.49-11.91s1.84-3.15-1.75-6.53c-4-3.73,26.42-1.17,20.85.23s-3.17,7.45-3.17,7.45S117.35,334.51,109.43,334.51Z" fill="#e5bf61"/>
                  <path d="M84.85,302c.68,8.89,11.5,17.48,17.86,17.48,15.41,0,20.27-5.62,21.66-17.48.72-6.17,1-16.42,1-22.24-.08-15.9-6.94-18.21-20.1-18.21-14.14,0-21.43,1.91-21.72,18.21C83.42,286.38,84.38,295.75,84.85,302Z" fill="#f7e2a6"/>
                  <path d="M87.91,401.07c-17-6.39-29.51-22.87-29.62-39.17-.07-9,3.68-25.53,29.55-35.66l3.76,9.6c-15.14,5.92-23.09,14.91-23,26,.08,12,10,24.72,22.94,29.59Z" fill="#e5bf61"/>
                  <path d="M85.83,290.26s-1-7.13-5.52-5.55,1,13.72,3.25,14.69a2.46,2.46,0,0,0,3-.83" fill="#f7e2a6"/>
                  <path d="M85.62,289.13c-.16-2.49-4.69-4.65-6.69-4.65,0-4.08-2.2-11.55,3.91-20.59C88.19,256,105.25,254,114.43,257c17.69,5.83,12.35,22.5,12.35,22.5s-1.52-5.35-9.26-8.87c-5.77,7.36-20,12.23-24.21,15.92-8.44,7.47-4.62,10.8-5,10.34C85.87,294.25,85.62,289.13,85.62,289.13Z" fill="#e5bf61"/>
                </g>
              </g>
              <g>
                <path d="M94,395.19v-2.64c0-2.39,1.42-4.33,3.16-4.33h49.09c1.74,0,3.16,1.94,3.16,4.33v2.64Z" fill="#f9eed7"/>
                <path d="M119,385a3.23,3.23,0,0,0,3.23,3.23h47.42a3.23,3.23,0,0,0,3.23-3.23l5.39-31.79A3.23,3.23,0,0,0,175,350H127.6a3.23,3.23,0,0,0-3.23,3.23Z" fill="#f9eed7"/>
                <path d="M121.68,385a3.23,3.23,0,0,0,3.23,3.23h47.41a3.23,3.23,0,0,0,3.23-3.23l5.39-31.79a3.23,3.23,0,0,0-3.23-3.23H130.3a3.23,3.23,0,0,0-3.23,3.23Z" fill="#f9eed7"/>
                <path d="M119,395.19v-2.64c0-2.39,1.42-4.33,3.16-4.33h49.09c1.74,0,3.15,1.94,3.15,4.33v2.64Z" fill="#f9eed7"/>
              </g>
              <g>
                <path d="M68.07,494.39V400.7h8v93.69c0,3.14-1.78,5.69-4,5.69S68.07,497.53,68.07,494.39Z" fill="#e5bf61"/>
                <path d="M221.41,494.39V400.7h8v93.69c0,3.14-1.79,5.69-4,5.69S221.41,497.53,221.41,494.39Z" fill="#e5bf61"/>
                <path d="M190.9,494.39V400.7h8v93.69c0,3.14-1.79,5.69-4,5.69S190.9,497.53,190.9,494.39Z" fill="#e5bf61"/>
                <path d="M37.57,494.39V400.7h8v93.69c0,3.14-1.78,5.69-4,5.69S37.57,497.53,37.57,494.39Z" fill="#e5bf61"/>
                <path d="M19.39,393.6H68.57v9.34H19.39a4.67,4.67,0,1,1,0-9.34Z" fill="#e5bf61"/>
                <path d="M54.69,398.27a4.76,4.76,0,0,0,4.86,4.67H239.49a4.76,4.76,0,0,0,4.86-4.67h0a4.76,4.76,0,0,0-4.86-4.67H59.55a4.76,4.76,0,0,0-4.86,4.67Z" fill="#e5bf61"/>
                <path d="M194.88,447.17h30.51V437.1H194.88s-1.64,1-1.64,5S194.88,447.17,194.88,447.17Z" fill="#e5bf61"/>
                <path d="M42.46,447.17H73V437.1H42.46s-1.65,1-1.65,5S42.46,447.17,42.46,447.17Z" fill="#e5bf61"/>
                <rect x="68.07" y="483.71" width="7.97" height="16.37" fill="#e5bf61"/>
              </g>
            </g>
            <g>
              <g>
                <g>
                  <rect x="261.05" y="466.96" width="8.96" height="15.44" fill="#bd9e52"/>
                  <path d="M245.79,463.1c0,2.74,1.34,5,3,5h33.48c1.66,0,3-2.23,3-5h0c0-2.74-1.34-5-3-5H248.79c-1.66,0-3,2.22-3,5Z" fill="#bd9e52"/>
                  <path d="M260.57,501.18V482.4c0-1.66,2.22-3,5-3s5,1.35,5,3v18.78Z" fill="#bd9e52"/>
                  <path d="M232.92,458.14a5,5,0,0,0,5,5h55.3a5,5,0,0,0,5-5h0a5,5,0,0,0-5-5h-55.3a5,5,0,0,0-5,5Z" fill="#bd9e52"/>
                  <path d="M222.06,448.6c0,5,3.42,7.89,7.57,7.89H287c4.14,0,3.77-4.69,3.77-9.71l-.43-75.62c0-5-7.78-9.09-11.93-9.09H229.63c-4.15,0-7.51,4.07-7.51,9.09Z" fill="#bd9e52"/>
                  <path d="M226.17,446.78h53.3v9.71h-53.3a4.87,4.87,0,1,1,0-9.71Z" fill="#bd9e52"/>
                  <path d="M249.38,451.63c0,2.68.71,4.86,1.58,4.86h58.46c.87,0,1.58-2.18,1.58-4.86h0c0-2.68-.71-4.85-1.58-4.85H251c-.87,0-1.58,2.17-1.58,4.85Z" fill="#bd9e52"/>
                  <polygon points="260.57 497.6 270.01 497.6 295.44 509.5 289.4 509.5 268.33 502.17 262.5 502.17 243.95 509.5 237.96 509.5 260.57 497.6" fill="#bd9e52"/>
                  <path d="M288,513.94a4.45,4.45,0,1,0,4.45-4.44A4.45,4.45,0,0,0,288,513.94Z" fill="#bd9e52"/>
                  <path d="M298.59,514.77a6.18,6.18,0,1,0-12.35,0Z" fill="#bd9e52"/>
                  <path d="M261.09,513.94a4.45,4.45,0,1,0,4.44-4.44A4.44,4.44,0,0,0,261.09,513.94Z" fill="#bd9e52"/>
                  <path d="M271.71,514.77a6.18,6.18,0,0,0-12.36,0Z" fill="#bd9e52"/>
                  <path d="M236.51,513.94A4.45,4.45,0,1,0,241,509.5,4.44,4.44,0,0,0,236.51,513.94Z" fill="#bd9e52"/>
                  <path d="M247.13,514.77a6.18,6.18,0,1,0-12.35,0Z" fill="#bd9e52"/>
                  <polygon points="260.57 498.09 270.01 498.09 268.54 510.68 262.53 510.68 260.57 498.09" fill="#bd9e52"/>
                </g>
                <g>
                  <path d="M276.48,445.21l4.83-.4c3.11-.23,7.57-.54,12.89-.79s11.55-.47,17.88-.3c1.58,0,3.16.13,4.64.26a29.75,29.75,0,0,1,3.66.5c.13,0,.26,0,.1,0s-.22-.13-.41-.28a3.19,3.19,0,0,1-.43-.34,3,3,0,0,1-.32-.3l-.16-.16-.39-.45.22.25c-.09-.11-.19-.25-.28-.38l-.06-.1s0,0,0,0v0s0,0,.06.05.25.38.41.66c.66,1.15,1.39,2.71,2.08,4.24,1.39,3.13,2.72,6.44,4,9.71s2.51,6.55,3.68,9.72c2.34,6.35,4.46,12.33,6.26,17.46L339.44,497c1,3,1.59,4.72,1.59,4.72l10.4-2.89-1.13-4.92c-.73-3.11-1.77-7.56-3-12.9s-2.8-11.56-4.52-18.23c-.86-3.34-1.77-6.79-2.75-10.3s-2-7.1-3.22-10.77c-.62-1.86-1.23-3.68-2.15-5.8-.23-.53-.5-1.1-.83-1.75l-.3-.52-.15-.27-.09-.15-.16-.24c-.21-.32-.44-.64-.66-.94l-.2-.27a11.5,11.5,0,0,0-2.34-2.12,14.32,14.32,0,0,0-1.58-.95,17.94,17.94,0,0,0-2.4-1,42.16,42.16,0,0,0-6.74-1.66c-2-.35-3.87-.59-5.7-.8-7.27-.81-13.77-1.1-19.38-1.31s-10.22-.26-13.48-.29h-5.16Z" fill="#af914f"/>
                  <path d="M288.69,352c-2.92,36.21,1.57,45.86,23,53.9" fill="#e5bf61"/>
                  <path d="M246.11,430c.06,2.55,2.85,17.08,14,17.08,22,0,33.43-4.93,34.34-12.76a98.46,98.46,0,0,0,0-20.26H246.11S245.89,420.79,246.11,430Z" fill="#e5bf61"/>
                  <path d="M320.5,501.41c3.18.08,6.36.15,9.54.18l2.17,0c-.15-.68-.33-1.46-.54-2.37l-3-12.73c-1.26-5.26-2.76-11.39-4.45-18-.85-3.29-1.74-6.69-2.7-10.16s-2-7-3.13-10.6c-.59-1.81-1.19-3.61-2-5.59a26.57,26.57,0,0,0-1.64-3.44,14,14,0,0,0-1-1.51l-.1-.14-.05-.06c.25.28-.36-.42-.34-.4l-.12-.13c-.31-.32-.69-.68-1-.92a14.75,14.75,0,0,0-2.81-1.86,28.1,28.1,0,0,0-3.75-1.58c-1.1-.37-2.1-.67-3.09-.94-1.95-.53-3.78-.94-5.57-1.31-7.09-1.44-13.45-2.29-18.94-3s-10-1.15-13.22-1.46l-5.07-.47-.88,21.64,4.79,0c3.07,0,7.47.11,12.72.31s11.38.52,17.57,1.23c1.53.18,3.07.39,4.48.65.7.12,1.38.26,2,.4l.51.13c.67,1.26,1.36,2.76,2,4.27,1.36,3.11,2.67,6.38,3.93,9.61s2.46,6.47,3.62,9.6c2.31,6.26,4.39,12.16,6.16,17.22C318.17,494.64,319.5,498.52,320.5,501.41Zm-20.36-53.19,0,0,.09.11c-.1-.14-.38-.56-.25-.4a4.17,4.17,0,0,1,.35.51Z" fill="#af914f"/>
                  <path d="M251.87,348.8c5.34-6.31,17.7-6.75,21.75-6.71,3.86,0,13.29-.91,18.69,5.48,5.77,6.82,2.79,76.43,2.79,76.43H245.7S246.11,355.62,251.87,348.8Z" fill="#e5bf61"/>
                  <path d="M270.78,345.3s10.2,1.47,15.26-.85c2-.93-3.45,56.63-3.45,56.63Z" fill="#e5bf61"/>
                  <path d="M253,370.11a34.33,34.33,0,0,0-2,10.47c-.35,4.86-2.31,11.47.71,15.78,1.93,2.74,12,5.47,10.89,9.51a22.22,22.22,0,0,1-2.77,7.16c-1.09,1.61-11.8-2.07-13.93,2.72.34-16.34,1.18-42.83,3.32-57.26,2.12.06,4.33-.21,6.35-.28C255,362.44,254.7,366,253,370.11Z" fill="#f7e2a6" style="mix-blend-mode: multiply"/>
                  <path d="M285.36,343.12l-5,2.7-16.83-2.7c1.83-3.88,1.23-9.82,1.55-9.23,2.62,4.89,26.71-2.77,21.36.82C282,337.74,285.36,343.12,285.36,343.12Z" fill="#f7e2a6"/>
                  <path d="M255.06,309s-1-7-5.43-5.46,1,13.51,3.19,14.47a2.44,2.44,0,0,0,3-.83" fill="#f7e2a6"/>
                  <path d="M255.34,320.52c.67,8.75,11.5,17.22,17.86,17.22,20.18,0,20.3-5.54,21.69-17.22a218.39,218.39,0,0,0,1-21.9c-.08-15.66-6.95-17.93-20.12-17.93-14.15,0-21.46,1.88-21.74,17.93C253.9,305.17,254.86,314.4,255.34,320.52Z" fill="#f7e2a6"/>
                  <path d="M253.9,307.87c-.15-2.45-1.77-4.57-3.75-4.57-.36-17.19-2.22-24,13.73-28.61,36.45-9.83,35,22.23,35,22.23s-10.39,0-16.3-5.37c-9.49,15.28-23.91,12.57-24.78,16.29-.5,2.12-1.23,4.53-1.38,5.58s-1.44.33-1.64-.26A27.26,27.26,0,0,1,253.9,307.87Z" fill="#e5bf61"/>
                  <path d="M258.54,410.32c0,3,4.38,5.5,9.79,5.5s6.95-.59,6.95-3.63-1.55-7.37-6.95-7.37S258.54,407.28,258.54,410.32Z" fill="#f7e2a6"/>
                  <path d="M256.08,352.8c-16.17,8.22-17.72,36.14-16.58,39.77s12.42,13.24,21.66,18.2" fill="none" stroke="#e5bf61" stroke-miterlimit="10" stroke-width="12"/>
                  <path d="M279.44,374.87s-.48-17.22.45-24.23c.18-1.27,2.79-1.46,3-.25,1.31,6.88,1.48,23.31,1.48,23.31l-1.8,27.38Z" fill="#e5bf61"/>
                </g>
              </g>
              <g>
                <path d="M394.6,519.39V425.7h8v93.69c0,3.14-1.78,5.69-4,5.69S394.6,522.53,394.6,519.39Z" fill="#e5bf61"/>
                <path d="M364.09,519.39V425.7h8v93.69c0,3.14-1.78,5.69-4,5.69S364.09,522.53,364.09,519.39Z" fill="#e5bf61"/>
                <path d="M192.59,418.6h49.17v9.34H192.59a4.67,4.67,0,1,1,0-9.34Z" fill="#c2c2c2"/>
                <path d="M227.88,423.27a4.76,4.76,0,0,0,4.86,4.67H412.68a4.76,4.76,0,0,0,4.86-4.67h0a4.77,4.77,0,0,0-4.86-4.67H232.74a4.77,4.77,0,0,0-4.86,4.67Z" fill="#f7e2a6"/>
                <path d="M368.08,472.18h30.51V462.1H368.08s-1.65,1-1.65,5S368.08,472.18,368.08,472.18Z" fill="#e5bf61"/>
              </g>
              <g>
                <path d="M272.67,418.6V416c0-2.39,1.41-4.33,3.16-4.33h49.09c1.74,0,3.15,1.94,3.15,4.33v2.64Z" fill="#f9eed7"/>
                <path d="M297.68,408.4a3.22,3.22,0,0,0,3.23,3.23h47.42a3.23,3.23,0,0,0,3.23-3.23l5.38-31.79a3.23,3.23,0,0,0-3.23-3.23H306.3a3.24,3.24,0,0,0-3.24,3.23Z" fill="#f9eed7"/>
                <path d="M300.37,408.4a3.23,3.23,0,0,0,3.23,3.23H351a3.23,3.23,0,0,0,3.23-3.23l5.39-31.79a3.24,3.24,0,0,0-3.24-3.23H309a3.23,3.23,0,0,0-3.23,3.23Z" fill="#f9eed7"/>
                <path d="M297.68,418.6V416c0-2.39,1.41-4.33,3.15-4.33h49.09c1.75,0,3.16,1.94,3.16,4.33v2.64Z" fill="#f9eed7"/>
              </g>
              <path d="M359.64,503c0-1-.64-1.34-.64-1.61v-.16c0-4.59-1.58-8.23-4.33-8.23H345.5c-2.75,0-5.5,3.55-5.5,8.15v.2c0,.27.51.65.52,1.65Z" fill="#af914f"/>
            </g>
            <g>
              <g>
                <g>
                  <path d="M128.09,521.18c0,5.43,3.92,9.82,8.74,9.82h66.81c4.82,0,8.74-4.39,8.74-9.82v-82.4c0-5.43-3.92-9.82-8.74-9.82H136.83c-4.82,0-8.74,4.39-8.74,9.82Z" fill="#bd9e52"/>
                  <path d="M131.11,521.89c0,5,3.63,9.11,8.11,9.11h62c4.48,0,8.11-4.08,8.11-9.11V445.38c0-5-3.63-9.12-8.11-9.12h-62c-4.48,0-8.11,4.08-8.11,9.12Z" fill="#bd9e52"/>
                  <path d="M198.67,601.64V537.42h10.06v64.22a5,5,0,1,1-10.06,0Z" fill="#bd9e52"/>
                  <path d="M160.18,601.17V537.42h10.06v63.75a5,5,0,1,1-10.06,0Z" fill="#bd9e52"/>
                  <path d="M167.94,601.17V537.42H178v63.75a5,5,0,1,1-10.06,0Z" fill="#bd9e52"/>
                  <path d="M128.09,600.47V521.82h13.32v78.65a6.67,6.67,0,0,1-13.32,0Z" fill="#bd9e52"/>
                  <path d="M144.31,528.83h40.55v11.31H144.31c-2.21,0-4-2.53-4-5.65S142.1,528.83,144.31,528.83Z" fill="#bd9e52"/>
                  <path d="M149.82,534.49c0,3.12.83,5.65,1.84,5.65h68.07c1,0,1.84-2.53,1.84-5.65h0c0-3.12-.82-5.66-1.84-5.66H151.66c-1,0-1.84,2.54-1.84,5.66Z" fill="#bd9e52"/>
                </g>
                <g>
                  <path d="M181.38,527.65l5.63-.47c3.61-.27,8.8-.64,15-.95s13.44-.56,20.82-.35c1.83.06,3.67.15,5.4.3a35.34,35.34,0,0,1,4.26.6c.15,0,.3.07.11,0a1.13,1.13,0,0,0-.17-.12,3.3,3.3,0,0,1-.31-.22,5.4,5.4,0,0,1-.49-.4,4.27,4.27,0,0,1-.38-.36l-.18-.19-.46-.54.26.3a3.13,3.13,0,0,1-.32-.46l-.07-.12h0l0,0s0,0,.06.07a7.32,7.32,0,0,1,.49.79c.77,1.37,1.62,3.23,2.42,5.07,1.62,3.73,3.17,7.69,4.66,11.6s2.92,7.81,4.28,11.6c2.73,7.59,5.19,14.73,7.28,20.86s3.79,11.27,5,14.85,1.86,5.64,1.86,5.64l12.09-3.46s-.47-2.13-1.3-5.86l-3.53-15.42c-1.49-6.37-3.26-13.8-5.27-21.77-1-4-2.06-8.11-3.2-12.31s-2.34-8.47-3.74-12.86c-.73-2.21-1.44-4.39-2.51-6.92-.27-.64-.58-1.32-1-2.09-.08-.17-.23-.42-.34-.63l-.18-.32-.1-.17-.19-.29c-.24-.38-.51-.77-.77-1.12l-.24-.33c.09.1-.69-.81-.44-.51l-.16-.17-.32-.33-.66-.63c-.39-.34-.75-.6-1.13-.89s-.64-.43-1-.64-.6-.35-.86-.49a22.39,22.39,0,0,0-2.8-1.24,47.84,47.84,0,0,0-7.85-2c-2.32-.42-4.5-.71-6.63-1-8.47-1-16-1.31-22.56-1.56s-11.91-.32-15.7-.35h-6Z" fill="#af914f"/>
                  <path d="M195.83,418.48c-4.25,46.71,2.28,59.16,33.55,69.54" fill="none" stroke="#e5bf61" stroke-miterlimit="10" stroke-width="11"/>
                  <path d="M146,509.33c.06,3,3.32,19.87,16.35,19.87,25.58,0,38.91-5.74,40-14.85a114.17,114.17,0,0,0,0-23.58H146S145.77,498.58,146,509.33Z" fill="#af914f"/>
                  <path d="M160.83,528.66l5.57,0c3.58,0,8.71.12,14.82.36,3.05.11,6.35.27,9.8.49s7.07.51,10.65.94c1.78.21,3.57.45,5.22.75.81.15,1.6.31,2.28.47s1.25.35,1.35.35,0,0-.65-.54a7,7,0,0,1-.56-.55l-.07-.08s-.64-.74-.33-.39l.06.07.13.15.06.06-.09-.1-.16-.22-.15-.24h0a9.89,9.89,0,0,1,.94,1.53c.79,1.49,1.61,3.27,2.4,5.07,1.58,3.62,3.11,7.43,4.57,11.2s2.87,7.52,4.21,11.17c2.69,7.29,5.12,14.15,7.18,20s3.73,10.83,4.92,14.27l1.82,5.42,12.1-3.37-1.29-5.64-3.48-14.81c-1.46-6.13-3.21-13.27-5.18-20.93-1-3.83-2-7.79-3.14-11.83s-2.29-8.13-3.64-12.33c-.69-2.11-1.4-4.21-2.32-6.52a30.42,30.42,0,0,0-1.91-4,17.81,17.81,0,0,0-1.2-1.76l-.11-.16-.06-.08c.29.33-.42-.47-.4-.46l-.14-.14c-.35-.37-.8-.8-1.13-1.08a17.53,17.53,0,0,0-3.27-2.17,32.54,32.54,0,0,0-4.37-1.83c-1.27-.44-2.45-.78-3.59-1.1-2.28-.62-4.41-1.1-6.49-1.53-4.14-.85-8-1.5-11.72-2.06s-7.14-1-10.33-1.42c-6.38-.79-11.67-1.34-15.39-1.7l-5.9-.54Z" fill="#af914f"/>
                  <path d="M152.73,414.76c6.21-7.35,20.6-7.85,25.31-7.81,4.5-.07,15.48-1.06,21.77,6.38,6.72,7.94,3.25,89,3.25,89H145.53S146,422.7,152.73,414.76Z" fill="#e5bf61"/>
                  <path d="M156.21,479.47c-.81,3-1.49,6.8-3.25,9.4-1.27,1.87-4.92,3-8.28,3.83.39-19,1.37-49.86,3.86-66.66,2.47.07,5-.25,7.39-.32C155.32,430.64,157.46,474.78,156.21,479.47Z" fill="#ccc" opacity="0.54" style="mix-blend-mode: multiply"/>
                  <path d="M192.79,409.7l-26.46-2.76a10.59,10.59,0,0,0-.45-8.94c-3-5.69,35.1-3.3,28.49.27S192.79,409.7,192.79,409.7Z" fill="#f7e2a6"/>
                  <path d="M194.37,409.7s-4,3.63-15.18,3.63c-10.37,0-14.32-4.32-14.32-4.32l1.57-7.13s3.9,2.16,12.75,2.16,13.95-1.66,13.95-1.66Z" fill="#e5bf61"/>
                  <path d="M156.76,381.83c.78,10.19,13.39,20.05,20.8,20.05,23.5,0,23.63-6.45,25.25-20.05a252.35,252.35,0,0,0,1.15-25.5c-.09-18.22-8.09-20.88-23.42-20.88-16.48,0-25,2.2-25.32,20.88C155.08,364,156.21,374.71,156.76,381.83Z" fill="#f7e2a6"/>
                  <path d="M158,369.32c-.16-2.81-1.79-5.25-3.79-5.25.14-8.8-2.23-20,.67-20.58,6.22-1.32,19.33,8,19.33,8s-1.89,5.23-5.11,8.31c-1,.92-5.28,0-6.13,4.27-1,5.21-2.28,10.42-2.43,11.61s-1.45.38-1.65-.29A34.5,34.5,0,0,1,158,369.32Z" fill="#e5bf61"/>
                  <path d="M153.69,342.65a12.79,12.79,0,0,0,12.62,13h33.53c7,0,11.83-4.95,12.62-13S206.62,324.1,201,324.1c0,0,2,5.56-2.53,5.56l-32.18,0a12.8,12.8,0,0,0-12.62,13Z" fill="#e5bf61"/>
                  <path d="M157.31,419.27c-41.48,16.23-25,53.38,0,62.75" fill="none" stroke="#e5bf61" stroke-miterlimit="10" stroke-width="11"/>
                  <rect x="152.68" y="476.64" width="24.65" height="11.38" rx="5.69" ry="5.69" fill="#f7e2a6"/>
                  <path d="M257.93,599c0-1-.93-.37-.93-.64v-.16c0-4.66-1.76-8.2-5.09-8.2H240.84c-3.33,0-5.84,3.45-5.84,8.11v.21c0,.28-.2-.32-.18.68Z" fill="#af914f"/>
                  <path d="M274.88,599c0-1,.12-.37.12-.64v-.16c0-4.66-2.38-8.2-5.18-8.2h-9.3c-2.8,0-5.52,3.45-5.52,8.11v.21c0,.28.44-.32.46.68Z" fill="#af914f"/>
                </g>
              </g>
              <g>
                <path d="M139.73,607.75V500.33h9.14V607.75c0,3.61-2.05,6.53-4.57,6.53S139.73,611.36,139.73,607.75Z" fill="#e5bf61"/>
                <path d="M315.53,607.75V500.33h9.14V607.75c0,3.61-2,6.53-4.56,6.53S315.53,611.36,315.53,607.75Z" fill="#e5bf61"/>
                <path d="M280.56,607.75V500.33h9.13V607.75c0,3.61-2,6.53-4.57,6.53S280.56,611.36,280.56,607.75Z" fill="#e5bf61"/>
                <path d="M104.75,607.75V500.33h9.14V607.75c0,3.61-2,6.53-4.57,6.53S104.75,611.36,104.75,607.75Z" fill="#e5bf61"/>
                <path d="M83.92,492.2H140.3v10.7H83.92a5.35,5.35,0,1,1,0-10.7Z" fill="#e5bf61"/>
                <path d="M124.38,497.55A5.47,5.47,0,0,0,130,502.9H336.27a5.46,5.46,0,0,0,5.57-5.35h0a5.46,5.46,0,0,0-5.57-5.35H130a5.47,5.47,0,0,0-5.58,5.35Z" fill="#e5bf61"/>
                <path d="M285.12,553.62h35V542.06h-35s-1.89,1.15-1.89,5.78S285.12,553.62,285.12,553.62Z" fill="#e5bf61"/>
                <path d="M110.36,553.62h35V542.06h-35s-1.89,1.15-1.89,5.78S110.36,553.62,110.36,553.62Z" fill="#e5bf61"/>
              </g>
              <g>
                <polygon points="237.73 489.45 242.26 454.14 258.98 454.14 262.3 489.45 237.73 489.45" fill="#e8d39e"/>
                <path d="M221.42,492.91v-3.86a6.15,6.15,0,0,1,6-6.32h42.13a6.15,6.15,0,0,1,6,6.32v3.86Z" fill="#f7e6ba"/>
                <rect x="221.42" y="489.05" width="54.07" height="3.86" fill="#f7e6ba"/>
                <rect x="191.01" y="391.71" width="115.07" height="80.09" rx="6.35" ry="6.35" fill="#e8d39e"/>
                <rect x="196.99" y="391.71" width="115.07" height="80.09" rx="6.35" ry="6.35" fill="#f7e6ba"/>
              </g>
              <g>
                <path d="M165.05,490.86c0,3.46,22.29,3.46,22.29,0s-5-6.28-11.15-6.28S165.05,487.39,165.05,490.86Z" fill="#f7e6ba"/>
                <path d="M172.55,490.93c4.06.35,9.76-.58,12.46-3.9a4.9,4.9,0,0,1,2.33,3.83c0,3.46-22.29,3.46-22.29,0a4,4,0,0,1,.76-2.27A13.74,13.74,0,0,0,172.55,490.93Z" fill="#f7e6ba"/>
              </g>
            </g>
            <rect x="250.52" y="309.21" width="9.54" height="15.15" rx="4.77" ry="4.77" fill="#f7e2a6"/>
            <rect x="150.14" y="361.31" width="16.1" height="18.06" rx="6.59" ry="6.59" fill="#f7e2a6"/>
            <rect x="37.57" y="487.03" width="7.97" height="13.24" fill="#e5bf61"/>
            <rect x="104.75" y="601.85" width="9.12" height="13.24" fill="#e5bf61"/>
            <rect x="139.66" y="601.85" width="9.28" height="13.24" fill="#e5bf61"/>
            <rect x="128.09" y="594.04" width="11.78" height="13.24" fill="#bd9e52"/>
            <rect x="160.18" y="594.04" width="17.81" height="13.24" fill="#bd9e52"/>
            <rect x="198.67" y="594.04" width="10.11" height="13.24" fill="#bd9e52"/>
            <rect x="280.49" y="601.23" width="9.28" height="13.24" fill="#e5bf61"/>
            <rect x="315.47" y="601.23" width="9.28" height="13.24" fill="#e5bf61"/>
            <rect x="364.09" y="504.38" width="7.97" height="20.7" fill="#e5bf61"/>
            <rect x="394.6" y="504.38" width="7.97" height="20.7" fill="#e5bf61"/>
            <rect x="322.71" y="492.2" width="20.61" height="11.27" fill="#e5bf61"/>
          </g>
          <path d="M161.11,390.05a17.67,17.67,0,0,1-3.41-5.42,31.24,31.24,0,0,1-.71-3.19c-.23-.7-.64-1.83-.75-2.32-.27-.23-.68-.62-1-.93l-.91-.42a8.75,8.75,0,0,1-3.7-3.38c-2.52-4.3-.25-8.38,2.48-11.78a5.13,5.13,0,0,1,1-.9c-.06-1-.1-2.08-.13-2.43a42.15,42.15,0,0,1-.37-5.72c.17-4.75.58-9.48.65-14.23a8.12,8.12,0,0,1,.34-2.27L84,298v94.51c9.79.34,19.58.71,29.37.92,11,.24,22,.34,32.92-.06,5.37-.2,10.73-.47,16.07-.93l1.08-.09C162.76,391.53,161.85,390.83,161.11,390.05Z" opacity="0.4" fill="url(#7d2178c8-78c0-4ab9-8fce-7f21daf698d8)"/>
          <path d="M445.82,244H582s-16.16-11.85-28.12-14.93-21.86-8.35-30.09-3.43-16.35,7.31-20.91,5.86-21.31-8-31.45-2.43S429.33,244,429.33,244Z" fill="#f9eed7"/>
          <path d="M302.33,475.3,306.5,473V394.88l-117-63.74V475C227.11,474.73,264.72,475.17,302.33,475.3Z" opacity="0.4" fill="url(#dd3c7ace-46b1-43f5-87eb-dca0455c5676)"/>
          <path d="M300.32,422.74c11,.24,21.95.34,32.92-.06,5.36-.2,10.72-.47,16.07-.92,2.34-.21,4.67-.41,7-.67l1.62-.19V375.5l-87-48.19v94.51C280.73,422.16,290.52,422.53,300.32,422.74Z" opacity="0.4" fill="url(#deadccd8-0f7d-4d27-8def-e1dcb60fcff3)"/>
        </g>
      </g>
    </g>
    <g id="d4c7c156-94b2-4d13-bad1-f1d99a66d501" data-name="img6">
      <g>
        <g>
          <path d="M491.57,303.36l2.48,66.87a6.72,6.72,0,0,1-5,6.74h0a6.71,6.71,0,0,1-8.36-5.57l-9.21-66.19A10.09,10.09,0,0,1,479.2,294h0A10.1,10.1,0,0,1,491.57,303.36Z" fill="#0b9b48"/>
          <g id="ac9a909f-ef57-4358-9141-ca94816c8b40" data-name="&lt;Group&gt;">
            <g>
              <path d="M498.22,428.18a3.39,3.39,0,0,1-3.16,3.57,3.23,3.23,0,0,1-1.08-.1,3.39,3.39,0,0,1-2.45-2.65l-5.14-27.53,10.2-.89Z" fill="#0b9b48"/>
              <path d="M487.77,364.08a6.75,6.75,0,0,1,1.87.23,7,7,0,0,1,5.18,6.35l1.77,29.92-10.2.89L481,372.36A7,7,0,0,1,487.77,364.08Z" fill="#0b9b48"/>
            </g>
          </g>
          <g>
            <path d="M495.5,446.33l-3.44,6.11a3.82,3.82,0,0,0,.8,4.73h0L498.35,447Z" fill="#fc8883"/>
            <path d="M486.06,448.2h0l1.43-14.62.2,0-.12-.83,4.4-6.57,4.14,0a1.78,1.78,0,0,1,1.74,1.48l2.77,16.18-4.74,15.74-.24-.15a4.2,4.2,0,0,1-1.9-3.82l.53-7-3.85-9.46-1.73,7.76A1.85,1.85,0,0,1,486.06,448.2Z" fill="#fac1b1" stroke="#fac1b1" stroke-miterlimit="10" stroke-width="0.79"/>
          </g>
        </g>
        <path d="M424.75,408.07a15.13,15.13,0,0,0-2.93,10.68L433.8,530a9.87,9.87,0,0,0,10.25,8.85h0a9.87,9.87,0,0,0,9.44-9.57L457.1,415.9a9.88,9.88,0,0,0-2.89-7.29L449.57,404a14.78,14.78,0,0,0-21.24.35l-3.54,3.7Z" fill="#fac1b1"/>
        <path d="M491.32,406.47a15.11,15.11,0,0,1,2.93,10.68l-12,111.25A9.87,9.87,0,0,1,472,537.24h0a9.87,9.87,0,0,1-9.44-9.57L459,414.29a9.86,9.86,0,0,1,2.89-7.28l4.64-4.65a14.79,14.79,0,0,1,21.24.35l3.54,3.7Z" fill="#fac1b1"/>
        <path d="M487.31,397.1l-29.28.83-29.29-.83-3.07,6.16a53.53,53.53,0,0,0-5.46,26.46l3.91,76.95h67.81l3.91-76.95a53.32,53.32,0,0,0-5.46-26.46Z" fill="#000429"/>
        <g>
          <g opacity="0.42" style="mix-blend-mode: multiply">
            <path d="M492,221.17a23.48,23.48,0,1,1-7-32.46A23.49,23.49,0,0,1,492,221.17Z" fill="#312b6b"/>
          </g>
          <g id="a6640452-8bee-4c41-81c6-430db5042dd4" data-name="&lt;Group&gt;">
            <rect x="445" y="261.18" width="17.66" height="35.72" rx="7.02" ry="7.02" fill="#fac1b1"/>
            <path d="M445,268.2v16.5c4.65-3,12.35-7.84,17.66-10.94V268.2a7.05,7.05,0,0,0-7-7H452A7,7,0,0,0,445,268.2Z" fill="#e2aea1"/>
          </g>
          <g>
            <g id="76bdc08f-c036-48cc-92f8-a9204f5c19b7" data-name="&lt;Group&gt;">
              <g id="d8e1561c-d5c6-4ce7-ba36-0b120e57e726" data-name="&lt;Group&gt;">
                <g>
                  <use id="5cd67065-f775-4a68-8494-ec37724e5cac" data-name="New Symbol 23" width="3.26" height="4.72" transform="matrix(-1.77, 0, 0, 1.77, 426.55, 229.08)" xlink:href="#f7f407b3-ac70-4624-a613-6cbdbacd2504"/>
                  <use id="7d5731df-19fb-473e-8a0d-055def67835d" data-name="New Symbol 32" width="3.79" height="1.45" transform="matrix(-1.77, 0, 0, 1.77, 427.11, 223.14)" xlink:href="#2dcb944b-faa2-4dbf-be41-458ec737ce48"/>
                </g>
              </g>
            </g>
            <circle cx="425.93" cy="245.8" r="3.21" fill="#fc8883" opacity="0.36"/>
            <path d="M419.12,209.49l.88,52a13,13,0,0,0,17.91,11.76l17.33-7.17,1.21-53-19.27-16.85Z" fill="#fac1b1"/>
          </g>
          <g>
            <path d="M414.23,189.74H476a15,15,0,0,1,15,15v.71a30.82,30.82,0,0,1-30.82,30.82H445.05a30.82,30.82,0,0,1-30.82-30.82V189.74a0,0,0,0,1,0,0Z" transform="translate(905.25 426.04) rotate(180)" fill="#ba8f56"/>
            <path d="M424.61,224.21H491a0,0,0,0,1,0,0v17.09a33.21,33.21,0,0,1-33.21,33.21h0a33.21,33.21,0,0,1-33.21-33.21V224.21a0,0,0,0,1,0,0Z" fill="#ba8f56"/>
          </g>
          <g opacity="0.15">
            <circle cx="471.38" cy="208.08" r="23.48" transform="translate(-27.1 338.54) rotate(-38.48)" fill="#2d2a5f"/>
          </g>
          <circle cx="478.34" cy="199.99" r="23.48" transform="translate(-20.55 341.11) rotate(-38.48)" fill="#ba8f56"/>
        </g>
        <path d="M433.15,526.81,440.78,640H452l1.2-112.78-1.9-2.81c-4.45-6.6-14.31-4.56-18.17,2.41Z" fill="#fac1b1"/>
        <path d="M482.92,525.21l-7.63,113.17H464.05l-1.2-112.77,1.9-2.81c4.45-6.61,14.31-4.57,18.17,2.41Z" fill="#fac1b1"/>
        <path d="M423.3,410.1h69.89l-6.93-32.32a104.41,104.41,0,0,1-1.34-36.08c1.64-11.93,5.43-24.11,3.65-36.35-2.17-15-11.43-17.2-23.35-23.54a23.84,23.84,0,0,0-22.38,0L438,284.37c-5.73,2.16-9.18,10.76-12,13.59a17.76,17.76,0,0,0-5.25,12.61v30.9a17.65,17.65,0,0,0,2.53,9.12Z" fill="#00b956"/>
        <rect x="446.8" y="652.27" width="6.85" height="2.6" transform="translate(900.45 1307.13) rotate(-180)" fill="#ba8f56"/>
        <polygon points="476.92 652.59 475.25 638 463.48 638 462.07 652.5 476.92 652.59" fill="#19223f"/>
        <polygon points="463.38 641 452.73 647.51 465.02 652.5 474.18 652.7 463.75 641 463.38 641" fill="#19223f"/>
        <path d="M447.2,652.88a3.73,3.73,0,0,1,0-.47c0-3.34,4.78-6,10.67-6s10.67,2.7,10.67,6a3.82,3.82,0,0,1-.07.68C461.35,653,454.28,652.93,447.2,652.88Z" fill="#000828"/>
        <rect x="447.07" y="652.29" width="24.99" height="2.57" transform="translate(919.12 1307.15) rotate(-180)" fill="#ba8f56"/>
        <rect x="470.07" y="652.27" width="6.85" height="2.6" transform="translate(946.98 1307.13) rotate(-180)" fill="#ba8f56"/>
        <polygon points="453.65 652.59 451.98 638 440.21 638 438.81 652.5 453.65 652.59" fill="#19223f"/>
        <polygon points="440.11 641 429.47 647.51 441.75 652.5 450.91 652.7 440.48 641 440.11 641" fill="#19223f"/>
        <path d="M423.94,652.88a2.5,2.5,0,0,1-.05-.47c0-3.34,4.78-6,10.67-6s10.67,2.7,10.67,6a3.82,3.82,0,0,1-.07.68C438.08,653,431,652.93,423.94,652.88Z" fill="#000828"/>
        <rect x="423.8" y="652.29" width="29.85" height="2.57" transform="translate(877.45 1307.15) rotate(-180)" fill="#ba8f56"/>
        <path d="M420.74,298.2,416.25,375a7.72,7.72,0,0,0,5.57,7.87h0a7.71,7.71,0,0,0,9.74-6.19l12.21-75.8a11.61,11.61,0,0,0-8.59-13.09h0A11.6,11.6,0,0,0,420.74,298.2Z" fill="#0b9b48"/>
        <g>
          <path d="M384.73,320.43a3.88,3.88,0,0,0-5.46-.36,3.78,3.78,0,0,0-.8.95,3.88,3.88,0,0,0,.14,4.14l18,26.65,9.05-7.49Z" fill="#0b9b48"/>
          <path d="M427.94,381.27a7.72,7.72,0,0,0,1.34-1.7,8.06,8.06,0,0,0-.89-9.37l-22.71-25.88-9.05,7.49L415.69,380A8,8,0,0,0,427.94,381.27Z" fill="#0b9b48"/>
        </g>
        <path d="M364.29,312.21,360.74,305a4.38,4.38,0,0,0-5-2.31h0l6.07,11.8Z" fill="#fc8883"/>
        <path d="M368.66,302.05h0l12.92,10.86-.1.21.86.43,3.37,8.43L383,325.89a2.05,2.05,0,0,1-2.54.69l-17.13-7.89L351.5,304l.3-.13a4.8,4.8,0,0,1,4.86.69l6.26,5,11.46,2.5-6.23-6.68A2.14,2.14,0,0,1,368.66,302.05Z" fill="#fac1b1" stroke="#fac1b1" stroke-miterlimit="10" stroke-width="0.88"/>
      </g>
    </g>
  </g>
</svg>
