<svg id="3ea69ae7-912e-443e-ad39-1b09b27afd6b" data-name="Layer 1" xmlns="http://www.w3.org/2000/svg" xmlns:xlink="http://www.w3.org/1999/xlink" width="340" height="340.67" viewBox="0 0 340 340.67">
  <defs>
    <clipPath id="add7c9b3-db72-4e97-98d3-76bdfa4d5e17">
      <circle cx="169.6" cy="170.46" r="170.46" fill="none"/>
    </clipPath>
    <clipPath id="6d1767bd-e64a-4f24-b2bd-7c25c7e0e9b5">
      <rect x="21.74" y="-5.44" width="209.62" height="200.02" fill="none"/>
    </clipPath>
  </defs>
  <title>main-oleg</title>
  <g clip-path="url(#add7c9b3-db72-4e97-98d3-76bdfa4d5e17)">
    <g>
      <rect id="6614a6f8-02bc-47d1-9a7f-9f21595ec2ca" data-name="&lt;Path&gt;" x="-100.46" y="-0.48" width="454.86" height="341.15" fill="#00d159"/>
      <rect id="3690f9ba-a7b1-4cbd-9c85-d8d0aca8df28" data-name="&lt;Path&gt;" x="22.59" y="-0.48" width="208.77" height="195.05" fill="#00e55c"/>
      <g opacity="0.43">
        <g clip-path="url(#6d1767bd-e64a-4f24-b2bd-7c25c7e0e9b5)">
          <g>
            <path d="M254.34,126.72a3.2,3.2,0,1,1-2.06,4A3.2,3.2,0,0,1,254.34,126.72Z" fill="#fff"/>
            <path d="M-2.84,3.43a3.19,3.19,0,0,1,4,2.06,3.2,3.2,0,0,1-2.06,4,3.21,3.21,0,0,1-4-2.06A3.2,3.2,0,0,1-2.84,3.43Z" fill="#fff"/>
            <path d="M212.94,26.48a3.2,3.2,0,1,1-2.06,4A3.2,3.2,0,0,1,212.94,26.48Z" fill="#fff"/>
            <path d="M313.74,208a1.34,1.34,0,1,1-.87,1.69A1.34,1.34,0,0,1,313.74,208Z" fill="#fff"/>
            <path d="M212.7,78.23a1.35,1.35,0,1,1-1.82.57A1.35,1.35,0,0,1,212.7,78.23Z" fill="#fff"/>
            <path d="M289,34.57a1.35,1.35,0,1,1-1.82.57A1.35,1.35,0,0,1,289,34.57Z" fill="#fff"/>
            <path d="M165.76,46.1a1.35,1.35,0,1,1-1.82.57A1.35,1.35,0,0,1,165.76,46.1Z" fill="#fff"/>
            <path d="M126.57,58.3a1.35,1.35,0,1,1,.57,1.82A1.35,1.35,0,0,1,126.57,58.3Z" fill="#fff"/>
            <path d="M147.9,28.79a1.35,1.35,0,1,1,.57,1.82A1.35,1.35,0,0,1,147.9,28.79Z" fill="#fff"/>
            <path d="M282,169.51a1.34,1.34,0,1,1,.56,1.82A1.34,1.34,0,0,1,282,169.51Z" fill="#fff"/>
            <path d="M241,150.22a1.35,1.35,0,1,1,.57,1.82A1.35,1.35,0,0,1,241,150.22Z" fill="#fff"/>
            <path d="M203.3,171.12a2.94,2.94,0,1,1-3.7-1.89A2.94,2.94,0,0,1,203.3,171.12Z" fill="#fff"/>
            <path d="M148.14,83.33a3.2,3.2,0,1,1-4-2.06A3.2,3.2,0,0,1,148.14,83.33Z" fill="#fff"/>
            <path d="M286.39,228.54a3.2,3.2,0,1,1-4-2.06A3.21,3.21,0,0,1,286.39,228.54Z" fill="#fff"/>
            <path d="M97.42,51.62a3.62,3.62,0,1,1-4.56-2.34A3.62,3.62,0,0,1,97.42,51.62Z" fill="#fff"/>
            <path d="M244.71,112.63a1.37,1.37,0,0,1-.87,1.7,1.35,1.35,0,1,1,.87-1.7Z" fill="#fff"/>
            <path d="M197.12,51.58a1.35,1.35,0,1,1-1.7-.87A1.35,1.35,0,0,1,197.12,51.58Z" fill="#fff"/>
            <path d="M264.87,203.69a1.35,1.35,0,0,1-.87,1.7,1.35,1.35,0,0,1-.83-2.56A1.35,1.35,0,0,1,264.87,203.69Z" fill="#fff"/>
            <path d="M178.68,120.2a1.35,1.35,0,0,1-2.56.83,1.35,1.35,0,1,1,2.56-.83Z" fill="#fff"/>
            <path d="M282.83,114.81a1.35,1.35,0,1,1-1.7-.87A1.35,1.35,0,0,1,282.83,114.81Z" fill="#fff"/>
            <path d="M250.9,0a1.35,1.35,0,0,1-1.82.57,1.34,1.34,0,0,1-.56-1.82,1.34,1.34,0,0,1,1.81-.57A1.35,1.35,0,0,1,250.9,0Z" fill="#fff"/>
            <path d="M180.86,17.23a1.35,1.35,0,1,1-.57-1.82A1.35,1.35,0,0,1,180.86,17.23Z" fill="#fff"/>
            <path d="M89.25,1.42a1.35,1.35,0,0,1-.87,1.7,1.33,1.33,0,0,1-1.69-.87,1.35,1.35,0,1,1,2.56-.83Z" fill="#fff"/>
            <path d="M288.49,152.48a1.35,1.35,0,1,1-1.7-.87A1.36,1.36,0,0,1,288.49,152.48Z" fill="#fff"/>
            <path d="M300.54,44.13a1.35,1.35,0,1,1-.57-1.82A1.35,1.35,0,0,1,300.54,44.13Z" fill="#fff"/>
            <path d="M99.78,39.1a1.35,1.35,0,1,1-.87,1.7A1.35,1.35,0,0,1,99.78,39.1Z" fill="#fff"/>
            <path d="M180,164.69a1.35,1.35,0,1,1-1.82.57A1.35,1.35,0,0,1,180,164.69Z" fill="#fff"/>
            <path d="M208.75,139.55a1.35,1.35,0,1,1-1.82.57A1.35,1.35,0,0,1,208.75,139.55Z" fill="#fff"/>
            <path d="M161.8,107.42A1.34,1.34,0,1,1,160,108,1.34,1.34,0,0,1,161.8,107.42Z" fill="#fff"/>
            <path d="M272.18,48.9a1.35,1.35,0,1,1-1.81.57A1.35,1.35,0,0,1,272.18,48.9Z" fill="#fff"/>
            <path d="M203.3,171.12a2.94,2.94,0,1,1-3.7-1.89A2.94,2.94,0,0,1,203.3,171.12Z" fill="#fff"/>
            <path d="M138.54,108.53a3.2,3.2,0,1,1-4-2.06A3.2,3.2,0,0,1,138.54,108.53Z" fill="#fff"/>
            <path d="M57.83.72a3.61,3.61,0,1,1-4.55-2.33A3.63,3.63,0,0,1,57.83.72Z" fill="#fff"/>
            <path d="M244.71,112.63a1.35,1.35,0,1,1-1.7-.87A1.36,1.36,0,0,1,244.71,112.63Z" fill="#fff"/>
            <path d="M197.12,51.58a1.35,1.35,0,1,1-1.7-.87A1.35,1.35,0,0,1,197.12,51.58Z" fill="#fff"/>
            <path d="M264.87,203.69a1.35,1.35,0,0,1-.87,1.7,1.35,1.35,0,0,1-.83-2.56A1.35,1.35,0,0,1,264.87,203.69Z" fill="#fff"/>
            <path d="M178.68,120.2a1.35,1.35,0,0,1-2.56.83,1.35,1.35,0,1,1,2.56-.83Z" fill="#fff"/>
            <path d="M250.9,0a1.35,1.35,0,0,1-1.82.57,1.34,1.34,0,0,1-.56-1.82,1.34,1.34,0,0,1,1.81-.57A1.35,1.35,0,0,1,250.9,0Z" fill="#fff"/>
            <path d="M89.25,1.42a1.35,1.35,0,0,1-.87,1.7,1.33,1.33,0,0,1-1.69-.87,1.35,1.35,0,1,1,2.56-.83Z" fill="#fff"/>
            <path d="M288.49,152.48a1.35,1.35,0,1,1-1.7-.87A1.36,1.36,0,0,1,288.49,152.48Z" fill="#fff"/>
            <path d="M300.54,44.13a1.35,1.35,0,1,1-.57-1.82A1.35,1.35,0,0,1,300.54,44.13Z" fill="#fff"/>
            <path d="M180,164.69a1.35,1.35,0,1,1-1.82.57A1.35,1.35,0,0,1,180,164.69Z" fill="#fff"/>
            <path d="M208.75,139.55a1.35,1.35,0,1,1-1.82.57A1.35,1.35,0,0,1,208.75,139.55Z" fill="#fff"/>
            <path d="M235.67,175.38a1.35,1.35,0,1,1-1.82.56A1.35,1.35,0,0,1,235.67,175.38Z" fill="#fff"/>
            <path d="M161.8,107.42A1.34,1.34,0,1,1,160,108,1.34,1.34,0,0,1,161.8,107.42Z" fill="#fff"/>
            <path d="M225.39,62.9a1.35,1.35,0,1,1-1.82.57A1.35,1.35,0,0,1,225.39,62.9Z" fill="#fff"/>
            <path d="M272.19,48.9a1.35,1.35,0,1,1-1.82.57A1.35,1.35,0,0,1,272.19,48.9Z" fill="#fff"/>
            <path d="M215.43,110.4a3.62,3.62,0,1,1,2.33-4.56A3.62,3.62,0,0,1,215.43,110.4Z" fill="#fff"/>
            <path d="M16.58,40a1.35,1.35,0,1,1,.87-1.69A1.33,1.33,0,0,1,16.58,40Z" fill="#fff"/>
            <path d="M252.67,26.33a1.35,1.35,0,1,1,.87-1.7A1.34,1.34,0,0,1,252.67,26.33Z" fill="#fff"/>
            <path d="M176,79.85a1.35,1.35,0,1,1-1.69-.87A1.33,1.33,0,0,1,176,79.85Z" fill="#fff"/>
            <path d="M44.69,36.7A1.35,1.35,0,1,1,43,35.83,1.33,1.33,0,0,1,44.69,36.7Z" fill="#fff"/>
            <path d="M203.55,199.74a1.35,1.35,0,1,1-1.69-.87A1.33,1.33,0,0,1,203.55,199.74Z" fill="#fff"/>
            <path d="M226.05,120.33a1.35,1.35,0,1,1-1.7-.87A1.35,1.35,0,0,1,226.05,120.33Z" fill="#fff"/>
            <path d="M119.54,13.28a1.35,1.35,0,0,1-1.82.56,1.34,1.34,0,1,1,1.82-.56Z" fill="#fff"/>
            <path d="M244.3,240.23a1.35,1.35,0,1,1-1.7-.87A1.35,1.35,0,0,1,244.3,240.23Z" fill="#fff"/>
            <path d="M255.48,74.52a1.35,1.35,0,1,1-1.69-.87A1.35,1.35,0,0,1,255.48,74.52Z" fill="#fff"/>
            <path d="M323.24,226.64a1.35,1.35,0,1,1-1.7-.87A1.36,1.36,0,0,1,323.24,226.64Z" fill="#fff"/>
            <path d="M239.22,40.17a1.34,1.34,0,1,1-.57-1.82A1.34,1.34,0,0,1,239.22,40.17Z" fill="#fff"/>
            <path d="M86.19,72a1.35,1.35,0,1,1-1.69-.87A1.35,1.35,0,0,1,86.19,72Z" fill="#fff"/>
            <path d="M27.37,158.25A3.2,3.2,0,1,1,26,154,3.19,3.19,0,0,1,27.37,158.25Z" fill="#fff"/>
            <path d="M127.53,199.86a3.2,3.2,0,1,1-1.4-4.31A3.2,3.2,0,0,1,127.53,199.86Z" fill="#fff"/>
            <path d="M91.1,163.1a1.35,1.35,0,1,1,.88-1.69A1.35,1.35,0,0,1,91.1,163.1Z" fill="#fff"/>
            <path d="M159.25,228.64a1.35,1.35,0,1,1,.88-1.69A1.35,1.35,0,0,1,159.25,228.64Z" fill="#fff"/>
            <path d="M68,247.94a1.35,1.35,0,1,1,.88-1.69A1.34,1.34,0,0,1,68,247.94Z" fill="#fff"/>
            <path d="M147,152.62a1.35,1.35,0,1,1,.88-1.69A1.35,1.35,0,0,1,147,152.62Z" fill="#fff"/>
            <path d="M110.34,272.05a1.35,1.35,0,1,1,.88-1.69A1.35,1.35,0,0,1,110.34,272.05Z" fill="#fff"/>
            <path d="M20.18,132.21a1.35,1.35,0,1,1-1.69-.88A1.35,1.35,0,0,1,20.18,132.21Z" fill="#fff"/>
            <path d="M32.07,90.76a2.93,2.93,0,1,1,4-1.27A2.93,2.93,0,0,1,32.07,90.76Z" fill="#fff"/>
            <path d="M71.8,43.74a3.2,3.2,0,1,1,4.31-1.39A3.2,3.2,0,0,1,71.8,43.74Z" fill="#fff"/>
            <path d="M44.15,161.4a1.35,1.35,0,1,1,1.81-.59A1.34,1.34,0,0,1,44.15,161.4Z" fill="#fff"/>
            <path d="M121,170.92a1.35,1.35,0,0,1,1.23-2.4,1.35,1.35,0,1,1-1.23,2.4Z" fill="#fff"/>
            <path d="M85.48,109.36a1.34,1.34,0,1,1,1.82-.58A1.34,1.34,0,0,1,85.48,109.36Z" fill="#fff"/>
            <path d="M15.65,186.82a1.35,1.35,0,1,1,1.81-.59A1.36,1.36,0,0,1,15.65,186.82Z" fill="#fff"/>
            <path d="M119.42,245.44a1.35,1.35,0,1,1,1.69.88A1.35,1.35,0,0,1,119.42,245.44Z" fill="#fff"/>
            <path d="M156.75,183.71a1.35,1.35,0,1,1,1.69.89A1.34,1.34,0,0,1,156.75,183.71Z" fill="#fff"/>
            <path d="M53.1,249.32a1.35,1.35,0,1,1,1.69.89A1.36,1.36,0,0,1,53.1,249.32Z" fill="#fff"/>
            <path d="M53.08,78.84A1.35,1.35,0,1,1,54,77.15,1.35,1.35,0,0,1,53.08,78.84Z" fill="#fff"/>
            <path d="M50.54,116.94a1.35,1.35,0,1,1,.88-1.69A1.35,1.35,0,0,1,50.54,116.94Z" fill="#fff"/>
            <path d="M106.46,106.47a1.35,1.35,0,1,1,.88-1.69A1.35,1.35,0,0,1,106.46,106.47Z" fill="#fff"/>
            <path d="M69.78,225.9a1.35,1.35,0,1,1,.88-1.69A1.35,1.35,0,0,1,69.78,225.9Z" fill="#fff"/>
            <path d="M32.07,90.76a2.93,2.93,0,1,1,4-1.27A2.93,2.93,0,0,1,32.07,90.76Z" fill="#fff"/>
            <path d="M44.15,161.4a1.35,1.35,0,1,1,1.81-.59A1.34,1.34,0,0,1,44.15,161.4Z" fill="#fff"/>
            <path d="M121,170.92a1.35,1.35,0,0,1,1.23-2.4,1.35,1.35,0,1,1-1.23,2.4Z" fill="#fff"/>
            <path d="M85.48,109.36a1.34,1.34,0,1,1,1.82-.58A1.34,1.34,0,0,1,85.48,109.36Z" fill="#fff"/>
            <path d="M119.42,245.44a1.35,1.35,0,1,1,1.69.88A1.35,1.35,0,0,1,119.42,245.44Z" fill="#fff"/>
            <path d="M53.1,249.32a1.35,1.35,0,1,1,1.69.89A1.36,1.36,0,0,1,53.1,249.32Z" fill="#fff"/>
            <path d="M53.08,78.84A1.35,1.35,0,1,1,54,77.15,1.35,1.35,0,0,1,53.08,78.84Z" fill="#fff"/>
            <path d="M50.54,116.94a1.35,1.35,0,1,1,.88-1.69A1.35,1.35,0,0,1,50.54,116.94Z" fill="#fff"/>
            <path d="M6.17,110.64A1.35,1.35,0,1,1,7.06,109,1.35,1.35,0,0,1,6.17,110.64Z" fill="#fff"/>
            <path d="M106.46,106.47a1.35,1.35,0,1,1,.88-1.69A1.35,1.35,0,0,1,106.46,106.47Z" fill="#fff"/>
            <path d="M93,182.91a1.34,1.34,0,0,1-1.68-.89,1.35,1.35,0,0,1,2.57-.8A1.35,1.35,0,0,1,93,182.91Z" fill="#fff"/>
            <path d="M69.78,225.9a1.35,1.35,0,1,1,.88-1.69A1.35,1.35,0,0,1,69.78,225.9Z" fill="#fff"/>
            <path d="M66.42,142.28A3.62,3.62,0,1,1,68,147.15,3.62,3.62,0,0,1,66.42,142.28Z" fill="#fff"/>
            <path d="M99.54,228.06a1.34,1.34,0,1,1,.58,1.81A1.34,1.34,0,0,1,99.54,228.06Z" fill="#fff"/>
            <path d="M115.88,136a1.35,1.35,0,1,1,1.81-.59A1.34,1.34,0,0,1,115.88,136Z" fill="#fff"/>
            <path d="M11.65,70.71a1.35,1.35,0,1,1,1.23-2.4,1.35,1.35,0,0,1-1.23,2.4Z" fill="#fff"/>
            <path d="M51.89,142.77a1.35,1.35,0,1,1,1.82-.59A1.36,1.36,0,0,1,51.89,142.77Z" fill="#fff"/>
            <path d="M165.57,204.88a1.35,1.35,0,1,1,1.69.88A1.35,1.35,0,0,1,165.57,204.88Z" fill="#fff"/>
            <path d="M63.47,196a1.35,1.35,0,1,1,1.82-.59A1.34,1.34,0,0,1,63.47,196Z" fill="#fff"/>
            <path d="M99.26,208.76a1.35,1.35,0,1,1,1.69.88A1.35,1.35,0,0,1,99.26,208.76Z" fill="#fff"/>
            <path d="M11.42,266.16a1.34,1.34,0,1,1-1.82.57A1.34,1.34,0,0,1,11.42,266.16Z" fill="#fff"/>
            <path d="M28,211.64a1.35,1.35,0,1,1-.57-1.82A1.35,1.35,0,0,1,28,211.64Z" fill="#fff"/>
            <path d="M22.93,275.71a1.35,1.35,0,1,1-.57-1.82A1.35,1.35,0,0,1,22.93,275.71Z" fill="#fff"/>
            <path d="M22.93,275.71a1.35,1.35,0,1,1-.57-1.82A1.35,1.35,0,0,1,22.93,275.71Z" fill="#fff"/>
            <path d="M203.84,297.14a1.35,1.35,0,1,1-1.83.57A1.35,1.35,0,0,1,203.84,297.14Z" fill="#fff"/>
            <path d="M190.94,250.15a1.35,1.35,0,1,1-1.82.57A1.35,1.35,0,0,1,190.94,250.15Z" fill="#fff"/>
            <path d="M165.7,262.55a1.34,1.34,0,1,1-.57-1.82A1.34,1.34,0,0,1,165.7,262.55Z" fill="#fff"/>
            <path d="M220.39,242.62a1.34,1.34,0,1,1-.56-1.82A1.34,1.34,0,0,1,220.39,242.62Z" fill="#fff"/>
            <path d="M215.34,306.69a1.35,1.35,0,1,1-.57-1.81A1.34,1.34,0,0,1,215.34,306.69Z" fill="#fff"/>
            <path d="M169.74,241.42a1.35,1.35,0,1,1-1.82.57A1.35,1.35,0,0,1,169.74,241.42Z" fill="#fff"/>
            <path d="M187,311.47a1.35,1.35,0,1,1-1.82.57A1.34,1.34,0,0,1,187,311.47Z" fill="#fff"/>
            <path d="M165.7,262.55a1.34,1.34,0,1,1-.57-1.82A1.34,1.34,0,0,1,165.7,262.55Z" fill="#fff"/>
            <path d="M215.34,306.69a1.35,1.35,0,1,1-.57-1.82A1.34,1.34,0,0,1,215.34,306.69Z" fill="#fff"/>
            <path d="M140.19,325.47a1.35,1.35,0,1,1-1.82.57A1.35,1.35,0,0,1,140.19,325.47Z" fill="#fff"/>
            <path d="M169.74,241.42a1.35,1.35,0,1,1-1.82.57A1.35,1.35,0,0,1,169.74,241.42Z" fill="#fff"/>
            <path d="M187,311.47a1.35,1.35,0,1,1-1.82.57A1.34,1.34,0,0,1,187,311.47Z" fill="#fff"/>
            <path d="M167.47,288.9a1.35,1.35,0,0,1-.82-2.57,1.33,1.33,0,0,1,1.69.87A1.35,1.35,0,0,1,167.47,288.9Z" fill="#fff"/>
            <path d="M170.28,337.09a1.34,1.34,0,1,1-1.69-.87A1.34,1.34,0,0,1,170.28,337.09Z" fill="#fff"/>
            <path d="M154,302.74a1.34,1.34,0,1,1-2.38-1.25,1.34,1.34,0,1,1,2.38,1.25Z" fill="#fff"/>
          </g>
        </g>
      </g>
      <rect id="1fda6b74-93ac-4a90-abce-b891564cbeaa" data-name="&lt;Path&gt;" x="30.46" y="4.82" width="193.03" height="6.16" rx="1.33" ry="1.33" fill="#00b956"/>
      <rect id="b5e3d9d0-5d76-45fc-a9e0-65cc9c38cb3d" data-name="&lt;Path&gt;" x="20.2" y="-0.48" width="6.16" height="200.37" fill="#049e45"/>
      <rect id="061a6689-0788-4a01-869f-00753a88e633" data-name="&lt;Path&gt;" x="228.3" y="-0.48" width="6.16" height="200.37" fill="#049e45"/>
      <rect id="3ea971f1-26a1-455c-8f58-92b2cba90e30" data-name="&lt;Path&gt;" x="30.46" y="14.86" width="193.03" height="6.16" rx="1.33" ry="1.33" fill="#00b956"/>
      <rect id="c606a53d-be3c-4bba-b3fa-16d97f139773" data-name="&lt;Path&gt;" x="30.46" y="24.28" width="193.03" height="6.16" rx="1.33" ry="1.33" fill="#00b956"/>
      <rect id="42c0224b-15c1-4fc7-8878-7caa70f9626a" data-name="&lt;Path&gt;" x="30.46" y="33.7" width="193.03" height="6.16" rx="1.33" ry="1.33" fill="#00b956"/>
      <rect id="967f7882-db2f-4bd7-afb3-e4fe65c34f54" data-name="&lt;Path&gt;" x="30.46" y="43.11" width="193.03" height="6.16" rx="1.33" ry="1.33" fill="#00b956"/>
      <rect id="111a5e18-3564-4ff7-abcd-9e843e60afe3" data-name="&lt;Path&gt;" x="30.46" y="52.53" width="193.03" height="6.16" rx="1.33" ry="1.33" fill="#00b956"/>
      <rect id="4975f46b-74ba-448c-9bfc-8a85dc251c55" data-name="&lt;Path&gt;" x="-100.46" y="200.18" width="454.86" height="85.2" fill="#00b956"/>
      <path id="96509f93-9ce1-4315-a811-6ae4969f11d3" data-name="&lt;Path&gt;" d="M313.37,195.11H-61.79a4.8,4.8,0,0,0-4.79,4.78,4.8,4.8,0,0,0,4.79,4.79H313.37a4.79,4.79,0,1,0,0-9.57Z" fill="#049e45"/>
      <path id="22953461-0e30-46a1-992d-0c0f86cb79cd" data-name="&lt;Path&gt;" d="M339.79,148.51s-.05-.47-.18-1.25C339.66,147.69,339.72,148.11,339.79,148.51Z" fill="#93895d"/>
      <path d="M40,194H151s-13.18-9.21-22.93-11.72-17.83-6.57-24.54-2.56-13.33,6.07-17.06,4.89-17.37-6.91-25.64-2.38S26.54,194,26.54,194Z" fill="#fff" opacity="0.4"/>
      <path id="a4afb965-d89d-4a0f-8c5a-25f715719589" data-name="&lt;Path&gt;" d="M333.72,155.79s0-.79-.1-2.07A10.28,10.28,0,0,0,333.72,155.79Z" fill="#93895d"/>
      <path id="34415a1f-c816-4de4-9de3-65578919c215" data-name="&lt;Path&gt;" d="M339.57,153.25c-.09-1.41.26-4,.49-6.9A26,26,0,0,0,339.57,153.25Z" fill="#93895d"/>
      <path id="adfbc881-bc16-4374-91fb-0345f92bbed9" data-name="&lt;Path&gt;" d="M347,156.52c0,2.09-.09,3.45-.09,3.45a21.54,21.54,0,0,1,.09-3.45c0-4.69-.76-13.07-4.89-18.05a58.53,58.53,0,0,0-2.08,7.88c-.23,2.9-.58,5.49-.49,6.9,0,.14,0,.28,0,.41.13.78.18,1.24.18,1.24-.07-.4-.13-.81-.18-1.24,0-.12,0-.26,0-.41a26,26,0,0,1,.49-6.9c.35-4.4.42-9.49-1.77-12.27,0,0-4.45,12.84-4.67,19.64.08,1.28.1,2.07.1,2.07a10.28,10.28,0,0,1-.1-2.07c-.28-4.25-1.36-13.91-5.39-17.81a50.65,50.65,0,0,0-1.68,13.75,94.05,94.05,0,0,0-8-9.77,85.19,85.19,0,0,0,2.5,17.77s-4-9.15-9.95-13.6c0,0-2,8.53,1.73,16.08,0,0-4.41-8.7-7.51-11.28,0,0-1.66,5.69,3.94,14.22,4.23,6.45,31.9,9.58,45.1,10.72v-21c-.34-3.74-1-9.55-3.28-13.9C351.12,138.91,347.71,149.12,347,156.52Z" fill="#00e55c"/>
      <path id="482ab589-21b7-4d88-be44-3e280a87382b" data-name="&lt;Path&gt;" d="M350.08,158.12c-.73-6.31-2-13.49-4.33-17.7a109.32,109.32,0,0,0-1.12,19c-.58-3.42-1.18-11.46-4.93-16.16,0,0-2.24,8.72-1.48,15.09-1.84-6.23-4.77-14.52-8.08-17.93a57.9,57.9,0,0,0,0,23.68c-.95-3.52-2.08-14.22-6.09-18.77,0,0-1.56,4.76-1.87,6.29-1.44-3.8-.9-9-4.48-12.09,0,0-5.26,9.54-2.15,19.53-1.68-2-2.9-6.45-6.2-8.87,0,0-1.84,4.67-1,8.61-.87-.91-2.94-1.3-4.1-2.21,0,0,.59,5.15,7.62,16.35,5.25,8.37,30.22,5.31,42.48,3.24v-22.1c-.75-2.68-1.18-7.05-2.75-8.59A88.8,88.8,0,0,0,350.08,158.12Z" fill="#00b956"/>
      <path id="f7e59f14-9fdb-4522-aa14-d8c96b9cc901" data-name="&lt;Path&gt;" d="M305.31,168.07v15a1.53,1.53,0,0,0,1.52,1.53H354.4v-18H306.83A1.53,1.53,0,0,0,305.31,168.07Z" fill="#0aa549"/>
      <rect id="ae77a44a-12e7-4922-a02f-c9afc4babe0e" data-name="&lt;Path&gt;" x="301.57" y="183.6" width="52.83" height="127.35" fill="#049e45"/>
      <polygon id="8bfa64e3-75d0-4c5c-a133-c1d5c0a089e8" data-name="&lt;Path&gt;" points="301.57 183.6 301.57 191.53 354.4 195.75 354.4 183.6 301.57 183.6" fill="#42210b" opacity="0.11"/>
      <path id="84dcf58f-ac18-46ab-ac61-bc865e71822c" data-name="&lt;Path&gt;" d="M297.07,183.6a4.8,4.8,0,0,0,4.84,4.72H354.4v-9.44H301.91A4.79,4.79,0,0,0,297.07,183.6Z" fill="#049e45"/>
      <path id="8375b9e3-45af-4001-a4d5-1084719e9565" data-name="&lt;Path&gt;" d="M203,144.26a1.15,1.15,0,0,0-.11.5C202.94,144.59,203,144.43,203,144.26Z" fill="#3d2405" opacity="0.1"/>
      <path id="8543fd57-771c-4c82-b144-9405a58597a3" data-name="&lt;Path&gt;" d="M229.42,124.23c-.08.42.11-.42,0,0Z" fill="#c58375"/>
      <path id="739ad5fa-420e-4b63-9518-bf0a5373c833" data-name="&lt;Path&gt;" d="M45.92,180.27Z" fill="#555050"/>
      <path id="4f4e87df-a718-4906-9333-644f752be637" data-name="&lt;Path&gt;" d="M45.92,180.27c.12-.14.06-.08,0,0Z" fill="#555050"/>
      <polygon id="396b4234-b7c5-4fa8-a2d7-8735b6456cd0" data-name="&lt;Path&gt;" points="45.92 180.27 45.92 180.26 45.92 180.26 45.92 180.27" fill="#555050"/>
      <polygon id="cff515e7-f146-4371-863b-f8de31dbe1b7" data-name="&lt;Path&gt;" points="203 230.36 203.01 230.36 203.01 230.36 203 230.36 203 230.36" fill="#9b8878"/>
      <rect x="264.5" y="22.03" width="58.75" height="99.28" fill="#00e55c"/>
      <path d="M325.74,123.79H262V19.55h63.72Zm-58.75-5h53.78V24.52H267Z" fill="#00b956"/>
      <rect id="d5a142b6-f72d-412a-9a7f-bbbcec22c8fb" data-name="&lt;Path&gt;" x="276.82" y="37.43" width="34.11" height="68.48" fill="#049e45"/>
      <path d="M229,188.58a7.61,7.61,0,0,0-4.05,1.25c-4.35-2.82-9.9-6.7-14-9.31-17.34-5.9-39,12.47-43.15,13.47H229Z" fill="#fff" opacity="0.4"/>
    </g>
  </g>
</svg>
