<svg xmlns="http://www.w3.org/2000/svg" xmlns:xlink="http://www.w3.org/1999/xlink" width="110.35" height="292.56" viewBox="0 0 110.35 292.56">
  <defs>
    <symbol id="02737964-68d1-4343-92a9-e8e66e9565cb" data-name="New Symbol 25" viewBox="0 0 29.11 108.65">
      <path d="M11.39.19l-.28,0C3.86,1.53-1,10,.18,19.22l8.08,73.9.86,7.29c.59,5,4.41,8.63,8.64,8.21,3.84-.39,6.83-4,7.09-8.56l.43-7.54L29.1,20.38C29.42,8.3,20.84-1.49,11.39.19Z" fill="#ffb597"/>
    </symbol>
    <symbol id="1ea07151-a6ba-4b93-8c37-974c7f6bc7de" data-name="New Symbol 3" viewBox="0 0 21.01 10.68">
      <path d="M.75,0C.18,0-.18,1,.09,1.72c1.89,5.31,5.84,9,10.42,9S19,7,20.92,1.72C21.19,1,20.83,0,20.26,0Z" fill="#fff"/>
    </symbol>
    <symbol id="26a8d846-a0cc-41df-b768-e0af927d3c4d" data-name="ÕÓ‚˚È ÒËÏ‚ÓÎ 10" viewBox="0 0 7 6.67">
      <ellipse cx="3.5" cy="3.33" rx="3.5" ry="3.33" fill="#ff9983"/>
    </symbol>
    <symbol id="e0b22aed-3d64-45cf-aedd-af67e65dee77" data-name="New Symbol 2" viewBox="0 0 3.26 4.72">
      <path d="M1.63,4.72h0A1.63,1.63,0,0,1,0,3.09V1.63A1.63,1.63,0,0,1,1.63,0h0A1.63,1.63,0,0,1,3.26,1.63V3.09A1.63,1.63,0,0,1,1.63,4.72Z" fill="#67413a"/>
    </symbol>
    <symbol id="ac4f7221-d76c-4253-8d2d-e035aea9d0e8" data-name="New Symbol 66" viewBox="0 0 14.06 6.75">
      <path d="M13.15,1.58A19.05,19.05,0,0,0,1,.56L0,.8,1.24,5.85l1-.23a13.73,13.73,0,0,1,8.86.73l.91.4L14.06,2Z" fill="#96686c"/>
    </symbol>
    <symbol id="849cfa8a-d9b4-4228-8445-f97bf592ad3d" data-name="ÕÓ‚˚È ÒËÏ‚ÓÎ 5" viewBox="0 0 66.79 65.65">
      <g>
        <path d="M36.52,1H28.27a6.74,6.74,0,0,0-6.74,6.74v4.38a.33.33,0,0,0,.33.33h2.51a.33.33,0,0,0,.33-.33V7.74a3.57,3.57,0,0,1,3.57-3.57h8.25a3.57,3.57,0,0,1,3.57,3.57v4.38a.33.33,0,0,0,.33.33h2.5a.34.34,0,0,0,.34-.33V7.74A6.75,6.75,0,0,0,36.52,1Z" fill="#171719"/>
        <path d="M42.92,13.45h-2.5a1.33,1.33,0,0,1-1.33-1.33V7.74a2.58,2.58,0,0,0-2.57-2.57H28.27A2.57,2.57,0,0,0,25.7,7.74v4.38a1.33,1.33,0,0,1-1.33,1.33H21.86a1.33,1.33,0,0,1-1.33-1.33V7.74A7.75,7.75,0,0,1,28.27,0h8.25a7.75,7.75,0,0,1,7.74,7.74v4.38A1.33,1.33,0,0,1,42.92,13.45Zm-1.83-2h1.17V7.74A5.75,5.75,0,0,0,36.52,2H28.27a5.75,5.75,0,0,0-5.74,5.74v3.71H23.7V7.74a4.58,4.58,0,0,1,4.57-4.57h8.25a4.58,4.58,0,0,1,4.57,4.57Z" fill="#171719"/>
      </g>
      <path d="M10.73,13.3h47.1a8.27,8.27,0,0,1,8.27,8.27V61a4.66,4.66,0,0,1-4.66,4.66H5.84a3.38,3.38,0,0,1-3.38-3.38V21.57a8.27,8.27,0,0,1,8.27-8.27Z" fill="#171719"/>
      <path d="M63.53,65.31h0a3.28,3.28,0,0,1-3.27-3.26V16.13a3.28,3.28,0,0,1,3.27-3.27h0a3.28,3.28,0,0,1,3.26,3.27V62.05A3.27,3.27,0,0,1,63.53,65.31Z" fill="#a56052"/>
      <rect x="2.91" y="40.93" width="62.2" height="6.71" fill="#75372e" opacity="0.61"/>
      <path d="M66.43,14.32a3.05,3.05,0,0,0-3.13-3H6.75A6.58,6.58,0,0,0,0,17.75V38.28a6.11,6.11,0,0,0,6.27,5.93H55a6.11,6.11,0,0,0,6.27-5.93V21.17c0-3.3-2.08-6.07,1.15-6.85Z" fill="#171719"/>
      <path d="M63.53,65.31h0a3.28,3.28,0,0,1-3.27-3.26V16.13a3.28,3.28,0,0,1,3.27-3.27h0a3.28,3.28,0,0,1,3.26,3.27V62.05A3.27,3.27,0,0,1,63.53,65.31Z" fill="#75372e"/>
      <g>
        <rect x="21.83" y="43.75" width="14.03" height="8.21" rx="2.91" ry="2.91" fill="#fecb05"/>
        <rect x="21.83" y="40.33" width="14.03" height="9.92" rx="3.2" ry="3.2" fill="#fecb05"/>
      </g>
    </symbol>
    <symbol id="7ae5be91-acd1-4ffb-a06f-9d24decfe2ac" data-name="ÕÓ‚˚È ÒËÏ‚ÓÎ 16" viewBox="0 0 23.42 26.78">
      <path d="M23.1,10.93l-5.8-8.7A4.73,4.73,0,0,0,13.65.13L8.75,0h0A2,2,0,0,0,6.62,1.16L0,15.78l4.5,10,10.75,1,2.25-2,.5-7,4.81-4.41A1.89,1.89,0,0,0,23.1,10.93Z" fill="#ffb597"/>
      <line x1="11.86" y1="17.96" x2="15.25" y2="26.53" fill="none" stroke="#ff8072" stroke-miterlimit="10"/>
      <line x1="7.81" y1="18.56" x2="11.19" y2="26.39" fill="none" stroke="#ff8072" stroke-miterlimit="10"/>
      <line x1="3.87" y1="18.2" x2="7.25" y2="26.03" fill="none" stroke="#ff8072" stroke-miterlimit="10"/>
      <line x1="17" y1="9.78" x2="17.75" y2="17.53" fill="none" stroke="#ff8072" stroke-miterlimit="10"/>
    </symbol>
  </defs>
  <title>main-denis-char</title>
  <g id="a973b50e-7e92-47c9-982d-399be6bb7c46" data-name="Layer 2">
    <g id="f287d8b4-af06-4507-9eb0-da7c9128b5f2" data-name="Layer 1">
      <g>
        <path d="M88.38,202.38l-2.82,85.73-15,.05-1.36-85.42,1.8-2.14c4.24-5,13.64-3.5,17.33,1.78Z" fill="#222247"/>
        <path d="M86.69,115.54a9.07,9.07,0,0,1,3.72,7.29l-2.06,82.7c0,3.78-4,7.07-8.92,7.51h0c-4.91.43-9.18-2.08-9.78-5.75L56.77,124.86a6.28,6.28,0,0,1,2.09-5.54l4-3.85c5.07-4.9,14.19-5.9,20.13-2.2l3.67,2.23Z" fill="#222247"/>
        <path d="M41.61,202.34l2.72,85.1,14.5,0,1.34-84.79-1.75-2.12c-4.11-5-13.23-3.46-16.81,1.77Z" fill="#222247"/>
        <path d="M43.72,114.86a9.15,9.15,0,0,0-3.61,7.29l2,82.71c0,3.77,3.84,7.06,8.65,7.5h0c4.77.44,8.91-2.07,9.49-5.75l12.5-82.43a6.4,6.4,0,0,0-2-5.54l-3.86-3.85c-4.92-4.9-13.77-5.9-19.53-2.2l-3.57,2.24Z" fill="#222247"/>
        <circle cx="35.35" cy="77.49" r="12.19" fill="#1e1515"/>
        <circle cx="93.11" cy="76.49" r="12.19" fill="#1e1515"/>
        <path d="M50.8,66.49A4.92,4.92,0,0,1,50,64.06,5,5,0,0,1,51.57,60h0V58.61L31.79,65.85l2.82,10.64,17-3.12v-6A5,5,0,0,1,50.8,66.49Z" fill="#281d1d"/>
        <polyline points="78.21 58.91 95.4 64.52 94.82 73.24 77.74 60.07" fill="#281d1d"/>
        <path d="M49,81.15l5.22-10s7.89,14.64,21,0S70,84.5,70,84.5s-5.92,2.26-6.59,2.18S49,81.15,49,81.15Z" fill="#1e1515"/>
        <use id="d559f495-db39-429c-babf-da578d4136b1" data-name="New Symbol 25" width="29.11" height="108.65" transform="matrix(-0.46, 0, 0, 0.46, 36.15, 116.85)" xlink:href="#02737964-68d1-4343-92a9-e8e66e9565cb"/>
        <polygon points="22.95 158.22 35.01 158.22 38.86 128.35 43.46 104.42 47.39 79.43 23.29 76.44 20.48 118.98 20.11 123.21 22.95 158.22" fill="#1e1515"/>
        <g>
          <rect x="41.39" y="142.86" width="46.53" height="17.91" rx="8.67" ry="8.67" fill="#e15544"/>
          <path d="M45.82,103.7c1,7.38.74,23.6-.82,30.87l-2.61,12.16H87.17l-2.6-12.16c-1.56-7.27-1.84-23.49-.83-30.87l3.48-25.26A4.37,4.37,0,0,0,85,74L71.65,67a14.6,14.6,0,0,0-13.74,0L44.61,74a4.35,4.35,0,0,0-2.26,4.43Z" fill="#312b6b"/>
        </g>
        <path d="M95,70l-5.54,79.91H39.89L34.36,70a3.17,3.17,0,0,1,2-3.3C43.8,64,51,58.67,57.93,54.89l.12-.06A15.24,15.24,0,0,1,64.41,53v0h.49v0a15.32,15.32,0,0,1,6.47,1.85C78.29,58.65,85.5,64,92.91,66.66A3.17,3.17,0,0,1,95,70Z" fill="#281d1d"/>
        <g>
          <path d="M65.92,49Z" fill="#ffb597"/>
          <path d="M74.92,53c-1-.66-1.92-1.33-3.08-2a13.31,13.31,0,0,0-5.92-2v0h0c-4,.14-5.07.78-7.06,1.93l-.48.06-1.53.8.1,0c-.74.42-2,.84-2,1.26v4.06c2,2.8,5.06,6.14,7.34,9.44a3.59,3.59,0,0,0,6.19-.15l6.47-9ZM64.7,49h0Z" fill="#ffb597"/>
        </g>
        <g>
          <path d="M74.68,41.39V55.74c0,2.55-3.61,4.65-8,4.65H62.52c-4.42,0-8-2.1-8-4.65V41.39a3.14,3.14,0,0,1,.87-2.09,7.85,7.85,0,0,1,4.14-2.21,12.72,12.72,0,0,1,3-.35h4.13C71.07,36.74,74.68,38.83,74.68,41.39Z" fill="#ffb597"/>
          <path d="M74.68,42.32v4.53c-6.61,3.35-13.64,7-20.2,10.21V42.32a4.18,4.18,0,0,1,.87-2.51l.15-.1,4-2.55a10.93,10.93,0,0,1,3-.42h4.13C71.07,36.74,74.68,39.25,74.68,42.32Z" fill="#ff9983"/>
        </g>
        <path d="M81.48,9.75c-1.15-2.28-3.78-3-7.16-4.72l-1.83-1-.57-.29h-.07a17.57,17.57,0,0,0-14.07-.27h0c-.41.17-.8.35-1.19.55C52.09,6.35,46.32,7.88,47,14.21l1.44,13.42.77,7.15a8.36,8.36,0,0,0,1.49,3.94l.34.47A7.56,7.56,0,0,0,57,42.09l15.57-.3A7.38,7.38,0,0,0,78,39.05c.12-.14.24-.3.35-.45a8.53,8.53,0,0,0,1.62-4.18l.7-6.79L82,14.5A8.54,8.54,0,0,0,81.48,9.75Z" fill="#000429"/>
        <path d="M77.92,40V19.16a4.87,4.87,0,0,0-3.28-4.79l-9.08-3a4.76,4.76,0,0,0-2.08-.23,4.7,4.7,0,0,0-1.28.31l-8.63,3.16a5.45,5.45,0,0,0-3.65,4.72V39.92c0,.18.41.46.43.81.11,1.86.69,5.48,1.32,6.24l1.51,1.25h0l.71.91a21.38,21.38,0,0,0,5,4.06c.19.09.4.21.62.29v0l.26.11a14.65,14.65,0,0,0,8.68.53,16.59,16.59,0,0,0,6-4l1.82-2h0l1-1c.52-.64.65-3.48.81-5.45A10.58,10.58,0,0,0,77.92,40Z" fill="#fbba9f"/>
        <g>
          <path d="M50.58,38.54H49.42c-1.39,0-2.51-1.41-2.51-3.15v-1A2.44,2.44,0,0,1,49,31.76h1.55Z" fill="#ff9983"/>
          <path d="M78.21,38.51h1.15c1.38,0,2.5-1.39,2.5-3.12v-1a2.43,2.43,0,0,0-2.11-2.65H78.21Z" fill="#ff9983"/>
        </g>
        <use width="21.01" height="10.67" transform="translate(59.09 42.64) scale(0.52)" xlink:href="#1ea07151-a6ba-4b93-8c37-974c7f6bc7de"/>
        <g>
          <use width="7" height="6.67" transform="translate(52.86 35.59) scale(0.64)" xlink:href="#26a8d846-a0cc-41df-b768-e0af927d3c4d"/>
          <use id="d364b38e-8c93-4f66-af30-8d25d29d0b4f" data-name="ÕÓ‚˚È ÒËÏ‚ÓÎ 10" width="7" height="6.67" transform="translate(71.74 35.59) scale(0.64)" xlink:href="#26a8d846-a0cc-41df-b768-e0af927d3c4d"/>
        </g>
        <path d="M55.73.24A15,15,0,0,0,47,7l3.75-.62a55,55,0,0,0-10.14,13.8c4.14,1,8.31,2,12.52,1.86A17.34,17.34,0,0,0,65,17.2l-2.4,4.44c.69-1.29,5.83-2.45,7.17-3.21a33.64,33.64,0,0,0,5.8-4.16c2.78-2.54,5-5.73,3.59-8.79A11.81,11.81,0,0,0,73.65,0Z" fill="#000429"/>
        <use id="3d4ca330-ef95-4e18-a493-5ea0d6591e13" data-name="New Symbol 2" width="3.26" height="4.72" transform="matrix(-1.32, 0, 0, 0.8, 72.54, 30.07)" xlink:href="#e0b22aed-3d64-45cf-aedd-af67e65dee77"/>
        <use id="0d32eb8f-1a94-4bae-9a3d-e764ec1c1030" data-name="New Symbol 66" width="14.06" height="6.75" transform="translate(68.02 25.21) scale(0.44)" xlink:href="#ac4f7221-d76c-4253-8d2d-e035aea9d0e8"/>
        <g id="8c5b5f83-a703-4f3a-b8fb-b8a43f375463" data-name="&lt;Group&gt;">
          <use id="14d9b86f-3837-4ce3-8075-02868cbd17a4" data-name="New Symbol 66" width="14.06" height="6.75" transform="matrix(-0.44, 0, 0, 0.44, 61.04, 25.21)" xlink:href="#ac4f7221-d76c-4253-8d2d-e035aea9d0e8"/>
        </g>
        <use id="0e9ea42a-f1d9-4ff1-904c-781e47ac11b0" data-name="New Symbol 2" width="3.26" height="4.72" transform="matrix(-1.32, 0, 0, 0.8, 60.81, 30.1)" xlink:href="#e0b22aed-3d64-45cf-aedd-af67e65dee77"/>
        <g>
          <polygon points="32.04 174.05 36.39 167.49 32.24 166.81 31.8 169.79 32.04 174.05" fill="#f29583"/>
          <use id="dcae8429-a501-4eed-b0d0-ecbaf076a5dd" data-name="ÕÓ‚˚È ÒËÏ‚ÓÎ 5" width="66.79" height="65.65" transform="translate(0 167.02) scale(0.86)" xlink:href="#849cfa8a-d9b4-4228-8445-f97bf592ad3d"/>
          <path d="M32.28,172l-.24-5,3.82.33a1.27,1.27,0,0,0,.2-1.64l-3.91-5.87a3.21,3.21,0,0,0-2.46-1.42l-3.31-.07h-.22A1.34,1.34,0,0,0,25,159l-4.47,9.85,3,5.25,1.5.14.76.07,1.89.18.89.08h0l2.21.21,1.52-1.35.22-1.54Z" fill="#ffb597"/>
          <polygon points="30.47 174.74 28.18 170.46 28.77 170.23 31.06 174.51 30.47 174.74" fill="#ff8072"/>
          <polygon points="28.55 174.59 27.66 174.51 25.46 170.88 26.04 170.62 28.55 174.59" fill="#ff8d7b"/>
          <polygon points="25.77 174.33 25.01 174.26 22.8 170.63 23.38 170.38 25.77 174.33" fill="#ff8072"/>
        </g>
        <path d="M20.56,150.84l.49,5.2s-.42,2.18,3,2.18H34.5a1.54,1.54,0,0,0,1.77-1.37c.18-1.57.86-4.91.86-4.91s.8-2-1.1-2-13.72,0-13.72,0S20.45,149.69,20.56,150.84Z" fill="#3a211d"/>
        <polygon points="72.67 117.22 37.52 117.22 39.02 160.22 89.92 160.22 89.92 120.58 72.67 117.22" fill="#281d1d"/>
        <rect x="49.66" y="53.28" width="4.51" height="13.56" rx="1.98" ry="1.98" fill="#3a211d"/>
        <rect x="74.68" y="53.2" width="4.84" height="13.56" rx="2.05" ry="2.05" fill="#3a211d"/>
        <path d="M52.83,53.2s9.49,11.13,23.25,0a77.73,77.73,0,0,1,1,8s-5.58,8.88-6,9.13-5.23,1.67-6.3,1.42-7.46-4.84-7.46-4.84l-4.07-6.55-1.34-1.48Z" fill="#3a211d"/>
        <path d="M62.59,147.86s7.4,1.61,7.4-4.13-1.17-64-1.17-64" fill="none" stroke="#1e1515" stroke-linecap="round" stroke-linejoin="round"/>
        <polygon points="51.16 53.45 54.92 51.6 54.92 57.75 51.16 53.45" fill="#3a211d"/>
        <polygon points="77.47 53.09 74.68 51.19 74.77 56.88 77.47 53.09" fill="#3a211d"/>
        <rect x="61.82" y="64.27" width="16.65" height="39.14" rx="2.85" ry="2.85" transform="translate(-15.41 15.79) rotate(-11.58)" fill="#331d1b"/>
        <path d="M51.58,62.5l-1.5,3.57s12.18,17.19,29.44,0c-4.84-3.88-13.88-5-13.88-5l-10.55-.67Z" fill="#3a211d"/>
        <rect x="51.94" y="65.02" width="16.65" height="39.14" rx="2.85" ry="2.85" transform="translate(16.44 -9.57) rotate(10.51)" fill="#3a211d"/>
        <rect x="38.84" y="158.25" width="51.41" height="4.69" rx="2.34" ry="2.34" fill="#1e1515"/>
        <circle cx="63.68" cy="134.91" r="1.58" fill="#1e1515"/>
        <circle cx="63.33" cy="124.21" r="1.58" fill="#1e1515"/>
        <circle cx="63.33" cy="112.86" r="1.58" fill="#1e1515"/>
        <rect x="70.55" y="278.96" width="7.77" height="9.11" rx="3.67" ry="3.67" fill="#222247"/>
        <circle cx="81.62" cy="287.1" r="0.97" fill="#67008d"/>
        <rect x="71.58" y="282.08" width="13.48" height="10.04" rx="5.02" ry="5.02" fill="#5a749d"/>
        <rect x="70.37" y="285.97" width="15.87" height="6.56" rx="3.28" ry="3.28" fill="#383772"/>
        <rect x="70.41" y="288.67" width="15.86" height="3.89" fill="#383772"/>
        <rect x="70.38" y="290.42" width="15.86" height="2.14" fill="#fff"/>
        <rect x="60.28" y="123.68" width="3.1" height="0.92" fill="#3a211d"/>
        <rect x="60.05" y="112.4" width="3.1" height="0.92" fill="#3a211d"/>
        <rect x="60.28" y="134.45" width="3.1" height="0.92" fill="#3a211d"/>
        <rect x="61.75" y="111.28" width="4.06" height="3.16" rx="1.58" ry="1.58" fill="#1e1515"/>
        <rect x="61.65" y="122.63" width="4.06" height="3.16" rx="1.58" ry="1.58" fill="#1e1515"/>
        <rect x="61.85" y="133.33" width="4.06" height="3.16" rx="1.58" ry="1.58" fill="#1e1515"/>
        <path d="M95.4,64.52s-6.34,15.92-5,23.85S98,74.61,98,73.24,95.4,64.52,95.4,64.52Z" fill="#1e1515"/>
        <circle cx="54" cy="287.1" r="0.97" fill="#67008d"/>
        <rect x="43.96" y="282.08" width="13.48" height="10.04" rx="5.02" ry="5.02" fill="#5a749d"/>
        <rect x="42.75" y="285.97" width="15.87" height="6.56" rx="3.28" ry="3.28" fill="#383772"/>
        <rect x="42.79" y="288.67" width="15.86" height="3.89" fill="#383772"/>
        <rect x="42.76" y="290.42" width="15.86" height="2.14" fill="#fff"/>
        <line x1="6.21" y1="197.53" x2="17.62" y2="197.53" fill="#000429" stroke="#1e1515" stroke-miterlimit="10"/>
        <g>
          <rect x="49.12" y="90.17" width="21.1" height="11.01" rx="1.66" ry="1.66" transform="translate(-36 155.35) rotate(-90)" fill="#158243"/>
          <use id="fe9c71e8-ecd9-414c-9292-ced805d2dfaa" data-name="New Symbol 25" width="29.11" height="108.65" transform="translate(107.7 119.67) rotate(119.65) scale(0.43)" xlink:href="#02737964-68d1-4343-92a9-e8e66e9565cb"/>
          <use width="23.42" height="26.78" transform="matrix(0.26, -0.57, -0.57, -0.26, 66.57, 113.11)" xlink:href="#7ae5be91-acd1-4ffb-a06f-9d24decfe2ac"/>
          <path d="M110.34,123.68c-.17-2.6-3-49.14-3-49.14s-1.25-8.38-10.79-9l-3.83,7.1-2.19,18.1c.62,7.92.43,18.63.55,18.69-1.09-1.09-13-6.4-13.75-7.21l-7.59,13,18.51,13.89s10.33,6.7,15.05,2.35S110.51,126.27,110.34,123.68Z" fill="#1e1515"/>
          <path d="M80.11,103.14l-4.46-2.23s-1.42-1.39-3.23,1.48l-5.59,8.87a1.33,1.33,0,0,0,0,2.1c1.23,1,3.6,3.27,3.6,3.27s1.19,1.71,2.23.12S80,105.14,80,105.14,81.14,103.66,80.11,103.14Z" fill="#3a211d"/>
          <path d="M61.68,98.29s4.24,2,4.24,2.16V87.79c0-.92-1.49-2.57-2.4-2.57H55.83c-.91,0-1.74,1.3-1.74,2.21l.27,8.24Z" fill="#00b956"/>
          <polygon points="55.15 93.72 53.92 95.07 53.92 100.99 55.15 97.6 57.31 96.58 55.15 93.72" fill="#00b956"/>
        </g>
      </g>
    </g>
  </g>
</svg>
