<svg xmlns="http://www.w3.org/2000/svg" width="133.83" height="291.37" viewBox="0 0 133.83 291.37">
  <title>main-oleg-char</title>
  <g id="e84fb5e5-0e62-46c5-8638-d9c3e38b3853" data-name="Layer 2">
    <g id="7f9df2f1-d338-4fda-8c99-6291b9d22fad" data-name="Layer 1">
      <g>
        <polygon points="44.48 273.76 43.31 282.81 30.42 282.77 31.42 273.98 44.48 273.76" fill="#6f7d8e"/>
        <polygon points="65.88 275.05 65.85 284.11 78.82 284.15 78.97 274.75 65.88 275.05" fill="#6f7d8e"/>
        <g>
          <rect x="65.86" y="282.85" width="28.2" height="8.27" rx="3.52" ry="3.52" transform="translate(4.49 -1.21) rotate(0.89)" fill="#685252"/>
          <rect x="65.11" y="289.48" width="28.93" height="1.84" transform="translate(0.96 -0.26) rotate(0.19)" fill="#3f2f2f"/>
          <polygon points="76.94 284.75 78.47 280.42 91.96 283.32 76.94 284.75" fill="#685252"/>
          <polygon points="84.15 289.55 65.2 289.43 65.31 282.62 84.26 282.92 84.15 289.55" fill="#685252"/>
        </g>
        <g>
          <g>
            <g id="713875e3-3bec-4cfd-b39a-770992241943" data-name="&lt;Group&gt;">
              <path d="M42.24,81.79c-5.85.54-11.63,15.62-12.75,19.64l-1.21,4.32-2.81,21.52a7,7,0,0,0,5.79,8A6.86,6.86,0,0,0,39,129.84S46.55,89,46.56,89c.43-2.18-1-7.06-3.87-7.18A3.38,3.38,0,0,0,42.24,81.79Z" fill="#121738" stroke="#121738" stroke-miterlimit="10" stroke-width="6"/>
            </g>
            <g id="f677da00-6efc-4df1-9f41-3c592c5cab95" data-name="&lt;Group&gt;">
              <g>
                <path d="M27.7,167.57a2.09,2.09,0,0,1-.35,0l0,.29,2.15-.27Z" fill="#ff8072"/>
                <path d="M37.07,162.67l.25,0,.37-30.85A6.38,6.38,0,0,0,36,127.51,6.37,6.37,0,0,0,25,132.32L27,162.91a1.41,1.41,0,0,1,.61-.15Z" fill="#121738" stroke="#121738" stroke-miterlimit="10" stroke-width="6"/>
                <path d="M39,166l0-2a1.53,1.53,0,0,0-1.39-1.39l-.3,0-11,.09a1.88,1.88,0,0,0-.71.15,1.41,1.41,0,0,0-.94,1.29l0,2A1.5,1.5,0,0,0,26,167.52a1.75,1.75,0,0,0,.4,0l2.13,0,8.88-.07.18,0A1.54,1.54,0,0,0,39,166Z" fill="#d4f0fe"/>
                <path d="M29.52,167.55l-2.15.27.25,3.56A4.79,4.79,0,0,0,32,175.77a4.33,4.33,0,0,0,.72,0A4.81,4.81,0,0,0,37.22,171l0-3.55-.15,0Z" fill="#f6b297"/>
              </g>
            </g>
          </g>
          <path d="M83.05,80.09c5.84-.64,14.53,13,16.43,16.69,0,0,2,4,2,4l7.07,20.51a7,7,0,0,1-4,9.05,6.86,6.86,0,0,1-8.67-3.81L80.26,88c-.86-2-.47-7.11,2.35-7.81Z" fill="#121738" stroke="#121738" stroke-miterlimit="10" stroke-width="6"/>
          <path d="M41.84,153.18H83.49a0,0,0,0,1,0,0v21a6.31,6.31,0,0,1-6.31,6.31h-29a6.31,6.31,0,0,1-6.31-6.31v-21A0,0,0,0,1,41.84,153.18Z" transform="translate(0.55 -0.21) rotate(0.19)" fill="#384d6b"/>
          <g>
            <g>
              <g id="f8ebe7b3-3b73-4aeb-be61-ea7f0ed79b07" data-name="&lt;Group&gt;">
                <path d="M44,228.67h0c-3.65-.37-6.28-3.28-6-6.57l5.79-56c.39-3.87,4.64-6.47,8.76-5.36l7.53,2A6,6,0,0,1,64.7,170L51.39,224A6.85,6.85,0,0,1,44,228.67Z" fill="#384d6b" stroke="#374c6a" stroke-miterlimit="10" stroke-width="5"/>
              </g>
              <g id="12bfcf73-e8e9-45f3-83d8-7ea982aaf52e" data-name="&lt;Group&gt;">
                <path d="M51.09,225.45c.52-3.29-1.93-6.35-5.56-6.94-4.14-.67-8,2.12-8.18,5.9l-1.09,12.43-.19.15-4.44,38.68a1.17,1.17,0,0,0,1.05,1.25l10.1.63c.72.12.92-2.1,1-2.75Z" fill="#384d6b" stroke="#374c6a" stroke-miterlimit="10" stroke-width="5"/>
              </g>
            </g>
            <g>
              <g id="4868d777-d741-4da8-9f6c-4b574fb83bf8" data-name="&lt;Group&gt;">
                <path d="M73.51,226.36h0a6.46,6.46,0,0,0,6.68-6l3-57.84A6.43,6.43,0,0,0,75.68,156l-7.47,1.13a6.38,6.38,0,0,0-5.51,6.79l4.45,56.71A6.42,6.42,0,0,0,73.51,226.36Z" fill="#384d6b" stroke="#374c6a" stroke-miterlimit="10" stroke-width="5"/>
              </g>
              <g id="76857617-0210-466a-9ac2-d0b227edc537" data-name="&lt;Group&gt;">
                <path d="M67.21,222.2a6.63,6.63,0,1,1,13.25.63l-.86,12.82.16.17-1.68,40A1.2,1.2,0,0,1,76.9,277l-9,.4a1.22,1.22,0,0,1-1.29-1.21Z" fill="#384d6b" stroke="#374c6a" stroke-miterlimit="10" stroke-width="5"/>
              </g>
            </g>
          </g>
          <path d="M90.78,87.63c-.55-6.78-9.9-11.41-14.73-13.84-1.23-.62-11-4-12.41-3.43-1.38-.53-11.2,2.74-12.44,3.35-4.84,2.4-14.23,7-14.81,13.74A79.25,79.25,0,0,0,36,97.63l2.83,69.55c.07.68,4.31,1.52,5.6,1.59l13.94-.12c1.57.11,3.14.16,4.72.17h.41c1.57,0,3.15,0,4.72-.13l13.94-.82c1.29-.07,5.44-.67,5.51-1.35l3.39-68.71A82.34,82.34,0,0,0,90.78,87.63Z" fill="#000429"/>
          <path d="M79.13,75.35l-10.25,30-5.57,14.33-1,.47,0-.09L57.6,106.6,46.8,75.65l.76-.47a28.86,28.86,0,0,1,31.3,0Z" fill="#e8f3f7"/>
          <g>
            <polygon points="47.39 75.06 43.02 87.32 51.03 91.34 45.72 101.62 63.12 120.14 47.39 75.06" fill="#607189"/>
            <polygon points="79.11 75.17 83.38 87.46 75.33 91.42 80.57 101.74 63.02 120.13 79.11 75.17" fill="#607189"/>
          </g>
          <polygon points="63.11 120.06 63.3 119.67 68.35 105.22 66.57 93 64.22 88.65 68.34 82.78 63.44 75.7 57.46 83.61 60.9 88.72 58.32 94.9 58.11 106.72 63.11 120.06" fill="#67008d"/>
          <path d="M55.83,85.07l7.61-5.63,7.28,5.2a10.83,10.83,0,0,0,4.61-8.49C75.35,70.36,69.83,65,63,65S50.62,70.28,50.6,76.07A11,11,0,0,0,55.83,85.07Z" fill="#d4f0fe"/>
          <rect x="46.41" y="55.32" width="33.51" height="16.38" rx="6.83" ry="6.83" transform="translate(-0.55 126.46) rotate(-89.81)" fill="#f29583"/>
          <path d="M71.39,53.6l0,14.25L55,63.71l0-10.16a6.82,6.82,0,0,1,6.85-6.8h2.73A6.82,6.82,0,0,1,71.39,53.6Z" fill="#ef9f8a"/>
          <g>
            <path d="M110.65,84.74a1.35,1.35,0,0,0-.34-.06l.1-.27,2,.86Z" fill="#ff8072"/>
            <path d="M118.26,92.07a1.19,1.19,0,0,0,.26.05l-8.31,29.72a6.37,6.37,0,1,1-12.07-4L108.71,89a1.36,1.36,0,0,0,.55.31Z" fill="#121738" stroke="#121738" stroke-miterlimit="10" stroke-width="6"/>
            <path d="M121.44,89.37l-.64,2.12a1.61,1.61,0,0,1-1.74,1.13,1.37,1.37,0,0,1-.28-.05l-10.22-3.1a1.54,1.54,0,0,1-.62-.36,1.64,1.64,0,0,1-.47-1.67l.65-2.11a1.62,1.62,0,0,1,1.63-1.15,1.76,1.76,0,0,1,.39.06l2,.6,8.24,2.5.16.07A1.62,1.62,0,0,1,121.44,89.37Z" fill="#d4f0fe"/>
            <path d="M112.4,85.27l-2-.86,1.23-3.35a4.81,4.81,0,0,1,5.42-3,5.56,5.56,0,0,1,.7.19,4.81,4.81,0,0,1,3,5.85l-1,3.42-.14-.06Z" fill="#f6b297"/>
          </g>
          <g id="421f6e82-5469-448d-8829-97ad2ca6fc7a" data-name="ÕÓ‚˚È_ÒËÏ‚ÓÎ_3_1_">
            <g>
              <path d="M34.36,178.07l-8.68,0a7.1,7.1,0,0,0-7.12,7.08l0,4.61a.35.35,0,0,0,.35.35h2.64a.35.35,0,0,0,.35-.35v-4.61a3.78,3.78,0,0,1,3.78-3.75l8.68,0a3.77,3.77,0,0,1,3.75,3.77l0,4.61a.36.36,0,0,0,.35.36h2.64a.35.35,0,0,0,.35-.35v-4.62A7.11,7.11,0,0,0,34.36,178.07Z" fill="#000429"/>
              <rect x="3.44" y="190.13" width="56.57" height="40.46" transform="translate(0.69 -0.1) rotate(0.19)" fill="#000429"/>
              <rect x="0.07" y="190.11" width="56.57" height="40.46" transform="translate(0.69 -0.09) rotate(0.19)" fill="#13193d"/>
            </g>
          </g>
          <g id="e95a748c-9d94-4552-bac8-5214d965c4d7" data-name="ÕÓ‚˚È_ÒËÏ‚ÓÎ_38_1_">
            <g>
              <path d="M34.64,183.16l-.23-5.07,3.85.35a1.26,1.26,0,0,0,.2-1.65l-3.91-5.93a3.26,3.26,0,0,0-2.48-1.44l-3.33-.08h-.22a1.33,1.33,0,0,0-1.23.78L22.76,180l3,6.81,1.51.15.77.07,1.9.18.89.09h0l2.22.21,1.54-1.35.23-3.05Z" fill="#f6b297"/>
              <rect x="31.64" y="181.32" width="0.64" height="6.26" transform="translate(-65.04 24.34) rotate(-21.38)" fill="#f29583"/>
              <polygon points="30.86 187.32 29.97 187.23 27.77 182.06 28.36 181.8 30.86 187.32" fill="#f29583"/>
              <polygon points="28.07 187.05 27.3 186.97 25.09 181.8 25.68 181.55 28.07 187.05" fill="#f29583"/>
              <polygon points="34.38 186.78 37.78 182.69 35.61 180.99 34.16 180.99 34.38 186.78" fill="#f29583"/>
            </g>
          </g>
          <g>
            <polygon points="120.9 61.48 119.11 61.38 117.39 67.78 119.26 68.19 120.9 61.48" fill="#f6b297"/>
            <path d="M111.66,77.77l2.12-6.84,5.33-5.87a.22.22,0,0,1,.37.19l-1.19,5.35,9.14-.2,5.79,1.29a.79.79,0,0,1,.6.93l-.25,1.09a.76.76,0,0,1-.57.59h0a.76.76,0,0,0-.57.59L132,76.78a.83.83,0,0,1-.45.55l-.3.13a.83.83,0,0,0-.43.49l-.57,1.9a.8.8,0,0,1-.63.54l-.14,0a.78.78,0,0,0-.64.6l-.2.9a.79.79,0,0,1-.57.59l-8.43,2.92a4.58,4.58,0,0,1-3.84-.76l-2.49-1.84A4.58,4.58,0,0,1,111.66,77.77Z" fill="#f6b297"/>
            <rect x="118.09" y="57.92" width="12.13" height="22.59" rx="1.43" ry="1.43" transform="translate(230.39 163.65) rotate(-167.51)" fill="#67008d"/>
            <g>
              <path d="M125.81,74.69l5.86.28a.92.92,0,0,0,.87-.8l.4-1.79c.13-.6-.2-1.15-.7-1.15l-6.23.08a1,1,0,0,0-.86,1l0,1.42A.82.82,0,0,0,125.81,74.69Z" fill="#f6b297"/>
              <path d="M124.71,78.8l4.8.48c.32,0,.69-.37.87-.94l.67-2.16c.22-.72,0-1.39-.36-1.39l-5.16-.05c-.38,0-.8.56-.91,1.24l-.3,1.72C124.22,78.29,124.39,78.77,124.71,78.8Z" fill="#f6b297"/>
              <path d="M125,81.61l3.16,1.25c.25,0,.59-.27.8-.77l.77-1.84c.26-.62.21-1.23-.12-1.27l-4.06-.49c-.29,0-.69.43-.86,1l-.33,1A1.09,1.09,0,0,0,125,81.61Z" fill="#f6b297"/>
            </g>
          </g>
          <g>
            <g>
              <path d="M73.2,54.18l-19.4.26c-4.75.06-9.08-3.42-9.63-8L41.48,24.1c-.76-6.34,3.61-11.76,9.71-11.64L76,13c5.81.12,9.87,5.51,9.12,11.61L82.45,46.2A9.49,9.49,0,0,1,73.2,54.18Z" fill="#352525"/>
              <path d="M80.5,26l-.09,25.92c0,.4,0,1.19-.12,2.14-.2,2.45-.64,6-1.29,6.79L69.16,71.33a6.33,6.33,0,0,1-5,2.36H62.41a6.38,6.38,0,0,1-4.91-2.33L47.41,60.72c-.78-1-1.25-5.68-1.38-8,0-.43,0-.78,0-1L46.09,26a6.31,6.31,0,0,1,4.08-5.87l10.28-3.9a6,6,0,0,1,1.63-.38,6.2,6.2,0,0,1,2.66.3L76.17,20A6.31,6.31,0,0,1,80.5,26Z" fill="#ffb597"/>
              <path d="M86.12,3.72c-.35-1.23-.76-2.47-1.2-3.72L52.07,9.87a15.65,15.65,0,0,0-4.19,2.32,5.79,5.79,0,0,0-1.74,6.66c2.58.78,5.24,0,7.86-.4l.1,0A24.93,24.93,0,0,0,57.27,21C70.19,27.57,91.11,21.27,86.12,3.72Z" fill="#352525"/>
              <g>
                <path d="M47.12,52H45.18C42.85,52,41,49.33,41,46.09V44.28c0-2.74,1.62-5,3.59-5h2.59S47.12,52.88,47.12,52Z" fill="#ffb597"/>
                <path d="M79,51.89h1.89c2.25,0,4.09-2.53,4.1-5.67V44.47c0-2.66-1.54-4.82-3.45-4.82H79.07S79,52.76,79,51.89Z" fill="#ffb597"/>
              </g>
              <g>
                <path d="M80.85,37.88l0,15.1c0,.38,0,1.13-.13,2-.69,7.49-7,11.64-12.11,16.43a7.44,7.44,0,0,1-5.12,2.24s-.61,0-.61,0a7.33,7.33,0,0,1-5.1-2.26c-5.45-5.15-11.34-8.7-12-16.51,0,0,0-.1,0-.14-.07-.84-.1-1.54-.1-1.9l0-15.1a.27.27,0,0,1,.54,0l1.47,11.5.44,3.46a.82.82,0,0,0,1.19.64l3.55-1.83a7.08,7.08,0,0,1,5.3-.49L61.2,52.7a7,7,0,0,0,4,0L68.28,51a7.06,7.06,0,0,1,5.29.53l3.54,1.85a.83.83,0,0,0,1.2-.63l.33-2.41,1.67-12.54A.27.27,0,0,1,80.85,37.88Z" fill="#634747"/>
                <path d="M63.39,74l-.58,0h0a7.63,7.63,0,0,1-5.3-2.36c-1-.92-2-1.82-3-2.68-4.39-3.86-8.54-7.5-9.1-14a.26.26,0,0,0,0-.07v-.07c-.08-.88-.11-1.58-.11-1.92l.05-15.1a.57.57,0,0,1,1.14-.07l1.9,15a.52.52,0,0,0,.28.4.53.53,0,0,0,.49,0l3.55-1.83a7.4,7.4,0,0,1,5.52-.51l.06,0,3,1.67a6.7,6.7,0,0,0,3.79,0l3.09-1.68a7.41,7.41,0,0,1,5.52.55l3.54,1.85a.53.53,0,0,0,.49,0,.5.5,0,0,0,.27-.39l2-14.95a.55.55,0,0,1,.6-.5.56.56,0,0,1,.53.57L81.1,53c0,.38,0,1.15-.13,2.07-.59,6.36-5.16,10.37-9.58,14.25-.87.77-1.77,1.57-2.63,2.36A7.75,7.75,0,0,1,63.46,74Zm-.27-.6h.32a7.11,7.11,0,0,0,4.9-2.15c.88-.82,1.78-1.61,2.66-2.38,4.33-3.81,8.81-7.74,9.38-13.87.09-.9.12-1.65.12-2l0-14.69-2,14.54a1.09,1.09,0,0,1-.59.85,1.12,1.12,0,0,1-1,0l-3.54-1.85a6.74,6.74,0,0,0-5-.51L65.29,53a7.34,7.34,0,0,1-4.18,0l-.06,0-3-1.68a6.77,6.77,0,0,0-5.05.48l-3.55,1.83a1.12,1.12,0,0,1-1,0,1.14,1.14,0,0,1-.59-.85l-1.9-15V52.86a18.13,18.13,0,0,0,.1,1.87.23.23,0,0,0,0,.07v.07c.54,6.27,4.42,9.67,8.91,13.61,1,.87,2,1.77,3,2.71a7.05,7.05,0,0,0,4.91,2.18Z" fill="#634747"/>
              </g>
            </g>
            <g>
              <g id="7bf80201-deb0-4e3f-95d7-7608fe0b15f0" data-name="&lt;Group&gt;">
                <path d="M52.41,34.52,53,36.61s3.29-2.08,5.07-.58l.31-3S53.91,31.84,52.41,34.52Z" fill="#352525"/>
              </g>
              <g id="d3251fd9-8ba0-46e2-91c8-9394a786da61" data-name="&lt;Group&gt;">
                <path d="M74.11,34.59l-.6,2.09s-3.28-2.1-5.07-.62l-.29-3S72.63,31.9,74.11,34.59Z" fill="#352525"/>
              </g>
            </g>
            <g id="ff9b4873-d9b5-477b-901e-a5a289fb2417" data-name="&lt;Group&gt;">
              <path d="M58,58.77a.38.38,0,0,0-.34.56,6.57,6.57,0,0,0,11,0,.39.39,0,0,0-.35-.57Z" fill="#fff"/>
            </g>
            <g id="9ac6623d-79ff-4ad4-84b2-fdaa5961246b" data-name="&lt;Group&gt;">
              <path d="M71.07,42.36h0c1.1,0,2-.61,2-1.35V39.8c0-.74-.9-1.36-2-1.36h0c-1.1,0-2,.6-2,1.35V41C69.07,41.74,70,42.35,71.07,42.36Z" fill="#67413a"/>
            </g>
            <g id="dbde2a48-4cf3-463a-9c2d-b3d29134c3eb" data-name="&lt;Group&gt;">
              <path d="M55.41,42.27h0c1.09,0,2-.59,2-1.33v-1.2c0-.74-.89-1.35-2-1.35h0c-1.09,0-2,.6-2,1.34v1.19C53.43,41.66,54.32,42.27,55.41,42.27Z" fill="#67413a"/>
            </g>
            <g>
              <g>
                <path d="M56,49.35H50.51a6.12,6.12,0,0,1-6.09-6.13l0-5.48a19.15,19.15,0,0,1,.11-2l2.12.4c0,.21-.07,1.2-.07,1.57v5.47a4,4,0,0,0,3.93,4H56a4,4,0,0,0,4-3.93l0-5.48a4.07,4.07,0,0,0-.2-1.24,3.73,3.73,0,0,0-.15-.38l2-.82c.07.17.15.35.21.53a6.31,6.31,0,0,1,.3,1.92l0,5.48A6.11,6.11,0,0,1,56,49.35Z" fill="#000429"/>
                <polygon points="42.14 41.47 40.52 40.04 45.03 34.92 61.75 34.64 62.14 38.47 59.99 38.69 59.8 36.84 46.03 37.06 42.14 41.47" fill="#000429"/>
              </g>
              <g id="497cc0e7-ae9d-41d7-8ccb-09730f399c4c" data-name="&lt;Group&gt;">
                <path d="M75.92,49.42l-5.49,0a6.12,6.12,0,0,1-6.09-6.13l0-5.48a5.91,5.91,0,0,1,.31-1.9,4.33,4.33,0,0,1,.21-.54l2,.83c-.05.13-.11.26-.15.4a3.85,3.85,0,0,0-.2,1.22l0,5.48a4,4,0,0,0,3.94,4l5.48,0a4,4,0,0,0,4-3.94l0-5.47c0-.37,0-1.36-.06-1.57L82,35.89a18,18,0,0,1,.09,2l0,5.48A6.11,6.11,0,0,1,75.92,49.42Z" fill="#000429"/>
                <polygon points="84.34 41.61 80.48 37.17 66.71 36.86 66.51 38.71 64.36 38.48 64.78 34.65 81.49 35.03 85.97 40.19 84.34 41.61" fill="#000429"/>
              </g>
            </g>
          </g>
          <rect x="61.34" y="34.65" width="3.81" height="2.28" transform="translate(0.12 -0.21) rotate(0.19)" fill="#000429"/>
        </g>
        <g>
          <rect x="15.16" y="282.08" width="28.2" height="8.27" rx="3.52" ry="3.52" transform="translate(61.11 572.14) rotate(179.48)" fill="#685252"/>
          <rect x="15.15" y="288.71" width="28.93" height="1.84" transform="translate(58.29 579.35) rotate(-179.81)" fill="#3f2f2f"/>
          <polygon points="32.3 284 30.79 279.66 17.28 282.46 32.3 284" fill="#685252"/>
          <polygon points="25.05 288.75 44 288.75 43.94 281.94 24.98 282.12 25.05 288.75" fill="#685252"/>
        </g>
      </g>
    </g>
  </g>
</svg>
