<svg xmlns="http://www.w3.org/2000/svg" xmlns:xlink="http://www.w3.org/1999/xlink" width="340.02" height="340.33" viewBox="0 0 340.02 340.33">
  <defs>
    <clipPath id="e5cfc244-3035-4083-9436-0e1dece5fcf1">
      <circle cx="170.3" cy="170.51" r="170.27" fill="none"/>
    </clipPath>
    <clipPath id="042f7f6a-b52e-400f-91f2-6851421ff230">
      <rect x="307" y="123.28" width="65.32" height="58.79" fill="none"/>
    </clipPath>
  </defs>
  <title>main-anna</title>
  <g style="isolation: isolate">
    <g id="f2cf0891-3082-4328-a73c-7bd37eabf0b1" data-name="Layer 1">
      <g clip-path="url(#e5cfc244-3035-4083-9436-0e1dece5fcf1)">
        <circle cx="170.24" cy="170.28" r="169.37" fill="#9facc1"/>
        <g opacity="0.43">
          <path d="M298.13,153a3.14,3.14,0,1,1-2,3.95A3.14,3.14,0,0,1,298.13,153Z" fill="#fff"/>
          <path d="M45.56,31.88a3.14,3.14,0,1,1-2,3.95A3.15,3.15,0,0,1,45.56,31.88Z" fill="#fff"/>
          <path d="M257.47,54.51a3.14,3.14,0,1,1-2,4A3.15,3.15,0,0,1,257.47,54.51Z" fill="#fff"/>
          <path d="M257.24,105.34a1.32,1.32,0,1,1-1.79.56A1.32,1.32,0,0,1,257.24,105.34Z" fill="#fff"/>
          <path d="M3.84,51.63a1.32,1.32,0,0,1,1.66.86,1.32,1.32,0,1,1-1.66-.86Z" fill="#fff"/>
          <path d="M255.43,12.5a1.32,1.32,0,1,1-1.79.56A1.32,1.32,0,0,1,255.43,12.5Z" fill="#fff"/>
          <path d="M332.2,62.46a1.33,1.33,0,1,1-1.79.56A1.32,1.32,0,0,1,332.2,62.46Z" fill="#fff"/>
          <path d="M211.14,73.78a1.32,1.32,0,0,1-1.23,2.34,1.31,1.31,0,0,1-.56-1.78A1.32,1.32,0,0,1,211.14,73.78Z" fill="#fff"/>
          <path d="M319.54,16.32a1.32,1.32,0,1,1-1.79.56A1.32,1.32,0,0,1,319.54,16.32Z" fill="#fff"/>
          <path d="M172.65,85.76a1.33,1.33,0,0,1,1.79-.55,1.32,1.32,0,1,1-1.79.55Z" fill="#fff"/>
          <path d="M193.6,56.79a1.32,1.32,0,1,1,.56,1.79A1.32,1.32,0,0,1,193.6,56.79Z" fill="#fff"/>
          <path d="M325.32,195a1.32,1.32,0,1,1,.56,1.78A1.32,1.32,0,0,1,325.32,195Z" fill="#fff"/>
          <path d="M285,176a1.33,1.33,0,0,1,1.79-.55A1.32,1.32,0,1,1,285,176Z" fill="#fff"/>
          <path d="M248,196.56a2.88,2.88,0,1,1-3.63-1.86A2.87,2.87,0,0,1,248,196.56Z" fill="#fff"/>
          <path d="M193.84,110.35a3.14,3.14,0,1,1-4-2A3.14,3.14,0,0,1,193.84,110.35Z" fill="#fff"/>
          <path d="M329.6,253a3.14,3.14,0,1,1-4-2A3.13,3.13,0,0,1,329.6,253Z" fill="#fff"/>
          <path d="M144,79.2a3.55,3.55,0,1,1-4.47-2.29A3.55,3.55,0,0,1,144,79.2Z" fill="#fff"/>
          <path d="M288.67,139.12a1.32,1.32,0,1,1-2.52.81,1.32,1.32,0,0,1,2.52-.81Z" fill="#fff"/>
          <path d="M241.94,79.16a1.33,1.33,0,0,1-2.52.82,1.31,1.31,0,0,1,.85-1.67A1.33,1.33,0,0,1,241.94,79.16Z" fill="#fff"/>
          <path d="M308.47,228.55a1.32,1.32,0,1,1-1.67-.86A1.32,1.32,0,0,1,308.47,228.55Z" fill="#fff"/>
          <path d="M223.83,146.55a1.32,1.32,0,1,1-1.67-.85A1.32,1.32,0,0,1,223.83,146.55Z" fill="#fff"/>
          <path d="M326.1,141.26a1.32,1.32,0,1,1-1.66-.85A1.32,1.32,0,0,1,326.1,141.26Z" fill="#fff"/>
          <path d="M294.75,28.49a1.32,1.32,0,1,1-2.34-1.23,1.32,1.32,0,1,1,2.34,1.23Z" fill="#fff"/>
          <path d="M226,45.43a1.33,1.33,0,1,1-.56-1.78A1.32,1.32,0,0,1,226,45.43Z" fill="#fff"/>
          <path d="M136,29.91a1.32,1.32,0,0,1-2.52.81,1.32,1.32,0,1,1,2.52-.81Z" fill="#fff"/>
          <path d="M331.66,178.25a1.33,1.33,0,1,1-1.67-.85A1.32,1.32,0,0,1,331.66,178.25Z" fill="#fff"/>
          <path d="M19.44,25.33A1.32,1.32,0,1,1,17.1,24.1a1.32,1.32,0,1,1,2.34,1.23Z" fill="#fff"/>
          <path d="M146.35,66.91a1.32,1.32,0,0,1,.81,2.52,1.32,1.32,0,1,1-.81-2.52Z" fill="#fff"/>
          <path d="M225.13,190.25a1.32,1.32,0,1,1-1.78.56A1.32,1.32,0,0,1,225.13,190.25Z" fill="#fff"/>
          <path d="M253.36,165.55a1.33,1.33,0,0,1,.55,1.79,1.32,1.32,0,1,1-2.34-1.23A1.33,1.33,0,0,1,253.36,165.55Z" fill="#fff"/>
          <path d="M207.25,134a1.32,1.32,0,1,1-1.23,2.34,1.32,1.32,0,1,1,1.23-2.34Z" fill="#fff"/>
          <path d="M298.71,7.75a1.32,1.32,0,1,1-1.78.56A1.31,1.31,0,0,1,298.71,7.75Z" fill="#fff"/>
          <path d="M315.65,76.53a1.33,1.33,0,1,1-1.78.56A1.32,1.32,0,0,1,315.65,76.53Z" fill="#fff"/>
          <path d="M177.65,19.07a1.32,1.32,0,1,1-1.79.56A1.32,1.32,0,0,1,177.65,19.07Z" fill="#fff"/>
          <path d="M248,196.56a2.88,2.88,0,1,1-3.63-1.86A2.87,2.87,0,0,1,248,196.56Z" fill="#fff"/>
          <path d="M184.41,135.09a3.14,3.14,0,1,1-3.95-2A3.14,3.14,0,0,1,184.41,135.09Z" fill="#fff"/>
          <path d="M105.15,29.22a3.55,3.55,0,1,1-4.48-2.29A3.55,3.55,0,0,1,105.15,29.22Z" fill="#fff"/>
          <path d="M288.67,139.12a1.32,1.32,0,1,1-2.52.81,1.32,1.32,0,0,1,2.52-.81Z" fill="#fff"/>
          <path d="M241.94,79.16a1.33,1.33,0,0,1-2.52.82,1.31,1.31,0,0,1,.85-1.67A1.33,1.33,0,0,1,241.94,79.16Z" fill="#fff"/>
          <path d="M308.47,228.55a1.32,1.32,0,0,1-2.52.81,1.32,1.32,0,1,1,2.52-.81Z" fill="#fff"/>
          <path d="M223.83,146.55a1.32,1.32,0,1,1-1.67-.85A1.32,1.32,0,0,1,223.83,146.55Z" fill="#fff"/>
          <path d="M294.75,28.49a1.32,1.32,0,1,1-2.34-1.23,1.32,1.32,0,1,1,2.34,1.23Z" fill="#fff"/>
          <path d="M136,29.91a1.32,1.32,0,0,1-2.52.81,1.32,1.32,0,1,1,2.52-.81Z" fill="#fff"/>
          <path d="M331.66,178.25a1.33,1.33,0,1,1-1.67-.85A1.32,1.32,0,0,1,331.66,178.25Z" fill="#fff"/>
          <path d="M19.44,25.33A1.32,1.32,0,1,1,17.1,24.1a1.32,1.32,0,1,1,2.34,1.23Z" fill="#fff"/>
          <path d="M225.13,190.25a1.32,1.32,0,1,1-1.78.56A1.32,1.32,0,0,1,225.13,190.25Z" fill="#fff"/>
          <path d="M253.36,165.55a1.33,1.33,0,0,1,.55,1.79,1.32,1.32,0,1,1-2.34-1.23A1.33,1.33,0,0,1,253.36,165.55Z" fill="#fff"/>
          <path d="M279.79,200.74a1.32,1.32,0,1,1-1.79.56A1.32,1.32,0,0,1,279.79,200.74Z" fill="#fff"/>
          <path d="M207.25,134a1.32,1.32,0,1,1-1.23,2.34,1.32,1.32,0,1,1,1.23-2.34Z" fill="#fff"/>
          <path d="M269.7,90.29a1.31,1.31,0,0,1,.56,1.78,1.32,1.32,0,0,1-1.79.56,1.32,1.32,0,1,1,1.23-2.34Z" fill="#fff"/>
          <path d="M298.71,7.75a1.32,1.32,0,1,1-1.78.56A1.32,1.32,0,0,1,298.71,7.75Z" fill="#fff"/>
          <path d="M315.65,76.53a1.33,1.33,0,1,1-1.78.56A1.32,1.32,0,0,1,315.65,76.53Z" fill="#fff"/>
          <path d="M177.65,19.07a1.32,1.32,0,1,1-1.79.55A1.33,1.33,0,0,1,177.65,19.07Z" fill="#fff"/>
          <path d="M233.33,7.9a2.88,2.88,0,1,1,1.85-3.63A2.89,2.89,0,0,1,233.33,7.9Z" fill="#fff"/>
          <path d="M259.92,136.92a3.55,3.55,0,1,1,2.29-4.47A3.54,3.54,0,0,1,259.92,136.92Z" fill="#fff"/>
          <path d="M64.64,67.78a1.33,1.33,0,0,1-.82-2.52,1.31,1.31,0,0,1,1.67.85A1.33,1.33,0,0,1,64.64,67.78Z" fill="#fff"/>
          <path d="M7.27.54a1.32,1.32,0,0,1-.56-1.78A1.32,1.32,0,0,1,8.5-1.8,1.32,1.32,0,0,1,9.05,0,1.31,1.31,0,0,1,7.27.54Z" fill="#fff"/>
          <path d="M296.49,54.37a1.32,1.32,0,1,1,.86-1.67A1.32,1.32,0,0,1,296.49,54.37Z" fill="#fff"/>
          <path d="M26.84,54.25a1.32,1.32,0,1,1,1.78-.56A1.32,1.32,0,0,1,26.84,54.25Z" fill="#fff"/>
          <path d="M221.24,106.93a1.32,1.32,0,1,1-1.67-.86A1.32,1.32,0,0,1,221.24,106.93Z" fill="#fff"/>
          <path d="M92.25,64.55a1.33,1.33,0,1,1-1.67-.85A1.33,1.33,0,0,1,92.25,64.55Z" fill="#fff"/>
          <path d="M248.25,224.66a1.32,1.32,0,1,1-1.66-.85A1.32,1.32,0,0,1,248.25,224.66Z" fill="#fff"/>
          <path d="M270.35,146.68a1.32,1.32,0,1,1-2.52.81,1.32,1.32,0,0,1,2.52-.81Z" fill="#fff"/>
          <path d="M234.54,24.61a1.33,1.33,0,1,1-.56-1.79A1.32,1.32,0,0,1,234.54,24.61Z" fill="#fff"/>
          <path d="M165.75,41.55a1.33,1.33,0,0,1-1.79.55,1.32,1.32,0,1,1,1.79-.55Z" fill="#fff"/>
          <path d="M288.27,264.43a1.32,1.32,0,0,1-.86,1.66,1.32,1.32,0,1,1-.81-2.51A1.32,1.32,0,0,1,288.27,264.43Z" fill="#fff"/>
          <path d="M299.25,101.69a1.33,1.33,0,1,1-1.67-.85A1.32,1.32,0,0,1,299.25,101.69Z" fill="#fff"/>
          <path d="M283.28,68a1.32,1.32,0,1,1-.56-1.78A1.32,1.32,0,0,1,283.28,68Z" fill="#fff"/>
          <path d="M133,99.2a1.32,1.32,0,1,1-1.67-.85A1.32,1.32,0,0,1,133,99.2Z" fill="#fff"/>
          <path d="M75.23,183.92a3.14,3.14,0,1,1-1.36-4.23A3.14,3.14,0,0,1,75.23,183.92Z" fill="#fff"/>
          <path d="M173.59,224.78a3.14,3.14,0,1,1-1.37-4.23A3.14,3.14,0,0,1,173.59,224.78Z" fill="#fff"/>
          <path d="M137.82,188.68a1.33,1.33,0,1,1,.87-1.66A1.32,1.32,0,0,1,137.82,188.68Z" fill="#fff"/>
          <path d="M204.74,253.05a1.33,1.33,0,1,1,.87-1.66A1.32,1.32,0,0,1,204.74,253.05Z" fill="#fff"/>
          <path d="M115.13,272a1.33,1.33,0,1,1,.87-1.66A1.32,1.32,0,0,1,115.13,272Z" fill="#fff"/>
          <path d="M192.73,178.39a1.32,1.32,0,1,1,.87-1.66A1.32,1.32,0,0,1,192.73,178.39Z" fill="#fff"/>
          <path d="M156.71,295.68a1.33,1.33,0,1,1,.87-1.66A1.32,1.32,0,0,1,156.71,295.68Z" fill="#fff"/>
          <path d="M26.3,173.43a1.34,1.34,0,0,1-.87,1.66,1.33,1.33,0,1,1,.87-1.66Z" fill="#fff"/>
          <path d="M68.17,158.35A1.31,1.31,0,0,1,67.3,160a1.32,1.32,0,1,1,.87-1.65Z" fill="#fff"/>
          <path d="M79.85,117.64a2.88,2.88,0,0,1,2.63-5.13,2.88,2.88,0,1,1-2.63,5.13Z" fill="#fff"/>
          <path d="M118.87,71.47a3.14,3.14,0,1,1,4.23-1.37A3.14,3.14,0,0,1,118.87,71.47Z" fill="#fff"/>
          <path d="M91.71,187a1.32,1.32,0,1,1,1.78-.57A1.33,1.33,0,0,1,91.71,187Z" fill="#fff"/>
          <path d="M167.15,196.36a1.32,1.32,0,1,1,1.78-.57A1.33,1.33,0,0,1,167.15,196.36Z" fill="#fff"/>
          <path d="M14.47,137.78a1.33,1.33,0,0,1-.58-1.78,1.33,1.33,0,1,1,2.36,1.21A1.32,1.32,0,0,1,14.47,137.78Z" fill="#fff"/>
          <path d="M132.3,135.91a1.32,1.32,0,1,1,1.78-.57A1.31,1.31,0,0,1,132.3,135.91Z" fill="#fff"/>
          <path d="M63.72,212a1.32,1.32,0,1,1,1.78-.57A1.31,1.31,0,0,1,63.72,212Z" fill="#fff"/>
          <path d="M165.63,269.54a1.32,1.32,0,0,1,.87-1.66,1.33,1.33,0,0,1,.79,2.53A1.32,1.32,0,0,1,165.63,269.54Z" fill="#fff"/>
          <path d="M202.29,208.92a1.32,1.32,0,1,1,1.66.87A1.32,1.32,0,0,1,202.29,208.92Z" fill="#fff"/>
          <path d="M33.63,189.74a1.32,1.32,0,1,1,1.79-.57A1.32,1.32,0,0,1,33.63,189.74Z" fill="#fff"/>
          <path d="M100.5,273.35a1.32,1.32,0,0,1,2.53-.78,1.32,1.32,0,0,1-2.53.78Z" fill="#fff"/>
          <path d="M100.48,105.94a1.34,1.34,0,0,1-1.66-.87,1.33,1.33,0,1,1,1.66.87Z" fill="#fff"/>
          <path d="M98,143.35a1.31,1.31,0,0,1-1.65-.87,1.32,1.32,0,1,1,1.65.87Z" fill="#fff"/>
          <path d="M152.9,133.07a1.33,1.33,0,1,1,.87-1.66A1.33,1.33,0,0,1,152.9,133.07Z" fill="#fff"/>
          <path d="M116.88,250.35a1.32,1.32,0,0,1-1.66-.87,1.33,1.33,0,0,1,2.53-.79A1.32,1.32,0,0,1,116.88,250.35Z" fill="#fff"/>
          <path d="M79.85,117.64a2.88,2.88,0,0,1,2.63-5.13,2.88,2.88,0,1,1-2.63,5.13Z" fill="#fff"/>
          <path d="M91.71,187a1.32,1.32,0,1,1,1.78-.57A1.33,1.33,0,0,1,91.71,187Z" fill="#fff"/>
          <path d="M167.15,196.36a1.32,1.32,0,1,1,1.78-.57A1.33,1.33,0,0,1,167.15,196.36Z" fill="#fff"/>
          <path d="M14.47,137.78a1.33,1.33,0,0,1-.58-1.78,1.33,1.33,0,1,1,2.36,1.21A1.32,1.32,0,0,1,14.47,137.78Z" fill="#fff"/>
          <path d="M132.3,135.91a1.32,1.32,0,1,1,1.78-.57A1.31,1.31,0,0,1,132.3,135.91Z" fill="#fff"/>
          <path d="M165.63,269.54a1.32,1.32,0,0,1,.87-1.66,1.33,1.33,0,0,1,.79,2.53A1.32,1.32,0,0,1,165.63,269.54Z" fill="#fff"/>
          <path d="M33.63,189.74a1.32,1.32,0,1,1,1.79-.57A1.32,1.32,0,0,1,33.63,189.74Z" fill="#fff"/>
          <path d="M100.51,273.35a1.32,1.32,0,1,1,1.65.87A1.32,1.32,0,0,1,100.51,273.35Z" fill="#fff"/>
          <path d="M100.48,105.94a1.34,1.34,0,0,1-1.66-.87,1.33,1.33,0,1,1,1.66.87Z" fill="#fff"/>
          <path d="M98,143.35a1.32,1.32,0,1,1,.87-1.66A1.31,1.31,0,0,1,98,143.35Z" fill="#fff"/>
          <path d="M54.41,137.17a1.32,1.32,0,0,1-.78-2.53,1.32,1.32,0,0,1,.78,2.53Z" fill="#fff"/>
          <path d="M152.9,133.07a1.33,1.33,0,1,1,.87-1.66A1.33,1.33,0,0,1,152.9,133.07Z" fill="#fff"/>
          <path d="M139.65,208.13a1.32,1.32,0,1,1,.87-1.66A1.32,1.32,0,0,1,139.65,208.13Z" fill="#fff"/>
          <path d="M116.88,250.35a1.32,1.32,0,0,1-1.66-.87,1.33,1.33,0,0,1,2.53-.79A1.32,1.32,0,0,1,116.88,250.35Z" fill="#fff"/>
          <path d="M113.59,168.24a3.55,3.55,0,1,1,1.54,4.78A3.54,3.54,0,0,1,113.59,168.24Z" fill="#fff"/>
          <path d="M146.1,252.48a1.32,1.32,0,1,1,.58,1.78A1.32,1.32,0,0,1,146.1,252.48Z" fill="#fff"/>
          <path d="M162.15,162.1a1.33,1.33,0,1,1,1.78-.58A1.32,1.32,0,0,1,162.15,162.1Z" fill="#fff"/>
          <path d="M59.8,98a1.32,1.32,0,1,1,1.78-.58A1.32,1.32,0,0,1,59.8,98Z" fill="#fff"/>
          <path d="M99.32,168.71a1.32,1.32,0,1,1,1.78-.57A1.33,1.33,0,0,1,99.32,168.71Z" fill="#fff"/>
          <path d="M211,229.71a1.32,1.32,0,1,1,1.66.87A1.32,1.32,0,0,1,211,229.71Z" fill="#fff"/>
          <path d="M110.69,221a1.32,1.32,0,1,1,1.78-.57A1.33,1.33,0,0,1,110.69,221Z" fill="#fff"/>
          <path d="M145.83,233.52a1.32,1.32,0,0,1,.87-1.66,1.34,1.34,0,0,1,1.66.87,1.33,1.33,0,0,1-2.53.79Z" fill="#fff"/>
          <path d="M59.57,289.89a1.32,1.32,0,1,1-1.79.56A1.32,1.32,0,0,1,59.57,289.89Z" fill="#fff"/>
          <path d="M46.91,243.74a1.33,1.33,0,1,1-1.79.56A1.32,1.32,0,0,1,46.91,243.74Z" fill="#fff"/>
          <path d="M22.12,255.92a1.32,1.32,0,0,1-2.34-1.23,1.32,1.32,0,1,1,2.34,1.23Z" fill="#fff"/>
          <path d="M75.83,236.35a1.32,1.32,0,1,1-.55-1.79A1.33,1.33,0,0,1,75.83,236.35Z" fill="#fff"/>
          <path d="M70.87,299.27a1.32,1.32,0,1,1-.56-1.78A1.32,1.32,0,0,1,70.87,299.27Z" fill="#fff"/>
          <path d="M26.09,235.17a1.33,1.33,0,0,1,.55,1.79,1.32,1.32,0,1,1-.55-1.79Z" fill="#fff"/>
          <path d="M43,304a1.32,1.32,0,0,1-1.23,2.34A1.32,1.32,0,1,1,43,304Z" fill="#fff"/>
          <path d="M22.12,255.92a1.32,1.32,0,1,1-.55-1.79A1.32,1.32,0,0,1,22.12,255.92Z" fill="#fff"/>
          <path d="M70.87,299.27a1.32,1.32,0,1,1-.56-1.78A1.32,1.32,0,0,1,70.87,299.27Z" fill="#fff"/>
          <path d="M26.09,235.17a1.33,1.33,0,0,1,.55,1.79,1.32,1.32,0,1,1-.55-1.79Z" fill="#fff"/>
          <path d="M43,304a1.32,1.32,0,0,1-1.23,2.34A1.32,1.32,0,1,1,43,304Z" fill="#fff"/>
          <path d="M23.87,281.79a1.31,1.31,0,0,1-1.67-.85,1.32,1.32,0,1,1,1.67.85Z" fill="#fff"/>
          <path d="M26.62,329.12a1.32,1.32,0,1,1-1.66-.85A1.32,1.32,0,0,1,26.62,329.12Z" fill="#fff"/>
          <path d="M10.66,295.39a1.33,1.33,0,1,1-.56-1.79A1.33,1.33,0,0,1,10.66,295.39Z" fill="#fff"/>
          <path d="M248.53,320.31a1.33,1.33,0,1,1-1.79.56A1.32,1.32,0,0,1,248.53,320.31Z" fill="#fff"/>
          <path d="M235.87,274.17a1.32,1.32,0,1,1-1.23,2.34,1.32,1.32,0,1,1,1.23-2.34Z" fill="#fff"/>
          <path d="M211.08,286.34a1.32,1.32,0,1,1-.56-1.78A1.32,1.32,0,0,1,211.08,286.34Z" fill="#fff"/>
          <path d="M264.79,266.77a1.32,1.32,0,1,1-.56-1.78A1.32,1.32,0,0,1,264.79,266.77Z" fill="#fff"/>
          <path d="M259.83,329.7a1.32,1.32,0,1,1-2.34-1.23,1.32,1.32,0,1,1,2.34,1.23Z" fill="#fff"/>
          <path d="M215,265.6a1.32,1.32,0,1,1-1.78.56A1.32,1.32,0,0,1,215,265.6Z" fill="#fff"/>
          <path d="M232,334.38a1.33,1.33,0,1,1-1.78.56A1.32,1.32,0,0,1,232,334.38Z" fill="#fff"/>
          <path d="M211.08,286.34a1.32,1.32,0,1,1-.56-1.78A1.32,1.32,0,0,1,211.08,286.34Z" fill="#fff"/>
          <path d="M259.83,329.7a1.32,1.32,0,1,1-2.34-1.23,1.32,1.32,0,1,1,2.34,1.23Z" fill="#fff"/>
          <path d="M215,265.6a1.32,1.32,0,1,1-1.78.56A1.32,1.32,0,0,1,215,265.6Z" fill="#fff"/>
          <path d="M232,334.38a1.32,1.32,0,1,1-1.78.56A1.32,1.32,0,0,1,232,334.38Z" fill="#fff"/>
          <path d="M212.82,312.22a1.32,1.32,0,1,1,.86-1.67A1.32,1.32,0,0,1,212.82,312.22Z" fill="#fff"/>
          <path d="M199.61,325.81a1.32,1.32,0,1,1-.56-1.78A1.32,1.32,0,0,1,199.61,325.81Z" fill="#fff"/>
        </g>
        <g opacity="0.48" style="mix-blend-mode: screen">
          <g>
            <rect x="119.79" y="97.55" width="137.84" height="11.37" transform="translate(377.41 206.47) rotate(180)" fill="#e3dee0"/>
            <path d="M112.17,245.08h146a0,0,0,0,1,0,0V255.2a7.82,7.82,0,0,1-7.82,7.82H112.17a0,0,0,0,1,0,0V245.08A0,0,0,0,1,112.17,245.08Z" transform="translate(370.35 508.09) rotate(180)" fill="#e3dee0"/>
            <rect x="119.79" y="123.33" width="138.38" height="121.8" transform="translate(377.96 368.46) rotate(180)" fill="#fff" opacity="0.53"/>
            <rect x="119.79" y="108.92" width="138.38" height="15.17" transform="translate(377.96 233.01) rotate(180)" fill="#fff" opacity="0.53"/>
            <rect x="173.21" y="124.09" width="30.65" height="121.04" transform="translate(377.06 369.22) rotate(180)" fill="#e6e6e6" style="mix-blend-mode: multiply"/>
            <g>
              <g>
                <rect x="177.1" y="190.41" width="22.86" height="50.84" transform="translate(377.06 431.67) rotate(180)" fill="#e3dee0"/>
                <path d="M200.49,190.2c0-.7-.38-.87-.83-.87H176.39a.79.79,0,0,0-.9.87v50.49c0,.7.45,1.64.9,1.64h23.27c.45,0,.83-.94.83-1.64Zm-23,18.13h10v14h-10Zm12,0h9v14h-9Zm9-2h-9v-15h9Zm-11-15v15h-10v-15Zm-10,33h10v16h-10Zm12,16v-16h9v16Z" fill="#1b2644" opacity="0.2"/>
              </g>
              <g>
                <rect x="177.1" y="133.02" width="22.86" height="50.84" transform="translate(377.06 316.89) rotate(180)" fill="#e3dee0"/>
                <path d="M200.49,132.84c0-1-.38-1.51-.83-1.51H176.39c-.45,0-.9.53-.9,1.51v50.3c0,1,.45,2.19.9,2.19h23.27c.45,0,.83-1.21.83-2.19Zm-23,17.49h10v14h-10Zm12,0h9v14h-9Zm9-2h-9v-15h9Zm-11-15v15h-10v-15Zm-10,34h10v15h-10Zm12,15v-15h9v15Z" fill="#1b2644" opacity="0.2"/>
              </g>
            </g>
            <polygon points="119.79 124.09 254.5 124.09 258.17 124.09 258.17 128.51 258.17 245.13 254.5 245.13 254.5 128.51 119.79 128.51 119.79 124.09" fill="#f2f2f2" style="mix-blend-mode: multiply"/>
            <g>
              <g>
                <polygon points="150.18 246.85 173.21 246.85 173.21 185.47 173.21 124.09 150.18 124.09 150.18 246.85" fill="#e1dbdb" style="mix-blend-mode: multiply"/>
                <polygon points="163.41 124.09 173.21 124.09 173.21 185.47 173.21 246.85 163.41 246.85 163.41 124.09" fill="#f2f2f2" style="mix-blend-mode: multiply"/>
                <path d="M149,129.09h25.3a2.48,2.48,0,0,0,2.48-2.48h0a2.48,2.48,0,0,0-2.48-2.49H149a2.48,2.48,0,0,0-2.48,2.49h0A2.48,2.48,0,0,0,149,129.09Z" fill="#cfcacc"/>
              </g>
              <rect x="147.38" y="129.09" width="2.8" height="116.04" transform="translate(297.55 374.22) rotate(180)" fill="#f2f2f2" style="mix-blend-mode: multiply"/>
              <path d="M144.8,245.13h33.78a0,0,0,0,1,0,0v14.49a3.4,3.4,0,0,1-3.4,3.4h-27a3.4,3.4,0,0,1-3.4-3.4V245.13A0,0,0,0,1,144.8,245.13Z" transform="translate(323.38 508.15) rotate(180)" fill="#cfcacc"/>
            </g>
            <g>
              <g>
                <polygon points="226.86 246.85 203.83 246.85 203.83 185.47 203.83 124.09 226.86 124.09 226.86 246.85" fill="#e1dbdb" style="mix-blend-mode: multiply"/>
                <polygon points="213.63 124.09 203.83 124.09 203.83 185.47 203.83 246.85 213.63 246.85 213.63 124.09" fill="#f2f2f2" style="mix-blend-mode: multiply"/>
                <path d="M228,129.09H202.7a2.49,2.49,0,0,1-2.49-2.48h0a2.49,2.49,0,0,1,2.49-2.49H228a2.48,2.48,0,0,1,2.48,2.49h0A2.48,2.48,0,0,1,228,129.09Z" fill="#cfcacc"/>
              </g>
              <rect x="226.86" y="129.09" width="2.8" height="116.04" fill="#f2f2f2" style="mix-blend-mode: multiply"/>
              <path d="M202.59,245.13h27a3.4,3.4,0,0,1,3.4,3.4V263a0,0,0,0,1,0,0H199.19a0,0,0,0,1,0,0V248.53A3.4,3.4,0,0,1,202.59,245.13Z" fill="#cfcacc"/>
            </g>
            <path d="M124.48,123.33H253.21a2.39,2.39,0,0,0,2.38-2.38h0a2.39,2.39,0,0,0-2.38-2.38H124.48A2.38,2.38,0,0,0,122.1,121h0A2.38,2.38,0,0,0,124.48,123.33Z" fill="#e8e8e8" style="mix-blend-mode: multiply"/>
            <path d="M119.79,99.18H257.63a1.63,1.63,0,0,0,0-3.26H119.79a1.63,1.63,0,0,0,0,3.26Z" fill="#cfcacc"/>
            <path d="M126.27,106.78H251.15a2.85,2.85,0,0,0,2.85-2.86h0a2.85,2.85,0,0,0-2.85-2.85H126.27a2.86,2.86,0,0,0-2.86,2.85h0A2.86,2.86,0,0,0,126.27,106.78Z" fill="#cfcacc"/>
            <path d="M125.51,117.14H252.18a3.32,3.32,0,0,0,3.41-3.22h0a3.32,3.32,0,0,0-3.41-3.23H125.51a3.32,3.32,0,0,0-3.41,3.23h0A3.31,3.31,0,0,0,125.51,117.14Z" fill="#f2f2f2" style="mix-blend-mode: multiply"/>
          </g>
          <g>
            <g>
              <path d="M253.78,245.08h29.91a0,0,0,0,1,0,0v13.29A4.66,4.66,0,0,1,279,263H253.78a0,0,0,0,1,0,0V245.08A0,0,0,0,1,253.78,245.08Z" transform="translate(537.47 508.1) rotate(180)" fill="#cfcacc"/>
              <g>
                <polygon points="258.13 245.08 283.69 245.08 283.69 175.55 283.69 106.01 258.13 106.01 258.13 245.08" fill="#fff" opacity="0.53"/>
                <polygon points="272.81 106.01 283.69 106.01 283.69 175.55 283.69 245.08 272.81 245.08 272.81 106.01" fill="#f2f2f2" style="mix-blend-mode: multiply"/>
              </g>
            </g>
            <rect x="283.76" y="120.42" width="2.3" height="120.98" fill="#f2f2f2" style="mix-blend-mode: multiply"/>
            <rect x="283.52" y="123.28" width="112.29" height="121.8" fill="#fff" opacity="0.53"/>
            <rect x="290.86" y="123.28" width="18.8" height="59.81" transform="translate(600.51 306.37) rotate(180)" fill="#cfcacc"/>
            <rect x="283.52" y="183.09" width="25.56" height="61.99" fill="#fff" opacity="0.53"/>
            <g>
              <polygon points="395.02 78.61 339.39 52.84 283.75 78.61 251.88 78.61 251.88 97.5 426.9 97.5 426.9 78.61 395.02 78.61" fill="#e3dee0"/>
              <polygon points="339.39 59.34 283.75 85.1 251.88 85.1 251.88 97.5 426.9 97.5 426.9 85.1 395.02 85.1 339.39 59.34" fill="#ededed" style="mix-blend-mode: multiply"/>
            </g>
            <rect x="322.39" y="207.63" width="34.53" height="36.63" fill="#fff"/>
            <rect x="317.3" y="201.75" width="44.72" height="5.88" fill="#cfcacc"/>
            <rect x="283.52" y="108.87" width="112.29" height="14.41" fill="#f2f2f2" style="mix-blend-mode: multiply"/>
            <g>
              <polygon points="338.88 61.56 257.42 95.28 421.36 95.28 338.88 61.56" fill="#cfcacc"/>
              <polygon points="287.93 89.7 338.5 68.9 393.35 89.7 287.93 89.7" fill="#cfcacc" style="mix-blend-mode: multiply"/>
            </g>
            <rect x="283.52" y="108.87" width="112.29" height="13.92" fill="#cfcacc"/>
            <g>
              <rect x="283.52" y="245.08" width="112.29" height="5.98" fill="#e3dee0"/>
              <rect x="283.52" y="245.84" width="112.29" height="1.8" fill="#ebebeb" style="mix-blend-mode: multiply"/>
              <path d="M395.8,245.89H283.52a.81.81,0,0,1-.82-.81.82.82,0,0,1,.82-.82H395.8a.82.82,0,0,1,.82.82A.82.82,0,0,1,395.8,245.89Z" fill="#ebebeb"/>
            </g>
            <g>
              <rect x="276.58" y="251.06" width="126.15" height="5.98" fill="#e3dee0"/>
              <rect x="276.58" y="251.95" width="126.15" height="1.8" fill="#ebebeb" style="mix-blend-mode: multiply"/>
              <path d="M402.73,251.88H276.58a.82.82,0,0,1,0-1.64H402.73a.82.82,0,0,1,0,1.64Z" fill="#ebebeb"/>
            </g>
            <g>
              <rect x="270.74" y="257.04" width="137.84" height="5.98" fill="#e3dee0"/>
              <rect x="270.74" y="257.83" width="137.84" height="1.88" fill="#ebebeb" style="mix-blend-mode: multiply"/>
              <path d="M408.58,257.86H270.74a.82.82,0,0,1-.82-.82.82.82,0,0,1,.82-.81H408.58a.81.81,0,0,1,.81.81A.82.82,0,0,1,408.58,257.86Z" fill="#ebebeb"/>
            </g>
            <rect x="283.69" y="182.07" width="25.39" height="2.92" fill="#cfcacc"/>
            <rect x="283.69" y="121.99" width="112.08" height="2.92" fill="#cfcacc"/>
            <g>
              <rect x="287.44" y="229.46" width="17.71" height="11.49" rx="0.92" ry="0.92" fill="#ededed" style="mix-blend-mode: multiply"/>
              <rect x="292.18" y="227.98" width="8.22" height="14.44" rx="0.42" ry="0.42" transform="translate(531.5 -61.09) rotate(90)" fill="#ededed" style="mix-blend-mode: multiply"/>
              <g>
                <rect x="287.8" y="188.04" width="16.99" height="37.79" fill="#fff"/>
                <path d="M304.79,186.33h-17c-.45,0-1.31,1.26-1.31,1.71v37.79c0,.45.86.5,1.31.5h17c.45,0,.7-.05.7-.5V188C305.49,187.59,305.24,186.33,304.79,186.33Zm-16.3,15h7v10h-7Zm8,0h8v10h-8Zm8-2h-8v-10h8Zm-9-10v10h-7v-10Zm-7,25h7v10h-7Zm8,10v-10h8v10Z" fill="#1b2644" opacity="0.2"/>
                <g style="mix-blend-mode: multiply">
                  <path d="M306.86,227.81H285.72a.81.81,0,0,1-.81-.81.82.82,0,0,1,.81-.82h21.14a.82.82,0,0,1,.82.82A.82.82,0,0,1,306.86,227.81Z" fill="#ededed"/>
                </g>
              </g>
            </g>
            <rect x="317.3" y="201.75" width="5.1" height="42.51" fill="#cfcacc"/>
            <rect x="312.61" y="193.29" width="4.69" height="50.98" fill="#ebebeb" style="mix-blend-mode: multiply"/>
            <polygon points="355.46 206.33 341.27 206.33 338.35 206.33 324.16 206.33 321.49 206.33 321.49 209.73 321.49 244.33 324.49 244.33 324.49 209.33 337.49 209.33 337.49 244.33 341.49 244.33 341.49 209.33 354.49 209.33 354.49 244.33 358.49 244.33 358.49 209.73 358.49 206.33 355.46 206.33" fill="#cfcacc"/>
            <rect x="337.89" y="149.72" width="3.53" height="61.17" transform="translate(159.35 519.96) rotate(-90)" fill="#f0e2d3"/>
            <g clip-path="url(#042f7f6a-b52e-400f-91f2-6851421ff230)">
              <g>
                <g>
                  <rect x="308.89" y="124" width="15.11" height="33.6" fill="#fff"/>
                  <path d="M324.49,124.3a1,1,0,0,0-1-1H309.52a1,1,0,0,0-1,1v33.07a1,1,0,0,0,1,1h13.93a1,1,0,0,0,1-1Zm-15,12h7v9h-7Zm8,0h6v9h-6Zm6-2h-6v-10h6Zm-7-10v10h-7v-10Zm-7,21h7v11h-7Zm8,11v-11h6v11Z" fill="#1b2644" opacity="0.2"/>
                </g>
                <g>
                  <rect x="308.89" y="157.62" width="15.11" height="33.6" fill="#fff"/>
                  <path d="M324,156.33H308.89c-.4,0-.4.89-.4,1.29v33.6c0,.4,0,.11.4.11H324c.4,0,1.49.29,1.49-.11v-33.6C325.49,157.22,324.4,156.33,324,156.33Zm-14.51,13h7v9h-7Zm8,0h6v9h-6Zm6-1h-6v-11h6Zm-7-11v11h-7v-11Zm-7,24h7v8h-7Zm8,8v-8h6v8Z" fill="#1b2644" opacity="0.2"/>
                </g>
                <g>
                  <rect x="325.52" y="123.77" width="15.11" height="33.6" fill="#fff"/>
                  <path d="M342.49,124.07c0-.41-.58-.74-1.28-.74H326.76c-.7,0-1.27.33-1.27.74V157.6c0,.4.57.73,1.27.73h14.45c.7,0,1.28-.33,1.28-.73Zm-16,12.26h6v9h-6Zm7,0h6v9h-6Zm6-2h-6v-10h6Zm-7-10v10h-6v-10Zm-6,21h6v11h-6Zm7,11v-11h6v11Z" fill="#1b2644" opacity="0.2"/>
                </g>
                <g>
                  <rect x="325.52" y="157.39" width="15.11" height="33.6" fill="#fff"/>
                  <path d="M341.49,157.13c0-.63-.79-.8-1.29-.8H325.93c-.5,0-.44.17-.44.8v33.06c0,.63-.06,1.14.44,1.14H340.2c.5,0,1.29-.51,1.29-1.14Zm-15,12.2h6v9h-6Zm7,0h6v9h-6Zm6-1h-6v-11h6Zm-7-11v11h-6v-11Zm-6,24h6v8h-6Zm7,8v-8h6v8Z" fill="#1b2644" opacity="0.2"/>
                </g>
              </g>
            </g>
            <g style="mix-blend-mode: screen">
              <path d="M403.55,94.26H272.81a1.63,1.63,0,0,1-.63-3.14l65.69-27.73a1.63,1.63,0,1,1,1.27,3L280.87,91H403.55a1.64,1.64,0,0,1,0,3.27Z" fill="#2b2b2b"/>
            </g>
            <polygon points="360.66 175.34 339.25 162.89 317.84 175.34 305.4 175.34 305.4 183.09 374.12 183.09 374.12 175.34 360.66 175.34" fill="#cfcacc"/>
            <path d="M374.12,177H360.66a1.58,1.58,0,0,1-.82-.22l-20.59-12-20.59,12a1.58,1.58,0,0,1-.82.22H305.4a1.63,1.63,0,0,1,0-3.26h12l21-12.23a1.61,1.61,0,0,1,1.64,0l21,12.23h13a1.63,1.63,0,0,1,0,3.26Z" fill="#cfcacc"/>
            <rect x="305.4" y="180.92" width="68.77" height="2.17" fill="#cfcacc"/>
            <polygon points="319.13 178.3 339.05 167.09 357.77 178.3 373.13 178.3 373.13 179.9 307.03 179.9 307.03 178.3 319.13 178.3" fill="#303030" style="mix-blend-mode: screen"/>
            <rect x="257.42" y="95.27" width="164.49" height="13.59" fill="#fff" opacity="0.53"/>
            <rect x="257.42" y="96.94" width="164.49" height="4.08" fill="#dedede" style="mix-blend-mode: multiply"/>
            <path d="M423.42,96.91H255.89a1.64,1.64,0,0,1,0-3.27H423.42a1.64,1.64,0,0,1,0,3.27Z" fill="#cfcacc"/>
            <rect x="309.07" y="183.09" width="61.17" height="5.57" fill="#fff" opacity="0.53"/>
            <rect x="309.07" y="188.66" width="61.17" height="4.62" fill="#e8e8e8" style="mix-blend-mode: multiply"/>
            <rect x="309.07" y="182.07" width="61.17" height="2.92" fill="#e3e3e3" style="mix-blend-mode: multiply"/>
            <path d="M426.9,80.11H394.66L339.39,54.52,284.11,80.11H251.88a1.63,1.63,0,1,1,0-3.26h31.51l56-25.92,56,25.92H426.9a1.63,1.63,0,0,1,0,3.26Z" fill="#cfcacc"/>
          </g>
        </g>
        <rect x="262.13" y="250.78" width="31.66" height="29.26" rx="8.11" ry="8.11" fill="#919daf"/>
        <rect x="293.04" y="250.79" width="38.07" height="29.88" rx="6.58" ry="6.58" transform="translate(0.99 -1.16) rotate(0.21)" fill="#919daf"/>
        <path d="M124.36,262.87l-20.44-23.76H120a9.14,9.14,0,0,0,2.28-.55,3,3,0,0,0,.71-.37,1,1,0,0,0,.21-.19.31.31,0,0,0,0-.08,3.48,3.48,0,0,0-.57-.71,1.3,1.3,0,0,1-.28-.41l-20.54-23.89h12.09a4.39,4.39,0,0,0,1.1-.45c.83-.51.83-1,.31-1.82L97.27,189.75h7.15a12.89,12.89,0,0,0,2.9-.68c1.14-.42,1.93-.75,1.11-1.72a1.41,1.41,0,0,1-.29-.57l-21.61-25-23,26.6a1.48,1.48,0,0,0,0,.78,1.38,1.38,0,0,1,.17.25,1.42,1.42,0,0,0,.08.18,1.84,1.84,0,0,0,.22.17l.15,0h.73a.71.71,0,0,1,.29,0h10.9L58.15,210.5a1.07,1.07,0,0,1-.14.16l-.68.79a1.57,1.57,0,0,0,.49,1,2.26,2.26,0,0,0,.73.44h12.8L50.93,236.66c-.24,1-.39,1.83.89,2.22a6.58,6.58,0,0,0,1,.23H69.26L48.82,262.87Z" fill="#919daf" fill-rule="evenodd"/>
        <g>
          <path d="M128.11,249.31c-17-5.79-38.12,11.84-42.2,13.62h63.27S136.12,254.43,128.11,249.31Z" fill="#d9dfe8"/>
          <path d="M151.84,256.91c-7.53-2.55-16.85,5.24-18.65,6h27.95S155.37,259.17,151.84,256.91Z" fill="#d9dfe8"/>
        </g>
        <polygon points="75.91 189.6 85.82 189.14 61.78 206.03 75.91 189.6" fill="#d9dfe8"/>
        <path d="M69.23,181.17s6-6.65,11.71-6.45a64.2,64.2,0,0,1,9.55.81,15.29,15.29,0,0,0,7.76-.81L86.53,161.14Z" fill="#d9dfe8"/>
        <rect x="154.69" y="242.76" width="40.91" height="37.81" rx="9.27" ry="9.27" fill="#919daf"/>
        <rect x="193.69" y="250.78" width="31.66" height="29.26" rx="7.62" ry="7.62" fill="#919daf"/>
        <rect x="224.6" y="250.79" width="38.07" height="29.88" rx="6.28" ry="6.28" transform="translate(0.99 -0.9) rotate(0.21)" fill="#919daf"/>
        <rect x="169.63" y="265.93" width="47.4" height="14.8" fill="#919daf"/>
        <path d="M166,266c-18.19-6.19-40.71,12.64-45.07,14.54h67.56S174.53,271.49,166,266Z" fill="#d9dfe8"/>
        <g>
          <path d="M238.31,267.09c-17-5.79-38.13,11.84-42.21,13.62h63.27S246.31,272.2,238.31,267.09Z" fill="#d9dfe8"/>
          <path d="M262,274.69c-7.53-2.56-16.85,5.23-18.65,6h27.95S265.57,277,262,274.69Z" fill="#d9dfe8"/>
        </g>
        <path d="M316.87,266c-18.19-6.19-40.71,12.64-45.07,14.54h67.57S325.42,271.49,316.87,266Z" fill="#d9dfe8"/>
        <g>
          <path d="M277.88,202.78a3.66,3.66,0,1,1-3.68,3.65,3.67,3.67,0,0,1,3.68-3.65Z" fill="#6e7a92" fill-rule="evenodd"/>
          <rect x="275.86" y="210.05" width="4.02" height="88.3" fill="#6e7a92"/>
          <polygon points="271.9 212.28 246.45 212.28 242.04 216.68 242.04 216.68 246.45 221.09 271.9 221.09 271.9 212.28" fill="#919daf" fill-rule="evenodd"/>
          <rect x="272.11" y="215.65" width="3.75" height="2.07" fill="#6e7a92"/>
          <polygon points="271.9 229.79 246.45 229.79 242.04 234.17 242.04 234.17 246.45 238.57 271.9 238.57 271.9 229.79" fill="#919daf" fill-rule="evenodd"/>
          <rect x="272.11" y="233.16" width="3.75" height="2.04" fill="#6e7a92"/>
          <polygon points="283.82 220.05 309.27 220.05 313.68 224.46 313.68 224.46 309.27 228.87 283.82 228.87 283.82 220.05" fill="#919daf" fill-rule="evenodd"/>
          <rect x="279.86" y="223.43" width="3.75" height="2.07" fill="#6e7a92"/>
          <polygon points="283.82 237.57 309.27 237.57 313.68 241.97 313.68 241.97 309.27 246.38 283.82 246.38 283.82 237.57" fill="#919daf" fill-rule="evenodd"/>
          <rect x="279.86" y="240.94" width="3.75" height="2.04" fill="#6e7a92"/>
          <path d="M275.13,210.26h5.49a.82.82,0,0,0,.82-.81h0a.84.84,0,0,0-.82-.85h-5.49a.83.83,0,0,0-.82.85h0a.8.8,0,0,0,.82.81Z" fill="#6e7a92" fill-rule="evenodd"/>
        </g>
        <g>
          <path d="M67.1,211.53H81.64c-.58,3.16-1.06,5.83-1.48,8.16q-.54,3-1,5.41H69.55c-.29-1.58-.61-3.38-1-5.41-.42-2.33-.9-5-1.45-8.16Z" fill="#d9dfe8" fill-rule="evenodd"/>
          <path d="M72.26,205h4.19a6.82,6.82,0,0,1,6.8,6.8H65.46a6.82,6.82,0,0,1,6.8-6.8Z" fill="#6e7a92" fill-rule="evenodd"/>
          <path d="M69.42,226.07h9.87a1.22,1.22,0,0,1,1.19,1.22h0a1.22,1.22,0,0,1-1.19,1.23H69.42a1.23,1.23,0,0,1-1.22-1.23h0a1.22,1.22,0,0,1,1.22-1.22Z" fill="#6e7a92" fill-rule="evenodd"/>
          <path d="M71.65,205h5.41c-.8-2.84-1.22-4.35-1.51-5.32-.2-.65-.32-1.13-.42-1.48H73.61c-.13.35-.25.83-.45,1.48-.26,1-.71,2.48-1.51,5.32Z" fill="#6e7a92" fill-rule="evenodd"/>
          <rect x="72.65" y="228.52" width="3.42" height="81.47" fill="#6e7a92"/>
          <path d="M65.07,241.87H83.64a1.09,1.09,0,0,1,1.1,1.09h0a1.09,1.09,0,0,1-1.1,1.1H65.07A1.09,1.09,0,0,1,64,243h0a1.09,1.09,0,0,1,1.1-1.09Z" fill="#6e7a92" fill-rule="evenodd"/>
          <rect x="71.61" y="274.88" width="5.48" height="35.11" fill="#6e7a92"/>
          <rect x="68.36" y="304.83" width="11.99" height="5.16" fill="#6e7a92"/>
        </g>
        <path d="M290.74,295.77c-7.52-2.55-16.84,5.24-18.65,6h28S294.28,298,290.74,295.77Z" fill="#d9dfe8"/>
        <path d="M85.66,298.18C67.47,292,45,310.83,40.59,312.73h67.56S94.21,303.64,85.66,298.18Z" fill="#d9dfe8"/>
        <path d="M277,292.88c-11.51-3.91-25.76,8-28.52,9.2h42.75S282.37,296.34,277,292.88Z" fill="#d9dfe8"/>
        <path d="M57.75,255.27c-9.21-3.13-20.61,6.4-22.82,7.36h34.2S62.08,258,57.75,255.27Z" fill="#d9dfe8" opacity="0.73"/>
      </g>
    </g>
  </g>
</svg>
