<svg xmlns="http://www.w3.org/2000/svg" width="92.14" height="295.07" viewBox="0 0 92.14 295.07">
  <title>main-elena-char</title>
  <g style="isolation: isolate">
    <g id="ba55f07e-26ef-4129-bc94-b0af644ceb74" data-name="Layer 2">
      <g id="dfb9fd4c-4658-4703-ab81-4d2b0c6a16e1" data-name="Layer 1">
        <g>
          <rect x="24.72" y="284.32" width="6.74" height="3.15" fill="#fac1b1"/>
          <g>
            <g id="d96c4f50-6223-49d8-b57f-e7513a3bad4b" data-name="&lt;Group&gt;">
              <circle cx="35.52" cy="12.23" r="12.23" transform="translate(15.46 43.99) rotate(-76.72)" fill="#ba8f56"/>
              <g opacity="0.28" style="mix-blend-mode: multiply">
                <path d="M23.7,16.61a12.23,12.23,0,0,1,23.64,0Z" fill="#2d2a5f"/>
              </g>
            </g>
            <g>
              <path d="M15.21,146.41a9,9,0,0,0-1.76,6.41l7.19,66.79a5.92,5.92,0,0,0,6.15,5.31h0a5.92,5.92,0,0,0,5.67-5.74l2.17-68.07a6,6,0,0,0-1.73-4.38L30.11,144a8.87,8.87,0,0,0-12.75.21l-2.13,2.22Z" fill="#fac1b1"/>
              <path d="M20.25,217.69l4.58,67.95h6.75l.72-67.7-1.14-1.69c-2.67-4-8.59-2.74-10.91,1.44Z" fill="#fac1b1"/>
              <g id="a8b51c54-5c39-4556-8250-0c9c352bb5fe" data-name="&lt;Group&gt;">
                <path d="M55.09,146.41a9.14,9.14,0,0,1,1.76,6.41l-7.19,66.79a5.94,5.94,0,0,1-6.16,5.31h0a5.92,5.92,0,0,1-5.67-5.74l-2.16-68.07a5.92,5.92,0,0,1,1.73-4.38L40.19,144a8.87,8.87,0,0,1,12.75.21l2.12,2.22Z" fill="#fac1b1"/>
              </g>
              <path d="M50,217.69l-4.57,67.95H38.72L38,217.94l1.13-1.69c2.68-4,8.6-2.74,10.91,1.44Z" fill="#fac1b1"/>
            </g>
            <g id="cc9d88cb-6209-4902-a304-8b2f383da654" data-name="&lt;Group&gt;">
              <path d="M53.83,139.34l-18.31.48-18.31-.48-1.92,3.53A28.24,28.24,0,0,0,11.88,158l2.44,44H56.73l2.44-44a28.33,28.33,0,0,0-3.41-15.12Z" fill="#000429"/>
            </g>
            <g>
              <path d="M10.46,83.59l-3.62,40a4,4,0,0,0,2.78,4.2h0a4,4,0,0,0,5.19-3.07l7.64-39.38a6.07,6.07,0,0,0-4.27-7h0A6.07,6.07,0,0,0,10.46,83.59Z" fill="#0b9b48"/>
              <g id="e3b64378-657e-4775-9b0d-145650ffcfc2" data-name="&lt;Group&gt;">
                <g>
                  <path d="M2.49,158.21a2,2,0,0,0,4,.7l4-16.33-6.08-.87Z" fill="#fac1b1"/>
                  <path d="M10.8,120.12a3.84,3.84,0,0,0-1.13.08,4.2,4.2,0,0,0-3.31,3.64l-2,17.87,6.08.87,4.18-17.29A4.18,4.18,0,0,0,10.8,120.12Z" fill="#0b9b48"/>
                </g>
              </g>
              <g>
                <path d="M3.54,169.18,5.41,173a2.29,2.29,0,0,1-.64,2.81h0l-3-6.27Z" fill="#fc8883"/>
                <path d="M9.14,170.6h0l-.39-8.81-.12,0,.1-.49L6.3,157.19l-2.48-.12a1.09,1.09,0,0,0-1.1.83L.55,167.52l2.34,9.58L3,177a2.52,2.52,0,0,0,1.26-2.23l-.09-4.19,2.6-5.55.79,4.7A1.12,1.12,0,0,0,9.14,170.6Z" fill="#fac1b1" stroke="#fac1b1" stroke-miterlimit="10" stroke-width="1.07"/>
              </g>
            </g>
            <g id="6b48af46-ed80-4538-bfe9-dcc10a95c48a" data-name="&lt;Group&gt;">
              <path d="M60.65,83.19,67,122.85a4,4,0,0,1-2.49,4.38h0a4,4,0,0,1-5.39-2.71L48.82,85.76A6.06,6.06,0,0,1,52.6,78.5h0A6.06,6.06,0,0,1,60.65,83.19Z" fill="#0b9b48"/>
            </g>
            <g id="7ca89786-0ef6-4165-966d-0a1e4809f4dd" data-name="&lt;Group&gt;">
              <g>
                <path d="M79.54,92.26a2,2,0,0,1,2.82-.51,2.24,2.24,0,0,1,.47.45A2,2,0,0,1,83,94.36l-7.81,14.89-5.13-3.37Z" fill="#fac1b1"/>
                <path d="M60.65,126.36a4,4,0,0,1-.8-.8,4.22,4.22,0,0,1-.08-4.92l10.29-14.76,5.13,3.37L66.93,125A4.19,4.19,0,0,1,60.65,126.36Z" fill="#0b9b48"/>
              </g>
            </g>
            <g>
              <rect x="13" y="136.02" width="45.05" height="17.35" rx="8.39" ry="8.39" fill="#000429"/>
              <path d="M17.29,106.54a62.1,62.1,0,0,1-.8,21.45L14,139.76H57.33L54.8,128A61.85,61.85,0,0,1,54,106.54l3.36-24.46a4.21,4.21,0,0,0-2.19-4.28L42.3,71A14.17,14.17,0,0,0,29,71L16.12,77.8a4.2,4.2,0,0,0-2.2,4.28Z" fill="#fefbfe"/>
            </g>
            <g>
              <path d="M12,147.82H26.32V108.37a10.66,10.66,0,0,1-1.52-5.48V84.34A10.75,10.75,0,0,1,35.52,73.62h0A10.75,10.75,0,0,1,46.24,84.34v18.55a10.66,10.66,0,0,1-1.51,5.48v39.45H59.07l-4.2-19.59a62.87,62.87,0,0,1-.8-21.67l3.39-24.7a4.23,4.23,0,0,0-2.21-4.33l-13-6.92a14.34,14.34,0,0,0-13.44,0l-13,6.92a4.24,4.24,0,0,0-2.22,4.33l3.4,24.7a62.63,62.63,0,0,1-.81,21.67Z" fill="#00b956"/>
              <path d="M59.49,148.16H44.39V108.27l0-.08a10.3,10.3,0,0,0,1.47-5.3V84.34a10.39,10.39,0,0,0-20.77,0v18.55a10.3,10.3,0,0,0,1.47,5.3l.05.08v39.89H11.55l4.29-20a62.18,62.18,0,0,0,.8-21.55L13.25,81.9a4.59,4.59,0,0,1,2.39-4.67l13-6.92a14.68,14.68,0,0,1,13.75,0l13,6.92A4.6,4.6,0,0,1,57.8,81.9l-3.4,24.71a62.18,62.18,0,0,0,.8,21.55Zm-14.42-.67H58.66L54.54,128.3a63,63,0,0,1-.81-21.78l3.4-24.71a3.94,3.94,0,0,0-2-4l-13-6.91a14,14,0,0,0-13.12,0L16,77.82a3.92,3.92,0,0,0-2,4l3.39,24.71a62.78,62.78,0,0,1-.81,21.78l-4.11,19.19H26v-39a11,11,0,0,1-1.52-5.57V84.34a11.06,11.06,0,1,1,22.12,0v18.55a11,11,0,0,1-1.51,5.57Z" fill="#00b956"/>
            </g>
            <rect x="14.64" y="13.38" width="41.76" height="48.19" rx="18.79" ry="18.79" fill="#ba8f56"/>
            <g>
              <ellipse cx="21.43" cy="47.13" rx="3.05" ry="4.38" fill="#e2aea1"/>
              <ellipse cx="49.25" cy="47.13" rx="3.18" ry="4.38" fill="#e2aea1"/>
            </g>
            <g id="692a9175-4aef-4341-952e-09247c022381" data-name="&lt;Group&gt;">
              <rect x="30.22" y="59.4" width="10.6" height="21.44" rx="4.22" ry="4.22" fill="#fac1b1"/>
              <path d="M40.82,63.62v9.9C38,71.74,33.41,68.82,30.22,67V63.62a4.23,4.23,0,0,1,4.22-4.22h2.17A4.23,4.23,0,0,1,40.82,63.62Z" fill="#e2aea1"/>
            </g>
            <path d="M21.43,39.39V51.6a10.63,10.63,0,0,0,3.65,7.91l6.47,5.79a6.63,6.63,0,0,0,8.67,0L46,60.16a10.65,10.65,0,0,0,3.66-7.91V41.12L27.11,30.75Z" fill="#fac1b1"/>
            <path d="M30.2,55.06c-.31,0-.51.52-.36.94,1,2.89,3.19,4.88,5.68,4.88s4.65-2,5.68-4.88c.15-.42-.05-.94-.35-.94Z" fill="#fff"/>
            <g id="bdcc3291-809d-47a5-ba6f-f1e6836f7ccc" data-name="&lt;Group&gt;">
              <g id="d2db7ee6-1b30-4acb-855e-80694382fdfa" data-name="&lt;Group&gt;">
                <g>
                  <g id="c01e369b-08c4-4036-b5d8-4035c33eaa94" data-name="&lt;Group&gt;">
                    <path d="M28.62,46.66h0c-.95,0-1.73-.53-1.73-1.17V44.44c0-.65.78-1.17,1.73-1.17h0c1,0,1.74.52,1.74,1.17v1.05C30.36,46.13,29.58,46.66,28.62,46.66Z" fill="#67413a"/>
                  </g>
                  <g id="06cc6b2c-ce6f-4b8b-83c5-862c48e988e4" data-name="&lt;Group&gt;">
                    <path d="M26.81,41l-.26-1.09a6.3,6.3,0,0,1,4,.34l-.44,1A5.18,5.18,0,0,0,26.81,41Z" fill="#b0593c"/>
                  </g>
                </g>
              </g>
              <g id="2edf554e-2c69-46fd-8105-c0dd8107589d" data-name="&lt;Group&gt;">
                <g>
                  <g id="b2a12428-0921-49e4-8070-9bbf612b5a9f" data-name="&lt;Group&gt;">
                    <path d="M42.42,46.66h0c1,0,1.74-.53,1.74-1.17V44.44c0-.65-.78-1.17-1.74-1.17h0c-1,0-1.73.52-1.73,1.17v1.05C40.69,46.13,41.47,46.66,42.42,46.66Z" fill="#67413a"/>
                  </g>
                  <g id="5aae593b-9ce9-4135-b5cf-ae975ee05d4b" data-name="&lt;Group&gt;">
                    <path d="M44.23,41l.27-1.09a6.32,6.32,0,0,0-4,.34l.45,1A5.15,5.15,0,0,1,44.23,41Z" fill="#b0593c"/>
                  </g>
                </g>
              </g>
            </g>
            <g>
              <polygon points="80.74 79.78 79.4 80.01 79.18 85.03 80.63 85.03 80.74 79.78" fill="#fac1b1"/>
              <path d="M76.57,93.37,77,88l3-5.21a.17.17,0,0,1,.31.08V87l6.74-1.65h4.5a.6.6,0,0,1,.59.6v.84a.6.6,0,0,1-.33.54h0a.59.59,0,0,0-.33.53V89.3a.63.63,0,0,1-.23.48l-.21.15a.56.56,0,0,0-.23.43l-.12,1.5a.59.59,0,0,1-.37.5l-.11,0a.61.61,0,0,0-.37.56v.69a.62.62,0,0,1-.33.54l-5.76,3.54a3.47,3.47,0,0,1-3,.07l-2.15-1A3.5,3.5,0,0,1,76.57,93.37Z" fill="#fac1b1"/>
              <rect x="78.94" y="76.42" width="9.92" height="18.49" rx="1.07" ry="1.07" transform="translate(167.81 171.33) rotate(180)" fill="#67008d"/>
              <g>
                <path d="M86.55,88.77,90.94,88a.7.7,0,0,0,.51-.73v-1.4c0-.46-.33-.82-.7-.73l-4.6,1.08a.77.77,0,0,0-.47.92l.21,1.06A.62.62,0,0,0,86.55,88.77Z" fill="#fac1b1"/>
                <path d="M86.41,92,90,91.56c.25,0,.46-.39.49-.84L90.68,89c0-.57-.19-1-.5-1l-3.83.81c-.28.06-.5.55-.47,1.07l.06,1.32C86,91.7,86.17,92,86.41,92Z" fill="#fac1b1"/>
                <path d="M87.06,94l2.54.41c.19,0,.39-.3.47-.7l.27-1.49c.09-.5,0-1-.3-.92l-3.09.3c-.22,0-.44.43-.47.89l-.08.78A.81.81,0,0,0,87.06,94Z" fill="#fac1b1"/>
              </g>
            </g>
          </g>
          <ellipse cx="28.06" cy="284.79" rx="3.4" ry="2.3" fill="#fac1b1"/>
          <polygon points="32.36 293.81 31.39 285.41 24.57 285.41 23.76 293.79 32.36 293.81" fill="#19223f"/>
          <polygon points="24.51 286.41 18.34 290.5 25.46 293.55 30.77 293.43 24.73 286.41 24.51 286.41" fill="#19223f"/>
          <path d="M15.14,293.93a2.64,2.64,0,0,1,0-.28c0-1.93,2.76-3.5,6.18-3.5s6.18,1.57,6.18,3.5a2.58,2.58,0,0,1,0,.4C23.34,294,19.24,294,15.14,293.93Z" fill="#000828"/>
          <rect x="15.06" y="293.58" width="14.48" height="1.49" transform="translate(44.6 588.66) rotate(-180)" fill="#ba8f56"/>
          <rect x="28.39" y="293.57" width="3.97" height="1.5" transform="translate(60.74 588.64) rotate(-180)" fill="#ba8f56"/>
          <polygon points="37.59 293.81 38.55 285.41 45.38 285.41 46.19 293.79 37.59 293.81" fill="#19223f"/>
          <polygon points="45.43 286.41 51.6 290.5 44.48 293.55 39.17 293.43 45.22 286.41 45.43 286.41" fill="#19223f"/>
          <path d="M54.8,293.93a1.33,1.33,0,0,0,0-.28c0-1.93-2.77-3.5-6.18-3.5s-6.18,1.57-6.18,3.5a1.75,1.75,0,0,0,0,.4C46.61,294,50.71,294,54.8,293.93Z" fill="#000828"/>
          <rect x="40.41" y="293.58" width="14.48" height="1.49" fill="#ba8f56"/>
          <rect x="37.59" y="293.57" width="3.97" height="1.5" fill="#ba8f56"/>
        </g>
      </g>
    </g>
  </g>
</svg>
