<svg xmlns="http://www.w3.org/2000/svg" xmlns:xlink="http://www.w3.org/1999/xlink" width="76.34" height="291.66" viewBox="0 0 76.34 291.66">
  <defs>
    <symbol id="7f6e3fa8-9669-4400-afad-5e35d4d03bca" data-name="New Symbol 8" viewBox="0 0 44.07 176.44">
      <path d="M3.76,10.51A18.79,18.79,0,0,0,.11,23.81L16,165.41a12.3,12.3,0,0,0,12.78,11h0a12.3,12.3,0,0,0,11.76-11.92L44.06,20.25a12.26,12.26,0,0,0-3.59-9.07L34.69,5.39a18.42,18.42,0,0,0-26.47.44L3.81,10.44Z" fill="#fac1b1"/>
    </symbol>
    <symbol id="56d33f34-f5f3-48e7-963d-0295b327751e" data-name="New Symbol 30" viewBox="0 0 23.76 141.6">
      <path d="M2.25,4.76,0,8.08.26,32.74,1.43,141.6h13.3L22.07,32.74l1.14-17,.55-8.13C19.2-.65,7.52-3.06,2.25,4.76Z" fill="#fac1b1"/>
    </symbol>
    <symbol id="371bbbaa-6b84-4ac1-a204-6b51dd2114ed" data-name="New Symbol 197" viewBox="0 0 49.42 99.31">
      <path d="M48.43,17.48,37.37,43.71,16.08,94.19A8.37,8.37,0,0,1,.37,88.48L16.5,36,24.85,8.79A12.58,12.58,0,0,1,39.75.34a13,13,0,0,1,2.78,1l.22.11A12.57,12.57,0,0,1,48.43,17.48Z" fill="#78cdd0"/>
    </symbol>
    <symbol id="ae533846-e8cb-4a11-a6bb-d8adc809fdd4" data-name="New Symbol 162" viewBox="0 0 39.78 79.65">
      <g>
        <path d="M.21,74.12a4.22,4.22,0,0,0,2.66,5.31,4.12,4.12,0,0,0,1.33.22A4.21,4.21,0,0,0,8,77.25l9.16-19.18L7,53.78Z" fill="#fac1b1"/>
        <path d="M33.39.32A8.55,8.55,0,0,0,31.06,0a8.73,8.73,0,0,0-8.27,6L13.41,34.29l-2.36,7.13L7,53.78l10.21,4.29L23,45.77l3.43-7.19L38.92,12.47A8.71,8.71,0,0,0,33.39.32Z" fill="#78cdd0"/>
      </g>
    </symbol>
    <symbol id="23889581-4b77-4b31-bab1-828314978198" data-name="New Symbol 23" viewBox="0 0 3.26 4.72">
      <path d="M1.63,4.72h0A1.63,1.63,0,0,1,0,3.09V1.63A1.63,1.63,0,0,1,1.63,0h0A1.63,1.63,0,0,1,3.26,1.63V3.09A1.63,1.63,0,0,1,1.63,4.72Z" fill="#67413a"/>
    </symbol>
  </defs>
  <title>main-anna-char</title>
  <g id="43f58b4f-4b20-4bbf-9a27-eb437b42371c" data-name="Layer 2">
    <g id="a6205147-6e1d-4c54-b04d-9b3bf979bf70" data-name="Layer 1">
      <g>
        <g>
          <path d="M40.74,10.74a1.78,1.78,0,0,1-2.35-2l-1.11,0a1.82,1.82,0,0,1-1.55.81L34,9.64a11.44,11.44,0,0,0-2.26.35,2,2,0,0,1-.37.4,5.68,5.68,0,0,1-2.51,1.45V46A2.86,2.86,0,0,1,26,48.85a2.38,2.38,0,0,1-2.38-2.38V46a2.38,2.38,0,1,0-4.75,0,11.4,11.4,0,0,0,11.4,11.4A12.82,12.82,0,0,0,43.06,44.57V15.11a45,45,0,0,1,1.22-5.45C43.1,10,41.91,10.35,40.74,10.74Z" fill="#543330"/>
          <g>
            <path d="M17.8,32.84H59.22a0,0,0,0,1,0,0V70a5,5,0,0,1-5,5H22.79a5,5,0,0,1-5-5V32.84A0,0,0,0,1,17.8,32.84Z" fill="#4c2d28"/>
            <rect x="24.11" y="40.13" width="28.8" height="34.9" fill="#3a201d"/>
          </g>
          <g>
            <use id="4370bad4-af9d-43fe-88a6-54a22bf9eebc" data-name="New Symbol 8" width="44.07" height="176.45" transform="matrix(-0.51, 0, 0, 0.51, 62.03, 130.84)" xlink:href="#7f6e3fa8-9669-4400-afad-5e35d4d03bca"/>
            <use id="a117b3db-ef3c-4a05-838f-dce2a00df651" data-name="New Symbol 30" width="23.76" height="141.6" transform="translate(41.4 209.5) scale(0.54)" xlink:href="#56d33f34-f5f3-48e7-963d-0295b327751e"/>
          </g>
          <use id="429a841d-9500-4639-bb6e-db11a8699380" data-name="New Symbol 8" width="44.07" height="176.45" transform="translate(16.3 130.84) scale(0.51)" xlink:href="#7f6e3fa8-9669-4400-afad-5e35d4d03bca"/>
          <use width="23.76" height="141.6" transform="matrix(-0.54, 0, 0, 0.54, 36.93, 209.5)" xlink:href="#56d33f34-f5f3-48e7-963d-0295b327751e"/>
          <g>
            <path d="M4.5,154.94a2.11,2.11,0,0,0,1.84,2.31,2.08,2.08,0,0,0,2.26-1.58l2.49-10.25-5.4-1Z" fill="#fac1b1"/>
            <g>
              <use id="2d1e669b-ddee-4191-9662-b79a385e2609" data-name="New Symbol 197" width="49.42" height="99.31" transform="matrix(-0.49, -0.1, -0.1, 0.49, 77.26, 76.41)" xlink:href="#371bbbaa-6b84-4ac1-a204-6b51dd2114ed"/>
              <use id="020dfd5a-8f28-46cf-b3b6-5efcf3ba6bfd" data-name="New Symbol 162" width="39.78" height="79.65" transform="matrix(-0.49, -0.1, -0.1, 0.49, 80.2, 118.99)" xlink:href="#ae533846-e8cb-4a11-a6bb-d8adc809fdd4"/>
            </g>
          </g>
          <rect x="15.32" y="132.1" width="46.38" height="17.86" rx="8.64" ry="8.64" fill="#c0eec2"/>
          <path d="M16.19,136H60.82l0-59.37a4.33,4.33,0,0,0-2.26-4.41l-13.26-7a14.61,14.61,0,0,0-13.69,0l-13.26,7a4.32,4.32,0,0,0-2.25,4.41Z" fill="#cec6ae"/>
          <path d="M57.6,118.08l-19.09.57-19.1-.57-2,4.25a38.52,38.52,0,0,0-3.56,18.24l2.55,59.69H60.62l2.55-59.69a38.64,38.64,0,0,0-3.56-18.24Z" fill="#cec6ae"/>
          <rect x="15.52" y="197.03" width="46.3" height="5.19" rx="2.56" ry="2.56" fill="#fff"/>
          <path d="M27.37,77.64a5.71,5.71,0,0,1,2.74,4.83c0,1.69.09,3.38.21,5.07,2.31,9.16,3.71,18.55,5.23,28,.26,1.6.55,3.2.84,4.8.35.51.7,1,1,1.51a83.26,83.26,0,0,0,5.2-8.65c.67-1.23,1.39-2.47,2.15-3.71.05-.36.11-.72.17-1.08.82-4.8,3.11-9.17,3.59-14s.81-9.72,1.67-14.53c0-.12.06-.23.09-.35.18-3.34.51-7.49,2-10.65l-6.92-3.68a14.61,14.61,0,0,0-13.69,0L24,69.22A90.44,90.44,0,0,1,27.37,77.64Z" fill="#fecb05"/>
          <path d="M55.87,22.32v-.16l-.11,0c-1.47-.68-2.23-2.39-3.52-3.39a25.05,25.05,0,0,1-4.06-4.42,17.34,17.34,0,0,0-5.25-4.73A28.28,28.28,0,0,1,40.38,8l-.26,2c-10.41,0-15.27,7.9-19.1,10.9s-3.54,15-3.54,15A19,19,0,0,0,36.4,54.84h4.21A19,19,0,0,0,59.54,35.92C58.41,31.16,57.91,24.9,55.87,22.32Z" fill="#4c2d28"/>
          <g id="e7de1103-f507-43df-98e8-57edef89a5aa" data-name="&lt;Group&gt;">
            <rect x="33.17" y="52.66" width="10.68" height="21.6" rx="4.25" ry="4.25" fill="#fac1b1"/>
            <path d="M43.85,57.39v10c-2.81-1.8-7.47-4.74-10.68-6.62V57.39a4.26,4.26,0,0,1,4.25-4.24H39.6A4.26,4.26,0,0,1,43.85,57.39Z" fill="#ddaa9e"/>
          </g>
          <g>
            <rect x="50.52" y="37.15" width="4.88" height="9.23" rx="2.44" ry="2.44" fill="#ddaa9e"/>
            <rect x="21.52" y="37.15" width="4.88" height="9.23" rx="2.44" ry="2.44" fill="#ddaa9e"/>
            <path d="M24.31,32V45.76A12.57,12.57,0,0,0,28,54.64l6.51,6.51a6.17,6.17,0,0,0,8.74,0L49,55.37a12.55,12.55,0,0,0,3.68-8.89V34L30,22.33Z" fill="#fac1b1"/>
          </g>
          <path d="M33.15,51.73a.47.47,0,0,0-.36.7,6.34,6.34,0,0,0,11.44,0,.48.48,0,0,0-.36-.7Z" fill="#fff"/>
          <use id="5a3d4545-0e46-4901-8398-49feeeee8622" data-name="New Symbol 23" width="3.26" height="4.72" transform="translate(29.81 36.41) scale(1.07 0.71)" xlink:href="#23889581-4b77-4b31-bab1-828314978198"/>
          <use id="8bbf7aa1-77a9-4230-b442-c39a16ac4520" data-name="New Symbol 23" width="3.26" height="4.72" transform="matrix(-1.07, 0, 0, 0.71, 47.21, 36.41)" xlink:href="#23889581-4b77-4b31-bab1-828314978198"/>
          <g>
            <circle cx="29.41" cy="46.76" r="1.94" fill="#fc8883" opacity="0.36"/>
            <g id="9ddcf121-ee26-4d50-b70e-5f04a3d2a549" data-name="&lt;Group&gt;">
              <circle cx="47.61" cy="46.76" r="1.94" fill="#fc8883" opacity="0.36"/>
            </g>
          </g>
          <g>
            <path d="M33.88,45H27.66c-2,0-3.71-2.18-3.71-4.85V37.46c0-2.67,1.67-4.84,3.71-4.84h6.22c2,0,3.71,2.17,3.71,4.84v2.68C37.59,42.81,35.92,45,33.88,45ZM27.66,34.1c-1.42,0-2.57,1.51-2.57,3.36v2.68c0,1.86,1.15,3.36,2.57,3.36h6.22c1.42,0,2.57-1.5,2.57-3.36V37.46c0-1.85-1.15-3.36-2.57-3.36Z" fill="#67008d"/>
            <rect x="36.75" y="35.43" width="3.32" height="2.91" fill="#67008d"/>
            <g>
              <rect x="52.03" y="34.22" width="3.47" height="2.91" fill="#67008d"/>
              <rect x="21.52" y="34.22" width="3.33" height="2.91" fill="#67008d"/>
            </g>
            <g id="5162281b-733f-4c1f-b7cf-4372fc72405f" data-name="&lt;Group&gt;">
              <path d="M49.25,45H43c-2,0-3.71-2.18-3.71-4.85V37.46c0-2.67,1.67-4.84,3.71-4.84h6.22c2,0,3.71,2.17,3.71,4.84v2.68C53,42.81,51.29,45,49.25,45ZM43,34.1c-1.42,0-2.57,1.51-2.57,3.36v2.68c0,1.86,1.15,3.36,2.57,3.36h6.22c1.42,0,2.57-1.5,2.57-3.36V37.46c0-1.85-1.15-3.36-2.57-3.36Z" fill="#67008d"/>
            </g>
          </g>
          <polygon points="38.09 32.05 35.69 32.11 25.34 14.32 35.17 14.58 38.09 32.05" fill="#4c2d28"/>
          <g>
            <path d="M39.87,234.66H54.79l-4,54s-9.68,3-9.76.22S39.87,234.66,39.87,234.66Z" fill="#181819"/>
            <path d="M57.87,286.45c-5-.87-12.79-2.92-12.79-2.92l-2.74,2.13h-.52l-.73,1.47v4.53h6v-.46l-.73-.72a1.71,1.71,0,0,1,1.5,1.18h14S63.15,287.65,57.87,286.45Z" fill="#181819"/>
            <path d="M41.09,289.66v2h6v-.46l-.73-.72a1.71,1.71,0,0,1,1.5,1.18h14s.34-2,0-2Z" fill="#543330"/>
          </g>
          <g>
            <path d="M38.62,234.66H23.7l4,54s9.68,3,9.76.22S38.62,234.66,38.62,234.66Z" fill="#181819"/>
            <path d="M20.62,286.45c5-.87,12.79-2.92,12.79-2.92l2.74,2.13h.52l.42,1.47v4.53h-5v-.46l.39-.72a2.05,2.05,0,0,0-1.85,1.18h-14S15.34,287.65,20.62,286.45Z" fill="#181819"/>
            <path d="M37.09,289.66v2h-5v-.46l.39-.72a2.05,2.05,0,0,0-1.85,1.18h-14s-.34-2,.05-2Z" fill="#543330"/>
          </g>
          <path d="M23.54,78.44l-1.78,16-4.57,26.08A4.15,4.15,0,0,1,9,119.32l2.46-27.14,1.27-14a6.25,6.25,0,0,1,4.93-5.5c.46-.09,5.43-3.06,5.92-2.93,0,0,1.6,3.05,1.6,3.05C28.26,73.65,24.16,75.27,23.54,78.44Z" fill="#e8e1c8" stroke="#e8e1c8" stroke-miterlimit="10" stroke-width="5"/>
          <path d="M13.06,115.73a4.55,4.55,0,0,0-1.17.08,4.34,4.34,0,0,0-3.4,3.75l-1.66,14.7L6.42,138l-.73,6.42,5.4,1,1.59-6.57.93-3.84L17,121.06A4.31,4.31,0,0,0,13.06,115.73Z" fill="#e8e1c8" stroke="#e8e1c8" stroke-miterlimit="10" stroke-width="5"/>
          <path d="M53.32,78.44l1.78,16,4.57,26.08a4.15,4.15,0,0,0,8.21-1.16L65.42,92.18l-1.27-14a6.25,6.25,0,0,0-4.92-5.5c-.47-.09-5.43-3.06-5.92-2.93,0,0-1.61,3.05-1.61,3.05C48.6,73.65,52.7,75.27,53.32,78.44Z" fill="#e8e1c8" stroke="#e8e1c8" stroke-miterlimit="10" stroke-width="5"/>
          <path d="M63.81,115.73a4.44,4.44,0,0,1,1.16.08,4.33,4.33,0,0,1,3.4,3.75L70,134.26l.41,3.7.73,6.42-5.4,1-1.59-6.57L63.25,135l-3.37-13.95A4.32,4.32,0,0,1,63.81,115.73Z" fill="#e8e1c8" stroke="#e8e1c8" stroke-miterlimit="10" stroke-width="5"/>
          <path d="M56.26,67.11a15.68,15.68,0,0,0-4-1.36,13.61,13.61,0,0,0-5.21,0c-.44.2-.86,1.07-.86,1.07-3.21,8.52-5.47,26.63-7,37.17-1.92-10.48-4.77-28.63-8.26-37.1,0,0-.45-.86-.9-1a13.63,13.63,0,0,0-5.21.12,15.78,15.78,0,0,0-4,1.47,1.32,1.32,0,0,0-.45,1.15,5.63,5.63,0,0,0,.61,1.92,34.94,34.94,0,0,1,2.36,5.58c2.49,9.53,10.37,39.56,13.11,49.31.39.2.78.41.59.35a6.43,6.43,0,0,0,5,.06c-.19.07.2-.16.57-.36,2.43-9.82,9.35-40,11.54-49.64a35.58,35.58,0,0,1,2.17-5.64,5.23,5.23,0,0,0,.55-1.93A1.31,1.31,0,0,0,56.26,67.11Z" fill="#fff"/>
          <rect x="36.46" y="130.92" width="4.87" height="4.87" rx="2.44" ry="2.44" fill="#bab19b"/>
          <rect x="36.46" y="141.59" width="4.87" height="4.87" rx="2.44" ry="2.44" fill="#bab19b"/>
          <rect x="36.46" y="152.27" width="4.87" height="4.87" rx="2.44" ry="2.44" fill="#bab19b"/>
        </g>
        <g>
          <path d="M39.78,23.06c5.24,0,10.47-.09,15.7,0a10.3,10.3,0,0,0,.65-3.57C56.13,12.05,38,4.82,38,4.82S19.89,12.05,19.89,19.5a10.32,10.32,0,0,0,.34,2.61C26.76,22.26,33.24,23,39.78,23.06Z" fill="#e8b30c"/>
          <rect x="19.86" y="15.9" width="36.21" height="7.34" rx="1.08" ry="1.08" fill="#fecb05"/>
          <circle cx="38.17" cy="4.77" r="4.77" fill="#fecb05"/>
        </g>
        <g>
          <path d="M10,167.51s.09,0,.28,0a3.32,3.32,0,0,0,.63,0,2.42,2.42,0,0,0,.9-.21.72.72,0,0,0,.38-.6s-1-7.62-1.11-9.28a1.39,1.39,0,0,0-1.65-1.39,7.66,7.66,0,0,0-2,.35c-.32.23-1,1.23-.41,3.53s1.7,6.42,1.7,6.42A4.77,4.77,0,0,0,10,167.51Z" fill="#ddb022"/>
          <rect x="0.71" y="150.83" width="9.67" height="19.76" rx="3.15" ry="3.15" transform="translate(17.3 0.33) rotate(6.17)" fill="#fecb05"/>
          <rect x="2.49" y="148.66" width="8.65" height="3.89" transform="translate(19.76 0.4) rotate(7.52)" fill="#ddb022"/>
        </g>
        <g>
          <path d="M66.35,166.9s-.08,0-.27,0a3.32,3.32,0,0,1-.63,0,2.42,2.42,0,0,1-.9-.21.72.72,0,0,1-.38-.6s1-7.62,1.11-9.28a1.38,1.38,0,0,1,1.65-1.39,7.66,7.66,0,0,1,2,.35c.32.23,1,1.23.41,3.53s-1.7,6.42-1.7,6.42A4.71,4.71,0,0,1,66.35,166.9Z" fill="#ddb022"/>
          <rect x="65.95" y="150.83" width="9.67" height="19.76" rx="3.15" ry="3.15" transform="translate(158.43 312.88) rotate(173.83)" fill="#fecb05"/>
          <rect x="65.19" y="148.66" width="8.65" height="3.89" transform="matrix(-0.99, 0.13, -0.13, -0.99, 158.14, 290.82)" fill="#ddb022"/>
        </g>
        <rect x="63.7" y="143.72" width="10.85" height="5.68" rx="2.84" ry="2.84" transform="translate(-30.94 19.11) rotate(-12.89)" fill="#f5f5f5"/>
        <rect x="2.36" y="144.24" width="10.85" height="5.68" rx="2.84" ry="2.84" transform="translate(19.59 0.27) rotate(7.63)" fill="#f5f5f5"/>
      </g>
    </g>
  </g>
</svg>
