<svg xmlns="http://www.w3.org/2000/svg" xmlns:xlink="http://www.w3.org/1999/xlink" width="340.99" height="340" viewBox="0 0 340.99 340">
  <defs>
    <clipPath id="b1629beb-6b97-4206-a58a-2660200abd16">
      <circle cx="169.21" cy="169.97" r="169.66" fill="none"/>
    </clipPath>
    <clipPath id="d33fc199-8d33-4fb4-bc1f-75cc13d45c2d">
      <circle cx="601.6" cy="169.8" r="170.46" fill="none"/>
    </clipPath>
  </defs>
  <title>main-denis</title>
  <g style="isolation: isolate">
    <g id="5f36519b-0075-4c52-985c-98d873864576" data-name="Layer 1">
      <g>
        <g clip-path="url(#b1629beb-6b97-4206-a58a-2660200abd16)">
          <g>
            <circle cx="169.75" cy="169.74" r="168.76" fill="#59097a"/>
            <g>
              <g opacity="0.27">
                <g>
                  <rect x="141.85" y="168.07" width="226.1" height="112.73" fill="#786552"/>
                  <rect x="141.85" y="159.51" width="226.1" height="36.33" fill="#363636"/>
                  <rect x="131.25" y="159.51" width="15.09" height="121.29" fill="#786552"/>
                  <g>
                    <rect x="219.33" y="195.85" width="6.05" height="84.96" fill="#363636"/>
                    <rect x="284.42" y="195.85" width="6.05" height="84.96" fill="#363636"/>
                  </g>
                  <rect x="225.38" y="195.85" width="59.04" height="84.96" fill="#7ab1b3"/>
                  <rect x="251.87" y="195.85" width="6.05" height="84.96" fill="#363636"/>
                  <rect x="146.34" y="195.85" width="72.98" height="63.34" fill="#7ab1b3"/>
                  <rect x="290.47" y="195.85" width="72.98" height="63.34" fill="#7ab1b3"/>
                  <rect x="221.09" y="236.64" width="67.61" height="3.37" fill="#363636"/>
                  <rect x="146.34" y="259.19" width="72.98" height="6.1" fill="#cfcfcf" style="mix-blend-mode: multiply"/>
                  <rect x="290.47" y="259.19" width="72.98" height="6.1" fill="#cfcfcf" style="mix-blend-mode: multiply"/>
                  <g>
                    <rect x="143.21" y="266.63" width="14.43" height="5.52" rx="0.71" ry="0.71" fill="#d9d9d9" style="mix-blend-mode: multiply"/>
                    <rect x="150.81" y="273" width="14.43" height="5.52" rx="0.71" ry="0.71" fill="#d9d9d9" style="mix-blend-mode: multiply"/>
                    <rect x="166.13" y="273" width="14.43" height="5.52" rx="0.71" ry="0.71" fill="#d9d9d9" style="mix-blend-mode: multiply"/>
                    <rect x="181.29" y="273" width="14.43" height="5.52" rx="0.71" ry="0.71" fill="#d9d9d9" style="mix-blend-mode: multiply"/>
                    <rect x="196.61" y="273" width="14.43" height="5.52" rx="0.71" ry="0.71" fill="#d9d9d9" style="mix-blend-mode: multiply"/>
                    <rect x="158.4" y="266.63" width="14.42" height="5.52" rx="0.71" ry="0.71" fill="#d9d9d9" style="mix-blend-mode: multiply"/>
                    <rect x="173.51" y="266.63" width="14.43" height="5.52" rx="0.71" ry="0.71" fill="#d9d9d9" style="mix-blend-mode: multiply"/>
                    <rect x="188.68" y="266.63" width="14.43" height="5.52" rx="0.71" ry="0.71" fill="#d9d9d9" style="mix-blend-mode: multiply"/>
                    <rect x="203.82" y="266.63" width="14.43" height="5.52" rx="0.71" ry="0.71" fill="#d9d9d9" style="mix-blend-mode: multiply"/>
                    <path d="M149.14,273h-5.93v5.52h5.93a.71.71,0,0,0,.71-.71v-4.1A.71.71,0,0,0,149.14,273Z" fill="#d9d9d9" style="mix-blend-mode: multiply"/>
                    <path d="M218.25,273h-5.76a.7.7,0,0,0-.71.71v4.1a.71.71,0,0,0,.71.71h5.76Z" fill="#d9d9d9" style="mix-blend-mode: multiply"/>
                  </g>
                  <g>
                    <rect x="291.71" y="266.89" width="14.39" height="5.51" rx="0.71" ry="0.71" fill="#d9d9d9" style="mix-blend-mode: multiply"/>
                    <rect x="299.3" y="273.24" width="14.39" height="5.51" rx="0.71" ry="0.71" fill="#d9d9d9" style="mix-blend-mode: multiply"/>
                    <rect x="314.59" y="273.24" width="14.39" height="5.51" rx="0.71" ry="0.71" fill="#d9d9d9" style="mix-blend-mode: multiply"/>
                    <rect x="329.71" y="273.24" width="14.39" height="5.51" rx="0.71" ry="0.71" fill="#d9d9d9" style="mix-blend-mode: multiply"/>
                    <rect x="306.87" y="266.89" width="14.39" height="5.51" rx="0.71" ry="0.71" fill="#d9d9d9" style="mix-blend-mode: multiply"/>
                    <rect x="321.95" y="266.89" width="14.39" height="5.51" rx="0.71" ry="0.71" fill="#d9d9d9" style="mix-blend-mode: multiply"/>
                    <rect x="337.09" y="266.89" width="14.39" height="5.51" rx="0.71" ry="0.71" fill="#d9d9d9" style="mix-blend-mode: multiply"/>
                    <path d="M297.64,273.24h-5.93v5.51h5.93a.7.7,0,0,0,.7-.71V274A.7.7,0,0,0,297.64,273.24Z" fill="#d9d9d9" style="mix-blend-mode: multiply"/>
                  </g>
                  <rect x="131.25" y="179.37" width="247.3" height="6.29" fill="#4d4d4d"/>
                  <rect x="131.25" y="189.56" width="247.3" height="6.29" fill="#4d4d4d"/>
                  <rect x="131.25" y="159.51" width="247.3" height="6.29" fill="#4d4d4d"/>
                  <rect x="131.25" y="169.59" width="247.3" height="6.29" fill="#4d4d4d"/>
                  <rect x="131.25" y="165.8" width="247.3" height="2.27" fill="#ccc" style="mix-blend-mode: multiply"/>
                  <rect x="131.25" y="175.88" width="247.3" height="2.27" fill="#ccc" style="mix-blend-mode: multiply"/>
                  <rect x="131.25" y="185.66" width="247.3" height="2.27" fill="#ccc" style="mix-blend-mode: multiply"/>
                  <rect x="146.34" y="195.85" width="72.98" height="3.28" fill="#ccc" style="mix-blend-mode: multiply"/>
                  <rect x="290.47" y="195.85" width="72.98" height="3.28" fill="#ccc" style="mix-blend-mode: multiply"/>
                  <rect x="131.25" y="280.8" width="247.3" height="6.64" fill="#bfbfbf"/>
                  <g>
                    <g>
                      <rect x="197.61" y="281.75" width="114.57" height="6.1" fill="#bfbfbf"/>
                      <rect x="197.61" y="282.53" width="114.57" height="1.84" fill="#bfbfbf" style="mix-blend-mode: multiply"/>
                      <path d="M312.18,282.59H197.61a.84.84,0,0,1-.83-.84.83.83,0,0,1,.83-.83H312.18a.83.83,0,0,1,.83.83A.84.84,0,0,1,312.18,282.59Z" fill="#bfbfbf"/>
                    </g>
                    <g>
                      <rect x="190.54" y="287.86" width="128.72" height="6.1" fill="#bfbfbf"/>
                      <rect x="190.54" y="288.77" width="128.72" height="1.84" fill="#bfbfbf" style="mix-blend-mode: multiply"/>
                      <path d="M319.26,288.69H190.54a.84.84,0,0,1-.84-.83.85.85,0,0,1,.84-.84H319.26a.84.84,0,0,1,.83.84A.83.83,0,0,1,319.26,288.69Z" fill="#bfbfbf"/>
                    </g>
                  </g>
                  <g>
                    <rect x="204.9" y="256.18" width="11.97" height="24.62" fill="#4d4d4d"/>
                    <rect x="204.9" y="256.82" width="11.97" height="1.45" fill="#ccc" style="mix-blend-mode: multiply"/>
                    <path d="M216.88,256.5h-12a1,1,0,0,1,0-1.93h12a1,1,0,0,1,0,1.93Z" fill="#4d4d4d"/>
                  </g>
                </g>
                <rect x="131.25" y="144.18" width="247.3" height="15.33" fill="#786552"/>
                <rect x="131.25" y="149.01" width="247.3" height="7.15" fill="#ccc" style="mix-blend-mode: multiply"/>
                <rect x="143.21" y="195.85" width="3.14" height="69.44" fill="#cfcfcf" style="mix-blend-mode: multiply"/>
                <text transform="translate(219.33 188.5)" font-size="16.56" fill="#fff" font-family="GTWalsheimv2Manual-Black, GTWalsheimv2Manual Black">О<tspan x="11.41" y="0" letter-spacing="-0.04em">Г</tspan><tspan x="18" y="0">ОНЁК</tspan></text>
              </g>
              <path d="M131,143.32V287.48l58.81-.05a.86.86,0,0,0,.71,1.26,44.07,44.07,0,0,0-.61,5.27c27.69.06,128.09.58,128.09.18v-6.69h60V143.32Z" fill="#67008d" opacity="0.64" style="mix-blend-mode: overlay"/>
            </g>
            <path d="M170.43,143.32H279.11s-12.9-9.32-22.43-11.77-17.46-6.59-24-2.67-13,5.87-16.69,4.71-17-6.49-25.1-2.06-33.59,11.79-33.59,11.79Z" fill="#9957bc" opacity="0.51"/>
            <path d="M81.9,290.94c-4.92-1.69-11,3.45-12.19,4H88S84.22,292.43,81.9,290.94Z" fill="#9957bc"/>
            <g opacity="0.51">
              <g>
                <path d="M361.86,107.59c1.81-2.46,3.75-4.68,5.67-7a26,26,0,0,0,1.39-2.54c2.84-7.89,4-16.81,8.9-23.75A43.23,43.23,0,0,1,386,65.43V-67.7H350.6a21.27,21.27,0,0,1-2.46,6.39,21.63,21.63,0,0,1-12.86,9.88,19.4,19.4,0,0,1-8.23.51c-8.76,4.74-16,11.89-24.88,16.45-8.66,4.46-19,3.75-26.07-3.37a21,21,0,0,1-6-12.35c-1.3.14-2.6.29-3.89.45-4.22.57-8.53,1.2-12.72,2.17-.66,1.75-1.43,3.46-2.2,5.19C248.07-35.17,242-28,234.66-24.92c-5.76,2.45-10.94,4.3-17.4,4.16A34.67,34.67,0,0,1,205-22.87c-1.43-.59-2.88-1.2-4.3-1.86-.8.29-1.6.55-2.39.8-6.73,2.06-13.68,3-20.57,4.38-5.84,1.15-11.31.91-16.58-2.17a21.74,21.74,0,0,1-9.07-10.47,98.85,98.85,0,0,1-3.27,22.77c-3.41,12.25-10.3,23.75-22.39,29A134.4,134.4,0,0,1,92.61,29c.75-.09,1.5-.17,2.25-.27l-5.72.76c1.16-.15,2.32-.32,3.47-.49a166.74,166.74,0,0,1-25.3.94,164.28,164.28,0,0,0-19.6.17,47.67,47.67,0,0,0-6,1.53c-.73.38-1.44.78-2.14,1.22-3,2.62-6,5.39-9,8-6.38,5.33-12.19,9.06-20.06,11.83-11.34,4-23.76,3.83-35.15,7.68-.77.4-1.53.82-2.27,1.27l-.17.18a40.48,40.48,0,0,0-2.07,3.63,83.47,83.47,0,0,0-3.62,15.38c-1.24,10.26-1.93,20.61-3.86,30.77-1.51,8-4.36,15.57-5.86,23.53a37.34,37.34,0,0,0-.1,4.23c.06.24.13.47.19.7a.75.75,0,0,1,.07.12l.9.88c.56.36,1.13.71,1.71,1l.84.21a30.37,30.37,0,0,1,16-19.73,32.61,32.61,0,0,1-6.2-4.65,10.36,10.36,0,0,1,0-14.55,10.4,10.4,0,0,1,14.55,0c.19.18,1.73,1.33,1.37,1.14.29.19.57.38.88.56s.88.48,1.34.7l.22.08a28.71,28.71,0,0,0,3.41,1c.5.11,1,.2,1.52.29l.15,0c5,.43,10.06-.13,15.08.51,2.84.35,5.67.77,8.5,1.16l.55.08.65.07c1,.1,1.95.21,2.93.26a36.53,36.53,0,0,0,4.68,0c0-.06,1.48-.34,1.73-.4a6.5,6.5,0,0,1,.74-.16l.18-.1c4.8-2.76,9-4.78,14.64-5.35a47.56,47.56,0,0,1,15,1.21c2.52.56,5,1.44,7.55,2,.83.08,2.65.27,3.34.31,4.1.22,8.21.29,12.32.47,6.32.27,13,.49,19.4,1.9,2.31-4,6.94-5.43,11.61-4.71,3.76.59,7.5,1.33,11.24,2a17.4,17.4,0,0,1,9-3.13,26.94,26.94,0,0,1,4.58.08,11.79,11.79,0,0,1-.11-8c.14-.37.3-.73.47-1.09a18.21,18.21,0,0,1-.6-3.49c-.4-4.26.52-8.33,4-11,.5-.56,1-1.15,1.29-1.42.95-1,1.94-2,3-2.92s1.9-1.66,2.78-2.56c.29-.3,1.1-1.38,1-1.12.08-.15.17-.29.25-.43s.23-.41.3-.52l.1-.38c.23-.78.49-1.57.67-2.37.09-.39.18-.79.26-1.19,0-.13,0-.3,0-.54,0-.63,0-1.27,0-1.9a3,3,0,0,0-.14-.42l-.3-.07h-.1c-.57,0-1.13-.07-1.7-.09a79.89,79.89,0,0,1-9.88-.79c-5.55-.86-8.54-7.72-7.19-12.66,1.62-5.87,7.13-8,12.66-7.19-3-.46-.39-.1.23-.07l2.48.07c1.41,0,2.83,0,4.23.22,3.71.44,7.81.91,10.9,3.25,6.28,4.75,10,11.6,9.39,19.65-.49,7.06-2.48,14-7.12,19.46a12.53,12.53,0,0,1,.91,6.81v0c.3-1.84.09-.52.07.25.11.4.23.81.37,1.21,1.11,2.29,2.43,4.63,2.85,7.15a16.52,16.52,0,0,1-1.22,9.77,10,10,0,0,1,2.08,2.5,10.15,10.15,0,0,1,1.2,3.34c5.52-2.53,12.79-.19,14.41,6.4A109.19,109.19,0,0,1,187.75,139c.09.89.18,1.78.28,2.67,0-.35.4,2,.4,2,.25,1,.51,2,.83,3.05.08.24.32.76.5,1.14l.23.3q.33.34.69.66l.83.74.5.37c3.28,2.26,6.55,4.53,8.62,8,2.85,4.85,1.66,11.05-2.1,15-2.57,2.7-5.91,3.74-9.49,4.06-5,.45-10.14-1.84-14.61-3.77l-1-.43a9.59,9.59,0,0,1,2,3.84,10.49,10.49,0,0,1-4.73,11.62c-3.19,2.1-7,3.37-10.8,4.56,1.55,2.2,3,4.46,4.42,6.76.58.91,1.15,1.82,1.77,2.69l.16.22.18.19c.47.53.95,1.05,1.47,1.53l.21.08a26.81,26.81,0,0,1,8.32-1.2,10.42,10.42,0,0,1,9.93,7.55c1.13,4.1-.59,9.75-4.73,11.62a32.42,32.42,0,0,1-9.64,2.73l-.42.21c-.74.42-1.48.84-2.19,1.31a22.21,22.21,0,0,1-1.87,1.37c-.63.55-1.26,1.1-1.84,1.7-.32.34-1.35,1.69-1.41,1.7-.13.21-.27.43-.39.65s-.18.28-.27.42c1.81,8.83,2,17.82,3.13,26.76l0,.18c.07.46.14.92.22,1.38.2,1.13.4,2.25.67,3.37a46.53,46.53,0,0,0,1.48,5c.1.15.91,2,1.06,2.29.44.8.88,1.6,1.38,2.36.19.3,2,2.67,1.44,2,.59.68,1.19,1.34,1.81,2a10.41,10.41,0,0,1,0,14.55,9.5,9.5,0,0,1-7.3,2.92A46.28,46.28,0,0,1,160,312.08a68.33,68.33,0,0,1-7,8.55c-.86.86-1.74,1.69-2.65,2.5-.21,7.1-1.06,14.13-4.26,20.57-3.31,6.65-14.5,6.79-17.78,0s-5.43-14.64-2.83-22.16A23.79,23.79,0,0,1,129.8,314c0-.64,0-1.28,0-1.92,0-1.1.09-2.19.12-3.28l-.07,0a23.23,23.23,0,0,1-2.47-1.42,15.59,15.59,0,0,1-6.87-11.58c-.88-6.76,3.41-13.29,9.17-16.46,1.08-.59,2.23-1.09,3.34-1.63-.47-1.69-1-3.36-1.48-5a93,93,0,0,1-10.77-4c-5.15,1.16-10.58,1.34-15.41-.26-9.88-3.28-13.52-15.4-7.81-24,.3-.46.63-.91,1-1.36a11.38,11.38,0,0,1,.12-5.16,25.39,25.39,0,0,1-.78-7.14c.37-5,2.25-10.81,7.2-13.14a22,22,0,0,1,7-2,16.62,16.62,0,0,1-2-6.68c-.44-5,2.55-9.61,6.49-12.36a16.11,16.11,0,0,1,3.25-1.68,12.62,12.62,0,0,1-2.35-2.56,33.07,33.07,0,0,1-4.89-11,7.41,7.41,0,0,1-4.35-.48c-8.82-3.72-15.59-7.53-24.09-9.92-1-.29-2.07-.59-3.12-.81-.06,0-3-.48-1.82-.4a57.24,57.24,0,0,0-6-.28c-4.07,0-8.11.33-12.16.65-2.2.18-4.4.37-6.6.49-1,.06-2,.07-3.06.16l-.4,0-.48.1a90,90,0,0,0-11,3.35,67.58,67.58,0,0,1-12.86,3.4c6.6,4.27,13.46,8.44,18.29,14.49,2.35,2.94,4.83,5.8,6.4,9.24,2.67,5.86,3.52,9.73,4.34,16.15a65.31,65.31,0,0,1,.14,9.17c.77.82,1.57,1.61,2.42,2.36,4.91,3.64,9.61,7.21,12.88,12.74,4.19,7.11,5.68,15.27,6,23.43.31,8.38-1.38,16.74-.93,25.1.2.88.43,1.74.7,2.6.44.82.92,1.63,1.43,2.41.78.86,1.58,1.7,2.42,2.51,9.79,9.56,7.15,24.66-2.18,32.17a24.3,24.3,0,0,1,6.74-2.18c5.94-1,11.2-1,16.58,2.17,5,2.93,8.11,7.44,9.89,12.86.16.48.33.95.49,1.43.42.81.86,1.61,1.34,2.39l.19.19.57.32a58,58,0,0,0,8.67,1.89c8.95,1.13,17.91,2.12,26.72,4.17,10.56,2.45,21,5.54,31.47,8.19,15.3,3.84,31,6.19,46.68,8.34,7.12.92,14.32,1.72,21.53,2.11h9.22q4.7,0,9.39-.08c1-.08,2-.17,3-.27a59.88,59.88,0,0,0,9.23-2.3c.37-.2.75-.4,1.11-.61.42-.41.83-.84,1.23-1.27.53-.8,1-1.62,1.48-2.46a19.51,19.51,0,0,1-3.49-6.95,21.77,21.77,0,0,1,0-11.44c2.06-7.46,7.8-12.71,15-15,8.72-2.79,18.23-3.37,27.35-3,6.56.23,13.14.75,19.69.27a38.25,38.25,0,0,0,4.48-1.16c1-.51,1.93-1.07,2.86-1.67a32.57,32.57,0,0,0,2.37-2.33c4.21-5.87,8.17-11.86,14.53-15.76A27.3,27.3,0,0,1,386,304.24V172.44a21.66,21.66,0,0,1-11.7-2.91c-5.2-3.05-7.8-7.42-9.89-12.86-.09-.22-.18-.43-.26-.65-4.26-9.65-9-19.91-7.65-30.69C357.25,119.17,358,112.78,361.86,107.59Z" fill="none"/>
                <path d="M145.94,295.47l.14-.27.24-.53c0-.12.1-.27.16-.46s.21-.61.31-.92c-.61.41-1.22.8-1.84,1.16C145.29,294.78,145.63,295.12,145.94,295.47Z" fill="none"/>
              </g>
              <path d="M230.69,109.22a3.13,3.13,0,1,1,2-3.94A3.12,3.12,0,0,1,230.69,109.22Z" fill="#fff"/>
              <path d="M44.93,213a3.13,3.13,0,1,1,2-3.94A3.13,3.13,0,0,1,44.93,213Z" fill="#fff"/>
              <path d="M271.2,207.32a3.13,3.13,0,1,1,2-3.94A3.13,3.13,0,0,1,271.2,207.32Z" fill="#fff"/>
              <path d="M172.57,29.65a1.31,1.31,0,0,1-1.66-.85,1.32,1.32,0,1,1,1.66.85Z" fill="#fff"/>
              <path d="M271.43,156.67a1.32,1.32,0,1,1,1.79-.55A1.32,1.32,0,0,1,271.43,156.67Z" fill="#fff"/>
              <path d="M86.51,193.33a1.32,1.32,0,1,1,.85-1.66A1.32,1.32,0,0,1,86.51,193.33Z" fill="#fff"/>
              <path d="M273.24,249.18a1.32,1.32,0,1,1,1.78-.55A1.31,1.31,0,0,1,273.24,249.18Z" fill="#fff"/>
              <path d="M196.74,199.4a1.33,1.33,0,0,1-.55-1.79,1.32,1.32,0,1,1,.55,1.79Z" fill="#fff"/>
              <path d="M317.37,188.12a1.32,1.32,0,1,1,1.79-.56A1.32,1.32,0,0,1,317.37,188.12Z" fill="#fff"/>
              <path d="M271,269.84a1.32,1.32,0,1,1,1.78-.55A1.31,1.31,0,0,1,271,269.84Z" fill="#fff"/>
              <path d="M209.36,245.38a1.32,1.32,0,1,1,1.78-.56A1.32,1.32,0,0,1,209.36,245.38Z" fill="#fff"/>
              <path d="M86.49,41a1.32,1.32,0,1,1-.56-1.78A1.32,1.32,0,0,1,86.49,41Z" fill="#fff"/>
              <path d="M65.62,69.9a1.32,1.32,0,0,1-2.34-1.22,1.32,1.32,0,0,1,2.34,1.22Z" fill="#fff"/>
              <path d="M203.6,67.35a1.31,1.31,0,0,1-1.78.56,1.33,1.33,0,0,1-.56-1.78,1.32,1.32,0,1,1,2.34,1.22Z" fill="#fff"/>
              <path d="M180.16,298.87a1.32,1.32,0,0,1-.85,1.66,1.31,1.31,0,1,1,.85-1.66Z" fill="#fff"/>
              <path d="M257.4,285.57a1.32,1.32,0,1,1-1.66-.85A1.32,1.32,0,0,1,257.4,285.57Z" fill="#fff"/>
              <path d="M243.73,86.23a1.32,1.32,0,1,1-.56-1.78A1.32,1.32,0,0,1,243.73,86.23Z" fill="#fff"/>
              <path d="M280.64,65.78a2.87,2.87,0,1,1,3.62,1.85A2.86,2.86,0,0,1,280.64,65.78Z" fill="#fff"/>
              <path d="M334.61,151.68a3.13,3.13,0,1,1,3.94,2A3.13,3.13,0,0,1,334.61,151.68Z" fill="#fff"/>
              <path d="M199.33,9.59a3.13,3.13,0,1,1,3.94,2A3.13,3.13,0,0,1,199.33,9.59Z" fill="#fff"/>
              <path d="M115,47.57a3.54,3.54,0,1,1,4.45,2.28A3.53,3.53,0,0,1,115,47.57Z" fill="#fff"/>
              <path d="M240.12,123a1.32,1.32,0,1,1,1.66.85A1.31,1.31,0,0,1,240.12,123Z" fill="#fff"/>
              <path d="M286.68,182.75a1.32,1.32,0,1,1,2.51-.81,1.32,1.32,0,1,1-2.51.81Z" fill="#fff"/>
              <path d="M220.39,33.9a1.31,1.31,0,0,1,.85-1.66,1.32,1.32,0,1,1,.81,2.51A1.3,1.3,0,0,1,220.39,33.9Z" fill="#fff"/>
              <path d="M304.73,115.61a1.3,1.3,0,0,1,.85-1.66,1.32,1.32,0,1,1-.85,1.66Z" fill="#fff"/>
              <path d="M202.82,120.88a1.31,1.31,0,0,1,.85-1.66,1.32,1.32,0,1,1-.85,1.66Z" fill="#fff"/>
              <path d="M184.27,309.74a1.32,1.32,0,1,1,.56,1.78A1.32,1.32,0,0,1,184.27,309.74Z" fill="#fff"/>
              <path d="M234.06,233.25a1.32,1.32,0,1,1,.55,1.78A1.31,1.31,0,0,1,234.06,233.25Z" fill="#fff"/>
              <path d="M302.6,216.36a1.32,1.32,0,1,1,2.33,1.23,1.32,1.32,0,1,1-2.33-1.23Z" fill="#fff"/>
              <path d="M123,96.69a1.31,1.31,0,0,1,.85-1.66,1.32,1.32,0,1,1,.81,2.51A1.3,1.3,0,0,1,123,96.69Z" fill="#fff"/>
              <path d="M197.28,84a1.32,1.32,0,0,1,2.51-.81,1.32,1.32,0,0,1-2.51.81Z" fill="#fff"/>
              <path d="M180.54,252.75a1.32,1.32,0,1,1,2.33,1.22,1.32,1.32,0,1,1-2.33-1.22Z" fill="#fff"/>
              <path d="M185.48,190.05a1.32,1.32,0,1,1,2.34,1.22,1.33,1.33,0,0,1-1.78.56A1.32,1.32,0,0,1,185.48,190.05Z" fill="#fff"/>
              <path d="M71,219.54a1.32,1.32,0,1,1,.56,1.78A1.32,1.32,0,0,1,71,219.54Z" fill="#fff"/>
              <path d="M112.7,59.82a1.32,1.32,0,1,1,.85-1.66A1.32,1.32,0,0,1,112.7,59.82Z" fill="#fff"/>
              <path d="M303.43,72.07a1.32,1.32,0,1,1,1.78-.56A1.32,1.32,0,0,1,303.43,72.07Z" fill="#fff"/>
              <path d="M275.3,96.67a1.32,1.32,0,0,1,1.23-2.34,1.32,1.32,0,1,1-1.23,2.34Z" fill="#fff"/>
              <path d="M321.24,128.12a1.32,1.32,0,1,1,1.79-.56A1.32,1.32,0,0,1,321.24,128.12Z" fill="#fff"/>
              <path d="M230.11,253.92a1.32,1.32,0,1,1,1.22-2.34,1.31,1.31,0,0,1,.56,1.78A1.33,1.33,0,0,1,230.11,253.92Z" fill="#fff"/>
              <path d="M213.23,185.37a1.32,1.32,0,1,1,1.78-.55A1.32,1.32,0,0,1,213.23,185.37Z" fill="#fff"/>
              <path d="M280.64,65.78a2.87,2.87,0,1,1,3.62,1.85A2.86,2.86,0,0,1,280.64,65.78Z" fill="#fff"/>
              <path d="M334.61,151.68a3.13,3.13,0,1,1,3.94,2A3.13,3.13,0,0,1,334.61,151.68Z" fill="#fff"/>
              <path d="M115,47.57a3.54,3.54,0,1,1,4.45,2.28A3.53,3.53,0,0,1,115,47.57Z" fill="#fff"/>
              <path d="M240.12,123a1.32,1.32,0,1,1,1.66.85A1.31,1.31,0,0,1,240.12,123Z" fill="#fff"/>
              <path d="M286.68,182.75a1.32,1.32,0,1,1,2.51-.81,1.32,1.32,0,1,1-2.51.81Z" fill="#fff"/>
              <path d="M220.39,33.9a1.31,1.31,0,0,1,.85-1.66,1.32,1.32,0,1,1,.81,2.51A1.3,1.3,0,0,1,220.39,33.9Z" fill="#fff"/>
              <path d="M304.73,115.61a1.3,1.3,0,0,1,.85-1.66,1.32,1.32,0,1,1-.85,1.66Z" fill="#fff"/>
              <path d="M234.06,233.25a1.32,1.32,0,1,1,.55,1.78A1.31,1.31,0,0,1,234.06,233.25Z" fill="#fff"/>
              <path d="M123,96.69a1.31,1.31,0,0,1,.85-1.66,1.32,1.32,0,1,1,.81,2.51A1.3,1.3,0,0,1,123,96.69Z" fill="#fff"/>
              <path d="M197.28,84a1.32,1.32,0,0,1,2.51-.81,1.32,1.32,0,0,1-2.51.81Z" fill="#fff"/>
              <path d="M185.48,190.05a1.32,1.32,0,1,1,2.34,1.22,1.33,1.33,0,0,1-1.78.56A1.32,1.32,0,0,1,185.48,190.05Z" fill="#fff"/>
              <path d="M71,219.54a1.32,1.32,0,1,1,.56,1.78A1.32,1.32,0,0,1,71,219.54Z" fill="#fff"/>
              <path d="M303.43,72.07a1.32,1.32,0,1,1,1.78-.56A1.32,1.32,0,0,1,303.43,72.07Z" fill="#fff"/>
              <path d="M275.3,96.67a1.32,1.32,0,0,1,1.23-2.34,1.32,1.32,0,1,1-1.23,2.34Z" fill="#fff"/>
              <path d="M249,61.61a1.32,1.32,0,1,1,1.78-.55A1.31,1.31,0,0,1,249,61.61Z" fill="#fff"/>
              <path d="M321.24,128.12a1.32,1.32,0,1,1,1.79-.56A1.32,1.32,0,0,1,321.24,128.12Z" fill="#fff"/>
              <path d="M259,171.67a1.32,1.32,0,1,1,1.78-.55A1.31,1.31,0,0,1,259,171.67Z" fill="#fff"/>
              <path d="M230.11,253.92a1.32,1.32,0,1,1,1.22-2.34,1.31,1.31,0,0,1,.56,1.78A1.33,1.33,0,0,1,230.11,253.92Z" fill="#fff"/>
              <path d="M213.23,185.37a1.32,1.32,0,1,1,1.78-.55A1.32,1.32,0,0,1,213.23,185.37Z" fill="#fff"/>
              <path d="M295.26,253.77a2.87,2.87,0,1,1-1.85,3.61A2.87,2.87,0,0,1,295.26,253.77Z" fill="#fff"/>
              <path d="M268.76,125.2a3.54,3.54,0,1,1-2.28,4.46A3.54,3.54,0,0,1,268.76,125.2Z" fill="#fff"/>
              <path d="M40.44,246.76a1.32,1.32,0,1,1-.85,1.66A1.31,1.31,0,0,1,40.44,246.76Z" fill="#fff"/>
              <path d="M25.93,177.24a1.32,1.32,0,0,1,.81,2.51,1.32,1.32,0,1,1-.81-2.51Z" fill="#fff"/>
              <path d="M83.09,244.24a1.31,1.31,0,0,1,.56,1.78,1.33,1.33,0,0,1-1.78.56,1.32,1.32,0,0,1,1.22-2.34Z" fill="#fff"/>
              <path d="M232.32,207.46a1.32,1.32,0,1,1-.85,1.66A1.32,1.32,0,0,1,232.32,207.46Z" fill="#fff"/>
              <path d="M63.59,190.72a1.32,1.32,0,1,1-1.78.56A1.32,1.32,0,0,1,63.59,190.72Z" fill="#fff"/>
              <path d="M307.31,155.09a1.31,1.31,0,0,1,.85-1.66,1.32,1.32,0,1,1-.85,1.66Z" fill="#fff"/>
              <path d="M280.39,37.77a1.31,1.31,0,0,1,.85-1.66,1.32,1.32,0,1,1,.81,2.51A1.31,1.31,0,0,1,280.39,37.77Z" fill="#fff"/>
              <path d="M258.37,115.48a1.32,1.32,0,1,1,1.67.85A1.33,1.33,0,0,1,258.37,115.48Z" fill="#fff"/>
              <path d="M294.06,237.12a1.32,1.32,0,1,1,.55,1.78A1.31,1.31,0,0,1,294.06,237.12Z" fill="#fff"/>
              <path d="M219.67,285.49a1.32,1.32,0,1,1,.55,1.78A1.31,1.31,0,0,1,219.67,285.49Z" fill="#fff"/>
              <path d="M229.57,160.3a1.32,1.32,0,0,1,2.51-.81,1.32,1.32,0,0,1-2.51.81Z" fill="#fff"/>
              <path d="M163.27,11.45a1.32,1.32,0,1,1,1.67.85A1.33,1.33,0,0,1,163.27,11.45Z" fill="#fff"/>
              <path d="M115.21,280a1.32,1.32,0,1,1,1.85.25A1.32,1.32,0,0,1,115.21,280Z" fill="#fff"/>
              <path d="M245.48,193.92a1.32,1.32,0,1,1,.56,1.78A1.33,1.33,0,0,1,245.48,193.92Z" fill="#fff"/>
              <path d="M126,27.65a1.32,1.32,0,1,1,1.66.85A1.32,1.32,0,0,1,126,27.65Z" fill="#fff"/>
            </g>
            <g>
              <path d="M132.86,277v16.89a2.06,2.06,0,0,1-2.15,1.92h0a2,2,0,0,1-2.12-1.92V277ZM64,277v16.89a2.06,2.06,0,0,1-2.15,1.92h0a2,2,0,0,1-2.12-1.92V277Zm61.35,0v14.74a1.64,1.64,0,0,1-1.71,1.54h0a1.63,1.63,0,0,1-1.68-1.54V277Zm-54.72,0v14.74a1.65,1.65,0,0,1-1.71,1.54h0a1.63,1.63,0,0,1-1.68-1.54V277Z" fill="#4a0968" fill-rule="evenodd"/>
              <rect x="59.66" y="265.08" width="73.27" height="4.8" fill="#4a0968"/>
              <rect x="59.66" y="259.38" width="73.27" height="4.8" fill="#4a0968"/>
              <rect x="59.66" y="253.65" width="73.27" height="4.8" fill="#4a0968"/>
              <path d="M63.39,247.51H129.2a3.74,3.74,0,0,1,3.73,3.73v1.51H59.66v-1.51a3.74,3.74,0,0,1,3.73-3.73Z" fill="#4a0968" fill-rule="evenodd"/>
              <path d="M55.73,277.25h81.12a1.75,1.75,0,0,0,1.76-1.76v-2.92a1.75,1.75,0,0,0-1.76-1.76H55.73A1.77,1.77,0,0,0,54,272.57v2.92a1.77,1.77,0,0,0,1.78,1.76Z" fill="#4a0968" fill-rule="evenodd"/>
              <rect x="121.96" y="290.03" width="3.4" height="4.35" fill="#4a0968"/>
              <rect x="128.59" y="290.59" width="4.27" height="5.97" fill="#4a0968"/>
            </g>
            <g>
              <path d="M100.86,257.09c-17-5.77-38,11.8-42,13.57h63S108.85,262.19,100.86,257.09Z" fill="#9957bc"/>
              <path d="M124.5,264.66c-7.5-2.54-16.78,5.22-18.58,6h27.85S128,266.92,124.5,264.66Z" fill="#9957bc"/>
            </g>
          </g>
        </g>
        <path d="M84.7,288.84c-18.13-6.16-40.57,12.6-44.91,14.5h67.32S93.22,294.28,84.7,288.84Z" fill="#fff"/>
        <path d="M313.79,285.17c-8.3-2.47-21.69-8.52-30.31-4.2s-9.12,3.42-11.78,1.46-27.73-14.22-37.89-7.1-26.73,19-26.73,19H332.9S322.1,287.65,313.79,285.17Z" fill="#fff"/>
      </g>
      <g clip-path="url(#d33fc199-8d33-4fb4-bc1f-75cc13d45c2d)">
        <g>
          <rect id="a511a5ad-00ec-4f6e-afdf-2c716efb2ab0" data-name="&lt;Path&gt;" x="331.54" y="-1.15" width="454.86" height="341.15" fill="#00d159"/>
          <rect id="d070a5f8-b099-4fa8-9afb-758325e39b94" data-name="&lt;Path&gt;" x="331.54" y="199.52" width="454.86" height="85.2" fill="#00b956"/>
          <path id="01748bbb-bcc9-47c2-bff5-dc18f02c721b" data-name="&lt;Path&gt;" d="M331.85,151.75c0-.32,0-.65,0-1C331.83,151.39,331.85,151.75,331.85,151.75Z" fill="#93895d"/>
          <path id="9c1335a4-1963-449e-800f-1f8efc3aca1a" data-name="&lt;Path&gt;" d="M377.12,161c5.6-8.53,3.94-14.22,3.94-14.22-3.1,2.58-7.51,11.29-7.51,11.29a29.34,29.34,0,0,0,2.74-15c-6,4.44-11,12.53-11,12.53a85.19,85.19,0,0,0,2.5-17.77,29,29,0,0,0-5.36,8.26c1.91-10.12,1.31-10.92,1.31-10.92-5.24,5.06-11.08,18.56-11.08,18.56,1-5.77,0-17.76,0-17.76-3.78,4.8-5.39,12.62-5.89,15.63-.05.43-.11.84-.18,1.24,0,0,.05-.46.18-1.24a69.58,69.58,0,0,0-.18-13.86c-6,7.2-7.15,20.17-7.15,20.17.48-7.11-3.93-20.17-3.93-20.17-3.6,6.89-3.79,15.2-3.73,18,0,.34,0,.68,0,1,0,0,0-.36,0-1a23.73,23.73,0,0,0-.28-2.37v18.39C344.54,170.65,372.83,167.52,377.12,161Z" fill="#00e55c"/>
          <path id="6af9e49a-54ac-4736-8fa0-43ce4261e0eb" data-name="&lt;Path&gt;" d="M374.5,170.85c7-11.19,6.56-16.88,6.56-16.88a26.8,26.8,0,0,0-3,2.74,14.06,14.06,0,0,0,.18-6.38,41.73,41.73,0,0,0-7.34,6.64,34,34,0,0,0,.66-18.19,26.39,26.39,0,0,0-7.29,10.75,5.14,5.14,0,0,0-.81-2.13c-4,4.54-6.2,11.1-7.15,14.61a57.9,57.9,0,0,0,0-23.68C353,141.74,350,150,348.2,156.26a36,36,0,0,0-.58-11.71,28,28,0,0,0-5.83,12.78,109.32,109.32,0,0,0-1.12-19c-2.3,4.21-3.6,11.39-4.33,17.7a102,102,0,0,0-.91-10.68c-1.84,1.81-3,4.82-3.78,8,0-.62-.07-1.23-.11-1.84V174C343.62,176.08,369.18,179.33,374.5,170.85Z" fill="#00b956"/>
          <path id="3117ed6f-6c6a-4ab7-b862-371f77497bcc" data-name="&lt;Path&gt;" d="M381.11,182.39v-15a1.53,1.53,0,0,0-1.52-1.53h-48v18h48A1.52,1.52,0,0,0,381.11,182.39Z" fill="#0aa549"/>
          <rect id="e11c50d2-9ece-40e5-9a40-d5d45accaf0d" data-name="&lt;Path&gt;" x="331.54" y="182.93" width="53.3" height="127.35" fill="#049e45"/>
          <polygon id="21d2cf65-c254-4169-b6ab-8c8ac23c2b06" data-name="&lt;Path&gt;" points="384.85 182.93 331.54 182.93 331.54 195.13 384.85 190.86 384.85 182.93" fill="#42210b" opacity="0.11"/>
          <path id="f9770cb1-146a-4d6d-a698-6ba2288660f2" data-name="&lt;Path&gt;" d="M389.38,182.93a4.45,4.45,0,0,0-4.46-4.41H331.54v8.83h53.38A4.46,4.46,0,0,0,389.38,182.93Z" fill="#049e45"/>
        </g>
      </g>
    </g>
  </g>
</svg>
