<svg xmlns="http://www.w3.org/2000/svg" width="60.4" height="42.7"><g fill="#00B956"><path d="M39.6 21.3c-1 0-1.7-.8-1.7-1.7 0-1 .8-1.7 1.7-1.7 1 0 1.7.8 1.7 1.7 0 1-.7 1.7-1.7 1.7m-4 0c-1 0-1.7-.8-1.7-1.7 0-1 .8-1.7 1.7-1.7 1 0 1.7.8 1.7 1.7 0 1-.8 1.7-1.7 1.7m-4.1 0c-1 0-1.7-.8-1.7-1.7 0-1 .8-1.7 1.7-1.7 1 0 1.7.8 1.7 1.7 0 1-.7 1.7-1.7 1.7M31.8.1v14.2c0 .6-.5 1.1-1.1 1.1H29c-.1 0-.2.1-.2.2v11.9c.4 0 .8.1 1.3.1 7.6 0 13.8-6.2 13.8-13.8 0-7-5.3-12.9-12.1-13.7"/><path d="M27.4 11.4c-1 0-1.7-.8-1.7-1.7 0-1 .8-1.7 1.7-1.7 1 0 1.7.8 1.7 1.7.1.9-.7 1.7-1.7 1.7M30.1 0c-7.6 0-13.8 6.2-13.8 13.8 0 6.6 4.7 12.2 10.9 13.5V14.9c0-.6.5-1.1 1.1-1.1H30c.1 0 .1-.1.2-.1L30.1 0zM58.7 35.7v2.6h-3.5v-2.6h-1.8v6.9h1.8v-2.8h3.5v2.8h1.7v-6.9zM27.3 39.8l1.1-2.5c0-.1.1-.1.1-.1s.1 0 .1.1l1.1 2.5h-2.4zm2.7-3.3c-.3-.6-.9-.9-1.4-.9-.6 0-1.1.3-1.4.9l-2.8 6.1h1.8l.6-1.5h3.6l.6 1.5h1.8L30 36.5zM9.4 34.5c-.8 0-1.3.4-1.7 1.3L5.5 41l-2.2-5.2c-.4-.9-.9-1.3-1.7-1.3-.8 0-1.6.5-1.6 1.7v6.4h1.7v-6.2L4 41.5c.3.7.8 1.2 1.5 1.2s1.2-.5 1.5-1.2l2.3-5.1v6.2H11v-6.4c0-1.2-.8-1.7-1.6-1.7M14 41.2c-.1 0-.1-.1-.1-.1v-1.2h4.3v-1.4h-4.3v-1c0-.1.1-.1.1-.1h4.3v-1.5h-5.1c-.6 0-1 .5-1 1v4.8c0 .5.4 1 1 1h5.1v-1.5H14zM21.2 42.6v-5.3c0-.1.1-.1.1-.1h4.3v-1.5h-5.1c-.6 0-1 .5-1 1v5.9h1.7zM48.6 41.3H48c-1.4 0-2-.6-2-2.1 0-1.4.5-2.1 2-2.1h.6c1.5 0 2 .7 2 2.1 0 1.4-.5 2.1-2 2.1m3.7-2.1c0-2.4-1-3.5-3.6-3.5h-.6c-2.6 0-3.6 1.1-3.6 3.5s1.1 3.5 3.7 3.5h.6c2.5 0 3.5-1.2 3.5-3.5zM41.4 39.2c-.3.7-.7 1.1-1.8 1.1h-.8v-4.2h1.1c1 0 1.7.6 1.7 2.1-.1.4-.1.7-.2 1M37 40.3h-.8c-1.2 0-1.6-.4-1.8-1.1-.1-.3-.1-.6-.1-1 0-1.5.7-2.1 1.7-2.1h1v4.2zm2.6-5.6h-3.4c-2.5 0-3.6 1.3-3.6 3.5 0 .4 0 .7.1 1 .3 1.6 1.2 2.6 3.6 2.6h.7v.9h1.7v-.9h.8c2.4 0 3.3-1 3.6-2.6.1-.3.1-.6.1-1 0-2.3-1.1-3.5-3.6-3.5"/></g></svg>