<svg xmlns="http://www.w3.org/2000/svg" xmlns:xlink="http://www.w3.org/1999/xlink" width="700" height="700" viewBox="0 0 700 700">
  <defs>
    <clipPath id="d5f8eccc-29d6-41f7-9d4e-44e45b2484f9">
      <circle cx="345.08" cy="347.69" r="280.33" fill="none"/>
    </clipPath>
    <clipPath id="7fe47a44-7b2d-4ad1-9dae-277a0d6687d5">
      <rect x="-285.27" y="54.07" width="346.48" height="330.6" fill="none"/>
    </clipPath>
    <linearGradient id="087a4abd-4e7a-4c52-be07-6229473ded29" x1="-110.41" y1="83.78" x2="-110.41" y2="1031.03" gradientUnits="userSpaceOnUse">
      <stop offset="0" stop-color="#fff"/>
      <stop offset="1" stop-color="#fff" stop-opacity="0"/>
    </linearGradient>
    <linearGradient id="eb0f883d-2447-4dd7-90ea-f3f9763e6403" x1="742.43" y1="74.55" x2="742.43" y2="1078.97" xlink:href="#087a4abd-4e7a-4c52-be07-6229473ded29"/>
    <symbol id="b6004209-f31f-4f8c-9870-bffdf1279198" data-name="New Symbol 23" viewBox="0 0 3.26 4.72">
      <path d="M1.63,4.72h0A1.63,1.63,0,0,1,0,3.09V1.63A1.63,1.63,0,0,1,1.63,0h0A1.63,1.63,0,0,1,3.26,1.63V3.09A1.63,1.63,0,0,1,1.63,4.72Z" fill="#67413a"/>
    </symbol>
    <symbol id="de430284-41f6-4a72-8239-80d0f054b9a1" data-name="New Symbol 32" viewBox="0 0 3.79 1.46">
      <path d="M.25,1.2,0,.18A5.87,5.87,0,0,1,3.79.49l-.42,1A4.9,4.9,0,0,0,.25,1.2Z" fill="#b0593c"/>
    </symbol>
  </defs>
  <title>oleg-3</title>
  <g id="8c22a443-4b90-4b79-b104-243ec1e882af" data-name="back6">
    <rect y="-4.8" width="701.05" height="703.44" fill="#f4e6bb"/>
  </g>
  <g id="a6e59138-6cc7-4ffd-abcd-636581e8ad05" data-name="img6">
    <circle cx="344.98" cy="347.42" r="279.44" fill="#e5bf61"/>
  </g>
  <g id="dd4c7056-1f5f-434d-8165-a290d6853340" data-name="bck3">
    <rect x="-0.7" y="-1.06" width="708.3" height="703.09" fill="#aef2cc"/>
    <g clip-path="url(#d5f8eccc-29d6-41f7-9d4e-44e45b2484f9)">
      <g>
        <g>
          <rect id="17ecec56-98d1-4209-b0e2-7d5fc2b3ba0b" data-name="&lt;Path&gt;" x="-487.23" y="62.27" width="1306.72" height="563.87" fill="#00d159"/>
          <rect id="c6a059b9-7814-4115-b3da-dbe4483e9ebc" data-name="&lt;Path&gt;" x="-283.86" y="62.27" width="345.07" height="322.4" fill="#00e55c"/>
          <g opacity="0.43">
            <g clip-path="url(#7fe47a44-7b2d-4ad1-9dae-277a0d6687d5)">
              <g>
                <path d="M99.21,272.51a5.29,5.29,0,1,1-3.41,6.66A5.29,5.29,0,0,1,99.21,272.51Z" fill="#fff"/>
                <path d="M30.78,106.82a5.29,5.29,0,1,1-3.41,6.66A5.29,5.29,0,0,1,30.78,106.82Z" fill="#fff"/>
                <path d="M197.37,406.92a2.23,2.23,0,1,1-1.43,2.8A2.23,2.23,0,0,1,197.37,406.92Z" fill="#fff"/>
                <path d="M30.38,192.37a2.23,2.23,0,1,1-3,.94A2.23,2.23,0,0,1,30.38,192.37Z" fill="#fff"/>
                <path d="M27.34,36.11a2.23,2.23,0,1,1-3,.94A2.23,2.23,0,0,1,27.34,36.11Z" fill="#fff"/>
                <path d="M156.55,120.21a2.23,2.23,0,1,1-3,.94A2.22,2.22,0,0,1,156.55,120.21Z" fill="#fff"/>
                <path d="M135.23,42.54a2.22,2.22,0,1,1-3,.94A2.23,2.23,0,0,1,135.23,42.54Z" fill="#fff"/>
                <path d="M145,343.24a2.23,2.23,0,1,1,.94,3A2.23,2.23,0,0,1,145,343.24Z" fill="#fff"/>
                <path d="M77.17,311.36a2.23,2.23,0,1,1,1,3A2.23,2.23,0,0,1,77.17,311.36Z" fill="#fff"/>
                <path d="M14.83,345.9a4.85,4.85,0,1,1-6.11-3.13A4.85,4.85,0,0,1,14.83,345.9Z" fill="#fff"/>
                <path d="M152.18,440.81a5.29,5.29,0,1,1-6.66-3.41A5.3,5.3,0,0,1,152.18,440.81Z" fill="#fff"/>
                <path d="M83.27,249.23a2.23,2.23,0,1,1-2.8-1.44A2.22,2.22,0,0,1,83.27,249.23Z" fill="#fff"/>
                <path d="M4.62,148.32a2.23,2.23,0,1,1-2.8-1.44A2.22,2.22,0,0,1,4.62,148.32Z" fill="#fff"/>
                <path d="M116.61,399.74a2.23,2.23,0,1,1-4.24,1.37,2.23,2.23,0,0,1,4.24-1.37Z" fill="#fff"/>
                <path d="M146.29,252.83a2.23,2.23,0,1,1-2.81-1.44A2.23,2.23,0,0,1,146.29,252.83Z" fill="#fff"/>
                <path d="M93.52,63a2.23,2.23,0,1,1-.94-3A2.23,2.23,0,0,1,93.52,63Z" fill="#fff"/>
                <path d="M155.64,315.09a2.23,2.23,0,1,1-2.81-1.43A2.23,2.23,0,0,1,155.64,315.09Z" fill="#fff"/>
                <path d="M183.92,30.09a2.23,2.23,0,1,1-.94-3A2.23,2.23,0,0,1,183.92,30.09Z" fill="#fff"/>
                <path d="M175.56,136a2.23,2.23,0,1,1-.94-3A2.22,2.22,0,0,1,175.56,136Z" fill="#fff"/>
                <path d="M23.84,293.72a2.23,2.23,0,1,1-3,.94A2.23,2.23,0,0,1,23.84,293.72Z" fill="#fff"/>
                <path d="M100.18,28.12a2.22,2.22,0,1,1-3,.94A2.22,2.22,0,0,1,100.18,28.12Z" fill="#fff"/>
                <path d="M128.7,143.89a2.23,2.23,0,1,1-3,.94A2.22,2.22,0,0,1,128.7,143.89Z" fill="#fff"/>
                <path d="M14.83,345.9a4.85,4.85,0,1,1-6.11-3.13A4.85,4.85,0,0,1,14.83,345.9Z" fill="#fff"/>
                <path d="M83.27,249.23a2.22,2.22,0,1,1-2.8-1.44A2.22,2.22,0,0,1,83.27,249.23Z" fill="#fff"/>
                <path d="M4.62,148.32a2.23,2.23,0,1,1-2.8-1.44A2.22,2.22,0,0,1,4.62,148.32Z" fill="#fff"/>
                <path d="M116.61,399.74a2.23,2.23,0,1,1-4.24,1.37,2.23,2.23,0,0,1,4.24-1.37Z" fill="#fff"/>
                <path d="M93.52,63a2.23,2.23,0,1,1-.94-3A2.23,2.23,0,0,1,93.52,63Z" fill="#fff"/>
                <path d="M155.64,315.09a2.23,2.23,0,1,1-2.81-1.43A2.23,2.23,0,0,1,155.64,315.09Z" fill="#fff"/>
                <path d="M175.56,136a2.23,2.23,0,1,1-.94-3A2.22,2.22,0,0,1,175.56,136Z" fill="#fff"/>
                <path d="M23.84,293.72a2.23,2.23,0,1,1-3,.94A2.23,2.23,0,0,1,23.84,293.72Z" fill="#fff"/>
                <path d="M68.33,352.93a2.23,2.23,0,1,1-3,.94A2.23,2.23,0,0,1,68.33,352.93Z" fill="#fff"/>
                <path d="M51.36,167a2.23,2.23,0,1,1-3,.94A2.23,2.23,0,0,1,51.36,167Z" fill="#fff"/>
                <path d="M100.18,28.12a2.22,2.22,0,1,1-3,.94A2.22,2.22,0,0,1,100.18,28.12Z" fill="#fff"/>
                <path d="M128.7,143.89a2.23,2.23,0,1,1-3,.94A2.22,2.22,0,0,1,128.7,143.89Z" fill="#fff"/>
                <path d="M34.89,245.53A6,6,0,1,1,38.74,238,6,6,0,0,1,34.89,245.53Z" fill="#fff"/>
                <path d="M96.45,106.58a2.23,2.23,0,1,1,1.43-2.8A2.23,2.23,0,0,1,96.45,106.58Z" fill="#fff"/>
                <path d="M15.26,393.2a2.23,2.23,0,1,1-2.81-1.43A2.23,2.23,0,0,1,15.26,393.2Z" fill="#fff"/>
                <path d="M52.44,262a2.23,2.23,0,1,1-2.81-1.43A2.23,2.23,0,0,1,52.44,262Z" fill="#fff"/>
                <path d="M82.6,460.13a2.23,2.23,0,1,1-2.81-1.43A2.24,2.24,0,0,1,82.6,460.13Z" fill="#fff"/>
                <path d="M101.09,186.24a2.23,2.23,0,1,1-2.81-1.44A2.22,2.22,0,0,1,101.09,186.24Z" fill="#fff"/>
                <path d="M213.07,437.66a2.23,2.23,0,1,1-2.8-1.43A2.23,2.23,0,0,1,213.07,437.66Z" fill="#fff"/>
                <path d="M74.21,129.46a2.23,2.23,0,1,1-.94-3A2.22,2.22,0,0,1,74.21,129.46Z" fill="#fff"/>
                <path d="M15.72,554.19a2.23,2.23,0,1,1-3,.94A2.23,2.23,0,0,1,15.72,554.19Z" fill="#fff"/>
                <path d="M43.09,464.08a2.23,2.23,0,1,1-.94-3A2.22,2.22,0,0,1,43.09,464.08Z" fill="#fff"/>
                <path d="M34.74,570a2.23,2.23,0,1,1-.94-3A2.23,2.23,0,0,1,34.74,570Z" fill="#fff"/>
                <path d="M34.74,570a2.23,2.23,0,1,1-.94-3A2.22,2.22,0,0,1,34.74,570Z" fill="#fff"/>
              </g>
            </g>
          </g>
          <rect id="532c83bb-a59a-42c8-88fb-43fafefaa99d" data-name="&lt;Path&gt;" x="-270.84" y="71.03" width="319.05" height="10.18" rx="2.2" ry="2.2" fill="#00b956"/>
          <rect id="8b45df12-c6c1-4eeb-8cf7-68c6e5b957cd" data-name="&lt;Path&gt;" x="56.15" y="62.27" width="10.18" height="331.19" fill="#049e45"/>
          <rect id="49733cc8-e7e1-4175-a305-7f3e680a4341" data-name="&lt;Path&gt;" x="-270.84" y="87.63" width="319.05" height="10.18" rx="2.2" ry="2.2" fill="#00b956"/>
          <rect id="4d950236-0152-4e08-96c7-4dd796d528be" data-name="&lt;Path&gt;" x="-270.84" y="103.19" width="319.05" height="10.18" rx="2.2" ry="2.2" fill="#00b956"/>
          <rect id="a64d5db9-fc70-4bc8-bff5-b6b59801cf58" data-name="&lt;Path&gt;" x="-270.84" y="118.76" width="319.05" height="10.18" rx="2.2" ry="2.2" fill="#00b956"/>
          <rect id="8f22e580-c3ea-4998-8b29-7218028a64a0" data-name="&lt;Path&gt;" x="-270.84" y="134.32" width="319.05" height="10.18" rx="2.2" ry="2.2" fill="#00b956"/>
          <rect id="8e6884d0-e3db-4caf-a921-9b3ee484f92a" data-name="&lt;Path&gt;" x="-270.84" y="149.89" width="319.05" height="10.18" rx="2.2" ry="2.2" fill="#00b956"/>
          <rect id="fafb60da-7f21-47ce-b448-894d54ec1a15" data-name="&lt;Path&gt;" x="-487.23" y="393.94" width="892.58" height="140.83" fill="#00b956"/>
          <path id="4ca38bfd-951a-45a7-8e40-0d5aa3a68cb0" data-name="&lt;Path&gt;" d="M395.07,385.55H-410.47c-5.66,0-10.28,3.56-10.28,7.91s4.62,7.92,10.28,7.92H395.07c5.65,0,10.28-3.57,10.28-7.92S400.72,385.55,395.07,385.55Z" fill="#049e45"/>
          <path id="6ef927dc-c010-40b4-b95d-06c186e73e4c" data-name="&lt;Path&gt;" d="M240.44,308.52s-.09-.76-.3-2C240.22,307.17,240.33,307.86,240.44,308.52Z" fill="#93895d"/>
          <path id="84f90dbc-6500-4a00-a2bf-7afcc4088b87" data-name="&lt;Path&gt;" d="M252.26,327.47s.18-2.25.14-5.71A36.12,36.12,0,0,0,252.26,327.47Z" fill="#93895d"/>
          <path id="54ec27e9-7901-40ba-812d-72a87a1e11a7" data-name="&lt;Path&gt;" d="M230.4,320.56s0-1.31-.16-3.41A18.09,18.09,0,0,0,230.4,320.56Z" fill="#93895d"/>
          <path id="615e83f8-6dd4-482b-a3ab-be60d9f3f27e" data-name="&lt;Path&gt;" d="M240.07,316.36c-.15-2.33.43-6.61.82-11.41A43.19,43.19,0,0,0,240.07,316.36Z" fill="#93895d"/>
          <path id="63e46405-0545-4949-94f0-edb9394af891" data-name="&lt;Path&gt;" d="M252.4,321.76c0,3.46-.14,5.71-.14,5.71a36.12,36.12,0,0,1,.14-5.71c-.08-7.75-1.26-21.6-8.07-29.83a95.23,95.23,0,0,0-3.44,13c-.39,4.8-1,9.08-.82,11.41,0,.23,0,.46.07.68.21,1.29.3,2.06.3,2.06-.11-.67-.22-1.35-.3-2.06a4.45,4.45,0,0,1-.07-.68,43.19,43.19,0,0,1,.82-11.41c.58-7.26.69-15.68-2.92-20.26,0,0-7.37,21.21-7.73,32.46.14,2.1.16,3.41.16,3.41a18.09,18.09,0,0,1-.16-3.41c-.47-7-2.25-23-8.92-29.45,0,0-2.67,8.39-2.76,22.73,0,0-7.85-11-13.17-16.15,0,0,.4,16,4.14,29.37,0,0-6.6-15.13-16.45-22.47,0,0-3.24,14.1,2.86,26.58,0,0-7.28-14.39-12.4-18.65,0,0-2.76,9.4,6.49,23.5,7,10.67,52.74,15.83,74.56,17.72V315.64c-.57-6.18-1.67-15.78-5.43-23C259.16,292.66,253.54,309.53,252.4,321.76Z" fill="#00e55c"/>
          <path id="98903e09-378e-4066-9413-16b53a3e8c10" data-name="&lt;Path&gt;" d="M257.45,324.42c-1.21-10.43-3.36-22.31-7.16-29.26a179.48,179.48,0,0,0-1.85,31.4c-1-5.64-2-18.94-8.15-26.7,0,0-3.7,14.4-2.44,24.93-3-10.29-7.9-24-13.36-29.63a95.46,95.46,0,0,0,0,39.13c-1.58-5.8-3.45-23.5-10.08-31,0,0-2.57,7.87-3.08,10.4-2.39-6.27-1.49-14.88-7.4-20,0,0-8.71,15.77-3.56,32.27-2.79-3.29-4.79-10.66-10.25-14.65,0,0-3,7.72-1.59,14.23-1.44-1.51-4.85-2.16-6.78-3.65,0,0,1,8.51,12.6,27,8.68,13.84,49.95,8.79,70.22,5.36V317.73c-1.25-4.42-2-11.65-4.55-14.2A147.49,147.49,0,0,0,257.45,324.42Z" fill="#00b956"/>
          <path id="aba28363-8ad8-493c-8420-77309ddd1163" data-name="&lt;Path&gt;" d="M183.44,340.86v24.76a2.54,2.54,0,0,0,2.52,2.53h78.63V338.33H186A2.54,2.54,0,0,0,183.44,340.86Z" fill="#0aa549"/>
          <rect id="13807eb0-eace-47c9-9468-01ae74dcb8f0" data-name="&lt;Path&gt;" x="177.27" y="366.53" width="121.93" height="210.49" fill="#049e45"/>
          <polygon id="4f1dfe7f-e19c-4517-9630-ba2c2f439707" data-name="&lt;Path&gt;" points="177.27 366.52 177.27 379.63 299.2 386.62 299.2 366.52 177.27 366.52" fill="#42210b" opacity="0.11"/>
          <path id="0bd8ef8d-30e3-4fc7-8f95-8e03ff7ac4bd" data-name="&lt;Path&gt;" d="M172.91,366.53a7.93,7.93,0,0,0,8,7.8h86.76V358.72H180.91A7.93,7.93,0,0,0,172.91,366.53Z" fill="#049e45"/>
          <path id="53195935-16e2-4257-9302-e0c11dbab762" data-name="&lt;Path&gt;" d="M14.34,301.5a2,2,0,0,0-.19.84C14.23,302.06,14.28,301.78,14.34,301.5Z" fill="#3d2405" opacity="0.1"/>
          <path id="0ad0140a-3f5a-4915-9d99-c8ac32808eff" data-name="&lt;Path&gt;" d="M58,268.39c-.12.7.18-.68,0,0Z" fill="#c58375"/>
          <polygon id="a6d72b67-14e7-4787-a1bd-1a03dd2ecb27" data-name="&lt;Path&gt;" points="14.34 443.81 14.35 443.81 14.36 443.81 14.34 443.81 14.34 443.81" fill="#9b8878"/>
          <rect x="116" y="99.48" width="97.11" height="164.09" fill="#00e55c"/>
          <path d="M217.21,267.68H111.9V95.38H217.21Zm-97.11-8.21H209V103.58H120.1Z" fill="#00b956"/>
          <rect id="31f28855-b7bb-47e8-bfa1-64db92b25675" data-name="&lt;Path&gt;" x="136.36" y="124.93" width="56.39" height="113.19" fill="#049e45"/>
          <path d="M-32.35,629.76c19.83-.23,39.66,0,59.48.33L-110,83.78l-137.9,549.16C-176.07,633.47-104.21,630.61-32.35,629.76Z" opacity="0.34" fill="url(#087a4abd-4e7a-4c52-be07-6229473ded29)"/>
          <path d="M56,374.76a20,20,0,0,0-6,2.07c-7.19-4.66-16-10.42-22.79-14.74C-1.5,352.34-37,382-43.83,385H56Z" fill="#fff" opacity="0.4"/>
          <path id="16d475a0-a40a-4fcf-bf5e-1daaaf22248d" data-name="&lt;Path&gt;" d="M224.07,321.76c0,3.46.15,5.71.15,5.71a37.44,37.44,0,0,0-.15-5.71c.08-7.75,1.26-21.6,8.07-29.83a96.09,96.09,0,0,1,3.45,13c.38,4.8,1,9.08.82,11.41,0,.23,0,.46-.07.68-.22,1.29-.31,2.06-.31,2.06.12-.67.22-1.35.31-2.06,0-.2,0-.43.07-.68a44.05,44.05,0,0,0-.82-11.41c-.58-7.26-.7-15.68,2.92-20.26,0,0,7.36,21.21,7.73,32.46-.14,2.1-.17,3.41-.17,3.41a18,18,0,0,0,.17-3.41c.46-7,2.24-23,8.91-29.45,0,0,2.68,8.39,2.76,22.73,0,0,7.85-11,13.17-16.15,0,0-.39,16-4.14,29.37,0,0,6.61-15.13,16.45-22.47,0,0,3.25,14.1-2.86,26.58,0,0,7.29-14.39,12.41-18.65,0,0,2.75,9.4-6.5,23.5-7,10.67-52.74,15.83-74.56,17.72V315.64c.58-6.18,1.68-15.78,5.43-23C217.31,292.66,222.94,309.53,224.07,321.76Z" fill="#00e55c"/>
          <path id="2862f1c9-dd00-4360-9503-5eb0a7ee4bb2" data-name="&lt;Path&gt;" d="M219,324.42c1.2-10.43,3.35-22.31,7.15-29.26a179.48,179.48,0,0,1,1.85,31.4c1-5.64,2-18.94,8.15-26.7,0,0,3.7,14.4,2.44,24.93,3.06-10.29,7.9-24,13.36-29.63a95.56,95.56,0,0,1,0,39.13c1.57-5.8,3.44-23.5,10.07-31,0,0,2.57,7.87,3.08,10.4,2.39-6.27,1.49-14.88,7.41-20,0,0,8.7,15.77,3.55,32.27,2.79-3.29,4.8-10.66,10.25-14.65,0,0,3,7.72,1.59,14.23,1.44-1.51,4.86-2.16,6.78-3.65,0,0-1,8.51-12.59,27-8.69,13.84-50,8.79-70.23,5.36V317.73c1.25-4.42,2-11.65,4.55-14.2A148.41,148.41,0,0,1,219,324.42Z" fill="#00b956"/>
          <path id="345e076a-778e-4f91-96e9-ca014b9a080f" data-name="&lt;Path&gt;" d="M293,340.86v24.76a2.53,2.53,0,0,1-2.52,2.53H211.88V338.33h78.63A2.53,2.53,0,0,1,293,340.86Z" fill="#0aa549"/>
          <rect id="1f133391-236a-4582-8990-dfab238fc565" data-name="&lt;Path&gt;" x="211.88" y="394.46" width="87.32" height="182.56" fill="#049e45"/>
          <path id="5b5c6afa-3e87-4bd7-b5ae-e4dabf9caea8" data-name="&lt;Path&gt;" d="M303.56,366.53a7.93,7.93,0,0,1-8,7.8H208.8V358.72h86.76A7.93,7.93,0,0,1,303.56,366.53Z" fill="#049e45"/>
          <rect x="398.17" y="105.2" width="423.23" height="429.56" fill="#049e45"/>
          <rect x="412.53" y="122.64" width="197.87" height="414.18" fill="#00e55c"/>
          <rect x="398.23" y="554.64" width="421.99" height="92.68" fill="#00b956"/>
          <path d="M607,524.49c-3,.49-3.7,1.22-5.66,2.07-7.19-4.66-15.85-10.29-22.61-14.6-28.66-9.75-63.93,20-70.8,23H607Z" fill="#fff" opacity="0.4"/>
          <path d="M413,535h67.22s-21.56-16-37.67-20.15C431.35,512,421,507.64,413,507.51Z" fill="#fff" opacity="0.4"/>
          <text transform="matrix(-1, 0, 0, 1, 562.81, 242.64)" opacity="0.52" font-size="25.22" fill="#fff" font-family="GTWalsheimv2Manual-Black, GTWalsheimv2Manual Black">О<tspan x="17.38" y="0" letter-spacing="-0.04em">Г</tspan><tspan x="27.41" y="0">ОНЁК</tspan></text>
          <rect x="625.35" y="122.64" width="197.87" height="414.18" fill="#00e55c"/>
          <g opacity="0.52">
            <rect x="497" y="260" width="39" height="5" fill="#fff"/>
            <rect x="480" y="260" width="11" height="5" fill="#fff"/>
            <rect x="497" y="270" width="39" height="5" fill="#fff"/>
            <rect x="480" y="270" width="11" height="5" fill="#fff"/>
          </g>
          <path d="M825.19,653.49c21-.25,42,0,63.08.34L742.81,74.55,596.58,656.85C672.8,657.42,749,654.38,825.19,653.49Z" opacity="0.34" fill="url(#eb0f883d-2447-4dd7-90ea-f3f9763e6403)"/>
          <g opacity="0.5">
            <path d="M663.31,147a2.23,2.23,0,1,1-3,.94A2.23,2.23,0,0,1,663.31,147Z" fill="#fff"/>
            <path d="M598.54,167.12a2.23,2.23,0,1,1,.94,3A2.23,2.23,0,0,1,598.54,167.12Z" fill="#fff"/>
            <path d="M550.36,156.07a6,6,0,1,1-7.53-3.85A6,6,0,0,1,550.36,156.07Z" fill="#fff"/>
            <path d="M684.68,269.43a2.23,2.23,0,1,1-4.24,1.37,2.23,2.23,0,0,1,4.24-1.37Z" fill="#fff"/>
            <path d="M554.27,135.39a2.23,2.23,0,1,1-1.44,2.8A2.22,2.22,0,0,1,554.27,135.39Z" fill="#fff"/>
            <path d="M686.87,343a2.23,2.23,0,1,1-3,.94A2.22,2.22,0,0,1,686.87,343Z" fill="#fff"/>
            <path d="M656.78,248.3a2.23,2.23,0,1,1-3,.94A2.23,2.23,0,0,1,656.78,248.3Z" fill="#fff"/>
            <path d="M684.68,269.43a2.23,2.23,0,1,1-4.24,1.37,2.23,2.23,0,0,1,4.24-1.37Z" fill="#fff"/>
            <path d="M686.87,343a2.23,2.23,0,1,1-3,.94A2.22,2.22,0,0,1,686.87,343Z" fill="#fff"/>
            <path d="M656.78,248.3a2.23,2.23,0,1,1-3,.94A2.23,2.23,0,0,1,656.78,248.3Z" fill="#fff"/>
            <path d="M680.32,202.74a2.23,2.23,0,1,1-2.81-1.43A2.24,2.24,0,0,1,680.32,202.74Z" fill="#fff"/>
            <path d="M531.8,189.73a2.23,2.23,0,1,1-2.8-1.43A2.23,2.23,0,0,1,531.8,189.73Z" fill="#fff"/>
            <path d="M434.57,332.33a5.29,5.29,0,1,1-2.3-7.12A5.28,5.28,0,0,1,434.57,332.33Z" fill="#fff"/>
            <path d="M600.12,401.1a5.28,5.28,0,1,1-2.3-7.11A5.28,5.28,0,0,1,600.12,401.1Z" fill="#fff"/>
            <path d="M539.91,340.34a2.23,2.23,0,1,1,1.46-2.8A2.24,2.24,0,0,1,539.91,340.34Z" fill="#fff"/>
            <path d="M652.55,448.67a2.23,2.23,0,1,1,1.47-2.79A2.22,2.22,0,0,1,652.55,448.67Z" fill="#fff"/>
            <path d="M501.73,480.57a2.23,2.23,0,1,1,1.46-2.79A2.22,2.22,0,0,1,501.73,480.57Z" fill="#fff"/>
            <path d="M571.72,520.42a2.23,2.23,0,0,1-1.33-4.25,2.23,2.23,0,0,1,1.33,4.25Z" fill="#fff"/>
            <path d="M422.69,289.29a2.23,2.23,0,1,1-2.8-1.47A2.24,2.24,0,0,1,422.69,289.29Z" fill="#fff"/>
            <path d="M442.35,220.78a4.85,4.85,0,1,1,6.52-2.11A4.85,4.85,0,0,1,442.35,220.78Z" fill="#fff"/>
            <path d="M508,143.06a5.29,5.29,0,1,1,7.12-2.3A5.28,5.28,0,0,1,508,143.06Z" fill="#fff"/>
            <path d="M462.31,337.53a2.23,2.23,0,1,1,3-1A2.23,2.23,0,0,1,462.31,337.53Z" fill="#fff"/>
            <path d="M589.28,353.27a2.23,2.23,0,1,1,3-1A2.23,2.23,0,0,1,589.28,353.27Z" fill="#fff"/>
            <path d="M530.63,251.52a2.23,2.23,0,1,1,3-1A2.22,2.22,0,0,1,530.63,251.52Z" fill="#fff"/>
            <path d="M586.72,476.44a2.23,2.23,0,1,1,2.8,1.46A2.23,2.23,0,0,1,586.72,476.44Z" fill="#fff"/>
            <path d="M648.42,374.41a2.23,2.23,0,1,1,2.8,1.47A2.24,2.24,0,0,1,648.42,374.41Z" fill="#fff"/>
            <path d="M477.11,482.85a2.23,2.23,0,1,1,2.79,1.47A2.24,2.24,0,0,1,477.11,482.85Z" fill="#fff"/>
            <path d="M477.07,201.07a2.23,2.23,0,1,1,1.46-2.79A2.22,2.22,0,0,1,477.07,201.07Z" fill="#fff"/>
            <path d="M472.87,264.05a2.23,2.23,0,1,1,1.46-2.79A2.23,2.23,0,0,1,472.87,264.05Z" fill="#fff"/>
            <path d="M565.3,246.74a2.23,2.23,0,1,1,1.46-2.8A2.24,2.24,0,0,1,565.3,246.74Z" fill="#fff"/>
            <path d="M504.67,444.14a2.23,2.23,0,1,1,1.47-2.8A2.24,2.24,0,0,1,504.67,444.14Z" fill="#fff"/>
            <path d="M442.35,220.78a4.85,4.85,0,1,1,6.52-2.11A4.85,4.85,0,0,1,442.35,220.78Z" fill="#fff"/>
            <path d="M462.31,337.53a2.23,2.23,0,1,1,3-1A2.23,2.23,0,0,1,462.31,337.53Z" fill="#fff"/>
            <path d="M589.28,353.27a2.23,2.23,0,1,1,3-1A2.23,2.23,0,0,1,589.28,353.27Z" fill="#fff"/>
            <path d="M530.63,251.52a2.23,2.23,0,1,1,3-1A2.22,2.22,0,0,1,530.63,251.52Z" fill="#fff"/>
            <path d="M586.72,476.44a2.23,2.23,0,1,1,2.8,1.46A2.23,2.23,0,0,1,586.72,476.44Z" fill="#fff"/>
            <path d="M477.11,482.86a2.23,2.23,0,1,1,2.79,1.46A2.23,2.23,0,0,1,477.11,482.86Z" fill="#fff"/>
            <path d="M477.07,201.07a2.23,2.23,0,1,1,1.46-2.79A2.22,2.22,0,0,1,477.07,201.07Z" fill="#fff"/>
            <path d="M472.87,264.05a2.23,2.23,0,1,1,1.46-2.79A2.23,2.23,0,0,1,472.87,264.05Z" fill="#fff"/>
            <path d="M565.3,246.74a2.23,2.23,0,1,1,1.46-2.8A2.24,2.24,0,0,1,565.3,246.74Z" fill="#fff"/>
            <path d="M543,373.08a2.23,2.23,0,1,1,1.46-2.79A2.22,2.22,0,0,1,543,373.08Z" fill="#fff"/>
            <path d="M504.67,444.14a2.23,2.23,0,1,1,1.47-2.8A2.24,2.24,0,0,1,504.67,444.14Z" fill="#fff"/>
            <path d="M499.13,305.93a6,6,0,1,1,2.6,8.05A6,6,0,0,1,499.13,305.93Z" fill="#fff"/>
            <path d="M553.86,447.71a2.23,2.23,0,1,1,1,3A2.23,2.23,0,0,1,553.86,447.71Z" fill="#fff"/>
            <path d="M580.87,295.6a2.23,2.23,0,1,1,3-1A2.23,2.23,0,0,1,580.87,295.6Z" fill="#fff"/>
            <path d="M475.11,306.73a2.23,2.23,0,1,1,3-1A2.23,2.23,0,0,1,475.11,306.73Z" fill="#fff"/>
            <path d="M663,409.4a2.23,2.23,0,1,1,2.79,1.46A2.22,2.22,0,0,1,663,409.4Z" fill="#fff"/>
            <path d="M494.25,394.67a2.23,2.23,0,1,1,3-1A2.23,2.23,0,0,1,494.25,394.67Z" fill="#fff"/>
            <path d="M553.4,415.81a2.23,2.23,0,1,1,2.79,1.46A2.23,2.23,0,0,1,553.4,415.81Z" fill="#fff"/>
            <path d="M435.59,420.57a2.23,2.23,0,1,1-.94-3A2.23,2.23,0,0,1,435.59,420.57Z" fill="#fff"/>
            <path d="M663.22,504.72a2.23,2.23,0,1,1-.94-3A2.21,2.21,0,0,1,663.22,504.72Z" fill="#fff"/>
            <path d="M669.89,469.8a2.23,2.23,0,1,1-3,.94A2.23,2.23,0,0,1,669.89,469.8Z" fill="#fff"/>
            <path d="M663.22,504.72a2.23,2.23,0,1,1-.94-3A2.22,2.22,0,0,1,663.22,504.72Z" fill="#fff"/>
            <path d="M669.89,469.8a2.23,2.23,0,1,1-3,.94A2.23,2.23,0,0,1,669.89,469.8Z" fill="#fff"/>
          </g>
        </g>
        <g>
          <g>
            <g id="6da4e4a8-b2fc-4611-830d-480398eaea51" data-name="&lt;Group&gt;">
              <rect x="537.74" y="249.21" width="17.04" height="34.47" rx="6.78" ry="6.78" fill="#049e45"/>
              <path d="M537.74,256V271.9c4.49-2.87,11.92-7.56,17-10.56V256a6.8,6.8,0,0,0-6.78-6.77h-3.48A6.8,6.8,0,0,0,537.74,256Z" fill="#049e45"/>
            </g>
            <g>
              <g id="afd76cde-3b8d-4488-9aa5-715eb8a26fac" data-name="&lt;Group&gt;">
                <g id="da61c6aa-ec18-4de0-a2c6-7e81182138b3" data-name="&lt;Group&gt;">
                  <g>
                    <use id="2c6fa649-f0c5-4d9b-9f10-08a9a0bab76a" data-name="New Symbol 23" width="3.26" height="4.72" transform="matrix(-1.71, 0, 0, 1.71, 519.94, 220.55)" xlink:href="#b6004209-f31f-4f8c-9870-bffdf1279198"/>
                    <use id="ca58a569-1f34-4c2d-b76b-acecb7c4e0c5" data-name="New Symbol 32" width="3.79" height="1.45" transform="matrix(-1.71, 0, 0, 1.71, 520.48, 214.82)" xlink:href="#de430284-41f6-4a72-8239-80d0f054b9a1"/>
                  </g>
                </g>
              </g>
              <circle cx="519.34" cy="236.68" r="3.1" fill="#049e45" opacity="0.36"/>
              <path d="M512.77,201.65l.85,50.18a12.51,12.51,0,0,0,17.29,11.34l16.72-6.92,1.16-51.11L530.2,188.87Z" fill="#049e45"/>
            </g>
            <g>
              <path d="M508.05,183.76h59.61a14.49,14.49,0,0,1,14.49,14.49v.69a29.74,29.74,0,0,1-29.74,29.74H537.8a29.74,29.74,0,0,1-29.74-29.74V183.76A0,0,0,0,1,508.05,183.76Z" transform="translate(1090.2 412.44) rotate(180)" fill="#049e45"/>
              <path d="M550.11,265.56h0a32.05,32.05,0,0,1-32.05-32.05V217h64.09v16.49A32,32,0,0,1,550.11,265.56Z" fill="#049e45"/>
            </g>
            <path d="M550.49,180.37h0a15.09,15.09,0,0,1,15.08-15.09h3.23a18.07,18.07,0,0,1,18.07,18.07v81.57a6.57,6.57,0,0,0,6.57,6.57h0a5.47,5.47,0,0,0,5.47-5.47v-1.1a5.47,5.47,0,0,1,5.48-5.47h0a5.47,5.47,0,0,1,5.47,5.47h0a26.28,26.28,0,0,1-26.28,26.28h0A29.57,29.57,0,0,1,554,261.64V193.75S551.58,179.28,550.49,180.37Z" fill="#049e45"/>
          </g>
          <g>
            <path d="M583.86,301.46,586.25,366a6.46,6.46,0,0,1-4.82,6.5h0a6.48,6.48,0,0,1-8.07-5.37l-8.88-63.87a9.74,9.74,0,0,1,7.44-10.84h0A9.75,9.75,0,0,1,583.86,301.46Z" fill="#049e45"/>
            <g id="8b14f2a2-fcca-40f0-8c0c-906229fa87d4" data-name="&lt;Group&gt;">
              <g>
                <path d="M590.28,421.91a3.28,3.28,0,0,1-3,3.45,3.57,3.57,0,0,1-1-.1,3.26,3.26,0,0,1-2.36-2.56l-5-26.56,9.83-.86Z" fill="#049e45"/>
                <path d="M580.2,360.05a6.75,6.75,0,0,1,6.8,6.36l1.7,28.87-9.83.86L573.63,368A6.75,6.75,0,0,1,580.2,360.05Z" fill="#049e45"/>
              </g>
            </g>
            <g>
              <path d="M587.66,439.43l-3.32,5.89a3.69,3.69,0,0,0,.77,4.57h0l5.29-9.82Z" fill="#049e45"/>
              <path d="M578.54,441.23h0l1.38-14.11.2,0-.11-.8,4.24-6.34,4,0a1.73,1.73,0,0,1,1.69,1.43L592.6,437,588,452.2l-.23-.14a4,4,0,0,1-1.83-3.69l.51-6.72-3.71-9.14-1.67,7.5A1.8,1.8,0,0,1,578.54,441.23Z" fill="#049e45"/>
            </g>
          </g>
          <path d="M519.5,402.28a12.33,12.33,0,0,0-3.77,10.25l13.42,107.54c.6,5,6.12,8.84,12.59,8.71h0c6.41-.13,11.57-4.09,11.82-9.08l5.92-109.34a8.51,8.51,0,0,0-3.48-7.08l-5.69-4.55c-7.24-5.8-19.17-5.81-26.32,0l-4.43,3.51Z" fill="#049e45"/>
          <path d="M528.39,517l8,109.32,13.92.19,2.94-108.8L550.94,515c-5.44-6.45-17.68-4.64-22.55,2Z" fill="#049e45"/>
          <path d="M583.64,400.14a12.84,12.84,0,0,1,4,10.09l-7.6,108c-.33,5-5.32,9.08-11.39,9.22h0c-6,.14-11-3.61-11.5-8.58l-10.6-109a8.77,8.77,0,0,1,2.93-7.22l5.13-4.79c6.51-6.09,17.69-6.59,24.66-1.11l4.31,3.32Z" fill="#049e45"/>
          <path d="M580.62,515.1l-2.44,109.54-13,.77-7.78-108.55,2-2.84c4.8-6.67,16.35-5.37,21.22,1.08Z" fill="#049e45"/>
          <g id="9aa34dd7-f8fb-49f1-8a80-a10c5d6907e2" data-name="&lt;Group&gt;">
            <rect x="537.78" y="258" width="17.04" height="34.47" rx="6.78" ry="6.78" fill="#049e45"/>
            <path d="M537.78,264.78V280.7c4.49-2.87,11.93-7.56,17-10.56v-5.36a6.8,6.8,0,0,0-6.77-6.78h-3.49A6.81,6.81,0,0,0,537.78,264.78Z" fill="#049e45"/>
          </g>
          <path d="M515.54,411.57l69.89-7.11-6.69-31.18a100.61,100.61,0,0,1-1.29-34.82C579,327,582.69,315.2,581,303.38c-2.09-14.45-11-16.6-22.53-22.71a23,23,0,0,0-21.6,0l-14.33,5.88c-5.53,2.08.82,7-1.9,9.7a17.15,17.15,0,0,0-5.07,12.17v29.82A17.06,17.06,0,0,0,518,347Z" fill="#049e45"/>
          <g>
            <path d="M510.8,296.45l-7,66.41c-.32,3.12,1.9,6.08,5.35,7.14h0c4.43,1.36,9.1-.91,10-4.83L533.85,300c1.15-5.09-2.41-10.23-8.21-11.84h0C518.63,286.21,511.51,290.19,510.8,296.45Z" fill="#049e45"/>
            <g id="dfd4b768-50bb-4e50-a228-d49dc4015c2d" data-name="&lt;Group&gt;">
              <g>
                <path d="M460.14,395.51c-1.39,1.33-1.17,3.8.48,5.52.33.35-.46,2.07-.08,2.3,1.39.83,3.5,5.85,7.94,1.77s23.94-17.34,23.94-17.34l-11.55-12Z" fill="#049e45" stroke="#049e45" stroke-miterlimit="10" stroke-width="3"/>
                <path d="M514.52,355.6a10.89,10.89,0,0,0-1.92-1.47c-3.19-1.92-7-1.89-9.26.31L480.87,375.8l11.46,11.88,22.8-19.74C518.85,365.37,518.56,359.47,514.52,355.6Z" fill="#049e45" stroke="#049e45" stroke-miterlimit="10" stroke-width="3"/>
              </g>
            </g>
            <path d="M455.07,418.93h0L464.88,408l-.11-.18.69-.47,1.88-7.66-2.8-3a1.76,1.76,0,0,0-2.26-.29l-13.79,8.85-3.55,9.62,5,1.24c1.48.39,3.65-1.34,4.7-2.45l-.43,2.46A1.86,1.86,0,0,0,455.07,418.93Z" fill="#049e45"/>
          </g>
        </g>
        <g id="ce5dba8b-2cd7-471d-93fc-cae8a49cf959" data-name="ÕÓ‚˚È_ÒËÏ‚ÓÎ_3_1_">
          <g>
            <path d="M461.94,407.89l-15.11-.05a12.36,12.36,0,0,0-12.39,12.31l0,8a.61.61,0,0,0,.61.61l4.59,0a.61.61,0,0,0,.61-.61l0-8a6.53,6.53,0,0,1,6.56-6.51l15.11.05a6.55,6.55,0,0,1,6.52,6.56l0,8a.61.61,0,0,0,.61.61l4.58,0a.61.61,0,0,0,.62-.61l0-8A12.35,12.35,0,0,0,461.94,407.89Z" fill="#049e45"/>
            <rect x="408.14" y="428.86" width="98.43" height="70.39" transform="translate(1.53 -1.5) rotate(0.19)" fill="#049e45"/>
            <rect x="402.27" y="428.84" width="98.43" height="70.39" transform="translate(1.53 -1.48) rotate(0.19)" fill="#049e45"/>
          </g>
        </g>
      </g>
    </g>
  </g>
  <g id="4e6e0549-fb54-4311-bc62-91954b754826" data-name="img3">
    <g>
      <g>
        <rect x="187.7" y="275.85" width="52.32" height="25.58" rx="10.66" ry="10.66" transform="translate(-94.2 473.45) rotate(-84.42)" fill="#f29583"/>
        <path d="M228.1,274.46l-2.16,22.13-24.84-8.83L202.64,272a10.65,10.65,0,0,1,11.64-9.57l4.24.41A10.66,10.66,0,0,1,228.1,274.46Z" fill="#ef9f8a"/>
      </g>
      <g>
        <path d="M257.43,262.16l-9.51,1.91.17,1.79,1.64,17.64c-2.09,11.38-17.46,18.88-29.39,4.56L206.24,271,202,265.8l-10.3-26.45,1.43-15.09,3.11-14.81,24.34-10.95,27.75,1.58-6.93,2.5,18.05,56.33A2.55,2.55,0,0,1,257.43,262.16Z" fill="#f6b297"/>
        <g id="1165b554-53cd-4feb-81ef-6fb23c99cd8b" data-name="&lt;Group&gt;">
          <path d="M232.52,240.12l1.13,3.08s4.71-3.5,7.56-1.45l.12-4.52S234.47,235.92,232.52,240.12Z" fill="#352525"/>
        </g>
        <path d="M233,257.36c.16,2.09-1.68,3.92-4.1,4.09a4.12,4.12,0,0,1-4.65-3.46c-.15-2.08,1.69-3.92,4.11-4.09A4.11,4.11,0,0,1,233,257.36Z" fill="#f6b297"/>
        <path d="M248.3,265q-1-.18-1.92-.39c-7.91-1.83-14.72,2.67-22.28,3.21-2.17.16-4.56,0-6.12-1.45a6.36,6.36,0,0,1-1.76-4.51c-.15-3.83,1.49-7.58,1.45-11.42-.06-7.29-5-10.87-11.1-14-4.68-2.42-4.94-1.63-3.34,3.1,2,6,4.78,11.44,4.46,17.95-.39,8.13-3.4,16.34,2.81,23.24,6.8,7.54,14.63,18.12,26.57,16.26a21.39,21.39,0,0,0,8-3.4,10.44,10.44,0,0,0,4.62-9.42Z" fill="#634747"/>
        <path d="M256.19,193.67c-.51-2-1.13-4-1.79-6L200.21,202a24.1,24.1,0,0,0-2.29.88l-.73.19a25.52,25.52,0,0,0-11.88,35.87l10,17.78,2.62,3,16.58-8.57c2.77-1.43,4.78-5.43,2.55-7.62-5.29-5.2-15.71-12.37-11.35-21.48a10,10,0,0,1,1.76-2.52,7.14,7.14,0,0,0,.71.51C229.05,231.15,263.57,222,256.19,193.67Z" fill="#352525"/>
        <g id="71338b8c-c82a-4817-8220-6a5f1d309bb6" data-name="&lt;Group&gt;">
          <path d="M239.26,249.89h0c1.46,0,2.64-.8,2.64-1.79v-1.59c0-1-1.18-1.79-2.64-1.79h0c-1.45,0-2.64.8-2.64,1.79v1.59C236.62,249.09,237.81,249.89,239.26,249.89Z" fill="#67413a"/>
        </g>
      </g>
      <path d="M253.45,241.22a3,3,0,0,1-.76,0l-.22-3.06-.4,0V238l-6.75.59-5.57.48-1.62.14-7.54.67-12.7,2.93-.75.17-7.2,1.67-3.74.86-2,.46-.86,4.17,7.94-1.48h.11l9.48-1.76,1.18-.22,8.5-1.57.44,6.13a10.21,10.21,0,0,0,1.67,5,7.24,7.24,0,0,0,3.92,3,5.53,5.53,0,0,0,2.06.24l8.42-.61c3.56-.26,6.2-4.07,5.88-8.47l-.42-5.74a7.46,7.46,0,0,0,1.16,0l1.67-.12-.25-3.46Zm-3.35,9.36c.19,2.59-1.27,4.8-3.26,4.94l-8.42.61c-2.3.17-4.34-2.13-4.55-5.1l-.58-8.05,16.16-1.4Z" fill="#000429"/>
      <g id="a29d8c34-1ca5-476e-bd74-c31fbf6defb5" data-name="&lt;Group&gt;">
        <path d="M207,251.11l-.74-1.76c-1-2.26-2.64-3.69-4.42-3.75l-.9,0c-1.72-.06-3.28,1.16-4.16,3.23h0a10,10,0,0,0-.63,5.05l.56,4.43a9.89,9.89,0,0,0,.83,3l.41.89c1.06,2.27,2.84,3.59,4.66,3.46h.23c2.22-.17,4-2.46,4.43-5.63l.44-3.52A10.5,10.5,0,0,0,207,251.11Z" fill="#f6b297"/>
      </g>
    </g>
    <g>
      <polygon points="185 649.72 185 664 203.83 664 204.31 649.27 185 649.72" fill="#607189"/>
      <g>
        <rect x="184.68" y="660.51" width="44.14" height="12.94" transform="translate(8.23 -2.5) rotate(0.71)" fill="#634747"/>
        <rect x="184.53" y="670.89" width="45.3" height="2.89" fill="#352525"/>
        <polygon points="202.02 663.49 204.4 656.71 225.53 661.17 202.02 663.49" fill="#634747"/>
      </g>
      <g>
        <rect x="187.63" y="285.2" width="42.8" height="41.66" rx="16.13" ry="16.13" transform="translate(418.06 612.06) rotate(-180)" fill="#d4f0fe"/>
        <g>
          <path d="M225.7,566.47h0c6.74,0,12.35-4.45,12.65-10.05L243.2,461c.36-6.59-6.66-11.7-14.49-10.54l-14.26,2.11c-6.49,1-11,5.94-10.41,11.37l9.42,93.31C214.07,562.5,219.34,566.47,225.7,566.47Z" fill="#384d6b"/>
          <path d="M213,559.14c0-5.64,5.37-10.34,12.15-10.66,7.73-.37,14,5,13.17,11.45l-1.65,21.14.31.28-3.2,66a2.24,2.24,0,0,1-2.27,1.91l-17.22.82a2.16,2.16,0,0,1-2.46-2Z" fill="#384d6b"/>
        </g>
        <g>
          <path d="M196.38,563.74h0c6.35,0,11.62-4.38,11.9-9.93l4.37-94.47c.33-6.52-6.29-11.59-13.65-10.46l-13.42,2.06c-6.11.94-10.39,5.86-9.78,11.24l9,92.4C185.43,559.78,190.4,563.73,196.38,563.74Z" fill="#2f435b"/>
          <path d="M184.41,556.88c0-5.82,5-10.65,11.4-11,7.27-.35,13.15,5.26,12.44,11.86l-1.47,21.82.28.29L204.29,648a2.16,2.16,0,0,1-2.13,2l-16.21.78a2.13,2.13,0,0,1-2.33-2Z" fill="#2f435b"/>
        </g>
        <path d="M240.83,423.83v25.53a11.9,11.9,0,0,1-8.5,11.4l-30.35,9-22.76-9.52-4.73-13.87-2.61-24.75Z" fill="#2f435b"/>
        <path d="M198.23,295.93h13.05c16.17,0,29.28,14.48,29.28,32.34v25.15l2.36,57.14,6.13,44a2.86,2.86,0,0,1-2,3.25l-23.18,5.32-46.78.59a3.71,3.71,0,0,1-3.58-3.45c-5.16-44.05-19.13-97.7-.32-139C179.53,307.24,188.4,295.93,198.23,295.93Z" fill="#000429"/>
        <g>
          <g>
            <path d="M223.91,311.58c-8.95,4.16-9.56,31.31-9.07,38.31,0,0,.54,7.51.54,7.51l7.73,35.65a11.82,11.82,0,0,0,13.71,9.49A11.56,11.56,0,0,0,246,389.49s-11.14-68.89-11.15-69c-.56-3.69-5.54-10.63-10.19-9.18A6.15,6.15,0,0,0,223.91,311.58Z" fill="#121738" stroke="#121738" stroke-miterlimit="10" stroke-width="6"/>
            <path d="M212.4,357.83l-.55-7.73c0-.35-1.7-35.43,10.79-41.24a8.46,8.46,0,0,1,1.09-.42,7.77,7.77,0,0,1,1.25-.28c6.6-.83,12.11,7.33,12.79,11.85.08.51,11.15,69,11.16,69a14.57,14.57,0,0,1-11.51,16.44c-.35.07-.7.13-1,.17C228.81,406.61,212.4,357.83,212.4,357.83Zm13.12-43.67-.35.14c-5.9,2.75-8.1,24.47-7.33,35.37l.51,7.31,7.7,35.49a8.78,8.78,0,0,0,10.17,7.13A8.56,8.56,0,0,0,243,390l-11.16-69c-.37-2.46-3.86-7.1-6.1-6.81Z" fill="#121738" stroke="#121738" stroke-miterlimit="10" stroke-width="6"/>
          </g>
          <g id="f2c0c876-1426-4fab-b6bf-804249ed7435" data-name="&lt;Group&gt;">
            <g>
              <path d="M296.83,412.74a2.44,2.44,0,0,1-.21.59l.52.07.32-3.85Z" fill="#ff8072"/>
              <path d="M291.69,394.56a2.25,2.25,0,0,1,.14-.44l-53.83-12a11.38,11.38,0,1,0-3.82,22.42l54.26,7.62a2.39,2.39,0,0,1,0-1.13Z" fill="#121738" stroke="#121738" stroke-miterlimit="10" stroke-width="6"/>
              <path d="M298.33,392.51l-3.74-.92a2.54,2.54,0,0,0-3,1.64,2.51,2.51,0,0,0-.12.49l-2.85,18.43a3,3,0,0,0,.1,1.27,3.14,3.14,0,0,0,2.21,2.21l3.75.92a2.52,2.52,0,0,0,3-1.47,2.68,2.68,0,0,0,.2-.66l.55-3.56L300.64,396c0-.1,0-.2,0-.3A3.16,3.16,0,0,0,298.33,392.51Z" fill="#d4f0fe"/>
              <path d="M297.46,409.55l-.32,3.85,6.31.89a8.6,8.6,0,0,0,9.29-6A7.66,7.66,0,0,0,313,407a8.58,8.58,0,0,0-6.69-9.65L300.15,396a2.48,2.48,0,0,1,0,.27Z" fill="#f6b297"/>
            </g>
          </g>
        </g>
      </g>
      <polygon points="212 647.14 212 662 232.78 662 233.22 646.56 212 647.14" fill="#6f7d8e"/>
      <g>
        <rect x="211.53" y="659.86" width="46.28" height="13.57" rx="5.78" ry="5.78" transform="translate(8.23 -2.84) rotate(0.71)" fill="#685252"/>
        <rect x="210.31" y="670.75" width="47.49" height="3.03" fill="#3f2f2f"/>
        <polygon points="229.7 663 232.2 655.89 254.35 660.56 229.7 663" fill="#685252"/>
        <polygon points="241.57 670.83 210.46 670.75 210.6 659.57 241.72 659.95 241.57 670.83" fill="#685252"/>
      </g>
      <g>
        <path d="M335.3,417.46h0l-.23.1a.19.19,0,0,0,0,.07c-.62.41-1.25.8-1.89,1.19l-1.15.05-9.08,3.89-18.19-7.13-.1-.34a4.82,4.82,0,0,1-1.76-2.28L301,407.69a4.79,4.79,0,0,1,1.51-5.38l8.07-6.47a1.4,1.4,0,0,1,.86-.3h7.7a1.4,1.4,0,0,0,.41-.06l4.29-1.32a1.39,1.39,0,0,1,1.41.36l1.29,1.36a1.37,1.37,0,0,1-.06,2l-3.37,3.08a1.35,1.35,0,0,1-.89.37l-5.24.16a1.46,1.46,0,0,0-.51.12,1.38,1.38,0,0,0-.22,2.41l1.7,1.15a1.58,1.58,0,0,0,.44.2l13.54,3.33a1.14,1.14,0,0,1,.38.16l6.88,5.22A24.41,24.41,0,0,1,335.3,417.46Z" fill="#f6b297"/>
        <path d="M337.38,415.78c-4.77-1.53-12.45-3.37-16.35-4.24l-.25,1.11c3.71.83,10.85,2.55,15.6,4Z" fill="#ee7d73"/>
        <path d="M330.76,419.4c-2-.45-3.76-.74-5.47-1s-3.62-.6-5.73-1.07l.25-1.12c2.07.47,3.9.77,5.66,1.06,1.52.26,5.13,1,7.47,1.57Z" fill="#ee7d73"/>
      </g>
    </g>
    <path d="M242.61,291.69a65.83,65.83,0,0,1-18-11.32c-3.27-2.9-5.63-6.65-8.18-10.18l-.7-1c-.64-.77-1.29-1.53-2-2.25a15.64,15.64,0,0,0-1.36-1.15c-.54-.19-1.14-.39-1.64-.54l-.69,0a23.67,23.67,0,0,1-3.06-.35c-.61,5.59-.75,11,3.56,15.81,6.8,7.54,14.63,18.12,26.57,16.26a21.39,21.39,0,0,0,8-3.4c.25-.16.47-.35.7-.53Z" fill="#634747"/>
    <g id="c8a047ce-1b0c-4530-aed6-53e482d73d4b" data-name="&lt;Group&gt;">
      <path d="M248.86,271.85l-11.59,2.29a.63.63,0,0,0-.37,1,10.25,10.25,0,0,0,9.76,3,11.61,11.61,0,0,0,2.54-.82C249,275.52,249,273.67,248.86,271.85Z" fill="#fff"/>
    </g>
  </g>
</svg>
