<svg xmlns="http://www.w3.org/2000/svg" xmlns:xlink="http://www.w3.org/1999/xlink" width="700" height="700" viewBox="0 0 700 700">
    <defs>
        <clipPath id="9113dd86-30af-4490-a00c-6d233fd47071">
            <circle cx="344.92" cy="347.82" r="279.79" fill="none" />
        </clipPath>
        <clipPath id="a0b2fe74-909a-44dd-8c09-ebe77a196047">
            <rect x="102.22" y="59.1" width="344.07" height="328.3" fill="none" />
        </clipPath>
        <linearGradient id="9ede4dee-588e-4527-86c1-2ec607155dc0" x1="274.76" y1="88.61" x2="274.76" y2="1063.08" gradientUnits="userSpaceOnUse">
            <stop offset="0" stop-color="#fff" />
            <stop offset="1" stop-color="#fff" stop-opacity="0" />
        </linearGradient>
        <symbol id="e11c1338-d51c-4062-bf9e-c4371cdc3ade" data-name="New Symbol 23" viewBox="0 0 3.26 4.72">
            <path d="M1.63,4.72h0A1.63,1.63,0,0,1,0,3.09V1.63A1.63,1.63,0,0,1,1.63,0h0A1.63,1.63,0,0,1,3.26,1.63V3.09A1.63,1.63,0,0,1,1.63,4.72Z" fill="#67413a" />
        </symbol>
        <symbol id="0b5261da-da9b-458d-984c-9b34a26d590b" data-name="New Symbol 32" viewBox="0 0 3.79 1.46">
            <path d="M.25,1.2,0,.18A5.87,5.87,0,0,1,3.79.49l-.42,1A4.9,4.9,0,0,0,.25,1.2Z" fill="#b0593c" />
        </symbol>
    </defs>
    <title>oleg-4</title>
    <g id="a75a6b1c-f58b-403d-8b8b-78834e52da43" data-name="back6">
        <rect y="-4.8" width="701.05" height="703.44" fill="#f4e6bb" />
    </g>
    <g id="b60a3c5e-e856-4876-8095-50b7a39d5897" data-name="img6">
        <circle cx="344.98" cy="347.42" r="279.44" fill="#e5bf61" />
    </g>
    <g id="3bbd081e-7b6e-4c3c-a3a0-3379280390b4" data-name="bck4">
        <rect y="-1.06" width="700" height="703.09" fill="#aef2cc" />
        <g clip-path="url(#9113dd86-30af-4490-a00c-6d233fd47071)">
            <g>
                <g>
                    <rect id="c8afea87-c64f-4288-b59e-78791ea623c0" data-name="&lt;Path&gt;" x="-98.34" y="67.25" width="746.59" height="559.94" fill="#00d159" />
                    <rect id="22908670-532b-4c16-996a-910c89114344" data-name="&lt;Path&gt;" x="103.62" y="67.25" width="342.67" height="320.15" fill="#00e55c" />
                    <g opacity="0.43">
                        <g clip-path="url(#a0b2fe74-909a-44dd-8c09-ebe77a196047)">
                            <g>
                                <path d="M484,276a5.25,5.25,0,1,1-3.39,6.61A5.24,5.24,0,0,1,484,276Z" fill="#fff" />
                                <path d="M61.88,73.66a5.25,5.25,0,1,1-3.38,6.61A5.25,5.25,0,0,1,61.88,73.66Z" fill="#fff" />
                                <path d="M416.06,111.49a5.25,5.25,0,1,1-3.38,6.61A5.25,5.25,0,0,1,416.06,111.49Z" fill="#fff" />
                                <path d="M581.5,409.49a2.21,2.21,0,1,1-1.43,2.79A2.21,2.21,0,0,1,581.5,409.49Z" fill="#fff" />
                                <path d="M415.67,196.44a2.21,2.21,0,1,1-3,.93A2.21,2.21,0,0,1,415.67,196.44Z" fill="#fff" />
                                <path d="M412.65,41.27a2.21,2.21,0,1,1-3,.93A2.21,2.21,0,0,1,412.65,41.27Z" fill="#fff" />
                                <path d="M541,124.78a2.21,2.21,0,1,1-3,.93A2.22,2.22,0,0,1,541,124.78Z" fill="#fff" />
                                <path d="M338.62,143.7a2.21,2.21,0,1,1-3,.93A2.21,2.21,0,0,1,338.62,143.7Z" fill="#fff" />
                                <path d="M519.79,47.65a2.21,2.21,0,1,1-3,.94A2.22,2.22,0,0,1,519.79,47.65Z" fill="#fff" />
                                <path d="M274.29,163.72a2.21,2.21,0,1,1,.94,3A2.22,2.22,0,0,1,274.29,163.72Z" fill="#fff" />
                                <path d="M309.3,115.29a2.21,2.21,0,1,1,.94,3A2.23,2.23,0,0,1,309.3,115.29Z" fill="#fff" />
                                <path d="M529.45,346.26a2.21,2.21,0,1,1,.93,3A2.21,2.21,0,0,1,529.45,346.26Z" fill="#fff" />
                                <path d="M462.14,314.6a2.21,2.21,0,0,1,3.92,2,2.21,2.21,0,1,1-3.92-2Z" fill="#fff" />
                                <path d="M400.23,348.9a4.82,4.82,0,1,1-6.07-3.11A4.81,4.81,0,0,1,400.23,348.9Z" fill="#fff" />
                                <path d="M309.7,204.81a5.25,5.25,0,1,1-6.61-3.38A5.25,5.25,0,0,1,309.7,204.81Z" fill="#fff" />
                                <path d="M536.62,443.15a5.25,5.25,0,1,1-6.61-3.38A5.25,5.25,0,0,1,536.62,443.15Z" fill="#fff" />
                                <path d="M226.44,152.75a5.93,5.93,0,1,1-7.47-3.82A5.93,5.93,0,0,1,226.44,152.75Z" fill="#fff" />
                                <path d="M468.2,252.9a2.22,2.22,0,1,1-2.79-1.43A2.21,2.21,0,0,1,468.2,252.9Z" fill="#fff" />
                                <path d="M390.09,152.69a2.21,2.21,0,1,1-2.78-1.42A2.21,2.21,0,0,1,390.09,152.69Z" fill="#fff" />
                                <path d="M501.3,402.37a2.21,2.21,0,1,1-2.79-1.43A2.22,2.22,0,0,1,501.3,402.37Z" fill="#fff" />
                                <path d="M359.83,265.32a2.21,2.21,0,1,1-2.79-1.43A2.21,2.21,0,0,1,359.83,265.32Z" fill="#fff" />
                                <path d="M530.77,256.48a2.21,2.21,0,1,1-2.79-1.43A2.21,2.21,0,0,1,530.77,256.48Z" fill="#fff" />
                                <path d="M478.37,68a2.21,2.21,0,1,1-.94-3A2.22,2.22,0,0,1,478.37,68Z" fill="#fff" />
                                <path d="M363.4,96.32a2.21,2.21,0,1,1-.93-3A2.21,2.21,0,0,1,363.4,96.32Z" fill="#fff" />
                                <path d="M213,70.36a2.21,2.21,0,1,1-2.79-1.42A2.22,2.22,0,0,1,213,70.36Z" fill="#fff" />
                                <path d="M540.06,318.31a2.22,2.22,0,1,1-2.79-1.43A2.21,2.21,0,0,1,540.06,318.31Z" fill="#fff" />
                                <path d="M568.14,35.29a2.21,2.21,0,1,1-.94-3A2.22,2.22,0,0,1,568.14,35.29Z" fill="#fff" />
                                <path d="M559.84,140.46a2.21,2.21,0,1,1-.93-3A2.21,2.21,0,0,1,559.84,140.46Z" fill="#fff" />
                                <path d="M18.22,62.71a2.21,2.21,0,1,1-.93-3A2.19,2.19,0,0,1,18.22,62.71Z" fill="#fff" />
                                <path d="M230.33,132.21A2.21,2.21,0,1,1,228.9,135,2.21,2.21,0,0,1,230.33,132.21Z" fill="#fff" />
                                <path d="M362,338.35a2.21,2.21,0,1,1-3,.94A2.22,2.22,0,0,1,362,338.35Z" fill="#fff" />
                                <path d="M409.18,297.08a2.21,2.21,0,1,1-3,.94A2.22,2.22,0,0,1,409.18,297.08Z" fill="#fff" />
                                <path d="M332.12,244.34a2.21,2.21,0,1,1-3,.93A2.22,2.22,0,0,1,332.12,244.34Z" fill="#fff" />
                                <path d="M485,33.33a2.21,2.21,0,1,1-3,.94A2.22,2.22,0,0,1,485,33.33Z" fill="#fff" />
                                <path d="M513.3,148.3a2.21,2.21,0,1,1-3,.93A2.2,2.2,0,0,1,513.3,148.3Z" fill="#fff" />
                                <path d="M282.65,52.25a2.21,2.21,0,1,1-3,.93A2.21,2.21,0,0,1,282.65,52.25Z" fill="#fff" />
                                <path d="M400.23,348.9a4.82,4.82,0,1,1-6.07-3.11A4.81,4.81,0,0,1,400.23,348.9Z" fill="#fff" />
                                <path d="M294,246.17a5.25,5.25,0,1,1-6.61-3.38A5.25,5.25,0,0,1,294,246.17Z" fill="#fff" />
                                <path d="M161.47,69.22A5.94,5.94,0,1,1,154,65.4,5.93,5.93,0,0,1,161.47,69.22Z" fill="#fff" />
                                <path d="M468.2,252.9a2.21,2.21,0,1,1-2.79-1.43A2.21,2.21,0,0,1,468.2,252.9Z" fill="#fff" />
                                <path d="M390.09,152.69a2.21,2.21,0,1,1-2.78-1.42A2.21,2.21,0,0,1,390.09,152.69Z" fill="#fff" />
                                <path d="M501.3,402.37a2.21,2.21,0,1,1-2.79-1.43A2.22,2.22,0,0,1,501.3,402.37Z" fill="#fff" />
                                <path d="M359.83,265.32a2.21,2.21,0,1,1-2.79-1.43A2.21,2.21,0,0,1,359.83,265.32Z" fill="#fff" />
                                <path d="M478.37,68a2.21,2.21,0,1,1-.94-3A2.22,2.22,0,0,1,478.37,68Z" fill="#fff" />
                                <path d="M213,70.36a2.21,2.21,0,1,1-2.79-1.42A2.22,2.22,0,0,1,213,70.36Z" fill="#fff" />
                                <path d="M540.06,318.31a2.21,2.21,0,1,1-2.79-1.43A2.21,2.21,0,0,1,540.06,318.31Z" fill="#fff" />
                                <path d="M559.84,140.46a2.21,2.21,0,1,1-.93-3A2.2,2.2,0,0,1,559.84,140.46Z" fill="#fff" />
                                <path d="M18.22,62.71a2.21,2.21,0,1,1-.93-3A2.19,2.19,0,0,1,18.22,62.71Z" fill="#fff" />
                                <path d="M362,338.35a2.21,2.21,0,1,1-3,.94A2.22,2.22,0,0,1,362,338.35Z" fill="#fff" />
                                <path d="M409.18,297.08a2.21,2.21,0,1,1-3,.94A2.22,2.22,0,0,1,409.18,297.08Z" fill="#fff" />
                                <path d="M453.36,355.89a2.21,2.21,0,1,1-3,.93A2.2,2.2,0,0,1,453.36,355.89Z" fill="#fff" />
                                <path d="M332.12,244.34a2.21,2.21,0,1,1-3,.93A2.22,2.22,0,0,1,332.12,244.34Z" fill="#fff" />
                                <path d="M436.5,171.28a2.21,2.21,0,1,1-3,.93A2.21,2.21,0,0,1,436.5,171.28Z" fill="#fff" />
                                <path d="M485,33.33a2.21,2.21,0,1,1-3,.94A2.22,2.22,0,0,1,485,33.33Z" fill="#fff" />
                                <path d="M513.3,148.3a2.21,2.21,0,1,1-3,.93A2.2,2.2,0,0,1,513.3,148.3Z" fill="#fff" />
                                <path d="M282.65,52.25a2.2,2.2,0,0,1,.93,3,2.21,2.21,0,1,1-.93-3Z" fill="#fff" />
                                <path d="M375.7,33.58a4.82,4.82,0,1,1,3.11-6.07A4.83,4.83,0,0,1,375.7,33.58Z" fill="#fff" />
                                <path d="M420.15,249.23a5.94,5.94,0,1,1,3.83-7.47A5.93,5.93,0,0,1,420.15,249.23Z" fill="#fff" />
                                <path d="M69.42,17.06a2.21,2.21,0,1,1,1.43-2.78A2.2,2.2,0,0,1,69.42,17.06Z" fill="#fff" />
                                <path d="M93.76,133.66a2.21,2.21,0,1,1,1.43-2.79A2.21,2.21,0,0,1,93.76,133.66Z" fill="#fff" />
                                <path d="M-2.12,21.29a2.22,2.22,0,0,1-.94-3,2.22,2.22,0,0,1,3-.93,2.2,2.2,0,0,1,.93,3A2.2,2.2,0,0,1-2.12,21.29Z" fill="#fff" />
                                <path d="M481.28,111.25a2.21,2.21,0,1,1,1.42-2.79A2.22,2.22,0,0,1,481.28,111.25Z" fill="#fff" />
                                <path d="M30.58,111.06a2.21,2.21,0,1,1,3-.94A2.22,2.22,0,0,1,30.58,111.06Z" fill="#fff" />
                                <path d="M355.5,199.1a2.21,2.21,0,1,1-2.79-1.43A2.21,2.21,0,0,1,355.5,199.1Z" fill="#fff" />
                                <path d="M139.91,128.27a2.21,2.21,0,1,1-2.79-1.42A2.22,2.22,0,0,1,139.91,128.27Z" fill="#fff" />
                                <path d="M400.65,395.87a2.21,2.21,0,1,1-2.78-1.42A2.21,2.21,0,0,1,400.65,395.87Z" fill="#fff" />
                                <path d="M437.58,265.54a2.21,2.21,0,1,1-2.79-1.43A2.22,2.22,0,0,1,437.58,265.54Z" fill="#fff" />
                                <path d="M377.72,61.51a2.21,2.21,0,1,1-.93-3A2.2,2.2,0,0,1,377.72,61.51Z" fill="#fff" />
                                <path d="M262.76,89.82a2.21,2.21,0,1,1-.93-3A2.21,2.21,0,0,1,262.76,89.82Z" fill="#fff" />
                                <path d="M467.52,462.34a2.21,2.21,0,1,1-2.78-1.43A2.21,2.21,0,0,1,467.52,462.34Z" fill="#fff" />
                                <path d="M485.89,190.35a2.21,2.21,0,1,1-2.79-1.43A2.21,2.21,0,0,1,485.89,190.35Z" fill="#fff" />
                                <path d="M597.09,440a2.21,2.21,0,1,1-2.79-1.42A2.22,2.22,0,0,1,597.09,440Z" fill="#fff" />
                                <path d="M459.2,134a2.21,2.21,0,1,1-.94-3A2.22,2.22,0,0,1,459.2,134Z" fill="#fff" />
                                <path d="M208,186.18a2.21,2.21,0,1,1-2.78-1.43A2.2,2.2,0,0,1,208,186.18Z" fill="#fff" />
                                <path d="M111.47,327.78a5.25,5.25,0,1,1-2.28-7.07A5.25,5.25,0,0,1,111.47,327.78Z" fill="#fff" />
                                <path d="M275.86,396.07a5.25,5.25,0,1,1-2.28-7.06A5.24,5.24,0,0,1,275.86,396.07Z" fill="#fff" />
                                <path d="M216.07,335.73a2.21,2.21,0,1,1,1.45-2.77A2.22,2.22,0,0,1,216.07,335.73Z" fill="#fff" />
                                <path d="M327.93,443.31a2.21,2.21,0,1,1,1.45-2.77A2.2,2.2,0,0,1,327.93,443.31Z" fill="#fff" />
                                <path d="M178.15,475a2.21,2.21,0,1,1,1.46-2.77A2.22,2.22,0,0,1,178.15,475Z" fill="#fff" />
                                <path d="M307.85,318.54a2.21,2.21,0,1,1,1.46-2.77A2.22,2.22,0,0,1,307.85,318.54Z" fill="#fff" />
                                <path d="M247.65,514.56a2.21,2.21,0,1,1,1.46-2.77A2.21,2.21,0,0,1,247.65,514.56Z" fill="#fff" />
                                <path d="M29.68,310.25a2.21,2.21,0,1,1-2.77-1.46A2.22,2.22,0,0,1,29.68,310.25Z" fill="#fff" />
                                <path d="M99.66,285a2.21,2.21,0,1,1-2.77-1.46A2.21,2.21,0,0,1,99.66,285Z" fill="#fff" />
                                <path d="M119.19,217a4.82,4.82,0,1,1,6.48-2.1A4.82,4.82,0,0,1,119.19,217Z" fill="#fff" />
                                <path d="M184.4,139.83a5.25,5.25,0,1,1,7.07-2.28A5.25,5.25,0,0,1,184.4,139.83Z" fill="#fff" />
                                <path d="M139,333a2.21,2.21,0,1,1,3-1A2.21,2.21,0,0,1,139,333Z" fill="#fff" />
                                <path d="M265.09,348.58a2.21,2.21,0,1,1,3-1A2.21,2.21,0,0,1,265.09,348.58Z" fill="#fff" />
                                <path d="M9.91,250.66a2.21,2.21,0,1,1,3-1A2.22,2.22,0,0,1,9.91,250.66Z" fill="#fff" />
                                <path d="M206.85,247.54a2.21,2.21,0,1,1,3-1A2.23,2.23,0,0,1,206.85,247.54Z" fill="#fff" />
                                <path d="M92.23,374.66a2.21,2.21,0,1,1,3-1A2.22,2.22,0,0,1,92.23,374.66Z" fill="#fff" />
                                <path d="M262.56,470.88a2.21,2.21,0,1,1,2.77,1.46A2.2,2.2,0,0,1,262.56,470.88Z" fill="#fff" />
                                <path d="M323.83,369.57A2.21,2.21,0,1,1,326.6,371,2.21,2.21,0,0,1,323.83,369.57Z" fill="#fff" />
                                <path d="M41.94,337.51a2.21,2.21,0,1,1,3-1A2.23,2.23,0,0,1,41.94,337.51Z" fill="#fff" />
                                <path d="M153.71,477.25a2.21,2.21,0,1,1,2.77,1.46A2.22,2.22,0,0,1,153.71,477.25Z" fill="#fff" />
                                <path d="M153.67,197.44a2.22,2.22,0,1,1,1.45-2.77A2.21,2.21,0,0,1,153.67,197.44Z" fill="#fff" />
                                <path d="M149.5,260A2.21,2.21,0,1,1,151,257.2,2.2,2.2,0,0,1,149.5,260Z" fill="#fff" />
                                <path d="M241.28,242.78a2.21,2.21,0,1,1,1.45-2.77A2.2,2.2,0,0,1,241.28,242.78Z" fill="#fff" />
                                <path d="M181.08,438.81a2.22,2.22,0,1,1,1.45-2.78A2.21,2.21,0,0,1,181.08,438.81Z" fill="#fff" />
                                <path d="M119.19,217a4.82,4.82,0,1,1,6.48-2.1A4.82,4.82,0,0,1,119.19,217Z" fill="#fff" />
                                <path d="M139,333a2.21,2.21,0,1,1,3-1A2.21,2.21,0,0,1,139,333Z" fill="#fff" />
                                <path d="M265.09,348.58a2.21,2.21,0,1,1,3-1A2.21,2.21,0,0,1,265.09,348.58Z" fill="#fff" />
                                <path d="M9.91,250.66a2.21,2.21,0,1,1,3-1A2.22,2.22,0,0,1,9.91,250.66Z" fill="#fff" />
                                <path d="M206.85,247.54a2.21,2.21,0,1,1,3-1A2.23,2.23,0,0,1,206.85,247.54Z" fill="#fff" />
                                <path d="M262.56,470.88a2.21,2.21,0,1,1,2.77,1.46A2.21,2.21,0,0,1,262.56,470.88Z" fill="#fff" />
                                <path d="M41.94,337.51a2.21,2.21,0,1,1,3-1A2.23,2.23,0,0,1,41.94,337.51Z" fill="#fff" />
                                <path d="M153.71,477.26a2.21,2.21,0,1,1,4.22-1.32,2.21,2.21,0,0,1-4.22,1.32Z" fill="#fff" />
                                <path d="M153.67,197.44a2.22,2.22,0,1,1,1.45-2.77A2.21,2.21,0,0,1,153.67,197.44Z" fill="#fff" />
                                <path d="M149.5,260A2.21,2.21,0,1,1,151,257.2,2.2,2.2,0,0,1,149.5,260Z" fill="#fff" />
                                <path d="M76.68,249.63a2.21,2.21,0,1,1-1.32-4.22,2.21,2.21,0,1,1,1.32,4.22Z" fill="#fff" />
                                <path d="M241.28,242.78a2.21,2.21,0,1,1,1.45-2.77A2.2,2.2,0,0,1,241.28,242.78Z" fill="#fff" />
                                <path d="M219.13,368.25a2.21,2.21,0,1,1,1.46-2.78A2.22,2.22,0,0,1,219.13,368.25Z" fill="#fff" />
                                <path d="M181.08,438.81a2.22,2.22,0,1,1,1.45-2.78A2.21,2.21,0,0,1,181.08,438.81Z" fill="#fff" />
                                <path d="M175.57,301.57a5.94,5.94,0,1,1,2.59,8A5.94,5.94,0,0,1,175.57,301.57Z" fill="#fff" />
                                <path d="M229.92,442.36a2.21,2.21,0,1,1,1,3A2.21,2.21,0,0,1,229.92,442.36Z" fill="#fff" />
                                <path d="M256.74,291.3a2.21,2.21,0,1,1,3-1A2.2,2.2,0,0,1,256.74,291.3Z" fill="#fff" />
                                <path d="M85.67,184.09a2.21,2.21,0,1,1,3-1A2.21,2.21,0,0,1,85.67,184.09Z" fill="#fff" />
                                <path d="M151.72,302.36a2.21,2.21,0,1,1,3-1A2.23,2.23,0,0,1,151.72,302.36Z" fill="#fff" />
                                <path d="M338.31,404.31a2.22,2.22,0,1,1,2.78,1.45A2.21,2.21,0,0,1,338.31,404.31Z" fill="#fff" />
                                <path d="M170.73,389.69a2.21,2.21,0,1,1,3-1A2.21,2.21,0,0,1,170.73,389.69Z" fill="#fff" />
                                <path d="M229.47,410.68a2.21,2.21,0,1,1,2.77,1.45A2.2,2.2,0,0,1,229.47,410.68Z" fill="#fff" />
                                <path d="M85.3,504.89a2.21,2.21,0,1,1-3,.93A2.21,2.21,0,0,1,85.3,504.89Z" fill="#fff" />
                                <path d="M64.13,427.76a2.21,2.21,0,1,1-3,.94A2.22,2.22,0,0,1,64.13,427.76Z" fill="#fff" />
                                <path d="M22.71,448.11a2.21,2.21,0,1,1-.93-3A2.21,2.21,0,0,1,22.71,448.11Z" fill="#fff" />
                                <path d="M112.48,415.4a2.21,2.21,0,1,1-.93-3A2.22,2.22,0,0,1,112.48,415.4Z" fill="#fff" />
                                <path d="M104.18,520.57a2.21,2.21,0,1,1-.93-3A2.2,2.2,0,0,1,104.18,520.57Z" fill="#fff" />
                                <path d="M29.33,413.44a2.21,2.21,0,1,1-3,.94A2.21,2.21,0,0,1,29.33,413.44Z" fill="#fff" />
                                <path d="M57.64,528.41a2.21,2.21,0,1,1-3,.93A2.2,2.2,0,0,1,57.64,528.41Z" fill="#fff" />
                                <path d="M22.71,448.11a2.21,2.21,0,1,1-.93-3A2.21,2.21,0,0,1,22.71,448.11Z" fill="#fff" />
                                <path d="M104.18,520.57a2.21,2.21,0,1,1-.93-3A2.2,2.2,0,0,1,104.18,520.57Z" fill="#fff" />
                                <path d="M29.33,413.44a2.21,2.21,0,1,1-3,.94A2.21,2.21,0,0,1,29.33,413.44Z" fill="#fff" />
                                <path d="M57.64,528.41a2.21,2.21,0,1,1-3,.93A2.2,2.2,0,0,1,57.64,528.41Z" fill="#fff" />
                                <path d="M25.62,491.36A2.21,2.21,0,1,1,27,488.57,2.22,2.22,0,0,1,25.62,491.36Z" fill="#fff" />
                                <path d="M30.23,570.46A2.21,2.21,0,1,1,27.44,569,2.21,2.21,0,0,1,30.23,570.46Z" fill="#fff" />
                                <path d="M3.54,514.08a2.21,2.21,0,1,1-.93-3A2.21,2.21,0,0,1,3.54,514.08Z" fill="#fff" />
                                <path d="M401.11,555.74a2.21,2.21,0,1,1-3,.93A2.21,2.21,0,0,1,401.11,555.74Z" fill="#fff" />
                                <path d="M380,478.61a2.21,2.21,0,1,1-3,.94A2.22,2.22,0,0,1,380,478.61Z" fill="#fff" />
                                <path d="M338.52,499a2.21,2.21,0,1,1-.93-3A2.21,2.21,0,0,1,338.52,499Z" fill="#fff" />
                                <path d="M428.29,466.26a2.2,2.2,0,0,1-3,.93,2.21,2.21,0,1,1,3-.93Z" fill="#fff" />
                                <path d="M420,571.42a2.21,2.21,0,1,1-.93-3A2.22,2.22,0,0,1,420,571.42Z" fill="#fff" />
                                <path d="M345.14,464.29a2.21,2.21,0,1,1-3,.94A2.22,2.22,0,0,1,345.14,464.29Z" fill="#fff" />
                                <path d="M373.46,579.26a2.21,2.21,0,1,1-3,.93A2.2,2.2,0,0,1,373.46,579.26Z" fill="#fff" />
                                <path d="M338.52,499a2.21,2.21,0,1,1-.93-3A2.21,2.21,0,0,1,338.52,499Z" fill="#fff" />
                                <path d="M420,571.42a2.21,2.21,0,1,1-.93-3A2.22,2.22,0,0,1,420,571.42Z" fill="#fff" />
                                <path d="M296.66,602.24a2.21,2.21,0,1,1-3,.94A2.22,2.22,0,0,1,296.66,602.24Z" fill="#fff" />
                                <path d="M345.14,464.29a2.21,2.21,0,1,1-3,.94A2.22,2.22,0,0,1,345.14,464.29Z" fill="#fff" />
                                <path d="M373.46,579.26a2.21,2.21,0,1,1-3,.93A2.2,2.2,0,0,1,373.46,579.26Z" fill="#fff" />
                                <path d="M341.43,542.21a2.21,2.21,0,1,1,1.43-2.79A2.2,2.2,0,0,1,341.43,542.21Z" fill="#fff" />
                                <path d="M346,621.31a2.21,2.21,0,1,1-2.78-1.42A2.22,2.22,0,0,1,346,621.31Z" fill="#fff" />
                                <path d="M319.36,564.93a2.21,2.21,0,1,1-.94-3A2.22,2.22,0,0,1,319.36,564.93Z" fill="#fff" />
                            </g>
                        </g>
                    </g>
                    <rect id="20cb0aa8-f263-4488-bf04-6467a70ec6d2" data-name="&lt;Path&gt;" x="116.55" y="75.95" width="316.82" height="10.11" rx="2.19" ry="2.19" fill="#00b956" />
                    <rect id="a0b6eebb-777e-466f-9807-6cfaa35728f0" data-name="&lt;Path&gt;" x="99.7" y="67.25" width="10.11" height="328.88" fill="#049e45" />
                    <rect id="e4311aea-76c6-4a35-9f53-6424ff510c25" data-name="&lt;Path&gt;" x="441.26" y="67.25" width="10.11" height="328.88" fill="#049e45" />
                    <rect id="b0a3d7b4-88d7-4ee7-b36f-5a4842cbad6a" data-name="&lt;Path&gt;" x="116.55" y="92.42" width="316.82" height="10.11" rx="2.19" ry="2.19" fill="#00b956" />
                    <rect id="41ad4dbe-9d0f-4949-aeb8-07f839e24a54" data-name="&lt;Path&gt;" x="116.55" y="107.88" width="316.82" height="10.11" rx="2.19" ry="2.19" fill="#00b956" />
                    <rect id="f55df2d6-ddcc-466b-86f7-5b52c27c9e99" data-name="&lt;Path&gt;" x="116.55" y="123.34" width="316.82" height="10.11" rx="2.19" ry="2.19" fill="#00b956" />
                    <rect id="89b280de-caec-4b95-af93-fc6c9539b74f" data-name="&lt;Path&gt;" x="116.55" y="138.79" width="316.82" height="10.11" rx="2.19" ry="2.19" fill="#00b956" />
                    <rect id="68690016-2cf7-4166-a114-66dc74c88086" data-name="&lt;Path&gt;" x="116.55" y="154.25" width="316.82" height="10.11" rx="2.19" ry="2.19" fill="#00b956" />
                    <rect id="1290a7e9-2a4c-4a42-96ed-7495aa70a8c9" data-name="&lt;Path&gt;" x="-98.34" y="396.6" width="746.59" height="139.85" fill="#00b956" />
                    <path id="e62f77dc-9d83-4cb8-8b72-b75349f75bfe" data-name="&lt;Path&gt;" d="M580.9,388.27H-34.87a7.89,7.89,0,0,0-7.86,7.86A7.89,7.89,0,0,0-34.87,404H580.9a7.86,7.86,0,0,0,0-15.72Z" fill="#049e45" />
                    <path id="947066fe-107f-4b27-90ee-f5205950e9be" data-name="&lt;Path&gt;" d="M624.27,311.78s-.09-.76-.31-2C624.05,310.44,624.15,311.12,624.27,311.78Z" fill="#93895d" />
                    <path d="M132.17,388H314.46s-21.63-15.89-37.63-20-29.27-11.18-40.29-4.6-21.88,9.77-28,7.84S180,360.57,166.45,368s-56.35,20-56.35,20Z" fill="#fff" opacity="0.4" />
                    <path id="f11147c1-71ee-429e-87c3-56579a679614" data-name="&lt;Path&gt;" d="M636,330.59s.18-2.23.14-5.66A36.71,36.71,0,0,0,636,330.59Z" fill="#93895d" />
                    <path id="58c86640-aba4-481a-bce9-037afa61990d" data-name="&lt;Path&gt;" d="M614.3,323.74s0-1.3-.17-3.39A17.85,17.85,0,0,0,614.3,323.74Z" fill="#93895d" />
                    <path id="2e5ee6e8-823b-4a23-aff7-60d3ff75b2fc" data-name="&lt;Path&gt;" d="M623.89,319.57c-.14-2.32.44-6.57.82-11.33A43.39,43.39,0,0,0,623.89,319.57Z" fill="#93895d" />
                    <path id="09f88ac5-6760-42c1-8f48-63cd2df59c74" data-name="&lt;Path&gt;" d="M636.14,324.93c0,3.43-.14,5.66-.14,5.66a36.71,36.71,0,0,1,.14-5.66c-.08-7.7-1.25-21.45-8-29.62a93.67,93.67,0,0,0-3.42,12.93c-.38,4.76-1,9-.82,11.33,0,.23.05.45.07.67.22,1.28.31,2,.31,2-.12-.66-.22-1.34-.31-2,0-.2-.05-.43-.07-.67a43.39,43.39,0,0,1,.82-11.33c.58-7.21.69-15.58-2.9-20.13,0,0-7.31,21.07-7.68,32.24.14,2.09.17,3.39.17,3.39a17.85,17.85,0,0,1-.17-3.39c-.46-7-2.23-22.85-8.85-29.24,0,0-2.66,8.32-2.74,22.56,0,0-7.8-10.93-13.08-16,0,0,.39,15.89,4.11,29.16,0,0-6.56-15-16.33-22.31,0,0-3.22,14,2.84,26.4,0,0-7.24-14.29-12.32-18.52,0,0-2.74,9.33,6.45,23.33,7,10.59,52.37,15.73,74,17.59V318.85c-.57-6.14-1.66-15.67-5.39-22.81C642.86,296,637.27,312.79,636.14,324.93Z" fill="#00e55c" />
                    <path id="65e3f840-4f75-43bf-8179-4634227b311e" data-name="&lt;Path&gt;" d="M641.15,327.57c-1.19-10.36-3.33-22.15-7.1-29.06a178.88,178.88,0,0,0-1.84,31.18c-1-5.6-2-18.8-8.09-26.51,0,0-3.67,14.3-2.43,24.76-3-10.22-7.84-23.83-13.26-29.43a94.88,94.88,0,0,0,0,38.86c-1.56-5.76-3.42-23.34-10-30.8,0,0-2.56,7.82-3.06,10.32-2.37-6.23-1.48-14.77-7.35-19.83,0,0-8.65,15.65-3.53,32-2.77-3.26-4.77-10.59-10.18-14.55,0,0-3,7.67-1.58,14.13-1.43-1.5-4.82-2.14-6.73-3.63,0,0,1,8.46,12.5,26.83,8.63,13.74,49.61,8.73,69.74,5.33V320.92c-1.24-4.39-2-11.56-4.52-14.09A146.18,146.18,0,0,0,641.15,327.57Z" fill="#00b956" />
                    <path id="115272af-036c-41a0-aab9-6f3f62793558" data-name="&lt;Path&gt;" d="M567.66,343.89v24.6a2.51,2.51,0,0,0,2.51,2.5h78.08V341.38H570.17A2.52,2.52,0,0,0,567.66,343.89Z" fill="#0aa549" />
                    <rect id="6f949020-4be1-4c67-b799-cd07848a2f23" data-name="&lt;Path&gt;" x="561.54" y="369.38" width="86.71" height="209.02" fill="#049e45" />
                    <rect x="-50.51" y="104.2" width="96.43" height="162.95" fill="#00e55c" />
                    <path d="M50,271.22H-54.58V100.12H50Zm-96.43-8.15H41.85V108.27H-46.43Z" fill="#00b956" />
                    <polygon id="d6dacdf5-2308-4d74-a0d3-dc27168b349e" data-name="&lt;Path&gt;" points="561.54 369.38 561.54 382.4 648.25 389.33 648.25 369.38 561.54 369.38" fill="#42210b" opacity="0.11" />
                    <rect id="3f1be1d5-f6d1-4072-8863-a4ebcb57dcec" data-name="&lt;Path&gt;" x="-30.29" y="129.47" width="55.99" height="112.4" fill="#049e45" />
                    <path id="377ed7e5-e1cd-4f5a-a387-564dc8cee3c8" data-name="&lt;Path&gt;" d="M554.15,369.38a7.87,7.87,0,0,0,7.94,7.75h86.16v-15.5H562.09A7.87,7.87,0,0,0,554.15,369.38Z" fill="#049e45" />
                    <path id="f21a450d-4947-4bdc-86bd-eb3cbb731aea" data-name="&lt;Path&gt;" d="M399.74,304.81a2,2,0,0,0-.18.83C399.64,305.36,399.68,305.09,399.74,304.81Z" fill="#3d2405" opacity="0.1" />
                    <path id="c36f84aa-068f-4d5a-b9b6-e925c1d16d3d" data-name="&lt;Path&gt;" d="M443.11,271.93c-.13.69.17-.68,0,0Z" fill="#c58375" />
                    <path id="b0559daa-eef7-4cfa-a1f0-c2a79ea230ea" data-name="&lt;Path&gt;" d="M141.93,363.92h0C141.83,364,141.73,364.15,141.93,363.92Z" fill="#555050" />
                    <path id="6cf7b4e9-0367-41d1-9637-f45d5047f011" data-name="&lt;Path&gt;" d="M141.93,363.92c.18-.24.09-.13,0,0Z" fill="#555050" />
                    <path id="0ce09fac-c7c7-4bf2-95e7-6bde6448b2a7" data-name="&lt;Path&gt;" d="M141.93,363.92h0Z" fill="#555050" />
                    <polygon id="4afa8322-6f92-47ad-b0f4-fd16785a104d" data-name="&lt;Path&gt;" points="399.74 446.13 399.75 446.13 399.76 446.13 399.74 446.13 399.74 446.13" fill="#9b8878" />
                    <rect x="500.69" y="104.2" width="96.43" height="162.95" fill="#00e55c" />
                    <path d="M601.2,271.22H496.62V100.12H601.2Zm-96.43-8.15h88.28V108.27H504.77Z" fill="#00b956" />
                    <rect id="7c36d7c0-b39a-4959-bed1-05974bfce7f2" data-name="&lt;Path&gt;" x="520.91" y="129.47" width="55.99" height="112.4" fill="#049e45" />
                    <path d="M345.86,650.28c18.06-.23,36.13,0,54.19.33l-125-562L149.47,653.55C214.94,654.1,280.4,651.15,345.86,650.28Z" opacity="0.49" fill="url(#9ede4dee-588e-4527-86c1-2ec607155dc0)" />
                    <g id="fcd23a1f-9949-4fc0-b85c-d5d976ae66fb" data-name="&lt;Group&gt;">
                        <path id="9624b918-6392-48ab-aca7-d2c028e8a2ad" data-name="&lt;Path&gt;" d="M278.85,77h-7.78a14,14,0,0,0-14,14v54.44h35.77V91A14,14,0,0,0,278.85,77Z" fill="#049e45" />
                        <rect id="40143dfa-8bcf-4b21-9340-14c178f737c7" data-name="&lt;Path&gt;" x="273.21" y="6.65" width="3.5" height="100.91" fill="#049e45" />
                        <path id="9baabfd8-7f99-49c3-9429-90c5a18f50fc" data-name="&lt;Path&gt;" d="M292.31,143H257.6a2.48,2.48,0,0,0,0,5h34.71a2.48,2.48,0,1,0,0-5Z" fill="#049e45" />
                    </g>
                    <path d="M442,377.56a22.92,22.92,0,0,0-6.44,2.05c-7.14-4.62-16.15-10.21-22.86-14.5C384.24,355.44,348.8,385,342,388H442Z" fill="#fff" opacity="0.4" />
                </g>
                <g>
                    <g>
                        <path d="M165.69,360.64l-2.6,70a7,7,0,0,0,5.23,7.06h0a7,7,0,0,0,8.76-5.83l9.64-69.3a10.56,10.56,0,0,0-8.08-11.75h0A10.56,10.56,0,0,0,165.69,360.64Z" fill="#049e45" />
                        <g id="61623c52-f976-4bfd-a1dc-6001384c4f51" data-name="&lt;Group&gt;">
                            <g>
                                <path d="M158.72,491.32a3.55,3.55,0,0,0,3.31,3.74,3.84,3.84,0,0,0,1.13-.11,3.56,3.56,0,0,0,2.57-2.78l5.37-28.81-10.67-.94Z" fill="#049e45" />
                                <path d="M169.66,424.21a7.07,7.07,0,0,0-2,.25,7.34,7.34,0,0,0-5.42,6.64l-1.85,31.32,10.67.94,5.69-30.48A7.33,7.33,0,0,0,169.66,424.21Z" fill="#049e45" />
                            </g>
                        </g>
                        <g>
                            <path d="M161.57,510.32l3.6,6.4a4,4,0,0,1-.84,4.95h0L158.59,511Z" fill="#049e45" />
                            <path d="M171.46,512.28h0L170,497l-.21,0,.12-.87-4.61-6.88-4.33,0a1.85,1.85,0,0,0-1.82,1.55l-2.9,16.94,5,16.47.25-.16a4.36,4.36,0,0,0,2-4l-.55-7.29,4-9.91L168.7,511A2,2,0,0,0,171.46,512.28Z" fill="#049e45" />
                        </g>
                    </g>
                    <path d="M235.64,470.27a15.81,15.81,0,0,1,3.07,11.18L226.17,597.91a10.36,10.36,0,0,1-10.74,9.27h0a10.34,10.34,0,0,1-9.88-10l-3.78-118.7a10.36,10.36,0,0,1,3-7.63l4.86-4.86a15.48,15.48,0,0,1,22.24.37l3.7,3.87Z" fill="#049e45" />
                    <path d="M226.84,594.58l-8,118.48H207.09L205.83,595l2-3c4.66-6.91,15-4.78,19,2.53Z" fill="#049e45" />
                    <path d="M166,468.59a15.81,15.81,0,0,0-3.07,11.18l12.54,116.46a10.35,10.35,0,0,0,10.73,9.27h0a10.35,10.35,0,0,0,9.89-10l3.77-118.69a10.32,10.32,0,0,0-3-7.63l-4.86-4.86a15.46,15.46,0,0,0-22.23.37L166,468.53Z" fill="#049e45" />
                    <path d="M174.74,592.89l8,118.49h11.76l1.26-118.07-2-2.94c-4.67-6.91-15-4.78-19,2.52Z" fill="#049e45" />
                    <g id="2404ffb6-4216-46f1-bea4-50e0a37e0913" data-name="&lt;Group&gt;">
                        <path d="M170.15,464.25l30.65.82,30.66-.82,3.21,6.14a51,51,0,0,1,5.72,26.38l-4.09,76.71h-71l-4.09-76.71a51.1,51.1,0,0,1,5.71-26.38Z" fill="#049e45" />
                    </g>
                    <g id="08ed14cb-2427-4531-9312-2af94d6165dd" data-name="&lt;Group&gt;">
                        <rect x="197.19" y="313.5" width="18.49" height="37.39" rx="7.35" ry="7.35" fill="#049e45" />
                        <path d="M215.68,320.85v17.27c-4.87-3.11-12.94-8.2-18.49-11.46v-5.81a7.37,7.37,0,0,1,7.35-7.35h3.78A7.38,7.38,0,0,1,215.68,320.85Z" fill="#049e45" />
                    </g>
                    <path d="M237.16,472.39H164l7.25-33.83a109.21,109.21,0,0,0,1.41-37.77c-1.72-12.5-5.69-25.24-3.83-38.06,2.28-15.68,12-18,24.45-24.64a24.92,24.92,0,0,1,23.43,0l5.05,2.68c6,2.25,9.61,11.26,12.56,14.22a18.63,18.63,0,0,1,5.49,13.2v32.35a18.51,18.51,0,0,1-2.64,9.55Z" fill="#049e45" />
                    <g>
                        <path d="M243.93,360.57l-.26,70.05a7,7,0,0,1-5.51,6.84h0a7,7,0,0,1-8.51-6.18l-6.81-69.63a10.57,10.57,0,0,1,8.55-11.41h0A10.57,10.57,0,0,1,243.93,360.57Z" fill="#049e45" />
                        <g id="8314af55-042c-447a-9674-f059afb97652" data-name="&lt;Group&gt;">
                            <g>
                                <path d="M245.55,491.42a3.55,3.55,0,0,1-3.46,3.6,3.45,3.45,0,0,1-1.12-.16,3.52,3.52,0,0,1-2.45-2.87l-4.2-29,10.7-.5Z" fill="#049e45" />
                                <path d="M237.36,423.93a7,7,0,0,1,1.95.32,7.34,7.34,0,0,1,5.14,6.86l.57,31.37-10.7.5-4.43-30.69A7.31,7.31,0,0,1,237.36,423.93Z" fill="#049e45" />
                            </g>
                        </g>
                        <g>
                            <path d="M241.92,510.29l-3.86,6.25a4,4,0,0,0,.64,5h0l6.17-10.41Z" fill="#049e45" />
                            <path d="M232,511.84h0l2.12-15.23.21,0-.09-.88L239.1,489l4.32.2a1.87,1.87,0,0,1,1.77,1.62l2.2,17-5.64,16.26-.24-.17a4.36,4.36,0,0,1-1.82-4.08l.85-7.26-3.62-10.07-2.15,8.05A1.94,1.94,0,0,1,232,511.84Z" fill="#049e45" />
                        </g>
                    </g>
                    <g>
                        <g id="57995612-9fc2-4c34-b1ab-6c941cd971bb" data-name="&lt;Group&gt;">
                            <g id="ff4f8283-af44-411b-bdd3-0034bc7e4902" data-name="&lt;Group&gt;">
                                <g>
                                    <use id="aee141f6-7c44-4bbf-adb7-c413edfe8e5c" data-name="New Symbol 23" width="3.26" height="4.72" transform="translate(234.99 282.41) scale(1.85)" xlink:href="#e11c1338-d51c-4062-bf9e-c4371cdc3ade" />
                                    <use id="644fbd30-9f1c-4614-a60d-5d31d5d50f35" data-name="New Symbol 32" width="3.79" height="1.45" transform="translate(234.4 276.19) scale(1.85)" xlink:href="#0b5261da-da9b-458d-984c-9b34a26d590b" />
                                </g>
                            </g>
                        </g>
                        <circle cx="235.64" cy="299.91" r="3.36" fill="#049e45" opacity="0.36" />
                        <path d="M242.76,261.91l-.92,54.44a13.56,13.56,0,0,1-18.75,12.3L205,321.14l-1.26-55.45L223.86,248Z" fill="#049e45" />
                    </g>
                    <g>
                        <path d="M173.08,285.49h48.53a4.31,4.31,0,0,1,4.31,4.31v47.65a0,0,0,0,1,0,0H168.77a0,0,0,0,1,0,0V289.79A4.31,4.31,0,0,1,173.08,285.49Z" transform="translate(394.69 622.93) rotate(-180)" fill="#049e45" />
                        <path d="M200.79,242.49h15.08c10.28,0,21.55,4.91,28.91,12.49a15.47,15.47,0,0,1-1.07,22.38l-15.87,13.87H168.77V274.51A32.12,32.12,0,0,1,200.79,242.49Z" fill="#049e45" />
                    </g>
                    <path d="M170.9,349.07h61c2.8,0,9.66-2.41,12.5-5.37C261.13,325.86,213.57,308,230,290.18a3.28,3.28,0,0,0-2.36-5.53H174.92a3.16,3.16,0,0,0-2.28,5.35c16.87,17.9-31.06,35.8-14.23,53.7C161.25,346.66,168.1,349.07,170.9,349.07Z" fill="#049e45" />
                </g>
            </g>
        </g>
        <g>
            <polygon points="353.18 644.02 351.25 658.87 330.1 658.8 331.74 644.37 353.18 644.02" fill="#6f7d8e" />
            <polygon points="388.3 646.13 388.25 661 409.54 661.07 409.78 645.63 388.3 646.13" fill="#6f7d8e" />
            <g>
                <rect x="388.26" y="658.94" width="46.28" height="13.57" rx="5.78" ry="5.78" transform="translate(10.44 -6.34) rotate(0.89)" fill="#685252" />
                <rect x="387.03" y="669.82" width="47.49" height="3.03" transform="translate(2.21 -1.35) rotate(0.19)" fill="#3f2f2f" />
                <polygon points="406.45 662.05 408.97 654.95 431.11 659.7 406.45 662.05" fill="#685252" />
                <polygon points="418.3 669.93 387.18 669.74 387.36 658.56 418.48 659.04 418.3 669.93" fill="#685252" />
            </g>
            <g>
                <g>
                    <g id="4653aa07-5f56-482e-a27b-2c6167e6e165" data-name="&lt;Group&gt;">
                        <path d="M349.5,328.92c-9.6.89-19.08,25.65-20.93,32.24l-2,7.09L322,403.56a11.55,11.55,0,0,0,9.49,13.23,11.3,11.3,0,0,0,12.7-9l12.42-67.11c.7-3.58-1.6-11.59-6.35-11.79A6,6,0,0,0,349.5,328.92Z" fill="#121738" stroke="#121738" stroke-miterlimit="10" stroke-width="6" />
                    </g>
                    <g id="0e4df61c-ab37-44f9-b47e-2773eef9e038" data-name="&lt;Group&gt;">
                        <g>
                            <path d="M325.64,469.72a2.62,2.62,0,0,1-.57-.07l0,.48,3.53-.44Z" fill="#ff8072" />
                            <path d="M341,461.67a2,2,0,0,1,.42,0l.6-50.64a10.45,10.45,0,1,0-20.87.79l3.4,50.21a2.38,2.38,0,0,1,1-.25Z" fill="#121738" stroke="#121738" stroke-miterlimit="10" stroke-width="6" />
                            <path d="M344.24,467.2l0-3.2a2.5,2.5,0,0,0-2.28-2.29,3.89,3.89,0,0,0-.49,0l-18.07.15a3,3,0,0,0-1.17.24,2.36,2.36,0,0,0-1.55,2.13l0,3.2a2.49,2.49,0,0,0,2.11,2.25,3.71,3.71,0,0,0,.67.07l3.49,0,14.58-.11.28,0A2.51,2.51,0,0,0,344.24,467.2Z" fill="#d4f0fe" />
                            <path d="M328.63,469.69l-3.53.44.4,5.83a7.89,7.89,0,0,0,7.16,7.22,7.75,7.75,0,0,0,1.18,0,7.9,7.9,0,0,0,7.42-7.84l.07-5.82-.24,0Z" fill="#f6b297" />
                        </g>
                    </g>
                </g>
                <path d="M416.49,326.14c9.58-1.06,23.84,21.29,27,27.39l3.36,6.54,11.6,33.67a11.55,11.55,0,0,1-6.64,14.86,11.28,11.28,0,0,1-14.24-6.26S412,339.19,411.9,339.09c-1.4-3.37-.76-11.68,3.86-12.82A4.46,4.46,0,0,1,416.49,326.14Z" fill="#121738" stroke="#121738" stroke-miterlimit="10" stroke-width="6" />
                <path d="M348.85,446.09H417.2a0,0,0,0,1,0,0v34.5A10.36,10.36,0,0,1,406.84,491H359.2a10.36,10.36,0,0,1-10.36-10.36v-34.5A0,0,0,0,1,348.85,446.09Z" transform="translate(1.54 -1.26) rotate(0.19)" fill="#384d6b" />
                <g>
                    <g>
                        <g id="0b537bfa-969a-4561-91c9-598c416a911e" data-name="&lt;Group&gt;">
                            <path d="M352.32,570h0c-6-.61-10.31-5.39-9.77-10.79l9.5-91.91c.63-6.35,7.6-10.61,14.38-8.79l12.34,3.32c5.63,1.52,9,6.7,7.6,11.85l-21.86,88.59C363.21,567.25,358,570.58,352.32,570Z" fill="#384d6b" stroke="#374c6a" stroke-miterlimit="10" stroke-width="5" />
                        </g>
                        <g id="2aafb80a-ebfb-4212-9619-a2bc52e2e514" data-name="&lt;Group&gt;">
                            <path d="M364,564.72c.85-5.4-3.18-10.42-9.13-11.39-6.79-1.1-13.14,3.47-13.42,9.68l-1.79,20.41-.31.24-7.29,63.49a1.92,1.92,0,0,0,1.71,2.05l16.58,1c1.2.19,1.52-3.44,1.68-4.52Z" fill="#384d6b" stroke="#374c6a" stroke-miterlimit="10" stroke-width="5" />
                        </g>
                    </g>
                    <g>
                        <g id="0ddb0927-85c3-436d-9af8-9d1fcb5be69a" data-name="&lt;Group&gt;">
                            <path d="M400.83,566.21h0a10.59,10.59,0,0,0,10.95-9.8l5-94.93c.37-6.56-5.62-11.76-12.35-10.74l-12.27,1.86a10.45,10.45,0,0,0-9,11.15l7.3,93.07A10.54,10.54,0,0,0,400.83,566.21Z" fill="#384d6b" stroke="#374c6a" stroke-miterlimit="10" stroke-width="5" />
                        </g>
                        <g id="fa708fd4-1c0c-47e2-8fc0-f8785ebbce24" data-name="&lt;Group&gt;">
                            <path d="M390.48,559.38a10.89,10.89,0,1,1,21.75,1l-1.41,21,.26.28-2.75,65.67a2,2,0,0,1-1.94,1.88l-14.79.64a2,2,0,0,1-2.12-2Z" fill="#384d6b" stroke="#374c6a" stroke-miterlimit="10" stroke-width="5" />
                        </g>
                    </g>
                </g>
                <path d="M429.17,338.5c-.89-11.13-16.26-18.72-24.17-22.7-2-1-18.11-6.49-20.38-5.64-2.26-.87-18.38,4.5-20.41,5.5-7.94,3.93-23.35,11.42-24.32,22.55-.53,6.1-.88,13.87-.61,16.71l4.66,114.16c.11,1.12,7.07,2.48,9.18,2.6L376,471.5q3.87.24,7.74.27h.68v0c2.58,0,5.16-.07,7.74-.22l22.89-1.35c2.11-.1,8.93-1.09,9-2.21l5.56-112.78C430,352.38,429.65,344.61,429.17,338.5Z" fill="#000429" />
                <path d="M410.05,318.35l-16.83,49.23-9.14,23.52-1.62.76,0-.14-7.7-22.08L357,318.85l1.24-.79a47.39,47.39,0,0,1,51.38,0Z" fill="#e8f3f7" />
                <g>
                    <polygon points="357.95 317.88 350.78 337.99 363.93 344.6 355.21 361.47 383.77 391.87 357.95 317.88" fill="#607189" />
                    <polygon points="410.01 318.06 417.02 338.23 403.82 344.74 412.41 361.67 383.61 391.84 410.01 318.06" fill="#607189" />
                </g>
                <polygon points="383.76 391.74 384.08 391.1 392.36 367.39 389.44 347.32 385.58 340.18 392.35 330.55 384.29 318.92 374.48 331.91 380.12 340.3 375.9 350.45 375.54 369.83 383.76 391.74" fill="#67008d" />
                <path d="M371.81,334.3l12.48-9.24,11.95,8.54c4.6-3.42,7.55-8.54,7.57-13.94,0-9.5-9-18.27-20.24-18.31s-20.32,8.67-20.35,18.18C363.2,325.35,366.6,330.87,371.81,334.3Z" fill="#d4f0fe" />
                <path d="M367.55,285.47h32.6a11.21,11.21,0,0,1,11.21,11.21v4.48a11.2,11.2,0,0,1-11.2,11.2h-32.6a11.2,11.2,0,0,1-11.2-11.2v-4.48a11.21,11.21,0,0,1,11.21-11.21Z" transform="translate(83.67 681.77) rotate(-89.81)" fill="#f29583" />
                <path d="M397.34,282.66,397.27,306l-26.87-6.79.05-16.68a11.2,11.2,0,0,1,11.24-11.17l4.49,0A11.19,11.19,0,0,1,397.34,282.66Z" fill="#ef9f8a" />
                <g>
                    <path d="M461.79,333.76a2.26,2.26,0,0,0-.57-.09l.17-.45,3.26,1.41Z" fill="#ff8072" />
                    <path d="M474.28,345.8a2.07,2.07,0,0,0,.42.08l-13.64,48.78A10.45,10.45,0,1,1,441.25,388l17.36-47.24a2.33,2.33,0,0,0,.89.52Z" fill="#121738" stroke="#121738" stroke-miterlimit="10" stroke-width="6" />
                    <path d="M479.5,341.36l-1.05,3.48a2.67,2.67,0,0,1-2.86,1.86,2,2,0,0,1-.47-.09l-16.77-5.09a2.61,2.61,0,0,1-1-.59,2.67,2.67,0,0,1-.76-2.73l1.06-3.48a2.67,2.67,0,0,1,2.68-1.87,2.37,2.37,0,0,1,.64.1l3.24,1L477.73,338l.26.11A2.66,2.66,0,0,1,479.5,341.36Z" fill="#d4f0fe" />
                    <path d="M464.65,334.63l-3.26-1.41,2-5.49a7.9,7.9,0,0,1,8.9-4.92,7.74,7.74,0,0,1,1.14.32,7.9,7.9,0,0,1,4.92,9.6l-1.57,5.61a1.45,1.45,0,0,0-.22-.09Z" fill="#f6b297" />
                </g>
                <g id="5e3a2b14-8900-45ce-b765-e305ddac18b7" data-name="ÕÓ‚˚È_ÒËÏ‚ÓÎ_3_1_">
                    <g>
                        <path d="M336.57,487l-14.26,0a11.66,11.66,0,0,0-11.68,11.61l0,7.57a.58.58,0,0,0,.58.58h4.32a.58.58,0,0,0,.58-.57l0-7.57a6.17,6.17,0,0,1,6.19-6.15l14.25.05a6.17,6.17,0,0,1,6.15,6.18l0,7.57a.58.58,0,0,0,.58.58l4.33,0a.58.58,0,0,0,.57-.58l0-7.57A11.66,11.66,0,0,0,336.57,487Z" fill="#000429" />
                        <rect x="285.82" y="506.74" width="92.86" height="66.41" transform="translate(1.78 -1.09) rotate(0.19)" fill="#000429" />
                        <rect x="280.28" y="506.72" width="92.86" height="66.41" transform="translate(1.78 -1.07) rotate(0.19)" fill="#13193d" />
                    </g>
                </g>
                <g id="32a4f718-7631-4025-9acd-4bbf168acd5d" data-name="ÕÓ‚˚È_ÒËÏ‚ÓÎ_38_1_">
                    <g>
                        <path d="M337,495.31l-.37-8.32,6.32.57a2.09,2.09,0,0,0,.33-2.72l-6.43-9.72a5.25,5.25,0,0,0-4.06-2.36l-5.47-.13a2.1,2.1,0,0,0-.36,0,2.19,2.19,0,0,0-2,1.28l-7.45,16.27,5,11.17,2.47.25,1.26.11,3.13.3,1.46.15h0l3.65.35,2.52-2.22.38-5Z" fill="#f6b297" />
                        <rect x="332.1" y="492.28" width="1.04" height="10.28" transform="translate(-158.45 155.49) rotate(-21.38)" fill="#f29583" />
                        <polygon points="330.83 502.13 329.37 501.98 325.74 493.5 326.71 493.08 330.83 502.13" fill="#f29583" />
                        <polygon points="326.24 501.68 324.98 501.57 321.35 493.07 322.32 492.66 326.24 501.68" fill="#f29583" />
                        <polygon points="336.61 501.25 342.17 494.53 338.62 491.75 336.24 491.74 336.61 501.25" fill="#f29583" />
                    </g>
                </g>
                <g>
                    <polygon points="478.61 295.58 475.67 295.42 472.85 305.92 475.92 306.6 478.61 295.58" fill="#f6b297" />
                    <path d="M463.44,322.32l3.49-11.23,8.74-9.62a.35.35,0,0,1,.6.31l-1.94,8.77,15-.32,9.5,2.11a1.29,1.29,0,0,1,1,1.53l-.4,1.79a1.26,1.26,0,0,1-.94,1h0a1.29,1.29,0,0,0-.94,1l-.69,3.11a1.27,1.27,0,0,1-.73.89l-.5.23a1.32,1.32,0,0,0-.7.8l-.94,3.11a1.3,1.3,0,0,1-1,.9l-.24,0a1.26,1.26,0,0,0-1,1l-.33,1.47a1.31,1.31,0,0,1-.94,1l-13.82,4.8a7.54,7.54,0,0,1-6.32-1.25l-4.09-3A7.56,7.56,0,0,1,463.44,322.32Z" fill="#f6b297" />
                    <rect x="473.99" y="289.74" width="19.9" height="37.09" rx="2.35" ry="2.35" transform="translate(889.74 713.95) rotate(-167.51)" fill="#67008d" />
                    <g>
                        <path d="M486.67,317.27l9.62.46a1.52,1.52,0,0,0,1.43-1.31l.65-2.95c.22-1-.33-1.88-1.14-1.87l-10.23.13a1.65,1.65,0,0,0-1.41,1.71l0,2.34A1.34,1.34,0,0,0,486.67,317.27Z" fill="#f6b297" />
                        <path d="M484.87,324l7.87.79c.52.05,1.14-.61,1.43-1.56l1.1-3.53c.37-1.18.09-2.28-.59-2.29l-8.48-.08c-.62,0-1.3.93-1.49,2l-.49,2.82C484.05,323.18,484.33,324,484.87,324Z" fill="#f6b297" />
                        <path d="M485.28,328.62l5.18,2.05c.41.1,1-.44,1.31-1.25l1.27-3c.43-1,.33-2-.19-2.08l-6.67-.81c-.49-.06-1.13.71-1.41,1.67l-.55,1.59A1.78,1.78,0,0,0,485.28,328.62Z" fill="#f6b297" />
                    </g>
                </g>
                <g>
                    <g>
                        <path d="M400.32,283.6l-31.85.42c-7.79.11-14.9-5.61-15.8-13.08l-4.41-36.71c-1.25-10.4,5.92-19.3,15.93-19.1l40.71.8c9.53.19,16.19,9,15,19l-4.36,35.53C414.6,277.77,407.82,283.5,400.32,283.6Z" fill="#352525" />
                        <path d="M412.29,237.28l-.14,42.54c0,.66-.06,2-.19,3.52-.33,4-1,9.83-2.12,11.14l-16.15,17.27a10.43,10.43,0,0,1-8.16,3.88H382.6a10.47,10.47,0,0,1-8.05-3.81L358,294.34c-1.28-1.57-2.05-9.33-2.26-13.14,0-.7-.05-1.28,0-1.65l.13-42.2a10.36,10.36,0,0,1,6.71-9.63l16.87-6.4a10.72,10.72,0,0,1,2.67-.64,10.35,10.35,0,0,1,4.37.5l18.76,6.27A10.32,10.32,0,0,1,412.29,237.28Z" fill="#ffb597" />
                        <path d="M421.52,200.78c-.57-2-1.25-4.06-2-6.1l-53.91,16.2a25.46,25.46,0,0,0-6.89,3.8,9.5,9.5,0,0,0-2.84,10.94c4.23,1.27,8.6,0,12.89-.67l.16,0c-.32,0,4.72,3.95,5.21,4.2C395.37,239.92,429.72,229.58,421.52,200.78Z" fill="#352525" />
                        <g>
                            <path d="M357.52,280h-3.2c-3.82,0-6.91-4.34-6.89-9.66v-3c0-4.5,2.65-8.14,5.88-8.13h4.26S357.51,281.47,357.52,280Z" fill="#ffb597" />
                            <path d="M409.89,279.84H413c3.71,0,6.72-4.16,6.74-9.31v-2.87c0-4.37-2.52-7.91-5.65-7.92H410S409.88,281.27,409.89,279.84Z" fill="#ffb597" />
                        </g>
                        <g>
                            <path d="M412.87,256.85l-.08,24.78c0,.62-.06,1.86-.21,3.35-1.13,12.3-11.46,19.1-19.88,27a12.17,12.17,0,0,1-8.4,3.68s-1,0-1,0a12,12,0,0,1-8.37-3.71c-8.94-8.44-18.61-14.27-19.71-27.1a2.08,2.08,0,0,0,0-.23c-.12-1.38-.17-2.53-.17-3.11l.08-24.78a.45.45,0,0,1,.9-.05l2.4,18.87.72,5.69a1.36,1.36,0,0,0,2,1l5.82-3a11.69,11.69,0,0,1,8.7-.8l5,2.77a11.51,11.51,0,0,0,6.58,0l5-2.74a11.67,11.67,0,0,1,8.69.86l5.81,3a1.35,1.35,0,0,0,2-1l.54-4L412,256.79A.44.44,0,0,1,412.87,256.85Z" fill="#634747" />
                            <path d="M384.21,316.11a7.82,7.82,0,0,1-.94,0h0a12.48,12.48,0,0,1-8.71-3.87c-1.61-1.51-3.28-3-4.9-4.4-7.21-6.33-14-12.31-14.94-23,0,0,0-.07,0-.12v-.12c-.13-1.44-.18-2.6-.18-3.15l.09-24.79a.94.94,0,0,1,1.87-.11l3.12,24.56a.85.85,0,0,0,.45.66.87.87,0,0,0,.8,0l5.83-3a12,12,0,0,1,9.06-.84l.1,0,5,2.75a11,11,0,0,0,6.21,0L392.1,278a12.07,12.07,0,0,1,9,.9l5.81,3a.84.84,0,0,0,.8,0,.83.83,0,0,0,.46-.64l3.28-24.54a.94.94,0,0,1,1-.82.92.92,0,0,1,.86.94l-.08,24.78c0,.62-.06,1.88-.21,3.39-1,10.44-8.46,17-15.72,23.41-1.43,1.26-2.92,2.56-4.32,3.87a12.66,12.66,0,0,1-8.7,3.81Zm-.43-1h.53a11.7,11.7,0,0,0,8-3.53c1.44-1.34,2.93-2.65,4.37-3.92,7.11-6.24,14.46-12.7,15.39-22.76.15-1.48.2-2.7.2-3.3l.08-24.1-3.19,23.86a1.84,1.84,0,0,1-2.68,1.39l-5.81-3a11.14,11.14,0,0,0-8.28-.84l-5.08,2.76a12,12,0,0,1-6.86,0l-.1,0-5-2.75a11.13,11.13,0,0,0-8.28.78l-5.83,3a1.85,1.85,0,0,1-1.71,0,1.82,1.82,0,0,1-1-1.39l-3.12-24.56v24.77c0,.53,0,1.66.17,3.07,0,0,0,.07,0,.12l0,.11c.87,10.28,7.24,15.87,14.61,22.34,1.62,1.42,3.3,2.9,4.94,4.45a11.62,11.62,0,0,0,8.06,3.58Z" fill="#634747" />
                        </g>
                    </g>
                    <g>
                        <g id="e585adec-0d99-47b0-b602-023c5bff02a3" data-name="&lt;Group&gt;">
                            <path d="M366.19,251.33l1,3.43s5.4-3.41,8.32-.95l.51-4.89S368.65,246.94,366.19,251.33Z" fill="#352525" />
                        </g>
                        <g id="c8a8380c-efde-4133-93e2-2da2325808fa" data-name="&lt;Group&gt;">
                            <path d="M401.81,251.45l-1,3.42s-5.37-3.44-8.32-1L392,249S399.38,247,401.81,251.45Z" fill="#352525" />
                        </g>
                    </g>
                    <g id="e0c3cf97-1b2e-4c2b-810e-b52e31ef28ad" data-name="&lt;Group&gt;">
                        <path d="M375.44,291.13a.63.63,0,0,0-.57.93,10.8,10.8,0,0,0,18,.06.62.62,0,0,0-.56-.93Z" fill="#fff" />
                    </g>
                    <g id="903babe3-e3e5-4dba-b182-c9838b83e38a" data-name="&lt;Group&gt;">
                        <path d="M396.82,264.2h0c1.81,0,3.29-1,3.29-2.21v-2c0-1.22-1.47-2.22-3.28-2.23h0c-1.8,0-3.28,1-3.28,2.21v2C393.55,263.19,395,264.19,396.82,264.2Z" fill="#67413a" />
                    </g>
                    <g id="6807b105-30e5-4746-af37-d99f05661ac5" data-name="&lt;Group&gt;">
                        <path d="M371.12,264.06h0c1.79,0,3.26-1,3.26-2.19v-2c0-1.21-1.46-2.21-3.25-2.22h0c-1.79,0-3.26,1-3.26,2.2v2C367.87,263.06,369.33,264.06,371.12,264.06Z" fill="#67413a" />
                    </g>
                    <g>
                        <g>
                            <path d="M372.08,275.68l-9,0a10,10,0,0,1-10-10.06l0-9a30,30,0,0,1,.17-3.21l3.48.66c0,.34-.11,2-.11,2.56l0,9a6.49,6.49,0,0,0,6.46,6.5l9,0a6.49,6.49,0,0,0,6.5-6.46l0-9a6.38,6.38,0,0,0-.32-2c-.07-.21-.16-.43-.24-.64l3.28-1.34c.12.29.23.57.33.88a10.25,10.25,0,0,1,.5,3.14l0,9A10,10,0,0,1,372.08,275.68Z" fill="#000429" />
                            <polygon points="349.34 262.74 346.68 260.4 354.09 251.98 381.52 251.54 382.16 257.82 378.63 258.18 378.32 255.13 355.72 255.5 349.34 262.74" fill="#000429" />
                        </g>
                        <g id="752be2e6-64ec-4e89-9444-79fb307dd929" data-name="&lt;Group&gt;">
                            <path d="M404.77,275.79l-9,0a10,10,0,0,1-10-10.06l0-9a10.46,10.46,0,0,1,.51-3.13c.11-.31.23-.6.35-.89l3.27,1.37c-.09.21-.18.43-.26.65a6.46,6.46,0,0,0-.32,2l0,9a6.49,6.49,0,0,0,6.46,6.5l9,0a6.48,6.48,0,0,0,6.5-6.46l0-9c0-.59,0-2.22-.1-2.56l3.49-.65a31.89,31.89,0,0,1,.15,3.22l0,9A10,10,0,0,1,404.77,275.79Z" fill="#000429" />
                            <polygon points="418.6 262.97 412.27 255.69 389.67 255.17 389.34 258.21 385.81 257.83 386.5 251.55 413.92 252.18 421.27 260.64 418.6 262.97" fill="#000429" />
                        </g>
                    </g>
                </g>
                <rect x="380.85" y="251.54" width="6.25" height="3.74" transform="translate(0.84 -1.26) rotate(0.19)" fill="#000429" />
            </g>
            <g>
                <rect x="305.06" y="657.66" width="46.28" height="13.57" rx="5.78" ry="5.78" transform="translate(662.38 1325.9) rotate(179.48)" fill="#685252" />
                <rect x="305.04" y="668.55" width="47.49" height="3.03" transform="translate(655.37 1341.19) rotate(-179.81)" fill="#3f2f2f" />
                <polygon points="333.18 660.81 330.7 653.69 308.54 658.29 333.18 660.81" fill="#685252" />
                <polygon points="321.28 668.61 352.39 668.62 352.29 657.44 321.17 657.73 321.28 668.61" fill="#685252" />
            </g>
        </g>
    </g>
</svg>