<svg xmlns="http://www.w3.org/2000/svg" xmlns:xlink="http://www.w3.org/1999/xlink" width="700" height="700" viewBox="0 0 700 700">
  <defs>
    <clipPath id="d5b49034-b5b5-48ba-9050-a163bd240c17">
      <circle cx="1477.08" cy="347.69" r="280.33" fill="none"/>
    </clipPath>
    <clipPath id="15eea4b3-8107-42ae-93b0-b948c1884a2c">
      <rect x="846.73" y="54.07" width="346.48" height="330.6" fill="none"/>
    </clipPath>
    <clipPath id="28eea642-82a6-4911-9a3f-ddccc4d007e7">
      <circle cx="344.79" cy="347.8" r="279.2" fill="none"/>
    </clipPath>
    <clipPath id="5ab89967-dcf8-4bdd-bc68-bfe4ee6b6e34">
      <rect x="173.6" y="61.1" width="337.85" height="322.36" fill="none"/>
    </clipPath>
    <linearGradient id="9d38cb62-2ad1-4f64-84dc-83cf3ad56fd7" x1="344.1" y1="90.07" x2="344.1" y2="1013.7" gradientUnits="userSpaceOnUse">
      <stop offset="0" stop-color="#fff"/>
      <stop offset="1" stop-color="#fff" stop-opacity="0"/>
    </linearGradient>
    <symbol id="2add2eb3-695e-493d-afa3-462bce0ab46a" data-name="New Symbol 23" viewBox="0 0 3.26 4.72">
      <path d="M1.63,4.72h0A1.63,1.63,0,0,1,0,3.09V1.63A1.63,1.63,0,0,1,1.63,0h0A1.63,1.63,0,0,1,3.26,1.63V3.09A1.63,1.63,0,0,1,1.63,4.72Z" fill="#67413a"/>
    </symbol>
    <symbol id="c9e6a470-ac02-4ea3-ae4b-c5d6057d2067" data-name="New Symbol 32" viewBox="0 0 3.79 1.46">
      <path d="M.25,1.2,0,.18A5.87,5.87,0,0,1,3.79.49l-.42,1A4.9,4.9,0,0,0,.25,1.2Z" fill="#b0593c"/>
    </symbol>
  </defs>
  <title>oleg-2</title>
  <g id="507b51c6-b9ee-40fc-b6e4-a7f121e01891" data-name="back6">
    <rect y="-4.8" width="701.05" height="703.44" fill="#f4e6bb"/>
  </g>
  <g id="6835896a-03f7-4967-bb5b-623f54cd78dc" data-name="img6">
    <circle cx="344.98" cy="347.42" r="279.44" fill="#e5bf61"/>
  </g>
  <g id="5a5edac8-84c4-4462-badb-7545715e3be0" data-name="bck3">
    <g clip-path="url(#d5b49034-b5b5-48ba-9050-a163bd240c17)">
      <g>
        <path id="93cbc939-bb52-448b-b357-eee74a8d9df4" data-name="&lt;Path&gt;" d="M645.28,315c0-.52,0-1.07-.06-1.64C645.24,314.39,645.28,315,645.28,315Z" fill="#93895d"/>
        <path id="2ffc0a9e-9925-4b95-87ea-172c3ae3122e" data-name="&lt;Path&gt;" d="M720.11,330.26c9.25-14.1,6.5-23.5,6.5-23.5-5.12,4.26-12.41,18.65-12.41,18.65a48.35,48.35,0,0,0,4.53-24.82c-9.85,7.35-18.12,20.71-18.12,20.71,3.75-13.36,4.14-29.37,4.14-29.37-5.32,5.14-8.86,13.66-8.86,13.66,3.15-16.74,2.16-18.07,2.16-18.07-8.66,8.37-18.31,30.69-18.31,30.69,1.58-9.54,0-29.36,0-29.36-6.26,7.93-8.91,20.86-9.73,25.84-.09.71-.19,1.39-.31,2.06,0,0,.09-.77.31-2.06,1.23-9.86-.31-22.91-.31-22.91-9.85,11.9-11.81,33.34-11.81,33.34.78-11.75-6.5-33.34-6.5-33.34-5.95,11.39-6.26,25.12-6.17,29.78q.06.85.06,1.65s0-.6-.06-1.65c-.08-1.23-.23-2.54-.45-3.91V348C666.26,346.22,713,341.05,720.11,330.26Z" fill="#00e55c"/>
        <path id="b83e9e22-3e2f-4437-90b0-279f843f7a57" data-name="&lt;Path&gt;" d="M670,306.47c-.22,1.29-.31,2-.31,2C669.82,307.86,669.92,307.17,670,306.47Z" fill="#93895d"/>
        <path id="aaf61173-d15d-41f0-b785-310a8c6c9ceb" data-name="&lt;Path&gt;" d="M715.78,346.55c11.61-18.5,10.83-27.89,10.83-27.89a44.41,44.41,0,0,0-5,4.53c1.45-6.51.29-10.56.29-10.56a70.24,70.24,0,0,0-12.13,11,56.11,56.11,0,0,0,1.1-30.06,43.62,43.62,0,0,0-12.06,17.77,8.63,8.63,0,0,0-1.33-3.53c-6.62,7.52-10.25,18.35-11.82,24.15a95.56,95.56,0,0,0,0-39.13c-5.46,5.63-10.3,19.34-13.36,29.63a59.4,59.4,0,0,0-.95-19.35,46.38,46.38,0,0,0-9.64,21.12,179.48,179.48,0,0,0-1.85-31.4c-3.8,6.95-6,18.83-7.15,29.26a171.27,171.27,0,0,0-1.51-17.66c-3,3-5,8-6.25,13.29-.05-1-.11-2-.17-3v37.12C664.74,355.21,707,360.57,715.78,346.55Z" fill="#00b956"/>
        <path id="d7159ae0-02bf-4fe4-9db0-c3a1e129ec22" data-name="&lt;Path&gt;" d="M726.7,365.62V340.86a2.53,2.53,0,0,0-2.52-2.53H644.77v29.82h79.41A2.53,2.53,0,0,0,726.7,365.62Z" fill="#0aa549"/>
        <rect id="843f715b-0419-4a57-908c-25b27e46db6b" data-name="&lt;Path&gt;" x="644.77" y="366.53" width="88.1" height="210.49" fill="#049e45"/>
        <polygon id="1400b0f9-4e42-456e-aa6f-399c661a0b0c" data-name="&lt;Path&gt;" points="732.87 366.52 644.77 366.52 644.77 386.68 732.87 379.63 732.87 366.52" fill="#42210b" opacity="0.11"/>
        <path id="b66736bd-1abe-4f27-9ce8-d9225c59e5aa" data-name="&lt;Path&gt;" d="M736.26,366.53a7.36,7.36,0,0,0-7.37-7.3H640.66v14.6h88.23A7.36,7.36,0,0,0,736.26,366.53Z" fill="#049e45"/>
        <g>
          <rect id="92280655-fad9-4e98-b7f7-cf15fea306b5" data-name="&lt;Path&gt;" x="644.77" y="62.27" width="1306.72" height="563.87" fill="#00d159"/>
          <g opacity="0.43">
            <g clip-path="url(#15eea4b3-8107-42ae-93b0-b948c1884a2c)">
              <path d="M691.59,299a2.23,2.23,0,1,1-1-3A2.23,2.23,0,0,1,691.59,299Z" fill="#fff"/>
            </g>
          </g>
          <rect id="5ec316ee-0348-449c-b593-1abfab287309" data-name="&lt;Path&gt;" x="644.77" y="393.94" width="892.58" height="140.83" fill="#00b956"/>
          <rect x="692.93" y="99.48" width="97.11" height="164.09" fill="#00e55c"/>
          <path d="M794.14,267.68H688.83V95.38H794.14ZM697,259.47h88.91V103.58H697Z" fill="#00b956"/>
        </g>
      </g>
    </g>
  </g>
  <g id="ab48a780-3eef-484d-be0e-02fb7b67e251" data-name="bck2">
    <rect x="-1.7" y="-3.06" width="708.3" height="703.09" fill="#aef2cc"/>
    <circle cx="343.88" cy="347.05" r="277.95" fill="#00d159"/>
    <g clip-path="url(#28eea642-82a6-4911-9a3f-ddccc4d007e7)">
      <g>
        <g>
          <rect id="8b7aea51-a415-4169-b985-a9b89b246381" data-name="&lt;Path&gt;" x="-23.34" y="69.09" width="733.09" height="549.82" fill="#00d159"/>
          <rect id="da6f7ac8-d263-41c5-b393-7952460bd68a" data-name="&lt;Path&gt;" x="174.97" y="69.09" width="336.47" height="314.36" fill="#00e55c"/>
          <g opacity="0.43">
            <g clip-path="url(#5ab89967-dcf8-4bdd-bc68-bfe4ee6b6e34)">
              <g>
                <path d="M548.49,274.1a5.15,5.15,0,1,1-3.33,6.49A5.14,5.14,0,0,1,548.49,274.1Z" fill="#fff"/>
                <path d="M134,75.39a5.15,5.15,0,1,1-3.32,6.49A5.16,5.16,0,0,1,134,75.39Z" fill="#fff"/>
                <path d="M481.76,112.54a5.15,5.15,0,1,1-3.32,6.49A5.15,5.15,0,0,1,481.76,112.54Z" fill="#fff"/>
                <path d="M644.21,405.15a2.17,2.17,0,1,1-1.4,2.73A2.17,2.17,0,0,1,644.21,405.15Z" fill="#fff"/>
                <path d="M481.38,196a2.17,2.17,0,1,1-2.94.92A2.17,2.17,0,0,1,481.38,196Z" fill="#fff"/>
                <path d="M65.51,107.81a2.17,2.17,0,1,1-1.4,2.74A2.17,2.17,0,0,1,65.51,107.81Z" fill="#fff"/>
                <path d="M478.41,43.59a2.17,2.17,0,1,1-2.93.91A2.16,2.16,0,0,1,478.41,43.59Z" fill="#fff"/>
                <path d="M604.4,125.58a2.17,2.17,0,1,1-2.94.92A2.18,2.18,0,0,1,604.4,125.58Z" fill="#fff"/>
                <path d="M405.71,144.16a2.17,2.17,0,1,1-2.93.91A2.16,2.16,0,0,1,405.71,144.16Z" fill="#fff"/>
                <path d="M583.62,49.85a2.17,2.17,0,1,1-2.94.92A2.18,2.18,0,0,1,583.62,49.85Z" fill="#fff"/>
                <path d="M342.56,163.82a2.17,2.17,0,1,1,.91,2.94A2.17,2.17,0,0,1,342.56,163.82Z" fill="#fff"/>
                <path d="M376.93,116.27a2.17,2.17,0,1,1,.92,2.93A2.17,2.17,0,0,1,376.93,116.27Z" fill="#fff"/>
                <path d="M593.1,343.06A2.17,2.17,0,1,1,594,346,2.18,2.18,0,0,1,593.1,343.06Z" fill="#fff"/>
                <path d="M527,312a2.17,2.17,0,1,1,.92,2.93A2.18,2.18,0,0,1,527,312Z" fill="#fff"/>
                <path d="M466.21,345.65a4.73,4.73,0,1,1-5.95-3A4.72,4.72,0,0,1,466.21,345.65Z" fill="#fff"/>
                <path d="M377.32,204.17a5.15,5.15,0,1,1-6.49-3.32A5.15,5.15,0,0,1,377.32,204.17Z" fill="#fff"/>
                <path d="M600.14,438.2a5.15,5.15,0,1,1-6.5-3.32A5.17,5.17,0,0,1,600.14,438.2Z" fill="#fff"/>
                <path d="M295.57,153.05a5.83,5.83,0,1,1-7.34-3.76A5.83,5.83,0,0,1,295.57,153.05Z" fill="#fff"/>
                <path d="M533,251.39a2.17,2.17,0,1,1-2.73-1.4A2.17,2.17,0,0,1,533,251.39Z" fill="#fff"/>
                <path d="M456.26,153a2.17,2.17,0,1,1-2.73-1.4A2.18,2.18,0,0,1,456.26,153Z" fill="#fff"/>
                <path d="M565.45,398.15a2.17,2.17,0,1,1-2.73-1.4A2.17,2.17,0,0,1,565.45,398.15Z" fill="#fff"/>
                <path d="M426.54,263.58a2.17,2.17,0,1,1-2.73-1.4A2.17,2.17,0,0,1,426.54,263.58Z" fill="#fff"/>
                <path d="M594.39,254.9a2.17,2.17,0,1,1-2.73-1.4A2.16,2.16,0,0,1,594.39,254.9Z" fill="#fff"/>
                <path d="M542.94,69.83A2.17,2.17,0,1,1,542,66.9,2.16,2.16,0,0,1,542.94,69.83Z" fill="#fff"/>
                <path d="M430.05,97.64a2.17,2.17,0,1,1-.91-2.94A2.16,2.16,0,0,1,430.05,97.64Z" fill="#fff"/>
                <path d="M282.41,72.15a2.17,2.17,0,1,1-2.74-1.4A2.18,2.18,0,0,1,282.41,72.15Z" fill="#fff"/>
                <path d="M603.51,315.61a2.17,2.17,0,1,1-2.73-1.4A2.18,2.18,0,0,1,603.51,315.61Z" fill="#fff"/>
                <path d="M631.08,37.72a2.17,2.17,0,1,1-.91-2.94A2.16,2.16,0,0,1,631.08,37.72Z" fill="#fff"/>
                <path d="M622.94,141a2.17,2.17,0,1,1-.92-2.93A2.16,2.16,0,0,1,622.94,141Z" fill="#fff"/>
                <path d="M91.12,64.64a2.17,2.17,0,1,1-.92-2.93A2.18,2.18,0,0,1,91.12,64.64Z" fill="#fff"/>
                <path d="M299.38,132.88a2.18,2.18,0,1,1-1.4,2.74A2.18,2.18,0,0,1,299.38,132.88Z" fill="#fff"/>
                <path d="M428.68,335.3a2.17,2.17,0,1,1-2.93.91A2.16,2.16,0,0,1,428.68,335.3Z" fill="#fff"/>
                <path d="M475,294.77a2.17,2.17,0,1,1-2.93.92A2.18,2.18,0,0,1,475,294.77Z" fill="#fff"/>
                <path d="M399.34,243a2.17,2.17,0,1,1-2.93.92A2.18,2.18,0,0,1,399.34,243Z" fill="#fff"/>
                <path d="M549.44,35.79a2.17,2.17,0,1,1-2.93.92A2.17,2.17,0,0,1,549.44,35.79Z" fill="#fff"/>
                <path d="M577.24,148.68a2.17,2.17,0,1,1-2.93.91A2.18,2.18,0,0,1,577.24,148.68Z" fill="#fff"/>
                <path d="M350.76,54.36a2.17,2.17,0,1,1-2.94.92A2.18,2.18,0,0,1,350.76,54.36Z" fill="#fff"/>
                <path d="M466.21,345.65a4.73,4.73,0,1,1-5.95-3A4.72,4.72,0,0,1,466.21,345.65Z" fill="#fff"/>
                <path d="M361.86,244.78a5.15,5.15,0,1,1-6.5-3.32A5.17,5.17,0,0,1,361.86,244.78Z" fill="#fff"/>
                <path d="M231.77,71a5.83,5.83,0,1,1-7.34-3.76A5.83,5.83,0,0,1,231.77,71Z" fill="#fff"/>
                <path d="M533,251.39a2.17,2.17,0,1,1-2.73-1.4A2.17,2.17,0,0,1,533,251.39Z" fill="#fff"/>
                <path d="M456.26,153a2.17,2.17,0,1,1-2.73-1.4A2.18,2.18,0,0,1,456.26,153Z" fill="#fff"/>
                <path d="M565.45,398.15a2.17,2.17,0,1,1-2.73-1.4A2.17,2.17,0,0,1,565.45,398.15Z" fill="#fff"/>
                <path d="M426.54,263.58a2.17,2.17,0,1,1-2.73-1.4A2.17,2.17,0,0,1,426.54,263.58Z" fill="#fff"/>
                <path d="M542.94,69.83A2.17,2.17,0,1,1,542,66.9,2.17,2.17,0,0,1,542.94,69.83Z" fill="#fff"/>
                <path d="M282.41,72.15a2.17,2.17,0,1,1-2.74-1.4A2.18,2.18,0,0,1,282.41,72.15Z" fill="#fff"/>
                <path d="M603.51,315.61a2.17,2.17,0,1,1-2.73-1.4A2.18,2.18,0,0,1,603.51,315.61Z" fill="#fff"/>
                <path d="M622.94,141a2.17,2.17,0,1,1-.92-2.93A2.16,2.16,0,0,1,622.94,141Z" fill="#fff"/>
                <path d="M91.12,64.64a2.17,2.17,0,1,1-.92-2.93A2.18,2.18,0,0,1,91.12,64.64Z" fill="#fff"/>
                <path d="M428.68,335.3a2.17,2.17,0,1,1-2.93.91A2.16,2.16,0,0,1,428.68,335.3Z" fill="#fff"/>
                <path d="M475,294.77a2.17,2.17,0,1,1-2.93.92A2.18,2.18,0,0,1,475,294.77Z" fill="#fff"/>
                <path d="M518.38,352.51a2.17,2.17,0,1,1-2.93.92A2.16,2.16,0,0,1,518.38,352.51Z" fill="#fff"/>
                <path d="M399.34,243a2.17,2.17,0,1,1-2.93.92A2.18,2.18,0,0,1,399.34,243Z" fill="#fff"/>
                <path d="M501.83,171.24a2.17,2.17,0,1,1-2.94.92A2.18,2.18,0,0,1,501.83,171.24Z" fill="#fff"/>
                <path d="M549.44,35.79a2.17,2.17,0,1,1-2.93.92A2.17,2.17,0,0,1,549.44,35.79Z" fill="#fff"/>
                <path d="M577.24,148.68a2.17,2.17,0,1,1-2.93.91A2.18,2.18,0,0,1,577.24,148.68Z" fill="#fff"/>
                <path d="M350.76,54.36a2.17,2.17,0,1,1-2.94.92A2.18,2.18,0,0,1,350.76,54.36Z" fill="#fff"/>
                <path d="M442.13,36a4.73,4.73,0,1,1,3.05-6A4.73,4.73,0,0,1,442.13,36Z" fill="#fff"/>
                <path d="M485.78,247.79a5.83,5.83,0,1,1,3.75-7.34A5.83,5.83,0,0,1,485.78,247.79Z" fill="#fff"/>
                <path d="M141.39,19.81a2.17,2.17,0,1,1,1.4-2.73A2.16,2.16,0,0,1,141.39,19.81Z" fill="#fff"/>
                <path d="M165.29,134.3a2.17,2.17,0,1,1,1.4-2.73A2.17,2.17,0,0,1,165.29,134.3Z" fill="#fff"/>
                <path d="M71.14,24a2.17,2.17,0,1,1,2.93-.91A2.16,2.16,0,0,1,71.14,24Z" fill="#fff"/>
                <path d="M545.8,112.3a2.18,2.18,0,1,1,1.4-2.74A2.18,2.18,0,0,1,545.8,112.3Z" fill="#fff"/>
                <path d="M103.25,112.11a2.17,2.17,0,1,1,2.93-.92A2.17,2.17,0,0,1,103.25,112.11Z" fill="#fff"/>
                <path d="M422.29,198.56a2.17,2.17,0,1,1-2.73-1.4A2.17,2.17,0,0,1,422.29,198.56Z" fill="#fff"/>
                <path d="M210.6,129a2.17,2.17,0,1,1-2.73-1.4A2.18,2.18,0,0,1,210.6,129Z" fill="#fff"/>
                <path d="M466.63,391.78a2.17,2.17,0,1,1-2.74-1.4A2.17,2.17,0,0,1,466.63,391.78Z" fill="#fff"/>
                <path d="M502.89,263.8a2.17,2.17,0,1,1-2.74-1.4A2.17,2.17,0,0,1,502.89,263.8Z" fill="#fff"/>
                <path d="M444.12,63.46a2.17,2.17,0,1,1-.92-2.94A2.18,2.18,0,0,1,444.12,63.46Z" fill="#fff"/>
                <path d="M331.23,91.26a2.17,2.17,0,1,1-.92-2.93A2.17,2.17,0,0,1,331.23,91.26Z" fill="#fff"/>
                <path d="M532.29,457a2.17,2.17,0,1,1-2.73-1.4A2.17,2.17,0,0,1,532.29,457Z" fill="#fff"/>
                <path d="M550.32,190a2.17,2.17,0,1,1-2.73-1.4A2.16,2.16,0,0,1,550.32,190Z" fill="#fff"/>
                <path d="M659.52,435.13a2.17,2.17,0,1,1-2.74-1.4A2.18,2.18,0,0,1,659.52,435.13Z" fill="#fff"/>
                <path d="M524.12,134.61a2.17,2.17,0,1,1-.92-2.93A2.18,2.18,0,0,1,524.12,134.61Z" fill="#fff"/>
                <path d="M277.48,185.87a2.17,2.17,0,1,1-2.73-1.4A2.18,2.18,0,0,1,277.48,185.87Z" fill="#fff"/>
                <path d="M182.67,324.92a5.15,5.15,0,1,1-2.24-6.94A5.14,5.14,0,0,1,182.67,324.92Z" fill="#fff"/>
                <path d="M344.1,392a5.16,5.16,0,1,1-2.25-6.94A5.15,5.15,0,0,1,344.1,392Z" fill="#fff"/>
                <path d="M22.32,299.93a2.17,2.17,0,1,1-.94-2.92A2.16,2.16,0,0,1,22.32,299.93Z" fill="#fff"/>
                <path d="M285.39,332.72a2.17,2.17,0,1,1,1.42-2.72A2.16,2.16,0,0,1,285.39,332.72Z" fill="#fff"/>
                <path d="M395.22,438.36a2.17,2.17,0,1,1,1.43-2.72A2.17,2.17,0,0,1,395.22,438.36Z" fill="#fff"/>
                <path d="M248.15,469.46a2.17,2.17,0,1,1,1.43-2.72A2.17,2.17,0,0,1,248.15,469.46Z" fill="#fff"/>
                <path d="M375.51,315.84a2.17,2.17,0,1,1,1.43-2.72A2.17,2.17,0,0,1,375.51,315.84Z" fill="#fff"/>
                <path d="M316.4,508.32a2.17,2.17,0,1,1,1.42-2.72A2.17,2.17,0,0,1,316.4,508.32Z" fill="#fff"/>
                <path d="M102.36,307.7a2.17,2.17,0,1,1-2.72-1.43A2.17,2.17,0,0,1,102.36,307.7Z" fill="#fff"/>
                <path d="M171.08,282.94a2.17,2.17,0,1,1-2.72-1.42A2.16,2.16,0,0,1,171.08,282.94Z" fill="#fff"/>
                <path d="M190.25,216.14a4.73,4.73,0,1,1,6.37-2A4.73,4.73,0,0,1,190.25,216.14Z" fill="#fff"/>
                <path d="M254.29,140.36a5.15,5.15,0,1,1,6.94-2.24A5.15,5.15,0,0,1,254.29,140.36Z" fill="#fff"/>
                <path d="M209.72,330a2.17,2.17,0,1,1,2.92-.95A2.19,2.19,0,0,1,209.72,330Z" fill="#fff"/>
                <path d="M333.52,345.34a2.17,2.17,0,1,1,2.92-.95A2.17,2.17,0,0,1,333.52,345.34Z" fill="#fff"/>
                <path d="M83,249.19a2.17,2.17,0,1,1,2.92-.94A2.17,2.17,0,0,1,83,249.19Z" fill="#fff"/>
                <path d="M276.33,246.12a2.17,2.17,0,1,1,2.93-.94A2.18,2.18,0,0,1,276.33,246.12Z" fill="#fff"/>
                <path d="M163.79,371a2.17,2.17,0,1,1,2.92-.94A2.17,2.17,0,0,1,163.79,371Z" fill="#fff"/>
                <path d="M331,465.43a2.17,2.17,0,1,1,2.73,1.43A2.17,2.17,0,0,1,331,465.43Z" fill="#fff"/>
                <path d="M391.2,366a2.17,2.17,0,1,1,2.72,1.42A2.17,2.17,0,0,1,391.2,366Z" fill="#fff"/>
                <path d="M114.41,334.47a2.17,2.17,0,1,1,2.92-1A2.19,2.19,0,0,1,114.41,334.47Z" fill="#fff"/>
                <path d="M224.15,471.69a2.17,2.17,0,1,1,2.72,1.42A2.17,2.17,0,0,1,224.15,471.69Z" fill="#fff"/>
                <path d="M224.11,196.93a2.17,2.17,0,1,1,1.43-2.72A2.17,2.17,0,0,1,224.11,196.93Z" fill="#fff"/>
                <path d="M220,258.33a2.17,2.17,0,1,1,1.42-2.72A2.18,2.18,0,0,1,220,258.33Z" fill="#fff"/>
                <path d="M310.14,241.45a2.17,2.17,0,1,1,1.42-2.72A2.17,2.17,0,0,1,310.14,241.45Z" fill="#fff"/>
                <path d="M251,433.93a2.17,2.17,0,1,1,1.42-2.72A2.16,2.16,0,0,1,251,433.93Z" fill="#fff"/>
                <path d="M190.25,216.14a4.73,4.73,0,1,1,6.37-2A4.73,4.73,0,0,1,190.25,216.14Z" fill="#fff"/>
                <path d="M209.72,330a2.17,2.17,0,1,1,2.92-.95A2.19,2.19,0,0,1,209.72,330Z" fill="#fff"/>
                <path d="M333.52,345.34a2.17,2.17,0,1,1,2.93-.95A2.17,2.17,0,0,1,333.52,345.34Z" fill="#fff"/>
                <path d="M83,249.19a2.17,2.17,0,1,1,2.92-.94A2.17,2.17,0,0,1,83,249.19Z" fill="#fff"/>
                <path d="M276.33,246.12a2.17,2.17,0,1,1,2.93-.94A2.18,2.18,0,0,1,276.33,246.12Z" fill="#fff"/>
                <path d="M331,465.43a2.17,2.17,0,1,1,2.73,1.43A2.17,2.17,0,0,1,331,465.43Z" fill="#fff"/>
                <path d="M114.41,334.47a2.17,2.17,0,1,1,2.92-1A2.19,2.19,0,0,1,114.41,334.47Z" fill="#fff"/>
                <path d="M224.15,471.69a2.17,2.17,0,1,1,2.72,1.42A2.17,2.17,0,0,1,224.15,471.69Z" fill="#fff"/>
                <path d="M224.11,196.93a2.17,2.17,0,1,1,1.43-2.72A2.17,2.17,0,0,1,224.11,196.93Z" fill="#fff"/>
                <path d="M220,258.33a2.17,2.17,0,1,1,1.42-2.72A2.18,2.18,0,0,1,220,258.33Z" fill="#fff"/>
                <path d="M148.51,248.18a2.17,2.17,0,1,1,1.43-2.72A2.17,2.17,0,0,1,148.51,248.18Z" fill="#fff"/>
                <path d="M310.14,241.45a2.17,2.17,0,1,1,1.42-2.72A2.17,2.17,0,0,1,310.14,241.45Z" fill="#fff"/>
                <path d="M288.39,364.65a2.17,2.17,0,1,1,1.43-2.72A2.17,2.17,0,0,1,288.39,364.65Z" fill="#fff"/>
                <path d="M251,433.93a2.17,2.17,0,1,1,1.42-2.72A2.16,2.16,0,0,1,251,433.93Z" fill="#fff"/>
                <path d="M245.62,299.18a5.83,5.83,0,1,1,2.54,7.84A5.83,5.83,0,0,1,245.62,299.18Z" fill="#fff"/>
                <path d="M299,437.42a2.17,2.17,0,1,1,.94,2.93A2.16,2.16,0,0,1,299,437.42Z" fill="#fff"/>
                <path d="M325.32,289.1a2.17,2.17,0,1,1,2.93-1A2.17,2.17,0,0,1,325.32,289.1Z" fill="#fff"/>
                <path d="M157.34,183.82a2.17,2.17,0,0,1,2-3.87,2.17,2.17,0,1,1-2,3.87Z" fill="#fff"/>
                <path d="M222.2,300a2.17,2.17,0,1,1,2.93-.94A2.16,2.16,0,0,1,222.2,300Z" fill="#fff"/>
                <path d="M405.42,400.06a2.17,2.17,0,1,1,2.72,1.42A2.17,2.17,0,0,1,405.42,400.06Z" fill="#fff"/>
                <path d="M240.86,385.7a2.17,2.17,0,1,1,2.93-.94A2.17,2.17,0,0,1,240.86,385.7Z" fill="#fff"/>
                <path d="M298.54,406.32a2.17,2.17,0,1,1,2.72,1.42A2.16,2.16,0,0,1,298.54,406.32Z" fill="#fff"/>
                <path d="M157,498.82a2.17,2.17,0,1,1-2.94.92A2.17,2.17,0,0,1,157,498.82Z" fill="#fff"/>
                <path d="M136.2,423.09a2.17,2.17,0,1,1-2.94.92A2.17,2.17,0,0,1,136.2,423.09Z" fill="#fff"/>
                <path d="M95.52,443.07a2.17,2.17,0,1,1-.92-2.93A2.17,2.17,0,0,1,95.52,443.07Z" fill="#fff"/>
                <path d="M183.66,411a2.17,2.17,0,1,1-.91-2.93A2.16,2.16,0,0,1,183.66,411Z" fill="#fff"/>
                <path d="M175.52,514.22a2.17,2.17,0,1,1-.92-2.93A2.18,2.18,0,0,1,175.52,514.22Z" fill="#fff"/>
                <path d="M102,409a2.17,2.17,0,1,1-2.93.91A2.17,2.17,0,0,1,102,409Z" fill="#fff"/>
                <path d="M129.82,521.91a2.17,2.17,0,1,1-2.93.92A2.18,2.18,0,0,1,129.82,521.91Z" fill="#fff"/>
                <path d="M95.52,443.07a2.17,2.17,0,1,1-.92-2.93A2.17,2.17,0,0,1,95.52,443.07Z" fill="#fff"/>
                <path d="M175.52,514.22a2.17,2.17,0,1,1-.92-2.93A2.18,2.18,0,0,1,175.52,514.22Z" fill="#fff"/>
                <path d="M54.41,544.48a2.17,2.17,0,1,1-2.93.92A2.17,2.17,0,0,1,54.41,544.48Z" fill="#fff"/>
                <path d="M102,409a2.17,2.17,0,1,1-2.93.91A2.17,2.17,0,0,1,102,409Z" fill="#fff"/>
                <path d="M129.82,521.91a2.17,2.17,0,1,1-2.93.92A2.18,2.18,0,0,1,129.82,521.91Z" fill="#fff"/>
                <path d="M98.38,485.53a2.17,2.17,0,1,1,1.4-2.73A2.17,2.17,0,0,1,98.38,485.53Z" fill="#fff"/>
                <path d="M102.9,563.2a2.17,2.17,0,1,1-2.73-1.39A2.17,2.17,0,0,1,102.9,563.2Z" fill="#fff"/>
                <path d="M76.7,507.85a2.17,2.17,0,1,1-.92-2.94A2.18,2.18,0,0,1,76.7,507.85Z" fill="#fff"/>
                <path d="M467.08,548.75a2.17,2.17,0,1,1-2.93.92A2.18,2.18,0,0,1,467.08,548.75Z" fill="#fff"/>
                <path d="M446.3,473a2.17,2.17,0,1,1-2.93.92A2.18,2.18,0,0,1,446.3,473Z" fill="#fff"/>
                <path d="M405.63,493a2.17,2.17,0,1,1-.92-2.93A2.17,2.17,0,0,1,405.63,493Z" fill="#fff"/>
                <path d="M493.77,460.89a2.17,2.17,0,0,1-3.85-2,2.17,2.17,0,1,1,3.85,2Z" fill="#fff"/>
                <path d="M485.63,564.15a2.17,2.17,0,1,1-.92-2.93A2.18,2.18,0,0,1,485.63,564.15Z" fill="#fff"/>
                <path d="M412.13,459a2.17,2.17,0,1,1-2.94.92A2.17,2.17,0,0,1,412.13,459Z" fill="#fff"/>
                <path d="M439.93,571.85a2.17,2.17,0,1,1-2.94.91A2.16,2.16,0,0,1,439.93,571.85Z" fill="#fff"/>
                <path d="M405.63,493a2.17,2.17,0,1,1-.92-2.93A2.18,2.18,0,0,1,405.63,493Z" fill="#fff"/>
                <path d="M485.63,564.15a2.17,2.17,0,1,1-.92-2.93A2.18,2.18,0,0,1,485.63,564.15Z" fill="#fff"/>
                <path d="M364.51,594.41a2.17,2.17,0,1,1-2.93.92A2.17,2.17,0,0,1,364.51,594.41Z" fill="#fff"/>
                <path d="M412.13,459a2.17,2.17,0,1,1-2.94.92A2.17,2.17,0,0,1,412.13,459Z" fill="#fff"/>
                <path d="M439.93,571.85a2.17,2.17,0,1,1-2.94.91A2.16,2.16,0,0,1,439.93,571.85Z" fill="#fff"/>
                <path d="M408.48,535.47a2.17,2.17,0,1,1,1.4-2.74A2.17,2.17,0,0,1,408.48,535.47Z" fill="#fff"/>
                <path d="M413,613.14a2.17,2.17,0,1,1-2.74-1.4A2.17,2.17,0,0,1,413,613.14Z" fill="#fff"/>
                <path d="M386.8,557.78a2.17,2.17,0,1,1-.91-2.93A2.17,2.17,0,0,1,386.8,557.78Z" fill="#fff"/>
              </g>
            </g>
          </g>
          <rect id="b211104f-efd4-4d6d-81bf-f2a565fba204" data-name="&lt;Path&gt;" x="187.66" y="77.64" width="311.09" height="9.93" rx="2.15" ry="2.15" fill="#00b956"/>
          <rect id="acaaf0a0-2f89-484b-a82e-81e665e383ed" data-name="&lt;Path&gt;" x="171.12" y="69.09" width="9.93" height="322.94" fill="#049e45"/>
          <rect id="54d198b1-f60e-425e-be3a-9209898b57b8" data-name="&lt;Path&gt;" x="506.5" y="69.09" width="9.93" height="322.94" fill="#049e45"/>
          <rect id="81686e69-bedf-4810-9b31-ca625753cbcd" data-name="&lt;Path&gt;" x="187.66" y="93.81" width="311.09" height="9.93" rx="2.15" ry="2.15" fill="#00b956"/>
          <rect id="84c202ee-7f37-474e-b531-4df4ca16dcc5" data-name="&lt;Path&gt;" x="187.66" y="108.99" width="311.09" height="9.93" rx="2.15" ry="2.15" fill="#00b956"/>
          <rect id="e042bec3-303d-412b-b788-2a416602654c" data-name="&lt;Path&gt;" x="187.66" y="124.17" width="311.09" height="9.93" rx="2.15" ry="2.15" fill="#00b956"/>
          <rect id="fc6a86a6-422e-4275-83ba-7c4a9e507aa5" data-name="&lt;Path&gt;" x="187.66" y="139.35" width="311.09" height="9.93" rx="2.15" ry="2.15" fill="#00b956"/>
          <rect id="abed730b-7ed8-4a35-881d-067ba6530ab2" data-name="&lt;Path&gt;" x="187.66" y="154.52" width="311.09" height="9.93" rx="2.15" ry="2.15" fill="#00b956"/>
          <rect id="f2c5cd4a-fa22-4dfe-92ef-65b931047a16" data-name="&lt;Path&gt;" x="-23.34" y="392.49" width="733.09" height="137.32" fill="#00b956"/>
          <path id="2da72ceb-20b1-4d61-ad1d-baff5ccec62f" data-name="&lt;Path&gt;" d="M643.62,384.31H39a7.72,7.72,0,1,0,0,15.44H643.62a7.72,7.72,0,0,0,0-15.44Z" fill="#049e45"/>
          <path id="aa0322de-d008-407a-af0d-567bad34042c" data-name="&lt;Path&gt;" d="M50.13,330.4c9-13.75,6.33-22.91,6.33-22.91-5,4.15-12.09,18.18-12.09,18.18a47.16,47.16,0,0,0,4.41-24.19c-9.6,7.15-17.66,20.18-17.66,20.18,3.65-13,4-28.63,4-28.63-5.18,5-8.64,13.31-8.64,13.31,3.07-16.32,2.11-17.61,2.11-17.61-8.44,8.16-17.85,29.93-17.85,29.93,1.53-9.31,0-28.64,0-28.64-6.11,7.74-8.69,20.35-9.5,25.2-.08.69-.18,1.36-.29,2,0,0,.09-.75.29-2C2.48,305.61,1,292.88,1,292.88c-9.6,11.6-11.52,32.51-11.52,32.51.76-11.46-6.34-32.51-6.34-32.51-5.8,11.11-6.1,24.5-6,29,0,.55.06,1.09.06,1.61,0,0,0-.58-.06-1.61-.08-1.2-.23-2.48-.45-3.81v29.63C-2.38,346,43.21,340.93,50.13,330.4Z" fill="#00e55c"/>
          <path id="54dcf0b6-5405-42a6-b6b7-60aabe1519a4" data-name="&lt;Path&gt;" d="M1.27,307.21c-.2,1.25-.29,2-.29,2C1.09,308.56,1.19,307.89,1.27,307.21Z" fill="#93895d"/>
          <path id="a3475c59-4131-4e47-9d7b-34460496361d" data-name="&lt;Path&gt;" d="M45.9,346.29c11.33-18,10.56-27.2,10.56-27.2a43.74,43.74,0,0,0-4.88,4.42c1.4-6.35.28-10.29.28-10.29A67.39,67.39,0,0,0,40,323.92,54.75,54.75,0,0,0,41.1,294.6a42.64,42.64,0,0,0-11.76,17.33,8.4,8.4,0,0,0-1.29-3.44c-6.47,7.33-10,17.89-11.53,23.55a93.1,93.1,0,0,0,0-38.15c-5.33,5.49-10,18.85-13,28.89a58,58,0,0,0-.92-18.87,45.12,45.12,0,0,0-9.4,20.59,176.07,176.07,0,0,0-1.8-30.61c-3.71,6.77-5.81,18.35-7,28.52a166.65,166.65,0,0,0-1.47-17.21c-3,2.91-4.87,7.76-6.1,13,0-1-.1-2-.17-3v36.2C-3.86,354.73,37.32,360,45.9,346.29Z" fill="#00b956"/>
          <path id="6a612b19-eb2e-46e4-ac88-a474e8451ec5" data-name="&lt;Path&gt;" d="M56.56,364.88V340.73a2.47,2.47,0,0,0-2.46-2.46H-23.34v29.08H54.1A2.47,2.47,0,0,0,56.56,364.88Z" fill="#0aa549"/>
          <rect id="415b0d81-25dd-49d1-af30-b14951cb6478" data-name="&lt;Path&gt;" x="-23.34" y="365.76" width="85.91" height="205.24" fill="#049e45"/>
          <polygon id="18a0431f-1f1c-44fd-86ae-785edd2d5333" data-name="&lt;Path&gt;" points="62.57 365.76 -23.34 365.76 -23.34 385.42 62.57 378.54 62.57 365.76" fill="#42210b" opacity="0.11"/>
          <path id="269ba205-8ccc-4723-b04f-b8d77bba9956" data-name="&lt;Path&gt;" d="M686.2,309.21s-.09-.75-.3-2C686,307.89,686.09,308.56,686.2,309.21Z" fill="#93895d"/>
          <path d="M203,384H382s-21.25-15.58-37-19.62-28.74-11-39.56-4.51-21.48,9.6-27.48,7.7-28-10.49-41.33-3.19S181.33,384,181.33,384Z" fill="#fff" opacity="0.4"/>
          <path id="5c95e6a4-063c-45c3-8fa7-0223d8851dca" data-name="&lt;Path&gt;" d="M697.72,327.68s.18-2.19.14-5.56A36.65,36.65,0,0,0,697.72,327.68Z" fill="#93895d"/>
          <path id="47bf9a56-ee60-408e-8be8-203bde0ade52" data-name="&lt;Path&gt;" d="M676.41,321s0-1.28-.16-3.33A17.27,17.27,0,0,0,676.41,321Z" fill="#93895d"/>
          <path id="2ed102b3-94d3-44d7-824d-2b88d875f809" data-name="&lt;Path&gt;" d="M685.84,316.85c-.15-2.27.42-6.45.79-11.13A42.73,42.73,0,0,0,685.84,316.85Z" fill="#93895d"/>
          <path id="dc1f3109-f6ac-4586-9bb9-1b45c1e26c51" data-name="&lt;Path&gt;" d="M697.86,322.12c0,3.37-.14,5.56-.14,5.56a36.65,36.65,0,0,1,.14-5.56c-.07-7.56-1.23-21.07-7.87-29.09a94,94,0,0,0-3.36,12.69c-.37,4.68-.94,8.86-.79,11.13l.06.66c.21,1.26.3,2,.3,2q-.16-1-.3-2a6,6,0,0,1-.06-.66,42.73,42.73,0,0,1,.79-11.13c.57-7.07.68-15.29-2.84-19.76,0,0-7.18,20.69-7.54,31.66.14,2.05.16,3.33.16,3.33a17.27,17.27,0,0,1-.16-3.33c-.45-6.86-2.19-22.43-8.69-28.71,0,0-2.61,8.17-2.69,22.15,0,0-7.66-10.73-12.84-15.74,0,0,.38,15.61,4,28.63,0,0-6.44-14.74-16-21.9,0,0-3.16,13.74,2.79,25.91,0,0-7.1-14-12.1-18.18,0,0-2.68,9.16,6.34,22.91,6.83,10.4,51.42,15.44,72.7,17.28V316.15c-.56-6-1.63-15.39-5.3-22.41C704.45,293.74,699,310.19,697.86,322.12Z" fill="#00e55c"/>
          <path id="86576a32-aa61-4fa1-b915-638bd68349c4" data-name="&lt;Path&gt;" d="M702.78,324.7c-1.17-10.16-3.27-21.75-7-28.52a176.07,176.07,0,0,0-1.8,30.61c-.94-5.5-1.91-18.46-8-26,0,0-3.6,14-2.38,24.31-3-10-7.69-23.4-13-28.89a93.1,93.1,0,0,0,0,38.15c-1.53-5.66-3.36-22.91-9.82-30.24,0,0-2.51,7.67-3,10.13-2.33-6.11-1.46-14.5-7.22-19.47,0,0-8.49,15.37-3.47,31.46-2.72-3.2-4.68-10.4-10-14.28,0,0-3,7.52-1.56,13.87-1.4-1.48-4.73-2.1-6.6-3.56,0,0,1,8.3,12.27,26.34,8.47,13.49,48.71,8.57,68.48,5.23V318.18c-1.22-4.31-1.91-11.36-4.44-13.84A144.73,144.73,0,0,0,702.78,324.7Z" fill="#00b956"/>
          <path id="8592ab8b-9351-40b8-a3ba-3fc8afb24963" data-name="&lt;Path&gt;" d="M630.62,340.73v24.15a2.47,2.47,0,0,0,2.46,2.47h76.67V338.27H633.08A2.47,2.47,0,0,0,630.62,340.73Z" fill="#0aa549"/>
          <rect id="b731170e-7408-4838-aeb2-3a3cd276c26f" data-name="&lt;Path&gt;" x="624.61" y="365.76" width="85.14" height="205.24" fill="#049e45"/>
          <rect x="23.63" y="105.38" width="94.69" height="160" fill="#00e55c"/>
          <path d="M122.32,269.38H19.63v-168H122.32Zm-94.69-8h86.69v-152H27.63Z" fill="#00b956"/>
          <polygon id="2be6ed25-2a98-444a-ac30-08ec7b994400" data-name="&lt;Path&gt;" points="624.61 365.76 624.61 378.54 709.75 385.36 709.75 365.76 624.61 365.76" fill="#42210b" opacity="0.11"/>
          <rect id="113a460a-a7e9-4a91-8014-5b317b49bebd" data-name="&lt;Path&gt;" x="43.48" y="130.19" width="54.98" height="110.37" fill="#049e45"/>
          <path id="ff83315b-37da-444e-89c3-7dd523fdcad8" data-name="&lt;Path&gt;" d="M65.87,365.76a7.17,7.17,0,0,0-7.18-7.11h-86v14.23h86A7.17,7.17,0,0,0,65.87,365.76Z" fill="#049e45"/>
          <path id="a55f63e3-8bc2-4711-ac80-520fece019d4" data-name="&lt;Path&gt;" d="M620.35,365.76a7.73,7.73,0,0,0,7.8,7.61h84.6V358.16h-84.6A7.72,7.72,0,0,0,620.35,365.76Z" fill="#049e45"/>
          <path id="2ded0ca0-afd6-4d7a-8771-8626817f18e4" data-name="&lt;Path&gt;" d="M465.74,302.36a1.76,1.76,0,0,0-.19.81C465.63,302.9,465.68,302.63,465.74,302.36Z" fill="#3d2405" opacity="0.1"/>
          <path id="7dd633c7-4fe8-45d1-a1bc-a7188cbecee9" data-name="&lt;Path&gt;" d="M508.32,270.08c-.12.67.17-.67,0,0Z" fill="#c58375"/>
          <path id="bf1009c0-3ccd-4aa6-948a-9e877eaf9e48" data-name="&lt;Path&gt;" d="M212.58,360.4h0C212.48,360.51,212.39,360.63,212.58,360.4Z" fill="#555050"/>
          <path id="fc3f5aa1-42fc-421a-aa28-de5a2c7f9ba0" data-name="&lt;Path&gt;" d="M212.58,360.4c.18-.23.09-.13,0,0Z" fill="#555050"/>
          <path id="d2fa29c8-595c-410c-95e9-5961f787cbf2" data-name="&lt;Path&gt;" d="M212.58,360.4h0Z" fill="#555050"/>
          <polygon id="6a14f8a7-367a-4b4c-9132-b73f2d7ce7df" data-name="&lt;Path&gt;" points="465.74 441.13 465.75 441.13 465.75 441.12 465.74 441.12 465.74 441.13" fill="#9b8878"/>
          <rect x="564.86" y="105.38" width="94.69" height="160" fill="#00e55c"/>
          <path d="M663.55,269.38H560.86v-168H663.55Zm-94.69-8h86.69v-152H568.86Z" fill="#00b956"/>
          <rect id="04669782-92fe-45b6-98a0-b69f29db2ca4" data-name="&lt;Path&gt;" x="584.72" y="130.19" width="54.98" height="110.37" fill="#049e45"/>
          <path d="M420.21,622.44c19.33-.23,38.67,0,58,.31L344.45,90.07,210,625.54C280.07,626.06,350.14,623.26,420.21,622.44Z" opacity="0.34" fill="url(#9d38cb62-2ad1-4f64-84dc-83cf3ad56fd7)"/>
          <g id="3bb4cc89-1db3-49db-a2c2-df6f91ac5ea3" data-name="&lt;Group&gt;">
            <path id="a741b253-6a74-47be-83ae-06baad44bac0" data-name="&lt;Path&gt;" d="M347,78.7h-7.64a13.79,13.79,0,0,0-13.75,13.75V145.9h35.13V92.45A13.79,13.79,0,0,0,347,78.7Z" fill="#049e45"/>
            <rect id="5b71d260-4ab3-48d8-8669-3f06a0c31263" data-name="&lt;Path&gt;" x="341.49" y="9.59" width="3.44" height="99.08" fill="#049e45"/>
            <path id="b7f83c73-8a57-4063-9a24-9bf590f3cc41" data-name="&lt;Path&gt;" d="M360.25,143.47H326.17a2.43,2.43,0,1,0,0,4.86h34.08a2.43,2.43,0,0,0,0-4.86Z" fill="#049e45"/>
          </g>
          <path d="M506,373.79c-3,.48-3.8,1.19-5.71,2-7-4.54-15.55-10.05-22.14-14.26C450.21,352.05,415.72,381,409,384h97Z" fill="#fff" opacity="0.4"/>
        </g>
        <g>
          <g>
            <path d="M521.21,320.77l2.55,68.75a6.89,6.89,0,0,1-5.13,6.92h0a6.9,6.9,0,0,1-8.6-5.72l-9.47-68a10.39,10.39,0,0,1,7.94-11.55h0A10.38,10.38,0,0,1,521.21,320.77Z" fill="#049e45"/>
            <g id="2704ed02-fd70-4522-89c5-5f9707c80ece" data-name="&lt;Group&gt;">
              <g>
                <path d="M528.05,449.09a3.49,3.49,0,0,1-3.25,3.67,3.71,3.71,0,0,1-1.11-.11,3.49,3.49,0,0,1-2.52-2.72l-5.28-28.3,10.48-.92Z" fill="#049e45"/>
                <path d="M517.31,383.19a7.17,7.17,0,0,1,7.25,6.77l1.81,30.75-10.48.92-5.57-29.93A7.18,7.18,0,0,1,517.31,383.19Z" fill="#049e45"/>
              </g>
            </g>
            <g>
              <path d="M525.26,467.75,521.72,474a3.92,3.92,0,0,0,.82,4.86h0l5.64-10.46Z" fill="#049e45"/>
              <path d="M515.55,469.67h0l1.47-15,.21,0-.12-.85,4.52-6.75,4.25,0a1.84,1.84,0,0,1,1.8,1.52l2.84,16.64-4.88,16.18-.24-.16a4.29,4.29,0,0,1-1.95-3.93l.54-7.16-4-9.73-1.77,8A1.92,1.92,0,0,1,515.55,469.67Z" fill="#049e45"/>
            </g>
          </g>
          <g>
            <path d="M491.89,664.4l.84,0Z" fill="#049e45"/>
            <path d="M505.31,664.34h-.53c-.14,2.48-2.54,4.45-5.49,4.45-4.19,0-9.73-2.95-13.77-4.18h0l-9.88.32,21,9.23,1.8.13-.55-.16,7.39-.3Z" fill="#049e45"/>
            <path d="M499.29,668.79c2.95,0,5.35-2,5.49-4.45h-12l-.84,0-.63,0-.38,0-1.45,0-1,0H488l-.64,0-.84,0h-1C489.56,665.84,495.1,668.79,499.29,668.79Z" fill="#049e45"/>
          </g>
          <g id="ead7bd2c-003f-493f-b884-4abfe73f6474" data-name="&lt;Group&gt;">
            <g>
              <path d="M466.86,666.05l.84,0Z" fill="#049e45"/>
              <path d="M480.28,666h-.53c-.14,2.48-2.54,4.45-5.48,4.45-4.2,0-9.74-3-13.77-4.18h0l-9.89.32,21,9.23,1.8.13-.55-.16,7.39-.3Z" fill="#049e45"/>
              <path d="M474.27,670.44c2.94,0,5.34-2,5.48-4.45H467.7l-.84,0-.63,0-.38,0-1.45,0-1,0H463l-.64,0-.84,0h-1C464.53,667.49,470.07,670.44,474.27,670.44Z" fill="#049e45"/>
            </g>
          </g>
          <path d="M452.53,428.42a15.5,15.5,0,0,0-3,11l12.32,114.36a10.15,10.15,0,0,0,10.54,9.1h0a10.14,10.14,0,0,0,9.7-9.84l3.71-116.55a10.17,10.17,0,0,0-3-7.49L478,424.2a15.19,15.19,0,0,0-21.83.36l-3.64,3.8Z" fill="#049e45"/>
          <path d="M461.16,550.48,469,666.82h11.55l1.24-115.93-2-2.89c-4.58-6.79-14.71-4.69-18.68,2.48Z" fill="#049e45"/>
          <path d="M521,426.77a15.49,15.49,0,0,1,3,11L511.66,552.1a10.16,10.16,0,0,1-10.54,9.1h0a10.15,10.15,0,0,1-9.71-9.84l-3.7-116.55a10.13,10.13,0,0,1,3-7.49l4.77-4.77a15.2,15.2,0,0,1,21.84.36l3.63,3.8Z" fill="#049e45"/>
          <path d="M512.32,548.83l-7.84,116.33H492.93l-1.24-115.92,1.95-2.89c4.58-6.79,14.72-4.69,18.68,2.48Z" fill="#049e45"/>
          <g id="dc31de79-3d8c-47bb-a1cd-044f7635949a" data-name="&lt;Group&gt;">
            <path d="M516.83,422.5l-30.1.82-30.1-.82-3.16,6a50.21,50.21,0,0,0-5.61,25.9l4,75.33h69.71l4-75.33a50.11,50.11,0,0,0-5.61-25.9Z" fill="#049e45"/>
          </g>
          <g id="2741b6d2-9438-4581-b1fc-7c594f239a20" data-name="&lt;Group&gt;">
            <rect x="472.13" y="274.48" width="18.15" height="36.72" rx="7.22" ry="7.22" fill="#049e45"/>
            <path d="M472.13,281.7v17c4.78-3.06,12.7-8.06,18.15-11.25V281.7a7.24,7.24,0,0,0-7.22-7.22h-3.71A7.24,7.24,0,0,0,472.13,281.7Z" fill="#049e45"/>
          </g>
          <path d="M451,430.5h71.85l-7.12-33.22a107.28,107.28,0,0,1-1.38-37.09c1.68-12.27,5.58-24.78,3.76-37.37-2.24-15.4-11.75-17.68-24-24.19a24.48,24.48,0,0,0-23,0l-5,2.63c-5.89,2.21-9.43,11.06-12.33,14a18.3,18.3,0,0,0-5.39,13V360a18.11,18.11,0,0,0,2.59,9.37Z" fill="#049e45"/>
          <g>
            <path d="M444.38,320.7l.26,68.79a6.89,6.89,0,0,0,5.41,6.71h0a6.9,6.9,0,0,0,8.36-6.07l6.68-68.36a10.38,10.38,0,0,0-8.4-11.22h0A10.39,10.39,0,0,0,444.38,320.7Z" fill="#049e45"/>
            <g id="289a6a47-1b25-4aba-85e6-aa6a081ec9c3" data-name="&lt;Group&gt;">
              <g>
                <path d="M442.79,449.19a3.49,3.49,0,0,0,3.4,3.53,3.61,3.61,0,0,0,1.1-.15,3.48,3.48,0,0,0,2.41-2.83l4.12-28.48-10.51-.49Z" fill="#049e45"/>
                <path d="M450.84,382.91a7.18,7.18,0,0,0-7,7.06l-.56,30.8,10.51.49,4.35-30.13A7.18,7.18,0,0,0,450.84,382.91Z" fill="#049e45"/>
              </g>
            </g>
            <g>
              <path d="M446.35,467.72l3.8,6.13a3.92,3.92,0,0,1-.63,4.89h0l-6.06-10.22Z" fill="#049e45"/>
              <path d="M456.13,469.24h0l-2.08-15-.21,0,.08-.86-4.79-6.56-4.25.2a1.82,1.82,0,0,0-1.73,1.59L441,465.37l5.54,16,.23-.16a4.3,4.3,0,0,0,1.79-4l-.83-7.13,3.55-9.88,2.1,7.9A1.92,1.92,0,0,0,456.13,469.24Z" fill="#049e45"/>
            </g>
          </g>
          <g>
            <g id="7cd7ae00-81b5-43f7-80bf-3bf592e15394" data-name="&lt;Group&gt;">
              <g id="a9509f45-54df-459b-b95e-62404154bf99" data-name="&lt;Group&gt;">
                <g>
                  <use id="2a0f9825-d327-4ad9-8435-1d352fd20641" data-name="New Symbol 23" width="3.26" height="4.72" transform="matrix(-1.82, 0, 0, 1.82, 453.16, 243.96)" xlink:href="#2add2eb3-695e-493d-afa3-462bce0ab46a"/>
                  <use id="0b9b09fe-d528-46a6-bd3c-42bae6b04cb9" data-name="New Symbol 32" width="3.79" height="1.45" transform="matrix(-1.82, 0, 0, 1.82, 453.74, 237.85)" xlink:href="#c9e6a470-ac02-4ea3-ae4b-c5d6057d2067"/>
                </g>
              </g>
            </g>
            <circle cx="452.53" cy="261.14" r="3.3" fill="#049e45" opacity="0.36"/>
            <path d="M445.53,223.82l.91,53.46a13.32,13.32,0,0,0,18.41,12.08L482.66,282l1.24-54.46-19.81-17.32Z" fill="#049e45"/>
          </g>
          <g>
            <path d="M462.08,247h56.11a0,0,0,0,1,0,0v46.79A4.23,4.23,0,0,1,514,298H466.31a4.23,4.23,0,0,1-4.23-4.23V247A0,0,0,0,1,462.08,247Z" fill="#049e45"/>
            <path d="M486.75,204.76H471.93c-10.08,0-21.15,4.81-28.38,12.26a15.19,15.19,0,0,0,1.05,22l15.59,13.63h58V236.19A31.52,31.52,0,0,0,486.75,204.76Z" fill="#049e45"/>
          </g>
          <path d="M516.09,309.41H456.23c-2.75,0-9.47-2.36-12.27-5.28-16.46-17.51,30.23-35,14.14-52.55a3.21,3.21,0,0,1,2.31-5.43h51.74a3.11,3.11,0,0,1,2.24,5.26c-16.57,17.57,30.49,35.15,14,52.72C525.57,307.05,518.84,309.41,516.09,309.41Z" fill="#049e45"/>
        </g>
      </g>
    </g>
  </g>
  <g id="b39a8212-2262-41b1-8a9e-5770ab7e868f" data-name="img2">
    <g>
      <polygon points="191 650.72 191 665 210.33 665 210.56 650.27 191 650.72" fill="#607189"/>
      <g>
        <rect x="191.18" y="661.51" width="44.14" height="12.94" transform="translate(8.24 -2.58) rotate(0.71)" fill="#634747"/>
        <rect x="191.03" y="671.89" width="45.3" height="2.89" fill="#352525"/>
        <polygon points="208.52 664.49 210.9 657.71 232.03 662.17 208.52 664.49" fill="#634747"/>
      </g>
      <g>
        <g>
          <path d="M200,223.31l2.5,18.06,4,13.62.06.2c.21.73.44,1.45.67,2.18.94,3,2,6,3.22,8.91a83.36,83.36,0,0,0,4.86,9.85c.09.17.2.34.3.5.73,1.24,1.5,2.46,2.32,3.65a52.65,52.65,0,0,0,7.12,8.46,41.67,41.67,0,0,0,9.18,6.73c.26.15.52.28.79.42,4.77,2.44,10.56,4.14,15.58,3.92a13,13,0,0,0,7.23-2.3c2.73-2,4.47-5.49,4.47-10.91V268.45l1.17-.14c1.45-.2,3.6-1.61,3.26-3l-6.6-36.66-.33-2.2,0-.31-2.54-17.16h6.63l-30-5.18-1.69-2.26-1.5.7-21.95,10.25A9.55,9.55,0,0,0,200,221.6,7.56,7.56,0,0,0,200,223.31Z" fill="#f6b297"/>
          <g id="bb963134-8640-48ac-91ee-a10121b60393" data-name="&lt;Group&gt;">
            <path d="M251,240.2l.88,3.07s4.85-3.07,7.49-.88l.45-4.38S253.2,236.25,251,240.2Z" fill="#352525"/>
          </g>
          <path d="M237.79,266a4.11,4.11,0,1,1-4.1-3.9A4,4,0,0,1,237.79,266Z" fill="#f29583"/>
          <path d="M225.09,288.74a41.67,41.67,0,0,0,9.18,6.73c.26.15.52.28.79.42,4.77,2.44,10.56,4.14,15.58,3.92a13,13,0,0,0,7.23-2.3l-22.79-23.27-.11-.12-.68-.68L232,271.15l-.26-.27-.07.18-3.16,8.44Z" fill="#f29583"/>
          <path d="M235,272v0c0,.33,0,.66,0,1,0,.49,0,1,.07,1.44A33.86,33.86,0,0,0,240,289l10.72,11.24a13.06,13.06,0,0,0,7.29-2.32c2.75-2,4.5-5.53,4.5-11V270.73a2,2,0,0,0-.59-.25h0c-3.91-1-8.05.65-11.26,4.53a10.74,10.74,0,0,1-5.15,3.22c-1.69.2-3.21-2.09-3.85-4.74-2.07-8.8,2.93-21.69-1.25-28-.38-.31-.76-.63-1.13-1H238c.07.88.22,1.77.33,2.64.65,5.46-.8,10.67-2,16-.14.62-.28,1.23-.41,1.85-.28,1.29-.51,2.57-.69,3.88-.05.33-.08.67-.1,1C235,270.57,235,271.29,235,272Z" fill="#634747"/>
          <polygon points="210.52 266.16 203.06 308.53 233.79 310.15 235.04 271.84 210.52 266.16" fill="#f6b297"/>
          <g>
            <path d="M215.55,203c2.36-.49,4.77-.82,7.15-1.14,15.8-2.08,31.6-2.2,47.4-4.29.84,8.36,1.41,15.34-2.63,22.71s-14.54,11.75-21.16,6.57c-2.29-1.79-4.76-4.7-7.42-3.55s-2.18,5.21-1.37,8.11a54.16,54.16,0,0,1,.09,28.53c-1.94,7.22-5.41,20.16-14.3,20.29l-14.59.21a7.12,7.12,0,0,1-3.55-.56c-3-1.62-2.23-6-1.69-9.4,2.34-14.78-8.61-28.79-8.23-43.75.21-7.95,4-16,10.79-20.2A28.57,28.57,0,0,1,215.55,203Z" fill="#352525"/>
            <path d="M203.08,259.25l-.12,1.18A5.83,5.83,0,0,1,203.08,259.25Z" fill="#352525"/>
          </g>
        </g>
        <rect x="194.13" y="286.2" width="42.8" height="41.66" rx="16.13" ry="16.13" transform="translate(431.06 614.06) rotate(-180)" fill="#d4f0fe"/>
        <g>
          <path d="M232.2,567.47h0c6.74,0,12.35-4.45,12.65-10.05L249.7,462c.36-6.59-6.66-11.7-14.49-10.54L221,453.57c-6.49,1-11,5.94-10.41,11.37L220,558.25C220.57,563.5,225.84,567.47,232.2,567.47Z" fill="#384d6b"/>
          <path d="M219.48,560.14c0-5.64,5.37-10.34,12.15-10.66,7.73-.37,14,5,13.17,11.45l-1.65,21.14.31.28-3.2,66a2.24,2.24,0,0,1-2.27,1.91l-17.22.82a2.16,2.16,0,0,1-2.46-2Z" fill="#384d6b"/>
        </g>
        <g>
          <path d="M202.88,564.74h0c6.35,0,11.62-4.38,11.9-9.93l4.37-94.47c.33-6.52-6.29-11.59-13.65-10.46l-13.42,2.06c-6.11.94-10.39,5.86-9.78,11.24l9,92.4C191.93,560.78,196.9,564.73,202.88,564.74Z" fill="#2f435b"/>
          <path d="M190.91,557.88c0-5.82,5-10.65,11.4-11,7.27-.35,13.15,5.26,12.44,11.86l-1.47,21.82.28.29L210.79,649a2.16,2.16,0,0,1-2.13,2l-16.21.78a2.13,2.13,0,0,1-2.33-2Z" fill="#2f435b"/>
        </g>
        <path d="M247.33,424.83v25.53a11.9,11.9,0,0,1-8.5,11.4l-30.35,9-22.76-9.52L181,447.4l-2.61-24.75Z" fill="#2f435b"/>
        <path d="M204.73,296.93h13.05c16.17,0,29.28,14.48,29.28,32.34v25.15l2.36,57.14,6.13,44a2.86,2.86,0,0,1-2,3.25l-23.18,5.32-46.78.59A3.71,3.71,0,0,1,180,461.3c-5.16-44.05-19.13-97.7-.32-139C186,308.24,194.9,296.93,204.73,296.93Z" fill="#000429"/>
        <g>
          <g>
            <path d="M320.81,399.39a1.31,1.31,0,0,1,.83,1.59l-.49,1.75-.31,1.1-1.13,3.93-.31,1.11-1.15,4-.31,1.09-1.12,3.94-14.32-2.43L299.29,417a13.47,13.47,0,0,1-18-6.13l-2.33-4.75,22.65-13.42Z" fill="#f6b297"/>
            <polygon points="321.15 402.73 320.83 403.83 309.75 401.74 309.96 400.62 321.15 402.73" fill="#ee7d73"/>
            <polygon points="319.71 407.76 319.39 408.88 308.14 406.75 308.35 405.61 319.71 407.76" fill="#ee7d73"/>
            <polygon points="318.25 412.87 317.94 413.96 306.92 411.89 307.13 410.77 318.25 412.87" fill="#ee7d73"/>
          </g>
          <g>
            <path d="M238.27,313.8c-9.83,1-19.36,26.4-21.21,33.17l-2,7.27-4.47,36.2a11.81,11.81,0,0,0,9.81,13.48,11.56,11.56,0,0,0,12.94-9.3s12.23-68.7,12.26-68.82c.69-3.67-1.72-11.86-6.59-12A6.43,6.43,0,0,0,238.27,313.8Z" fill="#121738" stroke="#121738" stroke-miterlimit="10" stroke-width="6"/>
            <path d="M212.13,353.66l2-7.48c.09-.34,10.09-34,23.8-35.36a8.93,8.93,0,0,1,1.16,0,7.85,7.85,0,0,1,1.28.15c6.5,1.39,9,10.91,8.16,15.41-.09.5-12.25,68.81-12.26,68.84A14.57,14.57,0,0,1,220,406.9c-.36,0-.7-.11-1-.19C211.52,405.13,212.13,353.66,212.13,353.66Zm26.8-36.89a2.36,2.36,0,0,0-.37,0c-6.48.64-15.73,20.42-18.6,31L218,354.82l-4.45,36A8.78,8.78,0,0,0,220.83,401a8.56,8.56,0,0,0,9.58-6.85c3.68-20.66,12.23-68.73,12.26-68.86.46-2.44-1.3-8-3.51-8.44Z" fill="#121738" stroke="#121738" stroke-miterlimit="10" stroke-width="6"/>
          </g>
          <g id="493b6c7a-d492-49d0-af61-c4da2778602e" data-name="&lt;Group&gt;">
            <g>
              <path d="M282.85,415.15a2.28,2.28,0,0,1-.2.59l.52.08.32-3.86Z" fill="#ff8072"/>
              <path d="M277.72,397a2.83,2.83,0,0,1,.13-.44l-53.82-12A11.38,11.38,0,1,0,220.21,407l54.25,7.62a2.63,2.63,0,0,1,0-1.12Z" fill="#121738" stroke="#121738" stroke-miterlimit="10" stroke-width="6"/>
              <path d="M284.36,394.93l-3.74-.92a2.54,2.54,0,0,0-3.05,1.63,3.92,3.92,0,0,0-.13.49l-2.84,18.44a3,3,0,0,0,.09,1.27,3.14,3.14,0,0,0,2.22,2.2l3.74.93a2.54,2.54,0,0,0,3-1.47,2.81,2.81,0,0,0,.2-.66l.55-3.56,2.29-14.88c0-.1,0-.2,0-.3A3.14,3.14,0,0,0,284.36,394.93Z" fill="#d4f0fe"/>
              <path d="M283.49,412l-.32,3.86,6.3.88a8.57,8.57,0,0,0,9.29-6,7.68,7.68,0,0,0,.29-1.26,8.61,8.61,0,0,0-6.69-9.66l-6.19-1.38a1.23,1.23,0,0,1,0,.27Z" fill="#f6b297"/>
            </g>
          </g>
        </g>
      </g>
      <polygon points="218 648.14 218 663 239.28 663 239.47 647.56 218 648.14" fill="#6f7d8e"/>
      <g>
        <rect x="218.03" y="660.86" width="46.28" height="13.57" rx="5.78" ry="5.78" transform="translate(8.24 -2.92) rotate(0.71)" fill="#685252"/>
        <rect x="216.81" y="671.75" width="47.49" height="3.03" fill="#3f2f2f"/>
        <polygon points="236.2 664 238.7 656.89 260.85 661.56 236.2 664" fill="#685252"/>
        <polygon points="248.07 671.83 216.96 671.75 217.1 660.57 248.22 660.95 248.07 671.83" fill="#685252"/>
      </g>
      <g id="cab9410f-6064-44d5-9bb4-4e589d9e9800" data-name="&lt;Group&gt;">
        <path d="M255.45,255.49l5.49-.16a6.12,6.12,0,0,0,5.93-6.29l-.16-5.49a6.21,6.21,0,0,0-.36-1.9c-.07-.19-.15-.36-.22-.53l-2,.88c.06.13.12.26.17.4a3.83,3.83,0,0,1,.23,1.22l.16,5.48a4,4,0,0,1-3.83,4.07l-5.5.16a4,4,0,0,1-4.07-3.83l-.16-5.49c0-.36.5-1.95.52-2.16l-2.18-.61c-.08.46-.5,2.82-.5,2.84l.16,5.48A6.12,6.12,0,0,0,255.45,255.49Z" fill="#000429"/>
        <polygon points="250.55 243.35 264.33 242.68 264.58 244.53 266.72 244.24 266.21 240.42 249.49 241.24 250.55 243.35" fill="#000429"/>
      </g>
      <g>
        <path d="M236.1,243.25l28.37-2.11,0,.16-28.38,2.1c-3.65.26-6.39,2.54-6.24,5.21a10.28,10.28,0,0,0,3.45,7l-.1.11a10.37,10.37,0,0,1-3.51-7.15C229.56,245.87,232.37,243.51,236.1,243.25Z" fill="#000429"/>
        <path d="M228.56,248.29a11.52,11.52,0,0,0,3.92,8.15l.66.58,1-1,.66-.68-.66-.59a8.47,8.47,0,0,1-1.36-1.52,8.88,8.88,0,0,1-1.76-5,3.35,3.35,0,0,1,1.59-2.78,6.9,6.9,0,0,1,3.68-1.18l5.33-.29.92,0,.58,0,1.32-.06,15.41-.84,6-.32-.15-2.34-6.22.34-16.1.86-4.57.25-2.68.15c-.28,0-.55,0-.81.07C231.37,242.51,228.46,245.16,228.56,248.29Z" fill="#000429"/>
      </g>
      <g id="758c32b8-4b11-4f83-a1a5-7c0f83427f45" data-name="&lt;Group&gt;">
        <path d="M239.68,251.3l-.55-1.57c-.71-2-2.11-3.36-3.69-3.52l-.8-.09a4.14,4.14,0,0,0-3.91,2.55h0a8.41,8.41,0,0,0-.88,4.33l.21,3.88a8.38,8.38,0,0,0,.55,2.62l.31.79c.79,2,2.29,3.29,3.92,3.29h.2c2,0,3.74-1.87,4.3-4.59l.63-3A9,9,0,0,0,239.68,251.3Z" fill="#f6b297"/>
      </g>
      <g id="0d76b877-c8e6-4537-89cc-5ec133537843" data-name="&lt;Group&gt;">
        <path d="M258.82,249.31h0c-1.13,0-2.05-.62-2.05-1.38v-1.24c0-.76.92-1.39,2.05-1.39h0c1.12,0,2,.63,2,1.39v1.24C260.86,248.69,259.94,249.31,258.82,249.31Z" fill="#67413a"/>
      </g>
    </g>
  </g>
</svg>
