<svg xmlns="http://www.w3.org/2000/svg" xmlns:xlink="http://www.w3.org/1999/xlink" width="700" height="700" viewBox="0 0 700 700">
  <defs>
    <clipPath id="6d0baa94-f455-4fd5-8834-1d1d27a7cff4">
      <circle cx="345.3" cy="347.73" r="279.12" fill="none"/>
    </clipPath>
    <clipPath id="1e225194-4071-4146-a3ea-0da24d00f9df">
      <rect x="90.6" y="48.1" width="337.85" height="322.36" fill="none"/>
    </clipPath>
    <linearGradient id="32b6dcc7-8ec6-498f-a77d-ad8203f9e459" x1="260.01" y1="77.07" x2="260.01" y2="911.65" gradientUnits="userSpaceOnUse">
      <stop offset="0" stop-color="#fff"/>
      <stop offset="1" stop-color="#fff" stop-opacity="0"/>
    </linearGradient>
  </defs>
  <title>oleg-1</title>
  <g id="840985ee-234c-41b8-ba19-ac9cb0db4c0e" data-name="back6">
    <rect y="-4.8" width="701.05" height="703.44" fill="#f4e6bb"/>
  </g>
  <g id="72fd863b-294a-4777-bf4c-a7f0742c82c8" data-name="img6">
    <circle cx="344.98" cy="347.42" r="279.44" fill="#e5bf61"/>
  </g>
  <g>
    <rect x="-4.25" y="2.81" width="708.18" height="692.2" fill="#aef2cc"/>
    <g clip-path="url(#6d0baa94-f455-4fd5-8834-1d1d27a7cff4)">
      <circle cx="344.88" cy="349.05" r="277.95" fill="#00d159"/>
      <g>
        <rect id="5e15e164-fa6b-49c6-a2fd-66aa716d9e0c" data-name="&lt;Path&gt;" x="-106.34" y="56.09" width="733.09" height="549.82" fill="#00d159"/>
        <rect id="6a928c23-0d31-4d66-86c3-27a2cc768553" data-name="&lt;Path&gt;" x="91.97" y="56.09" width="336.47" height="314.36" fill="#00e55c"/>
        <g opacity="0.43">
          <g clip-path="url(#1e225194-4071-4146-a3ea-0da24d00f9df)">
            <g>
              <path d="M465.49,261.1a5.15,5.15,0,1,1-3.33,6.49A5.14,5.14,0,0,1,465.49,261.1Z" fill="#fff"/>
              <path d="M51,62.39a5.15,5.15,0,1,1-3.32,6.49A5.16,5.16,0,0,1,51,62.39Z" fill="#fff"/>
              <path d="M398.76,99.54a5.15,5.15,0,1,1-3.32,6.49A5.15,5.15,0,0,1,398.76,99.54Z" fill="#fff"/>
              <path d="M561.21,392.15a2.17,2.17,0,1,1-1.4,2.73A2.17,2.17,0,0,1,561.21,392.15Z" fill="#fff"/>
              <path d="M398.38,183a2.17,2.17,0,1,1-2.94.92A2.17,2.17,0,0,1,398.38,183Z" fill="#fff"/>
              <path d="M395.41,30.59a2.17,2.17,0,1,1-2.93.91A2.16,2.16,0,0,1,395.41,30.59Z" fill="#fff"/>
              <path d="M521.4,112.58a2.17,2.17,0,1,1-2.94.92A2.18,2.18,0,0,1,521.4,112.58Z" fill="#fff"/>
              <path d="M322.71,131.16a2.17,2.17,0,1,1-2.93.91A2.16,2.16,0,0,1,322.71,131.16Z" fill="#fff"/>
              <path d="M500.62,36.85a2.17,2.17,0,1,1-2.94.92A2.18,2.18,0,0,1,500.62,36.85Z" fill="#fff"/>
              <path d="M259.56,150.82a2.17,2.17,0,1,1,.91,2.94A2.17,2.17,0,0,1,259.56,150.82Z" fill="#fff"/>
              <path d="M293.93,103.27a2.17,2.17,0,1,1,.92,2.93A2.17,2.17,0,0,1,293.93,103.27Z" fill="#fff"/>
              <path d="M510.1,330.06A2.17,2.17,0,1,1,511,333,2.18,2.18,0,0,1,510.1,330.06Z" fill="#fff"/>
              <path d="M444,299a2.17,2.17,0,1,1,.92,2.93A2.18,2.18,0,0,1,444,299Z" fill="#fff"/>
              <path d="M383.21,332.65a4.73,4.73,0,1,1-5.95-3A4.72,4.72,0,0,1,383.21,332.65Z" fill="#fff"/>
              <path d="M294.32,191.17a5.15,5.15,0,1,1-6.49-3.32A5.15,5.15,0,0,1,294.32,191.17Z" fill="#fff"/>
              <path d="M517.14,425.2a5.15,5.15,0,1,1-6.5-3.32A5.17,5.17,0,0,1,517.14,425.2Z" fill="#fff"/>
              <path d="M212.57,140.05a5.83,5.83,0,1,1-7.34-3.76A5.83,5.83,0,0,1,212.57,140.05Z" fill="#fff"/>
              <path d="M450,238.39a2.17,2.17,0,1,1-2.73-1.4A2.17,2.17,0,0,1,450,238.39Z" fill="#fff"/>
              <path d="M373.26,140a2.17,2.17,0,1,1-2.73-1.4A2.18,2.18,0,0,1,373.26,140Z" fill="#fff"/>
              <path d="M482.45,385.15a2.17,2.17,0,1,1-2.73-1.4A2.17,2.17,0,0,1,482.45,385.15Z" fill="#fff"/>
              <path d="M343.54,250.58a2.17,2.17,0,1,1-2.73-1.4A2.17,2.17,0,0,1,343.54,250.58Z" fill="#fff"/>
              <path d="M511.39,241.9a2.17,2.17,0,1,1-2.73-1.4A2.16,2.16,0,0,1,511.39,241.9Z" fill="#fff"/>
              <path d="M459.94,56.83A2.17,2.17,0,1,1,459,53.9,2.16,2.16,0,0,1,459.94,56.83Z" fill="#fff"/>
              <path d="M347.05,84.64a2.17,2.17,0,1,1-.91-2.94A2.16,2.16,0,0,1,347.05,84.64Z" fill="#fff"/>
              <path d="M199.41,59.15a2.17,2.17,0,1,1-2.74-1.4A2.18,2.18,0,0,1,199.41,59.15Z" fill="#fff"/>
              <path d="M520.51,302.61a2.17,2.17,0,1,1-2.73-1.4A2.18,2.18,0,0,1,520.51,302.61Z" fill="#fff"/>
              <path d="M548.08,24.72a2.17,2.17,0,1,1-.91-2.94A2.16,2.16,0,0,1,548.08,24.72Z" fill="#fff"/>
              <path d="M539.94,128a2.17,2.17,0,1,1-.92-2.93A2.16,2.16,0,0,1,539.94,128Z" fill="#fff"/>
              <path d="M8.12,51.64a2.17,2.17,0,1,1-.92-2.93A2.18,2.18,0,0,1,8.12,51.64Z" fill="#fff"/>
              <path d="M216.38,119.88a2.18,2.18,0,1,1-1.4,2.74A2.18,2.18,0,0,1,216.38,119.88Z" fill="#fff"/>
              <path d="M345.68,322.3a2.17,2.17,0,1,1-2.93.91A2.16,2.16,0,0,1,345.68,322.3Z" fill="#fff"/>
              <path d="M392,281.77a2.17,2.17,0,1,1-2.93.92A2.18,2.18,0,0,1,392,281.77Z" fill="#fff"/>
              <path d="M316.34,230a2.17,2.17,0,1,1-2.93.92A2.18,2.18,0,0,1,316.34,230Z" fill="#fff"/>
              <path d="M466.44,22.79a2.17,2.17,0,1,1-2.93.92A2.17,2.17,0,0,1,466.44,22.79Z" fill="#fff"/>
              <path d="M494.24,135.68a2.17,2.17,0,1,1-2.93.91A2.18,2.18,0,0,1,494.24,135.68Z" fill="#fff"/>
              <path d="M267.76,41.36a2.17,2.17,0,1,1-2.94.92A2.18,2.18,0,0,1,267.76,41.36Z" fill="#fff"/>
              <path d="M383.21,332.65a4.73,4.73,0,1,1-5.95-3A4.72,4.72,0,0,1,383.21,332.65Z" fill="#fff"/>
              <path d="M278.86,231.78a5.15,5.15,0,1,1-6.5-3.32A5.17,5.17,0,0,1,278.86,231.78Z" fill="#fff"/>
              <path d="M148.77,58a5.83,5.83,0,1,1-7.34-3.76A5.83,5.83,0,0,1,148.77,58Z" fill="#fff"/>
              <path d="M450,238.39a2.17,2.17,0,1,1-2.73-1.4A2.17,2.17,0,0,1,450,238.39Z" fill="#fff"/>
              <path d="M373.26,140a2.17,2.17,0,1,1-2.73-1.4A2.18,2.18,0,0,1,373.26,140Z" fill="#fff"/>
              <path d="M482.45,385.15a2.17,2.17,0,1,1-2.73-1.4A2.17,2.17,0,0,1,482.45,385.15Z" fill="#fff"/>
              <path d="M343.54,250.58a2.17,2.17,0,1,1-2.73-1.4A2.17,2.17,0,0,1,343.54,250.58Z" fill="#fff"/>
              <path d="M459.94,56.83A2.17,2.17,0,1,1,459,53.9,2.17,2.17,0,0,1,459.94,56.83Z" fill="#fff"/>
              <path d="M199.41,59.15a2.17,2.17,0,1,1-2.74-1.4A2.18,2.18,0,0,1,199.41,59.15Z" fill="#fff"/>
              <path d="M520.51,302.61a2.17,2.17,0,1,1-2.73-1.4A2.18,2.18,0,0,1,520.51,302.61Z" fill="#fff"/>
              <path d="M539.94,128a2.17,2.17,0,1,1-.92-2.93A2.16,2.16,0,0,1,539.94,128Z" fill="#fff"/>
              <path d="M8.12,51.64a2.17,2.17,0,1,1-.92-2.93A2.18,2.18,0,0,1,8.12,51.64Z" fill="#fff"/>
              <path d="M345.68,322.3a2.17,2.17,0,1,1-2.93.91A2.16,2.16,0,0,1,345.68,322.3Z" fill="#fff"/>
              <path d="M392,281.77a2.17,2.17,0,1,1-2.93.92A2.18,2.18,0,0,1,392,281.77Z" fill="#fff"/>
              <path d="M435.38,339.51a2.17,2.17,0,1,1-2.93.92A2.16,2.16,0,0,1,435.38,339.51Z" fill="#fff"/>
              <path d="M316.34,230a2.17,2.17,0,1,1-2.93.92A2.18,2.18,0,0,1,316.34,230Z" fill="#fff"/>
              <path d="M418.83,158.24a2.17,2.17,0,1,1-2.94.92A2.18,2.18,0,0,1,418.83,158.24Z" fill="#fff"/>
              <path d="M466.44,22.79a2.17,2.17,0,1,1-2.93.92A2.17,2.17,0,0,1,466.44,22.79Z" fill="#fff"/>
              <path d="M494.24,135.68a2.17,2.17,0,1,1-2.93.91A2.18,2.18,0,0,1,494.24,135.68Z" fill="#fff"/>
              <path d="M267.76,41.36a2.17,2.17,0,1,1-2.94.92A2.18,2.18,0,0,1,267.76,41.36Z" fill="#fff"/>
              <path d="M359.13,23a4.73,4.73,0,1,1,3.05-6A4.73,4.73,0,0,1,359.13,23Z" fill="#fff"/>
              <path d="M402.78,234.79a5.83,5.83,0,1,1,3.75-7.34A5.83,5.83,0,0,1,402.78,234.79Z" fill="#fff"/>
              <path d="M58.39,6.81a2.17,2.17,0,1,1,1.4-2.73A2.16,2.16,0,0,1,58.39,6.81Z" fill="#fff"/>
              <path d="M82.29,121.3a2.17,2.17,0,1,1,1.4-2.73A2.17,2.17,0,0,1,82.29,121.3Z" fill="#fff"/>
              <path d="M462.8,99.3a2.18,2.18,0,1,1,1.4-2.74A2.18,2.18,0,0,1,462.8,99.3Z" fill="#fff"/>
              <path d="M20.25,99.11a2.17,2.17,0,1,1,2.93-.92A2.17,2.17,0,0,1,20.25,99.11Z" fill="#fff"/>
              <path d="M339.29,185.56a2.17,2.17,0,1,1-2.73-1.4A2.17,2.17,0,0,1,339.29,185.56Z" fill="#fff"/>
              <path d="M127.6,116a2.17,2.17,0,1,1-2.73-1.4A2.18,2.18,0,0,1,127.6,116Z" fill="#fff"/>
              <path d="M383.63,378.78a2.17,2.17,0,1,1-2.74-1.4A2.17,2.17,0,0,1,383.63,378.78Z" fill="#fff"/>
              <path d="M419.89,250.8a2.17,2.17,0,1,1-2.74-1.4A2.17,2.17,0,0,1,419.89,250.8Z" fill="#fff"/>
              <path d="M361.12,50.46a2.17,2.17,0,1,1-.92-2.94A2.18,2.18,0,0,1,361.12,50.46Z" fill="#fff"/>
              <path d="M248.23,78.26a2.17,2.17,0,1,1-.92-2.93A2.17,2.17,0,0,1,248.23,78.26Z" fill="#fff"/>
              <path d="M449.29,444a2.17,2.17,0,1,1-2.73-1.4A2.17,2.17,0,0,1,449.29,444Z" fill="#fff"/>
              <path d="M467.32,177a2.17,2.17,0,1,1-2.73-1.4A2.16,2.16,0,0,1,467.32,177Z" fill="#fff"/>
              <path d="M576.52,422.13a2.17,2.17,0,1,1-2.74-1.4A2.18,2.18,0,0,1,576.52,422.13Z" fill="#fff"/>
              <path d="M441.12,121.61a2.17,2.17,0,1,1-.92-2.93A2.18,2.18,0,0,1,441.12,121.61Z" fill="#fff"/>
              <path d="M194.48,172.87a2.17,2.17,0,1,1-2.73-1.4A2.18,2.18,0,0,1,194.48,172.87Z" fill="#fff"/>
              <path d="M99.67,311.92A5.15,5.15,0,1,1,97.43,305,5.14,5.14,0,0,1,99.67,311.92Z" fill="#fff"/>
              <path d="M261.1,379a5.16,5.16,0,1,1-2.25-6.94A5.15,5.15,0,0,1,261.1,379Z" fill="#fff"/>
              <path d="M202.39,319.72a2.17,2.17,0,1,1,1.42-2.72A2.16,2.16,0,0,1,202.39,319.72Z" fill="#fff"/>
              <path d="M312.22,425.36a2.17,2.17,0,1,1,1.43-2.72A2.17,2.17,0,0,1,312.22,425.36Z" fill="#fff"/>
              <path d="M165.15,456.46a2.17,2.17,0,1,1,1.43-2.72A2.17,2.17,0,0,1,165.15,456.46Z" fill="#fff"/>
              <path d="M292.51,302.84a2.17,2.17,0,1,1,1.43-2.72A2.17,2.17,0,0,1,292.51,302.84Z" fill="#fff"/>
              <path d="M233.4,495.32a2.17,2.17,0,1,1,1.42-2.72A2.17,2.17,0,0,1,233.4,495.32Z" fill="#fff"/>
              <path d="M19.36,294.7a2.17,2.17,0,1,1-2.72-1.43A2.17,2.17,0,0,1,19.36,294.7Z" fill="#fff"/>
              <path d="M88.08,269.94a2.17,2.17,0,1,1-2.72-1.42A2.16,2.16,0,0,1,88.08,269.94Z" fill="#fff"/>
              <path d="M107.25,203.14a4.73,4.73,0,1,1,6.37-2A4.73,4.73,0,0,1,107.25,203.14Z" fill="#fff"/>
              <path d="M171.29,127.36a5.15,5.15,0,1,1,6.94-2.24A5.15,5.15,0,0,1,171.29,127.36Z" fill="#fff"/>
              <path d="M126.72,317a2.17,2.17,0,1,1,2.92-.95A2.19,2.19,0,0,1,126.72,317Z" fill="#fff"/>
              <path d="M250.52,332.34a2.17,2.17,0,1,1,2.92-.95A2.17,2.17,0,0,1,250.52,332.34Z" fill="#fff"/>
              <path d="M0,236.19a2.17,2.17,0,1,1,2-3.87,2.18,2.18,0,0,1,.94,2.93A2.16,2.16,0,0,1,0,236.19Z" fill="#fff"/>
              <path d="M193.33,233.12a2.17,2.17,0,1,1,2.93-.94A2.18,2.18,0,0,1,193.33,233.12Z" fill="#fff"/>
              <path d="M80.79,358a2.17,2.17,0,1,1,2.92-.94A2.17,2.17,0,0,1,80.79,358Z" fill="#fff"/>
              <path d="M248,452.43a2.17,2.17,0,1,1,2.73,1.43A2.17,2.17,0,0,1,248,452.43Z" fill="#fff"/>
              <path d="M308.2,353a2.17,2.17,0,1,1,2.72,1.42A2.17,2.17,0,0,1,308.2,353Z" fill="#fff"/>
              <path d="M31.41,321.47a2.17,2.17,0,1,1,2.92-1A2.19,2.19,0,0,1,31.41,321.47Z" fill="#fff"/>
              <path d="M141.15,458.69a2.17,2.17,0,1,1,2.72,1.42A2.17,2.17,0,0,1,141.15,458.69Z" fill="#fff"/>
              <path d="M141.11,183.93a2.17,2.17,0,1,1,1.43-2.72A2.17,2.17,0,0,1,141.11,183.93Z" fill="#fff"/>
              <path d="M137,245.33a2.17,2.17,0,1,1,1.42-2.72A2.18,2.18,0,0,1,137,245.33Z" fill="#fff"/>
              <path d="M227.14,228.45a2.17,2.17,0,1,1,1.42-2.72A2.17,2.17,0,0,1,227.14,228.45Z" fill="#fff"/>
              <path d="M168,420.93a2.17,2.17,0,1,1,1.42-2.72A2.16,2.16,0,0,1,168,420.93Z" fill="#fff"/>
              <path d="M107.25,203.14a4.73,4.73,0,1,1,6.37-2A4.73,4.73,0,0,1,107.25,203.14Z" fill="#fff"/>
              <path d="M126.72,317a2.17,2.17,0,1,1,2.92-.95A2.19,2.19,0,0,1,126.72,317Z" fill="#fff"/>
              <path d="M250.52,332.34a2.17,2.17,0,1,1,2.93-.95A2.17,2.17,0,0,1,250.52,332.34Z" fill="#fff"/>
              <path d="M0,236.19a2.17,2.17,0,1,1,2-3.87,2.18,2.18,0,0,1,.94,2.93A2.16,2.16,0,0,1,0,236.19Z" fill="#fff"/>
              <path d="M193.33,233.12a2.17,2.17,0,1,1,2.93-.94A2.18,2.18,0,0,1,193.33,233.12Z" fill="#fff"/>
              <path d="M248,452.43a2.17,2.17,0,1,1,2.73,1.43A2.17,2.17,0,0,1,248,452.43Z" fill="#fff"/>
              <path d="M31.41,321.47a2.17,2.17,0,1,1,2.92-1A2.19,2.19,0,0,1,31.41,321.47Z" fill="#fff"/>
              <path d="M141.15,458.69a2.17,2.17,0,1,1,2.72,1.42A2.17,2.17,0,0,1,141.15,458.69Z" fill="#fff"/>
              <path d="M141.11,183.93a2.17,2.17,0,1,1,1.43-2.72A2.17,2.17,0,0,1,141.11,183.93Z" fill="#fff"/>
              <path d="M137,245.33a2.17,2.17,0,1,1,1.42-2.72A2.18,2.18,0,0,1,137,245.33Z" fill="#fff"/>
              <path d="M65.51,235.18a2.17,2.17,0,1,1,1.43-2.72A2.17,2.17,0,0,1,65.51,235.18Z" fill="#fff"/>
              <path d="M227.14,228.45a2.17,2.17,0,1,1,1.42-2.72A2.17,2.17,0,0,1,227.14,228.45Z" fill="#fff"/>
              <path d="M205.39,351.65a2.17,2.17,0,1,1,1.43-2.72A2.17,2.17,0,0,1,205.39,351.65Z" fill="#fff"/>
              <path d="M168,420.93a2.17,2.17,0,1,1,1.42-2.72A2.16,2.16,0,0,1,168,420.93Z" fill="#fff"/>
              <path d="M162.62,286.18a5.83,5.83,0,1,1,2.54,7.84A5.83,5.83,0,0,1,162.62,286.18Z" fill="#fff"/>
              <path d="M216,424.42a2.17,2.17,0,1,1,.94,2.93A2.16,2.16,0,0,1,216,424.42Z" fill="#fff"/>
              <path d="M242.32,276.1a2.17,2.17,0,1,1,2.93-1A2.17,2.17,0,0,1,242.32,276.1Z" fill="#fff"/>
              <path d="M74.34,170.82a2.17,2.17,0,0,1,2-3.87,2.17,2.17,0,1,1-2,3.87Z" fill="#fff"/>
              <path d="M139.2,287a2.17,2.17,0,1,1,2.93-.94A2.16,2.16,0,0,1,139.2,287Z" fill="#fff"/>
              <path d="M322.42,387.06a2.17,2.17,0,1,1,2.72,1.42A2.17,2.17,0,0,1,322.42,387.06Z" fill="#fff"/>
              <path d="M157.86,372.7a2.17,2.17,0,1,1,2.93-.94A2.17,2.17,0,0,1,157.86,372.7Z" fill="#fff"/>
              <path d="M215.54,393.32a2.17,2.17,0,1,1,2.72,1.42A2.16,2.16,0,0,1,215.54,393.32Z" fill="#fff"/>
              <path d="M74,485.82a2.17,2.17,0,1,1-2.94.92A2.17,2.17,0,0,1,74,485.82Z" fill="#fff"/>
              <path d="M53.2,410.09a2.17,2.17,0,1,1-2.94.92A2.17,2.17,0,0,1,53.2,410.09Z" fill="#fff"/>
              <path d="M12.52,430.07a2.17,2.17,0,1,1-.92-2.93A2.17,2.17,0,0,1,12.52,430.07Z" fill="#fff"/>
              <path d="M100.66,398a2.17,2.17,0,1,1-.91-2.93A2.16,2.16,0,0,1,100.66,398Z" fill="#fff"/>
              <path d="M92.52,501.22a2.17,2.17,0,1,1-.92-2.93A2.18,2.18,0,0,1,92.52,501.22Z" fill="#fff"/>
              <path d="M19,396a2.17,2.17,0,1,1-2.93.91A2.17,2.17,0,0,1,19,396Z" fill="#fff"/>
              <path d="M46.82,508.91a2.17,2.17,0,1,1-2.93.92A2.18,2.18,0,0,1,46.82,508.91Z" fill="#fff"/>
              <path d="M12.52,430.07a2.17,2.17,0,1,1-.92-2.93A2.17,2.17,0,0,1,12.52,430.07Z" fill="#fff"/>
              <path d="M92.52,501.22a2.17,2.17,0,1,1-.92-2.93A2.18,2.18,0,0,1,92.52,501.22Z" fill="#fff"/>
              <path d="M19,396a2.17,2.17,0,1,1-2.93.91A2.17,2.17,0,0,1,19,396Z" fill="#fff"/>
              <path d="M46.82,508.91a2.17,2.17,0,1,1-2.93.92A2.18,2.18,0,0,1,46.82,508.91Z" fill="#fff"/>
              <path d="M15.38,472.53a2.17,2.17,0,1,1,1.4-2.73A2.17,2.17,0,0,1,15.38,472.53Z" fill="#fff"/>
              <path d="M19.9,550.2a2.17,2.17,0,1,1-2.73-1.39A2.17,2.17,0,0,1,19.9,550.2Z" fill="#fff"/>
              <path d="M384.08,535.75a2.17,2.17,0,1,1-2.93.92A2.18,2.18,0,0,1,384.08,535.75Z" fill="#fff"/>
              <path d="M363.3,460a2.17,2.17,0,1,1-2.93.92A2.18,2.18,0,0,1,363.3,460Z" fill="#fff"/>
              <path d="M322.63,480a2.17,2.17,0,1,1-.92-2.93A2.17,2.17,0,0,1,322.63,480Z" fill="#fff"/>
              <path d="M410.77,447.89a2.17,2.17,0,0,1-3.85-2,2.17,2.17,0,1,1,3.85,2Z" fill="#fff"/>
              <path d="M402.63,551.15a2.17,2.17,0,1,1-.92-2.93A2.18,2.18,0,0,1,402.63,551.15Z" fill="#fff"/>
              <path d="M329.13,446a2.17,2.17,0,1,1-2.94.92A2.17,2.17,0,0,1,329.13,446Z" fill="#fff"/>
              <path d="M356.93,558.85a2.17,2.17,0,1,1-2.94.91A2.16,2.16,0,0,1,356.93,558.85Z" fill="#fff"/>
              <path d="M322.63,480a2.17,2.17,0,1,1-.92-2.93A2.18,2.18,0,0,1,322.63,480Z" fill="#fff"/>
              <path d="M402.63,551.15a2.17,2.17,0,1,1-.92-2.93A2.18,2.18,0,0,1,402.63,551.15Z" fill="#fff"/>
              <path d="M281.51,581.41a2.17,2.17,0,1,1-2.93.92A2.17,2.17,0,0,1,281.51,581.41Z" fill="#fff"/>
              <path d="M329.13,446a2.17,2.17,0,1,1-2.94.92A2.17,2.17,0,0,1,329.13,446Z" fill="#fff"/>
              <path d="M356.93,558.85a2.17,2.17,0,1,1-2.94.91A2.16,2.16,0,0,1,356.93,558.85Z" fill="#fff"/>
              <path d="M325.48,522.47a2.17,2.17,0,1,1,1.4-2.74A2.17,2.17,0,0,1,325.48,522.47Z" fill="#fff"/>
              <path d="M330,600.14a2.17,2.17,0,1,1-2.74-1.4A2.17,2.17,0,0,1,330,600.14Z" fill="#fff"/>
              <path d="M303.8,544.78a2.17,2.17,0,1,1-.91-2.93A2.17,2.17,0,0,1,303.8,544.78Z" fill="#fff"/>
            </g>
          </g>
        </g>
        <rect id="18471040-a8b3-4034-b4da-2ae2a0a508c4" data-name="&lt;Path&gt;" x="104.66" y="64.64" width="311.09" height="9.93" rx="2.15" ry="2.15" fill="#00b956"/>
        <rect id="ac4206e5-4077-471c-9e0f-4ca0bcca38e0" data-name="&lt;Path&gt;" x="88.12" y="56.09" width="9.93" height="322.94" fill="#049e45"/>
        <rect id="92d6dab4-7811-47d7-a73f-0d072364c295" data-name="&lt;Path&gt;" x="423.5" y="56.09" width="9.93" height="322.94" fill="#049e45"/>
        <rect id="ca675544-19a1-47d9-9a59-53ea943ff5c4" data-name="&lt;Path&gt;" x="104.66" y="80.81" width="311.09" height="9.93" rx="2.15" ry="2.15" fill="#00b956"/>
        <rect id="dc7f22c9-7803-4328-959b-b904eaf2ae96" data-name="&lt;Path&gt;" x="104.66" y="95.99" width="311.09" height="9.93" rx="2.15" ry="2.15" fill="#00b956"/>
        <rect id="45844529-d352-4990-a34b-4a11ab152101" data-name="&lt;Path&gt;" x="104.66" y="111.17" width="311.09" height="9.93" rx="2.15" ry="2.15" fill="#00b956"/>
        <rect id="b115d74f-7bd8-45db-9f1f-1f64a7aa2220" data-name="&lt;Path&gt;" x="104.66" y="126.35" width="311.09" height="9.93" rx="2.15" ry="2.15" fill="#00b956"/>
        <rect id="6a2d634c-4f46-42c3-a8c8-a867665e2f2c" data-name="&lt;Path&gt;" x="104.66" y="141.52" width="311.09" height="9.93" rx="2.15" ry="2.15" fill="#00b956"/>
        <rect id="c0ccd0f0-f3f5-48c3-9e0a-28e8297dec48" data-name="&lt;Path&gt;" x="-106.34" y="379.49" width="733.09" height="137.32" fill="#00b956"/>
        <path id="a1f699f3-741d-40c9-ae62-6c4bbcde68dc" data-name="&lt;Path&gt;" d="M560.62,371.31H-44A7.74,7.74,0,0,0-51.74,379,7.75,7.75,0,0,0-44,386.75H560.62a7.72,7.72,0,0,0,0-15.44Z" fill="#049e45"/>
        <path id="2438dbc3-ce2f-4c02-8ce0-a265236d079d" data-name="&lt;Path&gt;" d="M603.2,296.21s-.09-.75-.3-2C603,294.89,603.09,295.56,603.2,296.21Z" fill="#93895d"/>
        <path d="M120,371H299s-21.25-15.58-37-19.62-28.74-11-39.56-4.51-21.48,9.6-27.48,7.7-28-10.49-41.33-3.19S98.33,371,98.33,371Z" fill="#fff" opacity="0.4"/>
        <path id="c75b31e6-c37f-4d81-8086-b3e17b919dee" data-name="&lt;Path&gt;" d="M614.72,314.68s.18-2.19.14-5.56A36.65,36.65,0,0,0,614.72,314.68Z" fill="#93895d"/>
        <path id="be073da6-e26c-4102-8b1c-187cb65510b3" data-name="&lt;Path&gt;" d="M593.41,308s0-1.28-.16-3.33A17.27,17.27,0,0,0,593.41,308Z" fill="#93895d"/>
        <path id="030e56f3-b762-482c-8cd6-3628b706cf43" data-name="&lt;Path&gt;" d="M602.84,303.85c-.15-2.27.42-6.45.79-11.13A42.73,42.73,0,0,0,602.84,303.85Z" fill="#93895d"/>
        <path id="ab2af4be-f9a5-41e0-a85c-15ed2605ab65" data-name="&lt;Path&gt;" d="M614.86,309.12c0,3.37-.14,5.56-.14,5.56a36.65,36.65,0,0,1,.14-5.56c-.07-7.56-1.23-21.07-7.87-29.09a94,94,0,0,0-3.36,12.69c-.37,4.68-.94,8.86-.79,11.13l.06.66c.21,1.26.3,2,.3,2q-.16-1-.3-2a6,6,0,0,1-.06-.66,42.73,42.73,0,0,1,.79-11.13c.57-7.07.68-15.29-2.84-19.76,0,0-7.18,20.69-7.54,31.66.14,2.05.16,3.33.16,3.33a17.27,17.27,0,0,1-.16-3.33c-.45-6.86-2.19-22.43-8.69-28.71,0,0-2.61,8.17-2.69,22.15,0,0-7.66-10.73-12.84-15.74,0,0,.38,15.61,4,28.63,0,0-6.44-14.74-16-21.9,0,0-3.16,13.74,2.79,25.91,0,0-7.1-14-12.1-18.18,0,0-2.68,9.16,6.34,22.91,6.83,10.4,51.42,15.44,72.7,17.28V303.15c-.56-6-1.63-15.39-5.3-22.41C621.45,280.74,616,297.19,614.86,309.12Z" fill="#00e55c"/>
        <path id="015a3889-c4ef-4a15-98bd-ad9b863adf54" data-name="&lt;Path&gt;" d="M619.78,311.7c-1.17-10.16-3.27-21.75-7-28.52a176.07,176.07,0,0,0-1.8,30.61c-.94-5.5-1.91-18.46-8-26,0,0-3.6,14-2.38,24.31-3-10-7.69-23.4-13-28.89a93.1,93.1,0,0,0,0,38.15c-1.53-5.66-3.36-22.91-9.82-30.24,0,0-2.51,7.67-3,10.13-2.33-6.11-1.46-14.5-7.22-19.47,0,0-8.49,15.37-3.47,31.46-2.72-3.2-4.68-10.4-10-14.28,0,0-3,7.52-1.56,13.87-1.4-1.48-4.73-2.1-6.6-3.56,0,0,1,8.3,12.27,26.34,8.47,13.49,48.71,8.57,68.48,5.23V305.18c-1.22-4.31-1.91-11.36-4.44-13.84A144.73,144.73,0,0,0,619.78,311.7Z" fill="#00b956"/>
        <path id="43e2d3f8-f0f1-4511-ad19-7eb0a722f9ea" data-name="&lt;Path&gt;" d="M547.62,327.73v24.15a2.47,2.47,0,0,0,2.46,2.47h76.67V325.27H550.08A2.47,2.47,0,0,0,547.62,327.73Z" fill="#0aa549"/>
        <rect id="9eff182b-1a6a-45f6-a1aa-71e8d85448de" data-name="&lt;Path&gt;" x="541.61" y="352.76" width="85.14" height="205.24" fill="#049e45"/>
        <rect x="-59.37" y="92.38" width="94.69" height="160" fill="#00e55c"/>
        <path d="M39.32,256.38H-63.37v-168H39.32Zm-94.69-8H31.32v-152H-55.37Z" fill="#00b956"/>
        <polygon id="f8c655d8-6f80-4bcc-bdb1-b274c6aa501d" data-name="&lt;Path&gt;" points="541.61 352.76 541.61 365.54 626.75 372.36 626.75 352.76 541.61 352.76" fill="#42210b" opacity="0.11"/>
        <rect id="dd9d35ab-de5c-461b-a507-ae823dab3053" data-name="&lt;Path&gt;" x="-39.52" y="117.19" width="54.98" height="110.37" fill="#049e45"/>
        <path id="cb884061-adc7-4423-a24d-e131f45c3efd" data-name="&lt;Path&gt;" d="M534.35,352.76a7.73,7.73,0,0,0,7.8,7.61h84.6V345.16h-84.6A7.72,7.72,0,0,0,534.35,352.76Z" fill="#049e45"/>
        <path id="0ddf7397-cbc9-4e04-8641-fe71bd9a6f75" data-name="&lt;Path&gt;" d="M382.74,289.36a1.76,1.76,0,0,0-.19.81C382.63,289.9,382.68,289.63,382.74,289.36Z" fill="#3d2405" opacity="0.1"/>
        <path id="cc431131-cae2-4d53-9745-bcb45d7967f8" data-name="&lt;Path&gt;" d="M425.32,257.08c-.12.67.17-.67,0,0Z" fill="#c58375"/>
        <path id="f8fd6f00-5104-4568-83ae-1b0bbef97884" data-name="&lt;Path&gt;" d="M129.58,347.4h0C129.48,347.51,129.39,347.63,129.58,347.4Z" fill="#555050"/>
        <path id="4c63ae32-f5de-4eac-9e44-0db08bca22ba" data-name="&lt;Path&gt;" d="M129.58,347.4c.18-.23.09-.13,0,0Z" fill="#555050"/>
        <path id="56bdc7b0-35a1-4818-a415-0003bbbe5e26" data-name="&lt;Path&gt;" d="M129.58,347.4h0Z" fill="#555050"/>
        <polygon id="c61abfa1-f90e-4624-a93f-479289337227" data-name="&lt;Path&gt;" points="382.74 428.13 382.75 428.13 382.75 428.12 382.74 428.12 382.74 428.13" fill="#9b8878"/>
        <rect x="481.86" y="92.38" width="94.69" height="160" fill="#00e55c"/>
        <path d="M580.55,256.38H477.86v-168H580.55Zm-94.69-8h86.69v-152H485.86Z" fill="#00b956"/>
        <rect id="53cf6abc-bb07-4510-bdd9-ddada8a33f04" data-name="&lt;Path&gt;" x="501.72" y="117.19" width="54.98" height="110.37" fill="#049e45"/>
        <path d="M329.83,558.11c17.73-.2,35.47,0,53.21.29L260.33,77.07,137,560.91C201.28,561.38,265.55,558.85,329.83,558.11Z" opacity="0.49" fill="url(#32b6dcc7-8ec6-498f-a77d-ad8203f9e459)"/>
        <g id="70bf8913-4500-4136-accf-9ac2e54ff0e8" data-name="&lt;Group&gt;">
          <path id="93577321-3c0b-4e05-8971-2317dd8992f4" data-name="&lt;Path&gt;" d="M264,65.7h-7.64a13.79,13.79,0,0,0-13.75,13.75V132.9h35.13V79.45A13.79,13.79,0,0,0,264,65.7Z" fill="#049e45"/>
          <rect id="96d0d202-1a8b-4b44-82f5-3ce83ad44cad" data-name="&lt;Path&gt;" x="258.49" y="-3.41" width="3.44" height="99.08" fill="#049e45"/>
          <path id="bc17ca97-9d64-466c-b13e-fc14a8fdb2bc" data-name="&lt;Path&gt;" d="M277.25,130.47H243.17a2.43,2.43,0,1,0,0,4.86h34.08a2.43,2.43,0,0,0,0-4.86Z" fill="#049e45"/>
        </g>
        <path d="M424,360.79a21.1,21.1,0,0,0-6.21,2c-7-4.54-15.8-10.05-22.39-14.26C367.46,339.05,332.72,368,326,371h98Z" fill="#fff" opacity="0.4"/>
      </g>
    </g>
  </g>
  <g id="abcb35d4-de7a-46da-8735-f68142d3f3e3" data-name="img1">
    <g>
      <polygon points="300.39 478.44 592.23 478.44 600.1 462.2 300.39 462.2 300.39 478.44" fill="#fecb05"/>
      <path id="1a0ad5c4-178a-4c49-ba4b-b377d003e0e8" data-name="&lt;Path&gt;" d="M473.2,651.7c0,2.79-3.27,5.07-7.27,5.07s-7.26-2.28-7.26-5.07V478.41H473.2Z" fill="#9afca6"/>
      <path id="5146c7e1-8cde-43ab-8c2c-139f4158fe97" data-name="&lt;Path&gt;" d="M465.93,642.69c42.31,0,84.62,7.41,84.62,9.41a7.29,7.29,0,0,1-7.27,7.26H388.59a7.29,7.29,0,0,1-7.27-7.26C381.32,650.1,423.63,642.69,465.93,642.69Z" fill="#9afca6"/>
      <polygon points="493.34 461.84 468.77 461.84 464.09 416.41 498.02 416.41 493.34 461.84" fill="#00e55c"/>
      <polygon points="498.6 413.54 481.79 413.54 480.32 413.54 463.51 413.54 463.19 416.44 462.19 417.78 462.34 419.97 464.09 421.14 480.32 421.14 481.79 421.14 498.02 421.14 499.77 419.97 499.92 417.78 498.89 416.35 498.6 413.54" fill="#f3f2ef"/>
      <g>
        <path d="M449.79,418.52l-3.52-2.88-.21.1a1.7,1.7,0,0,0-.51-.07H384a1.9,1.9,0,0,0-1.84,1.42l-9.78,37.33a1.89,1.89,0,0,1-1.84,1.42h-32a1.91,1.91,0,0,0-1.9,1.91v.89a1.9,1.9,0,0,0,1.9,1.91h94.54a1.9,1.9,0,0,0,1.82-1.35L447,419.35Z" fill="#8fcaea"/>
        <g>
          <path d="M336.65,459.82v.89a1.91,1.91,0,0,0,1.9,1.91h97.3a1.9,1.9,0,0,0,1.82-1.36l12.46-41.07a1.91,1.91,0,0,0-1.83-2.46H386.78a1.9,1.9,0,0,0-1.84,1.43l-9.78,37.33a1.9,1.9,0,0,1-1.84,1.42H338.55A1.9,1.9,0,0,0,336.65,459.82Z" fill="#c4e3f7"/>
          <path d="M407.26,440.33a4.27,4.27,0,1,1-4.27-4.28A4.27,4.27,0,0,1,407.26,440.33Z" fill="#fff"/>
          <path d="M418,440.17a4.27,4.27,0,1,1-4.27-4.27A4.27,4.27,0,0,1,418,440.17Z" fill="#fff"/>
          <g opacity="0.7">
            <path d="M428.6,440.17a4.28,4.28,0,1,1-4.28-4.27A4.28,4.28,0,0,1,428.6,440.17Z" fill="#fff"/>
          </g>
        </g>
      </g>
    </g>
    <g>
      <path id="2d6a58f1-5bb8-40a9-8df3-68dbe7e291cd" data-name="&lt;Path&gt;" d="M236.1,535.1a2.66,2.66,0,0,1,3.14-2.07l1.21.25a2.66,2.66,0,0,1,2.06,3.14l-21.42,121a2.65,2.65,0,0,1-3.14,2.06l-1.21-.24a2.66,2.66,0,0,1-2.06-3.14Z" fill="#360a59"/>
      <path id="ee6628b4-40e7-4033-913e-e5b1bc8df0f9" data-name="&lt;Path&gt;" d="M303.54,533.28l1.2-.25a2.66,2.66,0,0,1,3.14,2.07l21.42,121a2.66,2.66,0,0,1-2.06,3.14l-1.21.24a2.65,2.65,0,0,1-3.14-2.06l-21.42-121A2.66,2.66,0,0,1,303.54,533.28Z" fill="#360a59"/>
      <rect id="52ef547b-3fe7-4678-ac96-72d6017747dc" data-name="&lt;Path&gt;" x="228.39" y="523.52" width="92.17" height="15.65" rx="6.52" ry="6.52" fill="#360a59"/>
      <g id="df3641f9-4246-4d12-b492-7203e21e8db3" data-name="&lt;Group&gt;">
        <path id="8ee51f93-0828-4a49-a657-3050ddb1e886" data-name="&lt;Path&gt;" d="M197.09,387h0a8.47,8.47,0,0,1,9.72,7l16,99a24.06,24.06,0,0,0,23.52,19.2h81.8a8.48,8.48,0,0,1,0,17H233.33c-19.49,0-59.78-8.49-63.57-27.61l-6.09-15.4L154.1,386.9S192.46,387.75,197.09,387Z" fill="#360a59"/>
      </g>
      <path id="853c5fff-d714-4bbb-b5c3-f80214d507c1" data-name="&lt;Path&gt;" d="M191.47,535.1a2.67,2.67,0,0,1,3.15-2.07l1.2.25a2.66,2.66,0,0,1,2.07,3.14l-21.43,121a2.65,2.65,0,0,1-3.14,2.06l-1.2-.24a2.66,2.66,0,0,1-2.07-3.14Z" fill="#4f0a72"/>
      <path id="b24e8475-695e-490c-a5c1-21698b02008b" data-name="&lt;Path&gt;" d="M258.91,533.28l1.2-.25a2.66,2.66,0,0,1,3.14,2.07l21.43,121a2.67,2.67,0,0,1-2.07,3.14l-1.2.24a2.66,2.66,0,0,1-3.15-2.06l-21.42-121A2.66,2.66,0,0,1,258.91,533.28Z" fill="#4f0a72"/>
      <rect id="952ea1e3-74bf-4f38-b1a8-235f63d3c238" data-name="&lt;Path&gt;" x="183.76" y="523.52" width="92.17" height="15.65" rx="6.52" ry="6.52" fill="#3e0968"/>
      <g id="c02ad8bc-a162-490d-a352-f590fc828eec" data-name="&lt;Group&gt;">
        <path id="84df7795-2dea-4ebc-8a1b-5a3e1e913884" data-name="&lt;Path&gt;" d="M152.46,387h0a8.47,8.47,0,0,1,9.72,7l16,99a24.08,24.08,0,0,0,23.52,19.2h81.8a8.48,8.48,0,0,1,0,17h-81.8a41.06,41.06,0,0,1-40.18-33l-.05-.29-16.06-99.16A8.47,8.47,0,0,1,152.46,387Z" fill="#46086f"/>
      </g>
    </g>
    <g>
      <rect x="331.17" y="369.05" width="31.4" height="89.93" rx="3" ry="3" transform="translate(142.3 -85.86) rotate(17.7)" fill="#fff"/>
      <g>
        <g id="3800be2d-c271-484d-8921-7d18c54e4e76" data-name="&lt;Group&gt;">
          <path d="M225.54,337.52c-7.35,7.29,1.69,34.27,4.66,41l3.19,7.22,20.28,32.42a12.39,12.39,0,0,0,16.89,4.48,12.11,12.11,0,0,0,4.38-16.11l-35.49-64.1c-1.86-3.44-9.23-8.51-13.31-5.43A7.45,7.45,0,0,0,225.54,337.52Z" fill="#121738"/>
        </g>
        <g id="dd065c9c-dbb7-4a2e-a0d8-2bf1e7e9eada" data-name="&lt;Group&gt;">
          <g>
            <path d="M321,448.15a2.54,2.54,0,0,1-.31.53l.49.17,1-3.68Z" fill="#121738"/>
            <path d="M319.32,429.6a1.9,1.9,0,0,1,.21-.4l-50-21.27A11.22,11.22,0,1,0,261.76,429L313,446.1a2.63,2.63,0,0,1,.16-1.1Z" fill="#121738"/>
          </g>
        </g>
      </g>
      <g>
        <path d="M384.85,503.48h0a13.69,13.69,0,0,0-12.11-14.7L249.12,476.84c-8.54-.86-15.7,6.57-14.79,15.32L236,508.09a13.55,13.55,0,0,0,14,12.31l122-4A13.72,13.72,0,0,0,384.85,503.48Z" fill="#2f435b"/>
        <path d="M357.41,504.59a13.66,13.66,0,1,1,27.15,2.76l-3.12,27.24.31.38-7.66,93.53c-.12,1.32-1.23,1.76-2.56,1.75l-18.55,1c-1.46,0-2.61-10.21-2.52-11.67Z" fill="#2f435b"/>
        <g>
          <rect x="199.61" y="324.36" width="52.32" height="25.58" rx="10.66" ry="10.66" transform="translate(-131.72 529.1) rotate(-84.42)" fill="#f29583"/>
          <path d="M240,323l-2.16,22.13L213,336.27l1.55-15.79a10.65,10.65,0,0,1,11.64-9.57l4.24.41A10.64,10.64,0,0,1,240,323Z" fill="#ef9f8a"/>
        </g>
        <path d="M362.83,519.14h0c1.39-8.37-3.16-16.18-10.27-17.63l-121.22-24.2c-8.37-1.7-19.14,2.81-19.27,12.74l2.79,10.74c-.11,8.24,10.44,24.35,25.33,26.9l108.29,4.88C355.34,532.81,361.51,527,362.83,519.14Z" fill="#384d6b"/>
        <path d="M336,515.41c.3-7.32,7.19-13.31,15.65-13.61,9.64-.34,17.12,6.79,15.83,15.09l-3.07,27.4.36.37-7.2,85.54a2.9,2.9,0,0,1-2.91,2.44l-21.48.75a2.67,2.67,0,0,1-3-2.58Z" fill="#384d6b"/>
        <path d="M216.21,338.72l14.66,3.46a20,20,0,0,1,13.94,12.94l11,30.4,8.12,84.32,1.36,10.41-50.74,8.56-5.75-22.87,1.27-39.25-2.32-8.53A133.4,133.4,0,0,1,206.52,353l2-8.36C209,340.58,212.51,337.85,216.21,338.72Z" fill="#d4f0fe"/>
        <path d="M259.79,430.6a16.58,16.58,0,0,1-7.71,2.56,16.8,16.8,0,0,1-17.92-15.48L232.6,396.1a16.79,16.79,0,0,1,15.5-17.91Z" fill="#6ecbd0"/>
        <path d="M250.14,421.42,250,419.7c-.09-1.35.39-2.47,1.08-2.52h0c.63-.05,1.22.81,1.4,2l.34,2.34c.18,1.21.77,2.07,1.4,2l3.24-.24c.76-.05,1.25-1.42,1-2.89l-4.75-32.65c-.2-1.35-.91-2.24-1.58-2l-8.15,3c-.56.21-.93,1.15-.91,2.28l.71,30.52c0,1.45.7,2.66,1.44,2.6l3.77-.27C249.74,423.89,250.23,422.77,250.14,421.42Zm.87-20.86.67,5.36c.18,1.41-.29,2.7-1,2.79l-1.46.19c-.7.09-1.36-.94-1.47-2.31l-.46-5.46c-.12-1.38.37-2.55,1.07-2.61l1.26-.09C250.25,398.39,250.86,399.3,251,400.56Z" fill="#fdfeff"/>
        <path d="M213.56,476.35l4,15.16a17.13,17.13,0,0,0,17.81,12.77l13.29-2.61a15.84,15.84,0,0,0,12.77-15.51V475.39Z" fill="#384d6b"/>
        <path d="M263.4,400.86c.06.64.11,1.29.14,1.95.07,1,.11,2,.08,3.09l.19,7,.05,1.15s6.31,62.76,2.72,66.91-3.65,3.17-13.83,12.86c-13,6.35-36.85,5.42-36.85,5.42a5,5,0,0,1-5.09-4.84l-12.19-83.88-1.12-15.45a76.8,76.8,0,0,1,4.6-32.4.73.73,0,0,0,.05-.12l.8-2.14.1-.23,2.41-6.45.29-.75,2.83-7.55.13-.33,0-.07.15.08.8.33,13.59,5.68,5,2.09,10.82,4.51c5.06,6.61,12,16.78,18.33,26.39a37.29,37.29,0,0,1,5.47,13.44A27.71,27.71,0,0,1,263.4,400.86Z" fill="#000429"/>
        <polygon points="206.39 350.45 210.64 335.58 241.97 347.34 241.89 363.15 206.39 350.45" fill="#d4f0fe"/>
        <g>
          <g>
            <path d="M359.13,422.53a1.35,1.35,0,0,1,1.27,1.34v3l0,4.21v1.19l0,4.28V442l-14.85,1.61L342.78,446a13.86,13.86,0,0,1-19.57-1l-3.63-4,18.66-19.63Z" fill="#f6b297"/>
            <polygon points="360.4 425.75 360.4 426.91 348.84 427.95 348.74 426.79 360.4 425.75" fill="#ee7d73"/>
            <polygon points="360.38 431.12 360.39 432.31 348.65 433.36 348.54 432.18 360.38 431.12" fill="#ee7d73"/>
            <polygon points="360.37 436.59 360.37 437.76 348.88 438.79 348.78 437.63 360.37 436.59" fill="#ee7d73"/>
          </g>
          <path d="M203.24,374.61c-6,9,8.85,34.62,13.28,40.86l4.76,6.71L248.71,451c4.77,5.21,13,5.87,18.16,1.07A12.63,12.63,0,0,0,268,434.74l-49.55-58c-2.61-3.13-11.19-6.77-14.7-2.78A5.29,5.29,0,0,0,203.24,374.61Z" fill="#121738" stroke="#121738" stroke-miterlimit="10" stroke-width="6"/>
          <g id="cd04b2c8-ee0d-43e1-8f19-9f1e7cb77422" data-name="&lt;Group&gt;">
            <g>
              <path d="M326,448.76a2.28,2.28,0,0,1,0,.64l.54-.07-.76-3.9Z" fill="#ff8072"/>
              <path d="M315.81,432.21a1.84,1.84,0,0,1,0-.47L259.19,435a11.71,11.71,0,1,0,2.5,23.26l55.83-7.65a2.59,2.59,0,0,1-.35-1.1Z" fill="#121738"/>
              <path d="M321.8,429.1l-3.58.28a2.64,2.64,0,0,0-2.4,2.36,1.84,1.84,0,0,0,0,.47l1.36,17.25a2.59,2.59,0,0,0,.35,1.1,2.63,2.63,0,0,0,2.47,1.31l3.58-.28a2.63,2.63,0,0,0,2.37-2.19,2.28,2.28,0,0,0,0-.64l-.26-3.33-1.1-13.92a1.28,1.28,0,0,0-.05-.27A2.62,2.62,0,0,0,321.8,429.1Z" fill="#d4f0fe"/>
              <path d="M325.72,445.43l.76,3.9,6.49-.89a8.83,8.83,0,0,0,7.51-8.55,8.47,8.47,0,0,0-.07-1.33,8.84,8.84,0,0,0-9.33-7.68l-6.51.36a1.28,1.28,0,0,1,.05.27Z" fill="#f6b297"/>
            </g>
          </g>
          <polygon points="251.07 450.25 248.23 446.4 253.48 430.29 315.82 431.74 307.77 441.38 251.07 450.25" fill="#121738"/>
          <g>
            <ellipse cx="214.83" cy="381.75" rx="14.22" ry="14.66" transform="translate(-26.95 16.48) rotate(-4.13)" fill="#121738"/>
            <path d="M216.14,399.89a18.19,18.19,0,1,1,16.39-19.42A18,18,0,0,1,216.14,399.89ZM214,370.65A11.14,11.14,0,1,0,225.5,381,10.92,10.92,0,0,0,214,370.65Z" fill="#121738"/>
          </g>
          <polygon points="214.72 380.15 230.9 374.1 263.77 426.13 225.53 404.15 214.72 380.15" fill="#121738"/>
        </g>
        <path d="M263.27,400.49c.06.64.11,1.29.14,2,.07,1,.11,2.05.08,3.11l-23.85-23.49,5.88-7-17.06-6.47-23.19-16.26,2.85-7.59.12-.33,0-.07.15.08.8.33,13.67,5.71,5,2.11,10.89,4.54c5.09,6.65,12.06,16.87,18.44,26.55a37.49,37.49,0,0,1,5.51,13.52A30,30,0,0,1,263.27,400.49Z" fill="#607189"/>
        <g>
          <path d="M269.34,310.67l-9.51,1.91.17,1.79L261.64,332c-2.1,11.38-17.46,18.88-29.39,4.56l-14.1-17.1-4.26-5.16L203.6,287.86,205,272.77,208.14,258,232.48,247l27.75,1.58-6.93,2.5,18,56.33A2.54,2.54,0,0,1,269.34,310.67Z" fill="#f6b297"/>
          <g id="e7665f73-ba67-454c-a6d6-06e78e6e68e1" data-name="&lt;Group&gt;">
            <path d="M244.43,288.63l1.12,3.07s4.71-3.49,7.57-1.44l.12-4.52S246.38,284.43,244.43,288.63Z" fill="#352525"/>
          </g>
          <path d="M244.88,305.87a4.11,4.11,0,0,1-4.1,4.09c-2.42.18-4.5-1.37-4.65-3.46s1.69-3.92,4.1-4.09S244.73,303.78,244.88,305.87Z" fill="#f6b297"/>
          <path d="M260.2,313.49c-.64-.12-1.28-.25-1.91-.39-7.92-1.83-14.73,2.67-22.29,3.21-2.16.15-4.55,0-6.11-1.45a6.36,6.36,0,0,1-1.76-4.51c-.16-3.84,1.48-7.58,1.45-11.42-.06-7.29-5-10.87-11.1-14-4.68-2.42-4.94-1.63-3.35,3.1,2,6,4.78,11.43,4.47,17.95-.39,8.13-3.4,16.34,2.81,23.24,6.8,7.54,14.63,18.12,26.57,16.25a21.19,21.19,0,0,0,8-3.39,10.47,10.47,0,0,0,4.62-9.42Z" fill="#634747"/>
          <rect x="251.46" y="320.26" width="8.77" height="2.02" transform="translate(-22.49 19.27) rotate(-4.13)" fill="#000429"/>
          <path d="M268.1,242.18c-.52-2-1.13-4-1.79-6l-54.19,14.3c-.79.25-1.55.56-2.3.88l-.73.19a25.53,25.53,0,0,0-11.87,35.87l10,17.78,2.62,3,16.58-8.57c2.77-1.43,4.78-5.44,2.55-7.62-5.29-5.2-15.71-12.37-11.35-21.48a10,10,0,0,1,1.76-2.52c.35.27.61.46.7.51C241,279.66,275.47,270.53,268.1,242.18Z" fill="#352525"/>
          <g id="0ddd7972-b0a5-4b4d-b440-d188f1741e21" data-name="&lt;Group&gt;">
            <path d="M251.17,298.4h0c1.45,0,2.64-.8,2.64-1.79V295c0-1-1.19-1.79-2.64-1.79h0c-1.45,0-2.64.8-2.64,1.79v1.59C248.53,297.6,249.72,298.4,251.17,298.4Z" fill="#67413a"/>
          </g>
        </g>
        <path d="M265.35,289.73a2.9,2.9,0,0,1-.75,0l-.22-3.06-.4,0v-.14l-6.75.59-5.58.48-1.61.14-7.54.66-12.7,2.94-.75.17-7.2,1.67-3.74.86-2,.46-.86,4.17,7.94-1.48h.1l9.49-1.76,1.17-.22,8.51-1.57.44,6.13a10.21,10.21,0,0,0,1.67,5,7.2,7.2,0,0,0,3.92,3,5.48,5.48,0,0,0,2.06.24l8.42-.61c3.56-.26,6.19-4.07,5.87-8.47l-.41-5.74a7.37,7.37,0,0,0,1.15,0l1.67-.13-.25-3.45ZM262,299.09c.19,2.59-1.27,4.8-3.26,4.94l-8.42.61c-2.3.17-4.34-2.13-4.55-5.1l-.59-8.05,16.17-1.4Z" fill="#000429"/>
        <g id="48856fd1-9241-4651-b4ea-22a683514604" data-name="&lt;Group&gt;">
          <path d="M218.94,299.62l-.74-1.76c-1-2.26-2.64-3.69-4.42-3.75l-.91,0c-1.71-.05-3.27,1.17-4.15,3.24h0a10,10,0,0,0-.63,5.05l.55,4.43a10.2,10.2,0,0,0,.84,3l.41.89c1.05,2.27,2.84,3.59,4.66,3.46l.23,0c2.22-.16,4-2.45,4.43-5.62l.44-3.52A10.5,10.5,0,0,0,218.94,299.62Z" fill="#f6b297"/>
        </g>
      </g>
      <path d="M261.39,483.31l94.11,12s14.38-.2,11.81,22.7-43.06-8-43.06-8Z" fill="#384d6b"/>
      <line x1="347.19" y1="375.44" x2="368.48" y2="382.02" fill="none" stroke="#607189" stroke-miterlimit="10" opacity="0.3"/>
      <line x1="345.19" y1="381.44" x2="366.48" y2="388.02" fill="none" stroke="#607189" stroke-miterlimit="10" opacity="0.3"/>
      <line x1="343.19" y1="387.44" x2="364.48" y2="394.02" fill="none" stroke="#607189" stroke-miterlimit="10" opacity="0.3"/>
      <line x1="341.19" y1="393.44" x2="362.48" y2="400.02" fill="none" stroke="#607189" stroke-miterlimit="10" opacity="0.3"/>
    </g>
    <polygon points="350 630.2 350 647 373 647 373.62 629.64 350 630.2" fill="#6f7d8e"/>
    <g>
      <rect x="351.6" y="645.16" width="49.4" height="14.48" rx="6.17" ry="6.17" transform="translate(8.06 -4.58) rotate(0.71)" fill="#685252"/>
      <rect x="350.31" y="656.77" width="50.69" height="3.23" fill="#3f2f2f"/>
      <polygon points="371 648.5 373.67 640.91 397.31 645.9 371 648.5" fill="#685252"/>
    </g>
    <polygon points="331 633.09 331 649 354 649 354.62 632.55 331 633.09" fill="#607189"/>
    <rect x="331" y="640.91" width="23.67" height="18.45" fill="#634747"/>
    <g>
      <rect x="332.6" y="645.16" width="49.4" height="14.48" rx="6.17" ry="6.17" transform="translate(8.06 -4.35) rotate(0.71)" fill="#634747"/>
      <rect x="331.31" y="656.77" width="50.69" height="3.23" fill="#352525"/>
      <polygon points="352 648.5 354.67 640.91 378.31 645.9 352 648.5" fill="#634747"/>
    </g>
  </g>
</svg>
